<svg id="Layer_1" data-name="Layer 1" xmlns="http://www.w3.org/2000/svg" xmlns:xlink="http://www.w3.org/1999/xlink" viewBox="0 0 53 47.8"><defs><mask id="mask" x="12.9" y="20.94" width="26.89" height="26.89" maskUnits="userSpaceOnUse"><g transform="translate(-15.5 0)"><g id="mask-12"><polygon id="path-11" points="28.4 21 28.4 47.9 55.3 47.9 55.3 21 28.4 21" fill="#fff"/></g></g></mask></defs><title>discountsIcon</title><g id="Discounts" style="isolation:isolate"><g style="isolation:isolate"><path d="M15.5,8V0.1h3a4,4,0,0,1,1.6.3,3.3,3.3,0,0,1,1.2.8,3.6,3.6,0,0,1,.7,1.2A4.8,4.8,0,0,1,22.2,4a4.7,4.7,0,0,1-.2,1.6,3.6,3.6,0,0,1-.7,1.2,3.3,3.3,0,0,1-1.2.8,4,4,0,0,1-1.6.3h-3Zm3-.9,1.1-.2,0.8-.6a2.6,2.6,0,0,0,.5-0.9A4.2,4.2,0,0,0,21.1,4a4.2,4.2,0,0,0-.2-1.2,2.6,2.6,0,0,0-.5-0.9l-0.8-.6-1.1-.2H16.5V7h1.9Z" transform="translate(-15.5 0)" fill="#1096d4"/><path d="M23.8,0.6A0.6,0.6,0,0,1,23.9.2L24.4,0l0.4,0.2a0.6,0.6,0,0,1,.2.4,0.6,0.6,0,0,1-.2.4l-0.4.2L23.9,1A0.6,0.6,0,0,1,23.8.6ZM23.9,8V2.2h1V8h-1Z" transform="translate(-15.5 0)" fill="#1096d4"/><path d="M31.1,6.2A1.7,1.7,0,0,1,31,7l-0.5.6L29.8,8h-1a3.1,3.1,0,0,1-1.5-.3,3,3,0,0,1-1-.8L27,6.4a2.1,2.1,0,0,0,1.8.9,1.6,1.6,0,0,0,1-.3,0.8,0.8,0,0,0,.3-0.6A0.6,0.6,0,0,0,30,6l-0.4-.2H28.6l-0.7-.2-0.6-.3-0.4-.5a1.3,1.3,0,0,1-.2-0.7,1.6,1.6,0,0,1,.1-0.7l0.4-.5,0.7-.3h0.9a2.8,2.8,0,0,1,1.3.3,3.1,3.1,0,0,1,.9.8l-0.7.5-0.6-.5a2,2,0,0,0-1.1-.2l-0.8.2a0.7,0.7,0,0,0-.3.6,0.6,0.6,0,0,0,.1.3l0.3,0.2,0.4,0.2h0.5l0.8,0.2,0.7,0.3,0.5,0.5A1.3,1.3,0,0,1,31.1,6.2Z" transform="translate(-15.5 0)" fill="#1096d4"/><path d="M35.1,2.1a2.6,2.6,0,0,1,1.4.3,2.8,2.8,0,0,1,.9.8l-0.7.5-0.6-.6L35.2,3l-0.7.2-0.6.4a2,2,0,0,0-.4.7,2.8,2.8,0,0,0-.1.9,2.8,2.8,0,0,0,.1.9,2,2,0,0,0,.4.7l0.6,0.4,0.8,0.2A1.7,1.7,0,0,0,36.1,7l0.6-.6,0.7,0.5a3.2,3.2,0,0,1-1,.9,2.6,2.6,0,0,1-1.4.3L34,7.9l-0.9-.6a2.8,2.8,0,0,1-.6-1,3.6,3.6,0,0,1-.2-1.2,3.5,3.5,0,0,1,.2-1.2,2.9,2.9,0,0,1,.6-1L34,2.3Z" transform="translate(-15.5 0)" fill="#1096d4"/><path d="M44.1,5.1a3.5,3.5,0,0,1-.2,1.2,2.8,2.8,0,0,1-.6.9l-0.9.6-1.2.2-1.2-.2-0.9-.6a2.7,2.7,0,0,1-.6-0.9,3.6,3.6,0,0,1-.2-1.2,3.6,3.6,0,0,1,.2-1.2,2.8,2.8,0,0,1,.6-1l0.9-.6,1.2-.2,1.2,0.2L43.3,3a2.8,2.8,0,0,1,.6,1A3.5,3.5,0,0,1,44.1,5.1Zm-1,0A2.8,2.8,0,0,0,43,4.3a2.1,2.1,0,0,0-.3-0.7L42,3.1,41.3,3l-0.8.2L40,3.6a2.1,2.1,0,0,0-.3.7,2.9,2.9,0,0,0-.1.8,2.8,2.8,0,0,0,.1.8,2.1,2.1,0,0,0,.3.7l0.6,0.5,0.8,0.2L42,7.1l0.6-.5A2.1,2.1,0,0,0,43,6,2.8,2.8,0,0,0,43.1,5.1Z" transform="translate(-15.5 0)" fill="#1096d4"/><path d="M50.6,2.2V8h-1V7a2.6,2.6,0,0,1-.8.8,2.2,2.2,0,0,1-1.1.3,1.9,1.9,0,0,1-1.5-.6,2.2,2.2,0,0,1-.5-1.6V2.2h1V5.7a2.8,2.8,0,0,0,0,.5l0.2,0.5,0.4,0.4h1.3l0.5-.4,0.4-.6a1.9,1.9,0,0,0,.1-0.7V2.2h1Z" transform="translate(-15.5 0)" fill="#1096d4"/><path d="M52.7,8V2.2h1V3.2a2.5,2.5,0,0,1,.8-0.8,2.2,2.2,0,0,1,1.1-.3,1.9,1.9,0,0,1,1.5.6,2.2,2.2,0,0,1,.5,1.6V8h-1V4.5a2.8,2.8,0,0,0,0-.5l-0.2-.5L56,3.2H54.7l-0.5.4-0.4.6a1.9,1.9,0,0,0-.1.7V8h-1Z" transform="translate(-15.5 0)" fill="#1096d4"/><path d="M63,7.7a1.9,1.9,0,0,1-1.3.4l-0.8-.2a1.4,1.4,0,0,1-.6-0.6l-0.2-.5A3.3,3.3,0,0,1,60,6.2V3.1H59V2.4h0.5L59.9,2l0.2-.5A4,4,0,0,0,60.2.7H61V2.2h1.8V3.1H61V6.3a0.8,0.8,0,0,0,.8,1h0.5L62.6,7Z" transform="translate(-15.5 0)" fill="#1096d4"/><path d="M68.5,6.2a1.7,1.7,0,0,1-.2.7l-0.5.6L67.2,8h-1a3.1,3.1,0,0,1-1.5-.3,3,3,0,0,1-1-.8l0.7-.6a2.1,2.1,0,0,0,1.8.9,1.6,1.6,0,0,0,1-.3,0.8,0.8,0,0,0,.3-0.6A0.6,0.6,0,0,0,67.5,6l-0.4-.2H66l-0.7-.2-0.6-.3-0.4-.5a1.3,1.3,0,0,1-.2-0.7,1.6,1.6,0,0,1,.1-0.7l0.4-.5,0.7-.3h0.9a2.8,2.8,0,0,1,1.3.3,3.1,3.1,0,0,1,.9.8l-0.7.5-0.6-.5a2,2,0,0,0-1.1-.2l-0.8.2a0.7,0.7,0,0,0-.3.6,0.6,0.6,0,0,0,.1.3l0.3,0.2,0.4,0.2h0.5l0.8,0.2,0.7,0.3,0.5,0.5A1.3,1.3,0,0,1,68.5,6.2Z" transform="translate(-15.5 0)" fill="#1096d4"/></g></g><g id="Page-1"><g id="Group-3"><g mask="url(#mask)"><path id="Fill-1" d="M29.4,34.4A12.4,12.4,0,1,1,41.9,46.8,12.4,12.4,0,0,1,29.4,34.4M41.9,21A13.4,13.4,0,1,0,55.3,34.4,13.5,13.5,0,0,0,41.9,21" transform="translate(-15.5 0)" fill="#1967b0"/></g></g><path id="Fill-4" d="M42.7,36v3.8c1.4-.1,2-0.9,2-1.9s-0.8-1.6-2-1.9h0Zm-1.3-3.6V28.9a1.7,1.7,0,0,0-2,1.7c0,1,.7,1.4,2,1.8h0Zm0,11V42.3a7.3,7.3,0,0,1-5.7-3.3l2.1-1.8a4.8,4.8,0,0,0,3.5,2.4V35.6c-1.9-.4-5-1.5-5-4.7s2.1-4.5,5-4.6V25.2h1.3v1.2a6.9,6.9,0,0,1,4.7,2.7l-2,1.7A4.5,4.5,0,0,0,42.7,29v3.7c2.4,0.7,5,1.8,5,4.8s-1.8,4.5-5,4.8v1.1H41.3Z" transform="translate(-15.5 0)" fill="#1967b0"/></g></svg>