<svg id="Layer_1" data-name="Layer 1" xmlns="http://www.w3.org/2000/svg" xmlns:xlink="http://www.w3.org/1999/xlink" viewBox="0 0 376 146"><defs><style>.cls-1{fill:url(#linear-gradient);}.cls-2{fill:#60a82c;}.cls-3{fill:#4a8919;}.cls-4{fill:#aeb2b7;}.cls-5{fill:#144b6b;}.cls-6{fill:#e6e6e6;}.cls-7{fill:#221f1f;}.cls-8{fill:#2489b0;}.cls-9{fill:#135e88;}.cls-10{fill:#bcbdbf;}.cls-11{fill:#fff;}.cls-12{fill:#424143;}.cls-13{fill:#ce1f2f;}.cls-14{fill:#034159;}.cls-15{fill:#04556d;}.cls-16{fill:#282828;}.cls-17{fill:#f9a94b;}.cls-18{fill:#333;}.cls-19{fill:#f8931e;}.cls-20{isolation:isolate;}</style><linearGradient id="linear-gradient" x1="0.5" y1="172.93" x2="0.5" y2="173.68" gradientTransform="matrix(375, 0, 0, -90, 0, 15634)" gradientUnits="userSpaceOnUse"><stop offset="0" stop-color="#00c7ed"/><stop offset="1" stop-color="#0078ab"/></linearGradient></defs><title>guest-image-getbackontheroad</title><g id="Get-Roadside-Assistance---Member"><g id="getBackOnTheRoad"><g id="Group-4"><path id="MW-Card-Header" class="cls-1" d="M0,0H375V90.25H0V0Z" transform="translate(1)"/><g id="Group-23"><g id="Group-22"><polygon id="Fill-7" class="cls-2" points="0 101.01 376 101.01 376 88.11 0 88.11 0 101.01"/><path id="Fill-18" class="cls-3" d="M248.36,80a2.58,2.58,0,0,0-.29.29l-0.38-.11a1.77,1.77,0,0,0,.67-0.18M116.6,98.13c1.13,1.2,2.46,2.58,4.7,2.74H337.15A2.51,2.51,0,0,0,335,98.25c0-.08,0-0.16-0.08-0.23,1.88-1.11,1.16-3.36-1.17-3.65a3.79,3.79,0,0,0-2.81.6c0.7-1.08-1.13-2.3-2.63-2.68,2-.07,2.14-2,1-3A2.3,2.3,0,0,0,330.3,85c-1.29-.77-3.26-0.52-4.78-0.24l-0.12-.07c1.19-1,1-2.41-.83-2.74-1.47-.37-2.69.59-3.79,1.2,0.16-1.57-1.63-2.26-3.45-1.6,1.24-.73.71-1.93-0.77-2.41-0.89-.29-2.72.25-3.71,0.42,2.69-4-9.42-3.3-7.39,1.36a7.67,7.67,0,0,0-3.5.27,1.88,1.88,0,0,0-1.76-1.31,2.12,2.12,0,0,0-.38-0.15c1.37-3.08-4.19-2.1-5.67-1,1.08-1.9-2.5-1.31-3.48-.58l0,0.25a5.53,5.53,0,0,0-5.3.46c-1.58,1.19-1.13,2.48-1.07,4-0.92-1.59-3.09-2.84-4.71-1-0.37-1.46-1.83-2.1-3.71-1.72-2.2.41-2.53,1.42-2.68,3-1.77-.53-4.12-0.53-5.27.79,2-2.07-1.25-4-2.66-2.36,0.52-1.67-3.32-1.88-4.82-.74-0.25-1.39-1-1.91-3-1.85-1.27.09-2.85,0.37-3.28,1.48,0.31-1.87-3.62-2-5.57-.62,0.5-.59,0-1.64-0.8-2.06a6.22,6.22,0,0,0-2.76-.49c-1.59-.08-5.76.74-4.75,2.63-1.38,0-3.3.16-2.92,1.65a10.56,10.56,0,0,0-4.26.08c1.65-2-3.16-1.48-4.23-1.24-2.58.74-3.34,1.57-2.54,3.38-1.91-.41-3.42.25-3.78,1.73a4.52,4.52,0,0,0-3.77,1.15c-2-2-4.44.53-4.08,2.23a1.5,1.5,0,0,0-.23,1.62c-0.68-.87-2-0.82-3.1-0.39l-0.2-.13c0.27-.59-0.38-1.27-0.76-1.77,1.47-.28,2.11-1.14,1.22-2.22-1.08-1.06-2.34-.65-3.73-0.51,0.15-1.75-2.28-1.66-3.79-1.67,2.48-1.18-1.56-2.68-3-2.53-1.67.16-4.92,1.27-3.23,2.7-2.4-1.15-4.51,0-6.34,1.18-0.5-1-2.67-1.84-3.86-.79,0-1.81-3.21-3.24-4.37-1.18a3.5,3.5,0,0,0-3.6-.24,2.31,2.31,0,0,0-1.08,1.79,8.7,8.7,0,0,0-4.25,0l-0.12-.07c1.22-1,1.09-2.41-.72-2.74-1.46-.37-2.71.59-3.84,1.2,0.22-1.57-1.54-2.26-3.39-1.6,1.26-.73.78-1.93-0.68-2.41-0.88-.29-2.72.25-3.73,0.42,2.85-4-9.35-3.29-7.43,1.39a5.34,5.34,0,0,0-3.43.73c-0.24-2.43-3.26-2.28-4.77-.31-2.47-1.82-5.78.42-5.43,2.66-0.54-2.65-4.42-2.91-4.69-.58-1.63-2.06-3.45-2.4-4.53-1.06-2.19-5.93-10.8-.15-6.83,2.18-4.23.27-2.32,2.74-2.32,2.74-2.32-1.27-5.28,1.84-4.07,3.13-3-1.05-5.92,1.63-4.08,4-6.13.33-1.45,7.1,2.27,3.69" transform="translate(1)"/><polygon id="Fill-11" class="cls-4" points="0 146 0.07 100.88 376 100.88 376 109.09 376 146 0 146"/><path id="Fill-16" class="cls-5" d="M289,122.19a4.7,4.7,0,0,1-.25,1.11,1.69,1.69,0,0,0-.52.41,0.44,0.44,0,0,0-.12-0.64,1.35,1.35,0,0,0-.57-0.22,1,1,0,0,0,.12-0.36,2.63,2.63,0,0,1-.08-0.93,14.33,14.33,0,0,0,.11-1.49l1-.07a10.12,10.12,0,0,1,.31,2.2m3.14-28.66c0-.14.22-1.18,0.22-1.18s0.16-.13.22,0.17,0.5,1.83.53,2.11a1.56,1.56,0,0,1,.09,1,2,2,0,0,0-.33.73l0.14,0h0a1.69,1.69,0,0,0-.09.19h0c-0.08-.42-1-1.19-0.77-1.28a1,1,0,0,0-.25-1.53,0.71,0.71,0,0,0,.26-0.27m3.8,14c0-.51-1.37-4-1.5-4.47s-0.76-3.06-.8-3.47a0.33,0.33,0,0,0-.12-0.21l0.3-.47a20.68,20.68,0,0,0,1-2.07,1.26,1.26,0,0,0,.45-0.21,1,1,0,0,0,0-.42s0.13-.83.2-1.1a10,10,0,0,0-.16-1.81,19.63,19.63,0,0,0-.76-3,4.56,4.56,0,0,0-.47-1.27,1.85,1.85,0,0,1-.43-0.38,2.94,2.94,0,0,0-.57-1,3.39,3.39,0,0,0-1.15-.62,4.87,4.87,0,0,1-.91-0.45,2.65,2.65,0,0,0-1.4-.41s0-.08,0-0.13a2.7,2.7,0,0,1,.19-1,1.81,1.81,0,0,0,.22-0.87c0-.19.2-0.38,0.23-0.67a0.62,0.62,0,0,0-.13-0.33,0.69,0.69,0,0,1,0-.12,1,1,0,0,0,.1-0.62,3.23,3.23,0,0,0-.35-1.55,2.05,2.05,0,0,0-1.39-1.13,3.91,3.91,0,0,0-1.1-.07,3.54,3.54,0,0,0-1.61.83,1.79,1.79,0,0,0-.59,1.44,6,6,0,0,0,.12,1.3,7.52,7.52,0,0,0,.48.7c-0.23.16-.11,0.32,0,0.47a1.57,1.57,0,0,1,.22.51,1.28,1.28,0,0,1,.68.82l0,0.52a9,9,0,0,0-3.9,2,0.52,0.52,0,0,0-.13.45,1.2,1.2,0,0,1-.24.44,9.68,9.68,0,0,0,0,1.75,8.24,8.24,0,0,0-.14,1.34c0,0.36.33,2.17,0.34,2.38s0.2,1,.21,1.06,0.23,0.87.25,1.12a3.15,3.15,0,0,0,.36.8,1.8,1.8,0,0,0,.25.93,0.26,0.26,0,0,0,.37,0,0.88,0.88,0,0,0,.07.14c0,0.36-.09,1-0.14,1.41a0.92,0.92,0,0,0,.08.54,19.07,19.07,0,0,0-.06,4.56,42.57,42.57,0,0,0,.53,4.35c-0.13,2.33.19,9.1,0.19,9.1l0,0.37a1.93,1.93,0,0,0,1,.38c0,0.62.16,2.3,0.22,2.43a3.17,3.17,0,0,1-.07,1.16c0,0.17,0,.37-0.05.57a1.63,1.63,0,0,0-.33.53,4.68,4.68,0,0,0-.22,1.38s-0.09.58,1.28,1,1.3-.4,1.35-0.06a1.19,1.19,0,0,0,1.39.64,1.71,1.71,0,0,0,1.28-.63,0.52,0.52,0,0,1,.09-0.63,1.14,1.14,0,0,0,0-1.68,1.33,1.33,0,0,0-.54-0.28l-0.09-1,0.7-2.91a43.12,43.12,0,0,0,4.66-.63c0.25-1.11.18-9.6,0.17-10.37a1.08,1.08,0,0,0,.18-1.26" transform="translate(1)"/><path id="Fill-17" class="cls-5" d="M284.36,99h0l-0.88.11a3.29,3.29,0,0,1,.88-0.11m-8.22.72-0.28,0,0.28,0m3.61-17.17,0.71-.05c-0.22,0-.46,0-0.71.05m2.08,29.56a0.5,0.5,0,0,0,0,.63,3.31,3.31,0,0,1-.09.45,3.71,3.71,0,0,0-.09.58,4.63,4.63,0,0,0-.49,1,13.49,13.49,0,0,1-.94,2.29,0.4,0.4,0,0,1-.25-0.15,8.83,8.83,0,0,0-.19-1.06,4.73,4.73,0,0,1,0-1.68,0.71,0.71,0,0,1-.17-0.39c0-.22.31-0.73,0.31-1s0-3.25.06-3.45,0.09-.43.09-0.64,0.1-2.4.07-2.73a7.15,7.15,0,0,1,1,1.36,3.3,3.3,0,0,0,.42,1.86c0.07,0.14-.21,2,0.25,2.22a1.06,1.06,0,0,1,.06.61m7.42-9.18a10.81,10.81,0,0,1-.64-1.49c0-.17-0.45-1.24-0.45-1.41a9.67,9.67,0,0,0-.4-2.22,10.94,10.94,0,0,1-.48-2.31,6.73,6.73,0,0,0-.34-1.69,7.64,7.64,0,0,1-.77-2.4,15.22,15.22,0,0,0-.4-2.35l0.43-.07a0.55,0.55,0,0,0-.19-0.37,1.26,1.26,0,0,1-.13-0.81,11.84,11.84,0,0,0-.52-3.19,3.15,3.15,0,0,0-1.94-1.26,19.7,19.7,0,0,0-2.06-1l-0.13,0v-1a5.94,5.94,0,0,0,.37-0.7,3.39,3.39,0,0,0,0-.62,0.29,0.29,0,0,0,.17-0.09A3.4,3.4,0,0,0,282,79.1a0.58,0.58,0,0,0-.19-0.63,0.28,0.28,0,0,0-.32.08s0-.55,0-0.67a2.17,2.17,0,0,0-.43-1.4,2,2,0,0,0-2-.94,1.87,1.87,0,0,0-1.52.67,1.74,1.74,0,0,0-.65,1.54A10,10,0,0,0,277,79c0,0.11.08,0.39,0,.39a0.2,0.2,0,0,0-.15.08,2.06,2.06,0,0,0,.22.85,1.65,1.65,0,0,0,.4.45,0.87,0.87,0,0,1,.29.25,2.27,2.27,0,0,1,0,.88l-0.31.36a1.6,1.6,0,0,0-.78.21,7.24,7.24,0,0,1-1.77.81,1.81,1.81,0,0,0-1.15.34,2.74,2.74,0,0,0-.54,1.2,10.09,10.09,0,0,0,.4,3.22,5,5,0,0,1,.4.93h0.12a5.62,5.62,0,0,0,.82,1.5,3.27,3.27,0,0,0,.33.9,1.14,1.14,0,0,0,.16.64,14,14,0,0,1,.15,1.51,11.66,11.66,0,0,1,0,1.42,4.83,4.83,0,0,0-.43,1c0,0.33,0,2,0,2a5.05,5.05,0,0,0-.24,1,0.88,0.88,0,0,0,.33.35c0,0.36,0,1.11,0,1.21s-0.09.93-.09,1.27,0.25,2.35.25,2.68,0.22,4,.34,4.4a7.91,7.91,0,0,1,.46,1.47,15.12,15.12,0,0,0,.19,1.8c0.06,0.27.08,2.2,0.15,2.71s0.31,2.59.48,3.21,0.84,2.71.84,2.71a3.07,3.07,0,0,0,.06,1.3,2.69,2.69,0,0,1,.19.87,0.93,0.93,0,0,0-.63.61,3.73,3.73,0,0,0,.49,1.2,2.45,2.45,0,0,1-.61.33,2.48,2.48,0,0,0-1.15.6c-0.06.22-.11,0.54,0.24,0.57s1.43,0.17,1.52.18a3.09,3.09,0,0,0,1.64.32c1.29,0,1.34-.08,1.34-0.17s0-.42-0.12-0.43a2,2,0,0,1-.22-1,4.73,4.73,0,0,0,.27-0.52c0.15,0.21.36,0.51,0.59,0.87a3.54,3.54,0,0,0,2.44,1.38c0.85,0,.73-0.3.79-0.67A2.5,2.5,0,0,0,284,125l-1-1.27a14.32,14.32,0,0,0-.85-1.29c0-.16.06-0.41,0.06-0.44s0.51-.82.61-1.08a5.47,5.47,0,0,0,.18-0.88c0-.14.33-0.6,0.36-0.72s0.1-1.29.16-1.51,1.32-3.07,1.37-3.31-0.08-.32,0-0.54,0.36-.4.39-0.57a9,9,0,0,0,0-.91,1.18,1.18,0,0,1,.18-0.34,2.66,2.66,0,0,0-.22-1,3.65,3.65,0,0,1,.33-0.45,3.92,3.92,0,0,0,.18-1c0-.37,0-2.26-0.11-2.79s-0.22-2.52-.25-2.71-0.15-.25-0.15-0.39a24.67,24.67,0,0,0-.24-3.12,7.14,7.14,0,0,1-.34-0.76l-0.1-1a0.65,0.65,0,0,0,.1-0.54l-0.19-.51a2.39,2.39,0,0,1,.1-0.48,1,1,0,0,0-.25-0.59,0.29,0.29,0,0,1-.07-0.18,0.37,0.37,0,0,0,.15-0.23c0-.11-0.31-1.12-0.31-1.16a11.79,11.79,0,0,0,0-1.43c-0.06-.15,0-1.59,0-1.69h0l0.34,0.7a2.52,2.52,0,0,0,.21,1.13c0,0.25.08,1,.08,1a2.21,2.21,0,0,0,.16,1c0.19,0.27,1.7,3.3,1.79,3.57s0.27,0.79.27,0.79a4.33,4.33,0,0,1,.25.72c0,0.13-.09.38-0.12,0.59a6.14,6.14,0,0,0-.08.8h0a0.68,0.68,0,0,0-.66.49,1,1,0,0,0-.05,1,0.19,0.19,0,0,0,0,.14,1.14,1.14,0,0,0,1,.45,0.9,0.9,0,0,0,.65.37,0.93,0.93,0,0,0,.69.14,0.2,0.2,0,0,0,.31,0,2.14,2.14,0,0,0,.57-0.56,7.84,7.84,0,0,0,0-1.27,1.8,1.8,0,0,0-.11-0.34" transform="translate(1)"/><path id="Fill-61" d="M350.91,133.92a1.8,1.8,0,0,1-2,1.5H39.17a1.56,1.56,0,1,1,0-3H348.91a1.8,1.8,0,0,1,2,1.5" transform="translate(1)"/><path id="Fill-62" class="cls-6" d="M352.44,117.49l-1.58-2.06s-0.4-6.19-.46-8.41c-0.07-2.39-1.49-3.1-5.15-3.66s-6.74-.83-10.69-3.37a48.5,48.5,0,0,0-26.83-8c-13.32,0-18,2.25-21.77,4.18-3,1.56-10,6.36-12.53,8.15C270.9,102.06,258.92,91.8,250,92.09l-1.69,1.32c6.86-1.78,18,8.68,21.17,11.85A112.86,112.86,0,0,0,257.86,107c-6.85,1.45-12,3.3-12.95,4.89-2.76,4.46-3,11.67-.27,15.26,1.76,2.33,11.12,2.22,11.12,2.22l15.84-.34,51.63-.78,16.39-.56c9.31-.14,11.56-2.23,12.66-5.49a9.66,9.66,0,0,0,.15-4.68" transform="translate(1)"/><path id="Fill-63" class="cls-7" d="M247.33,112.72l-0.11,0h0s-3.29,1.11-3.58,1.86a17.31,17.31,0,0,0-.89,4.67l2.56-2.14s8.37-2.06,8.86-4.55-6.84.1-6.84,0.1" transform="translate(1)"/><path id="Fill-64" class="cls-7" d="M320,128.31c-0.74-1.43-.53-1.13-0.5-2.85a10,10,0,1,1,20,.35c0,1.39,0,.65-0.48,1.84" transform="translate(1)"/><path id="Fill-65" class="cls-8" d="M257.49,124.2a7.37,7.37,0,1,0,7.66-7.08,7.38,7.38,0,0,0-7.66,7.08" transform="translate(1)"/><path id="Fill-66" class="cls-7" d="M322.47,124.88l28.9-.79s-1.23,2.23-5.37,3c-3.55.84-20.25,1.19-22.79,0.6s-0.73-2.81-.73-2.81" transform="translate(1)"/><path id="Fill-67" class="cls-9" d="M258.6,124.24a6.25,6.25,0,1,0,6.5-6,6.25,6.25,0,0,0-6.5,6m6.25,8.76H264.5a8.51,8.51,0,0,1-5.41-14.75,8.42,8.42,0,0,1,6.09-2.25,8.5,8.5,0,0,1-.34,17" transform="translate(1)"/><path id="Fill-68" class="cls-10" d="M323.16,125.43a6.32,6.32,0,1,0,6.56-6.07,6.33,6.33,0,0,0-6.56,6.07" transform="translate(1)"/><path id="Fill-69" class="cls-11" d="M247.76,113.06s5.94-2,5.54-.08-7.18,3.59-7.18,3.59a2.29,2.29,0,0,1-.08-1.84,3.78,3.78,0,0,1,1.72-1.67" transform="translate(1)"/><polygon id="Fill-70" class="cls-7" points="322.6 128.08 273.41 129.1 272.38 125.34 324.59 124.87 322.6 128.08"/><path id="Fill-71" class="cls-7" d="M256.31,128.94a9.67,9.67,0,1,1,17.45-.52" transform="translate(1)"/><path id="Fill-72" class="cls-7" d="M271.62,125.32s-27.6-.11-28.13-0.36c0,0,.73,2.1,1.66,2.64a9.77,9.77,0,0,0,4.11,1.3,50,50,0,0,0,8.88.36c3.57-.26,13.48-3.94,13.48-3.94" transform="translate(1)"/><path id="Fill-73" class="cls-10" d="M257.49,124.2a7.37,7.37,0,1,0,7.66-7.08,7.38,7.38,0,0,0-7.66,7.08" transform="translate(1)"/><path id="Fill-74" class="cls-12" d="M265.1,118.24a6.27,6.27,0,1,0,6,6.51,6.26,6.26,0,0,0-6-6.51M264.5,133a8.5,8.5,0,1,1,8.82-8.16A8.51,8.51,0,0,1,264.5,133" transform="translate(1)"/><path id="Fill-75" class="cls-12" d="M264.62,130.22a5.73,5.73,0,1,1,5.94-5.49,5.73,5.73,0,0,1-5.94,5.49m0.6-14.76a9,9,0,1,0,8.65,9.4,9,9,0,0,0-8.65-9.4m-0.62,15.3a6.27,6.27,0,1,0-6-6.51,6.26,6.26,0,0,0,6,6.51M265.19,116a8.5,8.5,0,1,1-8.82,8.15,8.5,8.5,0,0,1,8.82-8.15" transform="translate(1)"/><path id="Fill-76" class="cls-7" d="M274.17,107s11.49-11.53,20.6-13.12,20.29-2.39,30.55,2.84c5.77,3.31,7.32,5.74,7.32,5.74l-1.27,2.18Z" transform="translate(1)"/><path id="Fill-77" class="cls-8" d="M303,105l20.3-.74,0.41-6.87-0.3-.16a39.25,39.25,0,0,0-18.71-3.48Z" transform="translate(1)"/><path id="Fill-78" class="cls-8" d="M325,98.14l-0.36,6.11,4.36-.16,1.15-1.87S329,100.54,325,98.14" transform="translate(1)"/><path id="Fill-79" class="cls-8" d="M301.88,94c-2.2.18-4.33,0.47-6.35,0.79C287.21,96.1,276.76,106,276.76,106l23.44-.86Z" transform="translate(1)"/><path id="Fill-80" class="cls-12" d="M303,105l20.3-.74,0.41-6.87-0.3-.16a39.25,39.25,0,0,0-18.71-3.48Z" transform="translate(1)"/><path id="Fill-81" class="cls-12" d="M325,98.14l-0.36,6.11,4.36-.16,1.15-1.87S329,100.54,325,98.14" transform="translate(1)"/><path id="Fill-82" class="cls-12" d="M301.88,94c-2.2.18-4.33,0.47-6.35,0.79C287.21,96.1,276.76,106,276.76,106l23.44-.86Z" transform="translate(1)"/><path id="Fill-83" class="cls-12" d="M329.73,119.43a6.27,6.27,0,1,0,6,6.51,6.26,6.26,0,0,0-6-6.51m-0.6,14.76A8.5,8.5,0,1,1,338,126a8.51,8.51,0,0,1-8.82,8.16" transform="translate(1)"/><path id="Fill-84" class="cls-12" d="M329.25,131.41a5.73,5.73,0,1,1,5.94-5.49,5.73,5.73,0,0,1-5.94,5.49m0.6-14.76a9,9,0,1,0,8.65,9.4,9,9,0,0,0-8.65-9.4m-0.62,15.3a6.27,6.27,0,1,0-6-6.51,6.26,6.26,0,0,0,6,6.51m0.59-14.76a8.5,8.5,0,1,1-8.82,8.15,8.51,8.51,0,0,1,8.82-8.15" transform="translate(1)"/><path id="Fill-85" class="cls-12" d="M264.44,120.07a4.4,4.4,0,0,0-2.1.76l2,2.16Z" transform="translate(1)"/><path id="Fill-86" class="cls-12" d="M263.47,123.78l-2-2.17a4.44,4.44,0,0,0-1,2Z" transform="translate(1)"/><path id="Fill-87" class="cls-12" d="M263.42,124.94l-3-.12a4.43,4.43,0,0,0,.76,2.19Z" transform="translate(1)"/><path id="Fill-88" class="cls-12" d="M265.61,120.12L265.49,123l2.15-2a4.4,4.4,0,0,0-2-.93" transform="translate(1)"/><path id="Fill-89" class="cls-12" d="M266.28,123.89l3,0.12a4.44,4.44,0,0,0-.81-2.12Z" transform="translate(1)"/><path id="Fill-90" class="cls-12" d="M266.23,125.06l2.06,2.24a4.42,4.42,0,0,0,.94-2.12Z" transform="translate(1)"/><path id="Fill-91" class="cls-12" d="M265.38,125.85l-0.12,3.07a4.4,4.4,0,0,0,2.19-.82Z" transform="translate(1)"/><path id="Fill-92" class="cls-12" d="M264.21,125.8L262,127.87a4.41,4.41,0,0,0,2.12,1Z" transform="translate(1)"/><path id="Fill-93" class="cls-12" d="M265.43,124.52a0.58,0.58,0,1,1-.56-0.61,0.58,0.58,0,0,1,.56.61" transform="translate(1)"/><path id="Fill-94" class="cls-12" d="M329.06,121.25a4.4,4.4,0,0,0-2.1.76l2,2.16Z" transform="translate(1)"/><path id="Fill-95" class="cls-12" d="M328.08,125l-2-2.17a4.44,4.44,0,0,0-1,2Z" transform="translate(1)"/><path id="Fill-96" class="cls-12" d="M328,126.13l-3-.12a4.43,4.43,0,0,0,.76,2.19Z" transform="translate(1)"/><path id="Fill-97" class="cls-12" d="M330.22,121.3l-0.12,2.92,2.15-2a4.41,4.41,0,0,0-2-.93" transform="translate(1)"/><path id="Fill-98" class="cls-12" d="M330.89,125.07l3,0.12a4.44,4.44,0,0,0-.81-2.12Z" transform="translate(1)"/><path id="Fill-99" class="cls-12" d="M330.84,126.24l2.06,2.24a4.42,4.42,0,0,0,.94-2.12Z" transform="translate(1)"/><path id="Fill-100" class="cls-12" d="M330,127l-0.12,3.07a4.39,4.39,0,0,0,2.19-.82Z" transform="translate(1)"/><path id="Fill-101" class="cls-12" d="M328.82,127l-2.24,2.07a4.41,4.41,0,0,0,2.12,1Z" transform="translate(1)"/><path id="Fill-102" class="cls-12" d="M330,125.7a0.58,0.58,0,1,1-.56-0.61,0.58,0.58,0,0,1,.56.61" transform="translate(1)"/><path id="Fill-103" class="cls-7" d="M296.28,112a0.74,0.74,0,0,1-.58.84l-4,0a0.89,0.89,0,0,1,0-1.67l4,0a0.75,0.75,0,0,1,.59.83" transform="translate(1)"/><path id="Fill-104" class="cls-7" d="M323,111.85a0.75,0.75,0,0,1-.58.84l-4,0a0.89,0.89,0,0,1,0-1.67l4,0a0.75,0.75,0,0,1,.59.83" transform="translate(1)"/><path id="Fill-105" class="cls-7" d="M319.78,119.81A0.77,0.77,0,0,0,319,119l-41.58.46a0.81,0.81,0,0,0,0,1.61l41.58-.46a0.77,0.77,0,0,0,.71-0.81" transform="translate(1)"/><path id="Fill-106" class="cls-13" d="M350.18,105.38s-2-.39-2.53,1-0.34,5.21.74,5.85a2.44,2.44,0,0,0,2.43,0Z" transform="translate(1)"/><path id="Fill-107" class="cls-14" d="M238.38,103.19a0.24,0.24,0,0,0-.08.16,21.66,21.66,0,0,0,1.89,1.19,1.89,1.89,0,0,1,.58.51,0.14,0.14,0,0,0,.13,0,0.22,0.22,0,0,1,.23.12,0.21,0.21,0,0,0,.11.19,0.35,0.35,0,0,1,.16.08,0.72,0.72,0,0,0,.31.09,1.69,1.69,0,0,1,.27.19,6.45,6.45,0,0,1,.74.41,16.76,16.76,0,0,1,1.32,1.29,3.87,3.87,0,0,1,.11,1,3.26,3.26,0,0,1-.42.39,0.37,0.37,0,0,1-.11.13,1.11,1.11,0,0,0-.3-0.1c-0.08,0-.48.21-0.58,0.23a0.67,0.67,0,0,1-.2,0l-0.16.07a1.42,1.42,0,0,1-.54,0,0.37,0.37,0,0,1-.21-0.1c0-.06,0-0.27-0.08-0.27a0.46,0.46,0,0,1-.34-0.21,0.7,0.7,0,0,1,.18-0.31,0.27,0.27,0,0,0,0-.23s-0.41-.36-0.51-0.47a0.79,0.79,0,0,0-.3-0.18,1.09,1.09,0,0,1-.16-0.14s0-.16,0-0.19a0.4,0.4,0,0,1-.15-0.1,0.13,0.13,0,0,0,0-.14s-0.12,0-.2,0a0.16,0.16,0,0,1-.13-0.1,0.37,0.37,0,0,0-.16-0.09,0.49,0.49,0,0,0-.15-0.13,6.11,6.11,0,0,1-1.59-.56,10.6,10.6,0,0,0-1.76-.78,1.29,1.29,0,0,0-.34.28" transform="translate(1)"/><path id="Fill-108" class="cls-15" d="M241.24,105.39a0.35,0.35,0,0,1,.16.08,0.74,0.74,0,0,0,.31.09,1.83,1.83,0,0,1,.27.19,6.79,6.79,0,0,1,.74.41,16.78,16.78,0,0,1,1.32,1.29,3.87,3.87,0,0,1,.11,1,3.26,3.26,0,0,1-.42.39,0.35,0.35,0,0,1-.11.13,1.09,1.09,0,0,0-.3-0.1c-0.08,0-.48.21-0.58,0.23a0.64,0.64,0,0,1-.2,0l-0.16.07a1.41,1.41,0,0,1-.54,0,0.36,0.36,0,0,1-.21-0.1c0-.05,0-0.27-0.08-0.27a0.45,0.45,0,0,1-.34-0.21,0.69,0.69,0,0,1,.18-0.31,0.26,0.26,0,0,0,0-.23s-0.41-.36-0.51-0.47a0.78,0.78,0,0,0-.31-0.18,1.07,1.07,0,0,1-.16-0.14s0-.17,0-0.19a0.43,0.43,0,0,1-.15-0.1,0.13,0.13,0,0,0,0-.14" transform="translate(1)"/><path id="Fill-109" class="cls-14" d="M240.08,100.15a8.52,8.52,0,0,0,.69.86c0.16,0.12,3.13,2.23,3.13,2.23a3.17,3.17,0,0,1,.53.68c0,0.14.29,0.14,0.79,0.69a16.7,16.7,0,0,0,1.73,1.23,17.28,17.28,0,0,0,1.47,1.08l0.13,0.15a0.8,0.8,0,0,1,.41.37,1.44,1.44,0,0,0,.6.57l0.32,0.08,0.34,0,0.23-.06,0.16,0a4.3,4.3,0,0,1,.71.34,3.58,3.58,0,0,1,.34.45,1.06,1.06,0,0,0,.53.13,0.38,0.38,0,0,0,.14-0.23,6.88,6.88,0,0,0-.33-0.88l-0.08-.19s-0.27-.32-0.34-0.39a1.71,1.71,0,0,0-.22-0.14,1,1,0,0,0-.33-0.15,0.79,0.79,0,0,1-.35-0.21,1.15,1.15,0,0,0-.29-0.19l-0.24-.08a3.85,3.85,0,0,1-.63-0.58,2.21,2.21,0,0,0-.31-0.4c-0.07,0-1.56-1.69-1.61-1.8s-1.38-1.62-1.51-1.75-1.74-1.07-1.78-1.1l-1.47-1.43-0.3-.5,0-.19-0.07-.1,0-.09a2.09,2.09,0,0,0-.29-0.56C242,97.81,242,97.89,242,97.81a1,1,0,0,0-.55-0.81l-0.05,0s-1.62-3.06-3.46-.69,1.23,3.89,2.16,3.87" transform="translate(1)"/><path id="Fill-110" class="cls-15" d="M249.41,106.72s-0.84.37-.82,0.38a0.66,0.66,0,0,1,.36.35,1.43,1.43,0,0,0,.6.56l0.32,0.08,0.34,0,0.23-.06,0.16,0a4.21,4.21,0,0,1,.71.34,3.58,3.58,0,0,1,.34.45,1,1,0,0,0,.53.13,0.37,0.37,0,0,0,.14-0.23,6.88,6.88,0,0,0-.33-0.88l-0.08-.19a5.21,5.21,0,0,0-.34-0.39,1.71,1.71,0,0,0-.22-0.14,1,1,0,0,0-.33-0.15,0.78,0.78,0,0,1-.35-0.21,1.14,1.14,0,0,0-.29-0.19,1.37,1.37,0,0,1-.24-0.08,0.57,0.57,0,0,0-.73.26" transform="translate(1)"/><path id="Fill-111" class="cls-15" d="M251.37,109.91a1.12,1.12,0,0,1,.17-0.25,0.09,0.09,0,0,1,.07,0,0.2,0.2,0,0,0,.26.09,0.9,0.9,0,0,0,.27-0.49c0-.09.11-0.32,0.12-0.36a2.41,2.41,0,0,0-.26-0.66c-0.06,0-1.65-.58-1.68-0.55s-0.4.23-.4,0.23a1,1,0,0,1,0,.15,1.25,1.25,0,0,0,.08.33,0.28,0.28,0,0,1,.11.19,2.09,2.09,0,0,0,.35.29,1,1,0,0,0,.05.62" transform="translate(1)"/><path id="Fill-112" class="cls-5" d="M252.25,108.92h0s0,0,0,0a0.35,0.35,0,0,0,.09-0.17,7,7,0,0,0-.33-0.88l-0.08-.19a5.21,5.21,0,0,0-.34-0.39,1.63,1.63,0,0,0-.22-0.14,1,1,0,0,0-.33-0.15,0.77,0.77,0,0,1-.36-0.21,1.14,1.14,0,0,0-.29-0.19l-0.24-.08a4,4,0,0,1-.63-0.58,2.21,2.21,0,0,0-.31-0.4c-0.07,0-1.56-1.69-1.61-1.8s-1.38-1.62-1.51-1.75-1.74-1.07-1.78-1.1-1.48-1.43-1.53-1.49-0.23-.41-0.24-0.44a1,1,0,0,1,0-.19,0.21,0.21,0,0,1-.07-0.1,1,1,0,0,0-.07-0.2,1.61,1.61,0,0,0-.15-0.32,1.15,1.15,0,0,0-.23-0.27s0,0,0-.14a2.63,2.63,0,0,0-.51-0.67s0.07-.09.14,0a7.06,7.06,0,0,1,.57.71,2.39,2.39,0,0,0,.72.38,0.68,0.68,0,0,0,.29-0.21c0.08-.07,0-0.21.1-0.22a1.23,1.23,0,0,0,.29-0.09s0-.16.06-0.17a0.34,0.34,0,0,1,.1,0l0.2-.23a0.14,0.14,0,0,1,.2,0,0.3,0.3,0,0,0,.3.1,0.77,0.77,0,0,0,.29-0.5c0-.1.18-0.65,0.23-0.76a1.25,1.25,0,0,1,.39-0.21s0.16-.33.16-0.33l0.09-.15,0.07,0.1a4.56,4.56,0,0,0,.36.6,1.6,1.6,0,0,0,.5.43,0.66,0.66,0,0,0,.54.06h0l0,0,0,0h0l0.07,0a0.36,0.36,0,0,0,0-.34l-0.69-1.55a1,1,0,0,1,0-.32,4.34,4.34,0,0,0,.06-2,3.4,3.4,0,0,0-1.4-1.78,0.27,0.27,0,0,0-.19-0.25,0.11,0.11,0,0,0-.15,0,2.31,2.31,0,0,0-2.61.49c-0.18.14-.13,0.12-0.13,0.12l-0.08.31-0.22.2,0,0v0c-0.31.3-.58,0.59-0.62,0.64s-0.6.42-.66,0.48a1.16,1.16,0,0,0-.19.39,0.94,0.94,0,0,1-.48.21,2.53,2.53,0,0,1-1-.11,0.7,0.7,0,0,0-.27-0.23,1.67,1.67,0,0,0-.39,0,0.51,0.51,0,0,1-.32-0.09,0.75,0.75,0,0,0-.32-0.16,3.26,3.26,0,0,0-2.72.49,9,9,0,0,0-2.92,3.13c-0.35.65-2.11,3.15-2.18,3.29a16.13,16.13,0,0,0-.94,1.47c-0.09.3-2.11,3.74-2.06,4.53,0,0-.1.38,0.08,0.38,0,0-.7,1.52-1.25,2.55a5.12,5.12,0,0,0-.75,2.84,14.48,14.48,0,0,0-.23,2.17c0.06,0.71-.13,5.09-0.13,5.09a5.21,5.21,0,0,1-.3,1.32c-0.15.45-.29,1.71-0.46,2.22A10.85,10.85,0,0,1,223,124c-0.3.44-1.21,2.23-1.31,2.44a4.08,4.08,0,0,1-1,.67,10.86,10.86,0,0,0-1.45,1.77,1.29,1.29,0,0,0-.7,1A23.23,23.23,0,0,0,220,131.6a0.85,0.85,0,0,0,.45,0s0.87,1.13,1,1.34a2.38,2.38,0,0,0,1.8.83,9,9,0,0,0,2.69-.14,3,3,0,0,0-.06-0.74c-0.09-.43.17-1.21-1-1.38a0.84,0.84,0,0,1-.76-0.77,6.85,6.85,0,0,0-.15-1.59,1.18,1.18,0,0,1-.4-0.46,0.63,0.63,0,0,0,.12-0.25l1.8,1s2.6-4.13,2.78-4.21,1.18-7.57,1.3-8.72a48.34,48.34,0,0,1,1.82,5.88c0,0.66.33,2.65,0.4,3.15s1.1,5.86,1.12,5.93,0.15,0,.15,0l0,0.73a1,1,0,0,0-.15.38c0,0.15,0,.62,0,0.62a1.12,1.12,0,0,0,.53.44,9.76,9.76,0,0,0,2.51,0,3.4,3.4,0,0,1,1.43.37,9.57,9.57,0,0,0,3.08-.22,2.43,2.43,0,0,0,.79-0.42,1.33,1.33,0,0,0-.3-0.54,1.29,1.29,0,0,0-.4-1,10.78,10.78,0,0,1-1.93-.32,6.32,6.32,0,0,0-.76-0.69s-0.64-.94-0.69-1a1,1,0,0,1-.09-0.39,11.75,11.75,0,0,0-.89-2.27l0.2-6.68s-0.19-3-.17-3-0.95-3-1-3.45-0.58-2.14-.6-2.31a6.3,6.3,0,0,0-.31-1.44,10,10,0,0,1-.18-2.28,2.47,2.47,0,0,1,.2-0.79,0.37,0.37,0,0,0,.3-0.35,0.43,0.43,0,0,1,0-.27,0.31,0.31,0,0,1,.16-0.19c0.1-.08.09-0.17,0.19-0.24l0.25-.17a0.43,0.43,0,0,0,.17-0.25s0.33-.14.41-0.21a1.24,1.24,0,0,1,.34-0.28,10.56,10.56,0,0,1,1.76.78,6.13,6.13,0,0,0,1.59.56,0.47,0.47,0,0,1,.15.13,0.37,0.37,0,0,1,.16.09,0.15,0.15,0,0,0,.13.1c0.08,0,.15,0,0.2,0a0.12,0.12,0,0,1,0,.14,0.41,0.41,0,0,0,.15.1s0,0.19,0,.19a1.13,1.13,0,0,0,.16.14,0.78,0.78,0,0,1,.31.18c0.09,0.11.48,0.45,0.51,0.47a0.26,0.26,0,0,1,0,.23,0.71,0.71,0,0,0-.18.31,0.46,0.46,0,0,0,.34.21c0.08,0,.07.21,0.08,0.27a0.36,0.36,0,0,0,.21.1,1.46,1.46,0,0,0,.54,0l0.16-.07a0.68,0.68,0,0,0,.2,0c0.09,0,.5-0.21.58-0.23a1.13,1.13,0,0,1,.3.1,0.36,0.36,0,0,0,.11-0.13,3.16,3.16,0,0,0,.42-0.38,3.87,3.87,0,0,0-.11-1,16.58,16.58,0,0,0-1.32-1.29,6.43,6.43,0,0,0-.74-0.41,1.68,1.68,0,0,0-.27-0.19,0.75,0.75,0,0,1-.31-0.09,0.36,0.36,0,0,0-.16-0.08,0.21,0.21,0,0,1-.11-0.19,0.22,0.22,0,0,0-.23-0.12,0.14,0.14,0,0,1-.13,0,1.89,1.89,0,0,0-.58-0.51,21.39,21.39,0,0,1-1.89-1.19,0.24,0.24,0,0,1,.08-0.16,1.72,1.72,0,0,1,.39-0.24,0.49,0.49,0,0,0,.2-0.35,2.62,2.62,0,0,1,.57-0.66c0.11-.09.13-0.08,0.16-0.12a0.29,0.29,0,0,0-.05-0.21,0.23,0.23,0,0,1,0-.21,1.15,1.15,0,0,0,0-.22,4.91,4.91,0,0,0,.26-0.62,1.81,1.81,0,0,1,.1-0.41s0.57,0.7.62,0.8,1.62,1.18,1.66,1.21,1.38,0.92,1.54,1.07a3.16,3.16,0,0,1,.53.68c0,0.14.29,0.15,0.79,0.7a16.49,16.49,0,0,0,1.73,1.23,17.28,17.28,0,0,0,1.47,1.08l0.13,0.15a0.81,0.81,0,0,1,.41.37,1.44,1.44,0,0,0,.6.56l0.32,0.08h0.06c0.16,0.4.35,1.31,0.54,1.65l0.13,0.43a0.32,0.32,0,0,0,.34-0.25,0.41,0.41,0,0,0,.41,0,1.12,1.12,0,0,1,.17-0.25,0.09,0.09,0,0,1,.07,0,0.2,0.2,0,0,0,.26.09,0.9,0.9,0,0,0,.27-0.49l0.06-.19a0.66,0.66,0,0,0,.05-0.16v0" transform="translate(1)"/><polygon id="Fill-113" class="cls-16" points="164.36 123.22 115.37 114.81 115.73 112.68 164.72 121.09 164.36 123.22"/><path id="Fill-114" class="cls-16" d="M44.09,111.46l-1,2.51v5.55l12.73,0s2.73-6.5,12.9-6.46c5.82,0,9.61,1,13.58,3.78l49.3,0.11h52.9v-3.63h24.24l-6-1.9L193.8,107l-96.51.21-18-2.33,0.23-12.78-24,12.27Z" transform="translate(1)"/><path id="Fill-115" class="cls-12" d="M174.57,122a0.11,0.11,0,0,0,.12,0v-0.48a0.11,0.11,0,0,0-.12,0h0v0h0a0.11,0.11,0,0,0,.12-0.06l0-.48a0.11,0.11,0,0,0-.12,0h0s0,0,0,0h0a0.11,0.11,0,0,0,.11-0.06l-0.05-.48a0.11,0.11,0,0,0-.12,0h0v0h0a0.11,0.11,0,0,0,.11-0.07l-0.08-.48a0.11,0.11,0,0,0-.12,0h0v0h0a0.11,0.11,0,0,0,.11-0.07l-0.1-.47a0.11,0.11,0,0,0-.13,0h0v0h0a0.11,0.11,0,0,0,.1-0.08l-0.12-.47a0.11,0.11,0,0,0-.13,0h0v0h0a0.11,0.11,0,0,0,.1-0.08l-0.15-.46a0.11,0.11,0,0,0-.13,0h0v0h0a0.11,0.11,0,0,0,.09-0.09l-0.17-.45a0.11,0.11,0,0,0-.13,0h0l0,0h0a0.11,0.11,0,0,0,.09-0.09l-0.2-.44a0.11,0.11,0,0,0-.13,0h0l0,0h0a0.11,0.11,0,0,0,.08-0.1l-0.22-.43a0.11,0.11,0,0,0-.13,0h0l0,0h0a0.11,0.11,0,0,0,.08-0.1l-0.24-.42a0.11,0.11,0,0,0-.13,0h0l0,0h0a0.11,0.11,0,0,0,.07-0.11l-0.26-.4a0.11,0.11,0,0,0-.13,0l0,0,0,0h0a0.11,0.11,0,0,0,.07-0.11l-0.28-.39a0.11,0.11,0,0,0-.12,0l0,0,0,0h0a0.11,0.11,0,0,0,.06-0.11l-0.3-.37a0.11,0.11,0,0,0-.12,0l0,0,0,0,0,0a0.11,0.11,0,0,0,.05-0.12l-0.32-.36a0.11,0.11,0,0,0-.12,0l0,0,0,0,0,0a0.11,0.11,0,0,0,0-.12L171,113a0.11,0.11,0,0,0-.12,0l0,0,0,0,0,0a0.11,0.11,0,0,0,0-.12l-0.36-.32a0.11,0.11,0,0,0-.12.06l0,0,0,0,0,0a0.11,0.11,0,0,0,0-.12l-0.37-.3a0.11,0.11,0,0,0-.11.06v0l0,0,0,0a0.11,0.11,0,0,0,0-.12l-0.39-.28a0.11,0.11,0,0,0-.11.07v0l0,0,0,0a0.12,0.12,0,0,0,0-.13l-0.4-.26a0.11,0.11,0,0,0-.1.07v0l0,0v0a0.11,0.11,0,0,0,0-.13l-0.42-.24a0.11,0.11,0,0,0-.1.08v0l0,0v0a0.11,0.11,0,0,0,0-.13l-0.43-.22a0.11,0.11,0,0,0-.1.08v0l0,0v0a0.11,0.11,0,0,0,0-.13l-0.44-.2a0.11,0.11,0,0,0-.09.09v0l0,0v0a0.11,0.11,0,0,0,0-.13l-0.45-.17a0.11,0.11,0,0,0-.09.09v0h0v0a0.11,0.11,0,0,0,0-.13l-0.46-.15a0.11,0.11,0,0,0-.08.1v0h0v0a0.11,0.11,0,0,0,0-.13l-0.46-.12a0.11,0.11,0,0,0-.08.1,0.1,0.1,0,0,0,0,0h0v0a0.12,0.12,0,0,0,0-.13l-0.47-.1a0.11,0.11,0,0,0-.07.11v0h0v0a0.11,0.11,0,0,0,0-.12l-0.47-.08a0.11,0.11,0,0,0-.07.11v0h0v0a0.11,0.11,0,0,0,0-.12l-0.48-.05a0.11,0.11,0,0,0-.06.11,0.28,0.28,0,0,0,0,0h0a0.25,0.25,0,0,0,0,0,0.11,0.11,0,0,0,0-.12l-0.48,0a0.11,0.11,0,0,0-.06.11,0.23,0.23,0,0,0,0,0h0a0.24,0.24,0,0,0,0,0,0.11,0.11,0,0,0,0-.12h-0.48a0.11,0.11,0,0,0-.05.12,0.26,0.26,0,0,0,0,0h0a0.15,0.15,0,0,0,0,0,0.11,0.11,0,0,0-.06-0.11l-0.48,0a0.11,0.11,0,0,0,0,.12v0h0v0a0.11,0.11,0,0,0-.06-0.11l-0.48.05a0.11,0.11,0,0,0,0,.12v0h0v0a0.11,0.11,0,0,0-.07-0.11l-0.47.08a0.11,0.11,0,0,0,0,.12v0h0v0a0.11,0.11,0,0,0-.07-0.11l-0.47.1a0.11,0.11,0,0,0,0,.13v0h0v0a0.11,0.11,0,0,0-.08-0.1l-0.46.12a0.11,0.11,0,0,0,0,.13v0h0v0a0.11,0.11,0,0,0-.08-0.1l-0.46.15a0.11,0.11,0,0,0,0,.13v0h0v0a0.11,0.11,0,0,0-.09-0.09l-0.45.17a0.11,0.11,0,0,0,0,.13v0l0,0v0a0.11,0.11,0,0,0-.09-0.09l-0.44.2a0.11,0.11,0,0,0,0,.13v0l0,0v0a0.11,0.11,0,0,0-.1-0.08l-0.43.22a0.11,0.11,0,0,0,0,.13v0l0,0v0a0.11,0.11,0,0,0-.1-0.08l-0.42.24a0.11,0.11,0,0,0,0,.13v0l0,0v0a0.11,0.11,0,0,0-.11-0.07l-0.4.26a0.11,0.11,0,0,0,0,.12l0,0,0,0v0a0.11,0.11,0,0,0-.11-0.07l-0.39.28a0.11,0.11,0,0,0,0,.12l0,0,0,0v0a0.11,0.11,0,0,0-.11-0.06l-0.37.3a0.11,0.11,0,0,0,0,.12l0,0,0,0,0,0a0.11,0.11,0,0,0-.12-0.06l-0.36.32a0.11,0.11,0,0,0,0,.12l0,0,0,0,0,0a0.11,0.11,0,0,0-.12,0l-0.34.34a0.11,0.11,0,0,0,0,.12l0,0,0,0,0,0a0.11,0.11,0,0,0-.12,0l-0.32.36a0.11,0.11,0,0,0,.05.11l0,0,0,0,0,0a0.11,0.11,0,0,0-.12,0l-0.3.37a0.11,0.11,0,0,0,.06.11h0l0,0,0,0a0.11,0.11,0,0,0-.13,0l-0.28.39a0.11,0.11,0,0,0,.07.11h0l0,0,0,0a0.11,0.11,0,0,0-.13,0l-0.26.4a0.11,0.11,0,0,0,.07.11h0l0,0h0a0.11,0.11,0,0,0-.13,0l-0.24.42a0.11,0.11,0,0,0,.08.1h0l0,0h0a0.11,0.11,0,0,0-.13,0l-0.22.43a0.11,0.11,0,0,0,.08.1h0l0,0h0a0.11,0.11,0,0,0-.13,0l-0.2.44a0.11,0.11,0,0,0,.09.09h0l0,0h0a0.11,0.11,0,0,0-.13,0l-0.17.45a0.11,0.11,0,0,0,.09.09h0v0h0a0.11,0.11,0,0,0-.13,0l-0.15.46a0.11,0.11,0,0,0,.1.08h0v0h0a0.11,0.11,0,0,0-.13,0l-0.12.46a0.11,0.11,0,0,0,.1.08h0v0h0a0.11,0.11,0,0,0-.13,0l-0.1.47a0.11,0.11,0,0,0,.11.07h0v0h0a0.11,0.11,0,0,0-.12,0l-0.08.48a0.11,0.11,0,0,0,.11.07h0v0h0a0.11,0.11,0,0,0-.12,0l0,0.48a0.11,0.11,0,0,0,.11.06h0v0h0a0.11,0.11,0,0,0-.12,0l0,0.48a0.11,0.11,0,0,0,.12.06h0s0,0,0,0h0a0.11,0.11,0,0,0-.12,0v0.48a0.11,0.11,0,0,0,.12,0h0v0h0a0.11,0.11,0,0,0-.12.06l0,0.48a0.11,0.11,0,0,0,.12,0h0v0h0a0.11,0.11,0,0,0-.11.06l0.05,0.48a0.11,0.11,0,0,0,.12,0h0v0h0a0.11,0.11,0,0,0-.11.07l0.08,0.48a0.11,0.11,0,0,0,.12,0h0v0h0a0.11,0.11,0,0,0-.11.07l0.1,0.47a0.11,0.11,0,0,0,.13,0h0v0h0a0.11,0.11,0,0,0-.1.08l0.12,0.47a0.11,0.11,0,0,0,.13,0h0v0h0a0.11,0.11,0,0,0-.1.08l0.15,0.46a0.11,0.11,0,0,0,.13,0h0v0h0a0.11,0.11,0,0,0-.09.09l0.17,0.45a0.11,0.11,0,0,0,.13,0h0l0,0h0a0.11,0.11,0,0,0-.09.09l0.2,0.44a0.11,0.11,0,0,0,.13,0h0l0,0h0a0.11,0.11,0,0,0-.08.1l0.22,0.43a0.11,0.11,0,0,0,.13,0h0l0,0h0a0.11,0.11,0,0,0-.08.1l0.24,0.42a0.11,0.11,0,0,0,.13,0h0l0,0h0a0.11,0.11,0,0,0-.07.1l0.26,0.4a0.11,0.11,0,0,0,.13,0l0,0,0,0h0a0.11,0.11,0,0,0-.07.11l0.28,0.39a0.11,0.11,0,0,0,.12,0l0,0,0,0h0a0.11,0.11,0,0,0-.06.11l0.3,0.37a0.11,0.11,0,0,0,.12,0l0,0,0,0,0,0a0.11,0.11,0,0,0-.06.12l0.32,0.36a0.11,0.11,0,0,0,.12,0l0,0,0,0,0,0a0.11,0.11,0,0,0,0,.12l0.34,0.34a0.11,0.11,0,0,0,.12,0l0,0,0,0,0,0a0.11,0.11,0,0,0,0,.12l0.36,0.32a0.11,0.11,0,0,0,.12-0.06v0l0,0,0,0a0.11,0.11,0,0,0,0,.12l0.37,0.3a0.11,0.11,0,0,0,.11-0.06v0l0,0,0,0a0.11,0.11,0,0,0,0,.12l0.39,0.28a0.11,0.11,0,0,0,.11-0.07v0l0,0,0,0a0.11,0.11,0,0,0,0,.13l0.4,0.26a0.11,0.11,0,0,0,.11-0.07v0l0,0v0a0.11,0.11,0,0,0,0,.13l0.42,0.24a0.11,0.11,0,0,0,.1-0.08v0l0,0v0a0.11,0.11,0,0,0,0,.13l0.43,0.22a0.11,0.11,0,0,0,.1-0.08v0l0,0v0a0.11,0.11,0,0,0,0,.13l0.44,0.2a0.11,0.11,0,0,0,.09-0.09v0l0,0v0a0.11,0.11,0,0,0,0,.13l0.45,0.17a0.11,0.11,0,0,0,.09-0.09v0h0v0a0.11,0.11,0,0,0,0,.13l0.46,0.15a0.11,0.11,0,0,0,.08-0.1v0h0v0a0.11,0.11,0,0,0,0,.13l0.46,0.13a0.11,0.11,0,0,0,.08-0.1v0h0v0a0.12,0.12,0,0,0,0,.13l0.47,0.1a0.11,0.11,0,0,0,.07-0.11v0h0v0a0.11,0.11,0,0,0,0,.12l0.47,0.08a0.11,0.11,0,0,0,.07-0.11v0h0v0a0.11,0.11,0,0,0,0,.12l0.48,0a0.11,0.11,0,0,0,.06-0.11,0.23,0.23,0,0,0,0,0h0v0a0.11,0.11,0,0,0,0,.12l0.48,0a0.11,0.11,0,0,0,.05-0.12,0.12,0.12,0,0,0,0,0h0a0.23,0.23,0,0,0,0,0,0.11,0.11,0,0,0,0,.12H163a0.11,0.11,0,0,0,0-.12v0h0v0a0.11,0.11,0,0,0,.06.12l0.48,0a0.11,0.11,0,0,0,0-.12,0.22,0.22,0,0,0,0,0h0a0.14,0.14,0,0,0,0,0,0.11,0.11,0,0,0,.06.11l0.48-.05a0.11,0.11,0,0,0,0-.12,0.19,0.19,0,0,0,0,0h0a0.13,0.13,0,0,0,0,0,0.11,0.11,0,0,0,.07.11l0.47-.08a0.11,0.11,0,0,0,0-.12v0h0v0a0.11,0.11,0,0,0,.07.11l0.47-.1a0.11,0.11,0,0,0,0-.13v0h0v0a0.11,0.11,0,0,0,.08.1l0.46-.12a0.11,0.11,0,0,0,0-.13v0h0v0a0.11,0.11,0,0,0,.08.1l0.46-.15a0.11,0.11,0,0,0,0-.13v0h0v0a0.11,0.11,0,0,0,.09.09l0.45-.17a0.11,0.11,0,0,0,0-.13v0l0,0v0a0.11,0.11,0,0,0,.09.09l0.44-.2a0.11,0.11,0,0,0,0-.13v0l0,0v0a0.11,0.11,0,0,0,.1.08l0.43-.22a0.11,0.11,0,0,0,0-.13v0l0,0v0a0.11,0.11,0,0,0,.1.08l0.42-.24a0.11,0.11,0,0,0,0-.13v0l0,0v0a0.11,0.11,0,0,0,.11.07l0.4-.26a0.11,0.11,0,0,0,0-.12l0,0,0,0v0a0.11,0.11,0,0,0,.11.07l0.39-.28a0.11,0.11,0,0,0,0-.12l0,0,0,0v0a0.11,0.11,0,0,0,.11.06l0.37-.3a0.11,0.11,0,0,0,0-.12l0,0,0,0,0,0a0.11,0.11,0,0,0,.12.06l0.36-.32a0.11,0.11,0,0,0,0-.12l0,0,0,0,0,0a0.11,0.11,0,0,0,.12,0l0.34-.34a0.11,0.11,0,0,0,0-.12l0,0,0,0,0,0a0.11,0.11,0,0,0,.12,0l0.32-.36a0.11,0.11,0,0,0-.06-0.11l0,0,0,0,0,0a0.11,0.11,0,0,0,.12,0l0.3-.37a0.11,0.11,0,0,0-.06-0.11h0l0,0,0,0a0.11,0.11,0,0,0,.12,0l0.28-.39a0.11,0.11,0,0,0-.07-0.11h0l0,0,0,0a0.11,0.11,0,0,0,.13,0l0.26-.41a0.11,0.11,0,0,0-.07-0.11h0l0,0h0a0.11,0.11,0,0,0,.13,0l0.24-.42a0.11,0.11,0,0,0-.08-0.1h0l0,0h0a0.11,0.11,0,0,0,.13,0l0.22-.43a0.11,0.11,0,0,0-.08-0.1h0l0,0h0a0.11,0.11,0,0,0,.13,0l0.2-.44a0.11,0.11,0,0,0-.09-0.09h0l0,0h0a0.11,0.11,0,0,0,.13,0l0.17-.45a0.11,0.11,0,0,0-.09-0.09h0v0h0a0.11,0.11,0,0,0,.13,0l0.15-.46a0.11,0.11,0,0,0-.1-0.08h0v0h0a0.11,0.11,0,0,0,.13,0l0.12-.46a0.11,0.11,0,0,0-.1-0.08h0v0h0a0.11,0.11,0,0,0,.13,0l0.1-.47a0.11,0.11,0,0,0-.1-0.07h0v0h0a0.11,0.11,0,0,0,.12,0l0.07-.48a0.11,0.11,0,0,0-.11-0.07h0v0h0a0.11,0.11,0,0,0,.12,0l0.05-.48a0.11,0.11,0,0,0-.11-0.06h0v0h0a0.11,0.11,0,0,0,.12,0l0-.48a0.11,0.11,0,0,0-.11-0.06h0s0,0,0,0h0" transform="translate(1)"/><path id="Fill-116" class="cls-10" d="M162.74,114.4a7.25,7.25,0,1,0,7.23,7.25,7.24,7.24,0,0,0-7.23-7.25" transform="translate(1)"/><path id="Fill-117" class="cls-12" d="M162.64,118.08a0.92,0.92,0,0,0,.92-0.92s0,0,0-.07a0.92,0.92,0,0,0-1.83,0s0,0,0,.07a0.92,0.92,0,0,0,.92.92" transform="translate(1)"/><path id="Fill-118" class="cls-12" d="M160.16,119.19a0.92,0.92,0,1,0-1.3,0,0.92,0.92,0,0,0,1.3,0" transform="translate(1)"/><path id="Fill-119" class="cls-12" d="M159.2,121.74s0,0,0-.07a0.92,0.92,0,0,0-1.83,0s0,0,0,.07a0.92,0.92,0,1,0,1.84,0" transform="translate(1)"/><path id="Fill-120" class="cls-12" d="M168.12,121.46a0.92,0.92,0,0,0-1.83,0s0,0,0,.07a0.92,0.92,0,1,0,1.84,0s0,0,0-.07" transform="translate(1)"/><path id="Fill-121" class="cls-12" d="M166.48,119.05a0.92,0.92,0,1,0-1.3,0,0.92,0.92,0,0,0,1.3,0" transform="translate(1)"/><path id="Fill-122" class="cls-12" d="M160.31,124.22a0.93,0.93,0,1,0,.27.58,0.92,0.92,0,0,0-.27-0.58" transform="translate(1)"/><path id="Fill-123" class="cls-12" d="M162.84,125.19a0.92,0.92,0,0,0-.92.85s0,0,0,.07a0.92,0.92,0,1,0,1.84,0s0,0,0-.07a0.92,0.92,0,0,0-.92-0.85" transform="translate(1)"/><path id="Fill-124" class="cls-12" d="M166.62,124.08a0.93,0.93,0,1,0,.27.58,0.92,0.92,0,0,0-.27-0.58" transform="translate(1)"/><path id="Fill-125" class="cls-12" d="M162.74,119.12a2.52,2.52,0,1,0,2.51,2.52,2.51,2.51,0,0,0-2.51-2.52" transform="translate(1)"/><path id="Fill-126" class="cls-10" d="M69.56,114.24a7.41,7.41,0,1,0,7.39,7.41,7.4,7.4,0,0,0-7.39-7.41" transform="translate(1)"/><path id="Fill-127" class="cls-12" d="M69.56,129a7.37,7.37,0,1,1,7.35-7.37A7.36,7.36,0,0,1,69.56,129m11.83-7a0.11,0.11,0,0,0,.12,0v-0.48a0.11,0.11,0,0,0-.12-0.05h0s0,0,0,0h0a0.11,0.11,0,0,0,.12-0.06l0-.48a0.11,0.11,0,0,0-.12,0h0v0h0a0.11,0.11,0,0,0,.11-0.06l0-.48a0.11,0.11,0,0,0-.12,0h0v0h0A0.11,0.11,0,0,0,81.4,120l-0.08-.48a0.11,0.11,0,0,0-.12,0h0v0h0a0.11,0.11,0,0,0,.11-0.07L81.2,119a0.11,0.11,0,0,0-.13,0h0v0h0a0.11,0.11,0,0,0,.1-0.08L81,118.34a0.11,0.11,0,0,0-.13,0h0v0h0a0.11,0.11,0,0,0,.1-0.08l-0.15-.46a0.11,0.11,0,0,0-.13,0h0v0h0a0.11,0.11,0,0,0,.09-0.09l-0.17-.45a0.11,0.11,0,0,0-.13,0h0l0,0h0a0.11,0.11,0,0,0,.09-0.09l-0.2-.44a0.11,0.11,0,0,0-.13,0h0l0,0h0a0.11,0.11,0,0,0,.08-0.1L80.11,116a0.11,0.11,0,0,0-.13,0h0l0,0h0a0.11,0.11,0,0,0,.08-0.1l-0.24-.42a0.11,0.11,0,0,0-.13,0h0l0,0h0a0.11,0.11,0,0,0,.07-0.11l-0.26-.4a0.11,0.11,0,0,0-.13,0l0,0,0,0h0a0.11,0.11,0,0,0,.07-0.11l-0.28-.39a0.11,0.11,0,0,0-.12,0l0,0,0,0h0a0.11,0.11,0,0,0,.06-0.11l-0.3-.37a0.11,0.11,0,0,0-.12,0l0,0,0,0,0,0a0.12,0.12,0,0,0,.06-0.12l-0.32-.36a0.11,0.11,0,0,0-.12,0l0,0,0,0,0,0a0.11,0.11,0,0,0,0-.12L77.86,113a0.11,0.11,0,0,0-.12,0l0,0,0,0,0,0a0.11,0.11,0,0,0,0-.12l-0.36-.32a0.11,0.11,0,0,0-.12.06l0,0,0,0,0,0a0.12,0.12,0,0,0,0-.12l-0.37-.3a0.11,0.11,0,0,0-.11.06v0l0,0,0,0a0.11,0.11,0,0,0,0-.12l-0.39-.28a0.11,0.11,0,0,0-.11.07v0l0,0,0,0a0.11,0.11,0,0,0,0-.13l-0.4-.26a0.11,0.11,0,0,0-.11.07v0l0,0,0,0a0.11,0.11,0,0,0,0-.13l-0.42-.24a0.11,0.11,0,0,0-.1.08v0l0,0v0a0.11,0.11,0,0,0,0-.13l-0.43-.22a0.11,0.11,0,0,0-.1.08v0l0,0v0a0.11,0.11,0,0,0,0-.13l-0.44-.2a0.11,0.11,0,0,0-.09.09v0l0,0v0a0.11,0.11,0,0,0,0-.13l-0.45-.17a0.11,0.11,0,0,0-.09.09v0h0v0a0.11,0.11,0,0,0,0-.13L73,110.19a0.11,0.11,0,0,0-.08.1v0h0v0a0.11,0.11,0,0,0,0-.13L72.45,110a0.11,0.11,0,0,0-.08.1v0h0v0a0.11,0.11,0,0,0,0-.13l-0.47-.1a0.11,0.11,0,0,0-.07.1v0h0v0a0.11,0.11,0,0,0,0-.12l-0.47-.08a0.11,0.11,0,0,0-.07.11v0h0v0a0.11,0.11,0,0,0,0-.12l-0.48-.05a0.11,0.11,0,0,0-.06.11,0.23,0.23,0,0,0,0,0h0a0.12,0.12,0,0,0,0,0,0.11,0.11,0,0,0,0-.12l-0.48,0a0.11,0.11,0,0,0-.06.12,0.25,0.25,0,0,0,0,0h0a0.22,0.22,0,0,0,0,0,0.11,0.11,0,0,0,0-.12H69.35a0.11,0.11,0,0,0,0,.12,0.22,0.22,0,0,0,0,0h0a0.13,0.13,0,0,0,0,0,0.11,0.11,0,0,0-.06-0.12l-0.48,0a0.11,0.11,0,0,0,0,.12v0h0a0.26,0.26,0,0,0,0,0,0.11,0.11,0,0,0-.06-0.11l-0.48,0a0.11,0.11,0,0,0,0,.12v0h0a0.26,0.26,0,0,0,0,0,0.11,0.11,0,0,0-.07-0.11l-0.47.08a0.11,0.11,0,0,0,0,.12v0h0v0a0.11,0.11,0,0,0-.07-0.11l-0.47.1a0.11,0.11,0,0,0,0,.13v0h0v0a0.11,0.11,0,0,0-.08-0.1l-0.46.12a0.11,0.11,0,0,0,0,.13v0h0v0a0.11,0.11,0,0,0-.08-0.1l-0.46.15a0.11,0.11,0,0,0,0,.13v0h0v0a0.11,0.11,0,0,0-.09-0.09l-0.45.17a0.11,0.11,0,0,0,0,.13v0l0,0v0a0.11,0.11,0,0,0-.09-0.09l-0.44.2a0.11,0.11,0,0,0,0,.13v0l0,0v0a0.11,0.11,0,0,0-.1-0.08l-0.43.22a0.11,0.11,0,0,0,0,.13v0l0,0v0a0.11,0.11,0,0,0-.1-0.08l-0.42.24a0.11,0.11,0,0,0,0,.13v0l0,0v0a0.11,0.11,0,0,0-.11-0.07l-0.4.26a0.11,0.11,0,0,0,0,.13l0,0,0,0v0a0.11,0.11,0,0,0-.11-0.07l-0.39.28a0.11,0.11,0,0,0,0,.12l0,0,0,0v0a0.11,0.11,0,0,0-.11-0.06l-0.37.3a0.11,0.11,0,0,0,0,.12l0,0,0,0,0,0a0.11,0.11,0,0,0-.11-0.06l-0.36.32a0.12,0.12,0,0,0,0,.12l0,0,0,0,0,0a0.11,0.11,0,0,0-.12,0l-0.34.34a0.11,0.11,0,0,0,0,.12l0,0,0,0,0,0a0.11,0.11,0,0,0-.12,0l-0.32.36a0.11,0.11,0,0,0,.06.12l0,0,0,0,0,0a0.11,0.11,0,0,0-.12,0l-0.3.37a0.11,0.11,0,0,0,.06.11h0l0,0,0,0a0.11,0.11,0,0,0-.12,0l-0.28.39a0.11,0.11,0,0,0,.07.11h0l0,0,0,0a0.11,0.11,0,0,0-.13,0l-0.26.4a0.11,0.11,0,0,0,.07.11h0l0,0h0a0.11,0.11,0,0,0-.13,0l-0.24.42a0.11,0.11,0,0,0,.08.1h0l0,0h0a0.11,0.11,0,0,0-.13,0l-0.22.43a0.11,0.11,0,0,0,.08.1h0l0,0h0a0.11,0.11,0,0,0-.13,0l-0.2.44a0.11,0.11,0,0,0,.09.09h0l0,0h0a0.11,0.11,0,0,0-.13,0l-0.17.45a0.11,0.11,0,0,0,.09.09h0v0h0a0.11,0.11,0,0,0-.13,0l-0.15.46a0.11,0.11,0,0,0,.1.08h0v0h0a0.11,0.11,0,0,0-.13,0l-0.12.47a0.11,0.11,0,0,0,.1.08h0v0h0a0.11,0.11,0,0,0-.13,0l-0.1.47a0.11,0.11,0,0,0,.11.07h0v0h0a0.11,0.11,0,0,0-.12,0l-0.08.48a0.11,0.11,0,0,0,.11.07h0v0h0a0.11,0.11,0,0,0-.12,0l0,0.48a0.11,0.11,0,0,0,.11.06h0v0h0a0.11,0.11,0,0,0-.12,0l0,0.48a0.11,0.11,0,0,0,.12.06h0s0,0,0,0h0a0.11,0.11,0,0,0-.12,0v0.48a0.11,0.11,0,0,0,.12,0h0v0h0a0.11,0.11,0,0,0-.12.06l0,0.48a0.11,0.11,0,0,0,.12,0h0v0h0a0.11,0.11,0,0,0-.11.06l0.05,0.48a0.11,0.11,0,0,0,.12,0h0v0h0a0.11,0.11,0,0,0-.11.07l0.08,0.48a0.11,0.11,0,0,0,.12,0h0v0h0a0.11,0.11,0,0,0-.11.07l0.1,0.47a0.11,0.11,0,0,0,.13,0h0v0h0a0.11,0.11,0,0,0-.1.08L58.07,125a0.11,0.11,0,0,0,.13,0h0v0h0a0.11,0.11,0,0,0-.1.08l0.15,0.46a0.11,0.11,0,0,0,.13,0h0v0h0a0.11,0.11,0,0,0-.09.09l0.17,0.45a0.11,0.11,0,0,0,.13,0h0l0,0h0a0.11,0.11,0,0,0-.09.09l0.2,0.44a0.11,0.11,0,0,0,.13,0h0l0,0h0a0.11,0.11,0,0,0-.08.1L59,127.28a0.11,0.11,0,0,0,.13,0h0l0,0h0a0.11,0.11,0,0,0-.08.1l0.24,0.42a0.11,0.11,0,0,0,.13,0h0l0,0h0a0.11,0.11,0,0,0-.07.11l0.26,0.4a0.11,0.11,0,0,0,.13,0l0,0,0,0h0a0.11,0.11,0,0,0-.07.11L60,128.86a0.11,0.11,0,0,0,.12,0l0,0,0,0h0a0.11,0.11,0,0,0-.06.11l0.3,0.37a0.11,0.11,0,0,0,.12,0l0,0,0,0,0,0a0.11,0.11,0,0,0-.06.12l0.32,0.36a0.11,0.11,0,0,0,.12,0l0,0,0,0,0,0a0.11,0.11,0,0,0,0,.12l0.34,0.34a0.11,0.11,0,0,0,.12,0l0,0,0,0,0,0a0.11,0.11,0,0,0,0,.12l0.36,0.32a0.11,0.11,0,0,0,.12-0.05l0,0,0,0,0,0a0.11,0.11,0,0,0,0,.12l0.37,0.3a0.11,0.11,0,0,0,.11-0.06v0l0,0,0,0a0.11,0.11,0,0,0,0,.12l0.39,0.28a0.11,0.11,0,0,0,.11-0.07v0l0,0,0,0a0.11,0.11,0,0,0,0,.13l0.4,0.26a0.11,0.11,0,0,0,.11-0.07v0l0,0,0,0a0.11,0.11,0,0,0,0,.13l0.42,0.24a0.11,0.11,0,0,0,.1-0.08v0l0,0v0a0.11,0.11,0,0,0,0,.13l0.43,0.22a0.11,0.11,0,0,0,.1-0.08v0l0,0v0a0.11,0.11,0,0,0,0,.13l0.44,0.2a0.11,0.11,0,0,0,.09-0.09v0l0,0v0a0.11,0.11,0,0,0,0,.13l0.45,0.17a0.11,0.11,0,0,0,.09-0.09v0h0v0a0.11,0.11,0,0,0,0,.13l0.46,0.15a0.11,0.11,0,0,0,.08-0.1v0h0v0a0.11,0.11,0,0,0,0,.13l0.46,0.12a0.11,0.11,0,0,0,.08-0.1v0h0v0a0.11,0.11,0,0,0,0,.13l0.47,0.1a0.11,0.11,0,0,0,.07-0.11v0h0v0a0.11,0.11,0,0,0,0,.12l0.47,0.08a0.11,0.11,0,0,0,.07-0.11,0.12,0.12,0,0,0,0,0h0v0a0.11,0.11,0,0,0,0,.12l0.48,0.05a0.11,0.11,0,0,0,.06-0.11,0.24,0.24,0,0,0,0,0h0v0a0.11,0.11,0,0,0,0,.12l0.48,0a0.11,0.11,0,0,0,.06-0.12,0.13,0.13,0,0,0,0,0h0a0.22,0.22,0,0,0,0,0,0.11,0.11,0,0,0,0,.12h0.48a0.11,0.11,0,0,0,0-.12,0.22,0.22,0,0,0,0,0h0a0.24,0.24,0,0,0,0,0,0.11,0.11,0,0,0,.06.12l0.48,0a0.11,0.11,0,0,0,0-.12v0h0a0.27,0.27,0,0,0,0,0,0.11,0.11,0,0,0,.06.11l0.48-.05a0.11,0.11,0,0,0,0-.12v0h0a0.26,0.26,0,0,0,0,0,0.11,0.11,0,0,0,.07.11l0.47-.08a0.11,0.11,0,0,0,0-.12v0h0v0a0.11,0.11,0,0,0,.07.11l0.47-.1a0.11,0.11,0,0,0,0-.13v0h0v0a0.11,0.11,0,0,0,.08.1l0.46-.12a0.11,0.11,0,0,0,0-.13v0h0v0a0.11,0.11,0,0,0,.08.1l0.46-.15a0.11,0.11,0,0,0,0-.13v0h0v0a0.11,0.11,0,0,0,.09.09l0.45-.17a0.11,0.11,0,0,0,0-.13v0l0,0v0a0.11,0.11,0,0,0,.09.09l0.44-.2a0.11,0.11,0,0,0,0-.13v0l0,0v0a0.11,0.11,0,0,0,.1.08l0.43-.22a0.11,0.11,0,0,0,0-.13v0l0,0v0a0.11,0.11,0,0,0,.1.08l0.42-.24a0.11,0.11,0,0,0,0-.13v0l0,0v0a0.11,0.11,0,0,0,.11.07l0.4-.26a0.11,0.11,0,0,0,0-.13l0,0,0,0v0a0.11,0.11,0,0,0,.11.07l0.39-.28a0.11,0.11,0,0,0,0-.12l0,0,0,0v0a0.11,0.11,0,0,0,.11.06l0.37-.3a0.11,0.11,0,0,0,0-.12l0,0,0,0,0,0a0.11,0.11,0,0,0,.12.06l0.36-.32a0.11,0.11,0,0,0,0-.12l0,0,0,0,0,0a0.11,0.11,0,0,0,.12,0l0.34-.34a0.11,0.11,0,0,0,0-.12l0,0,0,0,0,0a0.11,0.11,0,0,0,.12,0l0.32-.36a0.11,0.11,0,0,0-.06-0.12l0,0,0,0,0,0a0.11,0.11,0,0,0,.12,0L79,129a0.11,0.11,0,0,0-.06-0.11h0l0,0,0,0a0.11,0.11,0,0,0,.12,0l0.28-.39a0.11,0.11,0,0,0-.07-0.11h0l0,0,0,0a0.11,0.11,0,0,0,.13,0l0.26-.41a0.11,0.11,0,0,0-.07-0.11h0l0,0h0a0.11,0.11,0,0,0,.13,0l0.24-.42a0.11,0.11,0,0,0-.08-0.1h0l0,0h0a0.11,0.11,0,0,0,.13,0l0.22-.43a0.11,0.11,0,0,0-.08-0.1h0l0,0h0a0.11,0.11,0,0,0,.13,0l0.2-.44a0.11,0.11,0,0,0-.09-0.09h0l0,0h0a0.11,0.11,0,0,0,.13,0l0.17-.45a0.11,0.11,0,0,0-.09-0.09h0v0h0a0.11,0.11,0,0,0,.13,0l0.15-.46a0.11,0.11,0,0,0-.1-0.08h0v0h0a0.11,0.11,0,0,0,.13,0l0.12-.47a0.11,0.11,0,0,0-.1-0.08h0v0h0a0.11,0.11,0,0,0,.13,0l0.1-.47a0.11,0.11,0,0,0-.11-0.07h0v0h0a0.11,0.11,0,0,0,.12,0l0.08-.48a0.11,0.11,0,0,0-.11-0.07h0v0h0a0.11,0.11,0,0,0,.12,0l0.05-.48a0.11,0.11,0,0,0-.11-0.06h0s0,0,0,0h0a0.11,0.11,0,0,0,.12,0l0-.48a0.11,0.11,0,0,0-.11-0.06h0s0,0,0,0h0" transform="translate(1)"/><path id="Fill-128" class="cls-12" d="M69.46,118.09a0.92,0.92,0,0,0,.92-0.92s0,0,0-.07a0.92,0.92,0,0,0-1.83,0s0,0,0,.07a0.92,0.92,0,0,0,.92.92" transform="translate(1)"/><path id="Fill-129" class="cls-12" d="M67,119.21a0.92,0.92,0,1,0-1.3,0,0.92,0.92,0,0,0,1.3,0" transform="translate(1)"/><path id="Fill-130" class="cls-12" d="M74.94,121.48a0.92,0.92,0,0,0-1.83,0s0,0,0,.07a0.92,0.92,0,1,0,1.84,0s0,0,0-.07" transform="translate(1)"/><path id="Fill-131" class="cls-12" d="M73.3,119.06a0.92,0.92,0,1,0-1.3,0,0.92,0.92,0,0,0,1.3,0" transform="translate(1)"/><path id="Fill-132" class="cls-12" d="M66,121.75s0,0,0-.07a0.92,0.92,0,0,0-1.83,0s0,0,0,.07a0.92,0.92,0,1,0,1.84,0" transform="translate(1)"/><path id="Fill-133" class="cls-12" d="M67.12,124.23a0.93,0.93,0,1,0,.27.58,0.92,0.92,0,0,0-.27-0.58" transform="translate(1)"/><path id="Fill-134" class="cls-12" d="M69.66,125.2a0.92,0.92,0,0,0-.92.85s0,0,0,.07a0.92,0.92,0,1,0,1.84,0s0,0,0-.07a0.92,0.92,0,0,0-.92-0.85" transform="translate(1)"/><path id="Fill-135" class="cls-12" d="M73.44,124.09a0.93,0.93,0,1,0,.27.58,0.92,0.92,0,0,0-.27-0.58" transform="translate(1)"/><path id="Fill-136" class="cls-12" d="M67,121.65a2.51,2.51,0,1,1,2.51,2.52A2.51,2.51,0,0,1,67,121.65" transform="translate(1)"/><path id="Fill-137" class="cls-12" d="M78.09,107.91s0.64,1.06,1.47,2.49c1.53,2.63,3.72,6.5,3.82,7.34,0.15,1.29.57,5.4,0.91,4.86a13.71,13.71,0,0,0,.33-5.67c-0.39-1.46-4.13-9-4.13-9h-2.4Z" transform="translate(1)"/><path id="Fill-138" class="cls-16" d="M164,110.12s6.69,1.35,8.23,1.94c3.72,1.41,6.13,6,6.34,6.8,0.33,1.26,1.56,4.31,1.81,3.72s-0.69-6.14-1.29-7.53-4.57-6.46-4.57-6.46Z" transform="translate(1)"/><path id="Fill-139" class="cls-16" d="M161.44,110.12s-6.69,1.35-8.23,1.94c-3.72,1.41-6.13,6-6.34,6.8-0.33,1.26-1.56,4.31-1.81,3.72s0.69-6.14,1.29-7.53,4.57-6.46,4.57-6.46Z" transform="translate(1)"/><path id="Fill-140" class="cls-6" d="M82.92,100.34H80.53v6.18h2.39v-6.17Z" transform="translate(1)"/><path id="Fill-141" class="cls-6" d="M82.87,67.36c0-2.36-6.48-2.76-15.51-2.29-7.89.42-9.77,0.71-12.47,2.07A8.24,8.24,0,0,0,52,69.88C49.69,73,40.58,83.2,38.46,97.64a1,1,0,0,1,.85,1v4.49a1,1,0,0,1-.84,1,1.64,1.64,0,0,0,1.84,1.44s1.88-.25.45,3.56,0.95,5.29.95,5.29,1.42,0,2.63,0,10.32,0.07,10.32.07l5-6.39s1.14-1.74,7.91-1.66c4.55,0.05,9.91.05,12.93,0v-6.18h2.38V67.82a0.85,0.85,0,0,0,0-.47" transform="translate(1)"/><path id="Fill-142" class="cls-12" d="M69.06,70s-15.38,0-19.47,7.17c-4.74,8.34-5.66,14-5.43,16.17s0,3.55,2.64,3.31c13.19-1.16,11.64-5,19.43-6.07,7.35-1,9-3.47,9.36-8s0.71-12.74.71-12.74Z" transform="translate(1)"/><polygon id="Fill-143" class="cls-16" points="97.18 121.15 120.94 121.15 120.94 110.29 97.18 110.29 97.18 121.15"/><path id="Fill-144" class="cls-16" d="M82.92,107.22H67.62s-5.42-.27-7.31,1.38l-5,6.38H42.43l0.36,5.19H53.23a5.71,5.71,0,0,1,2.68-4.47l4.84-6.27S62.23,108,67.57,108H82.92v-0.77Z" transform="translate(1)"/><path id="Fill-145" class="cls-12" d="M43.81,115.77H54.58a5,5,0,0,0-2.14,3.51H43.81v-3.51Z" transform="translate(1)"/><path id="Fill-146" class="cls-16" d="M42.78,113.86h-3a1.29,1.29,0,0,0-1.11.85,2.34,2.34,0,0,0-.2,1v3.66a1.63,1.63,0,0,0,1.31,1.81h3a1.63,1.63,0,0,0,1.31-1.81v-3.66a1.63,1.63,0,0,0-1.31-1.81" transform="translate(1)"/><path id="Fill-147" class="cls-12" d="M41.37,105.8H40.17a0.73,0.73,0,0,0-.58.36h1.35a1,1,0,0,1,.93,1v4a1,1,0,0,1-.93,1H39.59a0.73,0.73,0,0,0,.58.36h1.21a1.2,1.2,0,0,0,.86-1.36v-4a1.2,1.2,0,0,0-.86-1.36" transform="translate(1)"/><path id="Fill-148" class="cls-11" d="M40.94,106.16H39.59a1.8,1.8,0,0,0-.28,1v4a1.8,1.8,0,0,0,.28,1h1.35a1,1,0,0,0,.93-1v-4a1,1,0,0,0-.93-1" transform="translate(1)"/><polygon id="Fill-149" class="cls-16" points="202.47 108.66 196.22 106.64 97.42 106.64 87.35 97.51 87.35 70.68 84.58 70.68 84.58 106.64 84.58 109.42 87.35 109.42 195.78 109.42 213.74 115.21 214.59 112.57 202.47 108.66"/><polygon id="Fill-150" points="195.85 109.01 84.98 109.01 84.98 71.08 86.95 71.08 86.95 97.69 97.27 107.05 196.16 107.05 214.08 112.83 213.48 114.7 195.85 109.01"/><polygon id="Fill-151" class="cls-17" points="88.57 99.16 84.98 102.76 84.98 107.27 90.93 101.3 88.57 99.16"/><polygon id="Fill-152" class="cls-17" points="149.7 107.05 147.74 109.01 152.23 109.01 154.19 107.05 149.7 107.05"/><polygon id="Fill-153" class="cls-17" points="211.65 114.11 213.48 114.7 214.08 112.83 213.21 112.55 211.65 114.11"/><polygon id="Fill-154" class="cls-17" points="141.07 107.05 139.11 109.01 143.61 109.01 145.57 107.05 141.07 107.05"/><polygon id="Fill-155" class="cls-17" points="84.98 71.08 84.98 72.67 86.56 71.08 84.98 71.08"/><polygon id="Fill-156" class="cls-17" points="123.82 107.05 121.86 109.01 126.36 109.01 128.32 107.05 123.82 107.05"/><polygon id="Fill-157" class="cls-17" points="106.57 107.05 104.61 109.01 109.11 109.01 111.07 107.05 106.57 107.05"/><polygon id="Fill-158" class="cls-17" points="93.1 103.27 87.37 109.01 91.86 109.01 95.46 105.41 93.1 103.27"/><polygon id="Fill-159" class="cls-17" points="158.32 107.05 156.36 109.01 160.86 109.01 162.82 107.05 158.32 107.05"/><polygon id="Fill-160" class="cls-17" points="132.45 107.05 130.49 109.01 134.98 109.01 136.94 107.05 132.45 107.05"/><polygon id="Fill-161" class="cls-17" points="97.95 107.05 95.99 109.01 100.48 109.01 102.44 107.05 97.95 107.05"/><polygon id="Fill-162" class="cls-17" points="86.95 74.84 84.98 76.81 84.98 81.32 86.95 79.34 86.95 74.84"/><polygon id="Fill-163" class="cls-17" points="200.16 108.34 198.6 109.9 202 111 203.56 109.44 200.16 108.34"/><polygon id="Fill-164" class="cls-17" points="196.16 107.05 192.82 107.05 190.86 109.01 195.36 109.01 197.03 107.33 196.16 107.05"/><polygon id="Fill-165" class="cls-17" points="184.19 107.05 182.24 109.01 186.73 109.01 188.69 107.05 184.19 107.05"/><polygon id="Fill-166" class="cls-17" points="175.57 107.05 173.61 109.01 178.11 109.01 180.07 107.05 175.57 107.05"/><polygon id="Fill-167" class="cls-17" points="86.95 92.13 84.98 94.11 84.98 98.62 86.95 96.64 86.95 92.13"/><polygon id="Fill-168" class="cls-17" points="115.2 107.05 113.24 109.01 117.73 109.01 119.69 107.05 115.2 107.05"/><polygon id="Fill-169" class="cls-17" points="206.68 110.44 205.13 112.01 208.53 113.1 210.09 111.54 206.68 110.44"/><polygon id="Fill-170" class="cls-17" points="166.95 107.05 164.99 109.01 169.48 109.01 171.44 107.05 166.95 107.05"/><polygon id="Fill-171" class="cls-17" points="86.95 83.48 84.98 85.46 84.98 89.97 86.95 87.99 86.95 83.48"/><polygon id="Fill-172" class="cls-12" points="199.94 114.83 198.71 114.83 197.1 111.99 90.68 111.99 90.68 109.97 199.94 109.97 199.94 114.83"/><polygon id="Fill-173" class="cls-18" points="199.74 115.69 201.94 115.69 201.94 109.97 199.74 109.97 199.74 115.69"/><path id="Fill-174" d="M199.6,114.59V111a0.47,0.47,0,0,1,.06-0.23h1.92a0.38,0.38,0,0,0-.27-0.36h-1.77a0.53,0.53,0,0,0-.3.6v3.55a0.53,0.53,0,0,0,.3.6h1.77a0.38,0.38,0,0,0,.27-0.36h-1.92a0.47,0.47,0,0,1-.06-0.23" transform="translate(1)"/><path id="Fill-175" class="cls-13" d="M201.58,110.81h-1.92a0.47,0.47,0,0,0-.06.24v3.55a0.47,0.47,0,0,0,.06.23h1.92a1.1,1.1,0,0,0,0-.23V111a1.11,1.11,0,0,0,0-.24" transform="translate(1)"/><polygon id="Fill-176" class="cls-18" points="87.21 76.8 89.41 76.8 89.41 71.08 87.21 71.08 87.21 76.8"/><path id="Fill-177" d="M87.08,75.7V72.16a0.47,0.47,0,0,1,.06-0.23h1.92a0.39,0.39,0,0,0-.27-0.36H87a0.53,0.53,0,0,0-.3.6V75.7a0.53,0.53,0,0,0,.3.6h1.77a0.39,0.39,0,0,0,.27-0.36H87.14a0.48,0.48,0,0,1-.06-0.24" transform="translate(1)"/><path id="Fill-178" class="cls-13" d="M89.06,71.92H87.14a0.47,0.47,0,0,0-.06.24V75.7a0.47,0.47,0,0,0,.06.24h1.92a1.11,1.11,0,0,0,0-.24V72.16a1.11,1.11,0,0,0,0-.24" transform="translate(1)"/><path id="Fill-179" class="cls-7" d="M75.53,96.11H73a1.41,1.41,0,0,0,0,2.81h2.57a1.41,1.41,0,0,0,0-2.81" transform="translate(1)"/><path id="Fill-180" class="cls-19" d="M75.51,60.12a0.36,0.36,0,0,0-.35-0.31H73.08a0.36,0.36,0,0,0-.35.31l-0.55,4.53a0.27,0.27,0,0,0,.27.31h3.32A0.27,0.27,0,0,0,76,64.78a0.31,0.31,0,0,0,0-.12Z" transform="translate(1)"/><path id="Fill-181" class="cls-12" d="M76.39,64.75a0.28,0.28,0,0,0-.27-0.21h-4a0.28,0.28,0,0,0-.27.28V65a0.28,0.28,0,0,0,.27.28h4A0.28,0.28,0,0,0,76.4,65V64.81a0.28,0.28,0,0,0,0-.06" transform="translate(1)"/><path id="Fill-182" class="cls-6" d="M38.52,97.23s-0.93,6.06.24,7.69,1.34-7.23,1.26-7.3" transform="translate(1)"/></g></g></g><g id="We_ll-get-you-back-o" data-name="We’ll-get-you-back-o" class="cls-20"><g class="cls-20"><path class="cls-11" d="M65.71,37.1H63.83L60.63,26.2,57.44,37.1H55.56l-3.5-13.6h1.88l2.66,10.94L59.84,23.5h1.65l3.23,11,2.66-11h1.86Z" transform="translate(1)"/><path class="cls-11" d="M70.32,32.19a6.2,6.2,0,0,1,.33-2.06,5,5,0,0,1,1-1.66,4.33,4.33,0,0,1,1.51-1.1,5.33,5.33,0,0,1,4,0,4.35,4.35,0,0,1,1.47,1,4.45,4.45,0,0,1,.93,1.52,5.43,5.43,0,0,1,.32,1.89q0,0.25,0,.44t0,0.34H72.09a3.84,3.84,0,0,0,.27,1.38,2.93,2.93,0,0,0,.68,1,2.83,2.83,0,0,0,1,.63,4.18,4.18,0,0,0,3-.15,3.21,3.21,0,0,0,1.27-1l1.22,1a5.32,5.32,0,0,1-.71.76,4.74,4.74,0,0,1-.93.64,5.17,5.17,0,0,1-1.17.44,6,6,0,0,1-1.44.16,5.46,5.46,0,0,1-2.13-.39,4.45,4.45,0,0,1-1.57-1.08,4.62,4.62,0,0,1-1-1.63A6.11,6.11,0,0,1,70.32,32.19Zm7.79-.91A3.33,3.33,0,0,0,77.82,30a2.81,2.81,0,0,0-.67-0.9,2.63,2.63,0,0,0-.93-0.53,3.48,3.48,0,0,0-1.09-.17A3.19,3.19,0,0,0,74,28.6a2.66,2.66,0,0,0-.92.6,3,3,0,0,0-.62.91,3.72,3.72,0,0,0-.28,1.15h6Z" transform="translate(1)"/><path class="cls-11" d="M83,25.65a1.24,1.24,0,0,1-.85-0.32,1.05,1.05,0,0,1-.36-0.82,1.32,1.32,0,0,1,.28-0.8,1,1,0,0,1,.85-0.38,1.14,1.14,0,0,1,.9.41,1.82,1.82,0,0,1,.35,1.21,2.77,2.77,0,0,1-.52,1.61,4.42,4.42,0,0,1-1.38,1.27L81.76,27a2.94,2.94,0,0,0,.86-0.67A1.15,1.15,0,0,0,83,25.65Z" transform="translate(1)"/><path class="cls-11" d="M86.68,37.1V23.5h1.65V37.1H86.68Z" transform="translate(1)"/><path class="cls-11" d="M91.64,37.1V23.5h1.65V37.1H91.64Z" transform="translate(1)"/><path class="cls-11" d="M111.06,35.5a8.15,8.15,0,0,1-.23,2,3.82,3.82,0,0,1-.8,1.57,3.32,3.32,0,0,1-.83.72,5.38,5.38,0,0,1-2.11.74,9,9,0,0,1-1.17.08,6.86,6.86,0,0,1-4-1.18l0.84-1.35a5.28,5.28,0,0,0,3.21,1,4.92,4.92,0,0,0,1.37-.18,3,3,0,0,0,1.09-.57,2.68,2.68,0,0,0,.73-1,3.78,3.78,0,0,0,.27-1.5v-1A4.4,4.4,0,0,1,108,36.19a4.07,4.07,0,0,1-2.13.53,4.38,4.38,0,0,1-1.84-.38,4.26,4.26,0,0,1-1.43-1,4.69,4.69,0,0,1-.91-1.54,5.62,5.62,0,0,1,0-3.78,4.75,4.75,0,0,1,.94-1.56A4.53,4.53,0,0,1,104,27.36a4.35,4.35,0,0,1,1.86-.39,4.63,4.63,0,0,1,2,.43,3.61,3.61,0,0,1,1.54,1.38V27.19h1.65V35.5Zm-1.65-3.67a3.88,3.88,0,0,0-.21-1.26,3.18,3.18,0,0,0-.61-1.07,2.93,2.93,0,0,0-1-.74,3.3,3.3,0,0,0-1.4-.28,3.17,3.17,0,0,0-1.38.28,2.83,2.83,0,0,0-1,.75,3.11,3.11,0,0,0-.58,1.08,4.22,4.22,0,0,0-.19,1.26,4.28,4.28,0,0,0,.19,1.28,3.11,3.11,0,0,0,.58,1.08,2.9,2.9,0,0,0,1,.75,3.09,3.09,0,0,0,1.37.29,3.25,3.25,0,0,0,1.38-.28,2.91,2.91,0,0,0,1-.75,3.29,3.29,0,0,0,.62-1.1A4,4,0,0,0,109.41,31.83Z" transform="translate(1)"/><path class="cls-11" d="M113.7,32.19a6.2,6.2,0,0,1,.33-2.06,5,5,0,0,1,1-1.66,4.33,4.33,0,0,1,1.51-1.1,5.33,5.33,0,0,1,4,0,4.35,4.35,0,0,1,1.47,1,4.45,4.45,0,0,1,.93,1.52,5.43,5.43,0,0,1,.32,1.89q0,0.25,0,.44t0,0.34h-7.68a3.84,3.84,0,0,0,.27,1.38,2.93,2.93,0,0,0,.68,1,2.83,2.83,0,0,0,1,.63,4.18,4.18,0,0,0,3-.15,3.21,3.21,0,0,0,1.27-1l1.22,1a5.32,5.32,0,0,1-.71.76,4.74,4.74,0,0,1-.93.64,5.17,5.17,0,0,1-1.17.44,6,6,0,0,1-1.44.16,5.46,5.46,0,0,1-2.13-.39A4.45,4.45,0,0,1,115,35.86a4.62,4.62,0,0,1-1-1.63A6.11,6.11,0,0,1,113.7,32.19Zm7.79-.91A3.33,3.33,0,0,0,121.2,30a2.81,2.81,0,0,0-.67-0.9,2.63,2.63,0,0,0-.93-0.53,3.48,3.48,0,0,0-1.09-.17,3.19,3.19,0,0,0-1.18.21,2.66,2.66,0,0,0-.92.6,3,3,0,0,0-.62.91,3.72,3.72,0,0,0-.28,1.15h6Z" transform="translate(1)"/><path class="cls-11" d="M131.56,36.65a3.34,3.34,0,0,1-2.17.68A3.42,3.42,0,0,1,128,37a2.57,2.57,0,0,1-1.4-1.78,5.71,5.71,0,0,1-.1-1.15V28.6h-1.82V27.39a5.32,5.32,0,0,0,.9-0.17,1.45,1.45,0,0,0,.67-0.41,1.92,1.92,0,0,0,.42-0.84,7,7,0,0,0,.18-1.44h1.31v2.67h3.12V28.6h-3.12v5.54q0,1.72,1.46,1.72a2.35,2.35,0,0,0,.79-0.12,2.12,2.12,0,0,0,.62-0.33Z" transform="translate(1)"/><path class="cls-11" d="M143.45,37.56a12.69,12.69,0,0,1-.59,1.3,3.89,3.89,0,0,1-.7,1,2.67,2.67,0,0,1-.92.59,3.36,3.36,0,0,1-1.21.2,4.18,4.18,0,0,1-1-.12,2.48,2.48,0,0,1-.84-0.37l0.57-1.35a1.51,1.51,0,0,0,.51.27,2.08,2.08,0,0,0,.63.1A1.39,1.39,0,0,0,141,38.7a4.21,4.21,0,0,0,.67-1.07L142,37l-4.18-9.85h1.9l3.15,7.7,2.79-7.7h1.79Z" transform="translate(1)"/><path class="cls-11" d="M158.43,32.17a6,6,0,0,1-.34,2.07,4.82,4.82,0,0,1-1,1.63,4.42,4.42,0,0,1-1.53,1.08,5.44,5.44,0,0,1-4,0A4.42,4.42,0,0,1,150,35.86a4.7,4.7,0,0,1-1-1.63,6.17,6.17,0,0,1-.33-2.07,6.27,6.27,0,0,1,.33-2.08,4.79,4.79,0,0,1,1-1.65,4.37,4.37,0,0,1,1.53-1.09,5.44,5.44,0,0,1,4,0,4.37,4.37,0,0,1,1.53,1.09,4.91,4.91,0,0,1,1,1.65A6.11,6.11,0,0,1,158.43,32.17Zm-1.77,0a4.94,4.94,0,0,0-.21-1.46,3.6,3.6,0,0,0-.6-1.17,2.78,2.78,0,0,0-1-.78,3.19,3.19,0,0,0-2.64,0,2.78,2.78,0,0,0-1,.78,3.59,3.59,0,0,0-.6,1.17,4.92,4.92,0,0,0-.21,1.46,4.83,4.83,0,0,0,.21,1.45,3.61,3.61,0,0,0,.6,1.17,2.78,2.78,0,0,0,1,.78,3.19,3.19,0,0,0,2.64,0,2.78,2.78,0,0,0,1-.78,3.62,3.62,0,0,0,.6-1.17A4.85,4.85,0,0,0,156.66,32.18Z" transform="translate(1)"/><path class="cls-11" d="M169.5,27.19V37.1h-1.65V35.48a4.53,4.53,0,0,1-1.46,1.37,3.81,3.81,0,0,1-1.92.48,3.31,3.31,0,0,1-2.54-1A3.87,3.87,0,0,1,161,33.6v-6.4h1.65v6a4.86,4.86,0,0,0,.09.9,2.31,2.31,0,0,0,.32.83,1.82,1.82,0,0,0,.67.61,2.27,2.27,0,0,0,1.11.24,3.21,3.21,0,0,0,1.2-.22,2.7,2.7,0,0,0,1-.63,3,3,0,0,0,.63-1,3.37,3.37,0,0,0,.23-1.26V27.19h1.65Z" transform="translate(1)"/><path class="cls-11" d="M179.86,23.5v5.32a4.09,4.09,0,0,1,1.61-1.43,4.48,4.48,0,0,1,1.91-.42,4.29,4.29,0,0,1,3.33,1.5,4.81,4.81,0,0,1,.91,1.64,6.4,6.4,0,0,1,.31,2,6.55,6.55,0,0,1-.31,2.06,4.79,4.79,0,0,1-.91,1.65,4.32,4.32,0,0,1-1.44,1.1,4.59,4.59,0,0,1-3.81,0,4.18,4.18,0,0,1-1.6-1.44V37.1H178.2V23.5h1.65Zm0,8.65a4.76,4.76,0,0,0,.21,1.43,3.4,3.4,0,0,0,.62,1.16,2.91,2.91,0,0,0,1,.78,3.15,3.15,0,0,0,1.38.29,3,3,0,0,0,1.36-.29,2.77,2.77,0,0,0,1-.78,3.46,3.46,0,0,0,.59-1.16,5,5,0,0,0,.2-1.43,5.13,5.13,0,0,0-.19-1.41,3.46,3.46,0,0,0-.58-1.17,2.71,2.71,0,0,0-1-.79,3.1,3.1,0,0,0-1.37-.29,3.16,3.16,0,0,0-1.38.29,2.92,2.92,0,0,0-1,.78,3.4,3.4,0,0,0-.62,1.16A4.76,4.76,0,0,0,179.86,32.15Z" transform="translate(1)"/><path class="cls-11" d="M193.39,37.35a4.67,4.67,0,0,1-1.44-.21,3.18,3.18,0,0,1-1.1-.6,2.73,2.73,0,0,1-.71-1,3.07,3.07,0,0,1-.26-1.29,2.58,2.58,0,0,1,.34-1.4,2.72,2.72,0,0,1,.85-0.87,3.67,3.67,0,0,1,1.11-.47q0.6-.14,1.11-0.22l1.14-.13a5,5,0,0,0,1-.2,2,2,0,0,0,.73-0.4,1,1,0,0,0,.29-0.75,1.16,1.16,0,0,0-.63-1.08,3.23,3.23,0,0,0-1.6-.35,5.07,5.07,0,0,0-3.13,1l-0.76-1.26a7.3,7.3,0,0,1,1.82-.93A6.57,6.57,0,0,1,194.3,27a6.17,6.17,0,0,1,1.54.18,3.19,3.19,0,0,1,1.21.58,2.77,2.77,0,0,1,.79,1,3.45,3.45,0,0,1,.29,1.47v4.69q0,1.07.72,1.07a0.92,0.92,0,0,0,.55-0.15l0.21,1.26a1.66,1.66,0,0,1-.51.15,3.74,3.74,0,0,1-.61.06,2,2,0,0,1-1.21-.38,1.63,1.63,0,0,1-.64-1.12,3.59,3.59,0,0,1-1.29,1.15A4.09,4.09,0,0,1,193.39,37.35Zm3.08-5.58a1.77,1.77,0,0,1-.56.37,4.06,4.06,0,0,1-.71.23,7.53,7.53,0,0,1-.79.13l-0.79.1a5.65,5.65,0,0,0-.81.16,2.16,2.16,0,0,0-.65.3,1.4,1.4,0,0,0-.44.49,1.5,1.5,0,0,0-.16.73,1.42,1.42,0,0,0,.6,1.29,2.6,2.6,0,0,0,1.45.39,3.66,3.66,0,0,0,1-.15,2.6,2.6,0,0,0,.91-0.48,2.41,2.41,0,0,0,.65-0.83,2.74,2.74,0,0,0,.25-1.21V31.77Z" transform="translate(1)"/><path class="cls-11" d="M205.7,27a4.47,4.47,0,0,1,2.34.58A4.84,4.84,0,0,1,209.57,29l-1.18.93a3.22,3.22,0,0,0-1.08-1.07,3,3,0,0,0-1.52-.36,2.93,2.93,0,0,0-1.29.28,2.84,2.84,0,0,0-1,.76,3.5,3.5,0,0,0-.62,1.16,5.09,5.09,0,0,0,0,3,3.5,3.5,0,0,0,.62,1.16,2.81,2.81,0,0,0,1,.76,3,3,0,0,0,1.3.28,2.9,2.9,0,0,0,1.63-.44,3.87,3.87,0,0,0,1.08-1l1.18,0.93a5.56,5.56,0,0,1-1.64,1.48,4.52,4.52,0,0,1-2.35.58,4.82,4.82,0,0,1-2-.39,4.4,4.4,0,0,1-1.51-1.09,4.76,4.76,0,0,1-1-1.65,6.2,6.2,0,0,1-.33-2.06,6,6,0,0,1,.34-2.06,5,5,0,0,1,1-1.65,4.34,4.34,0,0,1,1.49-1.09A4.74,4.74,0,0,1,205.7,27Z" transform="translate(1)"/><path class="cls-11" d="M218.45,27.19h2.07l-3.86,4.06L221,37.1h-2.09l-3.44-4.74-1.82,1.92V37.1H212V23.5h1.65v8.82Z" transform="translate(1)"/><path class="cls-11" d="M237.37,32.17a6,6,0,0,1-.34,2.07,4.81,4.81,0,0,1-1,1.63,4.42,4.42,0,0,1-1.53,1.08,5.44,5.44,0,0,1-4,0A4.42,4.42,0,0,1,229,35.86a4.69,4.69,0,0,1-1-1.63,6.17,6.17,0,0,1-.33-2.07,6.27,6.27,0,0,1,.33-2.08,4.77,4.77,0,0,1,1-1.65,4.37,4.37,0,0,1,1.53-1.09,5.44,5.44,0,0,1,4,0,4.37,4.37,0,0,1,1.53,1.09,4.9,4.9,0,0,1,1,1.65A6.1,6.1,0,0,1,237.37,32.17Zm-1.77,0a4.92,4.92,0,0,0-.21-1.46,3.6,3.6,0,0,0-.6-1.17,2.78,2.78,0,0,0-1-.78,3.18,3.18,0,0,0-2.64,0,2.78,2.78,0,0,0-1,.78,3.6,3.6,0,0,0-.6,1.17,5,5,0,0,0-.21,1.46,4.87,4.87,0,0,0,.21,1.45,3.62,3.62,0,0,0,.6,1.17,2.78,2.78,0,0,0,1,.78,3.18,3.18,0,0,0,2.64,0,2.78,2.78,0,0,0,1-.78,3.62,3.62,0,0,0,.6-1.17A4.83,4.83,0,0,0,235.6,32.18Z" transform="translate(1)"/><path class="cls-11" d="M240,37.1V27.19h1.65v1.64a4.25,4.25,0,0,1,1.45-1.39A3.86,3.86,0,0,1,245,27a3.31,3.31,0,0,1,2.54,1,3.89,3.89,0,0,1,.92,2.77V37.1h-1.65v-6a4.9,4.9,0,0,0-.09-0.9,2.31,2.31,0,0,0-.32-0.83,1.8,1.8,0,0,0-.67-0.61,2.33,2.33,0,0,0-1.12-.24,3.17,3.17,0,0,0-1.18.22,2.7,2.7,0,0,0-.95.63,2.94,2.94,0,0,0-.63,1,3.36,3.36,0,0,0-.23,1.26V37.1H240Z" transform="translate(1)"/><path class="cls-11" d="M263,36.65a3.33,3.33,0,0,1-2.17.68A3.41,3.41,0,0,1,259.4,37a2.57,2.57,0,0,1-1.4-1.78,5.71,5.71,0,0,1-.09-1.15V28.6h-1.82V27.39a5.32,5.32,0,0,0,.9-0.17,1.45,1.45,0,0,0,.67-0.41,1.92,1.92,0,0,0,.42-0.84,7.07,7.07,0,0,0,.18-1.44h1.31v2.67h3.12V28.6h-3.12v5.54q0,1.72,1.46,1.72a2.35,2.35,0,0,0,.79-0.12,2.13,2.13,0,0,0,.62-0.33Z" transform="translate(1)"/><path class="cls-11" d="M265.07,37.1V23.5h1.65v5.33a4.25,4.25,0,0,1,1.45-1.39,3.86,3.86,0,0,1,1.93-.48,3.31,3.31,0,0,1,2.54,1,3.89,3.89,0,0,1,.92,2.77V37.1h-1.65v-6a4.9,4.9,0,0,0-.09-0.9,2.31,2.31,0,0,0-.32-0.83,1.8,1.8,0,0,0-.67-0.61,2.33,2.33,0,0,0-1.12-.24,3.17,3.17,0,0,0-1.18.22,2.7,2.7,0,0,0-.95.63,2.94,2.94,0,0,0-.63,1,3.36,3.36,0,0,0-.23,1.26V37.1h-1.65Z" transform="translate(1)"/><path class="cls-11" d="M276.15,32.19a6.2,6.2,0,0,1,.33-2.06,5,5,0,0,1,1-1.66,4.33,4.33,0,0,1,1.51-1.1,5.33,5.33,0,0,1,4,0,4.34,4.34,0,0,1,1.47,1,4.46,4.46,0,0,1,.93,1.52,5.43,5.43,0,0,1,.32,1.89c0,0.17,0,.31,0,0.44s0,0.24,0,.34h-7.68a3.87,3.87,0,0,0,.27,1.38,2.94,2.94,0,0,0,.68,1,2.82,2.82,0,0,0,1,.63,4.18,4.18,0,0,0,3-.15,3.2,3.2,0,0,0,1.27-1l1.22,1a5.35,5.35,0,0,1-.71.76,4.75,4.75,0,0,1-.93.64,5.18,5.18,0,0,1-1.17.44,6,6,0,0,1-1.44.16,5.46,5.46,0,0,1-2.13-.39,4.47,4.47,0,0,1-1.57-1.08,4.63,4.63,0,0,1-1-1.63A6.11,6.11,0,0,1,276.15,32.19Zm7.79-.91a3.33,3.33,0,0,0-.29-1.28,2.8,2.8,0,0,0-.67-0.9,2.63,2.63,0,0,0-.93-0.53A3.49,3.49,0,0,0,281,28.4a3.19,3.19,0,0,0-1.18.21,2.66,2.66,0,0,0-.92.6,2.94,2.94,0,0,0-.62.91,3.7,3.7,0,0,0-.29,1.15h6Z" transform="translate(1)"/><path class="cls-11" d="M298.78,28.81a2.54,2.54,0,0,0-.91-0.15,2.39,2.39,0,0,0-1.87.88,3.26,3.26,0,0,0-.56,1.06,4.65,4.65,0,0,0-.21,1.45v5h-1.65V27.19h1.65v1.71a3.78,3.78,0,0,1,1.21-1.37,2.87,2.87,0,0,1,1.66-.51,3.62,3.62,0,0,1,.58,0,1.25,1.25,0,0,1,.45.14Z" transform="translate(1)"/><path class="cls-11" d="M309.89,32.17a6,6,0,0,1-.34,2.07,4.81,4.81,0,0,1-1,1.63,4.42,4.42,0,0,1-1.53,1.08,5.44,5.44,0,0,1-4,0,4.42,4.42,0,0,1-1.53-1.08,4.69,4.69,0,0,1-1-1.63,6.17,6.17,0,0,1-.33-2.07,6.27,6.27,0,0,1,.33-2.08,4.77,4.77,0,0,1,1-1.65A4.37,4.37,0,0,1,303,27.36a5.44,5.44,0,0,1,4,0,4.37,4.37,0,0,1,1.53,1.09,4.9,4.9,0,0,1,1,1.65A6.1,6.1,0,0,1,309.89,32.17Zm-1.77,0a4.92,4.92,0,0,0-.21-1.46,3.6,3.6,0,0,0-.6-1.17,2.78,2.78,0,0,0-1-.78,3.18,3.18,0,0,0-2.64,0,2.78,2.78,0,0,0-1,.78,3.6,3.6,0,0,0-.6,1.17,5,5,0,0,0-.21,1.46,4.87,4.87,0,0,0,.21,1.45,3.62,3.62,0,0,0,.6,1.17,2.78,2.78,0,0,0,1,.78,3.18,3.18,0,0,0,2.64,0,2.78,2.78,0,0,0,1-.78,3.62,3.62,0,0,0,.6-1.17A4.83,4.83,0,0,0,308.13,32.18Z" transform="translate(1)"/><path class="cls-11" d="M315.34,37.35a4.67,4.67,0,0,1-1.44-.21,3.18,3.18,0,0,1-1.1-.6,2.73,2.73,0,0,1-.71-1,3.07,3.07,0,0,1-.26-1.29,2.58,2.58,0,0,1,.34-1.4A2.72,2.72,0,0,1,313,32a3.67,3.67,0,0,1,1.11-.47q0.6-.14,1.11-0.22l1.14-.13a5,5,0,0,0,1-.2,2,2,0,0,0,.73-0.4,1,1,0,0,0,.29-0.75,1.16,1.16,0,0,0-.63-1.08,3.23,3.23,0,0,0-1.6-.35,5.07,5.07,0,0,0-3.13,1l-0.76-1.26a7.3,7.3,0,0,1,1.82-.93,6.57,6.57,0,0,1,2.13-.32,6.17,6.17,0,0,1,1.54.18,3.19,3.19,0,0,1,1.21.58,2.77,2.77,0,0,1,.79,1,3.45,3.45,0,0,1,.29,1.47v4.69q0,1.07.72,1.07a0.92,0.92,0,0,0,.55-0.15l0.21,1.26a1.66,1.66,0,0,1-.51.15,3.74,3.74,0,0,1-.61.06,2,2,0,0,1-1.21-.38,1.63,1.63,0,0,1-.64-1.12,3.59,3.59,0,0,1-1.29,1.15A4.09,4.09,0,0,1,315.34,37.35Zm3.08-5.58a1.77,1.77,0,0,1-.56.37,4.06,4.06,0,0,1-.71.23,7.53,7.53,0,0,1-.79.13l-0.79.1a5.65,5.65,0,0,0-.81.16,2.16,2.16,0,0,0-.65.3,1.4,1.4,0,0,0-.44.49,1.5,1.5,0,0,0-.16.73,1.42,1.42,0,0,0,.6,1.29,2.6,2.6,0,0,0,1.45.39,3.66,3.66,0,0,0,1-.15,2.6,2.6,0,0,0,.91-0.48,2.41,2.41,0,0,0,.65-0.83,2.74,2.74,0,0,0,.25-1.21V31.77Z" transform="translate(1)"/><path class="cls-11" d="M331,37.1V35.48a4.08,4.08,0,0,1-1.61,1.43,4.48,4.48,0,0,1-1.91.42,4.25,4.25,0,0,1-3.33-1.5,4.81,4.81,0,0,1-.91-1.64,6.39,6.39,0,0,1-.31-2,6.46,6.46,0,0,1,.31-2,4.91,4.91,0,0,1,.91-1.65,4.29,4.29,0,0,1,1.43-1.1,4.61,4.61,0,0,1,3.82,0,4.19,4.19,0,0,1,1.6,1.44V23.5h1.65V37.1H331Zm0-5a4.75,4.75,0,0,0-.21-1.43,3.41,3.41,0,0,0-.62-1.16,2.92,2.92,0,0,0-1-.78,3.16,3.16,0,0,0-1.38-.29,3,3,0,0,0-1.36.29,2.78,2.78,0,0,0-1,.78,3.46,3.46,0,0,0-.59,1.16,5,5,0,0,0-.2,1.43,5.11,5.11,0,0,0,.19,1.41,3.44,3.44,0,0,0,.58,1.17,2.71,2.71,0,0,0,1,.79,3.09,3.09,0,0,0,1.37.29,3.16,3.16,0,0,0,1.38-.29,2.92,2.92,0,0,0,1-.78,3.4,3.4,0,0,0,.62-1.16A4.74,4.74,0,0,0,331,32.15Z" transform="translate(1)"/><path class="cls-11" d="M335.77,36.09a1.2,1.2,0,1,1,.35.85A1.16,1.16,0,0,1,335.77,36.09Zm1.63-2.82h-0.87l-0.59-9.77H338Z" transform="translate(1)"/></g></g></g></g></svg>