<?xml version="1.0" encoding="UTF-8" standalone="no"?>
<svg width="32px" height="21px" viewBox="0 0 32 21" version="1.1" xmlns="http://www.w3.org/2000/svg" xmlns:xlink="http://www.w3.org/1999/xlink">
    <!-- Generator: Sketch 41.1 (35376) - http://www.bohemiancoding.com/sketch -->
    <title>membership icon</title>
    <desc>Created with Sketch.</desc>
    <defs></defs>
    <g id="-" stroke="none" stroke-width="1" fill="none" fill-rule="evenodd">
        <g id="Memberships" transform="translate(-21.000000, -26.000000)" fill="#1666AF">
            <g id="membership-icon" transform="translate(21.000000, 25.000000)">
                <path d="M26.8486,6.7724 L20.0046,6.7724 C19.6956,6.7724 19.4446,7.0234 19.4446,7.3324 C19.4446,7.6414 19.6956,7.8924 20.0046,7.8924 L26.8486,7.8924 C27.1576,7.8924 27.4086,7.6414 27.4086,7.3324 C27.4086,7.0234 27.1576,6.7724 26.8486,6.7724" id="Fill-1"></path>
                <path d="M26.8486,10.0698 L20.0046,10.0698 C19.6956,10.0698 19.4446,10.3208 19.4446,10.6298 C19.4446,10.9388 19.6956,11.1898 20.0046,11.1898 L26.8486,11.1898 C27.1576,11.1898 27.4086,10.9388 27.4086,10.6298 C27.4086,10.3208 27.1576,10.0698 26.8486,10.0698" id="Fill-3"></path>
                <path d="M26.8486,13.3676 L20.0046,13.3676 C19.6956,13.3676 19.4446,13.6186 19.4446,13.9276 C19.4446,14.2366 19.6956,14.4876 20.0046,14.4876 L26.8486,14.4876 C27.1576,14.4876 27.4086,14.2366 27.4086,13.9276 C27.4086,13.6186 27.1576,13.3676 26.8486,13.3676" id="Fill-5"></path>
                <g id="Group-9" transform="translate(0.000000, 0.057100)">
                    <path d="M30.4521,17.5054 C30.4521,18.8804 29.3071,19.9994 27.9001,19.9994 L15.5391,19.9994 L15.5391,15.5614 C15.5391,13.7734 14.9151,11.7134 12.3101,10.9584 C13.1841,10.2624 13.7571,9.2024 13.7571,8.0004 C13.7571,5.9054 12.0541,4.2044 9.9591,4.2044 C7.8651,4.2044 6.1631,5.9054 6.1631,8.0004 C6.1631,9.2024 6.7351,10.2624 7.6091,10.9584 C5.0041,11.7144 4.3791,13.7734 4.3791,15.5614 L4.3791,19.9994 L3.5521,19.9994 C2.1441,19.9994 1.0001,18.8804 1.0001,17.5054 L1.0001,4.4384 C1.0001,3.0624 2.1441,1.9424 3.5521,1.9424 L27.9001,1.9424 C29.3071,1.9424 30.4521,3.0624 30.4521,4.4384 L30.4521,17.5054 Z M7.3121,8.1144 C7.8791,8.0654 8.7881,7.9144 9.6931,7.4624 C10.0471,7.2844 10.3311,7.1114 10.5821,6.9454 C11.4251,7.3114 12.2261,7.3724 12.5381,7.3784 C12.5861,7.5794 12.6181,7.7864 12.6181,8.0004 C12.6181,9.4664 11.4251,10.6574 9.9591,10.6574 C8.5331,10.6574 7.3741,9.5274 7.3121,8.1144 L7.3121,8.1144 Z M5.5191,19.9994 L5.5191,15.5614 C5.5191,13.0284 6.9721,11.7964 9.9591,11.7964 C12.9481,11.7964 14.4011,13.0284 14.4011,15.5614 L14.4011,19.9994 L5.5191,19.9994 Z M27.9001,0.9434 L3.5521,0.9434 C1.5931,0.9434 0.0001,2.5114 0.0001,4.4384 L0.0001,17.5054 C0.0001,19.4324 1.5931,20.9994 3.5521,20.9994 L4.3791,20.9994 L5.5191,21.0004 L5.5191,20.9994 L14.4011,20.9994 L14.4011,21.0004 L15.5391,20.9994 L27.9001,20.9994 C29.8591,20.9994 31.4521,19.4324 31.4521,17.5054 L31.4521,4.4384 C31.4521,2.5114 29.8591,0.9434 27.9001,0.9434 L27.9001,0.9434 Z" id="Fill-7"></path>
                </g>
            </g>
        </g>
    </g>
</svg>