<svg id="Layer_1" data-name="Layer 1" xmlns="http://www.w3.org/2000/svg" xmlns:xlink="http://www.w3.org/1999/xlink" viewBox="0 0 375 200"><defs><style>.cls-1{fill:#fff;}.cls-2{fill:#1967b0;}.cls-3{mask:url(#mask);}.cls-4{mask:url(#mask-2);}.cls-5,.cls-9{isolation:isolate;}.cls-6{fill:#1096d4;}.cls-7{mask:url(#mask-3);}.cls-8{mask:url(#mask-4-2);}.cls-9{fill:none;stroke:#d3d3d3;stroke-linecap:square;opacity:0.7;}.cls-10{mask:url(#mask-5);}</style><mask id="mask" x="35" y="159" width="30.24" height="13.74" maskUnits="userSpaceOnUse"><g id="mask-4"><polygon id="path-3" class="cls-1" points="65.24 172.74 65.24 159 35 159 35 172.74 65.24 172.74"/></g></mask><mask id="mask-2" x="76" y="152" width="19.07" height="23.44" maskUnits="userSpaceOnUse"><g id="mask-6"><polygon id="path-5" class="cls-1" points="76 175.44 95.07 175.44 95.07 152 76 152 76 175.44"/></g></mask><mask id="mask-3" x="174" y="145.12" width="27.1" height="26.06" maskUnits="userSpaceOnUse"><g id="mask-10"><polygon id="path-9" class="cls-1" points="187.55 171.18 201.1 171.18 201.1 145.12 187.55 145.12 174 145.12 174 171.18 187.55 171.18"/></g></mask><mask id="mask-4-2" x="175" y="49" width="26.89" height="26.89" maskUnits="userSpaceOnUse"><g id="mask-12"><polygon id="path-11" class="cls-1" points="175 49 175 75.89 201.9 75.89 201.9 49 175 49"/></g></mask><mask id="mask-5" x="295" y="148" width="31.89" height="19.95" maskUnits="userSpaceOnUse"><g id="mask-14"><polygon id="path-13" class="cls-1" points="295 148 295 167.95 326.89 167.95 326.89 148 295 148"/></g></mask></defs><title>memberGuesIcons</title><g id="Group"><g id="Page-1"><path id="Fill-1" class="cls-2" d="M50.47,161.4l-5.8-.07a0.24,0.24,0,0,0-.24.24v2.86a0.24,0.24,0,0,0,.23.24l5.8,0.11a0.24,0.24,0,0,0,.24-0.24v-2.9a0.24,0.24,0,0,0-.23-0.24"/><path id="Fill-3" class="cls-2" d="M43.44,161.32l-4.38-.05a0.24,0.24,0,0,0-.24.24v2.83a0.24,0.24,0,0,0,.23.24l4.38,0.08a0.24,0.24,0,0,0,.24-0.24v-2.86a0.24,0.24,0,0,0-.23-0.24"/><path id="Fill-5" class="cls-2" d="M53.81,161.62a10.51,10.51,0,0,0-2.11-.21,0.24,0.24,0,0,0-.25.2s0,3,0,3a0.24,0.24,0,0,0,.23.24l5.77,0.12a0.25,0.25,0,0,0,.2-0.41c-0.61-.74-2-2.5-3.84-2.89"/><g id="Group-9"><g class="cls-3"><path id="Fill-7" class="cls-2" d="M64,169.49a5.54,5.54,0,0,1-2.43.38,2.57,2.57,0,0,0-5.12.3H43.77a2.57,2.57,0,0,0-5.11-.45H37.81c-1.27,0-1.58-.16-1.66-0.41a1.62,1.62,0,0,1-.1-0.79,1,1,0,0,1,.19-0.17l0.22-.16v-1.69a0.54,0.54,0,1,0,0-1.06,10.12,10.12,0,0,1,.36-3.1c0.37-1.38,1.14-2.26,1.51-2.26l2.32,0c1.2,0,2.59,0,4,0,4.73,0,7.86.22,9.57,0.66a13.8,13.8,0,0,1,4.9,3.09l0.08,0.08,0.1,0,0.8,0.29a10.12,10.12,0,0,1,3.28,1.57,0.6,0.6,0,0,0-.52.5,0.72,0.72,0,0,0,.82.55h0.1a3.89,3.89,0,0,1,0,.58l0,0.32,0.27,0.16,0.12,0.08v0.18a2.16,2.16,0,0,1-.23,1.36h0Zm-5,2.22a1.54,1.54,0,1,1,1.54-1.54A1.54,1.54,0,0,1,59,171.71h0Zm-17.81,0a1.54,1.54,0,1,1,1.54-1.54,1.54,1.54,0,0,1-1.54,1.54h0Zm24-3.94a0.75,0.75,0,0,0-.37-0.62,3.38,3.38,0,0,0-.48-1.84c-0.69-.93-2.25-1.49-3.9-2.08L59.8,163a14.36,14.36,0,0,0-5.28-3.28c-1.82-.48-4.95-0.7-9.83-0.7-1.46,0-2.85,0-4.05,0l-2.31,0c-1.12,0-2.11,1.52-2.52,3a11.38,11.38,0,0,0-.4,3.5v2.1a1.41,1.41,0,0,0-.27.33,2.2,2.2,0,0,0,0,1.63c0.38,1.12,1.74,1.12,2.65,1.12h0.88a2.57,2.57,0,0,0,4.86.45h13.1a2.56,2.56,0,0,0,4.81-.29c2.82,0,3.23-.63,3.37-0.82a3.1,3.1,0,0,0,.42-2v-0.35Z"/></g></g></g><g id="Page-1-2" data-name="Page-1"><polygon id="Fill-1-2" data-name="Fill-1" class="cls-2" points="78.63 159.8 80.55 159.8 80.55 157.4 78.63 157.4 78.63 159.8"/><polygon id="Fill-2" class="cls-2" points="84.56 159.8 86.48 159.8 86.48 157.4 84.56 157.4 84.56 159.8"/><polygon id="Fill-3-2" data-name="Fill-3" class="cls-2" points="90.49 159.8 92.41 159.8 92.41 157.4 90.49 157.4 90.49 159.8"/><polygon id="Fill-4" class="cls-2" points="78.63 164.88 80.55 164.88 80.55 162.49 78.63 162.49 78.63 164.88"/><polygon id="Fill-5-2" data-name="Fill-5" class="cls-2" points="84.56 164.88 86.48 164.88 86.48 162.49 84.56 162.49 84.56 164.88"/><polygon id="Fill-6" class="cls-2" points="90.49 164.88 92.41 164.88 92.41 162.49 90.49 162.49 90.49 164.88"/><polygon id="Fill-7-2" data-name="Fill-7" class="cls-2" points="78.63 169.66 80.55 169.66 80.55 167.26 78.63 167.26 78.63 169.66"/><polygon id="Fill-8" class="cls-2" points="90.49 169.66 92.41 169.66 92.41 167.26 90.49 167.26 90.49 169.66"/><g id="Group-11"><g class="cls-4"><path id="Fill-9" class="cls-2" d="M86.05,173.54v-4.1a2.33,2.33,0,0,1,.82.27v3.83H86.05Zm-1.85,0v-3.83a2.2,2.2,0,0,1,.82-0.28v4.11H84.2Zm1.32-5.18a2.91,2.91,0,0,0-2.35.88v4.3H77.09V154.86h4.55l0.3-.48a4.4,4.4,0,0,1,3.45-1.29h0.27a4.42,4.42,0,0,1,3.46,1.29l0.31,0.48H94v18.68H87.9v-4.3a3,3,0,0,0-2.39-.88h0ZM90,153.77c-0.68-1-2.38-1.74-4.35-1.77H85.39c-2,0-3.68.73-4.35,1.77H76v20.85h7.14v0.81h4.79v-0.81h7.14V153.77H90Z"/></g></g></g><path id="Fill-8-2" data-name="Fill-8" class="cls-2" d="M69.91,164.21a0.58,0.58,0,0,0-.58.57v0.79H68.55a0.57,0.57,0,1,0,0,1.15h0.78v0.79a0.58,0.58,0,0,0,1.15,0v-0.79h0.8a0.57,0.57,0,1,0,0-1.15h-0.8v-0.79a0.58,0.58,0,0,0-.58-0.57"/></g><g id="Parking-Reminder" class="cls-5"><g class="cls-5"><path class="cls-6" d="M168.73,122.84V126h-1v-7.85h3a3.06,3.06,0,0,1,2.11.64,2.17,2.17,0,0,1,.71,1.69,2.54,2.54,0,0,1-.18,1,2,2,0,0,1-.53.75,2.49,2.49,0,0,1-.89.48,4,4,0,0,1-1.22.17h-1.95Zm1.95-.95a1.91,1.91,0,0,0,1.34-.39,1.35,1.35,0,0,0,.41-1,1.29,1.29,0,0,0-.41-1,2,2,0,0,0-1.34-.37h-1.95v2.81h1.95Z"/><path class="cls-6" d="M176.68,126.14a2.73,2.73,0,0,1-.84-0.12,1.85,1.85,0,0,1-.64-0.35,1.58,1.58,0,0,1-.41-0.55,1.77,1.77,0,0,1-.15-0.74,1.49,1.49,0,0,1,.2-0.81,1.58,1.58,0,0,1,.5-0.5,2.1,2.1,0,0,1,.64-0.27q0.35-.08.64-0.13l0.66-.08a2.87,2.87,0,0,0,.59-0.12,1.14,1.14,0,0,0,.42-0.23,0.56,0.56,0,0,0,.17-0.43,0.67,0.67,0,0,0-.36-0.62,1.87,1.87,0,0,0-.92-0.2,2.94,2.94,0,0,0-1.81.6l-0.44-.73a4.24,4.24,0,0,1,1.06-.54,3.8,3.8,0,0,1,1.23-.19,3.55,3.55,0,0,1,.89.1,1.84,1.84,0,0,1,.7.33,1.6,1.6,0,0,1,.46.58,2,2,0,0,1,.17.85v2.71q0,0.62.42,0.62a0.53,0.53,0,0,0,.32-0.09l0.12,0.73a1,1,0,0,1-.3.09l-0.35,0a1.16,1.16,0,0,1-.7-0.22,0.94,0.94,0,0,1-.37-0.65,2.09,2.09,0,0,1-.75.67A2.38,2.38,0,0,1,176.68,126.14Zm1.78-3.22a1,1,0,0,1-.32.21,2.41,2.41,0,0,1-.41.13l-0.46.08-0.46.06a3.26,3.26,0,0,0-.47.09,1.27,1.27,0,0,0-.37.17,0.81,0.81,0,0,0-.25.28,0.87,0.87,0,0,0-.09.42,0.82,0.82,0,0,0,.35.74,1.51,1.51,0,0,0,.84.23,2.12,2.12,0,0,0,.6-0.09,1.51,1.51,0,0,0,.53-0.28,1.38,1.38,0,0,0,.37-0.48,1.57,1.57,0,0,0,.14-0.7v-0.88Z"/><path class="cls-6" d="M184.67,121.21a1.48,1.48,0,0,0-.53-0.09,1.39,1.39,0,0,0-.6.13,1.38,1.38,0,0,0-.48.38,1.86,1.86,0,0,0-.32.61,2.69,2.69,0,0,0-.12.84V126h-1v-5.72h1v1a2.19,2.19,0,0,1,.7-0.79,1.67,1.67,0,0,1,1-.3l0.34,0a0.69,0.69,0,0,1,.26.08Z"/><path class="cls-6" d="M189.87,120.28h1.2l-2.23,2.34,2.53,3.38h-1.21l-2-2.74-1.06,1.11V126h-1v-7.85h1v5.09Z"/><path class="cls-6" d="M192.57,118.65a0.58,0.58,0,0,1,.17-0.42,0.56,0.56,0,0,1,.42-0.17,0.58,0.58,0,0,1,.59.59,0.56,0.56,0,0,1-.17.42,0.59,0.59,0,0,1-.42.17A0.56,0.56,0,0,1,192.57,118.65Zm0.11,7.35v-5.72h1V126h-1Z"/><path class="cls-6" d="M195.76,126v-5.72h1v0.95a2.48,2.48,0,0,1,.84-0.8,2.25,2.25,0,0,1,1.12-.27,1.92,1.92,0,0,1,1.47.57,2.24,2.24,0,0,1,.53,1.6V126h-1v-3.46a2.79,2.79,0,0,0,0-.52,1.34,1.34,0,0,0-.19-0.48,1,1,0,0,0-.39-0.35,1.35,1.35,0,0,0-.65-0.14,1.82,1.82,0,0,0-.68.13,1.57,1.57,0,0,0-.55.36,1.72,1.72,0,0,0-.36.57,1.92,1.92,0,0,0-.13.73V126h-1Z"/><path class="cls-6" d="M208,125.08a4.7,4.7,0,0,1-.13,1.15,2.21,2.21,0,0,1-.46.91,1.9,1.9,0,0,1-.48.42,3.06,3.06,0,0,1-.58.28,3.18,3.18,0,0,1-.64.15,5.41,5.41,0,0,1-.68,0,4,4,0,0,1-2.33-.68l0.48-.78a3.06,3.06,0,0,0,1.86.59,2.87,2.87,0,0,0,.79-0.1,1.72,1.72,0,0,0,.63-0.33,1.54,1.54,0,0,0,.42-0.58,2.18,2.18,0,0,0,.15-0.86v-0.59a2.54,2.54,0,0,1-.84.79,2.36,2.36,0,0,1-1.23.31,2.53,2.53,0,0,1-1.07-.22,2.46,2.46,0,0,1-.83-0.6,2.73,2.73,0,0,1-.53-0.89,3.24,3.24,0,0,1,0-2.18,2.72,2.72,0,0,1,.54-0.9,2.61,2.61,0,0,1,.84-0.61,2.53,2.53,0,0,1,1.08-.22,2.68,2.68,0,0,1,1.13.25,2.08,2.08,0,0,1,.89.8v-0.91h1v4.8Zm-1-2.12a2.22,2.22,0,0,0-.12-0.73,1.85,1.85,0,0,0-.35-0.62,1.71,1.71,0,0,0-.58-0.42,1.9,1.9,0,0,0-.81-0.16,1.82,1.82,0,0,0-.8.16,1.64,1.64,0,0,0-.56.43,1.79,1.79,0,0,0-.33.62,2.44,2.44,0,0,0-.11.73,2.48,2.48,0,0,0,.11.74,1.79,1.79,0,0,0,.33.62,1.7,1.7,0,0,0,.57.44,1.79,1.79,0,0,0,.79.17,1.89,1.89,0,0,0,.8-0.16,1.68,1.68,0,0,0,.58-0.44,1.92,1.92,0,0,0,.36-0.63A2.3,2.3,0,0,0,207.05,123Z"/></g><g class="cls-5"><path class="cls-6" d="M166.93,139L165,135.8h-1.92V139h-1v-7.85h3.24a3.51,3.51,0,0,1,1.12.16,2.49,2.49,0,0,1,.84.46,1.94,1.94,0,0,1,.53.71,2.29,2.29,0,0,1,.18.92,2.13,2.13,0,0,1-.5,1.44,2.64,2.64,0,0,1-1.37.81l2,3.33h-1.17Zm0-5.55a1.27,1.27,0,0,0-.41-1,1.75,1.75,0,0,0-1.22-.38h-2.19v2.79h2.06a2,2,0,0,0,1.29-.39A1.29,1.29,0,0,0,166.93,133.45Z"/><path class="cls-6" d="M169.29,136.16a3.57,3.57,0,0,1,.19-1.19,2.88,2.88,0,0,1,.55-1,2.52,2.52,0,0,1,.87-0.64,3.1,3.1,0,0,1,2.3,0,2.53,2.53,0,0,1,.85.59,2.58,2.58,0,0,1,.54.88,3.12,3.12,0,0,1,.19,1.09c0,0.1,0,.18,0,0.25l0,0.2h-4.44a2.23,2.23,0,0,0,.15.8,1.7,1.7,0,0,0,.4.59,1.65,1.65,0,0,0,.6.36,2.43,2.43,0,0,0,1.74-.09,1.86,1.86,0,0,0,.74-0.61l0.7,0.55a3.1,3.1,0,0,1-.41.44,2.69,2.69,0,0,1-.54.37,3,3,0,0,1-.68.25,3.44,3.44,0,0,1-.84.09,3.17,3.17,0,0,1-1.23-.23,2.58,2.58,0,0,1-.91-0.62,2.67,2.67,0,0,1-.56-0.94A3.53,3.53,0,0,1,169.29,136.16Zm4.51-.53a1.91,1.91,0,0,0-.17-0.74,1.62,1.62,0,0,0-.38-0.52,1.52,1.52,0,0,0-.54-0.31,2,2,0,0,0-.63-0.1,1.86,1.86,0,0,0-.68.12,1.55,1.55,0,0,0-.53.35,1.69,1.69,0,0,0-.36.53,2.13,2.13,0,0,0-.17.67h3.46Z"/><path class="cls-6" d="M176.46,133.28h1v0.92a2.64,2.64,0,0,1,.79-0.79,2,2,0,0,1,1-.27,1.88,1.88,0,0,1,1.08.3,1.66,1.66,0,0,1,.64.86,2.74,2.74,0,0,1,.85-0.85,2.16,2.16,0,0,1,1.17-.31,1.8,1.8,0,0,1,1.4.56,2.23,2.23,0,0,1,.51,1.56V139h-1v-3.5a3.12,3.12,0,0,0,0-.52,1.22,1.22,0,0,0-.18-0.46,1,1,0,0,0-.36-0.34,1.19,1.19,0,0,0-.59-0.13,1.51,1.51,0,0,0-1.16.48,1.79,1.79,0,0,0-.45,1.27V139h-1v-3.5a3.17,3.17,0,0,0,0-.52,1.23,1.23,0,0,0-.18-0.46,1,1,0,0,0-.36-0.34A1.22,1.22,0,0,0,179,134a1.63,1.63,0,0,0-.65.13,1.45,1.45,0,0,0-.51.35,1.57,1.57,0,0,0-.32.55,2.14,2.14,0,0,0-.12.72V139h-1v-5.72Z"/><path class="cls-6" d="M186.87,131.65a0.59,0.59,0,0,1,.17-0.42,0.56,0.56,0,0,1,.42-0.17,0.58,0.58,0,0,1,.59.59,0.56,0.56,0,0,1-.17.42,0.59,0.59,0,0,1-.42.17A0.56,0.56,0,0,1,186.87,131.65ZM187,139v-5.72h1V139h-1Z"/><path class="cls-6" d="M190.06,139v-5.72h1v0.95a2.46,2.46,0,0,1,.84-0.8,2.25,2.25,0,0,1,1.12-.27,1.92,1.92,0,0,1,1.47.57,2.24,2.24,0,0,1,.53,1.6V139h-1v-3.46a2.8,2.8,0,0,0,0-.52,1.34,1.34,0,0,0-.19-0.48,1,1,0,0,0-.39-0.35,1.35,1.35,0,0,0-.65-0.14,1.82,1.82,0,0,0-.68.13,1.56,1.56,0,0,0-.55.36,1.7,1.7,0,0,0-.36.57,1.94,1.94,0,0,0-.13.73V139h-1Z"/><path class="cls-6" d="M201.36,139v-0.93a2.36,2.36,0,0,1-.93.82,2.6,2.6,0,0,1-1.11.24,2.46,2.46,0,0,1-1.93-.86,2.78,2.78,0,0,1-.53-0.95,3.67,3.67,0,0,1-.18-1.17,3.71,3.71,0,0,1,.18-1.18,2.84,2.84,0,0,1,.53-1,2.44,2.44,0,0,1,1.93-.87,2.54,2.54,0,0,1,1.11.25,2.42,2.42,0,0,1,.92.83v-3.08h1V139h-1Zm0-2.86a2.72,2.72,0,0,0-.12-0.82,2,2,0,0,0-.36-0.67,1.67,1.67,0,0,0-.58-0.45,1.83,1.83,0,0,0-.8-0.17,1.76,1.76,0,0,0-.79.17,1.59,1.59,0,0,0-.56.45,2,2,0,0,0-.34.67,2.88,2.88,0,0,0-.12.82,3,3,0,0,0,.11.81,2,2,0,0,0,.33.68,1.58,1.58,0,0,0,.57.46,1.79,1.79,0,0,0,.79.17,1.83,1.83,0,0,0,.8-0.17,1.67,1.67,0,0,0,.58-0.45,2,2,0,0,0,.36-0.67A2.72,2.72,0,0,0,201.36,136.14Z"/><path class="cls-6" d="M204.06,136.16a3.59,3.59,0,0,1,.19-1.19,2.87,2.87,0,0,1,.55-1,2.52,2.52,0,0,1,.88-0.64,3.1,3.1,0,0,1,2.3,0,2.5,2.5,0,0,1,1.39,1.47,3.11,3.11,0,0,1,.19,1.09c0,0.1,0,.18,0,0.25l0,0.2h-4.44a2.23,2.23,0,0,0,.15.8,1.7,1.7,0,0,0,.4.59,1.63,1.63,0,0,0,.6.36A2.43,2.43,0,0,0,208,138a1.86,1.86,0,0,0,.74-0.61l0.7,0.55a3.1,3.1,0,0,1-.41.44,2.69,2.69,0,0,1-.54.37,3,3,0,0,1-.68.25,3.44,3.44,0,0,1-.84.09,3.16,3.16,0,0,1-1.23-.23,2.59,2.59,0,0,1-.91-0.62,2.67,2.67,0,0,1-.56-0.94A3.54,3.54,0,0,1,204.06,136.16Zm4.51-.53a1.91,1.91,0,0,0-.17-0.74,1.62,1.62,0,0,0-.39-0.52,1.51,1.51,0,0,0-.54-0.31,2,2,0,0,0-.63-0.1,1.86,1.86,0,0,0-.68.12,1.55,1.55,0,0,0-.53.35,1.69,1.69,0,0,0-.36.53,2.12,2.12,0,0,0-.17.67h3.46Z"/><path class="cls-6" d="M214.24,134.21a1.47,1.47,0,0,0-.53-0.09,1.38,1.38,0,0,0-1.08.51,1.88,1.88,0,0,0-.32.61,2.67,2.67,0,0,0-.12.84V139h-1v-5.72h1v1a2.2,2.2,0,0,1,.7-0.79,1.68,1.68,0,0,1,1-.3l0.34,0a0.69,0.69,0,0,1,.26.08Z"/></g></g><g id="Memberships" class="cls-5"><g class="cls-5"><path class="cls-6" d="M36,37V30.43L33.52,37H32.68l-2.52-6.58V37h-1V29.15h1.52l2.42,6.43,2.45-6.43H37V37H36Z"/><path class="cls-6" d="M38.8,34.16A3.59,3.59,0,0,1,39,33a2.88,2.88,0,0,1,.55-1,2.52,2.52,0,0,1,.88-0.64,3.1,3.1,0,0,1,2.3,0,2.54,2.54,0,0,1,.85.59,2.58,2.58,0,0,1,.54.88,3.13,3.13,0,0,1,.19,1.09c0,0.1,0,.18,0,0.25s0,0.14,0,.2H39.83a2.23,2.23,0,0,0,.15.8,1.7,1.7,0,0,0,.4.59,1.64,1.64,0,0,0,.6.36A2.43,2.43,0,0,0,42.72,36a1.86,1.86,0,0,0,.74-0.61L44.16,36a3.1,3.1,0,0,1-.41.44,2.66,2.66,0,0,1-.54.37,3,3,0,0,1-.68.25,3.45,3.45,0,0,1-.84.09,3.17,3.17,0,0,1-1.23-.23,2.58,2.58,0,0,1-.91-0.62A2.67,2.67,0,0,1,39,35.34,3.54,3.54,0,0,1,38.8,34.16Zm4.51-.53a1.91,1.91,0,0,0-.17-0.74,1.63,1.63,0,0,0-.38-0.52,1.53,1.53,0,0,0-.54-0.31,2,2,0,0,0-.63-0.1,1.86,1.86,0,0,0-.68.12,1.54,1.54,0,0,0-.53.35A1.69,1.69,0,0,0,40,33a2.15,2.15,0,0,0-.17.67h3.46Z"/><path class="cls-6" d="M45.89,31.28h1V32.2a2.65,2.65,0,0,1,.79-0.79,2,2,0,0,1,1-.27,1.88,1.88,0,0,1,1.08.3,1.67,1.67,0,0,1,.64.86,2.73,2.73,0,0,1,.85-0.85,2.16,2.16,0,0,1,1.17-.31,1.8,1.8,0,0,1,1.4.56,2.23,2.23,0,0,1,.51,1.56V37h-1V33.5a3.12,3.12,0,0,0,0-.52,1.22,1.22,0,0,0-.18-0.46,1,1,0,0,0-.36-0.34A1.19,1.19,0,0,0,52.19,32a1.51,1.51,0,0,0-1.16.48,1.79,1.79,0,0,0-.45,1.27V37h-1V33.5a3.12,3.12,0,0,0,0-.52,1.22,1.22,0,0,0-.18-0.46A1,1,0,0,0,49,32.18a1.21,1.21,0,0,0-.6-0.13,1.63,1.63,0,0,0-.65.13,1.45,1.45,0,0,0-.51.35,1.56,1.56,0,0,0-.32.55,2.14,2.14,0,0,0-.12.72V37h-1V31.28Z"/><path class="cls-6" d="M57.28,29.15v3.07a2.37,2.37,0,0,1,.93-0.83,2.6,2.6,0,0,1,1.11-.24,2.48,2.48,0,0,1,1.93.86,2.78,2.78,0,0,1,.53.95A3.68,3.68,0,0,1,62,34.13a3.77,3.77,0,0,1-.18,1.19,2.77,2.77,0,0,1-.53,1,2.6,2.6,0,0,1-3,.62,2.42,2.42,0,0,1-.92-0.83V37h-1V29.15h1Zm0,5a2.72,2.72,0,0,0,.12.83,1.94,1.94,0,0,0,.36.67,1.67,1.67,0,0,0,.58.45,1.82,1.82,0,0,0,.8.17,1.76,1.76,0,0,0,.79-0.17,1.6,1.6,0,0,0,.56-0.45A2,2,0,0,0,60.83,35a2.85,2.85,0,0,0,.12-0.83,3,3,0,0,0-.11-0.81,2,2,0,0,0-.33-0.68,1.56,1.56,0,0,0-.57-0.46A1.79,1.79,0,0,0,59.14,32a1.82,1.82,0,0,0-.8.17,1.67,1.67,0,0,0-.58.45,2,2,0,0,0-.36.67A2.72,2.72,0,0,0,57.28,34.14Z"/><path class="cls-6" d="M63.22,34.16A3.56,3.56,0,0,1,63.42,33,2.88,2.88,0,0,1,64,32a2.52,2.52,0,0,1,.88-0.64,3.1,3.1,0,0,1,2.3,0,2.5,2.5,0,0,1,1.39,1.47,3.11,3.11,0,0,1,.19,1.09c0,0.1,0,.18,0,0.25l0,0.2H64.25a2.23,2.23,0,0,0,.15.8,1.7,1.7,0,0,0,.4.59,1.63,1.63,0,0,0,.6.36A2.43,2.43,0,0,0,67.14,36a1.86,1.86,0,0,0,.74-0.61L68.58,36a3.1,3.1,0,0,1-.41.44,2.69,2.69,0,0,1-.54.37A3,3,0,0,1,67,37a3.44,3.44,0,0,1-.84.09,3.16,3.16,0,0,1-1.23-.23A2.59,2.59,0,0,1,64,36.29a2.69,2.69,0,0,1-.56-0.94A3.51,3.51,0,0,1,63.22,34.16Zm4.51-.53a1.91,1.91,0,0,0-.17-0.74,1.62,1.62,0,0,0-.39-0.52,1.51,1.51,0,0,0-.54-0.31A2,2,0,0,0,66,32a1.86,1.86,0,0,0-.68.12,1.55,1.55,0,0,0-.53.35,1.69,1.69,0,0,0-.36.53,2.12,2.12,0,0,0-.17.67h3.46Z"/><path class="cls-6" d="M73.32,32.21a1.47,1.47,0,0,0-.53-0.09,1.38,1.38,0,0,0-1.08.51,1.88,1.88,0,0,0-.32.61,2.67,2.67,0,0,0-.12.84V37h-1V31.28h1v1a2.2,2.2,0,0,1,.7-0.79,1.68,1.68,0,0,1,1-.3l0.34,0a0.69,0.69,0,0,1,.26.08Z"/><path class="cls-6" d="M79,35.27a1.67,1.67,0,0,1-.64,1.34,2.27,2.27,0,0,1-.73.38,3.4,3.4,0,0,1-2.42-.19,3,3,0,0,1-1-.83l0.69-.56a2.06,2.06,0,0,0,1.81.89,1.63,1.63,0,0,0,1-.25A0.79,0.79,0,0,0,78,35.41,0.62,0.62,0,0,0,77.91,35a0.89,0.89,0,0,0-.35-0.24A2.82,2.82,0,0,0,77,34.6l-0.61-.12a6.33,6.33,0,0,1-.72-0.19A2.26,2.26,0,0,1,75.1,34a1.48,1.48,0,0,1-.43-0.47,1.31,1.31,0,0,1-.16-0.67,1.58,1.58,0,0,1,.15-0.69,1.51,1.51,0,0,1,.42-0.53,2,2,0,0,1,.65-0.35,3,3,0,0,1,2.2.18,3.11,3.11,0,0,1,.93.77l-0.67.53A1.9,1.9,0,0,0,76.54,32a1.4,1.4,0,0,0-.84.21,0.67,0.67,0,0,0-.28.56,0.6,0.6,0,0,0,.09.35,0.73,0.73,0,0,0,.27.23,1.81,1.81,0,0,0,.42.15l0.54,0.13c0.29,0.06.57,0.13,0.84,0.2a2.91,2.91,0,0,1,.71.29,1.5,1.5,0,0,1,.5.46A1.28,1.28,0,0,1,79,35.27Z"/><path class="cls-6" d="M80.62,37V29.15h1v3.08a2.47,2.47,0,0,1,.84-0.8,2.25,2.25,0,0,1,1.12-.27,1.92,1.92,0,0,1,1.47.57,2.24,2.24,0,0,1,.53,1.6V37h-1V33.54a2.8,2.8,0,0,0,0-.52,1.32,1.32,0,0,0-.19-0.48A1,1,0,0,0,84,32.19,1.35,1.35,0,0,0,83.31,32a1.82,1.82,0,0,0-.68.13,1.56,1.56,0,0,0-.55.36,1.7,1.7,0,0,0-.36.57,1.94,1.94,0,0,0-.13.73V37h-1Z"/><path class="cls-6" d="M87.43,29.65a0.59,0.59,0,0,1,.17-0.42A0.56,0.56,0,0,1,88,29.06a0.58,0.58,0,0,1,.59.59,0.56,0.56,0,0,1-.17.42,0.59,0.59,0,0,1-.42.17A0.56,0.56,0,0,1,87.43,29.65ZM87.54,37V31.28h1V37h-1Z"/><path class="cls-6" d="M91.49,31.28v0.93a2.37,2.37,0,0,1,.93-0.83,2.6,2.6,0,0,1,1.11-.24,2.48,2.48,0,0,1,1.93.86A2.77,2.77,0,0,1,96,33a3.68,3.68,0,0,1,.18,1.17A3.77,3.77,0,0,1,96,35.32a2.76,2.76,0,0,1-.53,1,2.51,2.51,0,0,1-.84.63,2.67,2.67,0,0,1-2.21,0,2.42,2.42,0,0,1-.92-0.83v2.86h-1V31.28h1Zm0,2.86a2.72,2.72,0,0,0,.12.83,2,2,0,0,0,.36.67,1.68,1.68,0,0,0,.58.45,1.83,1.83,0,0,0,.8.17,1.76,1.76,0,0,0,.79-0.17,1.61,1.61,0,0,0,.56-0.45A2,2,0,0,0,95,35a2.85,2.85,0,0,0,.12-0.83A3,3,0,0,0,95,33.33a2,2,0,0,0-.33-0.68,1.57,1.57,0,0,0-.57-0.46A1.79,1.79,0,0,0,93.35,32a1.83,1.83,0,0,0-.8.17,1.68,1.68,0,0,0-.58.45,2,2,0,0,0-.36.67A2.72,2.72,0,0,0,91.49,34.14Z"/><path class="cls-6" d="M102.06,35.27a1.67,1.67,0,0,1-.64,1.34,2.27,2.27,0,0,1-.73.38,3.4,3.4,0,0,1-2.42-.19,3,3,0,0,1-1-.83L98,35.42a2.06,2.06,0,0,0,1.81.89,1.63,1.63,0,0,0,1-.25,0.79,0.79,0,0,0,.32-0.65A0.62,0.62,0,0,0,101,35a0.89,0.89,0,0,0-.35-0.24,2.82,2.82,0,0,0-.51-0.14l-0.61-.12a6.33,6.33,0,0,1-.72-0.19A2.26,2.26,0,0,1,98.17,34a1.48,1.48,0,0,1-.43-0.47,1.31,1.31,0,0,1-.16-0.67,1.58,1.58,0,0,1,.15-0.69,1.51,1.51,0,0,1,.42-0.53,2,2,0,0,1,.65-0.35,3,3,0,0,1,2.2.18,3.11,3.11,0,0,1,.93.77l-0.67.53A1.9,1.9,0,0,0,99.62,32a1.4,1.4,0,0,0-.84.21,0.67,0.67,0,0,0-.28.56,0.6,0.6,0,0,0,.09.35,0.73,0.73,0,0,0,.27.23,1.81,1.81,0,0,0,.42.15l0.54,0.13c0.29,0.06.57,0.13,0.84,0.2a2.91,2.91,0,0,1,.71.29,1.5,1.5,0,0,1,.5.46A1.28,1.28,0,0,1,102.06,35.27Z"/></g></g><g id="Discounts" class="cls-5"><g class="cls-5"><path class="cls-6" d="M162.1,36V28.15h3a4,4,0,0,1,1.58.3,3.27,3.27,0,0,1,1.17.82,3.61,3.61,0,0,1,.72,1.25,5,5,0,0,1,0,3.12,3.61,3.61,0,0,1-.72,1.24,3.27,3.27,0,0,1-1.17.83,4,4,0,0,1-1.58.3h-3Zm3-.95a2.82,2.82,0,0,0,1.13-.21,2.24,2.24,0,0,0,.83-0.6,2.62,2.62,0,0,0,.5-0.94,4.49,4.49,0,0,0,0-2.45,2.62,2.62,0,0,0-.5-0.94,2.24,2.24,0,0,0-.83-0.6,2.82,2.82,0,0,0-1.13-.22h-1.94v6h1.94Z"/><path class="cls-6" d="M170.36,28.65a0.59,0.59,0,0,1,.17-0.42,0.56,0.56,0,0,1,.42-0.17,0.58,0.58,0,0,1,.59.59,0.56,0.56,0,0,1-.17.42,0.59,0.59,0,0,1-.42.17A0.56,0.56,0,0,1,170.36,28.65ZM170.47,36V30.28h1V36h-1Z"/><path class="cls-6" d="M177.71,34.27a1.67,1.67,0,0,1-.64,1.34,2.26,2.26,0,0,1-.73.38,3.4,3.4,0,0,1-2.42-.19,3,3,0,0,1-1-.83l0.69-.56a2.06,2.06,0,0,0,1.81.89,1.63,1.63,0,0,0,1-.25,0.79,0.79,0,0,0,.32-0.65,0.62,0.62,0,0,0-.13-0.42,0.88,0.88,0,0,0-.35-0.24,2.79,2.79,0,0,0-.51-0.14l-0.61-.12a6.33,6.33,0,0,1-.72-0.19,2.27,2.27,0,0,1-.62-0.31,1.48,1.48,0,0,1-.43-0.47,1.31,1.31,0,0,1-.16-0.67,1.59,1.59,0,0,1,.15-0.69,1.52,1.52,0,0,1,.42-0.53,2,2,0,0,1,.65-0.35,3,3,0,0,1,2.2.18,3.12,3.12,0,0,1,.94.77l-0.67.53a1.9,1.9,0,0,0-1.65-.78,1.41,1.41,0,0,0-.84.21,0.67,0.67,0,0,0-.28.56,0.61,0.61,0,0,0,.09.35,0.73,0.73,0,0,0,.27.23,1.81,1.81,0,0,0,.42.15l0.54,0.13c0.29,0.06.57,0.13,0.84,0.2a2.89,2.89,0,0,1,.71.29,1.49,1.49,0,0,1,.5.46A1.27,1.27,0,0,1,177.71,34.27Z"/><path class="cls-6" d="M181.71,30.15a2.59,2.59,0,0,1,1.35.33,2.79,2.79,0,0,1,.89.82l-0.68.54a1.86,1.86,0,0,0-.63-0.62,1.75,1.75,0,0,0-.88-0.21,1.7,1.7,0,0,0-.75.16,1.65,1.65,0,0,0-.56.44,2,2,0,0,0-.36.67,2.94,2.94,0,0,0,0,1.71,2,2,0,0,0,.36.67,1.62,1.62,0,0,0,.57.44,1.73,1.73,0,0,0,.75.16,1.68,1.68,0,0,0,.95-0.25,2.23,2.23,0,0,0,.63-0.6L184,34.94a3.21,3.21,0,0,1-1,.85,2.62,2.62,0,0,1-1.36.33,2.79,2.79,0,0,1-1.14-.23,2.55,2.55,0,0,1-.87-0.63,2.76,2.76,0,0,1-.56-1,3.57,3.57,0,0,1-.19-1.19,3.48,3.48,0,0,1,.2-1.19,2.88,2.88,0,0,1,.56-1,2.5,2.5,0,0,1,.86-0.63A2.77,2.77,0,0,1,181.71,30.15Z"/><path class="cls-6" d="M190.69,33.15a3.47,3.47,0,0,1-.2,1.19,2.78,2.78,0,0,1-.56.94,2.56,2.56,0,0,1-.88.62,3.16,3.16,0,0,1-2.34,0,2.56,2.56,0,0,1-.89-0.62,2.71,2.71,0,0,1-.56-0.94,3.56,3.56,0,0,1-.19-1.19,3.6,3.6,0,0,1,.19-1.2,2.75,2.75,0,0,1,.56-1,2.51,2.51,0,0,1,.89-0.63,3.17,3.17,0,0,1,2.34,0,2.51,2.51,0,0,1,.88.63,2.82,2.82,0,0,1,.56,1A3.52,3.52,0,0,1,190.69,33.15Zm-1,0a2.84,2.84,0,0,0-.12-0.84,2.09,2.09,0,0,0-.35-0.68,1.61,1.61,0,0,0-.56-0.45,1.84,1.84,0,0,0-1.53,0,1.6,1.6,0,0,0-.56.45,2.08,2.08,0,0,0-.35.68,2.85,2.85,0,0,0-.12.84,2.8,2.8,0,0,0,.12.84,2.08,2.08,0,0,0,.35.67,1.6,1.6,0,0,0,.56.45,1.85,1.85,0,0,0,1.53,0,1.61,1.61,0,0,0,.56-0.45,2.09,2.09,0,0,0,.35-0.67A2.78,2.78,0,0,0,189.67,33.16Z"/><path class="cls-6" d="M197.22,30.28V36h-1V35.07a2.64,2.64,0,0,1-.85.79,2.22,2.22,0,0,1-1.11.27,1.92,1.92,0,0,1-1.47-.57,2.23,2.23,0,0,1-.53-1.59v-3.7h1v3.48a2.8,2.8,0,0,0,0,.52,1.34,1.34,0,0,0,.19.48,1.07,1.07,0,0,0,.38.35,1.32,1.32,0,0,0,.64.14,1.85,1.85,0,0,0,.69-0.13,1.56,1.56,0,0,0,.55-0.36,1.7,1.7,0,0,0,.36-0.57,1.94,1.94,0,0,0,.13-0.73V30.28h1Z"/><path class="cls-6" d="M199.26,36V30.28h1v0.95a2.47,2.47,0,0,1,.84-0.8,2.25,2.25,0,0,1,1.12-.27,1.92,1.92,0,0,1,1.47.57,2.24,2.24,0,0,1,.53,1.6V36h-1V32.54a2.8,2.8,0,0,0,0-.52,1.32,1.32,0,0,0-.19-0.48,1,1,0,0,0-.39-0.35,1.35,1.35,0,0,0-.65-0.14,1.82,1.82,0,0,0-.68.13,1.56,1.56,0,0,0-.55.36,1.7,1.7,0,0,0-.36.57,1.94,1.94,0,0,0-.13.73V36h-1Z"/><path class="cls-6" d="M209.55,35.74a1.93,1.93,0,0,1-1.25.39,2,2,0,0,1-.82-0.17,1.43,1.43,0,0,1-.62-0.56,1.41,1.41,0,0,1-.19-0.47,3.26,3.26,0,0,1-.05-0.67V31.09h-1.06v-0.7a3,3,0,0,0,.52-0.1,0.85,0.85,0,0,0,.39-0.24,1.12,1.12,0,0,0,.24-0.48,4,4,0,0,0,.1-0.83h0.76v1.54h1.8v0.81h-1.8v3.2a0.82,0.82,0,0,0,.85,1,1.36,1.36,0,0,0,.46-0.07,1.27,1.27,0,0,0,.36-0.19Z"/><path class="cls-6" d="M215.13,34.27a1.67,1.67,0,0,1-.64,1.34,2.27,2.27,0,0,1-.73.38,3.4,3.4,0,0,1-2.42-.19,3,3,0,0,1-1-.83l0.69-.56a2.06,2.06,0,0,0,1.81.89,1.63,1.63,0,0,0,1-.25,0.79,0.79,0,0,0,.32-0.65,0.62,0.62,0,0,0-.13-0.42,0.89,0.89,0,0,0-.35-0.24,2.82,2.82,0,0,0-.51-0.14l-0.61-.12a6.33,6.33,0,0,1-.72-0.19,2.26,2.26,0,0,1-.62-0.31,1.48,1.48,0,0,1-.43-0.47,1.31,1.31,0,0,1-.16-0.67,1.58,1.58,0,0,1,.15-0.69,1.51,1.51,0,0,1,.42-0.53,2,2,0,0,1,.65-0.35,3,3,0,0,1,2.2.18,3.11,3.11,0,0,1,.93.77l-0.67.53a1.9,1.9,0,0,0-1.65-.78,1.4,1.4,0,0,0-.84.21,0.67,0.67,0,0,0-.28.56,0.6,0.6,0,0,0,.09.35,0.73,0.73,0,0,0,.27.23,1.81,1.81,0,0,0,.42.15l0.54,0.13c0.29,0.06.57,0.13,0.84,0.2a2.91,2.91,0,0,1,.71.29,1.5,1.5,0,0,1,.5.46A1.28,1.28,0,0,1,215.13,34.27Z"/></g></g><g id="Vehicle-Health" class="cls-5"><g class="cls-5"><path class="cls-6" d="M298.22,26.15L295.4,34h-1.09l-2.83-7.85h1.11l2.25,6.63,2.3-6.63h1.07Z"/><path class="cls-6" d="M298.67,31.16a3.56,3.56,0,0,1,.19-1.19,2.88,2.88,0,0,1,.55-1,2.53,2.53,0,0,1,.87-0.64,3.1,3.1,0,0,1,2.3,0,2.54,2.54,0,0,1,.85.59,2.58,2.58,0,0,1,.54.88,3.13,3.13,0,0,1,.19,1.09c0,0.1,0,.18,0,0.25l0,0.2h-4.44a2.23,2.23,0,0,0,.15.8,1.7,1.7,0,0,0,.4.59,1.63,1.63,0,0,0,.6.36,2.43,2.43,0,0,0,1.74-.09,1.87,1.87,0,0,0,.74-0.61L304,33a3,3,0,0,1-.41.44,2.72,2.72,0,0,1-.54.37,3,3,0,0,1-.68.25,3.45,3.45,0,0,1-.84.09,3.17,3.17,0,0,1-1.23-.23,2.59,2.59,0,0,1-.91-0.62,2.69,2.69,0,0,1-.56-0.94A3.51,3.51,0,0,1,298.67,31.16Zm4.51-.53A1.9,1.9,0,0,0,303,29.9a1.6,1.6,0,0,0-.38-0.52,1.52,1.52,0,0,0-.54-0.31,2,2,0,0,0-.63-0.1,1.86,1.86,0,0,0-.68.12,1.55,1.55,0,0,0-.53.35,1.69,1.69,0,0,0-.36.53,2.15,2.15,0,0,0-.17.67h3.46Z"/><path class="cls-6" d="M305.75,34V26.15h1v3.08a2.47,2.47,0,0,1,.84-0.8,2.25,2.25,0,0,1,1.12-.27,1.92,1.92,0,0,1,1.47.57,2.24,2.24,0,0,1,.53,1.6V34h-1V30.54a2.79,2.79,0,0,0,0-.52,1.34,1.34,0,0,0-.19-0.48,1,1,0,0,0-.39-0.35,1.35,1.35,0,0,0-.65-0.14,1.82,1.82,0,0,0-.68.13,1.57,1.57,0,0,0-.55.36,1.7,1.7,0,0,0-.36.57,1.94,1.94,0,0,0-.13.73V34h-1Z"/><path class="cls-6" d="M312.56,26.65a0.59,0.59,0,0,1,.16-0.42,0.56,0.56,0,0,1,.42-0.17,0.58,0.58,0,0,1,.59.59,0.56,0.56,0,0,1-.17.42,0.59,0.59,0,0,1-.42.17A0.56,0.56,0,0,1,312.56,26.65ZM312.67,34V28.28h1V34h-1Z"/><path class="cls-6" d="M318,28.15a2.59,2.59,0,0,1,1.35.33,2.79,2.79,0,0,1,.89.82l-0.68.54a1.87,1.87,0,0,0-.63-0.62,1.75,1.75,0,0,0-.88-0.21,1.69,1.69,0,0,0-.75.16,1.64,1.64,0,0,0-.56.44,2,2,0,0,0-.36.67,2.95,2.95,0,0,0,0,1.71,2,2,0,0,0,.36.67,1.61,1.61,0,0,0,.57.44,1.73,1.73,0,0,0,.75.16A1.69,1.69,0,0,0,319,33a2.26,2.26,0,0,0,.63-0.6l0.68,0.54a3.22,3.22,0,0,1-1,.85,2.62,2.62,0,0,1-1.36.33,2.79,2.79,0,0,1-1.14-.23,2.54,2.54,0,0,1-.87-0.63,2.77,2.77,0,0,1-.56-1,3.59,3.59,0,0,1-.19-1.19,3.48,3.48,0,0,1,.2-1.19,2.89,2.89,0,0,1,.56-1,2.5,2.5,0,0,1,.86-0.63A2.77,2.77,0,0,1,318,28.15Z"/><path class="cls-6" d="M321.83,34V26.15h1V34h-1Z"/><path class="cls-6" d="M324.44,31.16a3.56,3.56,0,0,1,.19-1.19,2.87,2.87,0,0,1,.55-1,2.52,2.52,0,0,1,.88-0.64,3.1,3.1,0,0,1,2.3,0,2.5,2.5,0,0,1,1.39,1.47,3.11,3.11,0,0,1,.19,1.09c0,0.1,0,.18,0,0.25l0,0.2h-4.44a2.23,2.23,0,0,0,.15.8,1.69,1.69,0,0,0,.4.59,1.65,1.65,0,0,0,.6.36,2.43,2.43,0,0,0,1.74-.09,1.86,1.86,0,0,0,.74-0.61L329.8,33a3.15,3.15,0,0,1-.41.44,2.72,2.72,0,0,1-.54.37,3,3,0,0,1-.68.25,3.43,3.43,0,0,1-.84.09,3.16,3.16,0,0,1-1.23-.23,2.59,2.59,0,0,1-.91-0.62,2.66,2.66,0,0,1-.56-0.94A3.51,3.51,0,0,1,324.44,31.16Zm4.51-.53a1.88,1.88,0,0,0-.17-0.74,1.62,1.62,0,0,0-.38-0.52,1.53,1.53,0,0,0-.54-0.31,2,2,0,0,0-.63-0.1,1.86,1.86,0,0,0-.68.12,1.55,1.55,0,0,0-.53.35,1.69,1.69,0,0,0-.36.53,2.15,2.15,0,0,0-.17.67H329Z"/></g><g class="cls-5"><path class="cls-6" d="M299.06,47V43.33h-4.22V47h-1V39.15h1v3.23h4.22V39.15h1V47h-1Z"/><path class="cls-6" d="M301.84,44.16A3.56,3.56,0,0,1,302,43a2.87,2.87,0,0,1,.55-1,2.52,2.52,0,0,1,.87-0.64,3.1,3.1,0,0,1,2.3,0,2.52,2.52,0,0,1,.85.59,2.58,2.58,0,0,1,.54.88,3.11,3.11,0,0,1,.19,1.09,2.41,2.41,0,0,1,0,.25c0,0.07,0,.14,0,0.2h-4.44a2.23,2.23,0,0,0,.15.8,1.7,1.7,0,0,0,.4.59,1.65,1.65,0,0,0,.6.36,2.43,2.43,0,0,0,1.74-.09,1.86,1.86,0,0,0,.74-0.61L307.2,46a3.1,3.1,0,0,1-.41.44,2.72,2.72,0,0,1-.54.37,3,3,0,0,1-.68.25,3.44,3.44,0,0,1-.84.09,3.17,3.17,0,0,1-1.23-.23,2.59,2.59,0,0,1-.91-0.62,2.67,2.67,0,0,1-.56-0.94A3.51,3.51,0,0,1,301.84,44.16Zm4.51-.53a1.9,1.9,0,0,0-.17-0.74,1.62,1.62,0,0,0-.38-0.52,1.52,1.52,0,0,0-.54-0.31,2,2,0,0,0-.63-0.1,1.86,1.86,0,0,0-.68.12,1.55,1.55,0,0,0-.53.35,1.69,1.69,0,0,0-.36.53,2.12,2.12,0,0,0-.17.67h3.46Z"/><path class="cls-6" d="M310.55,47.14a2.73,2.73,0,0,1-.84-0.12,1.85,1.85,0,0,1-.64-0.35,1.58,1.58,0,0,1-.41-0.55,1.77,1.77,0,0,1-.15-0.74,1.49,1.49,0,0,1,.2-0.81,1.57,1.57,0,0,1,.5-0.5,2.09,2.09,0,0,1,.64-0.27q0.35-.08.64-0.13l0.66-.08a2.86,2.86,0,0,0,.59-0.12,1.15,1.15,0,0,0,.42-0.23,0.56,0.56,0,0,0,.17-0.43A0.67,0.67,0,0,0,312,42.2,1.87,1.87,0,0,0,311,42a3,3,0,0,0-1.82.6l-0.44-.73a4.23,4.23,0,0,1,1.06-.54,3.8,3.8,0,0,1,1.23-.19,3.55,3.55,0,0,1,.89.1,1.84,1.84,0,0,1,.7.33,1.61,1.61,0,0,1,.46.58,2,2,0,0,1,.17.85v2.71c0,0.41.14,0.62,0.42,0.62a0.53,0.53,0,0,0,.32-0.09L314.15,47a1,1,0,0,1-.3.09l-0.35,0a1.16,1.16,0,0,1-.7-0.22,0.94,0.94,0,0,1-.37-0.65,2.08,2.08,0,0,1-.75.67A2.37,2.37,0,0,1,310.55,47.14Zm1.78-3.22a1,1,0,0,1-.33.21,2.39,2.39,0,0,1-.41.13l-0.46.08-0.46.06a3.28,3.28,0,0,0-.47.09,1.28,1.28,0,0,0-.37.17,0.81,0.81,0,0,0-.25.28,0.87,0.87,0,0,0-.09.42,0.82,0.82,0,0,0,.35.74,1.51,1.51,0,0,0,.84.23,2.13,2.13,0,0,0,.61-0.09,1.5,1.5,0,0,0,.53-0.28,1.37,1.37,0,0,0,.37-0.48,1.56,1.56,0,0,0,.14-0.7V43.92Z"/><path class="cls-6" d="M315.44,47V39.15h1V47h-1Z"/><path class="cls-6" d="M321.81,46.74a1.93,1.93,0,0,1-1.25.39,2,2,0,0,1-.82-0.17,1.49,1.49,0,0,1-.81-1,3.34,3.34,0,0,1-.05-0.67V42.09h-1.06v-0.7a3.06,3.06,0,0,0,.52-0.1,0.85,0.85,0,0,0,.38-0.24,1.12,1.12,0,0,0,.24-0.48,4.07,4.07,0,0,0,.1-0.83h0.76v1.54h1.8v0.81h-1.8v3.2a0.82,0.82,0,0,0,.85,1,1.37,1.37,0,0,0,.46-0.07,1.25,1.25,0,0,0,.36-0.19Z"/><path class="cls-6" d="M323.14,47V39.15h1v3.08a2.48,2.48,0,0,1,.84-0.8,2.25,2.25,0,0,1,1.12-.27,1.92,1.92,0,0,1,1.47.57,2.24,2.24,0,0,1,.53,1.6V47h-1V43.54a2.79,2.79,0,0,0,0-.52,1.34,1.34,0,0,0-.19-0.48,1,1,0,0,0-.39-0.35,1.35,1.35,0,0,0-.65-0.14,1.82,1.82,0,0,0-.68.13,1.57,1.57,0,0,0-.55.36,1.72,1.72,0,0,0-.36.57,1.92,1.92,0,0,0-.13.73V47h-1Z"/></g></g><g id="Repair-Facilities" class="cls-5"><g class="cls-5"><path class="cls-6" d="M299.57,126l-1.89-3.2h-1.92V126h-1v-7.85H298a3.5,3.5,0,0,1,1.12.16,2.49,2.49,0,0,1,.84.46,1.94,1.94,0,0,1,.53.71,2.29,2.29,0,0,1,.18.92,2.13,2.13,0,0,1-.5,1.44,2.64,2.64,0,0,1-1.37.81l2,3.33h-1.17Zm0-5.55a1.27,1.27,0,0,0-.41-1,1.75,1.75,0,0,0-1.22-.38h-2.19v2.79h2.06a2,2,0,0,0,1.29-.39A1.29,1.29,0,0,0,299.57,120.45Z"/><path class="cls-6" d="M301.84,123.16A3.56,3.56,0,0,1,302,122a2.87,2.87,0,0,1,.55-1,2.52,2.52,0,0,1,.87-0.64,3.1,3.1,0,0,1,2.3,0,2.52,2.52,0,0,1,.85.59,2.58,2.58,0,0,1,.54.88,3.11,3.11,0,0,1,.19,1.09,2.41,2.41,0,0,1,0,.25c0,0.07,0,.14,0,0.2h-4.44a2.23,2.23,0,0,0,.15.8,1.7,1.7,0,0,0,.4.59,1.65,1.65,0,0,0,.6.36,2.43,2.43,0,0,0,1.74-.09,1.86,1.86,0,0,0,.74-0.61l0.7,0.55a3.1,3.1,0,0,1-.41.44,2.72,2.72,0,0,1-.54.37,3,3,0,0,1-.68.25,3.44,3.44,0,0,1-.84.09,3.17,3.17,0,0,1-1.23-.23,2.59,2.59,0,0,1-.91-0.62,2.67,2.67,0,0,1-.56-0.94A3.51,3.51,0,0,1,301.84,123.16Zm4.51-.53a1.9,1.9,0,0,0-.17-0.74,1.62,1.62,0,0,0-.38-0.52,1.52,1.52,0,0,0-.54-0.31,2,2,0,0,0-.63-0.1,1.86,1.86,0,0,0-.68.12,1.55,1.55,0,0,0-.53.35,1.69,1.69,0,0,0-.36.53,2.12,2.12,0,0,0-.17.67h3.46Z"/><path class="cls-6" d="M309.88,120.28v0.93a2.37,2.37,0,0,1,.93-0.83,2.6,2.6,0,0,1,1.11-.24,2.48,2.48,0,0,1,1.93.86,2.77,2.77,0,0,1,.53.95,3.68,3.68,0,0,1,.18,1.17,3.77,3.77,0,0,1-.18,1.19,2.76,2.76,0,0,1-.53,1,2.51,2.51,0,0,1-.84.63,2.67,2.67,0,0,1-2.21,0,2.42,2.42,0,0,1-.92-0.83v2.86h-1v-7.63h1Zm0,2.86a2.75,2.75,0,0,0,.12.83,2,2,0,0,0,.36.67,1.69,1.69,0,0,0,.58.45,1.83,1.83,0,0,0,.8.17,1.76,1.76,0,0,0,.79-0.17,1.61,1.61,0,0,0,.56-0.45,2,2,0,0,0,.34-0.67,2.85,2.85,0,0,0,.12-0.83,3,3,0,0,0-.11-0.81,2,2,0,0,0-.34-0.68,1.56,1.56,0,0,0-.57-0.46,1.79,1.79,0,0,0-.79-0.17,1.83,1.83,0,0,0-.8.17,1.69,1.69,0,0,0-.58.45,2,2,0,0,0-.36.67A2.75,2.75,0,0,0,309.88,123.14Z"/><path class="cls-6" d="M317.83,126.14A2.73,2.73,0,0,1,317,126a1.85,1.85,0,0,1-.64-0.35,1.58,1.58,0,0,1-.41-0.55,1.76,1.76,0,0,1-.15-0.74,1.49,1.49,0,0,1,.2-0.81,1.58,1.58,0,0,1,.5-0.5,2.11,2.11,0,0,1,.64-0.27c0.23-.06.45-0.1,0.64-0.13l0.66-.08a2.89,2.89,0,0,0,.59-0.12,1.14,1.14,0,0,0,.42-0.23,0.55,0.55,0,0,0,.17-0.43,0.67,0.67,0,0,0-.36-0.62,1.87,1.87,0,0,0-.92-0.2,2.94,2.94,0,0,0-1.81.6l-0.44-.73a4.26,4.26,0,0,1,1.06-.54,3.8,3.8,0,0,1,1.23-.19,3.54,3.54,0,0,1,.89.1,1.84,1.84,0,0,1,.7.33,1.59,1.59,0,0,1,.46.58,2,2,0,0,1,.17.85v2.71q0,0.62.42,0.62a0.53,0.53,0,0,0,.32-0.09l0.12,0.73a1,1,0,0,1-.3.09l-0.35,0a1.16,1.16,0,0,1-.7-0.22,0.94,0.94,0,0,1-.37-0.65,2.09,2.09,0,0,1-.75.67A2.38,2.38,0,0,1,317.83,126.14Zm1.78-3.22a1,1,0,0,1-.32.21,2.42,2.42,0,0,1-.41.13l-0.46.08-0.46.06a3.25,3.25,0,0,0-.47.09,1.27,1.27,0,0,0-.37.17,0.81,0.81,0,0,0-.25.28,0.87,0.87,0,0,0-.09.42,0.82,0.82,0,0,0,.35.74,1.51,1.51,0,0,0,.84.23,2.12,2.12,0,0,0,.6-0.09,1.51,1.51,0,0,0,.53-0.28,1.39,1.39,0,0,0,.37-0.48,1.58,1.58,0,0,0,.14-0.7v-0.88Z"/><path class="cls-6" d="M322.6,118.65a0.58,0.58,0,0,1,.17-0.42,0.56,0.56,0,0,1,.42-0.17,0.58,0.58,0,0,1,.59.59,0.56,0.56,0,0,1-.17.42,0.59,0.59,0,0,1-.42.17A0.56,0.56,0,0,1,322.6,118.65Zm0.11,7.35v-5.72h1V126h-1Z"/><path class="cls-6" d="M328.72,121.21a1.48,1.48,0,0,0-.53-0.09,1.39,1.39,0,0,0-.6.13,1.37,1.37,0,0,0-.48.38,1.86,1.86,0,0,0-.33.61,2.7,2.7,0,0,0-.12.84V126h-1v-5.72h1v1a2.2,2.2,0,0,1,.7-0.79,1.67,1.67,0,0,1,1-.3l0.34,0a0.69,0.69,0,0,1,.26.08Z"/></g><g class="cls-5"><path class="cls-6" d="M289.25,132.09v2.33h3.82v0.9h-3.82V139h-1v-7.85h5.3v0.95h-4.28Z"/><path class="cls-6" d="M296.33,139.14a2.73,2.73,0,0,1-.84-0.12,1.85,1.85,0,0,1-.64-0.35,1.58,1.58,0,0,1-.41-0.55,1.77,1.77,0,0,1-.15-0.74,1.49,1.49,0,0,1,.2-0.81,1.57,1.57,0,0,1,.5-0.5,2.09,2.09,0,0,1,.64-0.27q0.35-.08.64-0.13l0.66-.08a2.86,2.86,0,0,0,.59-0.12,1.15,1.15,0,0,0,.42-0.23,0.56,0.56,0,0,0,.17-0.43,0.67,0.67,0,0,0-.36-0.62,1.87,1.87,0,0,0-.92-0.2,3,3,0,0,0-1.82.6l-0.44-.73a4.23,4.23,0,0,1,1.06-.54,3.8,3.8,0,0,1,1.23-.19,3.55,3.55,0,0,1,.89.1,1.84,1.84,0,0,1,.7.33,1.61,1.61,0,0,1,.46.58,2,2,0,0,1,.17.85v2.71c0,0.41.14,0.62,0.42,0.62a0.53,0.53,0,0,0,.32-0.09l0.12,0.73a1,1,0,0,1-.3.09l-0.35,0a1.16,1.16,0,0,1-.7-0.22,0.94,0.94,0,0,1-.37-0.65,2.08,2.08,0,0,1-.75.67A2.37,2.37,0,0,1,296.33,139.14Zm1.78-3.22a1,1,0,0,1-.33.21,2.39,2.39,0,0,1-.41.13l-0.46.08-0.46.06a3.28,3.28,0,0,0-.47.09,1.28,1.28,0,0,0-.37.17,0.81,0.81,0,0,0-.25.28,0.87,0.87,0,0,0-.09.42,0.82,0.82,0,0,0,.35.74,1.51,1.51,0,0,0,.84.23,2.13,2.13,0,0,0,.61-0.09,1.5,1.5,0,0,0,.53-0.28,1.37,1.37,0,0,0,.37-0.48,1.56,1.56,0,0,0,.14-0.7v-0.88Z"/><path class="cls-6" d="M303.58,133.15a2.59,2.59,0,0,1,1.35.33,2.79,2.79,0,0,1,.89.82l-0.68.54a1.87,1.87,0,0,0-.63-0.62,1.75,1.75,0,0,0-.88-0.21,1.7,1.7,0,0,0-.75.16,1.66,1.66,0,0,0-.56.44,2,2,0,0,0-.36.67,2.93,2.93,0,0,0,0,1.71,2,2,0,0,0,.36.67,1.63,1.63,0,0,0,.57.44,1.73,1.73,0,0,0,.75.16,1.68,1.68,0,0,0,.95-0.25,2.23,2.23,0,0,0,.63-0.6l0.68,0.54a3.22,3.22,0,0,1-1,.85,2.62,2.62,0,0,1-1.36.33,2.79,2.79,0,0,1-1.14-.23,2.55,2.55,0,0,1-.87-0.63,2.77,2.77,0,0,1-.56-1,3.59,3.59,0,0,1-.19-1.19A3.48,3.48,0,0,1,301,135a2.87,2.87,0,0,1,.56-1,2.49,2.49,0,0,1,.86-0.63A2.77,2.77,0,0,1,303.58,133.15Z"/><path class="cls-6" d="M307.28,131.65a0.58,0.58,0,0,1,.17-0.42,0.56,0.56,0,0,1,.42-0.17,0.58,0.58,0,0,1,.59.59,0.56,0.56,0,0,1-.17.42,0.59,0.59,0,0,1-.42.17A0.56,0.56,0,0,1,307.28,131.65Zm0.11,7.35v-5.72h1V139h-1Z"/><path class="cls-6" d="M310.38,139v-7.85h1V139h-1Z"/><path class="cls-6" d="M313.26,131.65a0.59,0.59,0,0,1,.17-0.42,0.56,0.56,0,0,1,.42-0.17,0.58,0.58,0,0,1,.59.59,0.56,0.56,0,0,1-.17.42,0.59,0.59,0,0,1-.42.17A0.56,0.56,0,0,1,313.26,131.65Zm0.11,7.35v-5.72h1V139h-1Z"/><path class="cls-6" d="M319.74,138.74a1.93,1.93,0,0,1-1.25.39,2,2,0,0,1-.82-0.17,1.49,1.49,0,0,1-.81-1,3.34,3.34,0,0,1-.05-0.67v-3.18h-1.06v-0.7a3.06,3.06,0,0,0,.52-0.1,0.85,0.85,0,0,0,.38-0.24,1.12,1.12,0,0,0,.24-0.48,4.07,4.07,0,0,0,.1-0.83h0.76v1.54h1.8v0.81h-1.8v3.2a0.82,0.82,0,0,0,.85,1,1.37,1.37,0,0,0,.46-0.07,1.25,1.25,0,0,0,.36-0.19Z"/><path class="cls-6" d="M321,131.65a0.58,0.58,0,0,1,.17-0.42,0.56,0.56,0,0,1,.42-0.17,0.58,0.58,0,0,1,.59.59,0.56,0.56,0,0,1-.17.42,0.59,0.59,0,0,1-.42.17A0.56,0.56,0,0,1,321,131.65Zm0.11,7.35v-5.72h1V139h-1Z"/><path class="cls-6" d="M323.68,136.16a3.59,3.59,0,0,1,.19-1.19,2.87,2.87,0,0,1,.55-1,2.52,2.52,0,0,1,.88-0.64,3.1,3.1,0,0,1,2.3,0,2.5,2.5,0,0,1,1.39,1.47,3.11,3.11,0,0,1,.19,1.09c0,0.1,0,.18,0,0.25l0,0.2H324.7a2.23,2.23,0,0,0,.15.8,1.7,1.7,0,0,0,.4.59,1.63,1.63,0,0,0,.6.36,2.43,2.43,0,0,0,1.74-.09,1.86,1.86,0,0,0,.74-0.61L329,138a3.1,3.1,0,0,1-.41.44,2.69,2.69,0,0,1-.54.37,3,3,0,0,1-.68.25,3.44,3.44,0,0,1-.84.09,3.16,3.16,0,0,1-1.23-.23,2.59,2.59,0,0,1-.91-0.62,2.67,2.67,0,0,1-.56-0.94A3.54,3.54,0,0,1,323.68,136.16Zm4.51-.53a1.91,1.91,0,0,0-.17-0.74,1.62,1.62,0,0,0-.39-0.52,1.51,1.51,0,0,0-.54-0.31,2,2,0,0,0-.63-0.1,1.86,1.86,0,0,0-.68.12,1.55,1.55,0,0,0-.53.35,1.69,1.69,0,0,0-.36.53,2.12,2.12,0,0,0-.17.67h3.46Z"/><path class="cls-6" d="M335,137.27a1.67,1.67,0,0,1-.64,1.34,2.27,2.27,0,0,1-.73.38,3.4,3.4,0,0,1-2.42-.19,3,3,0,0,1-1-.83l0.69-.56a2.06,2.06,0,0,0,1.81.89,1.63,1.63,0,0,0,1-.25,0.79,0.79,0,0,0,.32-0.65,0.62,0.62,0,0,0-.13-0.42,0.89,0.89,0,0,0-.35-0.24,2.82,2.82,0,0,0-.51-0.14l-0.61-.12a6.33,6.33,0,0,1-.72-0.19,2.26,2.26,0,0,1-.62-0.31,1.48,1.48,0,0,1-.43-0.47,1.31,1.31,0,0,1-.16-0.67,1.58,1.58,0,0,1,.15-0.69,1.51,1.51,0,0,1,.42-0.53,2,2,0,0,1,.65-0.35,3,3,0,0,1,2.2.18,3.11,3.11,0,0,1,.93.77l-0.67.53a1.9,1.9,0,0,0-1.65-.78,1.4,1.4,0,0,0-.84.21,0.67,0.67,0,0,0-.28.56,0.6,0.6,0,0,0,.09.35,0.73,0.73,0,0,0,.27.23,1.81,1.81,0,0,0,.42.15l0.54,0.13c0.29,0.06.57,0.13,0.84,0.2a2.91,2.91,0,0,1,.71.29,1.5,1.5,0,0,1,.5.46A1.28,1.28,0,0,1,335,137.27Z"/></g></g><g id="Transportation-_-Lod" data-name="Transportation-&amp;-Lod" class="cls-5"><g class="cls-5"><path class="cls-6" d="M28.24,119.09V126h-1v-6.91H24.58v-0.95h6.3v0.95H28.24Z"/><path class="cls-6" d="M34.52,121.21a1.48,1.48,0,0,0-.53-0.09,1.39,1.39,0,0,0-.6.13,1.38,1.38,0,0,0-.48.38,1.86,1.86,0,0,0-.32.61,2.69,2.69,0,0,0-.12.84V126h-1v-5.72h1v1a2.19,2.19,0,0,1,.7-0.79,1.67,1.67,0,0,1,1-.3l0.34,0a0.69,0.69,0,0,1,.26.08Z"/><path class="cls-6" d="M37.57,126.14a2.73,2.73,0,0,1-.84-0.12,1.85,1.85,0,0,1-.64-0.35,1.58,1.58,0,0,1-.41-0.55,1.77,1.77,0,0,1-.15-0.74,1.49,1.49,0,0,1,.2-0.81,1.58,1.58,0,0,1,.5-0.5,2.1,2.1,0,0,1,.64-0.27q0.35-.08.64-0.13l0.66-.08a2.87,2.87,0,0,0,.59-0.12,1.14,1.14,0,0,0,.42-0.23,0.56,0.56,0,0,0,.17-0.43A0.67,0.67,0,0,0,39,121.2a1.87,1.87,0,0,0-.92-0.2,2.94,2.94,0,0,0-1.81.6l-0.44-.73a4.24,4.24,0,0,1,1.06-.54,3.8,3.8,0,0,1,1.23-.19,3.55,3.55,0,0,1,.89.1,1.84,1.84,0,0,1,.7.33,1.6,1.6,0,0,1,.46.58,2,2,0,0,1,.17.85v2.71q0,0.62.42,0.62a0.53,0.53,0,0,0,.32-0.09L41.17,126a1,1,0,0,1-.3.09l-0.35,0a1.16,1.16,0,0,1-.7-0.22,0.94,0.94,0,0,1-.37-0.65,2.09,2.09,0,0,1-.75.67A2.38,2.38,0,0,1,37.57,126.14Zm1.78-3.22a1,1,0,0,1-.32.21,2.41,2.41,0,0,1-.41.13l-0.46.08-0.46.06a3.26,3.26,0,0,0-.47.09,1.27,1.27,0,0,0-.37.17,0.81,0.81,0,0,0-.25.28,0.87,0.87,0,0,0-.09.42,0.82,0.82,0,0,0,.35.74,1.51,1.51,0,0,0,.84.23,2.12,2.12,0,0,0,.6-0.09,1.51,1.51,0,0,0,.53-0.28,1.38,1.38,0,0,0,.37-0.48,1.57,1.57,0,0,0,.14-0.7v-0.88Z"/><path class="cls-6" d="M42.46,126v-5.72h1v0.95a2.47,2.47,0,0,1,.84-0.8,2.25,2.25,0,0,1,1.12-.27,1.92,1.92,0,0,1,1.47.57,2.24,2.24,0,0,1,.53,1.6V126h-1v-3.46a2.79,2.79,0,0,0,0-.52,1.34,1.34,0,0,0-.19-0.48,1,1,0,0,0-.39-0.35,1.35,1.35,0,0,0-.65-0.14,1.82,1.82,0,0,0-.68.13,1.56,1.56,0,0,0-.55.36,1.71,1.71,0,0,0-.36.57,1.93,1.93,0,0,0-.13.73V126h-1Z"/><path class="cls-6" d="M53.62,124.27a1.67,1.67,0,0,1-.64,1.34,2.26,2.26,0,0,1-.73.38,3.4,3.4,0,0,1-2.42-.19,3,3,0,0,1-1-.83l0.69-.56a2.06,2.06,0,0,0,1.81.89,1.63,1.63,0,0,0,1-.25,0.79,0.79,0,0,0,.32-0.65,0.62,0.62,0,0,0-.13-0.42,0.88,0.88,0,0,0-.35-0.24,2.79,2.79,0,0,0-.51-0.14l-0.61-.12a6.33,6.33,0,0,1-.72-0.19,2.27,2.27,0,0,1-.62-0.31,1.48,1.48,0,0,1-.43-0.47,1.31,1.31,0,0,1-.16-0.67,1.59,1.59,0,0,1,.15-0.69,1.52,1.52,0,0,1,.42-0.53,2,2,0,0,1,.65-0.35,3,3,0,0,1,2.2.18,3.12,3.12,0,0,1,.94.77l-0.67.53a1.9,1.9,0,0,0-1.65-.78,1.41,1.41,0,0,0-.84.21,0.67,0.67,0,0,0-.28.56,0.61,0.61,0,0,0,.09.35,0.73,0.73,0,0,0,.27.23,1.81,1.81,0,0,0,.42.15l0.54,0.13c0.29,0.06.57,0.13,0.84,0.2a2.89,2.89,0,0,1,.71.29,1.49,1.49,0,0,1,.5.46A1.27,1.27,0,0,1,53.62,124.27Z"/><path class="cls-6" d="M56.22,120.28v0.93a2.37,2.37,0,0,1,.93-0.83,2.6,2.6,0,0,1,1.11-.24,2.48,2.48,0,0,1,1.93.86,2.75,2.75,0,0,1,.53.95,3.68,3.68,0,0,1,.18,1.17,3.77,3.77,0,0,1-.18,1.19,2.74,2.74,0,0,1-.53,1,2.5,2.5,0,0,1-.84.63,2.67,2.67,0,0,1-2.21,0,2.42,2.42,0,0,1-.92-0.83v2.86h-1v-7.63h1Zm0,2.86a2.74,2.74,0,0,0,.12.83,2,2,0,0,0,.36.67,1.68,1.68,0,0,0,.58.45,1.83,1.83,0,0,0,.8.17,1.76,1.76,0,0,0,.79-0.17,1.62,1.62,0,0,0,.56-0.45,2,2,0,0,0,.34-0.67,2.82,2.82,0,0,0,.12-0.83,3,3,0,0,0-.11-0.81,2,2,0,0,0-.34-0.68,1.56,1.56,0,0,0-.57-0.46,1.79,1.79,0,0,0-.79-0.17,1.83,1.83,0,0,0-.8.17,1.68,1.68,0,0,0-.58.45,2,2,0,0,0-.36.67A2.74,2.74,0,0,0,56.22,123.14Z"/><path class="cls-6" d="M67.78,123.15a3.47,3.47,0,0,1-.2,1.19,2.79,2.79,0,0,1-.56.94,2.57,2.57,0,0,1-.89.62,3.15,3.15,0,0,1-2.34,0,2.56,2.56,0,0,1-.89-0.62,2.7,2.7,0,0,1-.56-0.94,3.57,3.57,0,0,1-.19-1.19,3.62,3.62,0,0,1,.19-1.2,2.74,2.74,0,0,1,.56-1,2.52,2.52,0,0,1,.89-0.63,3.17,3.17,0,0,1,2.34,0A2.53,2.53,0,0,1,67,121a2.83,2.83,0,0,1,.56,1A3.52,3.52,0,0,1,67.78,123.15Zm-1,0a2.84,2.84,0,0,0-.12-0.84,2.08,2.08,0,0,0-.35-0.68,1.61,1.61,0,0,0-.56-0.45,1.84,1.84,0,0,0-1.53,0,1.61,1.61,0,0,0-.56.45,2.09,2.09,0,0,0-.35.68,2.84,2.84,0,0,0-.12.84,2.78,2.78,0,0,0,.12.84,2.09,2.09,0,0,0,.35.67,1.61,1.61,0,0,0,.56.45,1.85,1.85,0,0,0,1.53,0,1.61,1.61,0,0,0,.56-0.45,2.08,2.08,0,0,0,.35-0.67A2.78,2.78,0,0,0,66.75,123.16Z"/><path class="cls-6" d="M72.44,121.21a1.47,1.47,0,0,0-.53-0.09,1.38,1.38,0,0,0-1.08.51,1.88,1.88,0,0,0-.32.61,2.67,2.67,0,0,0-.12.84V126h-1v-5.72h1v1a2.2,2.2,0,0,1,.7-0.79,1.68,1.68,0,0,1,1-.3l0.34,0a0.69,0.69,0,0,1,.26.08Z"/><path class="cls-6" d="M77.24,125.74a1.93,1.93,0,0,1-1.25.39,2,2,0,0,1-.82-0.17,1.43,1.43,0,0,1-.62-0.56,1.41,1.41,0,0,1-.19-0.47,3.26,3.26,0,0,1-.05-0.67v-3.18H73.24v-0.7a3,3,0,0,0,.52-0.1,0.85,0.85,0,0,0,.39-0.24,1.12,1.12,0,0,0,.24-0.48,4,4,0,0,0,.1-0.83h0.76v1.54h1.8v0.81h-1.8v3.2a0.82,0.82,0,0,0,.85,1,1.36,1.36,0,0,0,.46-0.07,1.27,1.27,0,0,0,.36-0.19Z"/><path class="cls-6" d="M80.2,126.14a2.73,2.73,0,0,1-.84-0.12,1.85,1.85,0,0,1-.64-0.35,1.59,1.59,0,0,1-.41-0.55,1.77,1.77,0,0,1-.15-0.74,1.49,1.49,0,0,1,.2-0.81,1.57,1.57,0,0,1,.5-0.5,2.1,2.1,0,0,1,.64-0.27q0.35-.08.64-0.13l0.66-.08a2.86,2.86,0,0,0,.59-0.12,1.14,1.14,0,0,0,.42-0.23,0.55,0.55,0,0,0,.17-0.43,0.67,0.67,0,0,0-.36-0.62,1.87,1.87,0,0,0-.92-0.2,2.94,2.94,0,0,0-1.81.6l-0.44-.73a4.25,4.25,0,0,1,1.06-.54,3.81,3.81,0,0,1,1.23-.19,3.55,3.55,0,0,1,.89.1,1.85,1.85,0,0,1,.7.33,1.61,1.61,0,0,1,.46.58,2,2,0,0,1,.17.85v2.71c0,0.41.14,0.62,0.42,0.62a0.53,0.53,0,0,0,.32-0.09L83.79,126a1,1,0,0,1-.3.09l-0.35,0a1.16,1.16,0,0,1-.7-0.22,0.94,0.94,0,0,1-.37-0.65,2.08,2.08,0,0,1-.75.67A2.37,2.37,0,0,1,80.2,126.14ZM82,122.92a1,1,0,0,1-.32.21,2.43,2.43,0,0,1-.41.13l-0.46.08-0.46.06a3.26,3.26,0,0,0-.47.09,1.26,1.26,0,0,0-.37.17,0.8,0.8,0,0,0-.25.28,0.87,0.87,0,0,0-.09.42,0.82,0.82,0,0,0,.35.74,1.51,1.51,0,0,0,.84.23,2.12,2.12,0,0,0,.61-0.09,1.51,1.51,0,0,0,.53-0.28,1.39,1.39,0,0,0,.37-0.48,1.58,1.58,0,0,0,.14-0.7v-0.88Z"/><path class="cls-6" d="M88.46,125.74a1.93,1.93,0,0,1-1.25.39,2,2,0,0,1-.82-0.17,1.43,1.43,0,0,1-.62-0.56,1.41,1.41,0,0,1-.19-0.47,3.26,3.26,0,0,1-.05-0.67v-3.18H84.46v-0.7a3,3,0,0,0,.52-0.1,0.85,0.85,0,0,0,.39-0.24,1.12,1.12,0,0,0,.24-0.48,4,4,0,0,0,.1-0.83h0.76v1.54h1.8v0.81h-1.8v3.2a0.82,0.82,0,0,0,.85,1,1.36,1.36,0,0,0,.46-0.07,1.27,1.27,0,0,0,.36-0.19Z"/><path class="cls-6" d="M89.68,118.65a0.59,0.59,0,0,1,.17-0.42,0.56,0.56,0,0,1,.42-0.17,0.58,0.58,0,0,1,.59.59,0.56,0.56,0,0,1-.17.42,0.59,0.59,0,0,1-.42.17A0.56,0.56,0,0,1,89.68,118.65ZM89.79,126v-5.72h1V126h-1Z"/><path class="cls-6" d="M98,123.15a3.47,3.47,0,0,1-.2,1.19,2.79,2.79,0,0,1-.56.94,2.57,2.57,0,0,1-.89.62,3.15,3.15,0,0,1-2.34,0,2.56,2.56,0,0,1-.89-0.62,2.7,2.7,0,0,1-.56-0.94,3.57,3.57,0,0,1-.19-1.19,3.62,3.62,0,0,1,.19-1.2,2.74,2.74,0,0,1,.56-1,2.52,2.52,0,0,1,.89-0.63,3.17,3.17,0,0,1,2.34,0,2.53,2.53,0,0,1,.89.63,2.83,2.83,0,0,1,.56,1A3.52,3.52,0,0,1,98,123.15Zm-1,0a2.84,2.84,0,0,0-.12-0.84,2.08,2.08,0,0,0-.35-0.68,1.61,1.61,0,0,0-.56-0.45,1.84,1.84,0,0,0-1.53,0,1.61,1.61,0,0,0-.56.45,2.09,2.09,0,0,0-.35.68,2.84,2.84,0,0,0-.12.84,2.78,2.78,0,0,0,.12.84,2.09,2.09,0,0,0,.35.67,1.61,1.61,0,0,0,.56.45,1.85,1.85,0,0,0,1.53,0,1.61,1.61,0,0,0,.56-0.45,2.08,2.08,0,0,0,.35-0.67A2.78,2.78,0,0,0,97,123.16Z"/><path class="cls-6" d="M99.67,126v-5.72h1v0.95a2.47,2.47,0,0,1,.84-0.8,2.25,2.25,0,0,1,1.12-.27,1.92,1.92,0,0,1,1.47.57,2.24,2.24,0,0,1,.53,1.6V126h-1v-3.46a2.8,2.8,0,0,0,0-.52,1.32,1.32,0,0,0-.19-0.48,1,1,0,0,0-.39-0.35,1.35,1.35,0,0,0-.65-0.14,1.82,1.82,0,0,0-.68.13,1.56,1.56,0,0,0-.55.36,1.7,1.7,0,0,0-.36.57,1.94,1.94,0,0,0-.13.73V126h-1Z"/></g><g class="cls-5"><path class="cls-6" d="M43.93,135.41a3.34,3.34,0,0,1-.11.64,5,5,0,0,1-.22.64,4.46,4.46,0,0,1-.3.59,4,4,0,0,1-.35.49L44,139H42.77l-0.52-.63a3.61,3.61,0,0,1-2.25.77,3.49,3.49,0,0,1-1-.15,2.62,2.62,0,0,1-.85-0.43,2.11,2.11,0,0,1-.63-2.41,2.2,2.2,0,0,1,.4-0.63,2.81,2.81,0,0,1,.57-0.48,4.47,4.47,0,0,1,.69-0.36l-0.36-.44a3.1,3.1,0,0,1-.29-0.43,2.11,2.11,0,0,1-.19-0.46,2,2,0,0,1-.07-0.53,1.76,1.76,0,0,1,.16-0.76,1.69,1.69,0,0,1,.44-0.57,1.92,1.92,0,0,1,.67-0.36,2.73,2.73,0,0,1,.83-0.12,2.5,2.5,0,0,1,.84.13,1.82,1.82,0,0,1,.63.37,1.65,1.65,0,0,1,.4.56,1.75,1.75,0,0,1,.14.71,1.83,1.83,0,0,1-.46,1.23,3.94,3.94,0,0,1-1.36,1l1.85,2.16a2.89,2.89,0,0,0,.27-0.43,3.83,3.83,0,0,0,.21-0.47,3.51,3.51,0,0,0,.14-0.48,4.5,4.5,0,0,0,.07-0.45Zm-3.85,2.86a3.44,3.44,0,0,0,.83-0.12,1.85,1.85,0,0,0,.8-0.42l-2.08-2.45a4.94,4.94,0,0,0-.5.26,1.82,1.82,0,0,0-.41.33,1.59,1.59,0,0,0-.27.42,1.27,1.27,0,0,0-.1.53,1.35,1.35,0,0,0,.13.6,1.37,1.37,0,0,0,.37.46,1.63,1.63,0,0,0,.56.29A2.27,2.27,0,0,0,40.08,138.27Zm1.38-5.46a0.88,0.88,0,0,0-.34-0.75,1.25,1.25,0,0,0-.76-0.25,1.36,1.36,0,0,0-.81.25,0.87,0.87,0,0,0-.35.76,1.32,1.32,0,0,0,.25.79,8.12,8.12,0,0,0,.59.73l0.52-.27a2.65,2.65,0,0,0,.46-0.33,1.47,1.47,0,0,0,.32-0.41A1.09,1.09,0,0,0,41.45,132.82Z"/><path class="cls-6" d="M48.69,139v-7.85h1v6.91H54V139H48.69Z"/><path class="cls-6" d="M60.51,136.15a3.47,3.47,0,0,1-.2,1.19,2.78,2.78,0,0,1-.56.94,2.56,2.56,0,0,1-.89.62,3.16,3.16,0,0,1-2.34,0,2.56,2.56,0,0,1-.89-0.62,2.71,2.71,0,0,1-.56-0.94,3.56,3.56,0,0,1-.19-1.19,3.6,3.6,0,0,1,.19-1.2,2.75,2.75,0,0,1,.56-1,2.51,2.51,0,0,1,.89-0.63,3.17,3.17,0,0,1,2.34,0,2.51,2.51,0,0,1,.89.63,2.82,2.82,0,0,1,.56,1A3.52,3.52,0,0,1,60.51,136.15Zm-1,0a2.85,2.85,0,0,0-.12-0.84,2.09,2.09,0,0,0-.35-0.68,1.61,1.61,0,0,0-.56-0.45,1.84,1.84,0,0,0-1.53,0,1.6,1.6,0,0,0-.56.45,2.08,2.08,0,0,0-.35.68,2.85,2.85,0,0,0-.12.84A2.8,2.8,0,0,0,56,137a2.08,2.08,0,0,0,.35.67,1.6,1.6,0,0,0,.56.45,1.85,1.85,0,0,0,1.53,0,1.61,1.61,0,0,0,.56-0.45,2.09,2.09,0,0,0,.35-0.67A2.8,2.8,0,0,0,59.48,136.16Z"/><path class="cls-6" d="M66.45,139v-0.93a2.36,2.36,0,0,1-.93.82,2.61,2.61,0,0,1-1.11.24,2.46,2.46,0,0,1-1.93-.86,2.77,2.77,0,0,1-.53-0.95,3.69,3.69,0,0,1-.18-1.17A3.73,3.73,0,0,1,62,135a2.84,2.84,0,0,1,.53-1,2.44,2.44,0,0,1,1.93-.87,2.54,2.54,0,0,1,1.11.25,2.42,2.42,0,0,1,.92.83v-3.08h1V139h-1Zm0-2.86a2.74,2.74,0,0,0-.12-0.82,2,2,0,0,0-.36-0.67,1.68,1.68,0,0,0-.58-0.45,1.83,1.83,0,0,0-.8-0.17,1.76,1.76,0,0,0-.79.17,1.6,1.6,0,0,0-.56.45,2,2,0,0,0-.34.67,2.85,2.85,0,0,0-.12.82,2.94,2.94,0,0,0,.11.81,2,2,0,0,0,.34.68,1.57,1.57,0,0,0,.57.46,1.79,1.79,0,0,0,.79.17,1.83,1.83,0,0,0,.8-0.17,1.68,1.68,0,0,0,.58-0.45,2,2,0,0,0,.36-0.67A2.74,2.74,0,0,0,66.45,136.14Z"/><path class="cls-6" d="M74.69,138.08a4.7,4.7,0,0,1-.13,1.15,2.21,2.21,0,0,1-.46.91,1.9,1.9,0,0,1-.48.42,3.06,3.06,0,0,1-.58.28,3.18,3.18,0,0,1-.64.15,5.4,5.4,0,0,1-.68,0,4,4,0,0,1-2.33-.68l0.48-.78a3.06,3.06,0,0,0,1.86.59,2.87,2.87,0,0,0,.79-0.1,1.72,1.72,0,0,0,.63-0.33,1.54,1.54,0,0,0,.42-0.58,2.18,2.18,0,0,0,.15-0.86v-0.59a2.54,2.54,0,0,1-.84.79,2.36,2.36,0,0,1-1.23.31,2.53,2.53,0,0,1-1.07-.22,2.46,2.46,0,0,1-.83-0.6,2.72,2.72,0,0,1-.53-0.89,3.24,3.24,0,0,1,0-2.18,2.73,2.73,0,0,1,.54-0.9,2.62,2.62,0,0,1,.84-0.61,2.54,2.54,0,0,1,1.08-.22,2.68,2.68,0,0,1,1.13.25,2.08,2.08,0,0,1,.89.8v-0.91h1v4.8Zm-1-2.12a2.22,2.22,0,0,0-.12-0.73,1.85,1.85,0,0,0-.35-0.62,1.71,1.71,0,0,0-.58-0.42,1.9,1.9,0,0,0-.81-0.16,1.83,1.83,0,0,0-.8.16,1.63,1.63,0,0,0-.56.43,1.8,1.8,0,0,0-.34.62,2.42,2.42,0,0,0-.11.73,2.46,2.46,0,0,0,.11.74,1.8,1.8,0,0,0,.34.62,1.68,1.68,0,0,0,.57.44,1.79,1.79,0,0,0,.79.17,1.89,1.89,0,0,0,.8-0.16,1.68,1.68,0,0,0,.58-0.44,1.92,1.92,0,0,0,.36-0.63A2.3,2.3,0,0,0,73.73,136Z"/><path class="cls-6" d="M76.61,131.65a0.59,0.59,0,0,1,.17-0.42,0.56,0.56,0,0,1,.42-0.17,0.58,0.58,0,0,1,.59.59,0.56,0.56,0,0,1-.17.42,0.59,0.59,0,0,1-.42.17A0.56,0.56,0,0,1,76.61,131.65ZM76.72,139v-5.72h1V139h-1Z"/><path class="cls-6" d="M79.71,139v-5.72h1v0.95a2.47,2.47,0,0,1,.84-0.8,2.25,2.25,0,0,1,1.12-.27,1.92,1.92,0,0,1,1.47.57,2.24,2.24,0,0,1,.53,1.6V139h-1v-3.46a2.8,2.8,0,0,0,0-.52,1.32,1.32,0,0,0-.19-0.48,1,1,0,0,0-.39-0.35A1.35,1.35,0,0,0,82.4,134a1.82,1.82,0,0,0-.68.13,1.56,1.56,0,0,0-.55.36,1.7,1.7,0,0,0-.36.57,1.94,1.94,0,0,0-.13.73V139h-1Z"/><path class="cls-6" d="M91.88,138.08a4.7,4.7,0,0,1-.13,1.15,2.21,2.21,0,0,1-.46.91,1.9,1.9,0,0,1-.48.42,3.06,3.06,0,0,1-.58.28,3.18,3.18,0,0,1-.64.15,5.41,5.41,0,0,1-.68,0,4,4,0,0,1-2.33-.68l0.48-.78a3.06,3.06,0,0,0,1.86.59,2.87,2.87,0,0,0,.79-0.1,1.72,1.72,0,0,0,.63-0.33,1.54,1.54,0,0,0,.42-0.58,2.18,2.18,0,0,0,.15-0.86v-0.59a2.54,2.54,0,0,1-.84.79,2.36,2.36,0,0,1-1.23.31,2.53,2.53,0,0,1-1.07-.22A2.46,2.46,0,0,1,87,138a2.73,2.73,0,0,1-.53-0.89,3.24,3.24,0,0,1,0-2.18A2.72,2.72,0,0,1,87,134a2.61,2.61,0,0,1,.84-0.61,2.53,2.53,0,0,1,1.08-.22,2.68,2.68,0,0,1,1.13.25,2.08,2.08,0,0,1,.89.8v-0.91h1v4.8Zm-1-2.12a2.22,2.22,0,0,0-.12-0.73,1.85,1.85,0,0,0-.35-0.62,1.71,1.71,0,0,0-.58-0.42,1.9,1.9,0,0,0-.81-0.16,1.82,1.82,0,0,0-.8.16,1.64,1.64,0,0,0-.56.43,1.79,1.79,0,0,0-.33.62,2.44,2.44,0,0,0-.11.73,2.48,2.48,0,0,0,.11.74,1.79,1.79,0,0,0,.33.62,1.7,1.7,0,0,0,.57.44,1.79,1.79,0,0,0,.79.17,1.89,1.89,0,0,0,.8-0.16,1.68,1.68,0,0,0,.58-0.44,1.92,1.92,0,0,0,.36-0.63A2.3,2.3,0,0,0,90.92,136Z"/></g></g><g id="membership-icon"><path id="Fill-1-3" data-name="Fill-1" class="cls-2" d="M75.85,57.77H69a0.56,0.56,0,1,0,0,1.12h6.84a0.56,0.56,0,0,0,0-1.12"/><path id="Fill-3-3" data-name="Fill-3" class="cls-2" d="M75.85,61.07H69a0.56,0.56,0,1,0,0,1.12h6.84a0.56,0.56,0,0,0,0-1.12"/><path id="Fill-5-3" data-name="Fill-5" class="cls-2" d="M75.85,64.37H69a0.56,0.56,0,1,0,0,1.12h6.84a0.56,0.56,0,0,0,0-1.12"/><g id="Group-9-2" data-name="Group-9"><path id="Fill-7-3" data-name="Fill-7" class="cls-2" d="M79.45,68.56a2.53,2.53,0,0,1-2.55,2.49H64.54V66.62A4.35,4.35,0,0,0,61.31,62a3.8,3.8,0,1,0-4.7,0,4.36,4.36,0,0,0-3.23,4.6v4.44H52.55A2.53,2.53,0,0,1,50,68.56V55.5A2.53,2.53,0,0,1,52.55,53H76.9a2.53,2.53,0,0,1,2.55,2.5V68.56ZM56.31,59.17a6.73,6.73,0,0,0,2.38-.65A8.48,8.48,0,0,0,59.58,58a5.42,5.42,0,0,0,2,.43,2.65,2.65,0,1,1-5.23.74h0ZM54.52,71.06V66.62c0-2.53,1.45-3.77,4.44-3.77s4.44,1.23,4.44,3.77v4.44H54.52ZM76.9,52H52.55A3.53,3.53,0,0,0,49,55.5V68.56a3.53,3.53,0,0,0,3.55,3.49H76.9a3.53,3.53,0,0,0,3.55-3.49V55.5A3.53,3.53,0,0,0,76.9,52h0Z"/></g></g><g id="Page-1-3" data-name="Page-1"><g id="Group-3"><g class="cls-7"><path id="Fill-1-4" data-name="Fill-1" class="cls-2" d="M199.62,168.19a4,4,0,0,1-1.68.34,2.28,2.28,0,0,0-4.51,0H181.81a2.29,2.29,0,0,0-4.5-.09c-1.76-.06-1.94-0.51-2.07-0.93a1.92,1.92,0,0,1-.05-0.77l0.39-.55V166s0-.72.06-1.34a1.18,1.18,0,0,0,.43-0.06c0.45-.15.62-0.5,0.38-0.78a0.9,0.9,0,0,0-.43-0.24,2.88,2.88,0,0,1,.37-0.09l0.23,0a5.46,5.46,0,0,0,2.52-.95,10.64,10.64,0,0,1,4-1.79,13.45,13.45,0,0,1,3,5.19,0.58,0.58,0,0,0,1.12,0,12.53,12.53,0,0,1,2.51-4.62l0.21,0.11c0.84,0.45,3.12,2.11,3.14,2.13l0.14,0.1h0.17a26.7,26.7,0,0,1,3.36.43,11,11,0,0,1,2.35.7,0.39,0.39,0,0,0-.22.55,1.19,1.19,0,0,0,.9.53,3.19,3.19,0,0,1-.2,2.32m-2.59.94a1.35,1.35,0,0,1-2.66,0,1.23,1.23,0,0,1,0-.2,1.35,1.35,0,0,1,2.71,0,1.33,1.33,0,0,1,0,.22m-16.21,0a1.29,1.29,0,0,1-2.56-.05,1.16,1.16,0,0,1,0-.14,1.3,1.3,0,0,1,2.59,0,1.21,1.21,0,0,1,0,.19m-0.72-16.22a6.59,6.59,0,0,1,13.17,0c0,2.51-1.48,4.23-3.2,6.23a19.73,19.73,0,0,0-3.39,4.92,19.76,19.76,0,0,0-3.39-4.92c-1.71-2-3.2-3.72-3.2-6.23m20.37,11.52c-0.33-.55-1.49-1-3.45-1.45a27,27,0,0,0-3.36-.44c-0.52-.38-2.35-1.69-3.15-2.11l0.45-.53c1.79-2.08,3.48-4,3.48-7a7.75,7.75,0,0,0-15.5,0c0,2.88,1.62,4.83,3.37,6.86a11.92,11.92,0,0,0-3.86,1.84,4.39,4.39,0,0,1-2,.75l-0.23,0c-1.46.27-1.68,1.06-1.68,1.51s0,1.49-.07,1.92l-0.34.48,0,0.12a3.13,3.13,0,0,0,.07,1.48c0.39,1.18,1.32,1.67,3.25,1.72a2.28,2.28,0,0,0,4.31.09h11.85a2.28,2.28,0,0,0,4.28,0c0.86,0,2.29-.19,2.74-0.85a4.6,4.6,0,0,0-.1-4.47"/></g></g><path id="Fill-4-2" data-name="Fill-4" class="cls-2" d="M186.59,155.41a2.87,2.87,0,1,0-2.87-2.87,2.87,2.87,0,0,0,2.87,2.87"/></g><g id="Page-1-4" data-name="Page-1"><g id="Group-3-2" data-name="Group-3"><g class="cls-8"><path id="Fill-1-5" data-name="Fill-1" class="cls-2" d="M176,62.45a12.41,12.41,0,1,1,12.41,12.41A12.42,12.42,0,0,1,176,62.45M188.45,49a13.45,13.45,0,1,0,13.45,13.45A13.46,13.46,0,0,0,188.45,49"/></g></g><path id="Fill-4-3" data-name="Fill-4" class="cls-2" d="M189.26,64v3.78c1.41-.13,2-0.88,2-1.87s-0.84-1.61-2-1.91h0Zm-1.32-3.56V57a1.74,1.74,0,0,0-2,1.67c0,1,.73,1.43,2,1.78h0Zm0,11V70.36a7.34,7.34,0,0,1-5.68-3.26l2.13-1.76a4.79,4.79,0,0,0,3.54,2.42V63.65c-1.94-.44-5-1.5-5-4.71,0-2.66,2.09-4.49,5-4.6v-1.1h1.32v1.19A6.89,6.89,0,0,1,194,57.09l-2,1.69A4.5,4.5,0,0,0,189.26,57v3.72c2.4,0.66,5,1.8,5,4.8,0,2.53-1.83,4.51-5,4.8v1.14h-1.32Z"/></g><path id="Line" class="cls-9" d="M15,96h95"/><path id="Line-2" data-name="Line" class="cls-9" d="M124.5,27.5v50"/><path id="Line-3" data-name="Line" class="cls-9" d="M124.5,124.5v50"/><path id="Line-4" data-name="Line" class="cls-9" d="M249.5,27.5v50"/><path id="Line-5" data-name="Line" class="cls-9" d="M249.5,124.5v50"/><path id="Line-6" data-name="Line" class="cls-9" d="M140,96h95"/><path id="Line-7" data-name="Line" class="cls-9" d="M266,96h95"/><g id="Page-1-5" data-name="Page-1"><path id="Fill-1-6" data-name="Fill-1" class="cls-2" d="M300,66.44l6,0.2a0.43,0.43,0,0,0,.45-0.43L306,64a0.45,0.45,0,0,0-.45-0.43,12.76,12.76,0,0,0-3.5.73A4.3,4.3,0,0,0,299.72,66a0.27,0.27,0,0,0,.25.42"/><path id="Fill-3-4" data-name="Fill-3" class="cls-2" d="M313.68,66.88c0.25,0,.32-0.14.16-0.33a8.94,8.94,0,0,0-4.32-2.74,17.33,17.33,0,0,0-2-.2,0.38,0.38,0,0,0-.45.42l0.38,2.2a0.49,0.49,0,0,0,.45.46Z"/><g id="Group-7"><path id="Fill-5-4" data-name="Fill-5" class="cls-2" d="M322.24,64.16l-3.33-3.33,1.24-1.24,1.5,1.51a0.84,0.84,0,0,0,1.18,0l4.89-4.88,1.24,1.23Zm0.83,2.26a21,21,0,0,0-2.17-.57c-0.57-.12-1.14-0.21-1.69-0.29A5,5,0,0,1,325,57.32l-2.8,2.79-1.51-1.51a0.85,0.85,0,0,0-1.17,0l-1.64,1.64a0.83,0.83,0,0,0,0,1.17l3.73,3.73a0.83,0.83,0,0,0,1.18,0l4.32-4.31a4.84,4.84,0,0,1,0,.62,5.06,5.06,0,0,1-4.12,5h0Zm1.3,6a4.6,4.6,0,0,1-2.24.5,2.88,2.88,0,0,0-5.74,0H301.71a2.88,2.88,0,0,0-5.73-.11c-2.37-.08-2.59-0.75-2.78-1.3a2.62,2.62,0,0,1-.07-1.1l0.48-.69V69.56s0-.51,0-1.06a1.43,1.43,0,0,0,.64-0.08c0.57-.2.79-0.64,0.48-1a1.41,1.41,0,0,0-1.06-.36c0-.08,0-0.16,0-0.22,0-.3.36-0.52,1.07-0.65l0.29-.05a6.74,6.74,0,0,0,3.1-1.16,13.31,13.31,0,0,1,7.66-2.58c3.94-.07,5.26.64,6.25,1.16s4,2.68,4,2.7l0.13,0.1h0.16a33.94,33.94,0,0,1,4.28.55,12.54,12.54,0,0,1,3.16,1,0.55,0.55,0,0,0-.5.79,1.57,1.57,0,0,0,1.33.69,4.2,4.2,0,0,1-.3,3h0Zm-5.1,2.5A1.71,1.71,0,1,1,321,73.22a1.71,1.71,0,0,1-1.71,1.71h0Zm-20.44-.08a1.64,1.64,0,1,1,1.64-1.64,1.64,1.64,0,0,1-1.64,1.64h0Zm31.35-17.39a0.83,0.83,0,0,0-.24-0.59l-1.63-1.64a0.85,0.85,0,0,0-1.18,0l-1.29,1.29a6.16,6.16,0,0,0-8.48,8.83l-0.73-.06c-0.59-.43-3-2.15-4-2.69s-2.58-1.36-6.78-1.29a14.38,14.38,0,0,0-8.28,2.78,5.68,5.68,0,0,1-2.66,1l-0.3.05c-1.63.3-2,1.11-2,1.73,0,0.46-.07,2-0.09,2.49l-0.44.62,0,0.11a3.76,3.76,0,0,0,.08,1.77c0.47,1.41,1.55,2,3.88,2.05a2.88,2.88,0,0,0,5.57.11h14.88A2.88,2.88,0,0,0,322,74c1.06,0,2.74-.23,3.26-1a5.61,5.61,0,0,0-.13-5.45,1.73,1.73,0,0,0-.56-0.51,6.13,6.13,0,0,0,3.51-7.2L329.93,58a0.83,0.83,0,0,0,.24-0.59h0Z"/></g></g><g id="Page-1-6" data-name="Page-1"><g class="cls-10"><path id="Fill-1-7" data-name="Fill-1" class="cls-2" d="M325.16,150a0.9,0.9,0,0,0-.16.21,0.62,0.62,0,0,0,0,.3,0.36,0.36,0,0,0-.09.09,1,1,0,0,0-.18.14,0.54,0.54,0,0,0-.11.17l0,0.09a0.53,0.53,0,0,0,0,.27v0l-0.06.15a0.53,0.53,0,0,0-.07.37l0,0.14a0.53,0.53,0,0,0,.12.26,0.84,0.84,0,0,0,0,.17,0.44,0.44,0,0,0,0,.11,0.53,0.53,0,0,0,0,.12l-0.26.11-0.09,0a0.91,0.91,0,0,0-.32.17,0.45,0.45,0,0,0-.09.1l-0.06,0-0.12.09a0.53,0.53,0,0,0-.21.23,0.52,0.52,0,0,0-.11.2l0,0.08a1.14,1.14,0,0,0-.07.28,0.7,0.7,0,0,0,.05.31,0.56,0.56,0,0,0,.08.13,0.53,0.53,0,0,0-.35.05,0.57,0.57,0,0,0-.17,0,0.63,0.63,0,0,0-.41.37v0l0,0a0.58,0.58,0,0,0-.17.41,0.43,0.43,0,0,0,0,.05l-0.14.08a0.73,0.73,0,0,0-.2.39,0.63,0.63,0,0,0,.06.34,0.68,0.68,0,0,0,.19.22,0.53,0.53,0,0,0,.25.1l0.23,0,0.1,0,0,0.09a0.61,0.61,0,0,0,0,.19,0.59,0.59,0,0,0,.31.38,0.57,0.57,0,0,0-.17.2,0.53,0.53,0,0,0,0,.43l0.05,0.14,0,0.09a0.55,0.55,0,0,0,0,.19,0.52,0.52,0,0,0,.07.22l-0.17.16a0.54,0.54,0,0,0-.12.19h0l-0.06.11-0.1,0-0.14.07a0.61,0.61,0,0,0-.26.4l-0.12.42,0,0a0.52,0.52,0,0,0-.06.13h0a0.47,0.47,0,0,0-.08.22l-0.07.11,0,0-0.1.13-0.29.07a0.57,0.57,0,0,0-.37.39,0.51,0.51,0,0,0,0,.2l0,0.07a0.41,0.41,0,0,0,0,.08l0,0a0.56,0.56,0,0,0,0,.13l-0.07.38s0,0.13,0,.15v0.08a0.52,0.52,0,0,0,0,.3l0,0.06a0.52,0.52,0,0,0,.07.31l0.31,0.52,0.3,0.38,0.09,0.09,0.27,0.22,0.07,0.13a0.55,0.55,0,0,0,.06.16l0.07,0.13a0.51,0.51,0,0,0,.1.13l0.41,0.45,0.09,0.27-0.15-.09-0.13,0-0.07-.08a0.55,0.55,0,0,0-.2-0.28,0.53,0.53,0,0,0-.29-0.23l-0.12,0h0a0.61,0.61,0,0,0-.27-0.51V164a0.56,0.56,0,0,0,0-.13l-0.07-.19-0.09-.16a0.89,0.89,0,0,0-.15-0.17,0.55,0.55,0,0,0-.28-0.12l-0.19-.07a0.74,0.74,0,0,0-.24-0.17l-0.27-.15a0.53,0.53,0,0,0-.17,0l-0.14,0h-0.16l-0.1,0-0.11,0a0.87,0.87,0,0,0-.28.18l0,0.05-0.1.06,0,0L318.8,163l-0.38-.09a0.64,0.64,0,0,0-.33-0.14H318l-0.14,0-0.13,0h0a0.51,0.51,0,0,0-.19,0,0.57,0.57,0,0,0-.25.09,0.53,0.53,0,0,0-.94.22l-0.15,0a0.53,0.53,0,0,0-.23.08,0.54,0.54,0,0,0-.23.08h0l-0.13,0a0.52,0.52,0,0,0-.33,0l-0.15.07a0.53,0.53,0,0,0-.31.42l0,0.12a0.53,0.53,0,0,0,0,.06l-0.11,0-0.22-.06a0.49,0.49,0,0,0-.2,0h-0.12a0.63,0.63,0,0,0-.33.17l-0.38-.05a0.48,0.48,0,0,0-.19,0l-0.56.12-0.14,0a0.76,0.76,0,0,0-.26-0.06,0.75,0.75,0,0,0-.27.08,0.84,0.84,0,0,0-.18.15,0.54,0.54,0,0,0-.13.41l0,0.19h0a0.54,0.54,0,0,0-.3,0,0.51,0.51,0,0,0-.18,0,0.6,0.6,0,0,0-.45.34,0.46,0.46,0,0,0,0,.1v0l-0.1.06a0.51,0.51,0,0,0-.19.25,0.53,0.53,0,0,0-.18.26,0.55,0.55,0,0,0,0,.21,0.62,0.62,0,0,0-.11.23,0.51,0.51,0,0,0,.05.35l-0.16,0h-0.08l-0.16-.15-0.22-.44a0.53,0.53,0,0,0-.25-0.25l-0.11,0-0.05-.08a0.54,0.54,0,0,0-.11-0.12l-0.15-.11-0.25-.4a0.53,0.53,0,0,0-.21-0.2l-0.07-.05-0.1-.09-0.3-.23a0.53,0.53,0,0,0-.39-0.13l-0.51,0h-0.08a0.52,0.52,0,0,0-.27,0l-0.14.05a0.79,0.79,0,0,0-.25.19l-0.07.11-0.08.16-0.25-.16-0.25-.52a0.53,0.53,0,0,0-.25-0.28L305,163.9l-0.2-.15-0.08-.09a0.53,0.53,0,0,0-.22-0.15h0a0.78,0.78,0,0,0-.26-0.2l-0.13-.06a0.31,0.31,0,0,0-.23-0.05h-0.17l3.25-1.76a4.4,4.4,0,0,0,.83.44,4.68,4.68,0,0,0,1.61.34h0.15a4.22,4.22,0,0,0,2-.45,10.24,10.24,0,0,0,1.66-1.33,1,1,0,0,0-.18-1.39,1,1,0,0,0-.56-0.19l-1.93-.06-0.66-1.22,0.73-1.18,1.94,0.06a1,1,0,0,0,.81-1.54,4.66,4.66,0,0,0-3.68-2h-0.13a4.65,4.65,0,0,0-4.63,4.24l-7,3.77a1.28,1.28,0,0,0-.24-0.09H297.6a0.78,0.78,0,0,0,0-.11,1.15,1.15,0,0,0-.12-0.28l0-.05a0.79,0.79,0,0,0-.18-0.27l-0.1-.12-0.21-.62a0.51,0.51,0,0,0,.06-0.16l0-.12a0.53,0.53,0,0,0,0-.29l0-.11,0-.07a0.59,0.59,0,0,0,0-.18h0a0.53,0.53,0,0,0-.12-0.84l-0.14-.08-0.13-.05-0.12,0-0.14-.54-0.07-.15v-0.16a0.78,0.78,0,0,0,.06-0.33,0.58,0.58,0,0,0,0-.16l-0.11-.3a0.53,0.53,0,0,0,.13-0.22l0.13-.35a0.54,0.54,0,0,0,0-.2v-0.47s0-.09,0-0.11l0-.13,0-.22,0-.07a0.7,0.7,0,0,0,.28-0.45l0.08-.14,0-.1,0-.09a0.6,0.6,0,0,0,.06-0.14l0.09-.31,0,0a0.51,0.51,0,0,0,.07-0.13l0.07-.19a0.51,0.51,0,0,0,.09-0.17,0.59,0.59,0,0,0,.39-0.2,0.56,0.56,0,0,0,0-.62,0.61,0.61,0,0,0,.39-0.18l0.17,0a0.53,0.53,0,0,0,.31-0.28l0.12-.32a0.55,0.55,0,0,0,0-.13c0.93,0.17,2.74.46,5.34,0.68a54.75,54.75,0,0,0,6.2.2,0.67,0.67,0,0,0,.41.15H311l0.16,0h0.16l0.1,0,0.13,0h0.06a0.53,0.53,0,0,0,.15.08l0.14,0,0.13,0-0.1.1-0.1.13a0.61,0.61,0,0,0,.11.76,0.75,0.75,0,0,0,.45.15l0.17,0,0.13,0,0.07,0a0.69,0.69,0,0,0,.21,0,0.85,0.85,0,0,0,.17,0l0.3,0a0.54,0.54,0,0,0,.22-0.11l0.12-.1,0.14,0,0.07,0,0.16,0.05a0.52,0.52,0,0,0,.36-0.07h0l0.1,0.06-0.13.31a0.78,0.78,0,0,0-.12.24l0,0.15a0.72,0.72,0,0,0,0,.32,0.53,0.53,0,0,0,.26.34,0.44,0.44,0,0,0,0,.06h0l0,0.09a0.55,0.55,0,0,0,0,.11v0.12a0.48,0.48,0,0,0,0,.16l0,0.15a0.5,0.5,0,0,0,0,.1l0.1,0.34a0.53,0.53,0,0,0,.09.2l0.18,0.25a1.23,1.23,0,0,0,.13.15,0.75,0.75,0,0,0,.32.15h0.34a0.53,0.53,0,0,0,.27-0.12l0.26-.21a0.66,0.66,0,0,0,.18-0.37l0.12-.48a0.52,0.52,0,0,0,0-.19L316.6,154a1,1,0,0,0-.14-0.28l-0.08-.09,0,0v-0.08a0.57,0.57,0,0,0,0-.16,0.62,0.62,0,0,0,.2-0.15l0.07-.1a0.53,0.53,0,0,0,.09-0.22l0.07-.08h0l0.07,0,0,0.07a1.05,1.05,0,0,0-.13.3,1.34,1.34,0,0,0,0,.21,0.64,0.64,0,0,0,.22.45,0.79,0.79,0,0,0,.38.14,0.66,0.66,0,0,0,.27-0.05,0.8,0.8,0,0,0,0,.14,0.51,0.51,0,0,0,0,.09l0,0.11a0.42,0.42,0,0,0,0,.06l-0.07.15a0.53,0.53,0,0,0,.45.73H318a0.93,0.93,0,0,0,.24,0h0.19l0.21,0a0.53,0.53,0,0,0,.21-0.06l0.22-.09a0.55,0.55,0,0,0,.24-0.12l0.27-.24,0.23-.13,0.13-.07,0.12-.1,0.06-.05a0.54,0.54,0,0,0,.16-0.11l0.3-.33,0.07-.07a0.67,0.67,0,0,0,.1-0.17l0.06-.09a0.53,0.53,0,0,0,.09-0.26,0.52,0.52,0,0,0,.39-0.07h0l0.2-.06,0.2-.11a0.54,0.54,0,0,0,.14-0.12l0.1-.09a0.63,0.63,0,0,0,.29-0.57,0.72,0.72,0,0,0-.08-0.22v-0.05l0-.07,0-.1h0l0.07-.09,1.69-.58a0.53,0.53,0,0,0,.34-0.34,0.55,0.55,0,0,0,.16-0.11,0.6,0.6,0,0,0,.15-0.13,0.55,0.55,0,0,0,.1-0.43,0.57,0.57,0,0,0,0-.34l-0.08-.2a0.72,0.72,0,0,0,0-.15v-0.07a0.55,0.55,0,0,0,0-.13,0.53,0.53,0,0,0,.19-0.08l0.31,0.54a0.52,0.52,0,0,0,.17.18l-0.15.09m1.72-.3a0.72,0.72,0,0,0-.18-0.29l0,0,0-.06-0.09-.1a0.51,0.51,0,0,0-.41-0.15,0.56,0.56,0,0,0-.21-0.12l-0.35-.61a0.53,0.53,0,0,0-.32-0.25l-0.35-.1a0.83,0.83,0,0,0-.4,0,0.54,0.54,0,0,0-.17.11,0.63,0.63,0,0,0-.63.27,0.54,0.54,0,0,0-.1.24l-0.07.45a0.54,0.54,0,0,0,0,.24l0,0.16a0.45,0.45,0,0,0,0,.06,1.25,1.25,0,0,0,0,.21,0.56,0.56,0,0,0,0,.13l0,0.06h0a0.66,0.66,0,0,0-.27.28l-1.54.52a0.54,0.54,0,0,0-.29.22l-0.18.23a0.71,0.71,0,0,0-.16.35l0,0a0.81,0.81,0,0,0-.16.32,0.55,0.55,0,0,0,0,.3l-0.07,0h-0.22l-0.11,0-0.11,0-0.28.11-0.36.22a0.59,0.59,0,0,0-.17.39,0.55,0.55,0,0,0,0,.26l-0.11.12a0.53,0.53,0,0,0-.25.18l-0.11.07-0.1.05-0.33.25h0v-0.26a1.2,1.2,0,0,0,0-.19,0.5,0.5,0,0,0-.21-0.31l-0.05-.12a0.51,0.51,0,0,0-.09-0.15l-0.07-.09-0.08-.08-0.18-.14a0.41,0.41,0,0,0-.17-0.08l0,0-0.07-.12a0.52,0.52,0,0,0-.16-0.34l-0.1-.1a1.13,1.13,0,0,0-.23-0.14h0a0.59,0.59,0,0,0-.1-0.23,0.58,0.58,0,0,0-.21-0.16v0a0.75,0.75,0,0,0-.18-0.19,0.52,0.52,0,0,0-.43-0.09h0a0.78,0.78,0,0,0-.48-0.09,0.52,0.52,0,0,0-.24.1l-0.25,0a0.54,0.54,0,0,0-.24.11l-0.08.06-0.06,0h0a0.54,0.54,0,0,0,0-.09,0.56,0.56,0,0,0-.66-0.47l-0.11,0-0.12,0-0.26.15,0-.1a0.55,0.55,0,0,0-.41-0.28l-0.12,0a0.52,0.52,0,0,0-.18,0l-0.18,0-0.1,0a1.15,1.15,0,0,0-.27,0l-0.09,0-0.15,0h0l-0.15,0-0.12-.06-0.27-.07h-0.38l-0.15,0h-0.11l-0.15,0-0.1-.07a0.53,0.53,0,0,0-.3-0.08,50.4,50.4,0,0,1-6.34-.19,46.34,46.34,0,0,1-5.93-.8,0.55,0.55,0,0,0-.48.17,0.53,0.53,0,0,0-.14.24l-0.18-.13a0.61,0.61,0,0,0-.69,0,1.23,1.23,0,0,0-.19.19,1.42,1.42,0,0,0-.11.22,1,1,0,0,0,0,.23,1.31,1.31,0,0,0,0,.22,0.5,0.5,0,0,0,0,.13v0l0,0.42a0.41,0.41,0,0,0,0,.07v0l0,0.1a1.17,1.17,0,0,0,0,.22,0.38,0.38,0,0,0,0,.09l0,0.1a1.09,1.09,0,0,0,0,.17,0.21,0.21,0,0,0,0,0,0.54,0.54,0,0,0-.07.13l-0.08.22,0,0a0.52,0.52,0,0,0-.08.16l-0.1.34a0.56,0.56,0,0,0-.06.12l-0.16.3,0,0,0,0a0.53,0.53,0,0,0-.1.13l-0.13.24a0.52,0.52,0,0,0-.06.21l-0.05.34a0.58,0.58,0,0,0,0,.17l0,0.28v0.25l-0.08.18-0.05.09a0.83,0.83,0,0,0-.23.36,1.08,1.08,0,0,0,0,.17,0.71,0.71,0,0,0,.11.36l0.09,0.25,0,0.07a0.57,0.57,0,0,0,0,.15v0.4a0.54,0.54,0,0,0,.08.28l0.2,0.65a0.73,0.73,0,0,0,0,.32,0.51,0.51,0,0,0,.1.16l0.06,0.07a0.55,0.55,0,0,0,0,.11l0,0.2a0.53,0.53,0,0,0,.1.31l0.07,0.09,0,0.13a0.78,0.78,0,0,0,0,.27l0.24,0.78,0.11,0.23,0.06,0.1,0.11,0.13a0.55,0.55,0,0,0,.09.21s0,0,0,.06v0.16a0.84,0.84,0,0,0,.06.24,0.81,0.81,0,0,0,.32.3l0.1,0,0.21,0.09a0.53,0.53,0,0,0,.26.07h0a0.53,0.53,0,0,0,.66.13l7-3.79,0.53-.28a0.61,0.61,0,0,0,.29-0.5,3.59,3.59,0,0,1,3.58-3.48h0.1a3.56,3.56,0,0,1,1.6.43,3.85,3.85,0,0,1,1.16,1l-2.08-.06a0.59,0.59,0,0,0-.47.25l-1,1.7a0.53,0.53,0,0,0,0,.53l0.95,1.76a0.54,0.54,0,0,0,.45.28l2,0a8.26,8.26,0,0,1-1.19.93,3.2,3.2,0,0,1-1.48.33h-0.12a3.66,3.66,0,0,1-1.24-.26,3.41,3.41,0,0,1-.85-0.49,0.53,0.53,0,0,0-.58-0.05l-5.37,2.9a0.53,0.53,0,0,0-.06.9l0.45,0.32a0.54,0.54,0,0,0,.19.09l0.11,0h0.68a0.58,0.58,0,0,0,.5-0.34h0.5a0.55,0.55,0,0,0,.25.19l0.06,0,0.09,0.08,0.32,0.23,0.2,0.11,0.13,0.35a0.52,0.52,0,0,0,.12.19l0.2,0.2,0.08,0.07,0.63,0.37a0.53,0.53,0,0,0,.18.05l0.3,0a0.53,0.53,0,0,0,.53-0.28l0.16-.32h0l0.36,0,0.19,0.16a0.57,0.57,0,0,0,.17.13l0.23,0.36a0.54,0.54,0,0,0,.13.15l0.16,0.13,0.09,0.13a0.54,0.54,0,0,0,.21.18l0.24,0.38a0.53,0.53,0,0,0,.09.14l0.26,0.26a0.53,0.53,0,0,0,.16.11l0.24,0.11a0.52,0.52,0,0,0,.22,0h0l0.21,0a0.66,0.66,0,0,0,.2,0h0.27l0.18,0.05,0.15,0H311a0.57,0.57,0,0,0,.49-0.36,0.56,0.56,0,0,0-.14-0.56l0-.07-0.06-.09,0,0a0.53,0.53,0,0,0,0-.12,0.52,0.52,0,0,0,0-.18s0-.09,0-0.13l0-.07,0.05-.12h0l0,0h0a0.61,0.61,0,0,0,.23,0l0.44-.22,0.11-.08,0.18-.14a0.86,0.86,0,0,0,.17-0.21,0.54,0.54,0,0,0,.06-0.14l0-.1,0.66-.2,0.28,0h0.1l0.38,0a0.53,0.53,0,0,0,.27-0.1h0l0.06,0.06a0.55,0.55,0,0,0,.41.14h0.2a0.49,0.49,0,0,0,.27,0l0.13,0h0.06a0.64,0.64,0,0,0,.3-0.08,0.83,0.83,0,0,0,.68,0,0.64,0.64,0,0,0,.29-0.42,0.63,0.63,0,0,0-.15-0.45h0.08a0.53,0.53,0,0,0,.36,0l0.44-.17,0.08,0h0.11l0.1,0,0.08,0h0l0.17,0,0.34,0.07,0,0a0.9,0.9,0,0,0,.23.14,0.54,0.54,0,0,0,.39,0l0.33-.12,0.13-.07,0.07,0,0.16-.08,0,0a0.74,0.74,0,0,0,.24.17l0.12,0.08,0.18,0.08,0,0.26a1.28,1.28,0,0,0,0,.16,0.55,0.55,0,0,0,0,.1l0.05,0.11,0.07,0.1,0.1,0.09,0,0.08a0.54,0.54,0,0,0,.1.15l0.4,0.34,0.11,0.06a0.53,0.53,0,0,0,.13.14l0.12,0.12,0.12,0.14a1.42,1.42,0,0,0,.2.14,0.53,0.53,0,0,0,.19.07,0.68,0.68,0,0,0,.13.23,0.83,0.83,0,0,0,.27.17,0.49,0.49,0,0,0,.3,0l0.17,0,0.11,0,0.18-.09a0.53,0.53,0,0,0,.48-0.34l0-.09a0.49,0.49,0,0,0,0-.4l0-.24a0.53,0.53,0,0,0,0-.16l-0.17-.59a0.53,0.53,0,0,0-.11-0.22L323,164l-0.1-.1,0-.09a0.55,0.55,0,0,0-.05-0.15l0-.09a0.51,0.51,0,0,0-.1-0.14l-0.44-.38-0.41-.6v-0.07h0a0.55,0.55,0,0,0,0-.13l0.05-.38,0,0a0.73,0.73,0,0,0,.2-0.24l0.07,0a0.54,0.54,0,0,0,.16-0.13l0.17-.2,0.09-.08a0.41,0.41,0,0,0,.07-0.11l0.12-.12a0.86,0.86,0,0,0,.13-0.32,0.33,0.33,0,0,0,0-.08l0-.09a0.54,0.54,0,0,0,.06-0.13l0.09-.31,0.12-.07,0.19-.14a0.58,0.58,0,0,0,.18-0.3l0.06-.11,0.2-.09a0.53,0.53,0,0,0,.22-0.13l0.14-.14a0.7,0.7,0,0,0,.16-0.44,0.39,0.39,0,0,0,0-.05,0.55,0.55,0,0,0,.09-0.14l0-.06a0.7,0.7,0,0,0,.06-0.62l-0.08-.15-0.06-.07v0l0-.36a1,1,0,0,0-.1-0.25v0a0.52,0.52,0,0,0-.05-0.17h0v0a0.55,0.55,0,0,0,0-.16v-0.18l0.06-.26a1.84,1.84,0,0,1,0-.37,0.53,0.53,0,0,0,0-.27h0a0.45,0.45,0,0,0,0-.12l0-.1a0.87,0.87,0,0,0,.09-0.25l0-.09a0.53,0.53,0,0,0,0-.23,0.52,0.52,0,0,0,0-.2v-0.15s0-.09,0-0.12a0.59,0.59,0,0,0-.07-0.15l0,0a0.43,0.43,0,0,0,.11-0.1l0.13-.06,0.4-.19,0.17-.11,0.08-.06,0.1-.1,0.11-.06,0,0h0.05a0.53,0.53,0,0,0,.24-0.11h0a0.54,0.54,0,0,0,.22-0.15l0.09-.1a0.66,0.66,0,0,0,.13-0.28,0.53,0.53,0,0,0-.08-0.38l-0.08-.11a0.64,0.64,0,0,0-.19-0.18,0.56,0.56,0,0,0-.42,0l-0.07-.1h0l0-.12a0.67,0.67,0,0,0,.17-0.18l0,0a0.43,0.43,0,0,0,.09-0.12l0.05,0A0.55,0.55,0,0,0,326,151a0.68,0.68,0,0,0,.24-0.13,0.53,0.53,0,0,0,.12-0.18l0,0,0.05-.07,0,0,0.06-.07,0,0a0.89,0.89,0,0,0,.22-0.24,0.64,0.64,0,0,0,0-.43"/></g></g></svg>