<?xml version="1.0" encoding="utf-8"?>
<!-- Generator: Adobe Illustrator 19.2.1, SVG Export Plug-In . SVG Version: 6.00 Build 0)  -->
<svg version="1.1" id="Layer_1" xmlns="http://www.w3.org/2000/svg" xmlns:xlink="http://www.w3.org/1999/xlink" x="0px" y="0px"
	 viewBox="0 0 375 200" style="enable-background:new 0 0 375 200;" xml:space="preserve">
<style type="text/css">
	.st0{opacity:0.8;fill:#EBEBEB;enable-background:new    ;}
	.st1{fill:#1967B0;}
	.st2{filter:url(#Adobe_OpacityMaskFilter);}
	.st3{fill:#FFFFFF;}
	.st4{mask:url(#mask-4_1_);fill:#1967B0;}
	.st5{filter:url(#Adobe_OpacityMaskFilter_1_);}
	.st6{mask:url(#mask-6_1_);fill:#1967B0;}
	.st7{enable-background:new    ;}
	.st8{fill:#1096D4;}
	.st9{filter:url(#Adobe_OpacityMaskFilter_2_);}
	.st10{mask:url(#mask-10_1_);fill:#1967B0;}
	.st11{filter:url(#Adobe_OpacityMaskFilter_3_);}
	.st12{mask:url(#mask-12_1_);fill:#1967B0;}
	.st13{opacity:0.7;fill:none;stroke:#D3D3D3;stroke-linecap:square;enable-background:new    ;}
	.st14{filter:url(#Adobe_OpacityMaskFilter_4_);}
	.st15{mask:url(#mask-14_1_);fill:#1967B0;}
</style>
<rect id="Rectangle-4" class="st0" width="375" height="200"/>
<g id="Group" transform="translate(35.000000, 577.000000)">
	<g id="Page-1" transform="translate(0.000000, 7.000000)">
		<path id="Fill-1_6_" class="st1" d="M15.5-419.6l-5.8-0.1c-0.1,0-0.2,0.1-0.2,0.2v2.9c0,0.1,0.1,0.2,0.2,0.2l5.8,0.1
			c0.1,0,0.2-0.1,0.2-0.2v-2.9C15.7-419.5,15.6-419.6,15.5-419.6"/>
		<path id="Fill-3_1_" class="st1" d="M8.4-419.7l-4.4,0c-0.1,0-0.2,0.1-0.2,0.2v2.8c0,0.1,0.1,0.2,0.2,0.2l4.4,0.1
			c0.1,0,0.2-0.1,0.2-0.2v-2.9C8.7-419.6,8.6-419.7,8.4-419.7"/>
		<path id="Fill-5_1_" class="st1" d="M18.8-419.4c-0.5-0.1-1.2-0.2-2.1-0.2c-0.2,0-0.2,0.1-0.2,0.2c0,0,0,3,0,3
			c0,0.1,0.1,0.2,0.2,0.2l5.8,0.1c0.2,0,0.3-0.2,0.2-0.4C22-417.2,20.6-419,18.8-419.4"/>
		<g id="Group-9" transform="translate(0.000000, 0.743400)">
			<g id="Clip-8">
			</g>
			<defs>
				<filter id="Adobe_OpacityMaskFilter" filterUnits="userSpaceOnUse" x="0" y="-422.7" width="30.2" height="13.7">
					<feColorMatrix  type="matrix" values="1 0 0 0 0  0 1 0 0 0  0 0 1 0 0  0 0 0 1 0"/>
				</filter>
			</defs>
			<mask maskUnits="userSpaceOnUse" x="0" y="-422.7" width="30.2" height="13.7" id="mask-4_1_">
				<g class="st2">
					<polygon id="path-3_1_" class="st3" points="30.2,-409 30.2,-422.7 0,-422.7 0,-409 					"/>
				</g>
			</mask>
			<path id="Fill-7_2_" class="st4" d="M29-412.3c-0.1,0.1-1,0.3-2.4,0.4c-0.1-1.3-1.2-2.3-2.5-2.3c-1.4,0-2.6,1.2-2.6,2.6l-12.7,0
				c0-1.4-1.2-2.6-2.6-2.6c-1.3,0-2.3,0.9-2.5,2.1c-0.3,0-0.6,0-0.9,0c-1.3,0-1.6-0.2-1.7-0.4C1-412.9,1-413.2,1-413.2
				c0,0,0.1-0.1,0.2-0.2l0.2-0.2v-1.7c0.4,0,0.7-0.3,0.7-0.5c0-0.3-0.3-0.5-0.7-0.5c0-1.1,0-1.8,0.4-3.1c0.4-1.4,1.1-2.3,1.5-2.3
				c0.6,0,1.4,0,2.3,0c1.2,0,2.6,0,4,0c4.7,0,7.9,0.2,9.6,0.7c2.4,0.6,4.9,3.1,4.9,3.1l0.1,0.1l0.1,0c0.3,0.1,0.5,0.2,0.8,0.3
				c1.3,0.5,2.7,1,3.3,1.6c-0.3,0.1-0.5,0.3-0.5,0.5c0,0.3,0.4,0.6,0.8,0.6c0,0,0.1,0,0.1,0c0,0.2,0,0.4,0,0.6l0,0.3l0.3,0.2
				c0,0,0.1,0.1,0.1,0.1l0,0.2C29.2-412.9,29.2-412.6,29-412.3L29-412.3z M24-410c-0.8,0-1.5-0.7-1.5-1.5c0-0.8,0.7-1.5,1.5-1.5
				c0.8,0,1.5,0.7,1.5,1.5C25.5-410.7,24.9-410,24-410L24-410z M6.2-410c-0.8,0-1.5-0.7-1.5-1.5c0-0.8,0.7-1.5,1.5-1.5
				c0.8,0,1.5,0.7,1.5,1.5C7.7-410.7,7-410,6.2-410L6.2-410z M30.2-414c0-0.1,0-0.3-0.4-0.6c0-0.5-0.1-1.3-0.5-1.8
				c-0.7-0.9-2.2-1.5-3.9-2.1c-0.2-0.1-0.5-0.2-0.7-0.2c-0.5-0.5-2.9-2.6-5.3-3.3c-1.8-0.5-4.9-0.7-9.8-0.7c-1.5,0-2.9,0-4.1,0
				c-0.9,0-1.7,0-2.3,0c-1.1,0-2.1,1.5-2.5,3c-0.4,1.5-0.4,2.3-0.4,3.5v2.1c-0.1,0.1-0.2,0.2-0.3,0.3c-0.2,0.4-0.2,1,0,1.6
				c0.4,1.1,1.7,1.1,2.6,1.1c0.3,0,0.4,0,0.9,0c0.3,1.1,1.3,2,2.5,2c1.1,0,2-0.6,2.4-1.5h13.1C22-409.6,23-409,24-409
				c1.2,0,2.1-0.8,2.5-1.8c2.8,0,3.2-0.6,3.4-0.8c0.4-0.6,0.4-1.3,0.4-2L30.2-414z"/>
		</g>
	</g>
	<g id="Page-1_1_" transform="translate(41.000000, 0.000000)">
		<polygon id="Fill-1_7_" class="st1" points="2.6,-414.2 4.6,-414.2 4.6,-416.6 2.6,-416.6 		"/>
		<polygon id="Fill-2" class="st1" points="8.6,-414.2 10.5,-414.2 10.5,-416.6 8.6,-416.6 		"/>
		<polygon id="Fill-3_2_" class="st1" points="14.5,-414.2 16.4,-414.2 16.4,-416.6 14.5,-416.6 		"/>
		<polygon id="Fill-4_2_" class="st1" points="2.6,-409.1 4.6,-409.1 4.6,-411.5 2.6,-411.5 		"/>
		<polygon id="Fill-5_2_" class="st1" points="8.6,-409.1 10.5,-409.1 10.5,-411.5 8.6,-411.5 		"/>
		<polygon id="Fill-6_1_" class="st1" points="14.5,-409.1 16.4,-409.1 16.4,-411.5 14.5,-411.5 		"/>
		<polygon id="Fill-7_3_" class="st1" points="2.6,-404.3 4.6,-404.3 4.6,-406.7 2.6,-406.7 		"/>
		<polygon id="Fill-8_1_" class="st1" points="14.5,-404.3 16.4,-404.3 16.4,-406.7 14.5,-406.7 		"/>
		<g id="Group-11" transform="translate(0.000000, 0.438500)">
			<g id="Clip-10">
			</g>
			<defs>
				<filter id="Adobe_OpacityMaskFilter_1_" filterUnits="userSpaceOnUse" x="0" y="-422.4" width="19.1" height="23.4">
					<feColorMatrix  type="matrix" values="1 0 0 0 0  0 1 0 0 0  0 0 1 0 0  0 0 0 1 0"/>
				</filter>
			</defs>
			<mask maskUnits="userSpaceOnUse" x="0" y="-422.4" width="19.1" height="23.4" id="mask-6_1_">
				<g class="st5">
					<polygon id="path-5_1_" class="st3" points="0,-399 19.1,-399 19.1,-422.4 0,-422.4 					"/>
				</g>
			</mask>
			<path id="Fill-9_1_" class="st6" d="M10.1-400.9v-4.1c0.4,0.1,0.7,0.2,0.8,0.3v3.8H10.1z M8.2-400.9v-3.8
				c0.2-0.1,0.4-0.2,0.8-0.3v4.1H8.2z M9.5-406.1c-1.7,0-2.4,0.9-2.4,0.9v4.3H1.1v-18.7h4h0.6l0.3-0.5c0.4-0.6,1.7-1.3,3.4-1.3h0.3
				c1.8,0,3.1,0.7,3.5,1.3l0.3,0.5H14h4v18.7h-6.1v-4.3C11.9-405.2,11.2-406.1,9.5-406.1L9.5-406.1z M14-420.7
				c-0.7-1-2.4-1.7-4.4-1.8H9.4c-2,0-3.7,0.7-4.4,1.8H0v20.9h7.1v0.8h4.8v-0.8h7.1v-20.9H14z"/>
		</g>
	</g>
	<path id="Fill-8_2_" class="st1" d="M34.9-409.8c-0.3,0-0.6,0.3-0.6,0.6v0.8h-0.8c-0.3,0-0.6,0.3-0.6,0.6c0,0.3,0.3,0.6,0.6,0.6
		h0.8v0.8c0,0.3,0.3,0.6,0.6,0.6c0.3,0,0.6-0.3,0.6-0.6v-0.8h0.8c0.3,0,0.6-0.3,0.6-0.6c0-0.3-0.3-0.6-0.6-0.6h-0.8v-0.8
		C35.5-409.5,35.2-409.8,34.9-409.8"/>
</g>
<g class="st7">
	<path class="st8" d="M168.7,125.8v3.2h-1v-7.9h3c0.9,0,1.6,0.2,2.1,0.6c0.5,0.4,0.7,1,0.7,1.7c0,0.4-0.1,0.7-0.2,1
		c-0.1,0.3-0.3,0.5-0.5,0.7s-0.5,0.4-0.9,0.5c-0.4,0.1-0.8,0.2-1.2,0.2H168.7z M170.7,124.9c0.6,0,1.1-0.1,1.3-0.4s0.4-0.6,0.4-1
		s-0.1-0.8-0.4-1c-0.3-0.2-0.7-0.4-1.3-0.4h-1.9v2.8H170.7z"/>
	<path class="st8" d="M176.7,129.1c-0.3,0-0.6,0-0.8-0.1c-0.2-0.1-0.5-0.2-0.6-0.3c-0.2-0.2-0.3-0.3-0.4-0.5
		c-0.1-0.2-0.1-0.5-0.1-0.7c0-0.3,0.1-0.6,0.2-0.8c0.1-0.2,0.3-0.4,0.5-0.5c0.2-0.1,0.4-0.2,0.6-0.3c0.2-0.1,0.4-0.1,0.6-0.1
		c0.2,0,0.4-0.1,0.7-0.1c0.2,0,0.4-0.1,0.6-0.1c0.2-0.1,0.3-0.1,0.4-0.2c0.1-0.1,0.2-0.2,0.2-0.4c0-0.3-0.1-0.5-0.4-0.6
		c-0.2-0.1-0.5-0.2-0.9-0.2c-0.7,0-1.3,0.2-1.8,0.6l-0.4-0.7c0.3-0.2,0.7-0.4,1.1-0.5c0.4-0.1,0.8-0.2,1.2-0.2c0.3,0,0.6,0,0.9,0.1
		c0.3,0.1,0.5,0.2,0.7,0.3s0.3,0.3,0.5,0.6c0.1,0.2,0.2,0.5,0.2,0.8v2.7c0,0.4,0.1,0.6,0.4,0.6c0.1,0,0.2,0,0.3-0.1l0.1,0.7
		c-0.1,0-0.2,0.1-0.3,0.1c-0.1,0-0.2,0-0.4,0c-0.3,0-0.5-0.1-0.7-0.2s-0.3-0.4-0.4-0.6c-0.2,0.3-0.4,0.5-0.7,0.7
		S177.1,129.1,176.7,129.1z M178.5,125.9c-0.1,0.1-0.2,0.2-0.3,0.2c-0.1,0.1-0.3,0.1-0.4,0.1c-0.1,0-0.3,0.1-0.5,0.1
		c-0.2,0-0.3,0-0.5,0.1c-0.2,0-0.3,0.1-0.5,0.1c-0.1,0-0.3,0.1-0.4,0.2s-0.2,0.2-0.3,0.3c-0.1,0.1-0.1,0.3-0.1,0.4
		c0,0.3,0.1,0.6,0.3,0.7s0.5,0.2,0.8,0.2c0.2,0,0.4,0,0.6-0.1c0.2-0.1,0.4-0.2,0.5-0.3c0.2-0.1,0.3-0.3,0.4-0.5
		c0.1-0.2,0.1-0.4,0.1-0.7V125.9z"/>
	<path class="st8" d="M184.7,124.2c-0.2-0.1-0.3-0.1-0.5-0.1c-0.2,0-0.4,0-0.6,0.1s-0.3,0.2-0.5,0.4c-0.1,0.2-0.2,0.4-0.3,0.6
		s-0.1,0.5-0.1,0.8v2.9h-1v-5.7h1v1c0.2-0.3,0.4-0.6,0.7-0.8c0.3-0.2,0.6-0.3,1-0.3c0.1,0,0.2,0,0.3,0c0.1,0,0.2,0,0.3,0.1
		L184.7,124.2z"/>
	<path class="st8" d="M189.9,123.3h1.2l-2.2,2.3l2.5,3.4h-1.2l-2-2.7l-1.1,1.1v1.6h-1v-7.9h1v5.1L189.9,123.3z"/>
	<path class="st8" d="M192.6,121.7c0-0.2,0.1-0.3,0.2-0.4c0.1-0.1,0.2-0.2,0.4-0.2c0.2,0,0.3,0.1,0.4,0.2c0.1,0.1,0.2,0.3,0.2,0.4
		c0,0.2-0.1,0.3-0.2,0.4c-0.1,0.1-0.3,0.2-0.4,0.2c-0.2,0-0.3-0.1-0.4-0.2C192.6,122,192.6,121.8,192.6,121.7z M192.7,129v-5.7h1
		v5.7H192.7z"/>
	<path class="st8" d="M195.8,129v-5.7h1v0.9c0.2-0.4,0.5-0.6,0.8-0.8c0.3-0.2,0.7-0.3,1.1-0.3c0.6,0,1.1,0.2,1.5,0.6
		c0.4,0.4,0.5,0.9,0.5,1.6v3.7h-1v-3.5c0-0.2,0-0.3,0-0.5c0-0.2-0.1-0.3-0.2-0.5c-0.1-0.1-0.2-0.3-0.4-0.4c-0.2-0.1-0.4-0.1-0.6-0.1
		c-0.2,0-0.5,0-0.7,0.1c-0.2,0.1-0.4,0.2-0.5,0.4c-0.2,0.2-0.3,0.3-0.4,0.6c-0.1,0.2-0.1,0.5-0.1,0.7v3.2H195.8z"/>
	<path class="st8" d="M208,128.1c0,0.4,0,0.8-0.1,1.1c-0.1,0.3-0.2,0.7-0.5,0.9c-0.1,0.2-0.3,0.3-0.5,0.4c-0.2,0.1-0.4,0.2-0.6,0.3
		c-0.2,0.1-0.4,0.1-0.6,0.2c-0.2,0-0.5,0-0.7,0c-0.9,0-1.7-0.2-2.3-0.7l0.5-0.8c0.2,0.2,0.5,0.3,0.8,0.4c0.3,0.1,0.6,0.2,1,0.2
		c0.3,0,0.5,0,0.8-0.1c0.2-0.1,0.5-0.2,0.6-0.3s0.3-0.3,0.4-0.6s0.2-0.5,0.2-0.9v-0.6c-0.2,0.3-0.5,0.6-0.8,0.8
		c-0.3,0.2-0.8,0.3-1.2,0.3c-0.4,0-0.7-0.1-1.1-0.2c-0.3-0.1-0.6-0.3-0.8-0.6c-0.2-0.3-0.4-0.6-0.5-0.9c-0.1-0.3-0.2-0.7-0.2-1.1
		c0-0.4,0.1-0.8,0.2-1.1s0.3-0.6,0.5-0.9c0.2-0.3,0.5-0.5,0.8-0.6c0.3-0.1,0.7-0.2,1.1-0.2c0.4,0,0.8,0.1,1.1,0.2s0.7,0.4,0.9,0.8
		v-0.9h1V128.1z M207.1,126c0-0.3,0-0.5-0.1-0.7s-0.2-0.4-0.4-0.6c-0.2-0.2-0.3-0.3-0.6-0.4c-0.2-0.1-0.5-0.2-0.8-0.2
		c-0.3,0-0.6,0.1-0.8,0.2c-0.2,0.1-0.4,0.2-0.6,0.4c-0.2,0.2-0.3,0.4-0.3,0.6s-0.1,0.5-0.1,0.7c0,0.3,0,0.5,0.1,0.7s0.2,0.4,0.3,0.6
		c0.2,0.2,0.3,0.3,0.6,0.4c0.2,0.1,0.5,0.2,0.8,0.2s0.6-0.1,0.8-0.2c0.2-0.1,0.4-0.3,0.6-0.4c0.2-0.2,0.3-0.4,0.4-0.6
		S207.1,126.2,207.1,126z"/>
</g>
<g class="st7">
	<path class="st8" d="M166.9,142l-1.9-3.2h-1.9v3.2h-1v-7.9h3.2c0.4,0,0.8,0.1,1.1,0.2c0.3,0.1,0.6,0.3,0.8,0.5
		c0.2,0.2,0.4,0.4,0.5,0.7c0.1,0.3,0.2,0.6,0.2,0.9c0,0.6-0.2,1.1-0.5,1.4c-0.3,0.4-0.8,0.7-1.4,0.8l2,3.3H166.9z M166.9,136.5
		c0-0.4-0.1-0.7-0.4-1s-0.7-0.4-1.2-0.4h-2.2v2.8h2.1c0.6,0,1-0.1,1.3-0.4C166.8,137.2,166.9,136.9,166.9,136.5z"/>
	<path class="st8" d="M169.3,139.2c0-0.4,0.1-0.8,0.2-1.2c0.1-0.4,0.3-0.7,0.5-1c0.2-0.3,0.5-0.5,0.9-0.6s0.7-0.2,1.2-0.2
		c0.4,0,0.8,0.1,1.1,0.2c0.3,0.1,0.6,0.3,0.9,0.6c0.2,0.2,0.4,0.5,0.5,0.9c0.1,0.3,0.2,0.7,0.2,1.1c0,0.1,0,0.2,0,0.3s0,0.1,0,0.2
		h-4.4c0,0.3,0.1,0.6,0.2,0.8c0.1,0.2,0.2,0.4,0.4,0.6c0.2,0.2,0.4,0.3,0.6,0.4s0.5,0.1,0.8,0.1c0.4,0,0.7-0.1,1-0.2
		c0.3-0.1,0.5-0.3,0.7-0.6l0.7,0.5c-0.1,0.2-0.3,0.3-0.4,0.4s-0.3,0.3-0.5,0.4c-0.2,0.1-0.4,0.2-0.7,0.3c-0.2,0.1-0.5,0.1-0.8,0.1
		c-0.5,0-0.9-0.1-1.2-0.2s-0.7-0.4-0.9-0.6s-0.4-0.6-0.6-0.9C169.3,140,169.3,139.6,169.3,139.2z M173.8,138.6
		c0-0.3-0.1-0.5-0.2-0.7c-0.1-0.2-0.2-0.4-0.4-0.5c-0.2-0.1-0.3-0.2-0.5-0.3c-0.2-0.1-0.4-0.1-0.6-0.1c-0.2,0-0.5,0-0.7,0.1
		c-0.2,0.1-0.4,0.2-0.5,0.3s-0.3,0.3-0.4,0.5c-0.1,0.2-0.1,0.4-0.2,0.7H173.8z"/>
	<path class="st8" d="M176.5,136.3h1v0.9c0.2-0.3,0.5-0.6,0.8-0.8s0.6-0.3,1-0.3c0.4,0,0.8,0.1,1.1,0.3c0.3,0.2,0.5,0.5,0.6,0.9
		c0.2-0.4,0.5-0.6,0.8-0.8c0.3-0.2,0.7-0.3,1.2-0.3c0.6,0,1.1,0.2,1.4,0.6c0.3,0.4,0.5,0.9,0.5,1.6v3.7h-1v-3.5c0-0.2,0-0.3,0-0.5
		c0-0.2-0.1-0.3-0.2-0.5c-0.1-0.1-0.2-0.2-0.4-0.3c-0.2-0.1-0.4-0.1-0.6-0.1c-0.5,0-0.9,0.2-1.2,0.5c-0.3,0.3-0.4,0.7-0.4,1.3v3.2
		h-1v-3.5c0-0.2,0-0.3,0-0.5c0-0.2-0.1-0.3-0.2-0.5s-0.2-0.2-0.4-0.3c-0.2-0.1-0.4-0.1-0.6-0.1c-0.2,0-0.5,0-0.6,0.1
		c-0.2,0.1-0.4,0.2-0.5,0.4s-0.2,0.3-0.3,0.5c-0.1,0.2-0.1,0.5-0.1,0.7v3.2h-1V136.3z"/>
	<path class="st8" d="M186.9,134.7c0-0.2,0.1-0.3,0.2-0.4s0.2-0.2,0.4-0.2c0.2,0,0.3,0.1,0.4,0.2s0.2,0.3,0.2,0.4
		c0,0.2-0.1,0.3-0.2,0.4c-0.1,0.1-0.3,0.2-0.4,0.2c-0.2,0-0.3-0.1-0.4-0.2C186.9,135,186.9,134.8,186.9,134.7z M187,142v-5.7h1v5.7
		H187z"/>
	<path class="st8" d="M190.1,142v-5.7h1v0.9c0.2-0.4,0.5-0.6,0.8-0.8c0.3-0.2,0.7-0.3,1.1-0.3c0.6,0,1.1,0.2,1.5,0.6
		c0.4,0.4,0.5,0.9,0.5,1.6v3.7h-1v-3.5c0-0.2,0-0.3,0-0.5c0-0.2-0.1-0.3-0.2-0.5c-0.1-0.1-0.2-0.3-0.4-0.4s-0.4-0.1-0.6-0.1
		c-0.2,0-0.5,0-0.7,0.1c-0.2,0.1-0.4,0.2-0.5,0.4c-0.2,0.2-0.3,0.3-0.4,0.6c-0.1,0.2-0.1,0.5-0.1,0.7v3.2H190.1z"/>
	<path class="st8" d="M201.4,142v-0.9c-0.3,0.4-0.6,0.7-0.9,0.8c-0.3,0.2-0.7,0.2-1.1,0.2c-0.4,0-0.8-0.1-1.1-0.2
		c-0.3-0.2-0.6-0.4-0.8-0.6c-0.2-0.3-0.4-0.6-0.5-0.9c-0.1-0.4-0.2-0.8-0.2-1.2c0-0.4,0.1-0.8,0.2-1.2c0.1-0.4,0.3-0.7,0.5-1
		c0.2-0.3,0.5-0.5,0.8-0.6c0.3-0.2,0.7-0.2,1.1-0.2c0.4,0,0.8,0.1,1.1,0.2s0.7,0.4,0.9,0.8v-3.1h1v7.9H201.4z M201.4,139.1
		c0-0.3,0-0.6-0.1-0.8s-0.2-0.5-0.4-0.7c-0.2-0.2-0.4-0.3-0.6-0.5c-0.2-0.1-0.5-0.2-0.8-0.2s-0.6,0.1-0.8,0.2
		c-0.2,0.1-0.4,0.3-0.6,0.5c-0.2,0.2-0.3,0.4-0.3,0.7c-0.1,0.3-0.1,0.5-0.1,0.8c0,0.3,0,0.6,0.1,0.8s0.2,0.5,0.3,0.7
		s0.3,0.3,0.6,0.5c0.2,0.1,0.5,0.2,0.8,0.2s0.6-0.1,0.8-0.2c0.2-0.1,0.4-0.3,0.6-0.5c0.2-0.2,0.3-0.4,0.4-0.7
		S201.4,139.4,201.4,139.1z"/>
	<path class="st8" d="M204.1,139.2c0-0.4,0.1-0.8,0.2-1.2c0.1-0.4,0.3-0.7,0.5-1c0.2-0.3,0.5-0.5,0.9-0.6s0.7-0.2,1.2-0.2
		c0.4,0,0.8,0.1,1.1,0.2c0.3,0.1,0.6,0.3,0.9,0.6c0.2,0.2,0.4,0.5,0.5,0.9c0.1,0.3,0.2,0.7,0.2,1.1c0,0.1,0,0.2,0,0.3
		c0,0.1,0,0.1,0,0.2h-4.4c0,0.3,0.1,0.6,0.2,0.8c0.1,0.2,0.2,0.4,0.4,0.6c0.2,0.2,0.4,0.3,0.6,0.4c0.2,0.1,0.5,0.1,0.8,0.1
		c0.4,0,0.7-0.1,1-0.2s0.5-0.3,0.7-0.6l0.7,0.5c-0.1,0.2-0.3,0.3-0.4,0.4c-0.2,0.1-0.3,0.3-0.5,0.4c-0.2,0.1-0.4,0.2-0.7,0.3
		c-0.2,0.1-0.5,0.1-0.8,0.1c-0.5,0-0.9-0.1-1.2-0.2s-0.7-0.4-0.9-0.6c-0.2-0.3-0.4-0.6-0.6-0.9C204.1,140,204.1,139.6,204.1,139.2z
		 M208.6,138.6c0-0.3-0.1-0.5-0.2-0.7c-0.1-0.2-0.2-0.4-0.4-0.5c-0.2-0.1-0.3-0.2-0.5-0.3c-0.2-0.1-0.4-0.1-0.6-0.1
		c-0.2,0-0.5,0-0.7,0.1c-0.2,0.1-0.4,0.2-0.5,0.3s-0.3,0.3-0.4,0.5c-0.1,0.2-0.1,0.4-0.2,0.7H208.6z"/>
	<path class="st8" d="M214.2,137.2c-0.2-0.1-0.3-0.1-0.5-0.1c-0.2,0-0.4,0-0.6,0.1c-0.2,0.1-0.3,0.2-0.5,0.4
		c-0.1,0.2-0.2,0.4-0.3,0.6s-0.1,0.5-0.1,0.8v2.9h-1v-5.7h1v1c0.2-0.3,0.4-0.6,0.7-0.8c0.3-0.2,0.6-0.3,1-0.3c0.1,0,0.2,0,0.3,0
		c0.1,0,0.2,0,0.3,0.1L214.2,137.2z"/>
</g>
<g class="st7">
	<path class="st8" d="M36,40v-6.6L33.5,40h-0.8l-2.5-6.6V40h-1v-7.9h1.5l2.4,6.4l2.5-6.4H37V40H36z"/>
	<path class="st8" d="M38.8,37.2c0-0.4,0.1-0.8,0.2-1.2c0.1-0.4,0.3-0.7,0.5-1c0.2-0.3,0.5-0.5,0.9-0.6s0.7-0.2,1.2-0.2
		c0.4,0,0.8,0.1,1.1,0.2c0.3,0.1,0.6,0.3,0.9,0.6c0.2,0.2,0.4,0.5,0.5,0.9c0.1,0.3,0.2,0.7,0.2,1.1c0,0.1,0,0.2,0,0.3
		c0,0.1,0,0.1,0,0.2h-4.4c0,0.3,0.1,0.6,0.2,0.8c0.1,0.2,0.2,0.4,0.4,0.6s0.4,0.3,0.6,0.4c0.2,0.1,0.5,0.1,0.8,0.1
		c0.4,0,0.7-0.1,1-0.2s0.5-0.3,0.7-0.6l0.7,0.5c-0.1,0.2-0.3,0.3-0.4,0.4c-0.2,0.1-0.3,0.3-0.5,0.4C43,39.9,42.8,40,42.5,40
		c-0.2,0.1-0.5,0.1-0.8,0.1c-0.5,0-0.9-0.1-1.2-0.2s-0.7-0.4-0.9-0.6c-0.2-0.3-0.4-0.6-0.6-0.9C38.9,38,38.8,37.6,38.8,37.2z
		 M43.3,36.6c0-0.3-0.1-0.5-0.2-0.7c-0.1-0.2-0.2-0.4-0.4-0.5c-0.2-0.1-0.3-0.2-0.5-0.3C42,35,41.8,35,41.6,35c-0.2,0-0.5,0-0.7,0.1
		c-0.2,0.1-0.4,0.2-0.5,0.3S40.1,35.8,40,36c-0.1,0.2-0.1,0.4-0.2,0.7H43.3z"/>
	<path class="st8" d="M45.9,34.3h1v0.9c0.2-0.3,0.5-0.6,0.8-0.8c0.3-0.2,0.6-0.3,1-0.3c0.4,0,0.8,0.1,1.1,0.3
		c0.3,0.2,0.5,0.5,0.6,0.9c0.2-0.4,0.5-0.6,0.8-0.8s0.7-0.3,1.2-0.3c0.6,0,1.1,0.2,1.4,0.6s0.5,0.9,0.5,1.6V40h-1v-3.5
		c0-0.2,0-0.3,0-0.5c0-0.2-0.1-0.3-0.2-0.5c-0.1-0.1-0.2-0.2-0.4-0.3S52.4,35,52.2,35c-0.5,0-0.9,0.2-1.2,0.5
		c-0.3,0.3-0.4,0.7-0.4,1.3V40h-1v-3.5c0-0.2,0-0.3,0-0.5c0-0.2-0.1-0.3-0.2-0.5s-0.2-0.2-0.4-0.3S48.7,35,48.4,35
		c-0.2,0-0.5,0-0.6,0.1c-0.2,0.1-0.4,0.2-0.5,0.4c-0.1,0.2-0.2,0.3-0.3,0.5c-0.1,0.2-0.1,0.5-0.1,0.7V40h-1V34.3z"/>
	<path class="st8" d="M57.3,32.1v3.1c0.3-0.4,0.6-0.7,0.9-0.8c0.3-0.2,0.7-0.2,1.1-0.2c0.4,0,0.8,0.1,1.1,0.2s0.6,0.4,0.8,0.6
		c0.2,0.3,0.4,0.6,0.5,0.9c0.1,0.4,0.2,0.8,0.2,1.2c0,0.4-0.1,0.8-0.2,1.2c-0.1,0.4-0.3,0.7-0.5,1c-0.2,0.3-0.5,0.5-0.8,0.6
		c-0.3,0.2-0.7,0.2-1.1,0.2c-0.4,0-0.8-0.1-1.1-0.2s-0.7-0.4-0.9-0.8V40h-1v-7.9H57.3z M57.3,37.1c0,0.3,0,0.6,0.1,0.8
		c0.1,0.3,0.2,0.5,0.4,0.7c0.2,0.2,0.4,0.3,0.6,0.5c0.2,0.1,0.5,0.2,0.8,0.2s0.6-0.1,0.8-0.2s0.4-0.3,0.6-0.5
		c0.2-0.2,0.3-0.4,0.3-0.7c0.1-0.3,0.1-0.5,0.1-0.8c0-0.3,0-0.6-0.1-0.8s-0.2-0.5-0.3-0.7c-0.2-0.2-0.3-0.3-0.6-0.5
		c-0.2-0.1-0.5-0.2-0.8-0.2s-0.6,0.1-0.8,0.2c-0.2,0.1-0.4,0.3-0.6,0.5c-0.2,0.2-0.3,0.4-0.4,0.7C57.3,36.6,57.3,36.8,57.3,37.1z"/>
	<path class="st8" d="M63.2,37.2c0-0.4,0.1-0.8,0.2-1.2c0.1-0.4,0.3-0.7,0.5-1c0.2-0.3,0.5-0.5,0.9-0.6s0.7-0.2,1.2-0.2
		c0.4,0,0.8,0.1,1.1,0.2c0.3,0.1,0.6,0.3,0.9,0.6c0.2,0.2,0.4,0.5,0.5,0.9c0.1,0.3,0.2,0.7,0.2,1.1c0,0.1,0,0.2,0,0.3
		c0,0.1,0,0.1,0,0.2h-4.4c0,0.3,0.1,0.6,0.2,0.8c0.1,0.2,0.2,0.4,0.4,0.6c0.2,0.2,0.4,0.3,0.6,0.4c0.2,0.1,0.5,0.1,0.8,0.1
		c0.4,0,0.7-0.1,1-0.2s0.5-0.3,0.7-0.6l0.7,0.5c-0.1,0.2-0.3,0.3-0.4,0.4c-0.2,0.1-0.3,0.3-0.5,0.4C67.4,39.9,67.2,40,67,40
		c-0.2,0.1-0.5,0.1-0.8,0.1c-0.5,0-0.9-0.1-1.2-0.2s-0.7-0.4-0.9-0.6c-0.2-0.3-0.4-0.6-0.6-0.9C63.3,38,63.2,37.6,63.2,37.2z
		 M67.7,36.6c0-0.3-0.1-0.5-0.2-0.7c-0.1-0.2-0.2-0.4-0.4-0.5c-0.2-0.1-0.3-0.2-0.5-0.3C66.4,35,66.2,35,66,35c-0.2,0-0.5,0-0.7,0.1
		c-0.2,0.1-0.4,0.2-0.5,0.3s-0.3,0.3-0.4,0.5c-0.1,0.2-0.1,0.4-0.2,0.7H67.7z"/>
	<path class="st8" d="M73.3,35.2c-0.2-0.1-0.3-0.1-0.5-0.1c-0.2,0-0.4,0-0.6,0.1c-0.2,0.1-0.3,0.2-0.5,0.4c-0.1,0.2-0.2,0.4-0.3,0.6
		s-0.1,0.5-0.1,0.8V40h-1v-5.7h1v1c0.2-0.3,0.4-0.6,0.7-0.8c0.3-0.2,0.6-0.3,1-0.3c0.1,0,0.2,0,0.3,0c0.1,0,0.2,0,0.3,0.1L73.3,35.2
		z"/>
	<path class="st8" d="M79,38.3c0,0.3-0.1,0.5-0.2,0.7c-0.1,0.2-0.3,0.4-0.5,0.6c-0.2,0.2-0.4,0.3-0.7,0.4c-0.3,0.1-0.6,0.1-1,0.1
		c-0.6,0-1.1-0.1-1.5-0.3c-0.4-0.2-0.7-0.5-1-0.8l0.7-0.6c0.4,0.6,1,0.9,1.8,0.9c0.5,0,0.8-0.1,1-0.3c0.2-0.2,0.3-0.4,0.3-0.6
		c0-0.2,0-0.3-0.1-0.4s-0.2-0.2-0.4-0.2c-0.1-0.1-0.3-0.1-0.5-0.1c-0.2,0-0.4-0.1-0.6-0.1c-0.2-0.1-0.5-0.1-0.7-0.2
		c-0.2-0.1-0.4-0.2-0.6-0.3c-0.2-0.1-0.3-0.3-0.4-0.5c-0.1-0.2-0.2-0.4-0.2-0.7c0-0.2,0-0.5,0.1-0.7c0.1-0.2,0.2-0.4,0.4-0.5
		s0.4-0.3,0.7-0.3c0.3-0.1,0.5-0.1,0.9-0.1c0.5,0,1,0.1,1.3,0.3s0.7,0.5,0.9,0.8l-0.7,0.5c-0.1-0.2-0.3-0.4-0.6-0.5
		C77.3,35.1,77,35,76.5,35c-0.4,0-0.7,0.1-0.8,0.2c-0.2,0.1-0.3,0.3-0.3,0.6c0,0.1,0,0.3,0.1,0.3s0.2,0.2,0.3,0.2s0.3,0.1,0.4,0.2
		s0.3,0.1,0.5,0.1c0.3,0.1,0.6,0.1,0.8,0.2s0.5,0.2,0.7,0.3c0.2,0.1,0.4,0.3,0.5,0.5C78.9,37.7,79,38,79,38.3z"/>
	<path class="st8" d="M80.6,40v-7.9h1v3.1c0.2-0.4,0.5-0.6,0.8-0.8c0.3-0.2,0.7-0.3,1.1-0.3c0.6,0,1.1,0.2,1.5,0.6
		c0.4,0.4,0.5,0.9,0.5,1.6V40h-1v-3.5c0-0.2,0-0.3,0-0.5c0-0.2-0.1-0.3-0.2-0.5c-0.1-0.1-0.2-0.3-0.4-0.4S83.6,35,83.3,35
		c-0.2,0-0.5,0-0.7,0.1c-0.2,0.1-0.4,0.2-0.5,0.4c-0.2,0.2-0.3,0.3-0.4,0.6c-0.1,0.2-0.1,0.5-0.1,0.7V40H80.6z"/>
	<path class="st8" d="M87.4,32.7c0-0.2,0.1-0.3,0.2-0.4c0.1-0.1,0.2-0.2,0.4-0.2c0.2,0,0.3,0.1,0.4,0.2s0.2,0.3,0.2,0.4
		c0,0.2-0.1,0.3-0.2,0.4c-0.1,0.1-0.3,0.2-0.4,0.2c-0.2,0-0.3-0.1-0.4-0.2C87.5,33,87.4,32.8,87.4,32.7z M87.5,40v-5.7h1V40H87.5z"
		/>
	<path class="st8" d="M91.5,34.3v0.9c0.3-0.4,0.6-0.7,0.9-0.8c0.3-0.2,0.7-0.2,1.1-0.2c0.4,0,0.8,0.1,1.1,0.2
		c0.3,0.2,0.6,0.4,0.8,0.6c0.2,0.3,0.4,0.6,0.5,0.9c0.1,0.4,0.2,0.8,0.2,1.2c0,0.4-0.1,0.8-0.2,1.2c-0.1,0.4-0.3,0.7-0.5,1
		c-0.2,0.3-0.5,0.5-0.8,0.6c-0.3,0.2-0.7,0.2-1.1,0.2c-0.4,0-0.8-0.1-1.1-0.2s-0.7-0.4-0.9-0.8v2.9h-1v-7.6H91.5z M91.5,37.1
		c0,0.3,0,0.6,0.1,0.8s0.2,0.5,0.4,0.7c0.2,0.2,0.4,0.3,0.6,0.5c0.2,0.1,0.5,0.2,0.8,0.2s0.6-0.1,0.8-0.2s0.4-0.3,0.6-0.5
		c0.1-0.2,0.3-0.4,0.3-0.7s0.1-0.5,0.1-0.8c0-0.3,0-0.6-0.1-0.8s-0.2-0.5-0.3-0.7s-0.3-0.3-0.6-0.5c-0.2-0.1-0.5-0.2-0.8-0.2
		s-0.6,0.1-0.8,0.2c-0.2,0.1-0.4,0.3-0.6,0.5c-0.2,0.2-0.3,0.4-0.4,0.7S91.5,36.8,91.5,37.1z"/>
	<path class="st8" d="M102.1,38.3c0,0.3-0.1,0.5-0.2,0.7c-0.1,0.2-0.3,0.4-0.5,0.6c-0.2,0.2-0.4,0.3-0.7,0.4c-0.3,0.1-0.6,0.1-1,0.1
		c-0.6,0-1.1-0.1-1.5-0.3c-0.4-0.2-0.7-0.5-1-0.8l0.7-0.6c0.4,0.6,1,0.9,1.8,0.9c0.5,0,0.8-0.1,1-0.3c0.2-0.2,0.3-0.4,0.3-0.6
		c0-0.2,0-0.3-0.1-0.4s-0.2-0.2-0.4-0.2c-0.1-0.1-0.3-0.1-0.5-0.1c-0.2,0-0.4-0.1-0.6-0.1c-0.2-0.1-0.5-0.1-0.7-0.2
		c-0.2-0.1-0.4-0.2-0.6-0.3c-0.2-0.1-0.3-0.3-0.4-0.5c-0.1-0.2-0.2-0.4-0.2-0.7c0-0.2,0-0.5,0.1-0.7c0.1-0.2,0.2-0.4,0.4-0.5
		s0.4-0.3,0.7-0.3c0.3-0.1,0.5-0.1,0.9-0.1c0.5,0,1,0.1,1.3,0.3s0.7,0.5,0.9,0.8l-0.7,0.5c-0.1-0.2-0.3-0.4-0.6-0.5
		c-0.3-0.2-0.6-0.2-1.1-0.2c-0.4,0-0.7,0.1-0.8,0.2c-0.2,0.1-0.3,0.3-0.3,0.6c0,0.1,0,0.3,0.1,0.3s0.2,0.2,0.3,0.2s0.3,0.1,0.4,0.2
		s0.3,0.1,0.5,0.1c0.3,0.1,0.6,0.1,0.8,0.2s0.5,0.2,0.7,0.3c0.2,0.1,0.4,0.3,0.5,0.5C102,37.7,102.1,38,102.1,38.3z"/>
</g>
<g class="st7">
	<path class="st8" d="M162.1,39v-7.9h3c0.6,0,1.1,0.1,1.6,0.3c0.5,0.2,0.9,0.5,1.2,0.8c0.3,0.4,0.6,0.8,0.7,1.2s0.2,1,0.2,1.6
		c0,0.6-0.1,1.1-0.2,1.6s-0.4,0.9-0.7,1.2c-0.3,0.4-0.7,0.6-1.2,0.8c-0.5,0.2-1,0.3-1.6,0.3H162.1z M165.1,38.1
		c0.4,0,0.8-0.1,1.1-0.2s0.6-0.3,0.8-0.6c0.2-0.3,0.4-0.6,0.5-0.9c0.1-0.4,0.2-0.8,0.2-1.2c0-0.4-0.1-0.9-0.2-1.2
		c-0.1-0.4-0.3-0.7-0.5-0.9c-0.2-0.3-0.5-0.5-0.8-0.6s-0.7-0.2-1.1-0.2h-1.9v6H165.1z"/>
	<path class="st8" d="M170.4,31.7c0-0.2,0.1-0.3,0.2-0.4s0.2-0.2,0.4-0.2c0.2,0,0.3,0.1,0.4,0.2s0.2,0.3,0.2,0.4
		c0,0.2-0.1,0.3-0.2,0.4c-0.1,0.1-0.3,0.2-0.4,0.2c-0.2,0-0.3-0.1-0.4-0.2C170.4,32,170.4,31.8,170.4,31.7z M170.5,39v-5.7h1V39
		H170.5z"/>
	<path class="st8" d="M177.7,37.3c0,0.3-0.1,0.5-0.2,0.7c-0.1,0.2-0.3,0.4-0.5,0.6c-0.2,0.2-0.4,0.3-0.7,0.4c-0.3,0.1-0.6,0.1-1,0.1
		c-0.6,0-1.1-0.1-1.5-0.3c-0.4-0.2-0.7-0.5-1-0.8l0.7-0.6c0.4,0.6,1,0.9,1.8,0.9c0.5,0,0.8-0.1,1-0.3c0.2-0.2,0.3-0.4,0.3-0.6
		c0-0.2,0-0.3-0.1-0.4c-0.1-0.1-0.2-0.2-0.4-0.2c-0.1-0.1-0.3-0.1-0.5-0.1c-0.2,0-0.4-0.1-0.6-0.1c-0.2-0.1-0.5-0.1-0.7-0.2
		c-0.2-0.1-0.4-0.2-0.6-0.3c-0.2-0.1-0.3-0.3-0.4-0.5c-0.1-0.2-0.2-0.4-0.2-0.7c0-0.2,0-0.5,0.1-0.7c0.1-0.2,0.2-0.4,0.4-0.5
		s0.4-0.3,0.7-0.3c0.3-0.1,0.5-0.1,0.9-0.1c0.5,0,1,0.1,1.3,0.3s0.7,0.5,0.9,0.8l-0.7,0.5c-0.1-0.2-0.3-0.4-0.6-0.5
		c-0.3-0.2-0.6-0.2-1.1-0.2c-0.4,0-0.7,0.1-0.8,0.2c-0.2,0.1-0.3,0.3-0.3,0.6c0,0.1,0,0.3,0.1,0.3c0.1,0.1,0.2,0.2,0.3,0.2
		s0.3,0.1,0.4,0.2s0.3,0.1,0.5,0.1c0.3,0.1,0.6,0.1,0.8,0.2s0.5,0.2,0.7,0.3c0.2,0.1,0.4,0.3,0.5,0.5
		C177.6,36.7,177.7,37,177.7,37.3z"/>
	<path class="st8" d="M181.7,33.1c0.5,0,1,0.1,1.4,0.3s0.7,0.5,0.9,0.8l-0.7,0.5c-0.2-0.3-0.4-0.5-0.6-0.6c-0.2-0.1-0.5-0.2-0.9-0.2
		c-0.3,0-0.5,0.1-0.7,0.2c-0.2,0.1-0.4,0.3-0.6,0.4c-0.2,0.2-0.3,0.4-0.4,0.7c-0.1,0.3-0.1,0.5-0.1,0.9c0,0.3,0,0.6,0.1,0.9
		c0.1,0.3,0.2,0.5,0.4,0.7c0.2,0.2,0.3,0.3,0.6,0.4c0.2,0.1,0.5,0.2,0.8,0.2c0.4,0,0.7-0.1,0.9-0.3c0.3-0.2,0.5-0.4,0.6-0.6l0.7,0.5
		c-0.3,0.3-0.6,0.6-1,0.9c-0.4,0.2-0.8,0.3-1.4,0.3c-0.4,0-0.8-0.1-1.1-0.2c-0.3-0.2-0.6-0.4-0.9-0.6c-0.2-0.3-0.4-0.6-0.6-1
		c-0.1-0.4-0.2-0.8-0.2-1.2c0-0.4,0.1-0.8,0.2-1.2c0.1-0.4,0.3-0.7,0.6-1c0.2-0.3,0.5-0.5,0.9-0.6C180.9,33.2,181.3,33.1,181.7,33.1
		z"/>
	<path class="st8" d="M190.7,36.2c0,0.4-0.1,0.8-0.2,1.2c-0.1,0.4-0.3,0.7-0.6,0.9c-0.2,0.3-0.5,0.5-0.9,0.6
		c-0.3,0.2-0.7,0.2-1.2,0.2c-0.4,0-0.8-0.1-1.2-0.2s-0.6-0.4-0.9-0.6c-0.2-0.3-0.4-0.6-0.6-0.9c-0.1-0.4-0.2-0.8-0.2-1.2
		s0.1-0.8,0.2-1.2c0.1-0.4,0.3-0.7,0.6-1c0.2-0.3,0.5-0.5,0.9-0.6c0.3-0.1,0.7-0.2,1.2-0.2c0.4,0,0.8,0.1,1.2,0.2
		c0.3,0.2,0.6,0.4,0.9,0.6c0.2,0.3,0.4,0.6,0.6,1C190.6,35.3,190.7,35.7,190.7,36.2z M189.7,36.2c0-0.3,0-0.6-0.1-0.8
		c-0.1-0.3-0.2-0.5-0.3-0.7s-0.3-0.3-0.6-0.5s-0.5-0.2-0.8-0.2c-0.3,0-0.5,0.1-0.8,0.2c-0.2,0.1-0.4,0.3-0.6,0.5
		c-0.2,0.2-0.3,0.4-0.3,0.7c-0.1,0.3-0.1,0.5-0.1,0.8c0,0.3,0,0.6,0.1,0.8c0.1,0.3,0.2,0.5,0.3,0.7c0.1,0.2,0.3,0.3,0.6,0.5
		c0.2,0.1,0.5,0.2,0.8,0.2c0.3,0,0.5-0.1,0.8-0.2s0.4-0.3,0.6-0.5c0.2-0.2,0.3-0.4,0.3-0.7C189.6,36.7,189.7,36.5,189.7,36.2z"/>
	<path class="st8" d="M197.2,33.3V39h-1v-0.9c-0.2,0.3-0.5,0.6-0.8,0.8c-0.3,0.2-0.7,0.3-1.1,0.3c-0.6,0-1.1-0.2-1.5-0.6
		c-0.4-0.4-0.5-0.9-0.5-1.6v-3.7h1v3.5c0,0.2,0,0.3,0,0.5c0,0.2,0.1,0.3,0.2,0.5c0.1,0.1,0.2,0.3,0.4,0.4c0.2,0.1,0.4,0.1,0.6,0.1
		c0.2,0,0.5,0,0.7-0.1c0.2-0.1,0.4-0.2,0.5-0.4c0.2-0.2,0.3-0.3,0.4-0.6c0.1-0.2,0.1-0.5,0.1-0.7v-3.2H197.2z"/>
	<path class="st8" d="M199.3,39v-5.7h1v0.9c0.2-0.4,0.5-0.6,0.8-0.8c0.3-0.2,0.7-0.3,1.1-0.3c0.6,0,1.1,0.2,1.5,0.6
		c0.4,0.4,0.5,0.9,0.5,1.6V39h-1v-3.5c0-0.2,0-0.3,0-0.5c0-0.2-0.1-0.3-0.2-0.5c-0.1-0.1-0.2-0.3-0.4-0.4s-0.4-0.1-0.6-0.1
		c-0.2,0-0.5,0-0.7,0.1c-0.2,0.1-0.4,0.2-0.5,0.4c-0.2,0.2-0.3,0.3-0.4,0.6c-0.1,0.2-0.1,0.5-0.1,0.7V39H199.3z"/>
	<path class="st8" d="M209.6,38.7c-0.3,0.3-0.7,0.4-1.3,0.4c-0.3,0-0.6-0.1-0.8-0.2c-0.2-0.1-0.5-0.3-0.6-0.6
		c-0.1-0.1-0.2-0.3-0.2-0.5c0-0.2-0.1-0.4-0.1-0.7v-3.2h-1.1v-0.7c0.2,0,0.4-0.1,0.5-0.1s0.3-0.1,0.4-0.2c0.1-0.1,0.2-0.3,0.2-0.5
		c0.1-0.2,0.1-0.5,0.1-0.8h0.8v1.5h1.8v0.8h-1.8v3.2c0,0.7,0.3,1,0.8,1c0.2,0,0.3,0,0.5-0.1s0.3-0.1,0.4-0.2L209.6,38.7z"/>
	<path class="st8" d="M215.1,37.3c0,0.3-0.1,0.5-0.2,0.7c-0.1,0.2-0.3,0.4-0.5,0.6c-0.2,0.2-0.4,0.3-0.7,0.4c-0.3,0.1-0.6,0.1-1,0.1
		c-0.6,0-1.1-0.1-1.5-0.3c-0.4-0.2-0.7-0.5-1-0.8l0.7-0.6c0.4,0.6,1,0.9,1.8,0.9c0.5,0,0.8-0.1,1-0.3c0.2-0.2,0.3-0.4,0.3-0.6
		c0-0.2,0-0.3-0.1-0.4s-0.2-0.2-0.4-0.2c-0.1-0.1-0.3-0.1-0.5-0.1c-0.2,0-0.4-0.1-0.6-0.1c-0.2-0.1-0.5-0.1-0.7-0.2
		c-0.2-0.1-0.4-0.2-0.6-0.3c-0.2-0.1-0.3-0.3-0.4-0.5c-0.1-0.2-0.2-0.4-0.2-0.7c0-0.2,0-0.5,0.1-0.7c0.1-0.2,0.2-0.4,0.4-0.5
		s0.4-0.3,0.7-0.3c0.3-0.1,0.5-0.1,0.9-0.1c0.5,0,1,0.1,1.3,0.3s0.7,0.5,0.9,0.8l-0.7,0.5c-0.1-0.2-0.3-0.4-0.6-0.5
		c-0.3-0.2-0.6-0.2-1.1-0.2c-0.4,0-0.7,0.1-0.8,0.2c-0.2,0.1-0.3,0.3-0.3,0.6c0,0.1,0,0.3,0.1,0.3s0.2,0.2,0.3,0.2s0.3,0.1,0.4,0.2
		s0.3,0.1,0.5,0.1c0.3,0.1,0.6,0.1,0.8,0.2s0.5,0.2,0.7,0.3c0.2,0.1,0.4,0.3,0.5,0.5C215.1,36.7,215.1,37,215.1,37.3z"/>
</g>
<g class="st7">
	<path class="st8" d="M298.2,29.1l-2.8,7.9h-1.1l-2.8-7.9h1.1l2.3,6.6l2.3-6.6H298.2z"/>
	<path class="st8" d="M298.7,34.2c0-0.4,0.1-0.8,0.2-1.2c0.1-0.4,0.3-0.7,0.5-1c0.2-0.3,0.5-0.5,0.9-0.6c0.3-0.2,0.7-0.2,1.2-0.2
		c0.4,0,0.8,0.1,1.1,0.2c0.3,0.1,0.6,0.3,0.9,0.6c0.2,0.2,0.4,0.5,0.5,0.9c0.1,0.3,0.2,0.7,0.2,1.1c0,0.1,0,0.2,0,0.3
		c0,0.1,0,0.1,0,0.2h-4.4c0,0.3,0.1,0.6,0.2,0.8c0.1,0.2,0.2,0.4,0.4,0.6c0.2,0.2,0.4,0.3,0.6,0.4c0.2,0.1,0.5,0.1,0.8,0.1
		c0.4,0,0.7-0.1,1-0.2c0.3-0.1,0.5-0.3,0.7-0.6L304,36c-0.1,0.2-0.3,0.3-0.4,0.4s-0.3,0.3-0.5,0.4c-0.2,0.1-0.4,0.2-0.7,0.3
		c-0.2,0.1-0.5,0.1-0.8,0.1c-0.5,0-0.9-0.1-1.2-0.2s-0.7-0.4-0.9-0.6c-0.2-0.3-0.4-0.6-0.6-0.9C298.7,35,298.7,34.6,298.7,34.2z
		 M303.2,33.6c0-0.3-0.1-0.5-0.2-0.7c-0.1-0.2-0.2-0.4-0.4-0.5c-0.2-0.1-0.3-0.2-0.5-0.3c-0.2-0.1-0.4-0.1-0.6-0.1
		c-0.2,0-0.5,0-0.7,0.1c-0.2,0.1-0.4,0.2-0.5,0.3s-0.3,0.3-0.4,0.5c-0.1,0.2-0.1,0.4-0.2,0.7H303.2z"/>
	<path class="st8" d="M305.8,37v-7.9h1v3.1c0.2-0.4,0.5-0.6,0.8-0.8c0.3-0.2,0.7-0.3,1.1-0.3c0.6,0,1.1,0.2,1.5,0.6
		c0.4,0.4,0.5,0.9,0.5,1.6V37h-1v-3.5c0-0.2,0-0.3,0-0.5c0-0.2-0.1-0.3-0.2-0.5c-0.1-0.1-0.2-0.3-0.4-0.4c-0.2-0.1-0.4-0.1-0.6-0.1
		c-0.2,0-0.5,0-0.7,0.1c-0.2,0.1-0.4,0.2-0.5,0.4c-0.2,0.2-0.3,0.3-0.4,0.6c-0.1,0.2-0.1,0.5-0.1,0.7V37H305.8z"/>
	<path class="st8" d="M312.6,29.7c0-0.2,0.1-0.3,0.2-0.4c0.1-0.1,0.2-0.2,0.4-0.2c0.2,0,0.3,0.1,0.4,0.2s0.2,0.3,0.2,0.4
		c0,0.2-0.1,0.3-0.2,0.4c-0.1,0.1-0.3,0.2-0.4,0.2c-0.2,0-0.3-0.1-0.4-0.2C312.6,30,312.6,29.8,312.6,29.7z M312.7,37v-5.7h1V37
		H312.7z"/>
	<path class="st8" d="M318,31.1c0.5,0,1,0.1,1.4,0.3s0.7,0.5,0.9,0.8l-0.7,0.5c-0.2-0.3-0.4-0.5-0.6-0.6c-0.2-0.1-0.5-0.2-0.9-0.2
		c-0.3,0-0.5,0.1-0.7,0.2c-0.2,0.1-0.4,0.3-0.6,0.4c-0.2,0.2-0.3,0.4-0.4,0.7c-0.1,0.3-0.1,0.5-0.1,0.9c0,0.3,0,0.6,0.1,0.9
		c0.1,0.3,0.2,0.5,0.4,0.7c0.2,0.2,0.3,0.3,0.6,0.4c0.2,0.1,0.5,0.2,0.8,0.2c0.4,0,0.7-0.1,0.9-0.3c0.3-0.2,0.5-0.4,0.6-0.6l0.7,0.5
		c-0.3,0.3-0.6,0.6-1,0.9c-0.4,0.2-0.8,0.3-1.4,0.3c-0.4,0-0.8-0.1-1.1-0.2s-0.6-0.4-0.9-0.6c-0.2-0.3-0.4-0.6-0.6-1
		c-0.1-0.4-0.2-0.8-0.2-1.2c0-0.4,0.1-0.8,0.2-1.2c0.1-0.4,0.3-0.7,0.6-1c0.2-0.3,0.5-0.5,0.9-0.6C317.2,31.2,317.6,31.1,318,31.1z"
		/>
	<path class="st8" d="M321.8,37v-7.9h1V37H321.8z"/>
	<path class="st8" d="M324.4,34.2c0-0.4,0.1-0.8,0.2-1.2c0.1-0.4,0.3-0.7,0.5-1c0.2-0.3,0.5-0.5,0.9-0.6c0.3-0.2,0.7-0.2,1.2-0.2
		c0.4,0,0.8,0.1,1.1,0.2c0.3,0.1,0.6,0.3,0.9,0.6c0.2,0.2,0.4,0.5,0.5,0.9c0.1,0.3,0.2,0.7,0.2,1.1c0,0.1,0,0.2,0,0.3
		c0,0.1,0,0.1,0,0.2h-4.4c0,0.3,0.1,0.6,0.2,0.8c0.1,0.2,0.2,0.4,0.4,0.6s0.4,0.3,0.6,0.4c0.2,0.1,0.5,0.1,0.8,0.1
		c0.4,0,0.7-0.1,1-0.2s0.5-0.3,0.7-0.6l0.7,0.5c-0.1,0.2-0.3,0.3-0.4,0.4c-0.2,0.1-0.3,0.3-0.5,0.4c-0.2,0.1-0.4,0.2-0.7,0.3
		c-0.2,0.1-0.5,0.1-0.8,0.1c-0.5,0-0.9-0.1-1.2-0.2c-0.4-0.2-0.7-0.4-0.9-0.6s-0.4-0.6-0.6-0.9C324.5,35,324.4,34.6,324.4,34.2z
		 M329,33.6c0-0.3-0.1-0.5-0.2-0.7c-0.1-0.2-0.2-0.4-0.4-0.5c-0.2-0.1-0.3-0.2-0.5-0.3c-0.2-0.1-0.4-0.1-0.6-0.1
		c-0.2,0-0.5,0-0.7,0.1c-0.2,0.1-0.4,0.2-0.5,0.3s-0.3,0.3-0.4,0.5c-0.1,0.2-0.1,0.4-0.2,0.7H329z"/>
</g>
<g class="st7">
	<path class="st8" d="M299.1,50v-3.7h-4.2V50h-1v-7.9h1v3.2h4.2v-3.2h1V50H299.1z"/>
	<path class="st8" d="M301.8,47.2c0-0.4,0.1-0.8,0.2-1.2c0.1-0.4,0.3-0.7,0.5-1c0.2-0.3,0.5-0.5,0.9-0.6s0.7-0.2,1.2-0.2
		c0.4,0,0.8,0.1,1.1,0.2c0.3,0.1,0.6,0.3,0.9,0.6s0.4,0.5,0.5,0.9s0.2,0.7,0.2,1.1c0,0.1,0,0.2,0,0.3c0,0.1,0,0.1,0,0.2h-4.4
		c0,0.3,0.1,0.6,0.2,0.8c0.1,0.2,0.2,0.4,0.4,0.6c0.2,0.2,0.4,0.3,0.6,0.4c0.2,0.1,0.5,0.1,0.8,0.1c0.4,0,0.7-0.1,1-0.2
		c0.3-0.1,0.5-0.3,0.7-0.6l0.7,0.5c-0.1,0.2-0.3,0.3-0.4,0.4c-0.2,0.1-0.3,0.3-0.5,0.4c-0.2,0.1-0.4,0.2-0.7,0.3
		c-0.2,0.1-0.5,0.1-0.8,0.1c-0.5,0-0.9-0.1-1.2-0.2s-0.7-0.4-0.9-0.6c-0.2-0.3-0.4-0.6-0.6-0.9C301.9,48,301.8,47.6,301.8,47.2z
		 M306.4,46.6c0-0.3-0.1-0.5-0.2-0.7c-0.1-0.2-0.2-0.4-0.4-0.5c-0.2-0.1-0.3-0.2-0.5-0.3c-0.2-0.1-0.4-0.1-0.6-0.1
		c-0.2,0-0.5,0-0.7,0.1c-0.2,0.1-0.4,0.2-0.5,0.3s-0.3,0.3-0.4,0.5c-0.1,0.2-0.1,0.4-0.2,0.7H306.4z"/>
	<path class="st8" d="M310.6,50.1c-0.3,0-0.6,0-0.8-0.1c-0.2-0.1-0.5-0.2-0.6-0.3c-0.2-0.2-0.3-0.3-0.4-0.5
		c-0.1-0.2-0.1-0.5-0.1-0.7c0-0.3,0.1-0.6,0.2-0.8s0.3-0.4,0.5-0.5c0.2-0.1,0.4-0.2,0.6-0.3c0.2-0.1,0.4-0.1,0.6-0.1
		c0.2,0,0.4-0.1,0.7-0.1c0.2,0,0.4-0.1,0.6-0.1s0.3-0.1,0.4-0.2c0.1-0.1,0.2-0.2,0.2-0.4c0-0.3-0.1-0.5-0.4-0.6S311.4,45,311,45
		c-0.7,0-1.3,0.2-1.8,0.6l-0.4-0.7c0.3-0.2,0.7-0.4,1.1-0.5c0.4-0.1,0.8-0.2,1.2-0.2c0.3,0,0.6,0,0.9,0.1c0.3,0.1,0.5,0.2,0.7,0.3
		s0.3,0.3,0.5,0.6c0.1,0.2,0.2,0.5,0.2,0.8v2.7c0,0.4,0.1,0.6,0.4,0.6c0.1,0,0.2,0,0.3-0.1l0.1,0.7c-0.1,0-0.2,0.1-0.3,0.1
		c-0.1,0-0.2,0-0.4,0c-0.3,0-0.5-0.1-0.7-0.2c-0.2-0.1-0.3-0.4-0.4-0.6c-0.2,0.3-0.4,0.5-0.7,0.7C311.4,50.1,311,50.1,310.6,50.1z
		 M312.3,46.9c-0.1,0.1-0.2,0.2-0.3,0.2c-0.1,0.1-0.3,0.1-0.4,0.1s-0.3,0.1-0.5,0.1c-0.2,0-0.3,0-0.5,0.1c-0.2,0-0.3,0.1-0.5,0.1
		c-0.1,0-0.3,0.1-0.4,0.2s-0.2,0.2-0.3,0.3c-0.1,0.1-0.1,0.3-0.1,0.4c0,0.3,0.1,0.6,0.3,0.7c0.2,0.2,0.5,0.2,0.8,0.2
		c0.2,0,0.4,0,0.6-0.1c0.2-0.1,0.4-0.2,0.5-0.3c0.2-0.1,0.3-0.3,0.4-0.5c0.1-0.2,0.1-0.4,0.1-0.7V46.9z"/>
	<path class="st8" d="M315.4,50v-7.9h1V50H315.4z"/>
	<path class="st8" d="M321.8,49.7c-0.3,0.3-0.7,0.4-1.3,0.4c-0.3,0-0.6-0.1-0.8-0.2c-0.2-0.1-0.5-0.3-0.6-0.6
		c-0.1-0.1-0.2-0.3-0.2-0.5c0-0.2-0.1-0.4-0.1-0.7v-3.2h-1.1v-0.7c0.2,0,0.4-0.1,0.5-0.1c0.1,0,0.3-0.1,0.4-0.2
		c0.1-0.1,0.2-0.3,0.2-0.5c0.1-0.2,0.1-0.5,0.1-0.8h0.8v1.5h1.8v0.8h-1.8v3.2c0,0.7,0.3,1,0.8,1c0.2,0,0.3,0,0.5-0.1
		s0.3-0.1,0.4-0.2L321.8,49.7z"/>
	<path class="st8" d="M323.1,50v-7.9h1v3.1c0.2-0.4,0.5-0.6,0.8-0.8c0.3-0.2,0.7-0.3,1.1-0.3c0.6,0,1.1,0.2,1.5,0.6
		c0.4,0.4,0.5,0.9,0.5,1.6V50h-1v-3.5c0-0.2,0-0.3,0-0.5c0-0.2-0.1-0.3-0.2-0.5c-0.1-0.1-0.2-0.3-0.4-0.4c-0.2-0.1-0.4-0.1-0.6-0.1
		c-0.2,0-0.5,0-0.7,0.1c-0.2,0.1-0.4,0.2-0.5,0.4c-0.2,0.2-0.3,0.3-0.4,0.6c-0.1,0.2-0.1,0.5-0.1,0.7V50H323.1z"/>
</g>
<g class="st7">
	<path class="st8" d="M299.6,129l-1.9-3.2h-1.9v3.2h-1v-7.9h3.2c0.4,0,0.8,0.1,1.1,0.2c0.3,0.1,0.6,0.3,0.8,0.5
		c0.2,0.2,0.4,0.4,0.5,0.7c0.1,0.3,0.2,0.6,0.2,0.9c0,0.6-0.2,1.1-0.5,1.4c-0.3,0.4-0.8,0.7-1.4,0.8l2,3.3H299.6z M299.6,123.5
		c0-0.4-0.1-0.7-0.4-1s-0.7-0.4-1.2-0.4h-2.2v2.8h2.1c0.5,0,1-0.1,1.3-0.4C299.4,124.2,299.6,123.9,299.6,123.5z"/>
	<path class="st8" d="M301.8,126.2c0-0.4,0.1-0.8,0.2-1.2c0.1-0.4,0.3-0.7,0.5-1c0.2-0.3,0.5-0.5,0.9-0.6s0.7-0.2,1.2-0.2
		c0.4,0,0.8,0.1,1.1,0.2c0.3,0.1,0.6,0.3,0.9,0.6s0.4,0.5,0.5,0.9s0.2,0.7,0.2,1.1c0,0.1,0,0.2,0,0.3c0,0.1,0,0.1,0,0.2h-4.4
		c0,0.3,0.1,0.6,0.2,0.8c0.1,0.2,0.2,0.4,0.4,0.6c0.2,0.2,0.4,0.3,0.6,0.4c0.2,0.1,0.5,0.1,0.8,0.1c0.4,0,0.7-0.1,1-0.2
		c0.3-0.1,0.5-0.3,0.7-0.6l0.7,0.5c-0.1,0.2-0.3,0.3-0.4,0.4c-0.2,0.1-0.3,0.3-0.5,0.4c-0.2,0.1-0.4,0.2-0.7,0.3
		c-0.2,0.1-0.5,0.1-0.8,0.1c-0.5,0-0.9-0.1-1.2-0.2s-0.7-0.4-0.9-0.6c-0.2-0.3-0.4-0.6-0.6-0.9C301.9,127,301.8,126.6,301.8,126.2z
		 M306.3,125.6c0-0.3-0.1-0.5-0.2-0.7c-0.1-0.2-0.2-0.4-0.4-0.5c-0.2-0.1-0.3-0.2-0.5-0.3c-0.2-0.1-0.4-0.1-0.6-0.1
		c-0.2,0-0.5,0-0.7,0.1c-0.2,0.1-0.4,0.2-0.5,0.3s-0.3,0.3-0.4,0.5c-0.1,0.2-0.1,0.4-0.2,0.7H306.3z"/>
	<path class="st8" d="M309.9,123.3v0.9c0.3-0.4,0.6-0.7,0.9-0.8c0.3-0.2,0.7-0.2,1.1-0.2c0.4,0,0.8,0.1,1.1,0.2s0.6,0.4,0.8,0.6
		s0.4,0.6,0.5,0.9c0.1,0.4,0.2,0.8,0.2,1.2c0,0.4-0.1,0.8-0.2,1.2c-0.1,0.4-0.3,0.7-0.5,1s-0.5,0.5-0.8,0.6
		c-0.3,0.2-0.7,0.2-1.1,0.2c-0.4,0-0.8-0.1-1.1-0.2c-0.3-0.2-0.7-0.4-0.9-0.8v2.9h-1v-7.6H309.9z M309.9,126.1c0,0.3,0,0.6,0.1,0.8
		c0.1,0.3,0.2,0.5,0.4,0.7c0.2,0.2,0.4,0.3,0.6,0.5c0.2,0.1,0.5,0.2,0.8,0.2s0.6-0.1,0.8-0.2s0.4-0.3,0.6-0.5
		c0.2-0.2,0.3-0.4,0.3-0.7s0.1-0.5,0.1-0.8c0-0.3,0-0.6-0.1-0.8c-0.1-0.3-0.2-0.5-0.3-0.7s-0.3-0.3-0.6-0.5
		c-0.2-0.1-0.5-0.2-0.8-0.2s-0.6,0.1-0.8,0.2c-0.2,0.1-0.4,0.3-0.6,0.5c-0.2,0.2-0.3,0.4-0.4,0.7
		C309.9,125.6,309.9,125.8,309.9,126.1z"/>
	<path class="st8" d="M317.8,129.1c-0.3,0-0.6,0-0.8-0.1c-0.2-0.1-0.5-0.2-0.6-0.3s-0.3-0.3-0.4-0.5c-0.1-0.2-0.1-0.5-0.1-0.7
		c0-0.3,0.1-0.6,0.2-0.8c0.1-0.2,0.3-0.4,0.5-0.5s0.4-0.2,0.6-0.3c0.2-0.1,0.4-0.1,0.6-0.1c0.2,0,0.4-0.1,0.7-0.1
		c0.2,0,0.4-0.1,0.6-0.1c0.2-0.1,0.3-0.1,0.4-0.2c0.1-0.1,0.2-0.2,0.2-0.4c0-0.3-0.1-0.5-0.4-0.6c-0.2-0.1-0.5-0.2-0.9-0.2
		c-0.7,0-1.3,0.2-1.8,0.6l-0.4-0.7c0.3-0.2,0.7-0.4,1.1-0.5c0.4-0.1,0.8-0.2,1.2-0.2c0.3,0,0.6,0,0.9,0.1c0.3,0.1,0.5,0.2,0.7,0.3
		s0.3,0.3,0.5,0.6c0.1,0.2,0.2,0.5,0.2,0.8v2.7c0,0.4,0.1,0.6,0.4,0.6c0.1,0,0.2,0,0.3-0.1l0.1,0.7c-0.1,0-0.2,0.1-0.3,0.1
		c-0.1,0-0.2,0-0.4,0c-0.3,0-0.5-0.1-0.7-0.2c-0.2-0.1-0.3-0.4-0.4-0.6c-0.2,0.3-0.4,0.5-0.7,0.7
		C318.7,129.1,318.3,129.1,317.8,129.1z M319.6,125.9c-0.1,0.1-0.2,0.2-0.3,0.2c-0.1,0.1-0.3,0.1-0.4,0.1c-0.1,0-0.3,0.1-0.5,0.1
		c-0.2,0-0.3,0-0.5,0.1c-0.2,0-0.3,0.1-0.5,0.1c-0.1,0-0.3,0.1-0.4,0.2s-0.2,0.2-0.3,0.3c-0.1,0.1-0.1,0.3-0.1,0.4
		c0,0.3,0.1,0.6,0.3,0.7c0.2,0.2,0.5,0.2,0.8,0.2c0.2,0,0.4,0,0.6-0.1s0.4-0.2,0.5-0.3c0.2-0.1,0.3-0.3,0.4-0.5
		c0.1-0.2,0.1-0.4,0.1-0.7V125.9z"/>
	<path class="st8" d="M322.6,121.7c0-0.2,0.1-0.3,0.2-0.4c0.1-0.1,0.2-0.2,0.4-0.2c0.2,0,0.3,0.1,0.4,0.2c0.1,0.1,0.2,0.3,0.2,0.4
		c0,0.2-0.1,0.3-0.2,0.4c-0.1,0.1-0.3,0.2-0.4,0.2c-0.2,0-0.3-0.1-0.4-0.2C322.7,122,322.6,121.8,322.6,121.7z M322.7,129v-5.7h1
		v5.7H322.7z"/>
	<path class="st8" d="M328.7,124.2c-0.2-0.1-0.3-0.1-0.5-0.1c-0.2,0-0.4,0-0.6,0.1c-0.2,0.1-0.3,0.2-0.5,0.4
		c-0.1,0.2-0.2,0.4-0.3,0.6c-0.1,0.2-0.1,0.5-0.1,0.8v2.9h-1v-5.7h1v1c0.2-0.3,0.4-0.6,0.7-0.8c0.3-0.2,0.6-0.3,1-0.3
		c0.1,0,0.2,0,0.3,0c0.1,0,0.2,0,0.3,0.1L328.7,124.2z"/>
</g>
<g class="st7">
	<path class="st8" d="M289.2,135.1v2.3h3.8v0.9h-3.8v3.7h-1v-7.9h5.3v0.9H289.2z"/>
	<path class="st8" d="M296.3,142.1c-0.3,0-0.6,0-0.8-0.1c-0.2-0.1-0.5-0.2-0.6-0.3c-0.2-0.2-0.3-0.3-0.4-0.5
		c-0.1-0.2-0.1-0.5-0.1-0.7c0-0.3,0.1-0.6,0.2-0.8s0.3-0.4,0.5-0.5c0.2-0.1,0.4-0.2,0.6-0.3c0.2-0.1,0.4-0.1,0.6-0.1
		c0.2,0,0.4-0.1,0.7-0.1c0.2,0,0.4-0.1,0.6-0.1s0.3-0.1,0.4-0.2c0.1-0.1,0.2-0.2,0.2-0.4c0-0.3-0.1-0.5-0.4-0.6s-0.5-0.2-0.9-0.2
		c-0.7,0-1.3,0.2-1.8,0.6l-0.4-0.7c0.3-0.2,0.7-0.4,1.1-0.5c0.4-0.1,0.8-0.2,1.2-0.2c0.3,0,0.6,0,0.9,0.1c0.3,0.1,0.5,0.2,0.7,0.3
		s0.3,0.3,0.5,0.6c0.1,0.2,0.2,0.5,0.2,0.8v2.7c0,0.4,0.1,0.6,0.4,0.6c0.1,0,0.2,0,0.3-0.1l0.1,0.7c-0.1,0-0.2,0.1-0.3,0.1
		c-0.1,0-0.2,0-0.4,0c-0.3,0-0.5-0.1-0.7-0.2c-0.2-0.1-0.3-0.4-0.4-0.6c-0.2,0.3-0.4,0.5-0.7,0.7
		C297.2,142.1,296.8,142.1,296.3,142.1z M298.1,138.9c-0.1,0.1-0.2,0.2-0.3,0.2c-0.1,0.1-0.3,0.1-0.4,0.1s-0.3,0.1-0.5,0.1
		c-0.2,0-0.3,0-0.5,0.1c-0.2,0-0.3,0.1-0.5,0.1c-0.1,0-0.3,0.1-0.4,0.2s-0.2,0.2-0.3,0.3c-0.1,0.1-0.1,0.3-0.1,0.4
		c0,0.3,0.1,0.6,0.3,0.7c0.2,0.2,0.5,0.2,0.8,0.2c0.2,0,0.4,0,0.6-0.1c0.2-0.1,0.4-0.2,0.5-0.3c0.2-0.1,0.3-0.3,0.4-0.5
		c0.1-0.2,0.1-0.4,0.1-0.7V138.9z"/>
	<path class="st8" d="M303.6,136.1c0.5,0,1,0.1,1.4,0.3s0.7,0.5,0.9,0.8l-0.7,0.5c-0.2-0.3-0.4-0.5-0.6-0.6
		c-0.2-0.1-0.5-0.2-0.9-0.2c-0.3,0-0.5,0.1-0.7,0.2c-0.2,0.1-0.4,0.3-0.6,0.4c-0.2,0.2-0.3,0.4-0.4,0.7c-0.1,0.3-0.1,0.5-0.1,0.9
		c0,0.3,0,0.6,0.1,0.9c0.1,0.3,0.2,0.5,0.4,0.7c0.2,0.2,0.3,0.3,0.6,0.4s0.5,0.2,0.8,0.2c0.4,0,0.7-0.1,0.9-0.3
		c0.3-0.2,0.5-0.4,0.6-0.6l0.7,0.5c-0.3,0.3-0.6,0.6-1,0.9c-0.4,0.2-0.8,0.3-1.4,0.3c-0.4,0-0.8-0.1-1.1-0.2
		c-0.3-0.2-0.6-0.4-0.9-0.6s-0.4-0.6-0.6-1c-0.1-0.4-0.2-0.8-0.2-1.2c0-0.4,0.1-0.8,0.2-1.2c0.1-0.4,0.3-0.7,0.6-1
		c0.2-0.3,0.5-0.5,0.9-0.6C302.8,136.2,303.2,136.1,303.6,136.1z"/>
	<path class="st8" d="M307.3,134.7c0-0.2,0.1-0.3,0.2-0.4c0.1-0.1,0.2-0.2,0.4-0.2c0.2,0,0.3,0.1,0.4,0.2c0.1,0.1,0.2,0.3,0.2,0.4
		c0,0.2-0.1,0.3-0.2,0.4c-0.1,0.1-0.3,0.2-0.4,0.2c-0.2,0-0.3-0.1-0.4-0.2C307.3,135,307.3,134.8,307.3,134.7z M307.4,142v-5.7h1
		v5.7H307.4z"/>
	<path class="st8" d="M310.4,142v-7.9h1v7.9H310.4z"/>
	<path class="st8" d="M313.3,134.7c0-0.2,0.1-0.3,0.2-0.4c0.1-0.1,0.2-0.2,0.4-0.2s0.3,0.1,0.4,0.2c0.1,0.1,0.2,0.3,0.2,0.4
		c0,0.2-0.1,0.3-0.2,0.4c-0.1,0.1-0.3,0.2-0.4,0.2s-0.3-0.1-0.4-0.2C313.3,135,313.3,134.8,313.3,134.7z M313.4,142v-5.7h1v5.7
		H313.4z"/>
	<path class="st8" d="M319.7,141.7c-0.3,0.3-0.7,0.4-1.3,0.4c-0.3,0-0.6-0.1-0.8-0.2c-0.2-0.1-0.5-0.3-0.6-0.6
		c-0.1-0.1-0.2-0.3-0.2-0.5c0-0.2-0.1-0.4-0.1-0.7v-3.2h-1.1v-0.7c0.2,0,0.4-0.1,0.5-0.1c0.1,0,0.3-0.1,0.4-0.2
		c0.1-0.1,0.2-0.3,0.2-0.5c0.1-0.2,0.1-0.5,0.1-0.8h0.8v1.5h1.8v0.8h-1.8v3.2c0,0.7,0.3,1,0.8,1c0.2,0,0.3,0,0.5-0.1
		s0.3-0.1,0.4-0.2L319.7,141.7z"/>
	<path class="st8" d="M321,134.7c0-0.2,0.1-0.3,0.2-0.4c0.1-0.1,0.2-0.2,0.4-0.2c0.2,0,0.3,0.1,0.4,0.2c0.1,0.1,0.2,0.3,0.2,0.4
		c0,0.2-0.1,0.3-0.2,0.4c-0.1,0.1-0.3,0.2-0.4,0.2c-0.2,0-0.3-0.1-0.4-0.2C321,135,321,134.8,321,134.7z M321.1,142v-5.7h1v5.7
		H321.1z"/>
	<path class="st8" d="M323.7,139.2c0-0.4,0.1-0.8,0.2-1.2c0.1-0.4,0.3-0.7,0.5-1c0.2-0.3,0.5-0.5,0.9-0.6s0.7-0.2,1.2-0.2
		c0.4,0,0.8,0.1,1.1,0.2c0.3,0.1,0.6,0.3,0.9,0.6c0.2,0.2,0.4,0.5,0.5,0.9c0.1,0.3,0.2,0.7,0.2,1.1c0,0.1,0,0.2,0,0.3
		c0,0.1,0,0.1,0,0.2h-4.4c0,0.3,0.1,0.6,0.2,0.8c0.1,0.2,0.2,0.4,0.4,0.6c0.2,0.2,0.4,0.3,0.6,0.4c0.2,0.1,0.5,0.1,0.8,0.1
		c0.4,0,0.7-0.1,1-0.2s0.5-0.3,0.7-0.6l0.7,0.5c-0.1,0.2-0.3,0.3-0.4,0.4c-0.2,0.1-0.3,0.3-0.5,0.4c-0.2,0.1-0.4,0.2-0.7,0.3
		c-0.2,0.1-0.5,0.1-0.8,0.1c-0.5,0-0.9-0.1-1.2-0.2s-0.7-0.4-0.9-0.6c-0.2-0.3-0.4-0.6-0.6-0.9C323.7,140,323.7,139.6,323.7,139.2z
		 M328.2,138.6c0-0.3-0.1-0.5-0.2-0.7c-0.1-0.2-0.2-0.4-0.4-0.5c-0.2-0.1-0.3-0.2-0.5-0.3c-0.2-0.1-0.4-0.1-0.6-0.1
		c-0.2,0-0.5,0-0.7,0.1c-0.2,0.1-0.4,0.2-0.5,0.3s-0.3,0.3-0.4,0.5c-0.1,0.2-0.1,0.4-0.2,0.7H328.2z"/>
	<path class="st8" d="M335,140.3c0,0.3-0.1,0.5-0.2,0.7c-0.1,0.2-0.3,0.4-0.5,0.6c-0.2,0.2-0.4,0.3-0.7,0.4c-0.3,0.1-0.6,0.1-1,0.1
		c-0.6,0-1.1-0.1-1.5-0.3c-0.4-0.2-0.7-0.5-1-0.8l0.7-0.6c0.4,0.6,1,0.9,1.8,0.9c0.5,0,0.8-0.1,1-0.3c0.2-0.2,0.3-0.4,0.3-0.6
		c0-0.2,0-0.3-0.1-0.4s-0.2-0.2-0.4-0.2c-0.1-0.1-0.3-0.1-0.5-0.1c-0.2,0-0.4-0.1-0.6-0.1c-0.2-0.1-0.5-0.1-0.7-0.2
		c-0.2-0.1-0.4-0.2-0.6-0.3c-0.2-0.1-0.3-0.3-0.4-0.5c-0.1-0.2-0.2-0.4-0.2-0.7c0-0.2,0-0.5,0.1-0.7c0.1-0.2,0.2-0.4,0.4-0.5
		s0.4-0.3,0.7-0.3c0.3-0.1,0.5-0.1,0.9-0.1c0.5,0,1,0.1,1.3,0.3s0.7,0.5,0.9,0.8l-0.7,0.5c-0.1-0.2-0.3-0.4-0.6-0.5
		c-0.3-0.2-0.6-0.2-1.1-0.2c-0.4,0-0.7,0.1-0.8,0.2c-0.2,0.1-0.3,0.3-0.3,0.6c0,0.1,0,0.3,0.1,0.3s0.2,0.2,0.3,0.2s0.3,0.1,0.4,0.2
		s0.3,0.1,0.5,0.1c0.3,0.1,0.6,0.1,0.8,0.2s0.5,0.2,0.7,0.3c0.2,0.1,0.4,0.3,0.5,0.5C334.9,139.7,335,140,335,140.3z"/>
</g>
<g class="st7">
	<path class="st8" d="M28.2,122.1v6.9h-1v-6.9h-2.6v-0.9h6.3v0.9H28.2z"/>
	<path class="st8" d="M34.5,124.2c-0.2-0.1-0.3-0.1-0.5-0.1c-0.2,0-0.4,0-0.6,0.1s-0.3,0.2-0.5,0.4c-0.1,0.2-0.2,0.4-0.3,0.6
		s-0.1,0.5-0.1,0.8v2.9h-1v-5.7h1v1c0.2-0.3,0.4-0.6,0.7-0.8c0.3-0.2,0.6-0.3,1-0.3c0.1,0,0.2,0,0.3,0c0.1,0,0.2,0,0.3,0.1
		L34.5,124.2z"/>
	<path class="st8" d="M37.6,129.1c-0.3,0-0.6,0-0.8-0.1c-0.2-0.1-0.5-0.2-0.6-0.3c-0.2-0.2-0.3-0.3-0.4-0.5
		c-0.1-0.2-0.1-0.5-0.1-0.7c0-0.3,0.1-0.6,0.2-0.8c0.1-0.2,0.3-0.4,0.5-0.5c0.2-0.1,0.4-0.2,0.6-0.3c0.2-0.1,0.4-0.1,0.6-0.1
		c0.2,0,0.4-0.1,0.7-0.1c0.2,0,0.4-0.1,0.6-0.1c0.2-0.1,0.3-0.1,0.4-0.2c0.1-0.1,0.2-0.2,0.2-0.4c0-0.3-0.1-0.5-0.4-0.6
		c-0.2-0.1-0.5-0.2-0.9-0.2c-0.7,0-1.3,0.2-1.8,0.6l-0.4-0.7c0.3-0.2,0.7-0.4,1.1-0.5c0.4-0.1,0.8-0.2,1.2-0.2c0.3,0,0.6,0,0.9,0.1
		c0.3,0.1,0.5,0.2,0.7,0.3s0.3,0.3,0.5,0.6c0.1,0.2,0.2,0.5,0.2,0.8v2.7c0,0.4,0.1,0.6,0.4,0.6c0.1,0,0.2,0,0.3-0.1l0.1,0.7
		c-0.1,0-0.2,0.1-0.3,0.1c-0.1,0-0.2,0-0.4,0c-0.3,0-0.5-0.1-0.7-0.2s-0.3-0.4-0.4-0.6c-0.2,0.3-0.4,0.5-0.7,0.7
		S38,129.1,37.6,129.1z M39.4,125.9c-0.1,0.1-0.2,0.2-0.3,0.2c-0.1,0.1-0.3,0.1-0.4,0.1c-0.1,0-0.3,0.1-0.5,0.1
		c-0.2,0-0.3,0-0.5,0.1c-0.2,0-0.3,0.1-0.5,0.1c-0.1,0-0.3,0.1-0.4,0.2s-0.2,0.2-0.3,0.3c-0.1,0.1-0.1,0.3-0.1,0.4
		c0,0.3,0.1,0.6,0.3,0.7s0.5,0.2,0.8,0.2c0.2,0,0.4,0,0.6-0.1c0.2-0.1,0.4-0.2,0.5-0.3c0.2-0.1,0.3-0.3,0.4-0.5
		c0.1-0.2,0.1-0.4,0.1-0.7V125.9z"/>
	<path class="st8" d="M42.5,129v-5.7h1v0.9c0.2-0.4,0.5-0.6,0.8-0.8c0.3-0.2,0.7-0.3,1.1-0.3c0.6,0,1.1,0.2,1.5,0.6
		c0.4,0.4,0.5,0.9,0.5,1.6v3.7h-1v-3.5c0-0.2,0-0.3,0-0.5c0-0.2-0.1-0.3-0.2-0.5c-0.1-0.1-0.2-0.3-0.4-0.4c-0.2-0.1-0.4-0.1-0.6-0.1
		c-0.2,0-0.5,0-0.7,0.1c-0.2,0.1-0.4,0.2-0.5,0.4c-0.2,0.2-0.3,0.3-0.4,0.6c-0.1,0.2-0.1,0.5-0.1,0.7v3.2H42.5z"/>
	<path class="st8" d="M53.6,127.3c0,0.3-0.1,0.5-0.2,0.7c-0.1,0.2-0.3,0.4-0.5,0.6c-0.2,0.2-0.4,0.3-0.7,0.4c-0.3,0.1-0.6,0.1-1,0.1
		c-0.6,0-1.1-0.1-1.5-0.3c-0.4-0.2-0.7-0.5-1-0.8l0.7-0.6c0.4,0.6,1,0.9,1.8,0.9c0.5,0,0.8-0.1,1-0.3c0.2-0.2,0.3-0.4,0.3-0.6
		c0-0.2,0-0.3-0.1-0.4c-0.1-0.1-0.2-0.2-0.4-0.2c-0.1-0.1-0.3-0.1-0.5-0.1c-0.2,0-0.4-0.1-0.6-0.1c-0.2-0.1-0.5-0.1-0.7-0.2
		c-0.2-0.1-0.4-0.2-0.6-0.3c-0.2-0.1-0.3-0.3-0.4-0.5c-0.1-0.2-0.2-0.4-0.2-0.7c0-0.2,0-0.5,0.1-0.7c0.1-0.2,0.2-0.4,0.4-0.5
		s0.4-0.3,0.7-0.3c0.3-0.1,0.5-0.1,0.9-0.1c0.5,0,1,0.1,1.3,0.3s0.7,0.5,0.9,0.8l-0.7,0.5c-0.1-0.2-0.3-0.4-0.6-0.5
		c-0.3-0.2-0.6-0.2-1.1-0.2c-0.4,0-0.7,0.1-0.8,0.2c-0.2,0.1-0.3,0.3-0.3,0.6c0,0.1,0,0.3,0.1,0.3c0.1,0.1,0.2,0.2,0.3,0.2
		s0.3,0.1,0.4,0.2s0.3,0.1,0.5,0.1c0.3,0.1,0.6,0.1,0.8,0.2s0.5,0.2,0.7,0.3c0.2,0.1,0.4,0.3,0.5,0.5
		C53.6,126.7,53.6,127,53.6,127.3z"/>
	<path class="st8" d="M56.2,123.3v0.9c0.3-0.4,0.6-0.7,0.9-0.8c0.3-0.2,0.7-0.2,1.1-0.2c0.4,0,0.8,0.1,1.1,0.2s0.6,0.4,0.8,0.6
		s0.4,0.6,0.5,0.9c0.1,0.4,0.2,0.8,0.2,1.2c0,0.4-0.1,0.8-0.2,1.2c-0.1,0.4-0.3,0.7-0.5,1s-0.5,0.5-0.8,0.6
		c-0.3,0.2-0.7,0.2-1.1,0.2c-0.4,0-0.8-0.1-1.1-0.2c-0.3-0.2-0.7-0.4-0.9-0.8v2.9h-1v-7.6H56.2z M56.2,126.1c0,0.3,0,0.6,0.1,0.8
		s0.2,0.5,0.4,0.7c0.2,0.2,0.4,0.3,0.6,0.5s0.5,0.2,0.8,0.2s0.6-0.1,0.8-0.2s0.4-0.3,0.6-0.5c0.1-0.2,0.3-0.4,0.3-0.7
		c0.1-0.3,0.1-0.5,0.1-0.8c0-0.3,0-0.6-0.1-0.8c-0.1-0.3-0.2-0.5-0.3-0.7c-0.1-0.2-0.3-0.3-0.6-0.5c-0.2-0.1-0.5-0.2-0.8-0.2
		s-0.6,0.1-0.8,0.2c-0.2,0.1-0.4,0.3-0.6,0.5c-0.2,0.2-0.3,0.4-0.4,0.7S56.2,125.8,56.2,126.1z"/>
	<path class="st8" d="M67.8,126.2c0,0.4-0.1,0.8-0.2,1.2c-0.1,0.4-0.3,0.7-0.6,0.9c-0.2,0.3-0.5,0.5-0.9,0.6
		c-0.3,0.2-0.7,0.2-1.2,0.2s-0.8-0.1-1.2-0.2c-0.3-0.2-0.6-0.4-0.9-0.6s-0.4-0.6-0.6-0.9c-0.1-0.4-0.2-0.8-0.2-1.2s0.1-0.8,0.2-1.2
		c0.1-0.4,0.3-0.7,0.6-1c0.2-0.3,0.5-0.5,0.9-0.6c0.3-0.1,0.7-0.2,1.2-0.2s0.8,0.1,1.2,0.2c0.3,0.2,0.6,0.4,0.9,0.6
		c0.2,0.3,0.4,0.6,0.6,1C67.7,125.3,67.8,125.7,67.8,126.2z M66.8,126.2c0-0.3,0-0.6-0.1-0.8c-0.1-0.3-0.2-0.5-0.3-0.7
		c-0.2-0.2-0.3-0.3-0.6-0.5S65.2,124,65,124s-0.5,0.1-0.8,0.2s-0.4,0.3-0.6,0.5s-0.3,0.4-0.3,0.7c-0.1,0.3-0.1,0.5-0.1,0.8
		c0,0.3,0,0.6,0.1,0.8c0.1,0.3,0.2,0.5,0.3,0.7c0.2,0.2,0.3,0.3,0.6,0.5s0.5,0.2,0.8,0.2s0.5-0.1,0.8-0.2s0.4-0.3,0.6-0.5
		c0.1-0.2,0.3-0.4,0.3-0.7C66.7,126.7,66.8,126.5,66.8,126.2z"/>
	<path class="st8" d="M72.4,124.2c-0.2-0.1-0.3-0.1-0.5-0.1c-0.2,0-0.4,0-0.6,0.1c-0.2,0.1-0.3,0.2-0.5,0.4
		c-0.1,0.2-0.2,0.4-0.3,0.6s-0.1,0.5-0.1,0.8v2.9h-1v-5.7h1v1c0.2-0.3,0.4-0.6,0.7-0.8c0.3-0.2,0.6-0.3,1-0.3c0.1,0,0.2,0,0.3,0
		c0.1,0,0.2,0,0.3,0.1L72.4,124.2z"/>
	<path class="st8" d="M77.2,128.7c-0.3,0.3-0.7,0.4-1.3,0.4c-0.3,0-0.6-0.1-0.8-0.2c-0.2-0.1-0.5-0.3-0.6-0.6
		c-0.1-0.1-0.2-0.3-0.2-0.5c0-0.2-0.1-0.4-0.1-0.7v-3.2h-1.1v-0.7c0.2,0,0.4-0.1,0.5-0.1s0.3-0.1,0.4-0.2c0.1-0.1,0.2-0.3,0.2-0.5
		c0.1-0.2,0.1-0.5,0.1-0.8h0.8v1.5h1.8v0.8h-1.8v3.2c0,0.7,0.3,1,0.8,1c0.2,0,0.3,0,0.5-0.1s0.3-0.1,0.4-0.2L77.2,128.7z"/>
	<path class="st8" d="M80.2,129.1c-0.3,0-0.6,0-0.8-0.1c-0.2-0.1-0.5-0.2-0.6-0.3s-0.3-0.3-0.4-0.5c-0.1-0.2-0.1-0.5-0.1-0.7
		c0-0.3,0.1-0.6,0.2-0.8s0.3-0.4,0.5-0.5s0.4-0.2,0.6-0.3c0.2-0.1,0.4-0.1,0.6-0.1c0.2,0,0.4-0.1,0.7-0.1c0.2,0,0.4-0.1,0.6-0.1
		c0.2-0.1,0.3-0.1,0.4-0.2c0.1-0.1,0.2-0.2,0.2-0.4c0-0.3-0.1-0.5-0.4-0.6s-0.5-0.2-0.9-0.2c-0.7,0-1.3,0.2-1.8,0.6l-0.4-0.7
		c0.3-0.2,0.7-0.4,1.1-0.5c0.4-0.1,0.8-0.2,1.2-0.2c0.3,0,0.6,0,0.9,0.1c0.3,0.1,0.5,0.2,0.7,0.3c0.2,0.2,0.3,0.3,0.5,0.6
		c0.1,0.2,0.2,0.5,0.2,0.8v2.7c0,0.4,0.1,0.6,0.4,0.6c0.1,0,0.2,0,0.3-0.1l0.1,0.7c-0.1,0-0.2,0.1-0.3,0.1c-0.1,0-0.2,0-0.4,0
		c-0.3,0-0.5-0.1-0.7-0.2c-0.2-0.1-0.3-0.4-0.4-0.6c-0.2,0.3-0.4,0.5-0.7,0.7C81,129.1,80.6,129.1,80.2,129.1z M82,125.9
		c-0.1,0.1-0.2,0.2-0.3,0.2c-0.1,0.1-0.3,0.1-0.4,0.1s-0.3,0.1-0.5,0.1c-0.2,0-0.3,0-0.5,0.1c-0.2,0-0.3,0.1-0.5,0.1
		c-0.1,0-0.3,0.1-0.4,0.2c-0.1,0.1-0.2,0.2-0.3,0.3c-0.1,0.1-0.1,0.3-0.1,0.4c0,0.3,0.1,0.6,0.3,0.7c0.2,0.2,0.5,0.2,0.8,0.2
		c0.2,0,0.4,0,0.6-0.1s0.4-0.2,0.5-0.3c0.2-0.1,0.3-0.3,0.4-0.5c0.1-0.2,0.1-0.4,0.1-0.7V125.9z"/>
	<path class="st8" d="M88.5,128.7c-0.3,0.3-0.7,0.4-1.3,0.4c-0.3,0-0.6-0.1-0.8-0.2c-0.2-0.1-0.5-0.3-0.6-0.6
		c-0.1-0.1-0.2-0.3-0.2-0.5c0-0.2-0.1-0.4-0.1-0.7v-3.2h-1.1v-0.7c0.2,0,0.4-0.1,0.5-0.1s0.3-0.1,0.4-0.2c0.1-0.1,0.2-0.3,0.2-0.5
		c0.1-0.2,0.1-0.5,0.1-0.8h0.8v1.5h1.8v0.8h-1.8v3.2c0,0.7,0.3,1,0.8,1c0.2,0,0.3,0,0.5-0.1s0.3-0.1,0.4-0.2L88.5,128.7z"/>
	<path class="st8" d="M89.7,121.7c0-0.2,0.1-0.3,0.2-0.4c0.1-0.1,0.2-0.2,0.4-0.2c0.2,0,0.3,0.1,0.4,0.2s0.2,0.3,0.2,0.4
		c0,0.2-0.1,0.3-0.2,0.4c-0.1,0.1-0.3,0.2-0.4,0.2c-0.2,0-0.3-0.1-0.4-0.2C89.7,122,89.7,121.8,89.7,121.7z M89.8,129v-5.7h1v5.7
		H89.8z"/>
	<path class="st8" d="M98,126.2c0,0.4-0.1,0.8-0.2,1.2c-0.1,0.4-0.3,0.7-0.6,0.9c-0.2,0.3-0.5,0.5-0.9,0.6c-0.3,0.2-0.7,0.2-1.2,0.2
		s-0.8-0.1-1.2-0.2c-0.3-0.2-0.6-0.4-0.9-0.6s-0.4-0.6-0.6-0.9c-0.1-0.4-0.2-0.8-0.2-1.2s0.1-0.8,0.2-1.2c0.1-0.4,0.3-0.7,0.6-1
		c0.2-0.3,0.5-0.5,0.9-0.6c0.3-0.1,0.7-0.2,1.2-0.2s0.8,0.1,1.2,0.2c0.3,0.2,0.6,0.4,0.9,0.6c0.2,0.3,0.4,0.6,0.6,1
		C97.9,125.3,98,125.7,98,126.2z M97,126.2c0-0.3,0-0.6-0.1-0.8c-0.1-0.3-0.2-0.5-0.3-0.7c-0.2-0.2-0.3-0.3-0.6-0.5
		s-0.5-0.2-0.8-0.2s-0.5,0.1-0.8,0.2s-0.4,0.3-0.6,0.5s-0.3,0.4-0.3,0.7c-0.1,0.3-0.1,0.5-0.1,0.8c0,0.3,0,0.6,0.1,0.8
		c0.1,0.3,0.2,0.5,0.3,0.7c0.2,0.2,0.3,0.3,0.6,0.5s0.5,0.2,0.8,0.2s0.5-0.1,0.8-0.2s0.4-0.3,0.6-0.5c0.1-0.2,0.3-0.4,0.3-0.7
		C97,126.7,97,126.5,97,126.2z"/>
	<path class="st8" d="M99.7,129v-5.7h1v0.9c0.2-0.4,0.5-0.6,0.8-0.8c0.3-0.2,0.7-0.3,1.1-0.3c0.6,0,1.1,0.2,1.5,0.6
		c0.4,0.4,0.5,0.9,0.5,1.6v3.7h-1v-3.5c0-0.2,0-0.3,0-0.5c0-0.2-0.1-0.3-0.2-0.5c-0.1-0.1-0.2-0.3-0.4-0.4s-0.4-0.1-0.6-0.1
		c-0.2,0-0.5,0-0.7,0.1c-0.2,0.1-0.4,0.2-0.5,0.4c-0.2,0.2-0.3,0.3-0.4,0.6c-0.1,0.2-0.1,0.5-0.1,0.7v3.2H99.7z"/>
</g>
<g class="st7">
	<path class="st8" d="M43.9,138.4c0,0.2-0.1,0.4-0.1,0.6c-0.1,0.2-0.1,0.4-0.2,0.6c-0.1,0.2-0.2,0.4-0.3,0.6
		c-0.1,0.2-0.2,0.4-0.3,0.5L44,142h-1.2l-0.5-0.6c-0.3,0.2-0.7,0.4-1,0.6s-0.8,0.2-1.2,0.2c-0.4,0-0.7,0-1-0.1
		c-0.3-0.1-0.6-0.2-0.8-0.4c-0.2-0.2-0.4-0.4-0.6-0.7c-0.1-0.3-0.2-0.6-0.2-0.9c0-0.3,0-0.6,0.1-0.8c0.1-0.2,0.2-0.4,0.4-0.6
		c0.2-0.2,0.4-0.3,0.6-0.5c0.2-0.1,0.4-0.3,0.7-0.4c-0.1-0.2-0.3-0.3-0.4-0.4c-0.1-0.1-0.2-0.3-0.3-0.4c-0.1-0.1-0.1-0.3-0.2-0.5
		c0-0.2-0.1-0.3-0.1-0.5c0-0.3,0.1-0.5,0.2-0.8c0.1-0.2,0.3-0.4,0.4-0.6c0.2-0.2,0.4-0.3,0.7-0.4s0.5-0.1,0.8-0.1
		c0.3,0,0.6,0,0.8,0.1c0.2,0.1,0.5,0.2,0.6,0.4c0.2,0.2,0.3,0.3,0.4,0.6c0.1,0.2,0.1,0.5,0.1,0.7c0,0.5-0.2,0.9-0.5,1.2
		c-0.3,0.4-0.8,0.7-1.4,1l1.8,2.2c0.1-0.1,0.2-0.3,0.3-0.4c0.1-0.2,0.2-0.3,0.2-0.5s0.1-0.3,0.1-0.5c0-0.2,0.1-0.3,0.1-0.4
		L43.9,138.4z M40.1,141.3c0.2,0,0.5,0,0.8-0.1s0.6-0.2,0.8-0.4l-2.1-2.5c-0.2,0.1-0.3,0.2-0.5,0.3c-0.2,0.1-0.3,0.2-0.4,0.3
		s-0.2,0.3-0.3,0.4s-0.1,0.3-0.1,0.5c0,0.2,0,0.4,0.1,0.6c0.1,0.2,0.2,0.3,0.4,0.5c0.2,0.1,0.3,0.2,0.6,0.3
		C39.6,141.2,39.8,141.3,40.1,141.3z M41.5,135.8c0-0.3-0.1-0.6-0.3-0.8s-0.5-0.2-0.8-0.2c-0.3,0-0.6,0.1-0.8,0.3
		c-0.2,0.2-0.4,0.4-0.4,0.8c0,0.3,0.1,0.6,0.3,0.8c0.2,0.2,0.4,0.5,0.6,0.7c0.2-0.1,0.3-0.2,0.5-0.3c0.2-0.1,0.3-0.2,0.5-0.3
		c0.1-0.1,0.2-0.3,0.3-0.4C41.4,136.2,41.5,136,41.5,135.8z"/>
	<path class="st8" d="M48.7,142v-7.9h1v6.9H54v0.9H48.7z"/>
	<path class="st8" d="M60.5,139.2c0,0.4-0.1,0.8-0.2,1.2c-0.1,0.4-0.3,0.7-0.6,0.9c-0.2,0.3-0.5,0.5-0.9,0.6
		c-0.3,0.2-0.7,0.2-1.2,0.2s-0.8-0.1-1.2-0.2s-0.6-0.4-0.9-0.6c-0.2-0.3-0.4-0.6-0.6-0.9c-0.1-0.4-0.2-0.8-0.2-1.2s0.1-0.8,0.2-1.2
		c0.1-0.4,0.3-0.7,0.6-1c0.2-0.3,0.5-0.5,0.9-0.6c0.3-0.1,0.7-0.2,1.2-0.2s0.8,0.1,1.2,0.2c0.3,0.2,0.6,0.4,0.9,0.6
		c0.2,0.3,0.4,0.6,0.6,1C60.4,138.3,60.5,138.7,60.5,139.2z M59.5,139.2c0-0.3,0-0.6-0.1-0.8c-0.1-0.3-0.2-0.5-0.3-0.7
		s-0.3-0.3-0.6-0.5S58,137,57.7,137c-0.3,0-0.5,0.1-0.8,0.2c-0.2,0.1-0.4,0.3-0.6,0.5c-0.2,0.2-0.3,0.4-0.3,0.7
		c-0.1,0.3-0.1,0.5-0.1,0.8c0,0.3,0,0.6,0.1,0.8c0.1,0.3,0.2,0.5,0.3,0.7c0.1,0.2,0.3,0.3,0.6,0.5c0.2,0.1,0.5,0.2,0.8,0.2
		c0.3,0,0.5-0.1,0.8-0.2s0.4-0.3,0.6-0.5c0.2-0.2,0.3-0.4,0.3-0.7C59.4,139.7,59.5,139.5,59.5,139.2z"/>
	<path class="st8" d="M66.4,142v-0.9c-0.3,0.4-0.6,0.7-0.9,0.8c-0.3,0.2-0.7,0.2-1.1,0.2c-0.4,0-0.8-0.1-1.1-0.2
		c-0.3-0.2-0.6-0.4-0.8-0.6s-0.4-0.6-0.5-0.9c-0.1-0.4-0.2-0.8-0.2-1.2c0-0.4,0.1-0.8,0.2-1.2c0.1-0.4,0.3-0.7,0.5-1
		c0.2-0.3,0.5-0.5,0.8-0.6c0.3-0.2,0.7-0.2,1.1-0.2c0.4,0,0.8,0.1,1.1,0.2s0.7,0.4,0.9,0.8v-3.1h1v7.9H66.4z M66.4,139.1
		c0-0.3,0-0.6-0.1-0.8s-0.2-0.5-0.4-0.7c-0.2-0.2-0.4-0.3-0.6-0.5c-0.2-0.1-0.5-0.2-0.8-0.2s-0.6,0.1-0.8,0.2
		c-0.2,0.1-0.4,0.3-0.6,0.5c-0.2,0.2-0.3,0.4-0.3,0.7s-0.1,0.5-0.1,0.8c0,0.3,0,0.6,0.1,0.8c0.1,0.3,0.2,0.5,0.3,0.7
		c0.1,0.2,0.3,0.3,0.6,0.5c0.2,0.1,0.5,0.2,0.8,0.2s0.6-0.1,0.8-0.2s0.4-0.3,0.6-0.5c0.2-0.2,0.3-0.4,0.4-0.7S66.4,139.4,66.4,139.1
		z"/>
	<path class="st8" d="M74.7,141.1c0,0.4,0,0.8-0.1,1.1c-0.1,0.3-0.2,0.7-0.5,0.9c-0.1,0.2-0.3,0.3-0.5,0.4c-0.2,0.1-0.4,0.2-0.6,0.3
		c-0.2,0.1-0.4,0.1-0.6,0.2c-0.2,0-0.4,0-0.7,0c-0.9,0-1.7-0.2-2.3-0.7l0.5-0.8c0.2,0.2,0.5,0.3,0.8,0.4s0.6,0.2,1,0.2
		c0.3,0,0.5,0,0.8-0.1c0.2-0.1,0.5-0.2,0.6-0.3s0.3-0.3,0.4-0.6s0.2-0.5,0.2-0.9v-0.6c-0.2,0.3-0.5,0.6-0.8,0.8
		c-0.3,0.2-0.8,0.3-1.2,0.3c-0.4,0-0.7-0.1-1.1-0.2c-0.3-0.1-0.6-0.3-0.8-0.6c-0.2-0.3-0.4-0.6-0.5-0.9c-0.1-0.3-0.2-0.7-0.2-1.1
		c0-0.4,0.1-0.8,0.2-1.1s0.3-0.6,0.5-0.9s0.5-0.5,0.8-0.6c0.3-0.1,0.7-0.2,1.1-0.2s0.8,0.1,1.1,0.2s0.7,0.4,0.9,0.8v-0.9h1V141.1z
		 M73.7,139c0-0.3,0-0.5-0.1-0.7s-0.2-0.4-0.4-0.6c-0.2-0.2-0.3-0.3-0.6-0.4c-0.2-0.1-0.5-0.2-0.8-0.2s-0.6,0.1-0.8,0.2
		c-0.2,0.1-0.4,0.2-0.6,0.4c-0.2,0.2-0.3,0.4-0.3,0.6c-0.1,0.2-0.1,0.5-0.1,0.7c0,0.3,0,0.5,0.1,0.7c0.1,0.2,0.2,0.4,0.3,0.6
		c0.1,0.2,0.3,0.3,0.6,0.4c0.2,0.1,0.5,0.2,0.8,0.2c0.3,0,0.6-0.1,0.8-0.2s0.4-0.3,0.6-0.4c0.2-0.2,0.3-0.4,0.4-0.6
		S73.7,139.2,73.7,139z"/>
	<path class="st8" d="M76.6,134.7c0-0.2,0.1-0.3,0.2-0.4c0.1-0.1,0.2-0.2,0.4-0.2c0.2,0,0.3,0.1,0.4,0.2s0.2,0.3,0.2,0.4
		c0,0.2-0.1,0.3-0.2,0.4c-0.1,0.1-0.3,0.2-0.4,0.2c-0.2,0-0.3-0.1-0.4-0.2C76.7,135,76.6,134.8,76.6,134.7z M76.7,142v-5.7h1v5.7
		H76.7z"/>
	<path class="st8" d="M79.7,142v-5.7h1v0.9c0.2-0.4,0.5-0.6,0.8-0.8c0.3-0.2,0.7-0.3,1.1-0.3c0.6,0,1.1,0.2,1.5,0.6
		c0.4,0.4,0.5,0.9,0.5,1.6v3.7h-1v-3.5c0-0.2,0-0.3,0-0.5c0-0.2-0.1-0.3-0.2-0.5c-0.1-0.1-0.2-0.3-0.4-0.4s-0.4-0.1-0.6-0.1
		c-0.2,0-0.5,0-0.7,0.1c-0.2,0.1-0.4,0.2-0.5,0.4c-0.2,0.2-0.3,0.3-0.4,0.6c-0.1,0.2-0.1,0.5-0.1,0.7v3.2H79.7z"/>
	<path class="st8" d="M91.9,141.1c0,0.4,0,0.8-0.1,1.1c-0.1,0.3-0.2,0.7-0.5,0.9c-0.1,0.2-0.3,0.3-0.5,0.4c-0.2,0.1-0.4,0.2-0.6,0.3
		c-0.2,0.1-0.4,0.1-0.6,0.2c-0.2,0-0.5,0-0.7,0c-0.9,0-1.7-0.2-2.3-0.7l0.5-0.8c0.2,0.2,0.5,0.3,0.8,0.4c0.3,0.1,0.6,0.2,1,0.2
		c0.3,0,0.5,0,0.8-0.1c0.2-0.1,0.5-0.2,0.6-0.3s0.3-0.3,0.4-0.6s0.2-0.5,0.2-0.9v-0.6c-0.2,0.3-0.5,0.6-0.8,0.8
		c-0.3,0.2-0.8,0.3-1.2,0.3c-0.4,0-0.7-0.1-1.1-0.2c-0.3-0.1-0.6-0.3-0.8-0.6c-0.2-0.3-0.4-0.6-0.5-0.9c-0.1-0.3-0.2-0.7-0.2-1.1
		c0-0.4,0.1-0.8,0.2-1.1s0.3-0.6,0.5-0.9c0.2-0.3,0.5-0.5,0.8-0.6c0.3-0.1,0.7-0.2,1.1-0.2c0.4,0,0.8,0.1,1.1,0.2s0.7,0.4,0.9,0.8
		v-0.9h1V141.1z M90.9,139c0-0.3,0-0.5-0.1-0.7s-0.2-0.4-0.4-0.6c-0.2-0.2-0.3-0.3-0.6-0.4c-0.2-0.1-0.5-0.2-0.8-0.2
		c-0.3,0-0.6,0.1-0.8,0.2c-0.2,0.1-0.4,0.2-0.6,0.4c-0.2,0.2-0.3,0.4-0.3,0.6s-0.1,0.5-0.1,0.7c0,0.3,0,0.5,0.1,0.7s0.2,0.4,0.3,0.6
		c0.2,0.2,0.3,0.3,0.6,0.4c0.2,0.1,0.5,0.2,0.8,0.2s0.6-0.1,0.8-0.2c0.2-0.1,0.4-0.3,0.6-0.4c0.2-0.2,0.3-0.4,0.4-0.6
		S90.9,139.2,90.9,139z"/>
</g>
<g id="membership-icon" transform="translate(49.000000, 477.000000)">
	<path id="Fill-1_10_" class="st1" d="M26.8-416.2H20c-0.3,0-0.6,0.3-0.6,0.6s0.3,0.6,0.6,0.6h6.8c0.3,0,0.6-0.3,0.6-0.6
		S27.2-416.2,26.8-416.2"/>
	<path id="Fill-3_3_" class="st1" d="M26.8-412.9H20c-0.3,0-0.6,0.3-0.6,0.6c0,0.3,0.3,0.6,0.6,0.6h6.8c0.3,0,0.6-0.3,0.6-0.6
		C27.4-412.7,27.2-412.9,26.8-412.9"/>
	<path id="Fill-5_3_" class="st1" d="M26.8-409.6H20c-0.3,0-0.6,0.3-0.6,0.6c0,0.3,0.3,0.6,0.6,0.6h6.8c0.3,0,0.6-0.3,0.6-0.6
		C27.4-409.4,27.2-409.6,26.8-409.6"/>
	<g id="Group-9_1_" transform="translate(0.000000, 0.057100)">
		<path id="Fill-7_4_" class="st1" d="M30.5-405.5c0,1.4-1.1,2.5-2.6,2.5H15.5v-4.4c0-1.8-0.6-3.8-3.2-4.6c0.9-0.7,1.4-1.8,1.4-3
			c0-2.1-1.7-3.8-3.8-3.8c-2.1,0-3.8,1.7-3.8,3.8c0,1.2,0.6,2.3,1.4,3c-2.6,0.8-3.2,2.8-3.2,4.6v4.4H3.6c-1.4,0-2.6-1.1-2.6-2.5
			v-13.1c0-1.4,1.1-2.5,2.6-2.5h24.3c1.4,0,2.6,1.1,2.6,2.5V-405.5z M7.3-414.9c0.6,0,1.5-0.2,2.4-0.7c0.4-0.2,0.6-0.4,0.9-0.5
			c0.8,0.4,1.6,0.4,2,0.4c0,0.2,0.1,0.4,0.1,0.6c0,1.5-1.2,2.7-2.7,2.7C8.5-412.3,7.4-413.5,7.3-414.9L7.3-414.9z M5.5-403v-4.4
			c0-2.5,1.5-3.8,4.4-3.8c3,0,4.4,1.2,4.4,3.8v4.4H5.5z M27.9-422.1H3.6c-2,0-3.6,1.6-3.6,3.5v13.1c0,1.9,1.6,3.5,3.6,3.5h0.8l1.1,0
			v0h8.9v0l1.1,0h12.4c2,0,3.6-1.6,3.6-3.5v-13.1C31.5-420.5,29.9-422.1,27.9-422.1L27.9-422.1z"/>
	</g>
</g>
<g id="Page-1_2_" transform="translate(174.000000, 570.000000)">
	<g id="Group-3_1_" transform="translate(0.000000, 0.304416)">
		<g id="Clip-2_1_">
		</g>
		<defs>
			<filter id="Adobe_OpacityMaskFilter_2_" filterUnits="userSpaceOnUse" x="0" y="-422.2" width="27.1" height="26.1">
				<feColorMatrix  type="matrix" values="1 0 0 0 0  0 1 0 0 0  0 0 1 0 0  0 0 0 1 0"/>
			</filter>
		</defs>
		<mask maskUnits="userSpaceOnUse" x="0" y="-422.2" width="27.1" height="26.1" id="mask-10_1_">
			<g class="st9">
				<polygon id="path-9_1_" class="st3" points="13.5,-396.1 27.1,-396.1 27.1,-422.2 13.5,-422.2 0,-422.2 0,-396.1 				"/>
			</g>
		</mask>
		<path id="Fill-1_11_" class="st10" d="M25.6-399.1c-0.2,0.2-0.9,0.3-1.7,0.3c-0.2-1.1-1.1-1.9-2.3-1.9c-1.1,0-2.1,0.8-2.3,1.9H7.8
			c-0.2-1.1-1.1-1.9-2.3-1.9c-1.1,0-2,0.8-2.2,1.8c-1.8-0.1-1.9-0.5-2.1-0.9c-0.1-0.3-0.1-0.6-0.1-0.8l0.4-0.6l0-0.2
			c0,0,0-0.7,0.1-1.3c0.1,0,0.3,0,0.4-0.1c0.5-0.2,0.6-0.5,0.4-0.8c-0.1-0.1-0.3-0.2-0.4-0.2c0.1,0,0.3-0.1,0.4-0.1l0.2,0
			c0.8-0.1,1.6-0.3,2.5-0.9c1.3-0.9,2.6-1.5,4-1.8c1.2,1.5,2.4,3.1,3,5.2c0.1,0.3,0.3,0.4,0.6,0.4c0.3,0,0.5-0.2,0.6-0.4
			c0.5-1.8,1.4-3.3,2.5-4.6c0.1,0,0.1,0.1,0.2,0.1c0.8,0.4,3.1,2.1,3.1,2.1l0.1,0.1l0.2,0c0,0,1.8,0.1,3.4,0.4
			c1.2,0.3,2,0.5,2.3,0.7c-0.2,0.1-0.3,0.3-0.2,0.6c0.1,0.3,0.5,0.5,0.9,0.5C26-400.6,26-399.6,25.6-399.1 M23-398.2
			c-0.1,0.6-0.7,1.1-1.3,1.1c-0.7,0-1.2-0.5-1.3-1.1c0-0.1,0-0.1,0-0.2c0-0.7,0.6-1.4,1.4-1.4s1.4,0.6,1.4,1.4
			C23.1-398.3,23-398.3,23-398.2 M6.8-398.2c-0.1,0.6-0.6,1.1-1.3,1.1c-0.7,0-1.2-0.5-1.3-1.2c0,0,0-0.1,0-0.1
			c0-0.7,0.6-1.3,1.3-1.3c0.7,0,1.3,0.6,1.3,1.3C6.8-398.3,6.8-398.3,6.8-398.2 M6.1-414.4c0-3.6,3-6.6,6.6-6.6s6.6,3,6.6,6.6
			c0,2.5-1.5,4.2-3.2,6.2c-1.2,1.4-2.5,2.9-3.4,4.9c-0.9-2-2.2-3.5-3.4-4.9C7.6-410.2,6.1-411.9,6.1-414.4 M26.5-402.9
			c-0.3-0.6-1.5-1-3.4-1.4c-1.4-0.3-2.9-0.4-3.4-0.4c-0.5-0.4-2.3-1.7-3.1-2.1c0.1-0.2,0.3-0.4,0.4-0.5c1.8-2.1,3.5-4,3.5-7
			c0-4.3-3.5-7.7-7.7-7.7c-4.3,0-7.7,3.5-7.7,7.7c0,2.9,1.6,4.8,3.4,6.9c-1.3,0.4-2.6,1-3.9,1.8c-0.7,0.5-1.3,0.6-2,0.8l-0.2,0
			c-1.5,0.3-1.7,1.1-1.7,1.5c0,0.4,0,1.5-0.1,1.9L0.1-401l0,0.1c0,0.1-0.2,0.8,0.1,1.5c0.4,1.2,1.3,1.7,3.3,1.7
			c0.3,0.9,1.2,1.6,2.2,1.6c1,0,1.8-0.6,2.1-1.5h11.9c0.3,0.9,1.2,1.5,2.1,1.5c1,0,1.8-0.6,2.1-1.5c0.9,0,2.3-0.2,2.7-0.8
			C27.3-399.5,27.3-401.6,26.5-402.9"/>
	</g>
	<path id="Fill-4_4_" class="st1" d="M12.6-411.6c1.6,0,2.9-1.3,2.9-2.9c0-1.6-1.3-2.9-2.9-2.9c-1.6,0-2.9,1.3-2.9,2.9
		C9.7-412.9,11-411.6,12.6-411.6"/>
</g>
<g id="Page-1_3_" transform="translate(175.000000, 474.000000)">
	<g id="Group-3_2_" transform="translate(0.000000, 0.894500)">
		<g id="Clip-2_2_">
		</g>
		<defs>
			<filter id="Adobe_OpacityMaskFilter_3_" filterUnits="userSpaceOnUse" x="0" y="-422.9" width="26.9" height="26.9">
				<feColorMatrix  type="matrix" values="1 0 0 0 0  0 1 0 0 0  0 0 1 0 0  0 0 0 1 0"/>
			</filter>
		</defs>
		<mask maskUnits="userSpaceOnUse" x="0" y="-422.9" width="26.9" height="26.9" id="mask-12_1_">
			<g class="st11">
				<polygon id="path-11_1_" class="st3" points="0,-422.9 0,-396 26.9,-396 26.9,-422.9 				"/>
			</g>
		</mask>
		<path id="Fill-1_12_" class="st12" d="M1-409.4c0-6.8,5.6-12.4,12.4-12.4c6.8,0,12.4,5.6,12.4,12.4c0,6.8-5.6,12.4-12.4,12.4
			C6.6-397,1-402.6,1-409.4 M13.4-422.9c-7.4,0-13.4,6-13.4,13.4S6-396,13.4-396s13.4-6,13.4-13.4S20.9-422.9,13.4-422.9"/>
	</g>
	<path id="Fill-4_5_" class="st1" d="M14.3-407v3.8c1.4-0.1,2-0.9,2-1.9C16.3-406.2,15.4-406.7,14.3-407L14.3-407z M12.9-410.6v-3.5
		c-1.1,0-2,0.6-2,1.7C11-411.3,11.7-410.9,12.9-410.6L12.9-410.6z M12.9-399.5v-1.1c-2.6-0.2-4.7-1.6-5.7-3.3l2.1-1.8
		c0.8,1.3,2,2.2,3.5,2.4v-4.1c-1.9-0.4-5-1.5-5-4.7c0-2.7,2.1-4.5,5-4.6v-1.1h1.3v1.2c1.8,0.2,3.6,1.1,4.7,2.7l-2,1.7
		c-0.8-1-1.6-1.5-2.7-1.8v3.7c2.4,0.7,5,1.8,5,4.8c0,2.5-1.8,4.5-5,4.8v1.1H12.9z"/>
</g>
<path id="Line_9_" class="st13" d="M15,99h95"/>
<path id="Line_10_" class="st13" d="M124.5,30.5v50"/>
<path id="Line_11_" class="st13" d="M124.5,127.5v50"/>
<path id="Line_12_" class="st13" d="M249.5,30.5v50"/>
<path id="Line_13_" class="st13" d="M249.5,127.5v50"/>
<path id="Line_14_" class="st13" d="M140,99h95"/>
<path id="Line_15_" class="st13" d="M266,99h95"/>
<g id="Page-1_4_" transform="translate(292.000000, 480.000000)">
	<path id="Fill-1_13_" class="st1" d="M8-410.6l6,0.2c0.2,0,0.5-0.2,0.4-0.4L14-413c-0.1-0.3-0.2-0.4-0.4-0.4c0,0-1.8,0.1-3.5,0.7
		C8.2-412,7.7-411,7.7-411C7.6-410.8,7.7-410.6,8-410.6"/>
	<path id="Fill-3_4_" class="st1" d="M21.7-410.1c0.2,0,0.3-0.1,0.2-0.3c0,0-1.8-2.2-4.3-2.7c-0.6-0.1-2-0.2-2-0.2
		c-0.2,0-0.5,0.2-0.4,0.4l0.4,2.2c0,0.2,0.2,0.5,0.4,0.5L21.7-410.1z"/>
	<g id="Group-7_1_" transform="translate(0.000000, 0.102200)">
		<path id="Fill-5_4_" class="st1" d="M30.2-412.9l-3.3-3.3l1.2-1.2l1.5,1.5c0.2,0.2,0.4,0.2,0.6,0.2s0.4-0.1,0.6-0.2l4.9-4.9
			l1.2,1.2L30.2-412.9z M31.1-410.7c-0.7-0.2-1.5-0.4-2.2-0.6c-0.6-0.1-1.1-0.2-1.7-0.3c-1.3-0.9-2.1-2.4-2.1-4.1
			c0-2.8,2.3-5.1,5.1-5.1c1,0,2.1,0.3,2.9,0.9l-2.8,2.8l-1.5-1.5c-0.2-0.1-0.4-0.2-0.6-0.2c-0.2,0-0.4,0.1-0.6,0.2l-1.6,1.6
			c-0.3,0.3-0.3,0.9,0,1.2l3.7,3.7c0.2,0.2,0.4,0.2,0.6,0.2c0.2,0,0.4-0.1,0.6-0.2l4.3-4.3c0,0.2,0,0.4,0,0.6
			C35.2-413.2,33.4-411.1,31.1-410.7L31.1-410.7z M32.4-404.7c-0.2,0.2-1.2,0.4-2.2,0.5c-0.1-1.5-1.4-2.6-2.9-2.6
			c-1.5,0-2.7,1.1-2.9,2.6H9.7c-0.1-1.5-1.4-2.6-2.9-2.6c-1.5,0-2.7,1.1-2.9,2.5c-2.4-0.1-2.6-0.8-2.8-1.3c-0.1-0.4-0.1-0.9-0.1-1.1
			l0.5-0.7l0-0.2c0,0,0-0.5,0-1.1c0.2,0,0.4,0,0.6-0.1c0.6-0.2,0.8-0.6,0.5-1c-0.2-0.2-0.6-0.4-1.1-0.4c0-0.1,0-0.2,0-0.2
			c0-0.3,0.4-0.5,1.1-0.6l0.3-0.1c1-0.2,1.9-0.3,3.1-1.2c2.4-1.7,4.9-2.5,7.7-2.6c3.9-0.1,5.3,0.6,6.2,1.2c1.1,0.6,4,2.7,4,2.7
			l0.1,0.1l0.2,0c0,0,2.3,0.1,4.3,0.6c1.7,0.4,2.7,0.7,3.2,1c-0.5,0.1-0.7,0.4-0.5,0.8c0.2,0.4,0.8,0.7,1.3,0.7
			C32.9-406.6,32.8-405.4,32.4-404.7L32.4-404.7z M27.3-402.2c-0.9,0-1.7-0.8-1.7-1.7s0.8-1.7,1.7-1.7s1.7,0.8,1.7,1.7
			S28.2-402.2,27.3-402.2L27.3-402.2z M6.8-402.3c-0.9,0-1.6-0.7-1.6-1.6c0-0.9,0.7-1.6,1.6-1.6s1.6,0.7,1.6,1.6
			C8.5-403,7.7-402.3,6.8-402.3L6.8-402.3z M38.2-419.6c0-0.2-0.1-0.4-0.2-0.6l-1.6-1.6c-0.2-0.2-0.4-0.2-0.6-0.2s-0.4,0.1-0.6,0.2
			l-1.3,1.3c-1.1-0.8-2.4-1.2-3.7-1.2c-3.4,0-6.2,2.8-6.2,6.2c0,1.5,0.5,2.8,1.4,3.9c-0.3,0-0.6,0-0.7-0.1c-0.6-0.4-3-2.2-4-2.7
			c-1.1-0.6-2.6-1.4-6.8-1.3c-3,0.1-5.7,1-8.3,2.8c-1,0.7-1.7,0.8-2.7,1L2.6-412c-1.6,0.3-2,1.1-2,1.7c0,0.5-0.1,2-0.1,2.5l-0.4,0.6
			l0,0.1c0,0.1-0.2,1,0.1,1.8c0.5,1.4,1.6,2,3.9,2.1c0.3,1.3,1.4,2.2,2.8,2.2c1.3,0,2.4-0.9,2.8-2.1h14.9c0.4,1.2,1.5,2.1,2.8,2.1
			c1.3,0,2.4-0.9,2.8-2.1c1.1,0,2.7-0.2,3.3-1c0.9-1.3,0.8-3.8-0.1-5.5c-0.1-0.2-0.3-0.4-0.6-0.5c2.2-1,3.7-3.1,3.7-5.6
			c0-0.5-0.1-1.1-0.2-1.6l1.8-1.8C38.1-419.2,38.2-419.4,38.2-419.6L38.2-419.6z"/>
	</g>
</g>
<g id="Page-1_5_" transform="translate(295.000000, 574.000000)">
	<g id="Clip-2_3_">
	</g>
	<defs>
		<filter id="Adobe_OpacityMaskFilter_4_" filterUnits="userSpaceOnUse" x="0" y="-423" width="31.9" height="19.9">
			<feColorMatrix  type="matrix" values="1 0 0 0 0  0 1 0 0 0  0 0 1 0 0  0 0 0 1 0"/>
		</filter>
	</defs>
	<mask maskUnits="userSpaceOnUse" x="0" y="-423" width="31.9" height="19.9" id="mask-14_1_">
		<g class="st14">
			<polygon id="path-13_1_" class="st3" points="0,-423 0,-403.1 31.9,-403.1 31.9,-423 			"/>
		</g>
	</mask>
	<path id="Fill-1_14_" class="st15" d="M30.2-421c-0.1,0-0.1,0.1-0.2,0.2c0,0.1-0.1,0.2,0,0.3c0,0-0.1,0.1-0.1,0.1
		c-0.1,0-0.1,0.1-0.2,0.1c0,0-0.1,0.1-0.1,0.2l0,0.1c0,0.1,0,0.2,0,0.3c0,0,0,0,0,0l-0.1,0.2c-0.1,0.1-0.1,0.2-0.1,0.4l0,0.1
		c0,0.1,0.1,0.2,0.1,0.3c0,0.1,0,0.1,0,0.2c0,0,0,0.1,0,0.1c0,0,0,0.1,0,0.1l-0.3,0.1l-0.1,0c-0.1,0-0.2,0.1-0.3,0.2
		c0,0-0.1,0.1-0.1,0.1c0,0,0,0-0.1,0l-0.1,0.1c-0.1,0.1-0.2,0.1-0.2,0.2c-0.1,0.1-0.1,0.1-0.1,0.2l0,0.1c0,0.1-0.1,0.2-0.1,0.3
		c0,0.1,0,0.2,0.1,0.3c0,0,0,0.1,0.1,0.1c-0.1,0-0.2,0-0.3,0.1c-0.1,0-0.1,0-0.2,0c-0.2,0-0.3,0.2-0.4,0.4c0,0,0,0,0,0l0,0
		c-0.1,0.1-0.2,0.3-0.2,0.4c0,0,0,0,0,0.1c-0.1,0-0.1,0-0.1,0.1c-0.1,0.1-0.2,0.3-0.2,0.4c0,0.1,0,0.2,0.1,0.3
		c0,0.1,0.1,0.2,0.2,0.2c0.1,0.1,0.2,0.1,0.2,0.1l0.2,0c0,0,0.1,0,0.1,0c0,0,0,0.1,0,0.1c0,0.1,0,0.1,0,0.2c0,0.2,0.2,0.3,0.3,0.4
		c-0.1,0.1-0.1,0.1-0.2,0.2c-0.1,0.1-0.1,0.3,0,0.4l0.1,0.1c0,0,0,0.1,0,0.1c0,0.1,0,0.1,0,0.2c0,0.1,0,0.2,0.1,0.2l-0.2,0.2
		c-0.1,0.1-0.1,0.1-0.1,0.2l0,0c0,0,0,0.1-0.1,0.1l-0.1,0c0,0-0.1,0.1-0.1,0.1c-0.1,0.1-0.2,0.2-0.3,0.4l-0.1,0.4l0,0
		c0,0,0,0.1-0.1,0.1l0,0c0,0.1-0.1,0.1-0.1,0.2c0,0,0,0.1-0.1,0.1c0,0,0,0,0,0l-0.1,0.1l-0.3,0.1c-0.2,0.1-0.3,0.2-0.4,0.4
		c0,0.1,0,0.1,0,0.2c0,0,0,0,0,0.1c0,0,0,0.1,0,0.1l0,0c0,0,0,0.1,0,0.1l-0.1,0.4c0,0,0,0.1,0,0.2l0,0.1c0,0.1,0,0.2,0,0.3l0,0.1
		c0,0.1,0,0.2,0.1,0.3l0.3,0.5l0.3,0.4c0,0,0.1,0.1,0.1,0.1l0.3,0.2l0.1,0.1c0,0.1,0,0.1,0.1,0.2l0.1,0.1c0,0,0.1,0.1,0.1,0.1
		l0.4,0.5l0.1,0.3c-0.1,0-0.1-0.1-0.1-0.1c0,0-0.1,0-0.1,0c0,0,0-0.1-0.1-0.1c0-0.1-0.1-0.2-0.2-0.3c-0.1-0.1-0.2-0.2-0.3-0.2
		c0,0-0.1,0-0.1,0l0,0c0-0.2-0.1-0.4-0.3-0.5l0-0.1c0,0,0-0.1,0-0.1l-0.1-0.2c0,0-0.1-0.1-0.1-0.2c0,0-0.1-0.1-0.1-0.2
		c-0.1-0.1-0.2-0.1-0.3-0.1l-0.2-0.1c-0.1-0.1-0.2-0.1-0.2-0.2l-0.3-0.2c-0.1,0-0.1,0-0.2,0l-0.1,0c0,0-0.1,0-0.2,0c0,0-0.1,0-0.1,0
		l-0.1,0c-0.1,0-0.2,0.1-0.3,0.2c0,0,0,0,0,0.1l-0.1,0.1c0,0,0,0,0,0c0,0-0.1,0-0.1-0.1l-0.4-0.1c-0.1-0.1-0.2-0.1-0.3-0.1
		c0,0-0.1,0-0.1,0l-0.1,0c0,0-0.1,0-0.1,0l0,0c-0.1,0-0.1,0-0.2,0c-0.1,0-0.2,0-0.2,0.1c-0.1-0.2-0.3-0.2-0.5-0.2
		c-0.2,0-0.4,0.2-0.4,0.4l-0.1,0c-0.1,0-0.2,0-0.2,0.1c-0.1,0-0.2,0-0.2,0.1l0,0l-0.1,0c-0.1,0-0.2,0-0.3,0l-0.2,0.1
		c-0.2,0.1-0.3,0.2-0.3,0.4l0,0.1c0,0,0,0,0,0.1c0,0-0.1,0-0.1,0l-0.2-0.1c-0.1,0-0.1,0-0.2,0l-0.1,0c-0.1,0-0.2,0.1-0.3,0.2
		l-0.4-0.1c-0.1,0-0.1,0-0.2,0l-0.6,0.1c0,0-0.1,0-0.1,0c-0.1,0-0.2,0-0.3-0.1c-0.1,0-0.2,0-0.3,0.1c-0.1,0-0.1,0.1-0.2,0.1
		c-0.1,0.1-0.1,0.3-0.1,0.4l0,0.2l0,0c-0.1,0-0.2,0-0.3,0c-0.1,0-0.1,0-0.2,0c-0.2,0-0.4,0.2-0.4,0.3c0,0,0,0.1,0,0.1c0,0,0,0,0,0
		c0,0,0,0,0,0l-0.1,0.1c-0.1,0.1-0.2,0.1-0.2,0.2c-0.1,0.1-0.1,0.2-0.2,0.3c0,0.1,0,0.1,0,0.2c-0.1,0.1-0.1,0.1-0.1,0.2
		c0,0.1,0,0.2,0.1,0.3c-0.1,0-0.1,0-0.2,0h0h-0.1l-0.2-0.1l-0.2-0.4c-0.1-0.1-0.1-0.2-0.3-0.2l-0.1,0l-0.1-0.1c0,0-0.1-0.1-0.1-0.1
		l-0.1-0.1l-0.2-0.4c-0.1-0.1-0.1-0.2-0.2-0.2l-0.1-0.1c0,0-0.1-0.1-0.1-0.1l-0.3-0.2c-0.1-0.1-0.3-0.1-0.4-0.1l-0.5,0l-0.1,0
		c-0.1,0-0.2,0-0.3,0l-0.1,0.1c-0.1,0-0.2,0.1-0.2,0.2c0,0-0.1,0.1-0.1,0.1l-0.1,0.2l-0.2-0.2l-0.2-0.5c0-0.1-0.1-0.2-0.2-0.3
		l-0.3-0.2l-0.2-0.2l-0.1-0.1c-0.1-0.1-0.1-0.1-0.2-0.2h0c-0.1-0.1-0.2-0.2-0.3-0.2l-0.1-0.1c-0.1,0-0.2-0.1-0.2,0l-0.2,0l3.2-1.8
		c0.3,0.2,0.5,0.3,0.8,0.4c0.5,0.2,1.1,0.3,1.6,0.3l0.2,0c0.7,0,1.4-0.2,2-0.5c0.6-0.3,1.5-1.2,1.7-1.3c0.3-0.4,0.3-1-0.2-1.4
		c-0.2-0.1-0.4-0.2-0.6-0.2l-1.9-0.1l-0.7-1.2l0.7-1.2l1.9,0.1c0.5,0,1-0.4,1-0.9c0-0.2,0-0.4-0.2-0.6c-0.4-0.6-1-1.1-1.6-1.4
		c-0.6-0.3-1.4-0.5-2.1-0.6l-0.1,0c-1.2,0-2.3,0.5-3.2,1.3c-0.8,0.8-1.3,1.8-1.4,3l-7,3.8c-0.1,0-0.2-0.1-0.2-0.1c0,0,0,0-0.1,0
		c0,0,0,0,0,0c0,0,0-0.1,0-0.1c0-0.1-0.1-0.2-0.1-0.3c0,0,0,0,0-0.1c0-0.1-0.1-0.2-0.2-0.3L2.2-411L2-411.6c0-0.1,0-0.1,0.1-0.2
		l0-0.1c0-0.1,0-0.2,0-0.3l0-0.1c0,0,0,0,0-0.1c0-0.1,0-0.1,0-0.2v0c0.1-0.1,0.1-0.2,0.2-0.3c0-0.2-0.1-0.4-0.3-0.5l-0.1-0.1
		c0,0-0.1,0-0.1-0.1l-0.1,0l-0.1-0.5l-0.1-0.2l0-0.2c0-0.1,0.1-0.2,0.1-0.3c0-0.1,0-0.1,0-0.2l-0.1-0.3c0.1-0.1,0.1-0.1,0.1-0.2
		l0.1-0.3c0-0.1,0-0.1,0-0.2l0-0.4l0-0.1c0,0,0-0.1,0-0.1l0-0.1l0-0.2l0-0.1c0.1-0.1,0.3-0.3,0.3-0.4l0.1-0.1c0,0,0-0.1,0-0.1l0-0.1
		c0,0,0-0.1,0.1-0.1l0.1-0.3l0,0c0,0,0.1-0.1,0.1-0.1l0.1-0.2c0,0,0.1-0.1,0.1-0.2c0.1,0,0.3-0.1,0.4-0.2c0.1-0.2,0.1-0.4,0-0.6
		c0.1,0,0.3-0.1,0.4-0.2c0.1,0,0.1,0,0.2,0c0.1,0,0.2-0.1,0.3-0.3l0.1-0.3c0,0,0-0.1,0-0.1c0.9,0.2,2.7,0.5,5.3,0.7
		c3.2,0.3,5.5,0.2,6.2,0.2c0.1,0.1,0.3,0.1,0.4,0.2c0.1,0,0.1,0,0.2,0c0,0,0,0,0,0l0.1,0c0.1,0,0.1,0,0.2,0c0.1,0,0.1,0,0.2,0l0.1,0
		c0,0,0.1,0,0.1,0l0.1,0c0,0,0.1,0.1,0.1,0.1c0,0,0.1,0,0.1,0c0,0,0.1,0,0.1,0l-0.1,0.1c0,0-0.1,0.1-0.1,0.1
		c-0.2,0.2-0.1,0.6,0.1,0.8c0.1,0.1,0.3,0.1,0.5,0.1c0.1,0,0.1,0,0.2,0l0.1,0c0,0,0.1,0,0.1,0c0.1,0,0.1,0,0.2,0c0,0,0.1,0,0.2,0
		l0.3,0c0.1,0,0.2-0.1,0.2-0.1l0.1-0.1l0.1,0c0,0,0,0,0.1,0c0,0,0.1,0,0.2,0.1c0.1,0,0.3,0,0.4-0.1c0,0,0,0,0,0l0.1,0.1l-0.1,0.3
		c-0.1,0.1-0.1,0.2-0.1,0.2l0,0.1c0,0.1,0,0.2,0,0.3c0,0.1,0.1,0.3,0.3,0.3c0,0,0,0,0,0.1l0,0l0,0.1c0,0,0,0.1,0,0.1l0,0.1
		c0,0.1,0,0.1,0,0.2l0,0.1c0,0,0,0.1,0,0.1l0.1,0.3c0,0.1,0,0.1,0.1,0.2l0.2,0.3c0,0,0.1,0.1,0.1,0.1c0.1,0.1,0.2,0.1,0.3,0.2
		c0,0,0.1,0,0.1,0c0,0,0.2,0,0.2,0c0.1,0,0.2-0.1,0.3-0.1l0.3-0.2c0.1-0.1,0.2-0.2,0.2-0.4l0.1-0.5c0-0.1,0-0.1,0-0.2l-0.1-0.3
		c0-0.1-0.1-0.2-0.1-0.3c0,0-0.1-0.1-0.1-0.1l0,0l0-0.1c0-0.1,0-0.1,0-0.2c0.1,0,0.1-0.1,0.2-0.2c0,0,0.1-0.1,0.1-0.1
		c0-0.1,0.1-0.1,0.1-0.2c0,0,0,0,0.1-0.1h0c0,0,0,0,0.1,0c0,0,0,0,0,0.1c-0.1,0.1-0.1,0.2-0.1,0.3c0,0,0,0.2,0,0.2
		c0,0.2,0.1,0.3,0.2,0.4c0.1,0.1,0.3,0.1,0.4,0.1c0.1,0,0.2,0,0.3-0.1c0,0,0,0.1,0,0.1c0,0,0,0.1,0,0.1l0,0.1c0,0,0,0,0,0.1
		c0,0-0.1,0.1-0.1,0.2c-0.1,0.2,0,0.3,0,0.5c0.1,0.1,0.2,0.2,0.4,0.3l0.1,0c0.1,0,0.2,0,0.2,0c0,0,0,0,0.1,0c0,0,0.1,0,0.1,0l0.2,0
		c0.1,0,0.1,0,0.2-0.1l0.2-0.1c0.1,0,0.2-0.1,0.2-0.1l0.3-0.2l0.2-0.1c0,0,0.1,0,0.1-0.1l0.1-0.1c0,0,0,0,0.1-0.1
		c0.1,0,0.1-0.1,0.2-0.1l0.3-0.3c0,0,0.1,0,0.1-0.1c0,0,0.1-0.1,0.1-0.2l0.1-0.1c0.1-0.1,0.1-0.2,0.1-0.3c0.1,0,0.3,0,0.4-0.1l0,0
		c0,0,0,0,0,0l0.2-0.1c0,0,0.2-0.1,0.2-0.1c0.1,0,0.1-0.1,0.1-0.1l0.1-0.1c0.2-0.1,0.3-0.4,0.3-0.6c0-0.1,0-0.1-0.1-0.2
		c0,0,0,0,0-0.1c0,0,0,0,0-0.1l0-0.1l0,0l0,0c0,0,0.1-0.1,0.1-0.1l1.7-0.6c0.2-0.1,0.3-0.2,0.3-0.3c0.1,0,0.1-0.1,0.2-0.1
		c0.1,0,0.1-0.1,0.1-0.1c0.1-0.1,0.1-0.3,0.1-0.4c0,0,0-0.1,0-0.1c0-0.1,0-0.2,0-0.3l-0.1-0.2c0,0,0-0.1,0-0.2v-0.1c0,0,0-0.1,0-0.1
		c0.1,0,0.1,0,0.2-0.1l0.3,0.5c0,0.1,0.1,0.1,0.2,0.2C30.3-421.1,30.2-421,30.2-421 M31.9-421.3c0-0.1-0.1-0.2-0.2-0.3c0,0,0,0,0,0
		l0-0.1c0,0-0.1-0.1-0.1-0.1c-0.1-0.1-0.3-0.2-0.4-0.2c-0.1-0.1-0.1-0.1-0.2-0.1l-0.3-0.6c-0.1-0.1-0.2-0.2-0.3-0.2l-0.4-0.1
		c-0.1,0-0.3,0-0.4,0c-0.1,0-0.1,0.1-0.2,0.1c-0.1,0-0.2,0-0.3,0c-0.1,0-0.2,0.2-0.3,0.2c-0.1,0.1-0.1,0.2-0.1,0.2l-0.1,0.4
		c0,0.1,0,0.2,0,0.2l0,0.2c0,0,0,0,0,0.1c0,0.1,0,0.2,0,0.2c0,0,0,0.1,0,0.1l0,0.1l0,0c-0.1,0-0.2,0.2-0.3,0.3l-1.5,0.5
		c-0.1,0-0.2,0.1-0.3,0.2l-0.2,0.2c-0.1,0.1-0.1,0.2-0.2,0.3l0,0c-0.1,0.1-0.1,0.2-0.2,0.3c0,0.1,0,0.2,0,0.3c0,0,0,0-0.1,0
		c0,0,0,0-0.1,0l-0.2,0c0,0-0.1,0-0.1,0c0,0-0.1,0-0.1,0l-0.3,0.1l-0.4,0.2c-0.1,0.1-0.2,0.3-0.2,0.4c0,0.1,0,0.2,0,0.3l-0.1,0.1
		c-0.1,0-0.2,0.1-0.3,0.2l-0.1,0.1c0,0-0.1,0-0.1,0.1l-0.3,0.3v0l0-0.3c0,0,0-0.1,0-0.2c0-0.1-0.1-0.2-0.2-0.3l-0.1-0.1
		c0-0.1,0-0.1-0.1-0.1l-0.1-0.1c0,0-0.1-0.1-0.1-0.1l-0.2-0.1c0,0-0.1-0.1-0.2-0.1c0,0,0,0,0,0l-0.1-0.1c0-0.1-0.1-0.2-0.2-0.3
		l-0.1-0.1c0,0-0.2-0.1-0.2-0.1c0,0,0,0,0,0c0-0.1-0.1-0.2-0.1-0.2c0-0.1-0.1-0.1-0.2-0.2c0,0,0,0,0,0c0-0.1-0.1-0.1-0.2-0.2
		c-0.1-0.1-0.3-0.1-0.4-0.1c0,0,0,0,0,0c-0.1-0.1-0.3-0.1-0.5-0.1c-0.1,0-0.2,0-0.2,0.1l-0.2,0c-0.1,0-0.2,0.1-0.2,0.1l-0.1,0.1
		c0,0,0,0-0.1,0h0c0,0,0-0.1,0-0.1c0-0.3-0.4-0.5-0.7-0.5l-0.1,0c0,0-0.1,0-0.1,0l-0.3,0.2c0,0,0-0.1,0-0.1
		c-0.1-0.2-0.2-0.3-0.4-0.3l-0.1,0c-0.1,0-0.1,0-0.2,0l-0.2,0l-0.1,0c-0.1,0-0.2,0-0.3,0c0,0-0.1,0-0.1,0c0,0-0.1,0-0.2,0l0,0
		c0,0-0.1,0-0.1,0c0,0-0.1,0-0.1-0.1l-0.3-0.1c0,0-0.1,0-0.1,0l-0.3,0c0,0-0.1,0-0.1,0c0,0,0,0,0,0l-0.1,0c0,0-0.1,0-0.2,0
		c0,0-0.1-0.1-0.1-0.1c-0.1-0.1-0.2-0.1-0.3-0.1c0,0-2.4,0.1-6.3-0.2c-3.8-0.3-5.9-0.8-5.9-0.8c-0.2,0-0.3,0-0.5,0.2
		c-0.1,0.1-0.1,0.1-0.1,0.2l-0.2-0.1c-0.2-0.2-0.5-0.2-0.7,0c-0.1,0-0.2,0.1-0.2,0.2c0,0-0.1,0.2-0.1,0.2c0,0.1,0,0.2,0,0.2
		c0,0,0,0.2,0,0.2c0,0,0,0.1,0,0.1l0,0l0,0.4c0,0,0,0,0,0.1c0,0,0,0,0,0l0,0.1c0,0,0,0.2,0,0.2c0,0,0,0.1,0,0.1l0,0.1
		c0,0,0,0.1,0,0.2c0,0,0,0,0,0c0,0-0.1,0.1-0.1,0.1l-0.1,0.2l0,0c0,0-0.1,0.1-0.1,0.2L1-418.2c0,0,0,0.1-0.1,0.1l-0.2,0.3
		c0,0,0,0,0,0l0,0c0,0-0.1,0.1-0.1,0.1l-0.1,0.2c0,0.1-0.1,0.1-0.1,0.2l-0.1,0.3c0,0.1,0,0.1,0,0.2l0,0.3l0,0.2l-0.1,0.2l-0.1,0.1
		c-0.1,0.1-0.2,0.2-0.2,0.4c0,0,0,0.1,0,0.2c0,0.1,0,0.2,0.1,0.4l0.1,0.2l0,0.1c0,0,0,0.1,0,0.2l0,0.4c0,0.1,0,0.2,0.1,0.3l0.2,0.7
		c0,0.1,0,0.2,0,0.3c0,0.1,0.1,0.1,0.1,0.2l0.1,0.1c0,0,0,0.1,0,0.1l0,0.2c0,0.1,0,0.2,0.1,0.3l0.1,0.1l0,0.1c0,0.1,0,0.2,0,0.3
		l0.2,0.8l0.1,0.2c0,0,0,0.1,0.1,0.1l0.1,0.1c0,0.1,0,0.1,0.1,0.2c0,0,0,0,0,0.1l0,0.2c0,0.1,0,0.2,0.1,0.2c0,0.1,0.2,0.2,0.3,0.3
		c0,0,0.1,0,0.1,0l0.2,0.1c0.1,0,0.2,0.1,0.3,0.1l0,0c0.2,0.2,0.4,0.3,0.7,0.1l7-3.8l0.5-0.3c0.2-0.1,0.3-0.3,0.3-0.5
		c0-1,0.4-1.8,1.1-2.5c0.7-0.6,1.5-1,2.5-1l0.1,0c0.6,0,1.1,0.2,1.6,0.4c0.5,0.2,0.9,0.6,1.2,1l-2.1-0.1c-0.2,0-0.4,0.1-0.5,0.3
		l-1,1.7c-0.1,0.2-0.1,0.4,0,0.5l0.9,1.8c0.1,0.2,0.3,0.3,0.5,0.3l2,0c-0.3,0.3-0.9,0.8-1.2,0.9c-0.4,0.2-0.9,0.3-1.5,0.3l-0.1,0
		c-0.4,0-0.8-0.1-1.2-0.3c-0.3-0.1-0.6-0.3-0.9-0.5c-0.2-0.1-0.4-0.2-0.6-0.1l-5.4,2.9c-0.2,0.1-0.3,0.2-0.3,0.4
		c0,0.2,0.1,0.4,0.2,0.5l0.4,0.3c0.1,0,0.1,0.1,0.2,0.1l0.1,0c0,0,0.1,0,0.1,0l0.6,0c0.2,0,0.4-0.1,0.5-0.3l0.5,0
		c0.1,0.1,0.1,0.2,0.2,0.2l0.1,0c0,0,0.1,0.1,0.1,0.1l0.3,0.2l0.2,0.1l0.1,0.4c0,0.1,0.1,0.1,0.1,0.2l0.2,0.2c0,0,0.1,0,0.1,0.1
		l0.6,0.4c0.1,0,0.1,0,0.2,0.1l0.3,0c0.2,0,0.4-0.1,0.5-0.3l0.2-0.3c0,0,0,0,0,0l0.4,0l0.2,0.2c0,0.1,0.1,0.1,0.2,0.1l0.2,0.4
		c0,0.1,0.1,0.1,0.1,0.1l0.2,0.1l0.1,0.1c0.1,0.1,0.1,0.1,0.2,0.2l0.2,0.4c0,0,0.1,0.1,0.1,0.1l0.3,0.3c0,0,0.1,0.1,0.2,0.1l0.2,0.1
		c0.1,0,0.1,0,0.2,0h0l0.2,0c0.1,0,0.1,0,0.2,0l0.3,0l0.2,0.1c0,0,0.1,0,0.1,0h0l0.2,0c0.2,0,0.4-0.2,0.5-0.4c0.1-0.2,0-0.4-0.1-0.6
		l0-0.1c0,0,0-0.1-0.1-0.1l0,0c0,0,0-0.1,0-0.1c0-0.1,0-0.1,0-0.2c0,0,0-0.1,0-0.1c0,0,0,0,0-0.1l0.1-0.1c0,0,0,0,0,0c0,0,0,0,0,0
		l0,0l0,0c0.1,0,0.2,0,0.2,0l0.4-0.2c0,0,0.1-0.1,0.1-0.1l0.2-0.1c0.1,0,0.1-0.1,0.2-0.2c0,0,0-0.1,0.1-0.1l0-0.1l0.7-0.2l0.3,0
		c0,0,0.1,0,0.1,0l0.4,0c0.1,0,0.2,0,0.3-0.1c0,0,0,0,0,0l0.1,0.1c0.1,0.1,0.3,0.1,0.4,0.1l0,0c0,0,0,0,0.1,0l0.1,0
		c0.1,0,0.2,0,0.3,0c0,0,0.1,0,0.1,0l0.1,0c0.1,0,0.2,0,0.3-0.1c0.2,0.1,0.5,0.1,0.7,0c0.1-0.1,0.3-0.3,0.3-0.4c0-0.1,0-0.3-0.1-0.5
		l0.1,0c0.1,0,0.2,0.1,0.4,0l0.4-0.2c0,0,0.1,0,0.1,0c0,0,0.1,0,0.1,0c0,0,0.1,0,0.1,0l0.1,0c0,0,0,0,0,0c0,0,0.1,0,0.2,0l0.3,0.1
		l0,0c0,0,0.2,0.1,0.2,0.1c0.1,0,0.3,0.1,0.4,0l0.3-0.1c0,0,0.1,0,0.1-0.1l0.1-0.1c0.1,0,0.1,0,0.2-0.1l0,0c0.1,0.1,0.1,0.1,0.2,0.2
		l0.1,0.1c0,0,0.1,0.1,0.2,0.1l0,0.3c0,0,0,0.1,0,0.2c0,0,0,0.1,0,0.1l0.1,0.1c0,0,0,0.1,0.1,0.1c0,0,0.1,0.1,0.1,0.1l0,0.1
		c0,0.1,0.1,0.1,0.1,0.1l0.4,0.3c0,0,0.1,0,0.1,0.1c0,0.1,0.1,0.1,0.1,0.1l0.1,0.1c0,0,0.1,0.1,0.1,0.1c0,0,0.2,0.1,0.2,0.1
		c0.1,0,0.1,0.1,0.2,0.1c0,0.1,0.1,0.2,0.1,0.2c0.1,0.1,0.2,0.1,0.3,0.2c0.1,0,0.2,0,0.3,0l0.2,0c0,0,0.1,0,0.1,0l0.2-0.1
		c0.2,0,0.4-0.1,0.5-0.3l0-0.1c0-0.1,0-0.3,0-0.4l0-0.2c0-0.1,0-0.1,0-0.2l-0.2-0.6c0-0.1-0.1-0.2-0.1-0.2L28-407l-0.1-0.1l0-0.1
		c0-0.1,0-0.1-0.1-0.1l0-0.1c0-0.1-0.1-0.1-0.1-0.1l-0.4-0.4l-0.4-0.6c0,0,0,0,0-0.1l0,0c0,0,0-0.1,0-0.1l0.1-0.4c0,0,0,0,0,0
		c0.1-0.1,0.2-0.2,0.2-0.2c0,0,0.1,0,0.1,0c0.1,0,0.1-0.1,0.2-0.1l0.2-0.2c0,0,0.1-0.1,0.1-0.1c0,0,0.1-0.1,0.1-0.1
		c0,0,0.1-0.1,0.1-0.1c0.1-0.1,0.1-0.2,0.1-0.3c0,0,0-0.1,0-0.1l0-0.1c0,0,0-0.1,0.1-0.1l0.1-0.3c0,0,0.1,0,0.1-0.1l0.2-0.1
		c0.1-0.1,0.1-0.2,0.2-0.3c0,0,0-0.1,0.1-0.1l0.2-0.1c0.1,0,0.2-0.1,0.2-0.1l0.1-0.1c0.1-0.1,0.2-0.3,0.2-0.4c0,0,0,0,0-0.1
		c0,0,0.1-0.1,0.1-0.1l0-0.1c0.1-0.2,0.1-0.4,0.1-0.6c0,0-0.1-0.1-0.1-0.2c0,0,0,0-0.1-0.1c0,0,0,0,0,0l0-0.4c0-0.1-0.1-0.2-0.1-0.3
		l0,0c0-0.1,0-0.1-0.1-0.2l0,0c0,0,0,0,0,0c0-0.1,0-0.1,0-0.2l0-0.2l0.1-0.3c0,0,0-0.1,0-0.2c0-0.1,0-0.1,0-0.2c0-0.1,0-0.2,0-0.3
		l0,0c0,0,0-0.1,0-0.1l0-0.1c0-0.1,0.1-0.2,0.1-0.2c0,0,0-0.1,0-0.1c0-0.1,0-0.2,0-0.2c0-0.1,0-0.1,0-0.2l0-0.1c0,0,0-0.1,0-0.1
		c0,0,0-0.1-0.1-0.2l0,0c0,0,0.1-0.1,0.1-0.1c0,0,0.1,0,0.1-0.1l0.4-0.2l0.2-0.1c0,0,0.1-0.1,0.1-0.1c0,0,0.1-0.1,0.1-0.1
		c0,0,0.1,0,0.1-0.1c0,0,0,0,0,0c0,0,0,0,0.1,0c0.1,0,0.2-0.1,0.2-0.1l0,0c0.1,0,0.2-0.1,0.2-0.2l0.1-0.1c0.1-0.1,0.1-0.2,0.1-0.3
		c0-0.1,0-0.3-0.1-0.4l-0.1-0.1c0-0.1-0.1-0.1-0.2-0.2c-0.1-0.1-0.3-0.1-0.4,0c0,0,0-0.1-0.1-0.1c0,0,0,0,0,0l0-0.1
		c0.1,0,0.1-0.1,0.2-0.2c0,0,0,0,0,0c0,0,0.1-0.1,0.1-0.1c0,0,0,0,0.1,0c0,0,0.1-0.1,0.1-0.2c0.1,0,0.2-0.1,0.2-0.1
		c0.1,0,0.1-0.1,0.1-0.2c0,0,0,0,0,0c0,0,0,0,0.1-0.1c0,0,0,0,0,0c0,0,0,0,0.1-0.1c0,0,0,0,0,0c0.1-0.1,0.2-0.2,0.2-0.2
		C31.9-421,31.9-421.2,31.9-421.3"/>
</g>
</svg>
