<?xml version="1.0" encoding="utf-8"?>
<!-- Generator: Adobe Illustrator 19.2.1, SVG Export Plug-In . SVG Version: 6.00 Build 0)  -->
<svg version="1.1" id="Layer_1" xmlns="http://www.w3.org/2000/svg" xmlns:xlink="http://www.w3.org/1999/xlink" x="0px" y="0px"
	 viewBox="0 0 85 62.2" style="enable-background:new 0 0 85 62.2;" xml:space="preserve">
<style type="text/css">
	.st0{enable-background:new    ;}
	.st1{fill:#1096D4;}
	.st2{filter:url(#Adobe_OpacityMaskFilter);}
	.st3{fill:#FFFFFF;}
	.st4{mask:url(#mask-10_2_);fill:#1967B0;}
	.st5{fill:#1967B0;}
</style>
<g class="st0">
	<path class="st1" d="M21.8,9.9V13h-1V5.2h3c0.9,0,1.6,0.2,2.1,0.6c0.5,0.4,0.7,1,0.7,1.7c0,0.4-0.1,0.7-0.2,1
		c-0.1,0.3-0.3,0.5-0.5,0.7S25.3,9.6,25,9.7c-0.4,0.1-0.8,0.2-1.2,0.2H21.8z M23.7,8.9c0.6,0,1.1-0.1,1.3-0.4s0.4-0.6,0.4-1
		s-0.1-0.8-0.4-1c-0.3-0.2-0.7-0.4-1.3-0.4h-1.9v2.8H23.7z"/>
	<path class="st1" d="M29.7,13.2c-0.3,0-0.6,0-0.8-0.1c-0.2-0.1-0.5-0.2-0.6-0.3c-0.2-0.2-0.3-0.3-0.4-0.5c-0.1-0.2-0.1-0.5-0.1-0.7
		c0-0.3,0.1-0.6,0.2-0.8c0.1-0.2,0.3-0.4,0.5-0.5c0.2-0.1,0.4-0.2,0.6-0.3c0.2-0.1,0.4-0.1,0.6-0.1c0.2,0,0.4-0.1,0.7-0.1
		c0.2,0,0.4-0.1,0.6-0.1c0.2-0.1,0.3-0.1,0.4-0.2c0.1-0.1,0.2-0.2,0.2-0.4c0-0.3-0.1-0.5-0.4-0.6C30.9,8.1,30.6,8,30.2,8
		c-0.7,0-1.3,0.2-1.8,0.6L28,7.9c0.3-0.2,0.7-0.4,1.1-0.5c0.4-0.1,0.8-0.2,1.2-0.2c0.3,0,0.6,0,0.9,0.1c0.3,0.1,0.5,0.2,0.7,0.3
		s0.3,0.3,0.5,0.6c0.1,0.2,0.2,0.5,0.2,0.8v2.7c0,0.4,0.1,0.6,0.4,0.6c0.1,0,0.2,0,0.3-0.1l0.1,0.7c-0.1,0-0.2,0.1-0.3,0.1
		c-0.1,0-0.2,0-0.4,0c-0.3,0-0.5-0.1-0.7-0.2s-0.3-0.4-0.4-0.6c-0.2,0.3-0.4,0.5-0.7,0.7S30.2,13.2,29.7,13.2z M31.5,9.9
		c-0.1,0.1-0.2,0.2-0.3,0.2c-0.1,0.1-0.3,0.1-0.4,0.1c-0.1,0-0.3,0.1-0.5,0.1c-0.2,0-0.3,0-0.5,0.1c-0.2,0-0.3,0.1-0.5,0.1
		c-0.1,0-0.3,0.1-0.4,0.2s-0.2,0.2-0.3,0.3c-0.1,0.1-0.1,0.3-0.1,0.4c0,0.3,0.1,0.6,0.3,0.7s0.5,0.2,0.8,0.2c0.2,0,0.4,0,0.6-0.1
		c0.2-0.1,0.4-0.2,0.5-0.3c0.2-0.1,0.3-0.3,0.4-0.5c0.1-0.2,0.1-0.4,0.1-0.7V9.9z"/>
	<path class="st1" d="M37.7,8.2c-0.2-0.1-0.3-0.1-0.5-0.1c-0.2,0-0.4,0-0.6,0.1s-0.3,0.2-0.5,0.4C36,8.8,35.9,9,35.8,9.3
		s-0.1,0.5-0.1,0.8V13h-1V7.3h1v1c0.2-0.3,0.4-0.6,0.7-0.8c0.3-0.2,0.6-0.3,1-0.3c0.1,0,0.2,0,0.3,0c0.1,0,0.2,0,0.3,0.1L37.7,8.2z"
		/>
	<path class="st1" d="M42.9,7.3h1.2l-2.2,2.3l2.5,3.4h-1.2l-2-2.7l-1.1,1.1V13h-1V5.2h1v5.1L42.9,7.3z"/>
	<path class="st1" d="M45.6,5.7c0-0.2,0.1-0.3,0.2-0.4c0.1-0.1,0.2-0.2,0.4-0.2c0.2,0,0.3,0.1,0.4,0.2c0.1,0.1,0.2,0.3,0.2,0.4
		c0,0.2-0.1,0.3-0.2,0.4c-0.1,0.1-0.3,0.2-0.4,0.2c-0.2,0-0.3-0.1-0.4-0.2C45.7,6,45.6,5.8,45.6,5.7z M45.7,13V7.3h1V13H45.7z"/>
	<path class="st1" d="M48.8,13V7.3h1v0.9c0.2-0.4,0.5-0.6,0.8-0.8c0.3-0.2,0.7-0.3,1.1-0.3c0.6,0,1.1,0.2,1.5,0.6
		c0.4,0.4,0.5,0.9,0.5,1.6V13h-1V9.6c0-0.2,0-0.3,0-0.5c0-0.2-0.1-0.3-0.2-0.5c-0.1-0.1-0.2-0.3-0.4-0.4c-0.2-0.1-0.4-0.1-0.6-0.1
		c-0.2,0-0.5,0-0.7,0.1c-0.2,0.1-0.4,0.2-0.5,0.4c-0.2,0.2-0.3,0.3-0.4,0.6c-0.1,0.2-0.1,0.5-0.1,0.7V13H48.8z"/>
	<path class="st1" d="M61.1,12.1c0,0.4,0,0.8-0.1,1.1c-0.1,0.3-0.2,0.7-0.5,0.9c-0.1,0.2-0.3,0.3-0.5,0.4c-0.2,0.1-0.4,0.2-0.6,0.3
		C59.2,14.9,59,15,58.8,15c-0.2,0-0.5,0-0.7,0c-0.9,0-1.7-0.2-2.3-0.7l0.5-0.8c0.2,0.2,0.5,0.3,0.8,0.4c0.3,0.1,0.6,0.2,1,0.2
		c0.3,0,0.5,0,0.8-0.1c0.2-0.1,0.5-0.2,0.6-0.3s0.3-0.3,0.4-0.6s0.2-0.5,0.2-0.9v-0.6c-0.2,0.3-0.5,0.6-0.8,0.8
		c-0.3,0.2-0.8,0.3-1.2,0.3c-0.4,0-0.7-0.1-1.1-0.2c-0.3-0.1-0.6-0.3-0.8-0.6c-0.2-0.3-0.4-0.6-0.5-0.9c-0.1-0.3-0.2-0.7-0.2-1.1
		c0-0.4,0.1-0.8,0.2-1.1s0.3-0.6,0.5-0.9c0.2-0.3,0.5-0.5,0.8-0.6c0.3-0.1,0.7-0.2,1.1-0.2c0.4,0,0.8,0.1,1.1,0.2s0.7,0.4,0.9,0.8
		V7.3h1V12.1z M60.1,10c0-0.3,0-0.5-0.1-0.7s-0.2-0.4-0.4-0.6c-0.2-0.2-0.3-0.3-0.6-0.4c-0.2-0.1-0.5-0.2-0.8-0.2
		c-0.3,0-0.6,0.1-0.8,0.2c-0.2,0.1-0.4,0.2-0.6,0.4c-0.2,0.2-0.3,0.4-0.3,0.6s-0.1,0.5-0.1,0.7c0,0.3,0,0.5,0.1,0.7s0.2,0.4,0.3,0.6
		c0.2,0.2,0.3,0.3,0.6,0.4c0.2,0.1,0.5,0.2,0.8,0.2s0.6-0.1,0.8-0.2c0.2-0.1,0.4-0.3,0.6-0.4c0.2-0.2,0.3-0.4,0.4-0.6
		S60.1,10.2,60.1,10z"/>
</g>
<g class="st0">
	<path class="st1" d="M20,26l-1.9-3.2h-1.9V26h-1v-7.9h3.2c0.4,0,0.8,0.1,1.1,0.2c0.3,0.1,0.6,0.3,0.8,0.5c0.2,0.2,0.4,0.4,0.5,0.7
		c0.1,0.3,0.2,0.6,0.2,0.9c0,0.6-0.2,1.1-0.5,1.4c-0.3,0.4-0.8,0.7-1.4,0.8l2,3.3H20z M20,20.5c0-0.4-0.1-0.7-0.4-1
		s-0.7-0.4-1.2-0.4h-2.2v2.8h2.1c0.6,0,1-0.1,1.3-0.4C19.8,21.3,20,20.9,20,20.5z"/>
	<path class="st1" d="M22.3,23.2c0-0.4,0.1-0.8,0.2-1.2c0.1-0.4,0.3-0.7,0.5-1c0.2-0.3,0.5-0.5,0.9-0.6s0.7-0.2,1.2-0.2
		c0.4,0,0.8,0.1,1.1,0.2c0.3,0.1,0.6,0.3,0.9,0.6c0.2,0.2,0.4,0.5,0.5,0.9c0.1,0.3,0.2,0.7,0.2,1.1c0,0.1,0,0.2,0,0.3s0,0.1,0,0.2
		h-4.4c0,0.3,0.1,0.6,0.2,0.8c0.1,0.2,0.2,0.4,0.4,0.6c0.2,0.2,0.4,0.3,0.6,0.4s0.5,0.1,0.8,0.1c0.4,0,0.7-0.1,1-0.2
		c0.3-0.1,0.5-0.3,0.7-0.6l0.7,0.5c-0.1,0.2-0.3,0.3-0.4,0.4s-0.3,0.3-0.5,0.4c-0.2,0.1-0.4,0.2-0.7,0.3c-0.2,0.1-0.5,0.1-0.8,0.1
		c-0.5,0-0.9-0.1-1.2-0.2s-0.7-0.4-0.9-0.6s-0.4-0.6-0.6-0.9C22.4,24,22.3,23.6,22.3,23.2z M26.8,22.7c0-0.3-0.1-0.5-0.2-0.7
		c-0.1-0.2-0.2-0.4-0.4-0.5c-0.2-0.1-0.3-0.2-0.5-0.3C25.6,21,25.3,21,25.1,21c-0.2,0-0.5,0-0.7,0.1c-0.2,0.1-0.4,0.2-0.5,0.3
		s-0.3,0.3-0.4,0.5c-0.1,0.2-0.1,0.4-0.2,0.7H26.8z"/>
	<path class="st1" d="M29.5,20.3h1v0.9c0.2-0.3,0.5-0.6,0.8-0.8s0.6-0.3,1-0.3c0.4,0,0.8,0.1,1.1,0.3c0.3,0.2,0.5,0.5,0.6,0.9
		c0.2-0.4,0.5-0.6,0.8-0.8c0.3-0.2,0.7-0.3,1.2-0.3c0.6,0,1.1,0.2,1.4,0.6c0.3,0.4,0.5,0.9,0.5,1.6V26h-1v-3.5c0-0.2,0-0.3,0-0.5
		c0-0.2-0.1-0.3-0.2-0.5c-0.1-0.1-0.2-0.2-0.4-0.3c-0.2-0.1-0.4-0.1-0.6-0.1c-0.5,0-0.9,0.2-1.2,0.5c-0.3,0.3-0.4,0.7-0.4,1.3V26h-1
		v-3.5c0-0.2,0-0.3,0-0.5c0-0.2-0.1-0.3-0.2-0.5s-0.2-0.2-0.4-0.3c-0.2-0.1-0.4-0.1-0.6-0.1c-0.2,0-0.5,0-0.6,0.1
		c-0.2,0.1-0.4,0.2-0.5,0.4s-0.2,0.3-0.3,0.5c-0.1,0.2-0.1,0.5-0.1,0.7V26h-1V20.3z"/>
	<path class="st1" d="M39.9,18.7c0-0.2,0.1-0.3,0.2-0.4s0.2-0.2,0.4-0.2c0.2,0,0.3,0.1,0.4,0.2s0.2,0.3,0.2,0.4
		c0,0.2-0.1,0.3-0.2,0.4c-0.1,0.1-0.3,0.2-0.4,0.2c-0.2,0-0.3-0.1-0.4-0.2C40,19,39.9,18.8,39.9,18.7z M40,26v-5.7h1V26H40z"/>
	<path class="st1" d="M43.1,26v-5.7h1v0.9c0.2-0.4,0.5-0.6,0.8-0.8c0.3-0.2,0.7-0.3,1.1-0.3c0.6,0,1.1,0.2,1.5,0.6
		c0.4,0.4,0.5,0.9,0.5,1.6V26h-1v-3.5c0-0.2,0-0.3,0-0.5c0-0.2-0.1-0.3-0.2-0.5c-0.1-0.1-0.2-0.3-0.4-0.4s-0.4-0.1-0.6-0.1
		c-0.2,0-0.5,0-0.7,0.1c-0.2,0.1-0.4,0.2-0.5,0.4c-0.2,0.2-0.3,0.3-0.4,0.6c-0.1,0.2-0.1,0.5-0.1,0.7V26H43.1z"/>
	<path class="st1" d="M54.4,26v-0.9c-0.3,0.4-0.6,0.7-0.9,0.8c-0.3,0.2-0.7,0.2-1.1,0.2c-0.4,0-0.8-0.1-1.1-0.2
		c-0.3-0.2-0.6-0.4-0.8-0.6c-0.2-0.3-0.4-0.6-0.5-0.9c-0.1-0.4-0.2-0.8-0.2-1.2c0-0.4,0.1-0.8,0.2-1.2c0.1-0.4,0.3-0.7,0.5-1
		c0.2-0.3,0.5-0.5,0.8-0.6c0.3-0.2,0.7-0.2,1.1-0.2c0.4,0,0.8,0.1,1.1,0.2s0.7,0.4,0.9,0.8v-3.1h1V26H54.4z M54.4,23.2
		c0-0.3,0-0.6-0.1-0.8s-0.2-0.5-0.4-0.7c-0.2-0.2-0.4-0.3-0.6-0.5c-0.2-0.1-0.5-0.2-0.8-0.2s-0.6,0.1-0.8,0.2
		c-0.2,0.1-0.4,0.3-0.6,0.5c-0.2,0.2-0.3,0.4-0.3,0.7c-0.1,0.3-0.1,0.5-0.1,0.8c0,0.3,0,0.6,0.1,0.8s0.2,0.5,0.3,0.7
		s0.3,0.3,0.6,0.5c0.2,0.1,0.5,0.2,0.8,0.2s0.6-0.1,0.8-0.2c0.2-0.1,0.4-0.3,0.6-0.5c0.2-0.2,0.3-0.4,0.4-0.7S54.4,23.5,54.4,23.2z"
		/>
	<path class="st1" d="M57.1,23.2c0-0.4,0.1-0.8,0.2-1.2c0.1-0.4,0.3-0.7,0.5-1c0.2-0.3,0.5-0.5,0.9-0.6s0.7-0.2,1.2-0.2
		c0.4,0,0.8,0.1,1.1,0.2c0.3,0.1,0.6,0.3,0.9,0.6c0.2,0.2,0.4,0.5,0.5,0.9c0.1,0.3,0.2,0.7,0.2,1.1c0,0.1,0,0.2,0,0.3
		c0,0.1,0,0.1,0,0.2h-4.4c0,0.3,0.1,0.6,0.2,0.8c0.1,0.2,0.2,0.4,0.4,0.6c0.2,0.2,0.4,0.3,0.6,0.4c0.2,0.1,0.5,0.1,0.8,0.1
		c0.4,0,0.7-0.1,1-0.2s0.5-0.3,0.7-0.6l0.7,0.5c-0.1,0.2-0.3,0.3-0.4,0.4c-0.2,0.1-0.3,0.3-0.5,0.4c-0.2,0.1-0.4,0.2-0.7,0.3
		c-0.2,0.1-0.5,0.1-0.8,0.1c-0.5,0-0.9-0.1-1.2-0.2s-0.7-0.4-0.9-0.6c-0.2-0.3-0.4-0.6-0.6-0.9C57.2,24,57.1,23.6,57.1,23.2z
		 M61.6,22.7c0-0.3-0.1-0.5-0.2-0.7c-0.1-0.2-0.2-0.4-0.4-0.5c-0.2-0.1-0.3-0.2-0.5-0.3C60.3,21,60.1,21,59.9,21
		c-0.2,0-0.5,0-0.7,0.1c-0.2,0.1-0.4,0.2-0.5,0.3s-0.3,0.3-0.4,0.5c-0.1,0.2-0.1,0.4-0.2,0.7H61.6z"/>
	<path class="st1" d="M67.3,21.2c-0.2-0.1-0.3-0.1-0.5-0.1c-0.2,0-0.4,0-0.6,0.1c-0.2,0.1-0.3,0.2-0.5,0.4c-0.1,0.2-0.2,0.4-0.3,0.6
		s-0.1,0.5-0.1,0.8V26h-1v-5.7h1v1c0.2-0.3,0.4-0.6,0.7-0.8c0.3-0.2,0.6-0.3,1-0.3c0.1,0,0.2,0,0.3,0c0.1,0,0.2,0,0.3,0.1L67.3,21.2
		z"/>
</g>
<g id="Page-1_2_" transform="translate(174.000000, 570.000000)">
	<g id="Group-3_1_" transform="translate(0.000000, 0.304416)">
		<g id="Clip-2_1_">
		</g>
		<defs>
			<filter id="Adobe_OpacityMaskFilter" filterUnits="userSpaceOnUse" x="-146.9" y="-538.2" width="27.1" height="26.1">
				<feColorMatrix  type="matrix" values="1 0 0 0 0  0 1 0 0 0  0 0 1 0 0  0 0 0 1 0"/>
			</filter>
		</defs>
		<mask maskUnits="userSpaceOnUse" x="-146.9" y="-538.2" width="27.1" height="26.1" id="mask-10_2_">
			<g class="st2">
				<polygon id="path-9_2_" class="st3" points="-133.4,-512.1 -119.8,-512.1 -119.8,-538.2 -133.4,-538.2 -146.9,-538.2 
					-146.9,-512.1 				"/>
			</g>
		</mask>
		<path id="Fill-1_11_" class="st4" d="M-121.3-515.1c-0.2,0.2-0.9,0.3-1.7,0.3c-0.2-1.1-1.1-1.9-2.3-1.9c-1.1,0-2.1,0.8-2.3,1.9
			h-11.6c-0.2-1.1-1.1-1.9-2.3-1.9c-1.1,0-2,0.8-2.2,1.8c-1.8-0.1-1.9-0.5-2.1-0.9c-0.1-0.3-0.1-0.6-0.1-0.8l0.4-0.6l0-0.2
			c0,0,0-0.7,0.1-1.3c0.1,0,0.3,0,0.4-0.1c0.5-0.2,0.6-0.5,0.4-0.8c-0.1-0.1-0.3-0.2-0.4-0.2c0.1,0,0.3-0.1,0.4-0.1l0.2,0
			c0.8-0.1,1.6-0.3,2.5-0.9c1.3-0.9,2.6-1.5,4-1.8c1.2,1.5,2.4,3.1,3,5.2c0.1,0.3,0.3,0.4,0.6,0.4c0.3,0,0.5-0.2,0.6-0.4
			c0.5-1.8,1.4-3.3,2.5-4.6c0.1,0,0.1,0.1,0.2,0.1c0.8,0.4,3.1,2.1,3.1,2.1l0.1,0.1l0.2,0c0,0,1.8,0.1,3.4,0.4
			c1.2,0.3,2,0.5,2.3,0.7c-0.2,0.1-0.3,0.3-0.2,0.6c0.1,0.3,0.5,0.5,0.9,0.5C-120.9-516.6-121-515.6-121.3-515.1 M-123.9-514.2
			c-0.1,0.6-0.7,1.1-1.3,1.1c-0.7,0-1.2-0.5-1.3-1.1c0-0.1,0-0.1,0-0.2c0-0.7,0.6-1.4,1.4-1.4s1.4,0.6,1.4,1.4
			C-123.9-514.3-123.9-514.2-123.9-514.2 M-140.1-514.2c-0.1,0.6-0.6,1.1-1.3,1.1c-0.7,0-1.2-0.5-1.3-1.2c0,0,0-0.1,0-0.1
			c0-0.7,0.6-1.3,1.3-1.3c0.7,0,1.3,0.6,1.3,1.3C-140.1-514.3-140.1-514.3-140.1-514.2 M-140.9-530.4c0-3.6,3-6.6,6.6-6.6
			s6.6,3,6.6,6.6c0,2.5-1.5,4.2-3.2,6.2c-1.2,1.4-2.5,2.9-3.4,4.9c-0.9-2-2.2-3.5-3.4-4.9C-139.4-526.2-140.9-527.9-140.9-530.4
			 M-120.5-518.9c-0.3-0.6-1.5-1-3.4-1.4c-1.4-0.3-2.9-0.4-3.4-0.4c-0.5-0.4-2.3-1.7-3.1-2.1c0.1-0.2,0.3-0.4,0.4-0.5
			c1.8-2.1,3.5-4,3.5-7c0-4.3-3.5-7.7-7.7-7.7c-4.3,0-7.7,3.5-7.7,7.7c0,2.9,1.6,4.8,3.4,6.9c-1.3,0.4-2.6,1-3.9,1.8
			c-0.7,0.5-1.3,0.6-2,0.8l-0.2,0c-1.5,0.3-1.7,1.1-1.7,1.5c0,0.4,0,1.5-0.1,1.9l-0.3,0.5l0,0.1c0,0.1-0.2,0.8,0.1,1.5
			c0.4,1.2,1.3,1.7,3.3,1.7c0.3,0.9,1.2,1.6,2.2,1.6c1,0,1.8-0.6,2.1-1.5h11.9c0.3,0.9,1.2,1.5,2.1,1.5c1,0,1.8-0.6,2.1-1.5
			c0.9,0,2.3-0.2,2.7-0.8C-119.6-515.5-119.7-517.6-120.5-518.9"/>
	</g>
	<path id="Fill-4_4_" class="st5" d="M-134.4-527.6c1.6,0,2.9-1.3,2.9-2.9c0-1.6-1.3-2.9-2.9-2.9c-1.6,0-2.9,1.3-2.9,2.9
		C-137.2-528.8-135.9-527.6-134.4-527.6"/>
</g>
</svg>
