<?xml version="1.0" encoding="utf-8"?>
<!-- Generator: Adobe Illustrator 19.2.1, SVG Export Plug-In . SVG Version: 6.00 Build 0)  -->
<svg version="1.1" id="Layer_1" xmlns="http://www.w3.org/2000/svg" xmlns:xlink="http://www.w3.org/1999/xlink" x="0px" y="0px"
	 viewBox="0 0 85 62.2" style="enable-background:new 0 0 85 62.2;" xml:space="preserve">
<style type="text/css">
	.st0{enable-background:new    ;}
	.st1{fill:#1096D4;}
	.st2{filter:url(#Adobe_OpacityMaskFilter);}
	.st3{fill:#FFFFFF;}
	.st4{mask:url(#mask-14_2_);fill:#1967B0;}
</style>
<g class="st0">
	<path class="st1" d="M30.5,14.1l-1.9-3.2h-1.9v3.2h-1V6.3h3.2c0.4,0,0.8,0.1,1.1,0.2c0.3,0.1,0.6,0.3,0.8,0.5
		c0.2,0.2,0.4,0.4,0.5,0.7c0.1,0.3,0.2,0.6,0.2,0.9c0,0.6-0.2,1.1-0.5,1.4c-0.3,0.4-0.8,0.7-1.4,0.8l2,3.3H30.5z M30.5,8.6
		c0-0.4-0.1-0.7-0.4-1s-0.7-0.4-1.2-0.4h-2.2V10h2.1c0.5,0,1-0.1,1.3-0.4C30.3,9.4,30.5,9,30.5,8.6z"/>
	<path class="st1" d="M32.7,11.3c0-0.4,0.1-0.8,0.2-1.2c0.1-0.4,0.3-0.7,0.5-1c0.2-0.3,0.5-0.5,0.9-0.6s0.7-0.2,1.2-0.2
		c0.4,0,0.8,0.1,1.1,0.2c0.3,0.1,0.6,0.3,0.9,0.6S37.9,9.6,38,10s0.2,0.7,0.2,1.1c0,0.1,0,0.2,0,0.3c0,0.1,0,0.1,0,0.2h-4.4
		c0,0.3,0.1,0.6,0.2,0.8c0.1,0.2,0.2,0.4,0.4,0.6c0.2,0.2,0.4,0.3,0.6,0.4c0.2,0.1,0.5,0.1,0.8,0.1c0.4,0,0.7-0.1,1-0.2
		c0.3-0.1,0.5-0.3,0.7-0.6l0.7,0.5c-0.1,0.2-0.3,0.3-0.4,0.4c-0.2,0.1-0.3,0.3-0.5,0.4c-0.2,0.1-0.4,0.2-0.7,0.3
		c-0.2,0.1-0.5,0.1-0.8,0.1c-0.5,0-0.9-0.1-1.2-0.2s-0.7-0.4-0.9-0.6c-0.2-0.3-0.4-0.6-0.6-0.9C32.8,12.1,32.7,11.7,32.7,11.3z
		 M37.2,10.8c0-0.3-0.1-0.5-0.2-0.7c-0.1-0.2-0.2-0.4-0.4-0.5c-0.2-0.1-0.3-0.2-0.5-0.3c-0.2-0.1-0.4-0.1-0.6-0.1
		c-0.2,0-0.5,0-0.7,0.1c-0.2,0.1-0.4,0.2-0.5,0.3s-0.3,0.3-0.4,0.5c-0.1,0.2-0.1,0.4-0.2,0.7H37.2z"/>
	<path class="st1" d="M40.8,8.4v0.9c0.3-0.4,0.6-0.7,0.9-0.8c0.3-0.2,0.7-0.2,1.1-0.2c0.4,0,0.8,0.1,1.1,0.2s0.6,0.4,0.8,0.6
		s0.4,0.6,0.5,0.9c0.1,0.4,0.2,0.8,0.2,1.2c0,0.4-0.1,0.8-0.2,1.2c-0.1,0.4-0.3,0.7-0.5,1s-0.5,0.5-0.8,0.6
		c-0.3,0.2-0.7,0.2-1.1,0.2c-0.4,0-0.8-0.1-1.1-0.2c-0.3-0.2-0.7-0.4-0.9-0.8V16h-1V8.4H40.8z M40.8,11.3c0,0.3,0,0.6,0.1,0.8
		c0.1,0.3,0.2,0.5,0.4,0.7c0.2,0.2,0.4,0.3,0.6,0.5c0.2,0.1,0.5,0.2,0.8,0.2s0.6-0.1,0.8-0.2s0.4-0.3,0.6-0.5
		c0.2-0.2,0.3-0.4,0.3-0.7s0.1-0.5,0.1-0.8c0-0.3,0-0.6-0.1-0.8c-0.1-0.3-0.2-0.5-0.3-0.7s-0.3-0.3-0.6-0.5
		c-0.2-0.1-0.5-0.2-0.8-0.2s-0.6,0.1-0.8,0.2c-0.2,0.1-0.4,0.3-0.6,0.5c-0.2,0.2-0.3,0.4-0.4,0.7C40.8,10.7,40.8,11,40.8,11.3z"/>
	<path class="st1" d="M48.7,14.3c-0.3,0-0.6,0-0.8-0.1c-0.2-0.1-0.5-0.2-0.6-0.3s-0.3-0.3-0.4-0.5c-0.1-0.2-0.1-0.5-0.1-0.7
		c0-0.3,0.1-0.6,0.2-0.8c0.1-0.2,0.3-0.4,0.5-0.5s0.4-0.2,0.6-0.3c0.2-0.1,0.4-0.1,0.6-0.1c0.2,0,0.4-0.1,0.7-0.1
		c0.2,0,0.4-0.1,0.6-0.1c0.2-0.1,0.3-0.1,0.4-0.2c0.1-0.1,0.2-0.2,0.2-0.4c0-0.3-0.1-0.5-0.4-0.6c-0.2-0.1-0.5-0.2-0.9-0.2
		c-0.7,0-1.3,0.2-1.8,0.6L47,9c0.3-0.2,0.7-0.4,1.1-0.5c0.4-0.1,0.8-0.2,1.2-0.2c0.3,0,0.6,0,0.9,0.1c0.3,0.1,0.5,0.2,0.7,0.3
		s0.3,0.3,0.5,0.6c0.1,0.2,0.2,0.5,0.2,0.8v2.7c0,0.4,0.1,0.6,0.4,0.6c0.1,0,0.2,0,0.3-0.1l0.1,0.7c-0.1,0-0.2,0.1-0.3,0.1
		c-0.1,0-0.2,0-0.4,0c-0.3,0-0.5-0.1-0.7-0.2c-0.2-0.1-0.3-0.4-0.4-0.6c-0.2,0.3-0.4,0.5-0.7,0.7C49.5,14.2,49.2,14.3,48.7,14.3z
		 M50.5,11c-0.1,0.1-0.2,0.2-0.3,0.2c-0.1,0.1-0.3,0.1-0.4,0.1c-0.1,0-0.3,0.1-0.5,0.1c-0.2,0-0.3,0-0.5,0.1c-0.2,0-0.3,0.1-0.5,0.1
		c-0.1,0-0.3,0.1-0.4,0.2s-0.2,0.2-0.3,0.3c-0.1,0.1-0.1,0.3-0.1,0.4c0,0.3,0.1,0.6,0.3,0.7c0.2,0.2,0.5,0.2,0.8,0.2
		c0.2,0,0.4,0,0.6-0.1s0.4-0.2,0.5-0.3c0.2-0.1,0.3-0.3,0.4-0.5c0.1-0.2,0.1-0.4,0.1-0.7V11z"/>
	<path class="st1" d="M53.5,6.8c0-0.2,0.1-0.3,0.2-0.4c0.1-0.1,0.2-0.2,0.4-0.2c0.2,0,0.3,0.1,0.4,0.2c0.1,0.1,0.2,0.3,0.2,0.4
		c0,0.2-0.1,0.3-0.2,0.4c-0.1,0.1-0.3,0.2-0.4,0.2c-0.2,0-0.3-0.1-0.4-0.2C53.5,7.1,53.5,6.9,53.5,6.8z M53.6,14.1V8.4h1v5.7H53.6z"
		/>
	<path class="st1" d="M59.6,9.3c-0.2-0.1-0.3-0.1-0.5-0.1c-0.2,0-0.4,0-0.6,0.1c-0.2,0.1-0.3,0.2-0.5,0.4c-0.1,0.2-0.2,0.4-0.3,0.6
		c-0.1,0.2-0.1,0.5-0.1,0.8v2.9h-1V8.4h1v1c0.2-0.3,0.4-0.6,0.7-0.8c0.3-0.2,0.6-0.3,1-0.3c0.1,0,0.2,0,0.3,0c0.1,0,0.2,0,0.3,0.1
		L59.6,9.3z"/>
</g>
<g class="st0">
	<path class="st1" d="M20.1,20.2v2.3h3.8v0.9h-3.8v3.7h-1v-7.9h5.3v0.9H20.1z"/>
	<path class="st1" d="M27.2,27.3c-0.3,0-0.6,0-0.8-0.1c-0.2-0.1-0.5-0.2-0.6-0.3c-0.2-0.2-0.3-0.3-0.4-0.5c-0.1-0.2-0.1-0.5-0.1-0.7
		c0-0.3,0.1-0.6,0.2-0.8s0.3-0.4,0.5-0.5c0.2-0.1,0.4-0.2,0.6-0.3c0.2-0.1,0.4-0.1,0.6-0.1c0.2,0,0.4-0.1,0.7-0.1
		c0.2,0,0.4-0.1,0.6-0.1s0.3-0.1,0.4-0.2c0.1-0.1,0.2-0.2,0.2-0.4c0-0.3-0.1-0.5-0.4-0.6s-0.5-0.2-0.9-0.2c-0.7,0-1.3,0.2-1.8,0.6
		L25.5,22c0.3-0.2,0.7-0.4,1.1-0.5c0.4-0.1,0.8-0.2,1.2-0.2c0.3,0,0.6,0,0.9,0.1c0.3,0.1,0.5,0.2,0.7,0.3s0.3,0.3,0.5,0.6
		c0.1,0.2,0.2,0.5,0.2,0.8v2.7c0,0.4,0.1,0.6,0.4,0.6c0.1,0,0.2,0,0.3-0.1l0.1,0.7c-0.1,0-0.2,0.1-0.3,0.1c-0.1,0-0.2,0-0.4,0
		c-0.3,0-0.5-0.1-0.7-0.2c-0.2-0.1-0.3-0.4-0.4-0.6c-0.2,0.3-0.4,0.5-0.7,0.7C28,27.2,27.7,27.3,27.2,27.3z M29,24
		c-0.1,0.1-0.2,0.2-0.3,0.2c-0.1,0.1-0.3,0.1-0.4,0.1s-0.3,0.1-0.5,0.1c-0.2,0-0.3,0-0.5,0.1c-0.2,0-0.3,0.1-0.5,0.1
		c-0.1,0-0.3,0.1-0.4,0.2s-0.2,0.2-0.3,0.3c-0.1,0.1-0.1,0.3-0.1,0.4c0,0.3,0.1,0.6,0.3,0.7c0.2,0.2,0.5,0.2,0.8,0.2
		c0.2,0,0.4,0,0.6-0.1c0.2-0.1,0.4-0.2,0.5-0.3c0.2-0.1,0.3-0.3,0.4-0.5c0.1-0.2,0.1-0.4,0.1-0.7V24z"/>
	<path class="st1" d="M34.5,21.3c0.5,0,1,0.1,1.4,0.3s0.7,0.5,0.9,0.8L36,23c-0.2-0.3-0.4-0.5-0.6-0.6c-0.2-0.1-0.5-0.2-0.9-0.2
		c-0.3,0-0.5,0.1-0.7,0.2c-0.2,0.1-0.4,0.3-0.6,0.4c-0.2,0.2-0.3,0.4-0.4,0.7c-0.1,0.3-0.1,0.5-0.1,0.9c0,0.3,0,0.6,0.1,0.9
		c0.1,0.3,0.2,0.5,0.4,0.7c0.2,0.2,0.3,0.3,0.6,0.4s0.5,0.2,0.8,0.2c0.4,0,0.7-0.1,0.9-0.3c0.3-0.2,0.5-0.4,0.6-0.6l0.7,0.5
		c-0.3,0.3-0.6,0.6-1,0.9c-0.4,0.2-0.8,0.3-1.4,0.3c-0.4,0-0.8-0.1-1.1-0.2c-0.3-0.2-0.6-0.4-0.9-0.6s-0.4-0.6-0.6-1
		c-0.1-0.4-0.2-0.8-0.2-1.2c0-0.4,0.1-0.8,0.2-1.2c0.1-0.4,0.3-0.7,0.6-1c0.2-0.3,0.5-0.5,0.9-0.6C33.7,21.3,34,21.3,34.5,21.3z"/>
	<path class="st1" d="M38.2,19.8c0-0.2,0.1-0.3,0.2-0.4c0.1-0.1,0.2-0.2,0.4-0.2c0.2,0,0.3,0.1,0.4,0.2c0.1,0.1,0.2,0.3,0.2,0.4
		c0,0.2-0.1,0.3-0.2,0.4c-0.1,0.1-0.3,0.2-0.4,0.2c-0.2,0-0.3-0.1-0.4-0.2C38.2,20.1,38.2,19.9,38.2,19.8z M38.3,27.1v-5.7h1v5.7
		H38.3z"/>
	<path class="st1" d="M41.3,27.1v-7.9h1v7.9H41.3z"/>
	<path class="st1" d="M44.1,19.8c0-0.2,0.1-0.3,0.2-0.4c0.1-0.1,0.2-0.2,0.4-0.2s0.3,0.1,0.4,0.2c0.1,0.1,0.2,0.3,0.2,0.4
		c0,0.2-0.1,0.3-0.2,0.4c-0.1,0.1-0.3,0.2-0.4,0.2s-0.3-0.1-0.4-0.2C44.2,20.1,44.1,19.9,44.1,19.8z M44.3,27.1v-5.7h1v5.7H44.3z"/>
	<path class="st1" d="M50.6,26.9c-0.3,0.3-0.7,0.4-1.3,0.4c-0.3,0-0.6-0.1-0.8-0.2c-0.2-0.1-0.5-0.3-0.6-0.6
		c-0.1-0.1-0.2-0.3-0.2-0.5c0-0.2-0.1-0.4-0.1-0.7v-3.2h-1.1v-0.7c0.2,0,0.4-0.1,0.5-0.1c0.1,0,0.3-0.1,0.4-0.2
		c0.1-0.1,0.2-0.3,0.2-0.5c0.1-0.2,0.1-0.5,0.1-0.8h0.8v1.5h1.8v0.8h-1.8v3.2c0,0.7,0.3,1,0.8,1c0.2,0,0.3,0,0.5-0.1
		s0.3-0.1,0.4-0.2L50.6,26.9z"/>
	<path class="st1" d="M51.8,19.8c0-0.2,0.1-0.3,0.2-0.4c0.1-0.1,0.2-0.2,0.4-0.2c0.2,0,0.3,0.1,0.4,0.2c0.1,0.1,0.2,0.3,0.2,0.4
		c0,0.2-0.1,0.3-0.2,0.4c-0.1,0.1-0.3,0.2-0.4,0.2c-0.2,0-0.3-0.1-0.4-0.2C51.9,20.1,51.8,19.9,51.8,19.8z M52,27.1v-5.7h1v5.7H52z"
		/>
	<path class="st1" d="M54.6,24.3c0-0.4,0.1-0.8,0.2-1.2c0.1-0.4,0.3-0.7,0.5-1c0.2-0.3,0.5-0.5,0.9-0.6s0.7-0.2,1.2-0.2
		c0.4,0,0.8,0.1,1.1,0.2c0.3,0.1,0.6,0.3,0.9,0.6c0.2,0.2,0.4,0.5,0.5,0.9c0.1,0.3,0.2,0.7,0.2,1.1c0,0.1,0,0.2,0,0.3
		c0,0.1,0,0.1,0,0.2h-4.4c0,0.3,0.1,0.6,0.2,0.8c0.1,0.2,0.2,0.4,0.4,0.6c0.2,0.2,0.4,0.3,0.6,0.4c0.2,0.1,0.5,0.1,0.8,0.1
		c0.4,0,0.7-0.1,1-0.2s0.5-0.3,0.7-0.6l0.7,0.5c-0.1,0.2-0.3,0.3-0.4,0.4c-0.2,0.1-0.3,0.3-0.5,0.4c-0.2,0.1-0.4,0.2-0.7,0.3
		c-0.2,0.1-0.5,0.1-0.8,0.1c-0.5,0-0.9-0.1-1.2-0.2s-0.7-0.4-0.9-0.6c-0.2-0.3-0.4-0.6-0.6-0.9C54.6,25.1,54.6,24.7,54.6,24.3z
		 M59.1,23.8c0-0.3-0.1-0.5-0.2-0.7c-0.1-0.2-0.2-0.4-0.4-0.5c-0.2-0.1-0.3-0.2-0.5-0.3c-0.2-0.1-0.4-0.1-0.6-0.1
		c-0.2,0-0.5,0-0.7,0.1c-0.2,0.1-0.4,0.2-0.5,0.3s-0.3,0.3-0.4,0.5c-0.1,0.2-0.1,0.4-0.2,0.7H59.1z"/>
	<path class="st1" d="M65.9,25.4c0,0.3-0.1,0.5-0.2,0.7c-0.1,0.2-0.3,0.4-0.5,0.6c-0.2,0.2-0.4,0.3-0.7,0.4c-0.3,0.1-0.6,0.1-1,0.1
		c-0.6,0-1.1-0.1-1.5-0.3c-0.4-0.2-0.7-0.5-1-0.8l0.7-0.6c0.4,0.6,1,0.9,1.8,0.9c0.5,0,0.8-0.1,1-0.3c0.2-0.2,0.3-0.4,0.3-0.6
		c0-0.2,0-0.3-0.1-0.4s-0.2-0.2-0.4-0.2c-0.1-0.1-0.3-0.1-0.5-0.1c-0.2,0-0.4-0.1-0.6-0.1c-0.2-0.1-0.5-0.1-0.7-0.2
		c-0.2-0.1-0.4-0.2-0.6-0.3c-0.2-0.1-0.3-0.3-0.4-0.5c-0.1-0.2-0.2-0.4-0.2-0.7c0-0.2,0-0.5,0.1-0.7c0.1-0.2,0.2-0.4,0.4-0.5
		s0.4-0.3,0.7-0.3c0.3-0.1,0.5-0.1,0.9-0.1c0.5,0,1,0.1,1.3,0.3s0.7,0.5,0.9,0.8l-0.7,0.5c-0.1-0.2-0.3-0.4-0.6-0.5
		c-0.3-0.2-0.6-0.2-1.1-0.2c-0.4,0-0.7,0.1-0.8,0.2c-0.2,0.1-0.3,0.3-0.3,0.6c0,0.1,0,0.3,0.1,0.3s0.2,0.2,0.3,0.2s0.3,0.1,0.4,0.2
		s0.3,0.1,0.5,0.1c0.3,0.1,0.6,0.1,0.8,0.2s0.5,0.2,0.7,0.3c0.2,0.1,0.4,0.3,0.5,0.5C65.8,24.9,65.9,25.1,65.9,25.4z"/>
</g>
<g id="Page-1_5_" transform="translate(295.000000, 574.000000)">
	<g id="Clip-2_3_">
	</g>
	<defs>
		<filter id="Adobe_OpacityMaskFilter" filterUnits="userSpaceOnUse" x="-269.1" y="-537.9" width="31.9" height="19.9">
			<feColorMatrix  type="matrix" values="1 0 0 0 0  0 1 0 0 0  0 0 1 0 0  0 0 0 1 0"/>
		</filter>
	</defs>
	<mask maskUnits="userSpaceOnUse" x="-269.1" y="-537.9" width="31.9" height="19.9" id="mask-14_2_">
		<g class="st2">
			<polygon id="path-13_2_" class="st3" points="-269.1,-537.9 -269.1,-517.9 -237.2,-517.9 -237.2,-537.9 			"/>
		</g>
	</mask>
	<path id="Fill-1_14_" class="st4" d="M-239-535.9c-0.1,0-0.1,0.1-0.2,0.2c0,0.1-0.1,0.2,0,0.3c0,0-0.1,0.1-0.1,0.1
		c-0.1,0-0.1,0.1-0.2,0.1c0,0-0.1,0.1-0.1,0.2l0,0.1c0,0.1,0,0.2,0,0.3c0,0,0,0,0,0l-0.1,0.2c-0.1,0.1-0.1,0.2-0.1,0.4l0,0.1
		c0,0.1,0.1,0.2,0.1,0.3c0,0.1,0,0.1,0,0.2c0,0,0,0.1,0,0.1c0,0,0,0.1,0,0.1l-0.3,0.1l-0.1,0c-0.1,0-0.2,0.1-0.3,0.2
		c0,0-0.1,0.1-0.1,0.1c0,0,0,0-0.1,0l-0.1,0.1c-0.1,0.1-0.2,0.1-0.2,0.2c-0.1,0.1-0.1,0.1-0.1,0.2l0,0.1c0,0.1-0.1,0.2-0.1,0.3
		c0,0.1,0,0.2,0.1,0.3c0,0,0,0.1,0.1,0.1c-0.1,0-0.2,0-0.3,0c-0.1,0-0.1,0-0.2,0c-0.2,0-0.3,0.2-0.4,0.4c0,0,0,0,0,0l0,0
		c-0.1,0.1-0.2,0.3-0.2,0.4c0,0,0,0,0,0.1c-0.1,0-0.1,0-0.1,0.1c-0.1,0.1-0.2,0.3-0.2,0.4c0,0.1,0,0.2,0.1,0.3
		c0,0.1,0.1,0.2,0.2,0.2c0.1,0.1,0.2,0.1,0.2,0.1l0.2,0c0,0,0.1,0,0.1,0c0,0,0,0.1,0.1,0.1c0,0.1,0,0.1,0,0.2c0,0.2,0.2,0.3,0.3,0.4
		c-0.1,0.1-0.1,0.1-0.2,0.2c-0.1,0.1-0.1,0.3,0,0.4l0.1,0.1c0,0,0,0.1,0,0.1c0,0.1,0,0.1,0,0.2c0,0.1,0,0.2,0.1,0.2l-0.2,0.2
		c-0.1,0.1-0.1,0.1-0.1,0.2l0,0c0,0,0,0.1-0.1,0.1l-0.1,0c0,0-0.1,0.1-0.1,0.1c-0.1,0.1-0.2,0.2-0.3,0.4l-0.1,0.4l0,0
		c0,0,0,0.1-0.1,0.1l0,0c0,0.1-0.1,0.1-0.1,0.2c0,0,0,0.1-0.1,0.1c0,0,0,0,0,0l-0.1,0.1l-0.3,0.1c-0.2,0.1-0.3,0.2-0.4,0.4
		c0,0.1,0,0.1,0,0.2c0,0,0,0,0,0.1c0,0,0,0.1,0,0.1l0,0c0,0,0,0.1,0,0.1l-0.1,0.4c0,0,0,0.1,0,0.2l0,0.1c0,0.1,0,0.2,0,0.3l0,0.1
		c0,0.1,0,0.2,0.1,0.3l0.3,0.5l0.3,0.4c0,0,0.1,0.1,0.1,0.1l0.3,0.2l0.1,0.1c0,0.1,0,0.1,0.1,0.2l0.1,0.1c0,0,0.1,0.1,0.1,0.1
		l0.4,0.5l0.1,0.3c-0.1,0-0.1-0.1-0.1-0.1c0,0-0.1,0-0.1,0c0,0,0-0.1-0.1-0.1c0-0.1-0.1-0.2-0.2-0.3c-0.1-0.1-0.2-0.2-0.3-0.2
		c0,0-0.1,0-0.1,0l0,0c0-0.2-0.1-0.4-0.3-0.5l0-0.1c0,0,0-0.1,0-0.1l-0.1-0.2c0,0-0.1-0.1-0.1-0.2c0,0-0.1-0.1-0.1-0.2
		c-0.1-0.1-0.2-0.1-0.3-0.1l-0.2-0.1c-0.1-0.1-0.2-0.1-0.2-0.2l-0.3-0.2c-0.1,0-0.1,0-0.2,0l-0.1,0c0,0-0.1,0-0.2,0c0,0-0.1,0-0.1,0
		l-0.1,0c-0.1,0-0.2,0.1-0.3,0.2c0,0,0,0,0,0.1l-0.1,0.1c0,0,0,0,0,0c0,0-0.1,0-0.1-0.1l-0.4-0.1c-0.1-0.1-0.2-0.1-0.3-0.1
		c0,0-0.1,0-0.1,0l-0.1,0c0,0-0.1,0-0.1,0l0,0c-0.1,0-0.1,0-0.2,0c-0.1,0-0.2,0-0.2,0.1c-0.1-0.2-0.3-0.2-0.5-0.2
		c-0.2,0-0.4,0.2-0.4,0.4l-0.1,0c-0.1,0-0.2,0-0.2,0.1c-0.1,0-0.2,0-0.2,0.1l0,0l-0.1,0c-0.1,0-0.2,0-0.3,0l-0.2,0.1
		c-0.2,0.1-0.3,0.2-0.3,0.4l0,0.1c0,0,0,0,0,0.1c0,0-0.1,0-0.1,0l-0.2-0.1c-0.1,0-0.1,0-0.2,0l-0.1,0c-0.1,0-0.2,0.1-0.3,0.2
		l-0.4-0.1c-0.1,0-0.1,0-0.2,0l-0.6,0.1c0,0-0.1,0-0.1,0c-0.1,0-0.2,0-0.3-0.1c-0.1,0-0.2,0-0.3,0.1c-0.1,0-0.1,0.1-0.2,0.1
		c-0.1,0.1-0.1,0.3-0.1,0.4l0,0.2l0,0c-0.1,0-0.2,0-0.3,0c-0.1,0-0.1,0-0.2,0c-0.2,0-0.4,0.2-0.4,0.3c0,0,0,0.1,0,0.1c0,0,0,0,0,0
		c0,0,0,0,0,0l-0.1,0.1c-0.1,0.1-0.2,0.1-0.2,0.2c-0.1,0.1-0.1,0.2-0.2,0.3c0,0.1,0,0.1,0,0.2c-0.1,0.1-0.1,0.1-0.1,0.2
		c0,0.1,0,0.2,0.1,0.3c-0.1,0-0.1,0-0.2,0h0h-0.1l-0.2-0.1l-0.2-0.4c-0.1-0.1-0.1-0.2-0.3-0.2l-0.1,0l-0.1-0.1c0,0-0.1-0.1-0.1-0.1
		l-0.1-0.1l-0.2-0.4c-0.1-0.1-0.1-0.2-0.2-0.2l-0.1-0.1c0,0-0.1-0.1-0.1-0.1l-0.3-0.2c-0.1-0.1-0.3-0.1-0.4-0.1l-0.5,0l-0.1,0
		c-0.1,0-0.2,0-0.3,0l-0.1,0.1c-0.1,0-0.2,0.1-0.2,0.2c0,0-0.1,0.1-0.1,0.1l-0.1,0.2l-0.2-0.2l-0.2-0.5c0-0.1-0.1-0.2-0.2-0.3
		l-0.3-0.2l-0.2-0.2l-0.1-0.1c-0.1-0.1-0.1-0.1-0.2-0.2h0c-0.1-0.1-0.2-0.2-0.3-0.2l-0.1-0.1c-0.1,0-0.2-0.1-0.2,0l-0.2,0l3.2-1.8
		c0.3,0.2,0.5,0.3,0.8,0.4c0.5,0.2,1.1,0.3,1.6,0.3l0.2,0c0.7,0,1.4-0.2,2-0.4c0.6-0.3,1.5-1.2,1.7-1.3c0.3-0.4,0.3-1-0.2-1.4
		c-0.2-0.1-0.4-0.2-0.6-0.2l-1.9-0.1l-0.7-1.2l0.7-1.2l1.9,0.1c0.5,0,1-0.4,1-0.9c0-0.2,0-0.4-0.2-0.6c-0.4-0.6-1-1.1-1.6-1.4
		c-0.6-0.3-1.4-0.5-2.1-0.6l-0.1,0c-1.2,0-2.3,0.5-3.2,1.3c-0.8,0.8-1.3,1.8-1.4,3l-7,3.8c-0.1,0-0.2-0.1-0.2-0.1c0,0,0,0-0.1,0
		c0,0,0,0,0,0c0,0,0-0.1,0-0.1c0-0.1-0.1-0.2-0.1-0.3c0,0,0,0,0-0.1c0-0.1-0.1-0.2-0.2-0.3l-0.1-0.1l-0.2-0.6c0,0,0-0.1,0.1-0.2
		l0-0.1c0-0.1,0-0.2,0-0.3l0-0.1c0,0,0,0,0-0.1c0-0.1,0-0.1,0-0.2v0c0.1-0.1,0.1-0.2,0.2-0.3c0-0.2-0.1-0.4-0.3-0.5l-0.1-0.1
		c0,0-0.1,0-0.1-0.1l-0.1,0l-0.1-0.5l-0.1-0.2l0-0.2c0-0.1,0.1-0.2,0.1-0.3c0-0.1,0-0.1,0-0.2l-0.1-0.3c0.1-0.1,0.1-0.1,0.1-0.2
		l0.1-0.3c0-0.1,0-0.1,0-0.2l0-0.4l0-0.1c0,0,0-0.1,0-0.1l0-0.1l0-0.2l0-0.1c0.1-0.1,0.3-0.3,0.3-0.4l0.1-0.1c0,0,0-0.1,0-0.1l0-0.1
		c0,0,0-0.1,0.1-0.1l0.1-0.3l0,0c0,0,0.1-0.1,0.1-0.1l0.1-0.2c0,0,0.1-0.1,0.1-0.2c0.1,0,0.3-0.1,0.4-0.2c0.1-0.2,0.1-0.4,0-0.6
		c0.1,0,0.3-0.1,0.4-0.2c0.1,0,0.1,0,0.2,0c0.1,0,0.2-0.1,0.3-0.3l0.1-0.3c0,0,0-0.1,0-0.1c0.9,0.2,2.7,0.5,5.3,0.7
		c3.2,0.3,5.5,0.2,6.2,0.2c0.1,0.1,0.3,0.1,0.4,0.2c0.1,0,0.1,0,0.2,0c0,0,0,0,0,0l0.1,0c0.1,0,0.1,0,0.2,0c0.1,0,0.1,0,0.2,0l0.1,0
		c0,0,0.1,0,0.1,0l0.1,0c0,0,0.1,0.1,0.1,0.1c0,0,0.1,0,0.1,0c0,0,0.1,0,0.1,0l-0.1,0.1c0,0-0.1,0.1-0.1,0.1
		c-0.2,0.2-0.1,0.6,0.1,0.8c0.1,0.1,0.3,0.1,0.5,0.1c0.1,0,0.1,0,0.2,0l0.1,0c0,0,0.1,0,0.1,0c0.1,0,0.1,0,0.2,0c0,0,0.1,0,0.2,0
		l0.3,0c0.1,0,0.2-0.1,0.2-0.1l0.1-0.1l0.1,0c0,0,0,0,0.1,0c0,0,0.1,0,0.2,0.1c0.1,0,0.3,0,0.4-0.1c0,0,0,0,0,0l0.1,0.1l-0.1,0.3
		c-0.1,0.1-0.1,0.2-0.1,0.2l0,0.1c0,0.1,0,0.2,0,0.3c0,0.1,0.1,0.3,0.3,0.3c0,0,0,0,0,0.1l0,0l0,0.1c0,0,0,0.1,0,0.1l0,0.1
		c0,0.1,0,0.1,0,0.2l0,0.1c0,0,0,0.1,0,0.1l0.1,0.3c0,0.1,0,0.1,0.1,0.2l0.2,0.3c0,0,0.1,0.1,0.1,0.1c0.1,0.1,0.2,0.1,0.3,0.2
		c0,0,0.1,0,0.1,0c0,0,0.2,0,0.2,0c0.1,0,0.2-0.1,0.3-0.1l0.3-0.2c0.1-0.1,0.2-0.2,0.2-0.4l0.1-0.5c0-0.1,0-0.1,0-0.2l-0.1-0.3
		c0-0.1-0.1-0.2-0.1-0.3c0,0-0.1-0.1-0.1-0.1l0,0l0-0.1c0-0.1,0-0.1,0-0.2c0.1,0,0.1-0.1,0.2-0.2c0,0,0.1-0.1,0.1-0.1
		c0-0.1,0.1-0.1,0.1-0.2c0,0,0,0,0.1-0.1h0c0,0,0,0,0.1,0c0,0,0,0,0,0.1c-0.1,0.1-0.1,0.2-0.1,0.3c0,0,0,0.2,0,0.2
		c0,0.2,0.1,0.3,0.2,0.4c0.1,0.1,0.3,0.1,0.4,0.1c0.1,0,0.2,0,0.3-0.1c0,0,0,0.1,0,0.1c0,0,0,0.1,0,0.1l0,0.1c0,0,0,0,0,0.1
		c0,0-0.1,0.1-0.1,0.2c-0.1,0.2,0,0.3,0,0.5c0.1,0.1,0.2,0.2,0.4,0.3l0.1,0c0.1,0,0.2,0,0.2,0c0,0,0,0,0.1,0c0,0,0.1,0,0.1,0l0.2,0
		c0.1,0,0.1,0,0.2-0.1l0.2-0.1c0.1,0,0.2-0.1,0.2-0.1l0.3-0.2l0.2-0.1c0,0,0.1,0,0.1-0.1l0.1-0.1c0,0,0,0,0.1-0.1
		c0.1,0,0.1-0.1,0.2-0.1l0.3-0.3c0,0,0.1,0,0.1-0.1c0,0,0.1-0.1,0.1-0.2l0.1-0.1c0.1-0.1,0.1-0.2,0.1-0.3c0.1,0,0.3,0,0.4-0.1l0,0
		c0,0,0,0,0,0l0.2-0.1c0,0,0.2-0.1,0.2-0.1c0.1,0,0.1-0.1,0.1-0.1l0.1-0.1c0.2-0.1,0.3-0.4,0.3-0.6c0-0.1,0-0.1-0.1-0.2
		c0,0,0,0,0-0.1c0,0,0,0,0-0.1l0-0.1l0,0l0,0c0,0,0.1-0.1,0.1-0.1l1.7-0.6c0.2-0.1,0.3-0.2,0.3-0.3c0.1,0,0.1-0.1,0.2-0.1
		c0.1,0,0.1-0.1,0.1-0.1c0.1-0.1,0.1-0.3,0.1-0.4c0,0,0-0.1,0-0.1c0-0.1,0-0.2,0-0.3l-0.1-0.2c0,0,0-0.1,0-0.2v-0.1c0,0,0-0.1,0-0.1
		c0.1,0,0.1,0,0.2-0.1l0.3,0.5c0,0.1,0.1,0.1,0.2,0.2C-238.9-535.9-238.9-535.9-239-535.9 M-237.2-536.2c0-0.1-0.1-0.2-0.2-0.3
		c0,0,0,0,0,0l0-0.1c0,0-0.1-0.1-0.1-0.1c-0.1-0.1-0.3-0.2-0.4-0.2c-0.1-0.1-0.1-0.1-0.2-0.1l-0.3-0.6c-0.1-0.1-0.2-0.2-0.3-0.2
		l-0.4-0.1c-0.1,0-0.3,0-0.4,0c-0.1,0-0.1,0.1-0.2,0.1c-0.1,0-0.2,0-0.3,0c-0.1,0-0.2,0.2-0.3,0.2c-0.1,0.1-0.1,0.2-0.1,0.2
		l-0.1,0.4c0,0.1,0,0.2,0,0.2l0,0.2c0,0,0,0,0,0.1c0,0.1,0,0.2,0,0.2c0,0,0,0.1,0,0.1l0,0.1l0,0c-0.1,0-0.2,0.2-0.3,0.3l-1.5,0.5
		c-0.1,0-0.2,0.1-0.3,0.2l-0.2,0.2c-0.1,0.1-0.1,0.2-0.2,0.3l0,0c-0.1,0.1-0.1,0.2-0.2,0.3c0,0.1,0,0.2,0,0.3c0,0,0,0-0.1,0
		c0,0,0,0-0.1,0l-0.2,0c0,0-0.1,0-0.1,0c0,0-0.1,0-0.1,0l-0.3,0.1l-0.4,0.2c-0.1,0.1-0.2,0.3-0.2,0.4c0,0.1,0,0.2,0,0.3l-0.1,0.1
		c-0.1,0-0.2,0.1-0.3,0.2l-0.1,0.1c0,0-0.1,0-0.1,0.1l-0.3,0.3v0l0-0.3c0,0,0-0.1,0-0.2c0-0.1-0.1-0.2-0.2-0.3l-0.1-0.1
		c0-0.1,0-0.1-0.1-0.1l-0.1-0.1c0,0-0.1-0.1-0.1-0.1l-0.2-0.1c0,0-0.1-0.1-0.2-0.1c0,0,0,0,0,0l-0.1-0.1c0-0.1-0.1-0.2-0.2-0.3
		l-0.1-0.1c0,0-0.2-0.1-0.2-0.1c0,0,0,0,0,0c0-0.1-0.1-0.2-0.1-0.2c0-0.1-0.1-0.1-0.2-0.2c0,0,0,0,0,0c0-0.1-0.1-0.1-0.2-0.2
		c-0.1-0.1-0.3-0.1-0.4-0.1c0,0,0,0,0,0c-0.1-0.1-0.3-0.1-0.5-0.1c-0.1,0-0.2,0-0.2,0.1l-0.2,0c-0.1,0-0.2,0.1-0.2,0.1l-0.1,0.1
		c0,0,0,0-0.1,0h0c0,0,0-0.1,0-0.1c0-0.3-0.4-0.5-0.7-0.5l-0.1,0c0,0-0.1,0-0.1,0l-0.3,0.2c0,0,0-0.1,0-0.1
		c-0.1-0.2-0.2-0.3-0.4-0.3l-0.1,0c-0.1,0-0.1,0-0.2,0l-0.2,0l-0.1,0c-0.1,0-0.2,0-0.3,0c0,0-0.1,0-0.1,0c0,0-0.1,0-0.2,0l0,0
		c0,0-0.1,0-0.1,0c0,0-0.1,0-0.1-0.1l-0.3-0.1c0,0-0.1,0-0.1,0l-0.3,0c0,0-0.1,0-0.1,0c0,0,0,0,0,0l-0.1,0c0,0-0.1,0-0.2,0
		c0,0-0.1-0.1-0.1-0.1c-0.1-0.1-0.2-0.1-0.3-0.1c0,0-2.4,0.1-6.3-0.2c-3.8-0.3-5.9-0.8-5.9-0.8c-0.2,0-0.3,0-0.5,0.2
		c-0.1,0.1-0.1,0.1-0.1,0.2l-0.2-0.1c-0.2-0.2-0.5-0.2-0.7,0c-0.1,0-0.2,0.1-0.2,0.2c0,0-0.1,0.2-0.1,0.2c0,0.1,0,0.2,0,0.2
		c0,0,0,0.2,0,0.2c0,0,0,0.1,0,0.1l0,0l0,0.4c0,0,0,0,0,0.1c0,0,0,0,0,0l0,0.1c0,0,0,0.2,0,0.2c0,0,0,0.1,0,0.1l0,0.1
		c0,0,0,0.1,0,0.2c0,0,0,0,0,0c0,0-0.1,0.1-0.1,0.1l-0.1,0.2l0,0c0,0-0.1,0.1-0.1,0.2l-0.1,0.3c0,0,0,0.1-0.1,0.1l-0.2,0.3
		c0,0,0,0,0,0l0,0c0,0-0.1,0.1-0.1,0.1l-0.1,0.2c0,0.1-0.1,0.1-0.1,0.2l-0.1,0.3c0,0.1,0,0.1,0,0.2l0,0.3l0,0.2l-0.1,0.2l-0.1,0.1
		c-0.1,0.1-0.2,0.2-0.2,0.4c0,0,0,0.1,0,0.2c0,0.1,0,0.2,0.1,0.4l0.1,0.2l0,0.1c0,0,0,0.1,0,0.2l0,0.4c0,0.1,0,0.2,0.1,0.3l0.2,0.7
		c0,0.1,0,0.2,0,0.3c0,0.1,0.1,0.1,0.1,0.2l0.1,0.1c0,0,0,0.1,0,0.1l0,0.2c0,0.1,0,0.2,0.1,0.3l0.1,0.1l0,0.1c0,0.1,0,0.2,0,0.3
		l0.2,0.8l0.1,0.2c0,0,0,0.1,0.1,0.1l0.1,0.1c0,0.1,0,0.1,0.1,0.2c0,0,0,0,0,0.1l0,0.2c0,0.1,0,0.2,0.1,0.2c0,0.1,0.2,0.2,0.3,0.3
		c0,0,0.1,0,0.1,0l0.2,0.1c0.1,0,0.2,0.1,0.3,0.1l0,0c0.2,0.2,0.4,0.3,0.7,0.1l7-3.8l0.5-0.3c0.2-0.1,0.3-0.3,0.3-0.5
		c0-1,0.4-1.8,1.1-2.5c0.7-0.6,1.5-1,2.5-1l0.1,0c0.6,0,1.1,0.2,1.6,0.4c0.5,0.2,0.9,0.6,1.2,1l-2.1-0.1c-0.2,0-0.4,0.1-0.5,0.3
		l-1,1.7c-0.1,0.2-0.1,0.4,0,0.5l0.9,1.8c0.1,0.2,0.3,0.3,0.5,0.3l2,0c-0.3,0.3-0.9,0.8-1.2,0.9c-0.4,0.2-0.9,0.3-1.5,0.3l-0.1,0
		c-0.4,0-0.8-0.1-1.2-0.3c-0.3-0.1-0.6-0.3-0.9-0.5c-0.2-0.1-0.4-0.2-0.6-0.1l-5.4,2.9c-0.2,0.1-0.3,0.2-0.3,0.4
		c0,0.2,0.1,0.4,0.2,0.5l0.4,0.3c0.1,0,0.1,0.1,0.2,0.1l0.1,0c0,0,0.1,0,0.1,0l0.6,0c0.2,0,0.4-0.1,0.5-0.3l0.5,0
		c0.1,0.1,0.1,0.2,0.2,0.2l0.1,0c0,0,0.1,0.1,0.1,0.1l0.3,0.2l0.2,0.1l0.1,0.4c0,0.1,0.1,0.1,0.1,0.2l0.2,0.2c0,0,0.1,0,0.1,0.1
		l0.6,0.4c0.1,0,0.1,0,0.2,0.1l0.3,0c0.2,0,0.4-0.1,0.5-0.3l0.2-0.3c0,0,0,0,0,0l0.4,0l0.2,0.2c0,0.1,0.1,0.1,0.2,0.1l0.2,0.4
		c0,0.1,0.1,0.1,0.1,0.1l0.2,0.1l0.1,0.1c0.1,0.1,0.1,0.1,0.2,0.2l0.2,0.4c0,0,0.1,0.1,0.1,0.1l0.3,0.3c0,0,0.1,0.1,0.2,0.1l0.2,0.1
		c0.1,0,0.1,0,0.2,0h0l0.2,0c0.1,0,0.1,0,0.2,0l0.3,0l0.2,0.1c0,0,0.1,0,0.1,0h0l0.2,0c0.2,0,0.4-0.2,0.5-0.4c0.1-0.2,0-0.4-0.1-0.6
		l0-0.1c0,0,0-0.1-0.1-0.1l0,0c0,0,0-0.1,0-0.1c0-0.1,0-0.1,0-0.2c0,0,0-0.1,0-0.1c0,0,0,0,0-0.1l0.1-0.1c0,0,0,0,0,0c0,0,0,0,0,0
		l0,0l0,0c0.1,0,0.2,0,0.2,0l0.4-0.2c0,0,0.1-0.1,0.1-0.1l0.2-0.1c0.1,0,0.1-0.1,0.2-0.2c0,0,0-0.1,0.1-0.1l0-0.1l0.7-0.2l0.3,0
		c0,0,0.1,0,0.1,0l0.4,0c0.1,0,0.2,0,0.3-0.1c0,0,0,0,0,0l0.1,0.1c0.1,0.1,0.3,0.1,0.4,0.1l0,0c0,0,0,0,0.1,0l0.1,0
		c0.1,0,0.2,0,0.3,0c0,0,0.1,0,0.1,0l0.1,0c0.1,0,0.2,0,0.3-0.1c0.2,0.1,0.5,0.1,0.7,0c0.1-0.1,0.3-0.3,0.3-0.4c0-0.1,0-0.3-0.1-0.5
		l0.1,0c0.1,0,0.2,0.1,0.4,0l0.4-0.2c0,0,0.1,0,0.1,0c0,0,0.1,0,0.1,0c0,0,0.1,0,0.1,0l0.1,0c0,0,0,0,0,0c0,0,0.1,0,0.2,0l0.3,0.1
		l0,0c0,0,0.2,0.1,0.2,0.1c0.1,0,0.3,0.1,0.4,0l0.3-0.1c0,0,0.1,0,0.1-0.1l0.1-0.1c0.1,0,0.1,0,0.2-0.1l0,0c0.1,0.1,0.1,0.1,0.2,0.2
		l0.1,0.1c0,0,0.1,0.1,0.2,0.1l0,0.3c0,0,0,0.1,0,0.2c0,0,0,0.1,0,0.1l0.1,0.1c0,0,0,0.1,0.1,0.1c0,0,0.1,0.1,0.1,0.1l0,0.1
		c0,0.1,0.1,0.1,0.1,0.2l0.4,0.3c0,0,0.1,0,0.1,0.1c0,0.1,0.1,0.1,0.1,0.1l0.1,0.1c0,0,0.1,0.1,0.1,0.1c0,0,0.2,0.1,0.2,0.1
		c0.1,0,0.1,0.1,0.2,0.1c0,0.1,0.1,0.2,0.1,0.2c0.1,0.1,0.2,0.1,0.3,0.2c0.1,0,0.2,0,0.3,0l0.2,0c0,0,0.1,0,0.1,0l0.2-0.1
		c0.2,0,0.4-0.1,0.5-0.3l0-0.1c0-0.1,0-0.3,0-0.4l0-0.2c0-0.1,0-0.1,0-0.2l-0.2-0.6c0-0.1-0.1-0.2-0.1-0.2l-0.4-0.5l-0.1-0.1l0-0.1
		c0-0.1,0-0.1-0.1-0.1l0-0.1c0-0.1-0.1-0.1-0.1-0.1l-0.4-0.4l-0.4-0.6c0,0,0,0,0-0.1l0,0c0,0,0-0.1,0-0.1l0.1-0.4c0,0,0,0,0,0
		c0.1-0.1,0.2-0.2,0.2-0.2c0,0,0.1,0,0.1,0c0.1,0,0.1-0.1,0.2-0.1l0.2-0.2c0,0,0.1-0.1,0.1-0.1c0,0,0.1-0.1,0.1-0.1
		c0,0,0.1-0.1,0.1-0.1c0.1-0.1,0.1-0.2,0.1-0.3c0,0,0-0.1,0-0.1l0-0.1c0,0,0-0.1,0.1-0.1l0.1-0.3c0,0,0.1,0,0.1-0.1l0.2-0.1
		c0.1-0.1,0.2-0.2,0.2-0.3c0,0,0-0.1,0.1-0.1l0.2-0.1c0.1,0,0.2-0.1,0.2-0.1l0.1-0.1c0.1-0.1,0.2-0.3,0.2-0.4c0,0,0,0,0-0.1
		c0,0,0.1-0.1,0.1-0.1l0-0.1c0.1-0.2,0.1-0.4,0.1-0.6c0,0-0.1-0.1-0.1-0.2c0,0,0,0-0.1-0.1c0,0,0,0,0,0l0-0.4c0-0.1-0.1-0.2-0.1-0.3
		l0,0c0-0.1,0-0.1-0.1-0.2l0,0c0,0,0,0,0,0c0-0.1,0-0.1,0-0.2l0-0.2l0.1-0.3c0,0,0-0.1,0-0.2c0-0.1,0-0.1,0-0.2c0-0.1,0-0.2,0-0.3
		l0,0c0,0,0-0.1,0-0.1l0-0.1c0-0.1,0.1-0.2,0.1-0.2c0,0,0-0.1,0-0.1c0-0.1,0-0.2,0-0.2c0-0.1,0-0.1,0-0.2l0-0.1c0,0,0-0.1,0-0.1
		c0,0,0-0.1-0.1-0.2l0,0c0,0,0.1-0.1,0.1-0.1c0,0,0.1,0,0.1-0.1l0.4-0.2l0.2-0.1c0,0,0.1-0.1,0.1-0.1c0,0,0.1-0.1,0.1-0.1
		c0,0,0.1,0,0.1-0.1c0,0,0,0,0,0c0,0,0,0,0.1,0c0.1,0,0.2-0.1,0.2-0.1l0,0c0.1,0,0.2-0.1,0.2-0.2l0.1-0.1c0.1-0.1,0.1-0.2,0.1-0.3
		c0-0.1,0-0.3-0.1-0.4l-0.1-0.1c0-0.1-0.1-0.1-0.2-0.2c-0.1-0.1-0.3-0.1-0.4,0c0,0,0-0.1-0.1-0.1c0,0,0,0,0,0l0-0.1
		c0.1,0,0.1-0.1,0.2-0.2c0,0,0,0,0,0c0,0,0.1-0.1,0.1-0.1c0,0,0,0,0.1,0c0,0,0.1-0.1,0.1-0.2c0.1,0,0.2-0.1,0.2-0.1
		c0.1,0,0.1-0.1,0.1-0.2c0,0,0,0,0,0c0,0,0,0,0.1-0.1c0,0,0,0,0,0c0,0,0,0,0.1-0.1c0,0,0,0,0,0c0.1-0.1,0.2-0.2,0.2-0.2
		C-237.2-535.9-237.2-536-237.2-536.2"/>
</g>
</svg>
