<?xml version="1.0" encoding="utf-8"?>
<!-- Generator: Adobe Illustrator 19.2.1, SVG Export Plug-In . SVG Version: 6.00 Build 0)  -->
<svg version="1.1" id="Layer_1" xmlns="http://www.w3.org/2000/svg" xmlns:xlink="http://www.w3.org/1999/xlink" x="0px" y="0px"
	 viewBox="0 0 85 62.2" style="enable-background:new 0 0 85 62.2;" xml:space="preserve">
<style type="text/css">
	.st0{fill:#1967B0;}
	.st1{filter:url(#Adobe_OpacityMaskFilter);}
	.st2{fill:#FFFFFF;}
	.st3{mask:url(#mask-4_2_);fill:#1967B0;}
	.st4{filter:url(#Adobe_OpacityMaskFilter_1_);}
	.st5{mask:url(#mask-6_2_);fill:#1967B0;}
	.st6{enable-background:new    ;}
	.st7{fill:#1096D4;}
</style>
<g id="Group" transform="translate(35.000000, 577.000000)">
	<g id="Page-1" transform="translate(0.000000, 7.000000)">
		<path id="Fill-1_6_" class="st0" d="M-7.4-538.8l-5.8-0.1c-0.1,0-0.2,0.1-0.2,0.2v2.9c0,0.1,0.1,0.2,0.2,0.2l5.8,0.1
			c0.1,0,0.2-0.1,0.2-0.2v-2.9C-7.1-538.7-7.2-538.8-7.4-538.8"/>
		<path id="Fill-3_1_" class="st0" d="M-14.4-538.9l-4.4,0c-0.1,0-0.2,0.1-0.2,0.2v2.8c0,0.1,0.1,0.2,0.2,0.2l4.4,0.1
			c0.1,0,0.2-0.1,0.2-0.2v-2.9C-14.2-538.8-14.3-538.9-14.4-538.9"/>
		<path id="Fill-5_1_" class="st0" d="M-4-538.6c-0.5-0.1-1.2-0.2-2.1-0.2c-0.2,0-0.2,0.1-0.2,0.2c0,0,0,3,0,3
			c0,0.1,0.1,0.2,0.2,0.2l5.8,0.1c0.2,0,0.3-0.2,0.2-0.4C-0.8-536.4-2.2-538.2-4-538.6"/>
		<g id="Group-9" transform="translate(0.000000, 0.743400)">
			<g id="Clip-8">
			</g>
			<defs>
				<filter id="Adobe_OpacityMaskFilter" filterUnits="userSpaceOnUse" x="-22.8" y="-541.9" width="30.2" height="13.7">
					<feColorMatrix  type="matrix" values="1 0 0 0 0  0 1 0 0 0  0 0 1 0 0  0 0 0 1 0"/>
				</filter>
			</defs>
			<mask maskUnits="userSpaceOnUse" x="-22.8" y="-541.9" width="30.2" height="13.7" id="mask-4_2_">
				<g class="st1">
					<polygon id="path-3_2_" class="st2" points="7.4,-528.2 7.4,-541.9 -22.8,-541.9 -22.8,-528.2 					"/>
				</g>
			</mask>
			<path id="Fill-7_2_" class="st3" d="M6.1-531.4c-0.1,0.1-1,0.3-2.4,0.4c-0.1-1.3-1.2-2.3-2.5-2.3c-1.4,0-2.6,1.2-2.6,2.6l-12.7,0
				c0-1.4-1.2-2.6-2.6-2.6c-1.3,0-2.3,0.9-2.5,2.1c-0.3,0-0.6,0-0.9,0c-1.3,0-1.6-0.2-1.7-0.4c-0.2-0.5-0.1-0.7-0.1-0.8
				c0,0,0.1-0.1,0.2-0.2l0.2-0.2v-1.7c0.4,0,0.7-0.3,0.7-0.5c0-0.3-0.3-0.5-0.7-0.5c0-1.1,0-1.8,0.4-3.1c0.4-1.4,1.1-2.3,1.5-2.3
				c0.6,0,1.4,0,2.3,0c1.2,0,2.6,0,4,0c4.7,0,7.9,0.2,9.6,0.7c2.4,0.6,4.9,3.1,4.9,3.1l0.1,0.1l0.1,0c0.3,0.1,0.5,0.2,0.8,0.3
				c1.3,0.5,2.7,1,3.3,1.6c-0.3,0.1-0.5,0.3-0.5,0.5c0,0.3,0.4,0.5,0.8,0.5c0,0,0.1,0,0.1,0c0,0.2,0,0.4,0,0.6l0,0.3l0.3,0.2
				c0,0,0.1,0.1,0.1,0.1l0,0.2C6.4-532.1,6.4-531.8,6.1-531.4L6.1-531.4z M1.2-529.2c-0.8,0-1.5-0.7-1.5-1.5c0-0.8,0.7-1.5,1.5-1.5
				c0.8,0,1.5,0.7,1.5,1.5C2.7-529.9,2-529.2,1.2-529.2L1.2-529.2z M-16.6-529.2c-0.8,0-1.5-0.7-1.5-1.5c0-0.8,0.7-1.5,1.5-1.5
				c0.8,0,1.5,0.7,1.5,1.5C-15.1-529.9-15.8-529.2-16.6-529.2L-16.6-529.2z M7.4-533.2c0-0.1,0-0.3-0.4-0.6c0-0.5-0.1-1.3-0.5-1.8
				c-0.7-0.9-2.2-1.5-3.9-2.1c-0.2-0.1-0.5-0.2-0.7-0.2c-0.5-0.5-2.9-2.7-5.3-3.3c-1.8-0.5-4.9-0.7-9.8-0.7c-1.5,0-2.9,0-4.1,0
				c-0.9,0-1.7,0-2.3,0c-1.1,0-2.1,1.5-2.5,3c-0.4,1.5-0.4,2.3-0.4,3.5v2.1c-0.1,0.1-0.2,0.2-0.3,0.3c-0.2,0.4-0.2,1,0,1.6
				c0.4,1.1,1.7,1.1,2.6,1.1c0.3,0,0.4,0,0.9,0c0.3,1.1,1.3,2,2.5,2c1.1,0,2-0.6,2.4-1.5h13.1c0.4,0.9,1.3,1.5,2.4,1.5
				c1.2,0,2.1-0.8,2.5-1.8c2.8,0,3.2-0.6,3.4-0.8c0.4-0.6,0.4-1.3,0.4-2L7.4-533.2z"/>
		</g>
	</g>
	<g id="Page-1_1_" transform="translate(41.000000, 0.000000)">
		<polygon id="Fill-1_7_" class="st0" points="-20.2,-533.4 -18.3,-533.4 -18.3,-535.8 -20.2,-535.8 		"/>
		<polygon id="Fill-2" class="st0" points="-14.3,-533.4 -12.4,-533.4 -12.4,-535.8 -14.3,-535.8 		"/>
		<polygon id="Fill-3_2_" class="st0" points="-8.3,-533.4 -6.4,-533.4 -6.4,-535.8 -8.3,-535.8 		"/>
		<polygon id="Fill-4_2_" class="st0" points="-20.2,-528.3 -18.3,-528.3 -18.3,-530.7 -20.2,-530.7 		"/>
		<polygon id="Fill-5_2_" class="st0" points="-14.3,-528.3 -12.4,-528.3 -12.4,-530.7 -14.3,-530.7 		"/>
		<polygon id="Fill-6_1_" class="st0" points="-8.3,-528.3 -6.4,-528.3 -6.4,-530.7 -8.3,-530.7 		"/>
		<polygon id="Fill-7_3_" class="st0" points="-20.2,-523.5 -18.3,-523.5 -18.3,-525.9 -20.2,-525.9 		"/>
		<polygon id="Fill-8_1_" class="st0" points="-8.3,-523.5 -6.4,-523.5 -6.4,-525.9 -8.3,-525.9 		"/>
		<g id="Group-11" transform="translate(0.000000, 0.438500)">
			<g id="Clip-10">
			</g>
			<defs>
				<filter id="Adobe_OpacityMaskFilter_1_" filterUnits="userSpaceOnUse" x="-22.8" y="-541.6" width="19.1" height="23.4">
					<feColorMatrix  type="matrix" values="1 0 0 0 0  0 1 0 0 0  0 0 1 0 0  0 0 0 1 0"/>
				</filter>
			</defs>
			<mask maskUnits="userSpaceOnUse" x="-22.8" y="-541.6" width="19.1" height="23.4" id="mask-6_2_">
				<g class="st4">
					<polygon id="path-5_2_" class="st2" points="-22.8,-518.2 -3.8,-518.2 -3.8,-541.6 -22.8,-541.6 					"/>
				</g>
			</mask>
			<path id="Fill-9_1_" class="st5" d="M-12.8-520.1v-4.1c0.4,0.1,0.7,0.2,0.8,0.3v3.8H-12.8z M-14.6-520.1v-3.8
				c0.2-0.1,0.4-0.2,0.8-0.3v4.1H-14.6z M-13.3-525.3c-1.7,0-2.4,0.9-2.4,0.9v4.3h-6.1v-18.7h4h0.6l0.3-0.5c0.4-0.6,1.7-1.3,3.4-1.3
				h0.3c1.8,0,3.1,0.7,3.5,1.3l0.3,0.5h0.6h4v18.7h-6.1v-4.3C-10.9-524.4-11.6-525.3-13.3-525.3L-13.3-525.3z M-8.8-539.8
				c-0.7-1-2.4-1.7-4.4-1.8h-0.3c-2,0-3.7,0.7-4.4,1.8h-5v20.9h7.1v0.8h4.8v-0.8h7.1v-20.9H-8.8z"/>
		</g>
	</g>
	<path id="Fill-8_2_" class="st0" d="M12.1-529c-0.3,0-0.6,0.3-0.6,0.6v0.8h-0.8c-0.3,0-0.6,0.3-0.6,0.6c0,0.3,0.3,0.6,0.6,0.6h0.8
		v0.8c0,0.3,0.3,0.6,0.6,0.6c0.3,0,0.6-0.3,0.6-0.6v-0.8h0.8c0.3,0,0.6-0.3,0.6-0.6c0-0.3-0.3-0.6-0.6-0.6h-0.8v-0.8
		C12.7-528.7,12.4-529,12.1-529"/>
</g>
<g class="st6">
	<path class="st7" d="M5.4,2.9v6.9h-1V2.9H1.7V2h6.3v0.9H5.4z"/>
	<path class="st7" d="M11.7,5c-0.2-0.1-0.3-0.1-0.5-0.1c-0.2,0-0.4,0-0.6,0.1s-0.3,0.2-0.5,0.4C9.9,5.6,9.8,5.8,9.8,6.1
		S9.6,6.6,9.6,6.9v2.9h-1V4.1h1v1c0.2-0.3,0.4-0.6,0.7-0.8c0.3-0.2,0.6-0.3,1-0.3c0.1,0,0.2,0,0.3,0c0.1,0,0.2,0,0.3,0.1L11.7,5z"/>
	<path class="st7" d="M14.7,10c-0.3,0-0.6,0-0.8-0.1c-0.2-0.1-0.5-0.2-0.6-0.3c-0.2-0.2-0.3-0.3-0.4-0.5c-0.1-0.2-0.1-0.5-0.1-0.7
		c0-0.3,0.1-0.6,0.2-0.8C13,7.2,13.2,7,13.4,6.9c0.2-0.1,0.4-0.2,0.6-0.3c0.2-0.1,0.4-0.1,0.6-0.1c0.2,0,0.4-0.1,0.7-0.1
		c0.2,0,0.4-0.1,0.6-0.1c0.2-0.1,0.3-0.1,0.4-0.2c0.1-0.1,0.2-0.2,0.2-0.4c0-0.3-0.1-0.5-0.4-0.6c-0.2-0.1-0.5-0.2-0.9-0.2
		c-0.7,0-1.3,0.2-1.8,0.6L13,4.7c0.3-0.2,0.7-0.4,1.1-0.5C14.4,4,14.8,4,15.3,4c0.3,0,0.6,0,0.9,0.1c0.3,0.1,0.5,0.2,0.7,0.3
		s0.3,0.3,0.5,0.6c0.1,0.2,0.2,0.5,0.2,0.8v2.7c0,0.4,0.1,0.6,0.4,0.6c0.1,0,0.2,0,0.3-0.1l0.1,0.7c-0.1,0-0.2,0.1-0.3,0.1
		c-0.1,0-0.2,0-0.4,0c-0.3,0-0.5-0.1-0.7-0.2s-0.3-0.4-0.4-0.6c-0.2,0.3-0.4,0.5-0.7,0.7S15.2,10,14.7,10z M16.5,6.7
		c-0.1,0.1-0.2,0.2-0.3,0.2c-0.1,0.1-0.3,0.1-0.4,0.1c-0.1,0-0.3,0.1-0.5,0.1c-0.2,0-0.3,0-0.5,0.1c-0.2,0-0.3,0.1-0.5,0.1
		c-0.1,0-0.3,0.1-0.4,0.2s-0.2,0.2-0.3,0.3c-0.1,0.1-0.1,0.3-0.1,0.4c0,0.3,0.1,0.6,0.3,0.7s0.5,0.2,0.8,0.2c0.2,0,0.4,0,0.6-0.1
		C15.7,9,15.9,8.9,16,8.8c0.2-0.1,0.3-0.3,0.4-0.5c0.1-0.2,0.1-0.4,0.1-0.7V6.7z"/>
	<path class="st7" d="M19.6,9.8V4.1h1V5c0.2-0.4,0.5-0.6,0.8-0.8C21.7,4.1,22.1,4,22.5,4c0.6,0,1.1,0.2,1.5,0.6
		c0.4,0.4,0.5,0.9,0.5,1.6v3.7h-1V6.4c0-0.2,0-0.3,0-0.5c0-0.2-0.1-0.3-0.2-0.5C23.3,5.2,23.1,5.1,23,5c-0.2-0.1-0.4-0.1-0.6-0.1
		c-0.2,0-0.5,0-0.7,0.1c-0.2,0.1-0.4,0.2-0.5,0.4c-0.2,0.2-0.3,0.3-0.4,0.6c-0.1,0.2-0.1,0.5-0.1,0.7v3.2H19.6z"/>
	<path class="st7" d="M30.8,8.1c0,0.3-0.1,0.5-0.2,0.7c-0.1,0.2-0.3,0.4-0.5,0.6c-0.2,0.2-0.4,0.3-0.7,0.4c-0.3,0.1-0.6,0.1-1,0.1
		c-0.6,0-1.1-0.1-1.5-0.3c-0.4-0.2-0.7-0.5-1-0.8l0.7-0.6c0.4,0.6,1,0.9,1.8,0.9c0.5,0,0.8-0.1,1-0.3c0.2-0.2,0.3-0.4,0.3-0.6
		c0-0.2,0-0.3-0.1-0.4c-0.1-0.1-0.2-0.2-0.4-0.2c-0.1-0.1-0.3-0.1-0.5-0.1c-0.2,0-0.4-0.1-0.6-0.1c-0.2-0.1-0.5-0.1-0.7-0.2
		c-0.2-0.1-0.4-0.2-0.6-0.3c-0.2-0.1-0.3-0.3-0.4-0.5c-0.1-0.2-0.2-0.4-0.2-0.7c0-0.2,0-0.5,0.1-0.7c0.1-0.2,0.2-0.4,0.4-0.5
		s0.4-0.3,0.7-0.3C27.8,4,28.1,4,28.4,4c0.5,0,1,0.1,1.3,0.3s0.7,0.5,0.9,0.8L30,5.6c-0.1-0.2-0.3-0.4-0.6-0.5
		c-0.3-0.2-0.6-0.2-1.1-0.2c-0.4,0-0.7,0.1-0.8,0.2c-0.2,0.1-0.3,0.3-0.3,0.6c0,0.1,0,0.3,0.1,0.3c0.1,0.1,0.2,0.2,0.3,0.2
		s0.3,0.1,0.4,0.2s0.3,0.1,0.5,0.1c0.3,0.1,0.6,0.1,0.8,0.2s0.5,0.2,0.7,0.3c0.2,0.1,0.4,0.3,0.5,0.5C30.7,7.6,30.8,7.8,30.8,8.1z"
		/>
	<path class="st7" d="M33.4,4.1V5c0.3-0.4,0.6-0.7,0.9-0.8C34.7,4,35,4,35.4,4c0.4,0,0.8,0.1,1.1,0.2s0.6,0.4,0.8,0.6
		s0.4,0.6,0.5,0.9c0.1,0.4,0.2,0.8,0.2,1.2c0,0.4-0.1,0.8-0.2,1.2c-0.1,0.4-0.3,0.7-0.5,1s-0.5,0.5-0.8,0.6
		c-0.3,0.2-0.7,0.2-1.1,0.2c-0.4,0-0.8-0.1-1.1-0.2c-0.3-0.2-0.7-0.4-0.9-0.8v2.9h-1V4.1H33.4z M33.4,7c0,0.3,0,0.6,0.1,0.8
		s0.2,0.5,0.4,0.7c0.2,0.2,0.4,0.3,0.6,0.5s0.5,0.2,0.8,0.2S35.8,9,36,8.9s0.4-0.3,0.6-0.5c0.1-0.2,0.3-0.4,0.3-0.7
		C37,7.5,37,7.3,37,7c0-0.3,0-0.6-0.1-0.8c-0.1-0.3-0.2-0.5-0.3-0.7C36.5,5.3,36.3,5.1,36,5c-0.2-0.1-0.5-0.2-0.8-0.2
		S34.7,4.9,34.4,5c-0.2,0.1-0.4,0.3-0.6,0.5c-0.2,0.2-0.3,0.4-0.4,0.7S33.4,6.7,33.4,7z"/>
	<path class="st7" d="M44.9,7c0,0.4-0.1,0.8-0.2,1.2c-0.1,0.4-0.3,0.7-0.6,0.9c-0.2,0.3-0.5,0.5-0.9,0.6C43,9.9,42.6,10,42.1,10
		S41.3,9.9,41,9.7c-0.3-0.2-0.6-0.4-0.9-0.6s-0.4-0.6-0.6-0.9c-0.1-0.4-0.2-0.8-0.2-1.2s0.1-0.8,0.2-1.2c0.1-0.4,0.3-0.7,0.6-1
		c0.2-0.3,0.5-0.5,0.9-0.6C41.3,4,41.7,4,42.1,4S43,4,43.3,4.2c0.3,0.2,0.6,0.4,0.9,0.6c0.2,0.3,0.4,0.6,0.6,1
		C44.9,6.1,44.9,6.5,44.9,7z M43.9,7c0-0.3,0-0.6-0.1-0.8c-0.1-0.3-0.2-0.5-0.3-0.7c-0.2-0.2-0.3-0.3-0.6-0.5s-0.5-0.2-0.8-0.2
		S41.6,4.9,41.4,5S41,5.3,40.8,5.5s-0.3,0.4-0.3,0.7c-0.1,0.3-0.1,0.5-0.1,0.8c0,0.3,0,0.6,0.1,0.8c0.1,0.3,0.2,0.5,0.3,0.7
		c0.2,0.2,0.3,0.3,0.6,0.5s0.5,0.2,0.8,0.2s0.5-0.1,0.8-0.2s0.4-0.3,0.6-0.5c0.1-0.2,0.3-0.4,0.3-0.7C43.9,7.6,43.9,7.3,43.9,7z"/>
	<path class="st7" d="M49.6,5c-0.2-0.1-0.3-0.1-0.5-0.1c-0.2,0-0.4,0-0.6,0.1c-0.2,0.1-0.3,0.2-0.5,0.4c-0.1,0.2-0.2,0.4-0.3,0.6
		s-0.1,0.5-0.1,0.8v2.9h-1V4.1h1v1c0.2-0.3,0.4-0.6,0.7-0.8c0.3-0.2,0.6-0.3,1-0.3c0.1,0,0.2,0,0.3,0c0.1,0,0.2,0,0.3,0.1L49.6,5z"
		/>
	<path class="st7" d="M54.4,9.6c-0.3,0.3-0.7,0.4-1.3,0.4c-0.3,0-0.6-0.1-0.8-0.2c-0.2-0.1-0.5-0.3-0.6-0.6
		c-0.1-0.1-0.2-0.3-0.2-0.5c0-0.2-0.1-0.4-0.1-0.7V4.9h-1.1V4.2c0.2,0,0.4-0.1,0.5-0.1s0.3-0.1,0.4-0.2c0.1-0.1,0.2-0.3,0.2-0.5
		c0.1-0.2,0.1-0.5,0.1-0.8h0.8v1.5h1.8v0.8h-1.8v3.2c0,0.7,0.3,1,0.8,1c0.2,0,0.3,0,0.5-0.1s0.3-0.1,0.4-0.2L54.4,9.6z"/>
	<path class="st7" d="M57.4,10c-0.3,0-0.6,0-0.8-0.1c-0.2-0.1-0.5-0.2-0.6-0.3s-0.3-0.3-0.4-0.5c-0.1-0.2-0.1-0.5-0.1-0.7
		c0-0.3,0.1-0.6,0.2-0.8S55.8,7,56,6.9s0.4-0.2,0.6-0.3c0.2-0.1,0.4-0.1,0.6-0.1c0.2,0,0.4-0.1,0.7-0.1c0.2,0,0.4-0.1,0.6-0.1
		c0.2-0.1,0.3-0.1,0.4-0.2c0.1-0.1,0.2-0.2,0.2-0.4c0-0.3-0.1-0.5-0.4-0.6s-0.5-0.2-0.9-0.2c-0.7,0-1.3,0.2-1.8,0.6l-0.4-0.7
		c0.3-0.2,0.7-0.4,1.1-0.5C57,4,57.4,4,57.9,4c0.3,0,0.6,0,0.9,0.1c0.3,0.1,0.5,0.2,0.7,0.3c0.2,0.2,0.3,0.3,0.5,0.6
		c0.1,0.2,0.2,0.5,0.2,0.8v2.7c0,0.4,0.1,0.6,0.4,0.6c0.1,0,0.2,0,0.3-0.1L61,9.8c-0.1,0-0.2,0.1-0.3,0.1c-0.1,0-0.2,0-0.4,0
		c-0.3,0-0.5-0.1-0.7-0.2c-0.2-0.1-0.3-0.4-0.4-0.6c-0.2,0.3-0.4,0.5-0.7,0.7C58.2,9.9,57.8,10,57.4,10z M59.1,6.7
		C59.1,6.8,59,6.9,58.8,7c-0.1,0.1-0.3,0.1-0.4,0.1S58.1,7.1,58,7.2c-0.2,0-0.3,0-0.5,0.1c-0.2,0-0.3,0.1-0.5,0.1
		c-0.1,0-0.3,0.1-0.4,0.2c-0.1,0.1-0.2,0.2-0.3,0.3c-0.1,0.1-0.1,0.3-0.1,0.4c0,0.3,0.1,0.6,0.3,0.7c0.2,0.2,0.5,0.2,0.8,0.2
		c0.2,0,0.4,0,0.6-0.1s0.4-0.2,0.5-0.3c0.2-0.1,0.3-0.3,0.4-0.5c0.1-0.2,0.1-0.4,0.1-0.7V6.7z"/>
	<path class="st7" d="M65.6,9.6c-0.3,0.3-0.7,0.4-1.3,0.4c-0.3,0-0.6-0.1-0.8-0.2c-0.2-0.1-0.5-0.3-0.6-0.6
		c-0.1-0.1-0.2-0.3-0.2-0.5c0-0.2-0.1-0.4-0.1-0.7V4.9h-1.1V4.2c0.2,0,0.4-0.1,0.5-0.1s0.3-0.1,0.4-0.2c0.1-0.1,0.2-0.3,0.2-0.5
		c0.1-0.2,0.1-0.5,0.1-0.8h0.8v1.5h1.8v0.8h-1.8v3.2c0,0.7,0.3,1,0.8,1c0.2,0,0.3,0,0.5-0.1s0.3-0.1,0.4-0.2L65.6,9.6z"/>
	<path class="st7" d="M66.8,2.5c0-0.2,0.1-0.3,0.2-0.4c0.1-0.1,0.2-0.2,0.4-0.2c0.2,0,0.3,0.1,0.4,0.2S68,2.3,68,2.5
		c0,0.2-0.1,0.3-0.2,0.4c-0.1,0.1-0.3,0.2-0.4,0.2c-0.2,0-0.3-0.1-0.4-0.2C66.9,2.8,66.8,2.6,66.8,2.5z M67,9.8V4.1h1v5.7H67z"/>
	<path class="st7" d="M75.2,7c0,0.4-0.1,0.8-0.2,1.2c-0.1,0.4-0.3,0.7-0.6,0.9c-0.2,0.3-0.5,0.5-0.9,0.6c-0.3,0.2-0.7,0.2-1.2,0.2
		s-0.8-0.1-1.2-0.2c-0.3-0.2-0.6-0.4-0.9-0.6s-0.4-0.6-0.6-0.9c-0.1-0.4-0.2-0.8-0.2-1.2s0.1-0.8,0.2-1.2c0.1-0.4,0.3-0.7,0.6-1
		c0.2-0.3,0.5-0.5,0.9-0.6C71.5,4,71.9,4,72.4,4s0.8,0.1,1.2,0.2c0.3,0.2,0.6,0.4,0.9,0.6c0.2,0.3,0.4,0.6,0.6,1
		C75.1,6.1,75.2,6.5,75.2,7z M74.2,7c0-0.3,0-0.6-0.1-0.8c-0.1-0.3-0.2-0.5-0.3-0.7c-0.2-0.2-0.3-0.3-0.6-0.5s-0.5-0.2-0.8-0.2
		S71.8,4.9,71.6,5S71.2,5.3,71,5.5s-0.3,0.4-0.3,0.7c-0.1,0.3-0.1,0.5-0.1,0.8c0,0.3,0,0.6,0.1,0.8c0.1,0.3,0.2,0.5,0.3,0.7
		c0.2,0.2,0.3,0.3,0.6,0.5s0.5,0.2,0.8,0.2s0.5-0.1,0.8-0.2s0.4-0.3,0.6-0.5C73.8,8.3,74,8.1,74,7.8C74.1,7.6,74.2,7.3,74.2,7z"/>
	<path class="st7" d="M76.8,9.8V4.1h1V5c0.2-0.4,0.5-0.6,0.8-0.8C79,4.1,79.3,4,79.7,4c0.6,0,1.1,0.2,1.5,0.6
		c0.4,0.4,0.5,0.9,0.5,1.6v3.7h-1V6.4c0-0.2,0-0.3,0-0.5c0-0.2-0.1-0.3-0.2-0.5c-0.1-0.1-0.2-0.3-0.4-0.4s-0.4-0.1-0.6-0.1
		c-0.2,0-0.5,0-0.7,0.1c-0.2,0.1-0.4,0.2-0.5,0.4c-0.2,0.2-0.3,0.3-0.4,0.6c-0.1,0.2-0.1,0.5-0.1,0.7v3.2H76.8z"/>
</g>
<g class="st6">
	<path class="st7" d="M21.1,19.2c0,0.2-0.1,0.4-0.1,0.6c-0.1,0.2-0.1,0.4-0.2,0.6c-0.1,0.2-0.2,0.4-0.3,0.6
		c-0.1,0.2-0.2,0.4-0.3,0.5l1.1,1.2h-1.2l-0.5-0.6c-0.3,0.2-0.7,0.4-1,0.6S17.6,23,17.2,23c-0.4,0-0.7,0-1-0.1
		c-0.3-0.1-0.6-0.2-0.8-0.4c-0.2-0.2-0.4-0.4-0.6-0.7c-0.1-0.3-0.2-0.6-0.2-0.9c0-0.3,0-0.6,0.1-0.8c0.1-0.2,0.2-0.4,0.4-0.6
		c0.2-0.2,0.4-0.3,0.6-0.5c0.2-0.1,0.4-0.3,0.7-0.4c-0.1-0.2-0.3-0.3-0.4-0.4c-0.1-0.1-0.2-0.3-0.3-0.4c-0.1-0.1-0.1-0.3-0.2-0.5
		c0-0.2-0.1-0.3-0.1-0.5c0-0.3,0.1-0.5,0.2-0.8c0.1-0.2,0.3-0.4,0.4-0.6c0.2-0.2,0.4-0.3,0.7-0.4s0.5-0.1,0.8-0.1
		c0.3,0,0.6,0,0.8,0.1c0.2,0.1,0.5,0.2,0.6,0.4c0.2,0.2,0.3,0.3,0.4,0.6c0.1,0.2,0.1,0.5,0.1,0.7c0,0.5-0.2,0.9-0.5,1.2
		c-0.3,0.4-0.8,0.7-1.4,1l1.8,2.2c0.1-0.1,0.2-0.3,0.3-0.4c0.1-0.2,0.2-0.3,0.2-0.5s0.1-0.3,0.1-0.5c0-0.2,0.1-0.3,0.1-0.4
		L21.1,19.2z M17.2,22.1c0.2,0,0.5,0,0.8-0.1s0.6-0.2,0.8-0.4l-2.1-2.5c-0.2,0.1-0.3,0.2-0.5,0.3c-0.2,0.1-0.3,0.2-0.4,0.3
		s-0.2,0.3-0.3,0.4s-0.1,0.3-0.1,0.5c0,0.2,0,0.4,0.1,0.6c0.1,0.2,0.2,0.3,0.4,0.5c0.2,0.1,0.3,0.2,0.6,0.3
		C16.8,22.1,17,22.1,17.2,22.1z M18.6,16.6c0-0.3-0.1-0.6-0.3-0.8s-0.5-0.2-0.8-0.2c-0.3,0-0.6,0.1-0.8,0.3
		c-0.2,0.2-0.4,0.4-0.4,0.8c0,0.3,0.1,0.6,0.3,0.8c0.2,0.2,0.4,0.5,0.6,0.7c0.2-0.1,0.3-0.2,0.5-0.3c0.2-0.1,0.3-0.2,0.5-0.3
		c0.1-0.1,0.2-0.3,0.3-0.4C18.6,17,18.6,16.8,18.6,16.6z"/>
	<path class="st7" d="M25.9,22.8V15h1v6.9h4.3v0.9H25.9z"/>
	<path class="st7" d="M37.7,20c0,0.4-0.1,0.8-0.2,1.2c-0.1,0.4-0.3,0.7-0.6,0.9c-0.2,0.3-0.5,0.5-0.9,0.6c-0.3,0.2-0.7,0.2-1.2,0.2
		s-0.8-0.1-1.2-0.2s-0.6-0.4-0.9-0.6c-0.2-0.3-0.4-0.6-0.6-0.9c-0.1-0.4-0.2-0.8-0.2-1.2s0.1-0.8,0.2-1.2c0.1-0.4,0.3-0.7,0.6-1
		c0.2-0.3,0.5-0.5,0.9-0.6C34,17,34.4,17,34.9,17s0.8,0.1,1.2,0.2c0.3,0.2,0.6,0.4,0.9,0.6c0.2,0.3,0.4,0.6,0.6,1
		C37.6,19.1,37.7,19.5,37.7,20z M36.7,20c0-0.3,0-0.6-0.1-0.8c-0.1-0.3-0.2-0.5-0.3-0.7s-0.3-0.3-0.6-0.5s-0.5-0.2-0.8-0.2
		c-0.3,0-0.5,0.1-0.8,0.2c-0.2,0.1-0.4,0.3-0.6,0.5c-0.2,0.2-0.3,0.4-0.3,0.7c-0.1,0.3-0.1,0.5-0.1,0.8c0,0.3,0,0.6,0.1,0.8
		c0.1,0.3,0.2,0.5,0.3,0.7c0.1,0.2,0.3,0.3,0.6,0.5c0.2,0.1,0.5,0.2,0.8,0.2c0.3,0,0.5-0.1,0.8-0.2s0.4-0.3,0.6-0.5
		c0.2-0.2,0.3-0.4,0.3-0.7C36.6,20.6,36.7,20.3,36.7,20z"/>
	<path class="st7" d="M43.6,22.8v-0.9c-0.3,0.4-0.6,0.7-0.9,0.8C42.3,22.9,42,23,41.6,23c-0.4,0-0.8-0.1-1.1-0.2
		c-0.3-0.2-0.6-0.4-0.8-0.6s-0.4-0.6-0.5-0.9c-0.1-0.4-0.2-0.8-0.2-1.2c0-0.4,0.1-0.8,0.2-1.2c0.1-0.4,0.3-0.7,0.5-1
		c0.2-0.3,0.5-0.5,0.8-0.6c0.3-0.2,0.7-0.2,1.1-0.2c0.4,0,0.8,0.1,1.1,0.2s0.7,0.4,0.9,0.8V15h1v7.9H43.6z M43.6,20
		c0-0.3,0-0.6-0.1-0.8s-0.2-0.5-0.4-0.7c-0.2-0.2-0.4-0.3-0.6-0.5c-0.2-0.1-0.5-0.2-0.8-0.2S41.2,17.9,41,18
		c-0.2,0.1-0.4,0.3-0.6,0.5c-0.2,0.2-0.3,0.4-0.3,0.7S40,19.7,40,20c0,0.3,0,0.6,0.1,0.8c0.1,0.3,0.2,0.5,0.3,0.7
		c0.1,0.2,0.3,0.3,0.6,0.5c0.2,0.1,0.5,0.2,0.8,0.2s0.6-0.1,0.8-0.2s0.4-0.3,0.6-0.5c0.2-0.2,0.3-0.4,0.4-0.7S43.6,20.3,43.6,20z"/>
	<path class="st7" d="M51.9,21.9c0,0.4,0,0.8-0.1,1.1c-0.1,0.3-0.2,0.7-0.5,0.9c-0.1,0.2-0.3,0.3-0.5,0.4c-0.2,0.1-0.4,0.2-0.6,0.3
		c-0.2,0.1-0.4,0.1-0.6,0.2c-0.2,0-0.4,0-0.7,0c-0.9,0-1.7-0.2-2.3-0.7l0.5-0.8c0.2,0.2,0.5,0.3,0.8,0.4s0.6,0.2,1,0.2
		c0.3,0,0.5,0,0.8-0.1c0.2-0.1,0.5-0.2,0.6-0.3s0.3-0.3,0.4-0.6s0.2-0.5,0.2-0.9v-0.6c-0.2,0.3-0.5,0.6-0.8,0.8
		c-0.3,0.2-0.8,0.3-1.2,0.3c-0.4,0-0.7-0.1-1.1-0.2c-0.3-0.1-0.6-0.3-0.8-0.6c-0.2-0.3-0.4-0.6-0.5-0.9c-0.1-0.3-0.2-0.7-0.2-1.1
		c0-0.4,0.1-0.8,0.2-1.1s0.3-0.6,0.5-0.9s0.5-0.5,0.8-0.6c0.3-0.1,0.7-0.2,1.1-0.2s0.8,0.1,1.1,0.2s0.7,0.4,0.9,0.8v-0.9h1V21.9z
		 M50.9,19.8c0-0.3,0-0.5-0.1-0.7s-0.2-0.4-0.4-0.6c-0.2-0.2-0.3-0.3-0.6-0.4c-0.2-0.1-0.5-0.2-0.8-0.2s-0.6,0.1-0.8,0.2
		c-0.2,0.1-0.4,0.2-0.6,0.4c-0.2,0.2-0.3,0.4-0.3,0.6c-0.1,0.2-0.1,0.5-0.1,0.7c0,0.3,0,0.5,0.1,0.7c0.1,0.2,0.2,0.4,0.3,0.6
		c0.1,0.2,0.3,0.3,0.6,0.4c0.2,0.1,0.5,0.2,0.8,0.2c0.3,0,0.6-0.1,0.8-0.2s0.4-0.3,0.6-0.4c0.2-0.2,0.3-0.4,0.4-0.6
		S50.9,20,50.9,19.8z"/>
	<path class="st7" d="M53.8,15.5c0-0.2,0.1-0.3,0.2-0.4c0.1-0.1,0.2-0.2,0.4-0.2c0.2,0,0.3,0.1,0.4,0.2s0.2,0.3,0.2,0.4
		c0,0.2-0.1,0.3-0.2,0.4c-0.1,0.1-0.3,0.2-0.4,0.2c-0.2,0-0.3-0.1-0.4-0.2C53.8,15.8,53.8,15.6,53.8,15.5z M53.9,22.8v-5.7h1v5.7
		H53.9z"/>
	<path class="st7" d="M56.9,22.8v-5.7h1V18c0.2-0.4,0.5-0.6,0.8-0.8c0.3-0.2,0.7-0.3,1.1-0.3c0.6,0,1.1,0.2,1.5,0.6
		c0.4,0.4,0.5,0.9,0.5,1.6v3.7h-1v-3.5c0-0.2,0-0.3,0-0.5c0-0.2-0.1-0.3-0.2-0.5c-0.1-0.1-0.2-0.3-0.4-0.4s-0.4-0.1-0.6-0.1
		c-0.2,0-0.5,0-0.7,0.1c-0.2,0.1-0.4,0.2-0.5,0.4c-0.2,0.2-0.3,0.3-0.4,0.6c-0.1,0.2-0.1,0.5-0.1,0.7v3.2H56.9z"/>
	<path class="st7" d="M69,21.9c0,0.4,0,0.8-0.1,1.1c-0.1,0.3-0.2,0.7-0.5,0.9c-0.1,0.2-0.3,0.3-0.5,0.4c-0.2,0.1-0.4,0.2-0.6,0.3
		c-0.2,0.1-0.4,0.1-0.6,0.2c-0.2,0-0.5,0-0.7,0c-0.9,0-1.7-0.2-2.3-0.7l0.5-0.8c0.2,0.2,0.5,0.3,0.8,0.4c0.3,0.1,0.6,0.2,1,0.2
		c0.3,0,0.5,0,0.8-0.1c0.2-0.1,0.5-0.2,0.6-0.3s0.3-0.3,0.4-0.6s0.2-0.5,0.2-0.9v-0.6c-0.2,0.3-0.5,0.6-0.8,0.8
		c-0.3,0.2-0.8,0.3-1.2,0.3c-0.4,0-0.7-0.1-1.1-0.2c-0.3-0.1-0.6-0.3-0.8-0.6c-0.2-0.3-0.4-0.6-0.5-0.9c-0.1-0.3-0.2-0.7-0.2-1.1
		c0-0.4,0.1-0.8,0.2-1.1s0.3-0.6,0.5-0.9c0.2-0.3,0.5-0.5,0.8-0.6c0.3-0.1,0.7-0.2,1.1-0.2c0.4,0,0.8,0.1,1.1,0.2s0.7,0.4,0.9,0.8
		v-0.9h1V21.9z M68.1,19.8c0-0.3,0-0.5-0.1-0.7s-0.2-0.4-0.4-0.6c-0.2-0.2-0.3-0.3-0.6-0.4c-0.2-0.1-0.5-0.2-0.8-0.2
		c-0.3,0-0.6,0.1-0.8,0.2c-0.2,0.1-0.4,0.2-0.6,0.4c-0.2,0.2-0.3,0.4-0.3,0.6s-0.1,0.5-0.1,0.7c0,0.3,0,0.5,0.1,0.7s0.2,0.4,0.3,0.6
		c0.2,0.2,0.3,0.3,0.6,0.4c0.2,0.1,0.5,0.2,0.8,0.2s0.6-0.1,0.8-0.2c0.2-0.1,0.4-0.3,0.6-0.4c0.2-0.2,0.3-0.4,0.4-0.6
		S68.1,20,68.1,19.8z"/>
</g>
</svg>
