<?xml version="1.0" encoding="utf-8"?>
<!-- Generator: Adobe Illustrator 19.2.1, SVG Export Plug-In . SVG Version: 6.00 Build 0)  -->
<svg version="1.1" id="Layer_1" xmlns="http://www.w3.org/2000/svg" xmlns:xlink="http://www.w3.org/1999/xlink" x="0px" y="0px"
	 viewBox="0 0 78 51.3" style="enable-background:new 0 0 78 51.3;" xml:space="preserve">
<style type="text/css">
	.st0{enable-background:new    ;}
	.st1{fill:#1096D4;}
	.st2{fill:#1967B0;}
</style>
<g class="st0">
	<path class="st1" d="M26.4,0.7l-2.8,7.9h-1.1l-2.8-7.9h1.1L23,7.4l2.3-6.6H26.4z"/>
	<path class="st1" d="M26.8,5.7c0-0.4,0.1-0.8,0.2-1.2c0.1-0.4,0.3-0.7,0.5-1c0.2-0.3,0.5-0.5,0.9-0.6c0.3-0.2,0.7-0.2,1.2-0.2
		c0.4,0,0.8,0.1,1.1,0.2c0.3,0.1,0.6,0.3,0.9,0.6c0.2,0.2,0.4,0.5,0.5,0.9c0.1,0.3,0.2,0.7,0.2,1.1c0,0.1,0,0.2,0,0.3
		c0,0.1,0,0.1,0,0.2h-4.4c0,0.3,0.1,0.6,0.2,0.8c0.1,0.2,0.2,0.4,0.4,0.6c0.2,0.2,0.4,0.3,0.6,0.4c0.2,0.1,0.5,0.1,0.8,0.1
		c0.4,0,0.7-0.1,1-0.2c0.3-0.1,0.5-0.3,0.7-0.6l0.7,0.5c-0.1,0.2-0.3,0.3-0.4,0.4c-0.2,0.1-0.3,0.3-0.5,0.4
		c-0.2,0.1-0.4,0.2-0.7,0.3c-0.2,0.1-0.5,0.1-0.8,0.1c-0.5,0-0.9-0.1-1.2-0.2s-0.7-0.4-0.9-0.6c-0.2-0.3-0.4-0.6-0.6-0.9
		C26.9,6.6,26.8,6.2,26.8,5.7z M31.3,5.2c0-0.3-0.1-0.5-0.2-0.7C31.1,4.3,31,4.1,30.8,4c-0.2-0.1-0.3-0.2-0.5-0.3
		c-0.2-0.1-0.4-0.1-0.6-0.1c-0.2,0-0.5,0-0.7,0.1c-0.2,0.1-0.4,0.2-0.5,0.3S28.1,4.4,28,4.6C28,4.8,27.9,5,27.9,5.2H31.3z"/>
	<path class="st1" d="M33.9,8.6V0.7h1v3.1c0.2-0.4,0.5-0.6,0.8-0.8c0.3-0.2,0.7-0.3,1.1-0.3c0.6,0,1.1,0.2,1.5,0.6
		c0.4,0.4,0.5,0.9,0.5,1.6v3.7h-1V5.1c0-0.2,0-0.3,0-0.5c0-0.2-0.1-0.3-0.2-0.5c-0.1-0.1-0.2-0.3-0.4-0.4c-0.2-0.1-0.4-0.1-0.6-0.1
		c-0.2,0-0.5,0-0.7,0.1c-0.2,0.1-0.4,0.2-0.5,0.4c-0.2,0.2-0.3,0.3-0.4,0.6c-0.1,0.2-0.1,0.5-0.1,0.7v3.2H33.9z"/>
	<path class="st1" d="M40.7,1.2c0-0.2,0.1-0.3,0.2-0.4c0.1-0.1,0.2-0.2,0.4-0.2c0.2,0,0.3,0.1,0.4,0.2s0.2,0.3,0.2,0.4
		c0,0.2-0.1,0.3-0.2,0.4c-0.1,0.1-0.3,0.2-0.4,0.2c-0.2,0-0.3-0.1-0.4-0.2C40.8,1.5,40.7,1.4,40.7,1.2z M40.8,8.6V2.9h1v5.7H40.8z"
		/>
	<path class="st1" d="M46.2,2.7c0.5,0,1,0.1,1.4,0.3s0.7,0.5,0.9,0.8l-0.7,0.5c-0.2-0.3-0.4-0.5-0.6-0.6c-0.2-0.1-0.5-0.2-0.9-0.2
		c-0.3,0-0.5,0.1-0.7,0.2c-0.2,0.1-0.4,0.3-0.6,0.4c-0.2,0.2-0.3,0.4-0.4,0.7c-0.1,0.3-0.1,0.5-0.1,0.9c0,0.3,0,0.6,0.1,0.9
		c0.1,0.3,0.2,0.5,0.4,0.7c0.2,0.2,0.3,0.3,0.6,0.4c0.2,0.1,0.5,0.2,0.8,0.2c0.4,0,0.7-0.1,0.9-0.3c0.3-0.2,0.5-0.4,0.6-0.6l0.7,0.5
		c-0.3,0.3-0.6,0.6-1,0.9c-0.4,0.2-0.8,0.3-1.4,0.3c-0.4,0-0.8-0.1-1.1-0.2s-0.6-0.4-0.9-0.6c-0.2-0.3-0.4-0.6-0.6-1
		c-0.1-0.4-0.2-0.8-0.2-1.2c0-0.4,0.1-0.8,0.2-1.2c0.1-0.4,0.3-0.7,0.6-1c0.2-0.3,0.5-0.5,0.9-0.6C45.4,2.8,45.8,2.7,46.2,2.7z"/>
	<path class="st1" d="M50,8.6V0.7h1v7.9H50z"/>
	<path class="st1" d="M52.6,5.7c0-0.4,0.1-0.8,0.2-1.2c0.1-0.4,0.3-0.7,0.5-1c0.2-0.3,0.5-0.5,0.9-0.6c0.3-0.2,0.7-0.2,1.2-0.2
		c0.4,0,0.8,0.1,1.1,0.2c0.3,0.1,0.6,0.3,0.9,0.6c0.2,0.2,0.4,0.5,0.5,0.9c0.1,0.3,0.2,0.7,0.2,1.1c0,0.1,0,0.2,0,0.3
		c0,0.1,0,0.1,0,0.2h-4.4c0,0.3,0.1,0.6,0.2,0.8C53.9,7,54,7.2,54.2,7.3s0.4,0.3,0.6,0.4c0.2,0.1,0.5,0.1,0.8,0.1
		c0.4,0,0.7-0.1,1-0.2s0.5-0.3,0.7-0.6L58,7.6c-0.1,0.2-0.3,0.3-0.4,0.4c-0.2,0.1-0.3,0.3-0.5,0.4c-0.2,0.1-0.4,0.2-0.7,0.3
		c-0.2,0.1-0.5,0.1-0.8,0.1c-0.5,0-0.9-0.1-1.2-0.2c-0.4-0.2-0.7-0.4-0.9-0.6c-0.2-0.3-0.4-0.6-0.6-0.9C52.7,6.6,52.6,6.2,52.6,5.7z
		 M57.1,5.2c0-0.3-0.1-0.5-0.2-0.7c-0.1-0.2-0.2-0.4-0.4-0.5c-0.2-0.1-0.3-0.2-0.5-0.3c-0.2-0.1-0.4-0.1-0.6-0.1
		c-0.2,0-0.5,0-0.7,0.1c-0.2,0.1-0.4,0.2-0.5,0.3s-0.3,0.3-0.4,0.5c-0.1,0.2-0.1,0.4-0.2,0.7H57.1z"/>
</g>
<g class="st0">
	<path class="st1" d="M27.2,21.6v-3.7H23v3.7h-1v-7.9h1V17h4.2v-3.2h1v7.9H27.2z"/>
	<path class="st1" d="M30,18.7c0-0.4,0.1-0.8,0.2-1.2c0.1-0.4,0.3-0.7,0.5-1c0.2-0.3,0.5-0.5,0.9-0.6s0.7-0.2,1.2-0.2
		c0.4,0,0.8,0.1,1.1,0.2c0.3,0.1,0.6,0.3,0.9,0.6s0.4,0.5,0.5,0.9s0.2,0.7,0.2,1.1c0,0.1,0,0.2,0,0.3c0,0.1,0,0.1,0,0.2H31
		c0,0.3,0.1,0.6,0.2,0.8c0.1,0.2,0.2,0.4,0.4,0.6c0.2,0.2,0.4,0.3,0.6,0.4c0.2,0.1,0.5,0.1,0.8,0.1c0.4,0,0.7-0.1,1-0.2
		c0.3-0.1,0.5-0.3,0.7-0.6l0.7,0.5c-0.1,0.2-0.3,0.3-0.4,0.4c-0.2,0.1-0.3,0.3-0.5,0.4c-0.2,0.1-0.4,0.2-0.7,0.3
		c-0.2,0.1-0.5,0.1-0.8,0.1c-0.5,0-0.9-0.1-1.2-0.2c-0.4-0.2-0.7-0.4-0.9-0.6c-0.2-0.3-0.4-0.6-0.6-0.9C30.1,19.6,30,19.2,30,18.7z
		 M34.5,18.2c0-0.3-0.1-0.5-0.2-0.7c-0.1-0.2-0.2-0.4-0.4-0.5c-0.2-0.1-0.3-0.2-0.5-0.3c-0.2-0.1-0.4-0.1-0.6-0.1
		c-0.2,0-0.5,0-0.7,0.1c-0.2,0.1-0.4,0.2-0.5,0.3s-0.3,0.3-0.4,0.5c-0.1,0.2-0.1,0.4-0.2,0.7H34.5z"/>
	<path class="st1" d="M38.7,21.7c-0.3,0-0.6,0-0.8-0.1c-0.2-0.1-0.5-0.2-0.6-0.3c-0.2-0.2-0.3-0.3-0.4-0.5c-0.1-0.2-0.1-0.5-0.1-0.7
		c0-0.3,0.1-0.6,0.2-0.8s0.3-0.4,0.5-0.5c0.2-0.1,0.4-0.2,0.6-0.3c0.2-0.1,0.4-0.1,0.6-0.1c0.2,0,0.4-0.1,0.7-0.1
		c0.2,0,0.4-0.1,0.6-0.1s0.3-0.1,0.4-0.2c0.1-0.1,0.2-0.2,0.2-0.4c0-0.3-0.1-0.5-0.4-0.6s-0.5-0.2-0.9-0.2c-0.7,0-1.3,0.2-1.8,0.6
		L37,16.5c0.3-0.2,0.7-0.4,1.1-0.5c0.4-0.1,0.8-0.2,1.2-0.2c0.3,0,0.6,0,0.9,0.1c0.3,0.1,0.5,0.2,0.7,0.3s0.3,0.3,0.5,0.6
		c0.1,0.2,0.2,0.5,0.2,0.8v2.7c0,0.4,0.1,0.6,0.4,0.6c0.1,0,0.2,0,0.3-0.1l0.1,0.7c-0.1,0-0.2,0.1-0.3,0.1c-0.1,0-0.2,0-0.4,0
		c-0.3,0-0.5-0.1-0.7-0.2c-0.2-0.1-0.3-0.4-0.4-0.6c-0.2,0.3-0.4,0.5-0.7,0.7C39.5,21.6,39.2,21.7,38.7,21.7z M40.5,18.5
		c-0.1,0.1-0.2,0.2-0.3,0.2c-0.1,0.1-0.3,0.1-0.4,0.1s-0.3,0.1-0.5,0.1c-0.2,0-0.3,0-0.5,0.1c-0.2,0-0.3,0.1-0.5,0.1
		c-0.1,0-0.3,0.1-0.4,0.2s-0.2,0.2-0.3,0.3c-0.1,0.1-0.1,0.3-0.1,0.4c0,0.3,0.1,0.6,0.3,0.7c0.2,0.2,0.5,0.2,0.8,0.2
		c0.2,0,0.4,0,0.6-0.1c0.2-0.1,0.4-0.2,0.5-0.3c0.2-0.1,0.3-0.3,0.4-0.5c0.1-0.2,0.1-0.4,0.1-0.7V18.5z"/>
	<path class="st1" d="M43.6,21.6v-7.9h1v7.9H43.6z"/>
	<path class="st1" d="M50,21.3c-0.3,0.3-0.7,0.4-1.3,0.4c-0.3,0-0.6-0.1-0.8-0.2c-0.2-0.1-0.5-0.3-0.6-0.6c-0.1-0.1-0.2-0.3-0.2-0.5
		c0-0.2-0.1-0.4-0.1-0.7v-3.2H46V16c0.2,0,0.4-0.1,0.5-0.1c0.1,0,0.3-0.1,0.4-0.2c0.1-0.1,0.2-0.3,0.2-0.5c0.1-0.2,0.1-0.5,0.1-0.8
		H48v1.5h1.8v0.8H48v3.2c0,0.7,0.3,1,0.8,1c0.2,0,0.3,0,0.5-0.1s0.3-0.1,0.4-0.2L50,21.3z"/>
	<path class="st1" d="M51.3,21.6v-7.9h1v3.1c0.2-0.4,0.5-0.6,0.8-0.8c0.3-0.2,0.7-0.3,1.1-0.3c0.6,0,1.1,0.2,1.5,0.6
		c0.4,0.4,0.5,0.9,0.5,1.6v3.7h-1v-3.5c0-0.2,0-0.3,0-0.5c0-0.2-0.1-0.3-0.2-0.5c-0.1-0.1-0.2-0.3-0.4-0.4c-0.2-0.1-0.4-0.1-0.6-0.1
		c-0.2,0-0.5,0-0.7,0.1c-0.2,0.1-0.4,0.2-0.5,0.4c-0.2,0.2-0.3,0.3-0.4,0.6c-0.1,0.2-0.1,0.5-0.1,0.7v3.2H51.3z"/>
</g>
<g id="Page-1_4_" transform="translate(292.000000, 480.000000)">
	<path id="Fill-1_13_" class="st2" d="M-263.9-439l6,0.2c0.2,0,0.5-0.2,0.4-0.4l-0.4-2.2c-0.1-0.3-0.2-0.4-0.4-0.4
		c0,0-1.8,0.1-3.5,0.7c-1.9,0.7-2.4,1.7-2.4,1.7C-264.2-439.2-264.1-439-263.9-439"/>
	<path id="Fill-3_4_" class="st2" d="M-250.2-438.5c0.2,0,0.3-0.1,0.2-0.3c0,0-1.8-2.2-4.3-2.7c-0.6-0.1-2-0.2-2-0.2
		c-0.2,0-0.5,0.2-0.4,0.4l0.4,2.2c0,0.2,0.2,0.5,0.4,0.5L-250.2-438.5z"/>
	<g id="Group-7_1_" transform="translate(0.000000, 0.102200)">
		<path id="Fill-5_4_" class="st2" d="M-241.6-441.4l-3.3-3.3l1.2-1.2l1.5,1.5c0.2,0.2,0.4,0.2,0.6,0.2s0.4-0.1,0.6-0.2l4.9-4.9
			l1.2,1.2L-241.6-441.4z M-240.8-439.1c-0.7-0.2-1.5-0.4-2.2-0.6c-0.6-0.1-1.1-0.2-1.7-0.3c-1.3-0.9-2.1-2.4-2.1-4.1
			c0-2.8,2.3-5.1,5.1-5.1c1,0,2.1,0.3,2.9,0.9l-2.8,2.8l-1.5-1.5c-0.2-0.1-0.4-0.2-0.6-0.2c-0.2,0-0.4,0.1-0.6,0.2l-1.6,1.6
			c-0.3,0.3-0.3,0.9,0,1.2l3.7,3.7c0.2,0.2,0.4,0.2,0.6,0.2c0.2,0,0.4-0.1,0.6-0.2l4.3-4.3c0,0.2,0,0.4,0,0.6
			C-236.6-441.6-238.4-439.5-240.8-439.1L-240.8-439.1z M-239.5-433.1c-0.2,0.2-1.2,0.4-2.2,0.5c-0.1-1.5-1.4-2.6-2.9-2.6
			c-1.5,0-2.7,1.1-2.9,2.6h-14.7c-0.1-1.5-1.4-2.6-2.9-2.6c-1.5,0-2.7,1.1-2.9,2.5c-2.4-0.1-2.6-0.8-2.8-1.3
			c-0.1-0.4-0.1-0.9-0.1-1.1l0.5-0.7l0-0.2c0,0,0-0.5,0-1.1c0.2,0,0.4,0,0.6-0.1c0.6-0.2,0.8-0.6,0.5-1c-0.2-0.2-0.6-0.4-1.1-0.4
			c0-0.1,0-0.2,0-0.2c0-0.3,0.4-0.5,1.1-0.6l0.3-0.1c1-0.2,1.9-0.3,3.1-1.2c2.4-1.7,4.9-2.5,7.7-2.6c3.9-0.1,5.3,0.6,6.2,1.2
			c1.1,0.6,4,2.7,4,2.7l0.1,0.1l0.2,0c0,0,2.3,0.1,4.3,0.6c1.7,0.4,2.7,0.7,3.2,1c-0.5,0.1-0.7,0.4-0.5,0.8c0.2,0.4,0.8,0.7,1.3,0.7
			C-238.9-435-239-433.8-239.5-433.1L-239.5-433.1z M-244.6-430.6c-0.9,0-1.7-0.8-1.7-1.7s0.8-1.7,1.7-1.7s1.7,0.8,1.7,1.7
			S-243.6-430.6-244.6-430.6L-244.6-430.6z M-265-430.7c-0.9,0-1.6-0.7-1.6-1.6c0-0.9,0.7-1.6,1.6-1.6c0.9,0,1.6,0.7,1.6,1.6
			C-263.4-431.4-264.1-430.7-265-430.7L-265-430.7z M-233.7-448.1c0-0.2-0.1-0.4-0.2-0.6l-1.6-1.6c-0.2-0.2-0.4-0.2-0.6-0.2
			s-0.4,0.1-0.6,0.2l-1.3,1.3c-1.1-0.8-2.4-1.2-3.7-1.2c-3.4,0-6.2,2.8-6.2,6.2c0,1.5,0.5,2.8,1.4,3.9c-0.3,0-0.6,0-0.7-0.1
			c-0.6-0.4-3-2.2-4-2.7c-1.1-0.6-2.6-1.4-6.8-1.3c-3,0.1-5.7,1-8.3,2.8c-1,0.7-1.7,0.8-2.7,1l-0.3,0.1c-1.6,0.3-2,1.1-2,1.7
			c0,0.5-0.1,2-0.1,2.5l-0.4,0.6l0,0.1c0,0.1-0.2,1,0.1,1.8c0.5,1.4,1.6,2,3.9,2c0.3,1.3,1.4,2.2,2.8,2.2c1.3,0,2.4-0.9,2.8-2.1
			h14.9c0.4,1.2,1.5,2.1,2.8,2.1c1.3,0,2.4-0.9,2.8-2.1c1.1,0,2.7-0.2,3.3-1c0.9-1.3,0.8-3.8-0.1-5.5c-0.1-0.2-0.3-0.4-0.6-0.5
			c2.2-1,3.7-3.1,3.7-5.6c0-0.5-0.1-1.1-0.2-1.6l1.8-1.8C-233.7-447.6-233.7-447.8-233.7-448.1L-233.7-448.1z"/>
	</g>
</g>
</svg>
