<?xml version="1.0" encoding="UTF-8" standalone="no"?>
<svg width="44px" height="29px" viewBox="0 0 44 29" version="1.1" xmlns="http://www.w3.org/2000/svg" xmlns:xlink="http://www.w3.org/1999/xlink">
    <!-- Generator: Sketch 41.1 (35376) - http://www.bohemiancoding.com/sketch -->
    <title>amex</title>
    <desc>Created with Sketch.</desc>
    <defs></defs>
    <g id="Responsive" stroke="none" stroke-width="1" fill="none" fill-rule="evenodd">
        <g id="Checkout-Guest" transform="translate(-197.000000, -626.000000)">
            <g id="amex" transform="translate(197.000000, 626.000000)">
                <g id="Rectangle-11-+-AMEX-2">
                    <rect id="Rectangle-11" fill="#5EC1EC" x="0" y="0" width="44" height="28.16" rx="4"></rect>
                    <path d="M13.5975922,18.5814063 L11.776882,18.5814063 L11.0531214,16.5824977 L7.73965506,16.5824977 L7.05547514,18.5814063 L5.28,18.5814063 L8.50865066,9.78140625 L10.2784714,9.78140625 L13.5975922,18.5814063 Z M10.5159554,15.0998237 L9.37377071,11.8343394 L8.25420358,15.0998237 L10.5159554,15.0998237 Z M14.4627122,18.5814063 L14.4627122,9.78140625 L16.9676023,9.78140625 L18.4716672,15.7841348 L19.958769,9.78140625 L22.4693135,9.78140625 L22.4693135,18.5814063 L20.9143591,18.5814063 L20.9143591,11.6542575 L19.2689347,18.5814063 L17.6574366,18.5814063 L16.0176666,11.6542575 L16.0176666,18.5814063 L14.4627122,18.5814063 Z M24.131701,18.5814063 L24.131701,9.78140625 L30.2780115,9.78140625 L30.2780115,11.2700829 L25.8053974,11.2700829 L25.8053974,13.2209697 L29.9670206,13.2209697 L29.9670206,14.7036436 L25.8053974,14.7036436 L25.8053974,17.0987323 L30.4363341,17.0987323 L30.4363341,18.5814063 L24.131701,18.5814063 Z M31.0130808,18.5814063 L33.8459249,13.9893189 L31.2788367,9.78140625 L33.2352519,9.78140625 L34.8976395,12.6086914 L36.5261008,9.78140625 L38.4655529,9.78140625 L35.8871559,14.055349 L38.72,18.5814063 L36.7013865,18.5814063 L34.8637132,15.5380229 L33.0203855,18.5814063 L31.0130808,18.5814063 Z" id="AMEX" fill="#FFFFFF"></path>
                </g>
            </g>
        </g>
    </g>
</svg>