<?xml version="1.0" encoding="UTF-8" standalone="no"?>
<svg width="30px" height="30px" viewBox="0 0 30 30" version="1.1" xmlns="http://www.w3.org/2000/svg" xmlns:xlink="http://www.w3.org/1999/xlink">
    <!-- Generator: Sketch 41.1 (35376) - http://www.bohemiancoding.com/sketch -->
    <title>avatar</title>
    <desc>Created with Sketch.</desc>
    <defs></defs>
    <g id="Responsive" stroke="none" stroke-width="1" fill="none" fill-rule="evenodd">
        <g id="Premium-Member-Landing-3" transform="translate(-92.000000, -355.000000)" fill="#008ECD">
            <g id="Group-9" transform="translate(7.000000, 343.000000)">
                <g id="avatar" transform="translate(85.000000, 12.000000)">
                    <path d="M19.5762,11.7934 C19.5762,11.4034 19.5222,11.0264 19.4302,10.6644 C18.7792,10.6384 17.4102,10.5054 16.0262,9.9094 C15.6642,10.1154 15.2572,10.3284 14.7852,10.5434 C13.0432,11.3394 11.2862,11.5374 10.3802,11.5854 C10.3762,11.6544 10.3692,11.7234 10.3692,11.7934 C10.3692,14.3314 12.4342,16.3964 14.9722,16.3964 C17.5112,16.3964 19.5762,14.3314 19.5762,11.7934" id="Fill-1"></path>
                    <path d="M14.9556,0.0001 C6.7086,0.0001 -0.0004,6.7091 -0.0004,14.9551 C-0.0004,20.0661 2.5806,24.5831 6.5036,27.2811 L6.5036,23.7921 C6.5036,20.9331 7.5726,17.6191 12.1536,16.6711 C10.4696,15.6941 9.3326,13.8761 9.3326,11.7931 C9.3326,8.6841 11.8626,6.1531 14.9726,6.1531 C18.0826,6.1531 20.6126,8.6841 20.6126,11.7931 C20.6126,13.8761 19.4756,15.6941 17.7916,16.6711 C22.3716,17.6191 23.4406,20.9331 23.4406,23.7921 L23.4406,27.2561 C27.3446,24.5551 29.9106,20.0511 29.9106,14.9551 C29.9106,6.7091 23.2016,0.0001 14.9556,0.0001 Z" id="Fill-3"></path>
                    <path d="M22.4039,23.7918 C22.4039,19.5138 19.9729,17.4328 14.9719,17.4328 C9.9719,17.4328 7.5399,19.5138 7.5399,23.7918 L7.5399,27.9248 C9.7289,29.1818 12.2559,29.9108 14.9549,29.9108 C17.6679,29.9108 20.2079,29.1728 22.4039,27.9048 L22.4039,23.7918 Z" id="Fill-6"></path>
                </g>
            </g>
        </g>
    </g>
</svg>