<?xml version="1.0" encoding="UTF-8" standalone="no"?>
<svg width="30px" height="30px" viewBox="0 0 30 30" version="1.1" xmlns="http://www.w3.org/2000/svg" xmlns:xlink="http://www.w3.org/1999/xlink">
    <!-- Generator: Sketch 41.1 (35376) - http://www.bohemiancoding.com/sketch -->
    <title>icn_eta</title>
    <desc>Created with Sketch.</desc>
    <defs></defs>
    <g id="Responsive" stroke="none" stroke-width="1" fill="none" fill-rule="evenodd">
        <g id="Ok-Got-It-Guest" transform="translate(-23.000000, -484.000000)">
            <g id="icn_eta" transform="translate(23.000000, 484.000000)">
                <path d="M15.0051935,29.4256929 C6.71808755,29.4256929 -1.59370488e-05,22.8385719 -1.59370488e-05,14.7128464 C-1.59370488e-05,6.587121 6.71808755,0 15.0051935,0 C23.2922994,0 30.0102435,6.587121 30.0102435,14.7128464 C30.0102435,22.8385719 23.2922994,29.4256929 15.0051935,29.4256929 Z" id="Fill-1" fill="#7B8E9B"></path>
                <path d="M14.8448695,5.68940534 C9.80653095,5.68940534 5.70768141,9.70859145 5.70768141,14.6486587 C5.70768141,19.5891948 9.80653095,23.6083809 14.8448695,23.6083809 C19.8835268,23.6083809 23.9823764,19.5891948 23.9823764,14.6486587 C23.9823764,9.70859145 19.8835268,5.68940534 14.8448695,5.68940534 M14.8448695,24.2278231 C9.45830644,24.2278231 5.07577743,19.9307944 5.07577743,14.6486587 C5.07577743,9.36699188 9.45830644,5.06996312 14.8448695,5.06996312 C20.2317513,5.06996312 24.6142803,9.36699188 24.6142803,14.6486587 C24.6142803,19.9307944 20.2317513,24.2278231 14.8448695,24.2278231" id="Fill-4" fill="#FEFEFE"></path>
                <path d="M15.9793643,14.6488306 C15.9793643,15.263116 15.4714505,15.7611388 14.8449651,15.7611388 C14.2184798,15.7611388 13.710566,15.263116 13.710566,14.6488306 C13.710566,14.0345452 14.2184798,13.5365224 14.8449651,13.5365224 C15.4714505,13.5365224 15.9793643,14.0345452 15.9793643,14.6488306" id="Fill-6" fill="#FEFEFE"></path>
                <path d="M15.2873617,14.2150648 L14.5078806,14.9793665 C14.4355264,15.0503117 14.3172735,15.0503117 14.2449193,14.9793665 L10.3234491,11.1342618 C10.2512543,11.0633166 10.2512543,10.9473665 10.3234491,10.8764213 L11.1029302,10.1121196 C11.1752844,10.0411744 11.2935373,10.0411744 11.3658915,10.1121196 L15.2873617,13.9572243 C15.3597159,14.0281695 15.3597159,14.1441196 15.2873617,14.2150648" id="Fill-8" fill="#FEFEFE"></path>
                <path d="M17.8052719,11.1045085 L18.584753,11.8688102 C18.6571072,11.9397554 18.6571072,12.0557055 18.584753,12.1266507 L14.9707085,15.6701602 C14.8983543,15.7411054 14.7801013,15.7411054 14.7077471,15.6701602 L13.9282661,14.9060148 C13.8560713,14.8350696 13.8560713,14.7189632 13.9282661,14.6481743 L17.5423106,11.1045085 C17.6146648,11.0335633 17.7329177,11.0335633 17.8052719,11.1045085" id="Fill-10" fill="#FEFEFE"></path>
                <path d="M15.1962177,8.2216176 L14.6253526,8.2216176 C14.5724416,8.2216176 14.5290928,8.17911299 14.5290928,8.12723236 L14.5290928,6.40595184 C14.5290928,6.35407121 14.5724416,6.3115666 14.6253526,6.3115666 L15.1962177,6.3115666 C15.2491287,6.3115666 15.2924775,6.35407121 15.2924775,6.40595184 L15.2924775,8.12723236 C15.2924775,8.17911299 15.2491287,8.2216176 15.1962177,8.2216176" id="Fill-12" fill="#FEFEFE"></path>
                <path d="M15.1962177,23.0894027 L14.6253526,23.0894027 C14.5724416,23.0894027 14.5290928,23.0468981 14.5290928,22.9950175 L14.5290928,21.273737 C14.5290928,21.2218563 14.5724416,21.1793517 14.6253526,21.1793517 L15.1962177,21.1793517 C15.2491287,21.1793517 15.2924775,21.2218563 15.2924775,21.273737 L15.2924775,22.9950175 C15.2924775,23.0468981 15.2491287,23.0894027 15.1962177,23.0894027" id="Fill-14" fill="#FEFEFE"></path>
                <path d="M8.30326884,14.4206027 L8.30326884,14.980351 C8.30326884,15.0322316 8.25992007,15.0747362 8.20700906,15.0747362 L6.45154315,15.0747362 C6.39863215,15.0747362 6.35528338,15.0322316 6.35528338,14.980351 L6.35528338,14.4206027 C6.35528338,14.3687221 6.39863215,14.3262175 6.45154315,14.3262175 L8.20700906,14.3262175 C8.25992007,14.3262175 8.30326884,14.3687221 8.30326884,14.4206027" id="Fill-16" fill="#FEFEFE"></path>
                <path d="M23.4663347,14.4206027 L23.4663347,14.980351 C23.4663347,15.0322316 23.422986,15.0747362 23.370075,15.0747362 L21.614609,15.0747362 C21.561698,15.0747362 21.5183493,15.0322316 21.5183493,14.980351 L21.5183493,14.4206027 C21.5183493,14.3687221 21.561698,14.3262175 21.614609,14.3262175 L23.370075,14.3262175 C23.422986,14.3262175 23.4663347,14.3687221 23.4663347,14.4206027" id="Fill-18" fill="#FEFEFE"></path>
                <path d="M10.0367416,19.0837962 L10.4404271,19.4796204 C10.4778791,19.5163432 10.4778791,19.5763497 10.4404271,19.6130724 L9.19909034,20.8302357 C9.16163828,20.8669585 9.10044001,20.8669585 9.06298795,20.8302357 L8.65930251,20.4344115 C8.62185044,20.3976888 8.62185044,20.3376823 8.65930251,20.3009595 L9.90063923,19.0837962 C9.93809129,19.0470735 9.99928956,19.0470735 10.0367416,19.0837962" id="Fill-20" fill="#FEFEFE"></path>
                <path d="M20.7586461,8.57068673 L21.1623315,8.96651093 C21.1997836,9.00323366 21.1997836,9.06324017 21.1623315,9.09996291 L19.9209948,10.3171262 C19.8835428,10.353849 19.8223445,10.353849 19.7848924,10.3171262 L19.381207,9.92130203 C19.3437549,9.88457929 19.3437549,9.82457278 19.381207,9.78785005 L20.6225437,8.57068673 C20.6599958,8.53396399 20.721194,8.53396399 20.7586461,8.57068673" id="Fill-22" fill="#FEFEFE"></path>
                <path d="M19.381191,19.4795892 L19.7848765,19.083765 C19.8223286,19.0470422 19.8835268,19.0470422 19.9209789,19.083765 L21.1623156,20.3009283 C21.1997677,20.337651 21.1997677,20.3976575 21.1623156,20.4343803 L20.7586302,20.8302045 C20.7211781,20.8669272 20.6599798,20.8669272 20.6225278,20.8302045 L19.381191,19.6130411 C19.343739,19.5763184 19.343739,19.5163119 19.381191,19.4795892" id="Fill-24" fill="#FEFEFE"></path>
                <path d="M8.65927063,8.96647967 L9.06295607,8.57065547 C9.10040814,8.53393274 9.1616064,8.53393274 9.19905847,8.57065547 L10.4403952,9.78781879 C10.4778473,9.82454153 10.4778473,9.88454804 10.4403952,9.92127077 L10.0367097,10.317095 C9.99925768,10.3538177 9.93805942,10.3538177 9.90060735,10.317095 L8.65927063,9.09993165 C8.62181857,9.06320892 8.62181857,9.00320241 8.65927063,8.96647967" id="Fill-26" fill="#FEFEFE"></path>
            </g>
        </g>
    </g>
</svg>