<?xml version="1.0" encoding="UTF-8" standalone="no"?>
<svg width="19px" height="20px" viewBox="0 0 19 20" version="1.1" xmlns="http://www.w3.org/2000/svg" xmlns:xlink="http://www.w3.org/1999/xlink">
    <!-- Generator: Sketch 41.1 (35376) - http://www.bohemiancoding.com/sketch -->
    <title>Fuel</title>
    <desc>Created with Sketch.</desc>
    <defs></defs>
    <g id="Responsive" stroke="none" stroke-width="1" fill="none" fill-rule="evenodd">
        <g id="Main-Guest" transform="translate(-23.000000, -370.000000)" fill="#008ECD">
            <g id="Fuel" transform="translate(23.000000, 370.000000)">
                <path d="M3.02020833,5.7665 C2.48979167,5.7665 2.0615,5.336625 2.0615,4.80779167 C2.0615,4.277375 2.48979167,3.849875 3.02020833,3.849875 L6.85504167,3.849875 C7.38308333,3.849875 7.81375,4.277375 7.81375,4.80779167 C7.81375,5.336625 7.38308333,5.7665 6.85504167,5.7665 L3.02020833,5.7665 Z M6.25179167,14.4843333 L4.15466667,16.5395 C4.07470833,16.617875 3.971,16.6566667 3.86729167,16.6566667 C3.76120833,16.6566667 3.655125,16.6155 3.574375,16.5331667 C3.41525,16.3716667 3.41841667,16.112 3.57991667,15.9536667 L5.67783333,13.8977083 C5.83933333,13.7385833 6.099,13.74175 6.258125,13.9040417 C6.41645833,14.0655417 6.41408333,14.3252083 6.25179167,14.4843333 L6.25179167,14.4843333 Z M6.258125,11.7032083 C6.177375,11.78475 6.07129167,11.8267083 5.96520833,11.8267083 C5.8615,11.8267083 5.757,11.787125 5.67783333,11.70875 L3.57991667,9.65279167 C3.41841667,9.49445833 3.41525,9.23479167 3.574375,9.0725 C3.7335,8.911 3.99395833,8.90783333 4.15466667,9.06695833 L6.25179167,11.1229167 C6.41408333,11.28125 6.41645833,11.5409167 6.258125,11.7032083 L6.258125,11.7032083 Z M8.965625,11.058 L11.077,8.989375 C11.2385,8.83025 11.497375,8.832625 11.6572917,8.99491667 C11.815625,9.15720833 11.81325,9.416875 11.6509583,9.57520833 L9.53958333,11.6438333 C9.459625,11.7222083 9.35591667,11.761 9.25220833,11.761 C9.146125,11.761 9.04004167,11.7198333 8.95929167,11.6382917 C8.80095833,11.476 8.80333333,11.2163333 8.965625,11.058 L8.965625,11.058 Z M8.95929167,13.9689583 C9.117625,13.8074583 9.37808333,13.8050833 9.53958333,13.962625 L11.6509583,16.0304583 C11.81325,16.1887917 11.815625,16.4484583 11.6572917,16.61075 C11.5765417,16.6922917 11.4704583,16.73425 11.3635833,16.73425 C11.2606667,16.73425 11.1569583,16.6954583 11.077,16.6170833 L8.965625,14.54925 C8.80333333,14.3909167 8.80095833,14.13125 8.95929167,13.9689583 L8.95929167,13.9689583 Z M18.65325,0 C18.65325,0 17.2805,0.186041667 16.6915,0.274708333 C16.1215,0.357833333 15.6995417,0.390291667 15.1675417,0.896166667 C14.7693333,1.27695833 14.285625,1.740875 13.1543333,2.87216667 L12.4742917,2.192125 C12.274,1.99104167 11.9494167,1.99104167 11.749125,2.192125 C11.5488333,2.39241667 11.5488333,2.717 11.749125,2.91729167 L11.8575833,3.02575 L10.856125,4.02720833 L9.98608333,3.156375 C9.22370833,2.39479167 7.71875,1.77254167 6.642875,1.77254167 L1.95779167,1.77254167 C0.881125,1.77254167 0,2.65208333 0,3.73033333 L0,17.42775 C0,18.5044167 0.881125,19.3863333 1.95779167,19.3863333 L13.454375,19.3863333 C14.5310417,19.3863333 15.411375,18.5044167 15.411375,17.42775 L15.411375,10.54025 C15.411375,9.46358333 14.78675,7.95941667 14.02675,7.19783333 L13.19075,6.36183333 L14.1922083,5.360375 L14.3267917,5.49495833 C14.4273333,5.5955 14.5579583,5.645375 14.689375,5.645375 C14.8207917,5.645375 14.9522083,5.5955 15.0519583,5.49495833 C15.2530417,5.29466667 15.2530417,4.97008333 15.0519583,4.76979167 L14.31175,4.02958333 C14.9997083,3.170625 15.8214583,2.05041667 15.9829583,1.862 C16.2465833,1.55483333 16.3574167,1.565125 16.689125,1.50654167 C17.60825,1.34266667 18.8195,1.128125 18.8195,1.128125 L18.65325,0 Z" id="Fill-1"></path>
            </g>
        </g>
    </g>
</svg>