<?xml version="1.0" encoding="UTF-8" standalone="no"?>
<svg width="22px" height="17px" viewBox="0 0 22 17" version="1.1" xmlns="http://www.w3.org/2000/svg" xmlns:xlink="http://www.w3.org/1999/xlink">
    <!-- Generator: Sketch 41.1 (35376) - http://www.bohemiancoding.com/sketch -->
    <title>Jump</title>
    <desc>Created with Sketch.</desc>
    <defs></defs>
    <g id="Responsive" stroke="none" stroke-width="1" fill="none" fill-rule="evenodd">
        <g id="Main-Guest" transform="translate(-270.000000, -369.000000)" fill="#008ECD">
            <g id="Jump" transform="translate(270.000000, 369.000000)">
                <path d="M20.9111692,2.0603 L17.5333231,2.0603 L17.5333231,0.512684615 C17.5333231,0.230915385 17.3023231,-8.46153846e-05 17.0214,-8.46153846e-05 L15.6303231,-8.46153846e-05 C15.3494,-8.46153846e-05 15.1184,0.230915385 15.1184,0.512684615 L15.1184,2.0603 L6.44701538,2.0603 L6.44701538,0.512684615 C6.44701538,0.230915385 6.21601538,-8.46153846e-05 5.93424615,-8.46153846e-05 L4.54401538,-8.46153846e-05 C4.26224615,-8.46153846e-05 4.03124615,0.230915385 4.03124615,0.512684615 L4.03124615,2.0603 L0.512938462,2.0603 C0.230323077,2.0603 0.000169230769,2.29045385 0.000169230769,2.57222308 L0.000169230769,3.86768462 C0.000169230769,4.14099231 0.219323077,4.36353077 0.490938462,4.37622308 L20.9323231,4.37622308 C21.2030923,4.36353077 21.4222462,4.14099231 21.4222462,3.86768462 L21.4222462,2.57222308 C21.4222462,2.29045385 21.1920923,2.0603 20.9111692,2.0603" id="Fill-1"></path>
                <path d="M3.99460769,8.53777692 L7.77437692,8.53777692 C8.01722308,8.53777692 8.21606923,8.73408462 8.21606923,8.97862308 C8.21606923,9.22146923 8.01722308,9.41946923 7.77437692,9.41946923 L3.99460769,9.41946923 C3.75176154,9.41946923 3.55376154,9.22146923 3.55376154,8.97862308 C3.55376154,8.73408462 3.75176154,8.53777692 3.99460769,8.53777692 L3.99460769,8.53777692 Z M13.8218385,8.53777692 L15.2704538,8.53777692 L15.2704538,7.08831538 C15.2704538,6.84546923 15.4676077,6.64916154 15.7113,6.64916154 C15.9541462,6.64916154 16.1529923,6.84546923 16.1529923,7.08831538 L16.1529923,8.53777692 L17.6016077,8.53777692 C17.8444538,8.53777692 18.0424538,8.73408462 18.0424538,8.97862308 C18.0424538,9.22146923 17.8444538,9.41946923 17.6016077,9.41946923 L16.1529923,9.41946923 L16.1529923,10.8680846 C16.1529923,11.1126231 15.9541462,11.3089308 15.7113,11.3089308 C15.4676077,11.3089308 15.2704538,11.1126231 15.2704538,10.8680846 L15.2704538,9.41946923 L13.8218385,9.41946923 C13.5789923,9.41946923 13.3801462,9.22146923 13.3801462,8.97862308 C13.3801462,8.73408462 13.5789923,8.53777692 13.8218385,8.53777692 L13.8218385,8.53777692 Z M1.15576154,15.9407769 C1.15576154,16.4408538 1.56445385,16.8503923 2.06453077,16.8503923 L19.2786846,16.8503923 C19.7787615,16.8503923 20.1883,16.4408538 20.1883,15.9407769 L20.1883,5.20223846 L1.15576154,5.20223846 L1.15576154,15.9407769 Z" id="Fill-4"></path>
            </g>
        </g>
    </g>
</svg>