<?xml version="1.0" encoding="UTF-8" standalone="no"?>
<svg width="29px" height="37px" viewBox="0 0 29 37" version="1.1" xmlns="http://www.w3.org/2000/svg" xmlns:xlink="http://www.w3.org/1999/xlink">
    <!-- Generator: Sketch 41.1 (35376) - http://www.bohemiancoding.com/sketch -->
    <title>login</title>
    <desc>Created with Sketch.</desc>
    <defs></defs>
    <g id="Responsive" stroke="none" stroke-width="1" fill="none" fill-rule="evenodd">
        <g id="Menu-Guest" transform="translate(-266.000000, -121.000000)">
            <g id="login" transform="translate(266.000000, 122.000000)">
                <g id="Group">
                    <g id="Page-1" transform="translate(13.500000, 11.000000) scale(-1, 1) translate(-13.500000, -11.000000) translate(4.000000, 0.000000)">
                        <path d="M9.2505,21.5707 C9.2505,21.7687 9.0885,21.9307 8.8905,21.9307 L1.9335,21.9307 C1.1415,21.9307 0.5005,21.2887 0.5005,20.4967 L0.5005,1.9337 C0.5005,1.1417 1.1415,0.4997 1.9335,0.4997 L8.8155,0.4997 C9.0135,0.4997 9.1755,0.6617 9.1755,0.8597 L9.1755,1.4367 C9.1755,1.6347 9.0135,1.7967 8.8155,1.7967 L2.2815,1.7967 C2.0135,1.7967 1.7955,2.0147 1.7955,2.2827 L1.7955,20.1487 C1.7955,20.4167 2.0135,20.6337 2.2815,20.6337 L8.8905,20.6337 C9.0885,20.6337 9.2505,20.7957 9.2505,20.9937 L9.2505,21.5707 Z" id="Fill-1" fill="#FFFFFF"></path>
                        <path d="M9.2505,21.5707 C9.2505,21.7687 9.0885,21.9307 8.8905,21.9307 L1.9335,21.9307 C1.1415,21.9307 0.5005,21.2887 0.5005,20.4967 L0.5005,1.9337 C0.5005,1.1417 1.1415,0.4997 1.9335,0.4997 L8.8155,0.4997 C9.0135,0.4997 9.1755,0.6617 9.1755,0.8597 L9.1755,1.4367 C9.1755,1.6347 9.0135,1.7967 8.8155,1.7967 L2.2815,1.7967 C2.0135,1.7967 1.7955,2.0147 1.7955,2.2827 L1.7955,20.1487 C1.7955,20.4167 2.0135,20.6337 2.2815,20.6337 L8.8905,20.6337 C9.0885,20.6337 9.2505,20.7957 9.2505,20.9937 L9.2505,21.5707 L9.2505,21.5707 Z" id="Stroke-3" stroke="#FFFFFF"></path>
                        <path d="M17.9194,10.8926 L11.7444,4.7176 C11.6694,4.6426 11.5684,4.6006 11.4604,4.5996 L11.4604,4.5996 C11.3524,4.5996 11.2514,4.6416 11.1754,4.7176 L10.8214,5.0716 C10.6654,5.2286 10.6654,5.4846 10.8214,5.6416 L15.7204,10.5386 L4.2774,10.5386 C4.0554,10.5386 3.8754,10.7206 3.8754,10.9426 L3.8754,11.4406 C3.8754,11.6626 4.0554,11.8436 4.2774,11.8436 L15.6934,11.8436 L10.7514,16.7836 C10.5954,16.9406 10.5954,17.1966 10.7514,17.3536 L11.1054,17.7066 C11.1814,17.7836 11.2824,17.8256 11.3894,17.8256 L11.3904,17.8256 C11.4984,17.8246 11.5984,17.7836 11.6744,17.7066 L17.9194,11.4626 C18.0754,11.3056 18.0754,11.0496 17.9194,10.8926" id="Fill-5" fill="#FFFFFF" transform="translate(10.955900, 11.212600) scale(-1, 1) translate(-10.955900, -11.212600) "></path>
                        <path d="M17.9194,10.8926 L11.7444,4.7176 C11.6694,4.6426 11.5684,4.6006 11.4604,4.5996 L11.4604,4.5996 C11.3524,4.5996 11.2514,4.6416 11.1754,4.7176 L10.8214,5.0716 C10.6654,5.2286 10.6654,5.4846 10.8214,5.6416 L15.7204,10.5386 L4.2774,10.5386 C4.0554,10.5386 3.8754,10.7206 3.8754,10.9426 L3.8754,11.4406 C3.8754,11.6626 4.0554,11.8436 4.2774,11.8436 L15.6934,11.8436 L10.7514,16.7836 C10.5954,16.9406 10.5954,17.1966 10.7514,17.3536 L11.1054,17.7066 C11.1814,17.7836 11.2824,17.8256 11.3894,17.8256 L11.3904,17.8256 C11.4984,17.8246 11.5984,17.7836 11.6744,17.7066 L17.9194,11.4626 C18.0754,11.3056 18.0754,11.0496 17.9194,10.8926 L17.9194,10.8926 Z" id="Stroke-7" stroke="#FFFFFF" transform="translate(10.955900, 11.212600) scale(-1, 1) translate(-10.955900, -11.212600) "></path>
                    </g>
                    <text id="LOGIN" font-family=".AppleSystemUIFont" font-size="9" font-weight="normal" letter-spacing="0.340000004" fill="#FFFFFF">
                        <tspan x="0" y="35">LOGIN</tspan>
                    </text>
                </g>
            </g>
        </g>
    </g>
</svg>