<svg id="Layer_1" data-name="Layer 1" xmlns="http://www.w3.org/2000/svg" xmlns:xlink="http://www.w3.org/1999/xlink" viewBox="0 0 184.7 46.6"><defs><mask id="mask" x="175.64" y="27.17" width="1.45" height="1.47" maskUnits="userSpaceOnUse"><g id="mask-2"><polygon id="path-1" points="177.1 28.6 177.1 27.2 175.6 27.2 175.6 28.6 177.1 28.6" fill="#fff"/></g></mask></defs><title>logoActionBar_blue</title><rect width="184.7" height="46.61" fill="#00467f"/><g id="SP-RK" style="isolation:isolate"><g style="isolation:isolate"><path d="M10.5,26.7c0.2,1.9,1.8,3.4,4.8,3.4s4.4-1.3,4.4-3.4-1.1-2.5-3.3-3.1l-3.5-.9C10.4,22.2,8,20.6,8,17.4s3.4-6,7.3-6,7.2,2,7.3,5.9h-3c-0.2-1.8-1.6-3.3-4.3-3.3s-4.1,1.2-4.1,3.2S12,19.5,14,20l3.4,0.9c3.1,0.8,5.4,2.2,5.4,5.7s-3.3,6.2-7.8,6.2-7.5-3.3-7.6-6.1h3.1Z" fill="#fff"/><path d="M35.3,11.8a6.2,6.2,0,0,1,6.7,6.5c0,3.9-2.6,6.5-6.7,6.5H30.6v7.5H27.5V11.8h7.7ZM30.6,22.3h2.9c3.3,0,5.2-.7,5.2-3.9a3.5,3.5,0,0,0-3.9-3.9H30.6v7.8Z" fill="#fff"/><path d="M81.2,18a5.8,5.8,0,0,1-3.8,5.7l4.2,8.6H78.1l-3.7-8H69.8v8H66.7V11.8h7.7C79.1,11.8,81.2,14.7,81.2,18Zm-7.3,3.7c2.7,0,4.1-1.3,4.1-3.6s-1.6-3.8-4-3.8H69.8v7.4h4.1Z" fill="#fff"/></g><g style="isolation:isolate"><path d="M94.6,20.6l7.9,11.8H98.6l-6.4-9.6-2.4,2.6v7H86.8V11.8h3.1v9.7H90l8.5-9.7h3.5Z" fill="#fff"/></g></g><path id="Fill-1" d="M56.8,11.6a0.8,0.8,0,0,1-1.6,0V7.5l-1.4-.3v4.5a0.8,0.8,0,0,1-.6.8,0.8,0.8,0,0,1-.7-0.8V7.2L51,7.5v4.2a0.8,0.8,0,0,1-1.6,0V8.3c-3.1,2-5.2,6.4-5.2,11.5s2.4,10.1,5.9,11.9c1,0.5,1,1.2,1.2,2.3L50.8,46.5h4.6L54.9,34c0.2-1.1.3-1.8,1.2-2.3,3.4-1.8,5.9-6.4,5.9-11.9s-2.1-9.5-5.2-11.5v3.4Z" fill="#ff8400"/><g id="Group-20"><g id="Group-3"><g mask="url(#mask)"><path id="Fill-1-2" data-name="Fill-1" d="M176.4,28.6a0.7,0.7,0,0,1-.7-0.7,0.7,0.7,0,1,1,.7.7h0Zm0-1.4a0.6,0.6,0,1,0,.6.6,0.6,0.6,0,0,0-.6-0.6h0Zm0.2,1-0.2-.3h-0.1v0.3h-0.1V27.5h0.2a0.2,0.2,0,0,1,.3.2,0.2,0.2,0,0,1-.2.2l0.2,0.3h-0.1Zm-0.2-.7h-0.1v0.2h0.1Z" fill="#fff"/></g></g><path id="Fill-4" d="M137.9,19.8l-5.6,8.9h1.9l1.4-2.3h3.2v2.3h1.8V19.8h-2.8Zm0.9,5h-2.2l2.2-3.5v3.5Z" fill="#fff"/><polygon id="Fill-6" points="142 19.8 142 28.6 143.7 28.6 143.7 19.8 142 19.8" fill="#fff"/><polygon id="Fill-8" points="145 28.6 146.8 28.6 146.8 19.8 145 19.8 145 28.6" fill="#fff"/><path id="Fill-10" d="M150.6,24.4c-1-.2-1.2-0.4-1.1-0.8a0.7,0.7,0,0,1,.8-0.6,4.4,4.4,0,0,1,2,.6h0.1l0.2-1.5h-0.1a5.6,5.6,0,0,0-2.3-.5,2.7,2.7,0,0,0-1.9.7,1.8,1.8,0,0,0-.5,1.3c0,1.4.7,1.8,2.3,2.2s1.2,0.4,1.2.9-0.3.6-1,.6a4.4,4.4,0,0,1-2.3-.7H148l-0.2,1.5h0.1a5.6,5.6,0,0,0,2.5.6,3,3,0,0,0,2.2-.7,1.9,1.9,0,0,0,.5-1.4c0-1.5-.8-1.8-2.4-2.2" fill="#fff"/><path id="Fill-11" d="M157.2,27.1h-0.6a0.7,0.7,0,0,1-.8-0.7V23.3h1.3V21.9h-1.3V19.8h-1.7v2.1h-0.9v1.4h0.9v3.4c0,1.3.7,2,2.2,2h1.1l-0.2-1.5" fill="#fff"/><path id="Fill-12" d="M161,21.8a6.9,6.9,0,0,0-2.6.5h-0.1l0.2,1.4h0.1a5.2,5.2,0,0,1,2.1-.5,0.8,0.8,0,0,1,1,.9v0.2c-2.6.3-3.9,1.1-3.9,2.7a1.8,1.8,0,0,0,1.9,1.9,2.9,2.9,0,0,0,2.1-.9v0.7h1.5V24c0-1.5-.8-2.3-2.6-2.3m-0.6,5.7a0.6,0.6,0,0,1-.7-0.7c0-.7.7-1.2,2.1-1.4v1.5a2.1,2.1,0,0,1-1.4.6" fill="#fff"/><path id="Fill-13" d="M168,27.1h-0.6a0.7,0.7,0,0,1-.8-0.7V23.3H168V21.9h-1.3V19.8H165v2.1h-0.9v1.4H165v3.4c0,1.3.7,2,2.2,2h1.1L168,27.1" fill="#fff"/><path id="Fill-14" d="M174.1,26.6a3.7,3.7,0,0,1-2.2.8,1.6,1.6,0,0,1-1.6-1.7h4.1V25.2c0-2.3-1-3.4-2.9-3.5a2.8,2.8,0,0,0-2,.8,3.8,3.8,0,0,0-1,2.8c0,2.2,1.2,3.5,3.2,3.5a4.6,4.6,0,0,0,2.6-.8h0l-0.2-1.4h-0.1Zm-3.8-2.1c0.1-1,.5-1.5,1.2-1.5a1.3,1.3,0,0,1,1.2,1.5h-2.4Z" fill="#fff"/><path id="Fill-15" d="M121.8,17.3c-4.6,0-8.3,2.8-8.3,6.2s3.7,6.4,8.3,6.4,8.3-3,8.3-6.4-3.7-6.2-8.3-6.2m0,12.2c-4,0-7.2-2.8-7.2-6s3.2-5.8,7.2-5.8,7.2,2.6,7.2,5.8-3.2,6-7.2,6" fill="#fff"/><path id="Fill-16" d="M120.2,26.2h0.1l0.3,0.2h0.5l0.3,0.2h1.2a0.2,0.2,0,0,1,.1.3A0.4,0.4,0,0,0,123,27c0-.2-0.2-0.4-0.8-0.4h-0.5l-0.3-.2h-0.1l-0.4-.2h-0.2l-0.2-.3h-0.1l-0.2-.3H120V25a0.6,0.6,0,0,0,.1-0.4h-0.1l-0.5.2h-0.1l0.9,1.2h0Zm1-.5h0.3l0.5,0.3,0.3,0.2H123a0.7,0.7,0,0,1,.6.3,0.3,0.3,0,0,1,0,.4,0.6,0.6,0,0,0,.3-0.5c0-.3-0.3-0.5-1.2-0.5h-0.3l-0.4-.2h-0.4l-0.4-.5h0l-0.2-.3a0.6,0.6,0,0,0,0-.4h-0.1l-0.3.3h-0.1l0.8,1.1h0.1Zm0.4-2a0.5,0.5,0,0,0,0-.4h-0.1l-0.3.3h-0.1l0.7,0.9h0V25l0.3,0.2h0.1l0.3,0.2,0.3,0.2h0.4l0.5,0.2a0.4,0.4,0,0,1,.1.5,0.5,0.5,0,0,0,.1-0.7,0.7,0.7,0,0,0-.5-0.3h-0.4l-0.2-.2-0.3-.2h-0.3Zm-2.8-5.6H119l0.3,0.3,0.2,0.2,0.2,0.2h-0.1a1.7,1.7,0,0,1,1.1.5,3.1,3.1,0,0,1,.9,1.8l0.4,1.9v0.3h0.1v0.2l0.2,0.2,0.3,0.3h0.6c0.6,0.1.6,0.5,0.6,0.5s0.4-.6-0.5-0.8H123l-0.3-.3h-0.1V23.5l-0.2-.4a3.6,3.6,0,0,1-.1-0.6V21.4a3.9,3.9,0,0,1,.3-1,2,2,0,0,1,.6-0.7l1-.3h-0.1l0.2-.2h0.1l0.5-.5-0.4-.2-0.5.5-0.9.8a2,2,0,0,0-1,1v0.3a2.9,2.9,0,0,0-.5-0.9,2.2,2.2,0,0,0-.9-0.6l-1.2-1h-0.4Zm1.7,9.4c-0.6.3-.9,0-0.8-0.3l0.8,0.3h0Zm-1-.4c-0.4.1-.5-0.2-0.5-0.4l0.5,0.4h0ZM116,20.1h0.1l0.6,0.5-0.2.6a4.3,4.3,0,0,0-.4,1.3h0l0.2,0.8h0c0.1,0.4.2,0.9,0.2,1.3V25a6.9,6.9,0,0,1,1.1,1.7h0l0.2,0.3h0.4a1.4,1.4,0,0,0,.5-0.7l0.2,0.2a0.5,0.5,0,0,0,.6.9c-0.2.4,0.4,0.8,0.9,0.5a0.6,0.6,0,0,0,.5.4h1a4.9,4.9,0,0,0,1.6-.4,2.7,2.7,0,0,0,1-.9h0.1l0.2,0.3,0.5,0.2,0.2-.2a7.7,7.7,0,0,1,1.2-1.8h0l0.6-1.6V23.6h0c0-.1,0-0.3,0-0.4a5.1,5.1,0,0,0-.2-1.6L127,21V20.8l0.7-.6h0l-0.3-.4-0.2.2a0.8,0.8,0,0,1-.7.2h-0.4l0.3,0.5h0.1v0.2h0.1l0.2,0.6a6.9,6.9,0,0,1,.2,1.5h0l-0.2.5c-0.2.6-.5,1.3-0.5,1.5h0a5.5,5.5,0,0,0-1.1,1.6h-0.2a0.8,0.8,0,0,1-.2-0.6,1,1,0,0,1,.4-0.8,0.1,0.1,0,0,0,0-.1,1.3,1.3,0,0,1,.3-1.1h0a2.9,2.9,0,0,1-1-2.1h-0.2a2,2,0,0,0,0,.4,3.3,3.3,0,0,0,.1.8,2.4,2.4,0,0,0,.6,1.1h0a1.5,1.5,0,0,0-.2.8,1.4,1.4,0,0,0,0,.2,1.2,1.2,0,0,0-.4.8v0.4h0a2.5,2.5,0,0,1-1,.9,4.8,4.8,0,0,1-2.2.4,0.2,0.2,0,0,1-.2-0.3H121a3.1,3.1,0,0,0,1.5-.1h0.1a4.5,4.5,0,0,1-2.2-.3,2.9,2.9,0,0,1-1.3-1.2V25.8a1.1,1.1,0,0,0-.1-0.5l-0.2-.3a1.4,1.4,0,0,0,.1-0.4,1.2,1.2,0,0,0-.1-0.6A1.2,1.2,0,0,0,119,23a1.7,1.7,0,0,0-.1-0.4h-0.1a1.5,1.5,0,0,1-.9,1.2h0a1.2,1.2,0,0,1,.2,1.1h0.2a1.1,1.1,0,0,1-.1,1.3h-0.1V26.3a6.3,6.3,0,0,0-.9-1.5h0c-0.1-.8-0.2-1.3-0.3-1.8V22.6h0A4.7,4.7,0,0,1,117,21V20.4h0l0.5-.5h-1l-0.4-.2Z" fill="#fff"/></g><text transform="translate(132.7 16.2)" font-size="7.27" fill="#fff" font-family="Allstate Sans W">Bac<tspan x="13.3" y="0">k</tspan><tspan x="17.4" y="0">ed </tspan><tspan x="28.4" y="0">b</tspan><tspan x="33.1" y="0">y</tspan></text></svg>