<?xml version="1.0" encoding="UTF-8" standalone="no"?>
<svg width="43px" height="29px" viewBox="0 0 43 29" version="1.1" xmlns="http://www.w3.org/2000/svg" xmlns:xlink="http://www.w3.org/1999/xlink">
    <!-- Generator: Sketch 41.1 (35376) - http://www.bohemiancoding.com/sketch -->
    <title>payPal</title>
    <desc>Created with Sketch.</desc>
    <defs></defs>
    <g id="Responsive" stroke="none" stroke-width="1" fill="none" fill-rule="evenodd">
        <g id="Checkout-Guest" transform="translate(-258.000000, -625.000000)">
            <g id="payPal" transform="translate(258.000000, 625.000000)">
                <g id="Paypal-Card">
                    <path d="M42.9806236,25.0657291 C42.9806236,27.0351792 41.3692553,28.6465475 39.3998052,28.6465475 L3.59162077,28.6465475 C1.62217062,28.6465475 0.0108023234,27.0351792 0.0108023234,25.0657291 L0.0108023234,3.58081844 C0.0108023234,1.6113683 1.62217062,0 3.59162077,0 L39.3998052,0 C41.3692553,0 42.9806236,1.6113683 42.9806236,3.58081844 L42.9806236,25.0657291 L42.9806236,25.0657291 Z" id="Shape" fill="#FFFFFF"></path>
                    <path d="M42.9806236,19.6945014 L42.9806236,25.0657291 C42.9806236,25.5584497 42.8796445,26.0282531 42.697739,26.4558028 C42.5151172,26.8833525 42.2530013,27.2700809 41.9285792,27.5945031 C41.604157,27.9189252 41.2181448,28.1810411 40.7898789,28.3636629 C40.3608969,28.5455685 39.8918096,28.6465475 39.3998052,28.6465475 L23.3169172,28.6465475 L7.23402928,28.6465475 L42.9806236,19.6945014 L42.9806236,19.6945014 Z" id="Shape" fill="#113984"></path>
                    <path d="M42.9806236,3.58081844 L42.9806236,14.3232738 L42.9806236,25.0657291 C42.9806236,26.0504542 42.5781396,26.9456588 41.9285792,27.5945031 C41.2790187,28.2433474 40.3845303,28.6465475 39.3998052,28.6465475 L21.495713,28.6465475 L3.59162077,28.6465475 C2.60689569,28.6465475 1.71169108,28.2440635 1.06284678,27.5945031 L41.9285792,1.05204446 C42.5774235,1.70088876 42.9806236,2.59609337 42.9806236,3.58081844 Z" id="Shape" fill="#FFFFFF" opacity="0.08"></path>
                    <path d="M39.3998052,0.716163688 C40.9796623,0.716163688 42.2644599,2.00096135 42.2644599,3.58081844 L42.2644599,25.0657291 C42.2644599,26.6455862 40.9796623,27.9303838 39.3998052,27.9303838 L3.59162077,27.9303838 C2.01176367,27.9303838 0.726966012,26.6455862 0.726966012,25.0657291 L0.726966012,3.58081844 C0.726966012,2.00096135 2.01176367,0.716163688 3.59162077,0.716163688 L39.3998052,0.716163688 L39.3998052,0.716163688 Z M39.3998052,0 L3.59162077,0 C1.62217062,0 0.0108023234,1.6113683 0.0108023234,3.58081844 L0.0108023234,25.0657291 C0.0108023234,27.0351792 1.62217062,28.6465475 3.59162077,28.6465475 L39.3998052,28.6465475 C41.3692553,28.6465475 42.9806236,27.0351792 42.9806236,25.0657291 L42.9806236,3.58081844 C42.9806236,1.6113683 41.3692553,0 39.3998052,0 L39.3998052,0 L39.3998052,0 Z" id="Shape" fill="#009EE3"></path>
                    <g id="paypal-seeklogo.com" transform="translate(3.773672, 7.838337)">
                        <g id="Group">
                            <path d="M3.11739947,2.98673758 L5.53567007,2.98673758 C6.83393634,2.98673758 7.32278352,3.64310281 7.2473218,4.60904253 C7.122863,6.20136252 6.15890029,7.08189808 4.88035768,7.08189808 L4.23484471,7.08189808 C4.05964118,7.08189808 3.94173614,7.19759889 3.89404982,7.51197347 L3.61710715,9.33744057 C3.59913116,9.45600897 3.53671451,9.52564141 3.44283987,9.53405715 L1.92648983,9.53405715 C1.78380537,9.53405715 1.73306064,9.42502658 1.7703858,9.18888721 L2.69639918,3.3331543 C2.73353709,3.09844871 2.86205296,2.98673758 3.11739947,2.98673758 L3.11739947,2.98673758 Z" id="Shape" fill="#009EE3"></path>
                            <path d="M13.6152554,2.87851742 C14.4312907,2.87851742 15.1839731,3.32037484 15.0809232,4.42227548 C14.9587738,5.72852272 14.2539026,6.45595418 13.1453205,6.45894644 L12.178237,6.45894644 C12.0387982,6.45894644 11.9718251,6.57209137 11.9351865,6.80517614 L11.7485608,7.99403941 C11.7204109,8.17351282 11.6283463,8.26215859 11.4917787,8.26215859 L10.5911689,8.26215859 C10.4474857,8.26215859 10.3974276,8.17045822 10.4294473,7.96548824 L11.1739531,3.19999862 C11.2105293,2.96566707 11.3003468,2.87851742 11.4593844,2.87851742 L13.6152554,2.87851742 L13.6152554,2.87851742 Z M12.1482146,5.42942115 L12.8818598,5.42954583 C13.3404349,5.41227798 13.6454651,5.09503582 13.6761117,4.52264095 C13.6950239,4.16911761 13.456093,3.91627144 13.0755387,3.91801692 L12.3848985,3.92113386 L12.1482146,5.42942115 L12.1482146,5.42942115 Z M17.5292162,7.89685322 C17.6114813,7.82229602 17.6954317,7.78327193 17.6832605,7.87547101 L17.6540495,8.09627505 C17.6388198,8.21135247 17.684696,8.27288087 17.7922399,8.27288087 L18.5923589,8.27288087 C18.7269292,8.27288087 18.7927164,8.21839676 18.825922,8.01037218 L19.3190135,4.91948976 C19.3437305,4.76420381 19.3061557,4.68802579 19.188001,4.68802579 L18.3083632,4.68802579 C18.2289692,4.68802579 18.190583,4.7325357 18.1697982,4.85353531 L18.1371543,5.04379333 C18.1201146,5.14309904 18.0746753,5.16030455 18.0323568,5.06037545 C17.8829313,4.70728848 17.5022522,4.54901027 16.9684026,4.5599819 C15.7341758,4.58529145 14.9021619,5.52105919 14.8131557,6.72052005 C14.7443102,7.64837076 15.410171,8.37698667 16.2873745,8.37692433 C16.9238371,8.37692433 17.2085819,8.18741437 17.5292162,7.89685322 L17.5292162,7.89685322 L17.5292162,7.89685322 Z M16.8596728,7.42201858 C16.3284447,7.42201858 15.9581267,6.9988628 16.0353985,6.48001696 C16.1127328,5.96117112 16.6090075,5.53801534 17.1402356,5.53801534 C17.6714637,5.53801534 18.0417817,5.96117112 17.9645099,6.48001696 C17.8872381,6.9988628 17.3909633,7.42201858 16.8596728,7.42201858 L16.8596728,7.42201858 L16.8596728,7.42201858 Z M20.8857962,4.67811392 L20.0774382,4.67811392 C19.9099119,4.67811392 19.8418154,4.80054733 19.8950568,4.95626965 L20.9023366,7.90265073 L19.9097247,9.30402697 C19.8268978,9.42097456 19.89075,9.52794794 20.0076564,9.52794794 L20.9197509,9.52794794 C21.0558816,9.52794794 21.1222929,9.49328757 21.1908264,9.39504162 L24.2889391,4.95626965 C24.3843742,4.81949832 24.3393718,4.67643077 24.1829556,4.6763061 L23.3206697,4.67543335 C23.1726798,4.67524634 23.1131967,4.73378247 23.0283101,4.85683926 L21.7360358,6.72937216 L21.1611161,4.85359765 C21.1257258,4.73789683 21.0412137,4.67811392 20.8857962,4.67811392 L20.8857962,4.67811392 Z" id="Shape" fill="#113984"></path>
                            <path d="M27.5133831,2.87851742 C28.3294184,2.87851742 29.0821007,3.32037484 28.9791133,4.42227548 C28.8569639,5.72852272 28.1520927,6.45595418 27.0435106,6.45894644 L26.0764271,6.45894644 C25.9369883,6.45894644 25.8699528,6.57209137 25.8334391,6.80517614 L25.6468133,7.99403941 C25.6186634,8.17351282 25.5265988,8.26215859 25.3900312,8.26215859 L24.4894214,8.26215859 C24.3457383,8.26215859 24.2956801,8.17045822 24.3276374,7.96548824 L25.0721432,3.19999862 C25.1087194,2.96566707 25.1985369,2.87851742 25.357637,2.87851742 L27.5133831,2.87851742 L27.5133831,2.87851742 Z M26.0463422,5.42942115 L26.7799875,5.42954583 C27.2386251,5.41227798 27.5435928,5.09503582 27.5742394,4.52264095 C27.5931516,4.16911761 27.3541583,3.91627144 26.9736664,3.91801692 L26.2830262,3.92113386 L26.0463422,5.42942115 L26.0463422,5.42942115 Z M31.4273439,7.89685322 C31.509609,7.82229602 31.5936218,7.78327193 31.5813881,7.87547101 L31.5521147,8.09627505 C31.5368851,8.21135247 31.5827613,8.27288087 31.6903052,8.27288087 L32.4904242,8.27288087 C32.6249945,8.27288087 32.6907816,8.21839676 32.7239873,8.01037218 L33.2170788,4.91948976 C33.2418582,4.76420381 33.204221,4.68802579 33.0861287,4.68802579 L32.2064909,4.68802579 C32.1270969,4.68802579 32.0887107,4.7325357 32.0679259,4.85353531 L32.035282,5.04379333 C32.0182423,5.14309904 31.9727405,5.16030455 31.9304845,5.06037545 C31.781059,4.70728848 31.4004423,4.54901027 30.8665303,4.5599819 C29.6323035,4.58529145 28.8002896,5.52105919 28.7112834,6.72052005 C28.6424379,7.64837076 29.3082987,8.37698667 30.1855022,8.37692433 C30.8220272,8.37692433 31.106772,8.18741437 31.4273439,7.89685322 L31.4273439,7.89685322 L31.4273439,7.89685322 Z M30.7578005,7.42201858 C30.2265724,7.42201858 29.8562544,6.9988628 29.9335262,6.48001696 C30.010798,5.96117112 30.5071352,5.53801534 31.0383633,5.53801534 C31.5695914,5.53801534 31.9399094,5.96117112 31.8625751,6.48001696 C31.7853658,6.9988628 31.289091,7.42201858 30.7578005,7.42201858 L30.7578005,7.42201858 L30.7578005,7.42201858 Z M34.4484969,8.27849136 L33.5249801,8.27849136 C33.4516406,8.27849136 33.4006462,8.22107733 33.4117563,8.15088384 L34.2239218,3.0169719 C34.2350319,2.94677841 34.3041272,2.88936437 34.3775291,2.88936437 L35.3009834,2.88936437 C35.3743854,2.88936437 35.4253174,2.94677841 35.4142072,3.0169719 L34.6020418,8.15088384 C34.5909941,8.22107733 34.5218988,8.27849136 34.4484969,8.27849136 L34.4484969,8.27849136 Z" id="Shape" fill="#009EE3"></path>
                            <path d="M1.60554343,0.971511168 L4.02624828,0.971511168 C4.70802532,0.971511168 5.51663299,0.993641442 6.05759808,1.4700969 C6.41892805,1.78839881 6.60854982,2.29552496 6.56479575,2.8399297 C6.41636897,4.68603095 5.31072047,5.72004464 3.82807542,5.72004464 L2.63416978,5.72004464 C2.43094118,5.72004464 2.29624605,5.85450943 2.23894757,6.21875504 L1.9057675,8.33540669 C1.88417134,8.47273906 1.82456345,8.55365483 1.71577123,8.56344202 L0.224637515,8.56344202 C0.059170982,8.56344202 0.000312083238,8.43701893 0.0436292367,8.16322692 L1.11738283,1.37316006 C1.1603879,1.10111353 1.30943885,0.971511168 1.60554343,0.971511168 L1.60554343,0.971511168 Z" id="Shape" fill="#113984"></path>
                            <path d="M2.27365123,6.00536933 L2.69639918,3.33309196 C2.73347467,3.09844871 2.86205296,2.98673758 3.11739947,2.98673758 L5.53567007,2.98673758 C5.93601045,2.98673758 6.2593911,3.04913872 6.51292752,3.16421615 C6.26993951,4.80715524 5.20598533,5.72010698 3.81259609,5.72010698 L2.61869045,5.72010698 C2.46158775,5.72004464 2.34418204,5.80027468 2.27365123,6.00536933 L2.27365123,6.00536933 Z" id="Shape" fill="#172C70"></path>
                        </g>
                    </g>
                </g>
            </g>
        </g>
    </g>
</svg>