<svg id="Layer_1" data-name="Layer 1" xmlns="http://www.w3.org/2000/svg" viewBox="0 0 288.5 71"><defs><style>.cls-1{fill:none;stroke:#e7e7e7;stroke-linecap:square;}.cls-2{fill:#7b8e9b;}.cls-3{fill:#008ecd;}.cls-4{isolation:isolate;}.cls-5{fill:#fff;}.cls-6,.cls-7{fill:#666;}.cls-7{font-size:12px;font-family:Arial;}</style></defs><title>towMileage</title><path id="Line" class="cls-1" d="M1,1V71" transform="translate(-0.5 -0.5)"/><rect class="cls-2" x="0.5" y="5.5" width="288" height="24"/><rect id="Rectangle-12" class="cls-3" x="0.5" y="5.5" width="72.22" height="24"/><path id="Line-2" data-name="Line" class="cls-1" d="M73,6.42V63" transform="translate(-0.5 -0.5)"/><path id="Line-3" data-name="Line" class="cls-1" d="M248,6.46V63" transform="translate(-0.5 -0.5)"/><g id="Group"><g id="_15-Miles" data-name="15-Miles" class="cls-4"><g class="cls-4"><path class="cls-5" d="M18.47,23H17.42V16.28a5.45,5.45,0,0,1-1,.73,7.08,7.08,0,0,1-1.11.54v-1a6.37,6.37,0,0,0,1.55-1,4,4,0,0,0,.94-1.15h0.68V23Z" transform="translate(-0.5 -0.5)"/><path class="cls-5" d="M20.9,20.75L22,20.66a2,2,0,0,0,.57,1.22,1.55,1.55,0,0,0,1.08.41,1.68,1.68,0,0,0,1.29-.57,2.16,2.16,0,0,0,.53-1.52A2,2,0,0,0,25,18.76a1.77,1.77,0,0,0-1.33-.52,1.84,1.84,0,0,0-.92.23,1.79,1.79,0,0,0-.64.6l-1-.13,0.83-4.41h4.27v1H22.76L22.3,17.84a2.8,2.8,0,0,1,1.62-.54,2.57,2.57,0,0,1,1.9.78,2.72,2.72,0,0,1,.77,2,3.13,3.13,0,0,1-.68,2,2.72,2.72,0,0,1-2.26,1,2.78,2.78,0,0,1-1.91-.66A2.56,2.56,0,0,1,20.9,20.75Z" transform="translate(-0.5 -0.5)"/><path class="cls-5" d="M30.74,23V14.41h1.71l2,6.08q0.28,0.85.41,1.27,0.15-.47.46-1.38l2.06-6h1.53V23h-1.1V15.81L35.35,23h-1l-2.48-7.31V23h-1.1Z" transform="translate(-0.5 -0.5)"/><path class="cls-5" d="M40.37,15.62V14.41h1.05v1.21H40.37Zm0,7.38V16.78h1.05V23H40.37Z" transform="translate(-0.5 -0.5)"/><path class="cls-5" d="M42.73,23V14.41h1.05V23H42.73Z" transform="translate(-0.5 -0.5)"/><path class="cls-5" d="M49.4,21l1.09,0.13a2.66,2.66,0,0,1-1,1.48,3.23,3.23,0,0,1-3.95-.31,3.29,3.29,0,0,1-.8-2.36,3.44,3.44,0,0,1,.81-2.44,2.74,2.74,0,0,1,2.1-.87,2.66,2.66,0,0,1,2,.85,3.38,3.38,0,0,1,.79,2.39q0,0.09,0,.28H45.88a2.39,2.39,0,0,0,.58,1.57,1.73,1.73,0,0,0,1.3.54,1.61,1.61,0,0,0,1-.3A2,2,0,0,0,49.4,21Zm-3.46-1.71h3.47a2.11,2.11,0,0,0-.4-1.18,1.61,1.61,0,0,0-1.31-.61,1.68,1.68,0,0,0-1.22.49A1.92,1.92,0,0,0,45.94,19.29Z" transform="translate(-0.5 -0.5)"/><path class="cls-5" d="M51.12,21.14l1-.16a1.46,1.46,0,0,0,.49,1,1.71,1.71,0,0,0,1.12.33,1.65,1.65,0,0,0,1.08-.3,0.88,0.88,0,0,0,.35-0.69,0.64,0.64,0,0,0-.31-0.56,4.57,4.57,0,0,0-1.08-.36,9.84,9.84,0,0,1-1.61-.51,1.54,1.54,0,0,1-.91-1.43,1.6,1.6,0,0,1,.19-0.77A1.71,1.71,0,0,1,52,17.07a2.17,2.17,0,0,1,.67-0.31,3.19,3.19,0,0,1,.91-0.13,3.6,3.6,0,0,1,1.29.21,1.75,1.75,0,0,1,.82.57,2.23,2.23,0,0,1,.36,1l-1,.14a1.13,1.13,0,0,0-.41-0.75,1.49,1.49,0,0,0-1-.27,1.72,1.72,0,0,0-1,.24,0.7,0.7,0,0,0-.31.56,0.58,0.58,0,0,0,.13.37,0.93,0.93,0,0,0,.4.28l0.93,0.27a13,13,0,0,1,1.56.49,1.58,1.58,0,0,1,.69.55,1.55,1.55,0,0,1,.25.9,1.77,1.77,0,0,1-.31,1,2,2,0,0,1-.89.72,3.23,3.23,0,0,1-1.31.25,2.92,2.92,0,0,1-1.85-.5A2.34,2.34,0,0,1,51.12,21.14Z" transform="translate(-0.5 -0.5)"/></g></g><g id="Tow"><g class="cls-4"><path class="cls-3" d="M28.12,60V52.42H25.29v-1H32.1v1H29.25V60H28.12Z" transform="translate(-0.5 -0.5)"/><path class="cls-3" d="M31.4,56.89a3.21,3.21,0,0,1,1-2.56,2.9,2.9,0,0,1,2-.69,2.79,2.79,0,0,1,2.1.84,3.2,3.2,0,0,1,.81,2.32,4.12,4.12,0,0,1-.36,1.89,2.55,2.55,0,0,1-1,1.07,3.05,3.05,0,0,1-1.5.38,2.8,2.8,0,0,1-2.11-.84A3.35,3.35,0,0,1,31.4,56.89Zm1.08,0A2.65,2.65,0,0,0,33,58.68a1.74,1.74,0,0,0,2.62,0,2.71,2.71,0,0,0,.52-1.82,2.57,2.57,0,0,0-.52-1.75,1.74,1.74,0,0,0-2.62,0A2.64,2.64,0,0,0,32.49,56.89Z" transform="translate(-0.5 -0.5)"/><path class="cls-3" d="M39.62,60l-1.9-6.22H38.8l1,3.59,0.37,1.34,0.32-1.28,1-3.64h1.08l0.93,3.61,0.31,1.19,0.36-1.2,1.07-3.6h1L44.31,60h-1.1l-1-3.73L42,55.21,40.72,60h-1.1Z" transform="translate(-0.5 -0.5)"/></g></g><g id="_12_26" data-name="12/26" class="cls-4"><g class="cls-4"><path class="cls-6" d="M25,44H24V37.28A5.45,5.45,0,0,1,23,38a7.08,7.08,0,0,1-1.11.54v-1a6.37,6.37,0,0,0,1.55-1,4,4,0,0,0,.94-1.15H25V44Z" transform="translate(-0.5 -0.5)"/><path class="cls-6" d="M33.26,43v1H27.58a1.87,1.87,0,0,1,.12-0.73,3.87,3.87,0,0,1,.69-1.14,10.88,10.88,0,0,1,1.38-1.3A11.7,11.7,0,0,0,31.67,39a2.18,2.18,0,0,0,.49-1.27,1.41,1.41,0,0,0-.45-1.06,1.62,1.62,0,0,0-1.17-.43,1.65,1.65,0,0,0-1.22.46A1.73,1.73,0,0,0,28.87,38l-1.08-.11A2.67,2.67,0,0,1,28.62,36a2.86,2.86,0,0,1,2-.64,2.72,2.72,0,0,1,2,.69,2.25,2.25,0,0,1,.72,1.7,2.58,2.58,0,0,1-.21,1,3.93,3.93,0,0,1-.7,1,17.06,17.06,0,0,1-1.63,1.51q-0.95.8-1.22,1.08A3.47,3.47,0,0,0,29,43h4.21Z" transform="translate(-0.5 -0.5)"/><path class="cls-6" d="M33.89,44.15l2.49-8.88h0.84l-2.48,8.88H33.89Z" transform="translate(-0.5 -0.5)"/><path class="cls-6" d="M43.27,43v1H37.59a1.87,1.87,0,0,1,.12-0.73,3.87,3.87,0,0,1,.69-1.14,10.88,10.88,0,0,1,1.38-1.3A11.7,11.7,0,0,0,41.68,39a2.18,2.18,0,0,0,.49-1.27,1.41,1.41,0,0,0-.45-1.06,1.62,1.62,0,0,0-1.17-.43,1.65,1.65,0,0,0-1.22.46A1.73,1.73,0,0,0,38.87,38l-1.08-.11A2.67,2.67,0,0,1,38.63,36a2.86,2.86,0,0,1,2-.64,2.72,2.72,0,0,1,2,.69,2.25,2.25,0,0,1,.72,1.7,2.58,2.58,0,0,1-.21,1,3.93,3.93,0,0,1-.7,1,17.06,17.06,0,0,1-1.63,1.51q-0.95.8-1.22,1.08a3.47,3.47,0,0,0-.45.57h4.21Z" transform="translate(-0.5 -0.5)"/><path class="cls-6" d="M49.87,37.51l-1,.08a2,2,0,0,0-.4-0.9,1.4,1.4,0,0,0-1.05-.45,1.45,1.45,0,0,0-.88.28,2.4,2.4,0,0,0-.79,1.06,5.54,5.54,0,0,0-.3,2,2.44,2.44,0,0,1,.93-0.86,2.51,2.51,0,0,1,1.15-.28,2.39,2.39,0,0,1,1.8.78,2.79,2.79,0,0,1,.74,2,3.3,3.3,0,0,1-.35,1.5,2.54,2.54,0,0,1-1,1.06,2.62,2.62,0,0,1-1.38.37,2.7,2.7,0,0,1-2.15-1,4.9,4.9,0,0,1-.83-3.2,5.73,5.73,0,0,1,.92-3.62,2.64,2.64,0,0,1,2.16-1A2.3,2.3,0,0,1,49.87,37.51Zm-4.31,3.7a2.45,2.45,0,0,0,.23,1,1.72,1.72,0,0,0,.65.76,1.62,1.62,0,0,0,.87.26,1.49,1.49,0,0,0,1.15-.54,2.12,2.12,0,0,0,.48-1.46,2,2,0,0,0-.47-1.4,1.56,1.56,0,0,0-1.2-.51,1.63,1.63,0,0,0-1.21.51A1.85,1.85,0,0,0,45.56,41.22Z" transform="translate(-0.5 -0.5)"/></g></g></g><g id="_10" data-name="+10" class="cls-4"><g class="cls-4"><path class="cls-5" d="M259,21.61V19.26h-2.34v-1H259V15.93h1v2.34h2.34v1H260v2.36h-1Z" transform="translate(-0.5 -0.5)"/><path class="cls-5" d="M267.2,23h-1.05V16.28a5.46,5.46,0,0,1-1,.73,7.08,7.08,0,0,1-1.11.54v-1a6.37,6.37,0,0,0,1.55-1,4,4,0,0,0,.94-1.15h0.68V23Z" transform="translate(-0.5 -0.5)"/><path class="cls-5" d="M269.63,18.76a7.86,7.86,0,0,1,.31-2.45,3.05,3.05,0,0,1,.93-1.43,2.38,2.38,0,0,1,1.56-.5,2.54,2.54,0,0,1,1.21.28,2.32,2.32,0,0,1,.86.8,4.31,4.31,0,0,1,.53,1.28,8.49,8.49,0,0,1,.19,2,7.88,7.88,0,0,1-.31,2.44,3.05,3.05,0,0,1-.93,1.44,2.38,2.38,0,0,1-1.56.51,2.36,2.36,0,0,1-2-.89A5.66,5.66,0,0,1,269.63,18.76Zm1.08,0a5.39,5.39,0,0,0,.5,2.82,1.41,1.41,0,0,0,2.44,0,5.39,5.39,0,0,0,.5-2.81,5.38,5.38,0,0,0-.5-2.82,1.47,1.47,0,0,0-1.23-.7,1.35,1.35,0,0,0-1.16.62A5.45,5.45,0,0,0,270.71,18.76Z" transform="translate(-0.5 -0.5)"/></g></g><g class="cls-4"><path class="cls-6" d="M256.94,44V35.41h3.81a5.07,5.07,0,0,1,1.75.23,1.91,1.91,0,0,1,1,.82,2.44,2.44,0,0,1,.36,1.29,2.16,2.16,0,0,1-.59,1.54,3,3,0,0,1-1.83.8,3,3,0,0,1,.69.43,5.91,5.91,0,0,1,.94,1.14L264.51,44h-1.43l-1.14-1.79q-0.5-.77-0.82-1.18a2.58,2.58,0,0,0-.58-0.57,1.71,1.71,0,0,0-.52-0.23,3.41,3.41,0,0,0-.63,0h-1.32V44h-1.14Zm1.14-4.8h2.44a3.66,3.66,0,0,0,1.22-.16,1.3,1.3,0,0,0,.67-0.52,1.39,1.39,0,0,0,.23-0.77,1.28,1.28,0,0,0-.44-1,2.07,2.07,0,0,0-1.4-.39h-2.72V39.2Z" transform="translate(-0.5 -0.5)"/><path class="cls-6" d="M265.06,40.89a3.21,3.21,0,0,1,1-2.56,2.9,2.9,0,0,1,2-.69,2.79,2.79,0,0,1,2.1.84,3.2,3.2,0,0,1,.81,2.32,4.12,4.12,0,0,1-.36,1.89,2.55,2.55,0,0,1-1,1.07,3.05,3.05,0,0,1-1.5.38,2.8,2.8,0,0,1-2.11-.84A3.35,3.35,0,0,1,265.06,40.89Zm1.08,0a2.65,2.65,0,0,0,.52,1.79,1.74,1.74,0,0,0,2.62,0,2.71,2.71,0,0,0,.52-1.82,2.57,2.57,0,0,0-.52-1.75,1.74,1.74,0,0,0-2.62,0A2.64,2.64,0,0,0,266.15,40.89Z" transform="translate(-0.5 -0.5)"/><path class="cls-6" d="M272.11,44V35.41h1.05V44h-1.05Z" transform="translate(-0.5 -0.5)"/><path class="cls-6" d="M274.77,44V35.41h1.05V44h-1.05Z" transform="translate(-0.5 -0.5)"/><path class="cls-6" d="M277.05,41.42V40.36h3.24v1.06h-3.24Z" transform="translate(-0.5 -0.5)"/></g><text class="cls-7" transform="translate(280.85 48.5)"> </text><g class="cls-4"><path class="cls-6" d="M257.21,55.89a3.21,3.21,0,0,1,1-2.56,2.9,2.9,0,0,1,2-.69,2.79,2.79,0,0,1,2.1.84A3.2,3.2,0,0,1,263,55.8a4.12,4.12,0,0,1-.36,1.89,2.55,2.55,0,0,1-1,1.07,3.05,3.05,0,0,1-1.5.38A2.8,2.8,0,0,1,258,58.3,3.35,3.35,0,0,1,257.21,55.89Zm1.08,0a2.65,2.65,0,0,0,.52,1.79,1.74,1.74,0,0,0,2.62,0,2.71,2.71,0,0,0,.52-1.82,2.57,2.57,0,0,0-.52-1.75,1.74,1.74,0,0,0-2.62,0A2.64,2.64,0,0,0,258.29,55.89Z" transform="translate(-0.5 -0.5)"/><path class="cls-6" d="M266,59l-2.37-6.22h1.11l1.34,3.73q0.22,0.6.4,1.25,0.14-.49.39-1.18l1.38-3.8h1.08L267,59h-1Z" transform="translate(-0.5 -0.5)"/><path class="cls-6" d="M274.53,57l1.09,0.13a2.66,2.66,0,0,1-1,1.48,3.24,3.24,0,0,1-3.95-.31,3.29,3.29,0,0,1-.8-2.36,3.44,3.44,0,0,1,.81-2.44,2.74,2.74,0,0,1,2.1-.87,2.66,2.66,0,0,1,2,.85,3.38,3.38,0,0,1,.79,2.39q0,0.09,0,.28H271a2.39,2.39,0,0,0,.58,1.57,1.73,1.73,0,0,0,1.3.54,1.61,1.61,0,0,0,1-.3A2,2,0,0,0,274.53,57Zm-3.46-1.71h3.47a2.11,2.11,0,0,0-.4-1.18,1.62,1.62,0,0,0-1.31-.61,1.68,1.68,0,0,0-1.22.49A1.92,1.92,0,0,0,271.07,55.29Z" transform="translate(-0.5 -0.5)"/><path class="cls-6" d="M276.94,59V52.78h0.95v0.94a2.57,2.57,0,0,1,.67-0.87,1.17,1.17,0,0,1,.68-0.21,2.06,2.06,0,0,1,1.08.34L280,54a1.51,1.51,0,0,0-.77-0.23,1,1,0,0,0-.62.21,1.13,1.13,0,0,0-.39.58,4.11,4.11,0,0,0-.18,1.23V59h-1.05Z" transform="translate(-0.5 -0.5)"/></g></svg>