<?xml version="1.0" encoding="UTF-8" standalone="no"?>
<svg width="22px" height="22px" viewBox="0 0 22 22" version="1.1" xmlns="http://www.w3.org/2000/svg" xmlns:xlink="http://www.w3.org/1999/xlink">
    <!-- Generator: Sketch 41.1 (35376) - http://www.bohemiancoding.com/sketch -->
    <title>Group 14</title>
    <desc>Created with Sketch.</desc>
    <defs></defs>
    <g id="Responsive" stroke="none" stroke-width="1" fill="none" fill-rule="evenodd">
        <g id="Premium-Member-Landing-3-Details" transform="translate(-177.000000, -614.000000)">
            <g id="Group-14" transform="translate(177.000000, 614.000000)">
                <circle id="Oval-2" fill="#008ECD" cx="11" cy="11" r="11"></circle>
                <path d="M18.044,11.293 L11.869,5.118 C11.794,5.043 11.693,5.001 11.585,5 L11.585,5 C11.477,5 11.376,5.042 11.3,5.118 L10.946,5.472 C10.79,5.629 10.79,5.885 10.946,6.042 L15.845,10.939 L4.402,10.939 C4.18,10.939 4,11.121 4,11.343 L4,11.841 C4,12.063 4.18,12.244 4.402,12.244 L15.818,12.244 L10.876,17.184 C10.72,17.341 10.72,17.597 10.876,17.754 L11.23,18.107 C11.306,18.184 11.407,18.226 11.514,18.226 L11.515,18.226 C11.623,18.225 11.723,18.184 11.799,18.107 L18.044,11.863 C18.2,11.706 18.2,11.45 18.044,11.293" id="Fill-5" fill="#FFFFFF" transform="translate(11.080500, 11.613000) rotate(-90.000000) translate(-11.080500, -11.613000) "></path>
            </g>
        </g>
    </g>
</svg>