<?xml version="1.0" encoding="UTF-8" standalone="no"?>
<svg width="32px" height="32px" viewBox="0 0 32 32" version="1.1" xmlns="http://www.w3.org/2000/svg" xmlns:xlink="http://www.w3.org/1999/xlink">
    <!-- Generator: Sketch 41.1 (35376) - http://www.bohemiancoding.com/sketch -->
    <title>avatarAdd</title>
    <desc>Created with Sketch.</desc>
    <defs></defs>
    <g id="Symbols" stroke="none" stroke-width="1" fill="none" fill-rule="evenodd">
        <g id="Group-9" transform="translate(-198.000000, -12.000000)">
            <g id="Group">
                <g transform="translate(198.000000, 12.000000)">
                    <g id="avatarAdd">
                        <g id="Group-2">
                            <path d="M19.5766,11.7938 C19.5766,11.4038 19.5226,11.0268 19.4306,10.6648 C18.7796,10.6378 17.4106,10.5058 16.0256,9.9098 C15.6636,10.1158 15.2566,10.3278 14.7856,10.5438 C13.0436,11.3388 11.2866,11.5378 10.3796,11.5848 C10.3766,11.6548 10.3696,11.7238 10.3696,11.7938 C10.3696,14.3318 12.4346,16.3968 14.9726,16.3968 C17.5116,16.3968 19.5766,14.3318 19.5766,11.7938" id="Fill-1" fill="#7B8E9B"></path>
                            <path d="M17.8367,24.2661 C17.8367,20.7571 20.6917,17.9021 24.2007,17.9021 C27.7097,17.9021 30.5637,20.7571 30.5637,24.2661 C30.5637,27.7751 27.7097,30.6301 24.2007,30.6301 C20.6917,30.6301 17.8367,27.7751 17.8367,24.2661 M29.3497,18.9621 C29.7057,17.6841 29.9107,16.3441 29.9107,14.9551 C29.9107,6.7091 23.2017,0.0001 14.9557,0.0001 C6.7087,0.0001 -0.0003,6.7091 -0.0003,14.9551 C-0.0003,20.0661 2.5807,24.5831 6.5037,27.2811 L6.5037,23.7921 C6.5037,20.9331 7.5727,17.6191 12.1527,16.6711 C10.4697,15.6941 9.3327,13.8761 9.3327,11.7941 C9.3327,8.6841 11.8627,6.1541 14.9727,6.1541 C18.0827,6.1541 20.6137,8.6841 20.6137,11.7941 C20.6137,13.8761 19.4757,15.6941 17.7927,16.6711 C18.9457,16.9091 19.8847,17.2931 20.6297,17.7881 C20.2987,17.9711 19.9857,18.1841 19.6877,18.4141 C18.5067,17.7611 16.9427,17.4331 14.9727,17.4331 C9.9717,17.4331 7.5407,19.5131 7.5407,23.7921 L7.5407,27.9251 C9.7287,29.1811 12.2567,29.9101 14.9557,29.9101 C16.3077,29.9101 17.6127,29.7141 18.8607,29.3761 C20.2087,30.7841 22.1017,31.6661 24.2007,31.6661 C28.2807,31.6661 31.6007,28.3461 31.6007,24.2661 C31.6007,22.1861 30.7357,20.3071 29.3497,18.9621" id="Fill-3" fill="#7B8E9B"></path>
                            <path d="M23.6414,28.1028 L24.8734,28.1028 C25.1054,28.1028 25.2954,27.9138 25.2954,27.6818 L25.2954,25.3028 L27.5814,25.3028 C27.8134,25.3028 28.0024,25.1128 28.0024,24.8808 L28.0024,23.6488 C28.0024,23.4168 27.8134,23.2278 27.5814,23.2278 L25.2954,23.2278 L25.2954,20.8948 C25.2954,20.6628 25.1054,20.4738 24.8734,20.4738 L23.6414,20.4738 C23.4094,20.4738 23.2204,20.6628 23.2204,20.8948 L23.2204,23.2278 L20.7944,23.2278 C20.5624,23.2278 20.3734,23.4168 20.3734,23.6488 L20.3734,24.8808 C20.3734,25.1128 20.5624,25.3028 20.7944,25.3028 L23.2204,25.3028 L23.2204,27.6818 C23.2204,27.9138 23.4094,28.1028 23.6414,28.1028" id="Fill-6" fill="#008ECD"></path>
                        </g>
                    </g>
                </g>
            </g>
        </g>
    </g>
</svg>