<?xml version="1.0" encoding="UTF-8" standalone="no"?>
<svg width="27px" height="12px" viewBox="0 0 27 12" version="1.1" xmlns="http://www.w3.org/2000/svg" xmlns:xlink="http://www.w3.org/1999/xlink">
    <!-- Generator: Sketch 41.1 (35376) - http://www.bohemiancoding.com/sketch -->
    <title>car</title>
    <desc>Created with Sketch.</desc>
    <defs></defs>
    <g id="Responsive" stroke="none" stroke-width="1" fill="none" fill-rule="evenodd">
        <g id="Premium-Member-Landing-1-details" transform="translate(-237.000000, -356.000000)" fill="#7B8E9B">
            <g id="car" transform="translate(237.000000, 356.000000)">
                <path d="M12.6031528,3.96243659 C12.4012387,3.95634435 12.2358779,3.78663201 12.2358779,3.58471783 L11.9260441,1.78576695 C11.9260441,1.5847231 12.0914048,1.42719523 12.2924487,1.43676874 C12.2924487,1.43676874 13.4073283,1.49246921 13.8981886,1.60038885 C15.9451806,2.04773319 17.4386492,3.84233247 17.4386492,3.84233247 C17.5683269,3.99724938 17.5082748,4.11909414 17.307231,4.11387222 L12.6031528,3.96243659 Z M5.87471103,3.40804292 C5.87471103,3.40804292 6.2663549,2.60647846 7.80943178,2.00682816 C9.16451959,1.48028473 10.6788759,1.40804819 10.6788759,1.40804819 C10.8799198,1.39760436 11.0452805,1.55513223 11.0452805,1.7570464 L11.3551143,3.55860824 C11.3551143,3.76052241 11.1906239,3.91979092 10.9887097,3.91282837 L6.08010648,3.7509489 C5.8781923,3.74398634 5.78593841,3.58993975 5.87471103,3.40804292 L5.87471103,3.40804292 Z M20.3864222,8.78226724 C20.3864222,7.96938861 21.0478651,7.30881594 21.8607438,7.30881594 C22.6744927,7.30881594 23.3350654,7.96938861 23.3350654,8.78226724 C23.3350654,9.59514586 22.6744927,10.2565889 21.8607438,10.2565889 C21.0478651,10.2565889 20.3864222,9.59514586 20.3864222,8.78226724 L20.3864222,8.78226724 Z M5.14799405,10.2565889 C4.33511543,10.2565889 3.67367244,9.59514586 3.67367244,8.78226724 C3.67367244,7.96938861 4.33511543,7.30881594 5.14799405,7.30881594 C5.96087268,7.30881594 6.62231567,7.96938861 6.62231567,8.78226724 C6.62231567,9.59514586 5.96087268,10.2565889 5.14799405,10.2565889 L5.14799405,10.2565889 Z M26.3072073,4.93719468 C26.0617771,4.52814441 24.8032948,4.06774528 23.124448,3.71526579 C21.4447309,3.3627863 19.5491746,3.25486665 19.5491746,3.25486665 C19.5491746,3.25486665 17.1383889,1.49420985 16.2175907,1.0068308 C15.2967924,0.519451752 14.1366562,-0.0549592681 10.8816604,0.0042224733 C8.02614139,0.0564416569 5.91735669,1.09125181 4.35339214,2.1982985 C3.39691076,2.87627757 2.64756548,2.95634699 1.75374712,3.11909678 C0.85992876,3.28184656 0.507449271,3.63432605 0.507449271,4.09472519 C0.507449271,4.55512432 0.426509536,6.28880122 0.426509536,6.28880122 L0.0470501351,6.83014009 C0.0470501351,6.83014009 -0.0887197423,7.48026893 0.101009958,8.04945803 C0.368198114,8.84928186 0.885168032,9.37234401 2.87123765,9.42543352 C3.15409156,10.4219496 4.06183503,11.1591104 5.14799405,11.1591104 C6.20282156,11.1591104 7.08793672,10.4637249 7.39777055,9.51159517 L19.610097,9.51159517 C19.9208011,10.4637249 20.8067866,11.1591104 21.8607438,11.1591104 C22.909479,11.1591104 23.7919832,10.4715578 24.107039,9.5263906 C24.7771852,9.49331845 26.1166072,9.37147369 26.429052,8.91542616 C27.0791808,7.96764797 26.9991114,6.09036832 26.3072073,4.93719468 L26.3072073,4.93719468 Z" id="Fill-1"></path>
            </g>
        </g>
    </g>
</svg>