<?xml version="1.0" encoding="UTF-8" standalone="no"?>
<svg width="30px" height="30px" viewBox="0 0 30 30" version="1.1" xmlns="http://www.w3.org/2000/svg" xmlns:xlink="http://www.w3.org/1999/xlink">
    <!-- Generator: Sketch 41.1 (35376) - http://www.bohemiancoding.com/sketch -->
    <title>dollarSign</title>
    <desc>Created with Sketch.</desc>
    <defs></defs>
    <g id="Responsive" stroke="none" stroke-width="1" fill="none" fill-rule="evenodd">
        <g id="Ok-Got-It-Guest" transform="translate(-23.000000, -423.000000)" fill="#7B8E9B">
            <g id="dollarSign" transform="translate(23.000000, 423.000000)">
                <g id="Group-7">
                    <path d="M12.2274,10.7793 C12.2274,11.9063 13.0364,12.3723 14.4084,12.7643 L14.4084,8.9173 C13.1834,8.9663 12.2274,9.5533 12.2274,10.7793" id="Fill-1"></path>
                    <path d="M15.8783,23.792 L15.8783,25.066 L14.4083,25.066 L14.4083,23.816 C11.4923,23.596 9.2123,22.003 8.0863,20.189 L10.4623,18.23 C11.3203,19.699 12.7413,20.729 14.4083,20.925 L14.4083,16.342 C12.2523,15.853 8.8453,14.676 8.8453,11.098 C8.8453,8.133 11.1733,6.099 14.4083,5.977 L14.4083,4.751 L15.8783,4.751 L15.8783,6.074 C17.8633,6.319 19.9213,7.324 21.1473,9.04 L18.9173,10.927 C18.0593,9.849 17.1043,9.211 15.8783,8.966 L15.8783,13.107 C18.5493,13.843 21.4653,15.117 21.4653,18.45 C21.4653,21.268 19.4323,23.474 15.8783,23.792 M14.9743,0 C6.7173,0 0.0003,6.717 0.0003,14.974 C0.0003,23.231 6.7173,29.948 14.9743,29.948 C23.2313,29.948 29.9493,23.231 29.9493,14.974 C29.9493,6.717 23.2313,0 14.9743,0" id="Fill-3"></path>
                    <path d="M15.8783,16.7344 L15.8783,20.9494 C17.4463,20.8014 18.1333,19.9684 18.1333,18.8664 C18.1333,17.6164 17.2023,17.0774 15.8783,16.7344" id="Fill-6"></path>
                </g>
            </g>
        </g>
    </g>
</svg>