<?xml version="1.0" encoding="UTF-8" standalone="no"?>
<svg width="22px" height="19px" viewBox="0 0 22 19" version="1.1" xmlns="http://www.w3.org/2000/svg" xmlns:xlink="http://www.w3.org/1999/xlink">
    <!-- Generator: Sketch 41.1 (35376) - http://www.bohemiancoding.com/sketch -->
    <title>flat</title>
    <desc>Created with Sketch.</desc>
    <defs></defs>
    <g id="Responsive" stroke="none" stroke-width="1" fill="none" fill-rule="evenodd">
        <g id="Main-Guest" transform="translate(-208.000000, -367.000000)" fill="#008ECD">
            <g id="flat" transform="translate(208.000000, 367.000000)">
                <path d="M10.6616714,17.6289929 C6.81874286,17.6289929 3.7026,14.5112786 3.7026,10.6691357 C3.7026,6.82463571 6.81874286,3.70927857 10.6616714,3.70927857 C14.5061714,3.70927857 17.6207429,6.82463571 17.6207429,10.6691357 C17.6207429,14.5112786 14.5061714,17.6289929 10.6616714,17.6289929 M19.9496,15.7142071 C20.6622429,14.1529929 21.2342429,12.4794214 21.2342429,10.6416357 C21.2342429,4.77392143 16.4830286,0.0132785714 10.6168857,-7.85714286e-05 C4.75152857,0.0132785714 0.000314285714,4.77392143 0.000314285714,10.6416357 C0.000314285714,12.4794214 0.571528571,14.1529929 1.28495714,15.7142071 C1.73202857,16.69635 0.511814286,16.9792071 0.539314286,17.7240643 C0.569957143,18.5969929 1.90095714,18.7486357 3.79924286,18.7486357 L17.4353143,18.7486357 C19.3336,18.7486357 20.6638143,18.5969929 20.6952429,17.7240643 C20.7219571,16.9792071 19.5017429,16.69635 19.9496,15.7142071" id="Fill-1"></path>
                <path d="M10.6770714,9.34292857 C10.9717143,9.34292857 11.2097857,9.10485714 11.2097857,8.81021429 C11.2097857,8.51714286 10.9717143,8.27907143 10.6770714,8.27907143 C10.3824286,8.27907143 10.1443571,8.51714286 10.1443571,8.81021429 C10.1443571,9.10485714 10.3824286,9.34292857 10.6770714,9.34292857" id="Fill-4"></path>
                <path d="M9.34489286,10.6564857 C9.34489286,10.3626286 9.10603571,10.1237714 8.81217857,10.1237714 C8.51910714,10.1237714 8.28025,10.3626286 8.28025,10.6564857 C8.28025,10.9511286 8.51910714,11.1892 8.81217857,11.1892 C9.10603571,11.1892 9.34489286,10.9511286 9.34489286,10.6564857" id="Fill-6"></path>
                <path d="M10.6586071,13.0535429 C10.95325,13.0535429 11.1913214,12.8146857 11.1913214,12.5216143 C11.1913214,12.2277571 10.95325,11.9904714 10.6586071,11.9904714 C10.3639643,11.9904714 10.1258929,12.2277571 10.1258929,12.5216143 C10.1258929,12.8146857 10.3639643,13.0535429 10.6586071,13.0535429" id="Fill-8"></path>
                <path d="M12.5231857,10.1431786 C12.2293286,10.1431786 11.9912571,10.3804643 11.9912571,10.6766786 C11.9912571,10.96975 12.2293286,11.2078214 12.5231857,11.2078214 C12.8162571,11.2078214 13.0559,10.96975 13.0559,10.6766786 C13.0559,10.3804643 12.8162571,10.1431786 12.5231857,10.1431786" id="Fill-10"></path>
                <path d="M8.92579286,5.22460714 C7.62465,5.64339286 6.78079286,6.51946429 6.78079286,6.51946429 C6.78079286,6.51946429 8.16050714,7.79546429 9.60386429,7.33110714 C11.0480071,6.86596429 11.4235786,5.02503571 11.4235786,5.02503571 C11.4235786,5.02503571 10.2269357,4.80582143 8.92579286,5.22460714" id="Fill-12"></path>
                <path d="M4.95149286,10.6567214 C4.94756429,12.0238643 5.52035,13.0963643 5.52035,13.0963643 C5.52035,13.0963643 7.16013571,12.1794357 7.16406429,10.6622214 C7.16877857,9.14579286 5.53292143,8.21943571 5.53292143,8.21943571 C5.53292143,8.21943571 4.95542143,9.28957857 4.95149286,10.6567214" id="Fill-14"></path>
                <path d="M8.88965,16.1150786 C10.1892214,16.5409357 11.3858643,16.3280071 11.3858643,16.3280071 C11.3858643,16.3280071 11.0205071,14.4847214 9.57872143,14.0125071 C8.13772143,13.5395071 6.75172143,14.8084357 6.75172143,14.8084357 C6.75172143,14.8084357 7.59007857,15.6892214 8.88965,16.1150786" id="Fill-16"></path>
                <path d="M15.2978571,14.0564286 C16.1047857,12.9525 16.2713571,11.748 16.2713571,11.748 C16.2713571,11.748 14.4060714,11.5264286 13.5111429,12.7513571 C12.6162143,13.9755 13.3948571,15.686 13.3948571,15.686 C13.3948571,15.686 14.4909286,15.1603571 15.2978571,14.0564286" id="Fill-18"></path>
                <path d="M15.3201714,7.32568571 C14.5195286,6.21704286 13.4258143,5.6859 13.4258143,5.6859 C13.4258143,5.6859 12.6385286,7.39247143 13.5263857,8.62132857 C14.4150286,9.85097143 16.2818857,9.63882857 16.2818857,9.63882857 C16.2818857,9.63882857 16.1208143,8.43432857 15.3201714,7.32568571" id="Fill-20"></path>
            </g>
        </g>
    </g>
</svg>