<?xml version="1.0" encoding="UTF-8" standalone="no"?>
<svg width="28px" height="21px" viewBox="0 0 28 21" version="1.1" xmlns="http://www.w3.org/2000/svg" xmlns:xlink="http://www.w3.org/1999/xlink">
    <!-- Generator: Sketch 41.1 (35376) - http://www.bohemiancoding.com/sketch -->
    <title>Lockout</title>
    <desc>Created with Sketch.</desc>
    <defs></defs>
    <g id="Responsive" stroke="none" stroke-width="1" fill="none" fill-rule="evenodd">
        <g id="Main-Guest" transform="translate(-143.000000, -368.000000)" fill="#008ECD">
            <g id="Lockout" transform="translate(143.000000, 368.000000)">
                <path d="M6.4008,9.55376471 L3.61068235,12.9961176 L3.43938824,14.854 L2.25762353,15.8521176 L1.89032941,17.1705882 L0.667388235,17.9191765 L0.000329411765,18.886 C0.000329411765,18.886 0.0760941176,20.2645882 0.104917647,20.4350588 C0.144447059,20.6631765 0.298447059,20.7397647 0.445035294,20.7422353 C0.561152941,20.7447059 1.31715294,20.6738824 1.42503529,20.6467059 C1.53374118,20.6195294 1.66221176,20.5577647 1.76927059,20.4325882 L8.91915294,11.5228235 C8.01985882,11.0649412 6.9468,10.2101176 6.4008,9.55376471" id="Fill-1"></path>
                <path d="M17.8802235,6.32157647 C18.0078706,6.36934118 18.1528118,6.37098824 18.2755176,6.30098824 L19.6755176,5.51287059 C19.9019882,5.38522353 19.9826941,5.09616471 19.8550471,4.87051765 L19.6886941,4.57487059 C19.6055176,4.42745882 19.4474,4.33522353 19.2752824,4.33522353 C19.1945765,4.33522353 19.1171647,4.35581176 19.0463412,4.39616471 L17.8752824,5.05498824 C17.9074,5.17192941 17.9436353,5.28804706 17.9576353,5.40828235 C17.9955176,5.71298824 17.9601059,6.01687059 17.8802235,6.32157647" id="Fill-3"></path>
                <path d="M21.3987529,10.7412118 L19.0467529,12.0662706 C19.5104,12.7876824 20.5373412,13.0652118 21.2958118,12.6386235 L22.1852235,12.1370941 L21.3987529,10.7412118 Z" id="Fill-5"></path>
                <path d="M18.6143176,11.3182588 L20.9745529,9.98825882 L20.1353765,8.49931765 L19.2476118,9.00002353 C18.8556118,9.22072941 18.5739647,9.58225882 18.4520824,10.0179059 C18.3302,10.4543765 18.3845529,10.9097882 18.6044353,11.3009647 L18.6143176,11.3182588 Z" id="Fill-7"></path>
                <path d="M21.7281647,9.56381176 L24.0076941,8.27910588 L23.9978118,8.26263529 C23.6996941,7.73310588 23.1339294,7.40451765 22.5204,7.40451765 C22.2321647,7.40451765 21.9480471,7.47945882 21.6976941,7.62028235 L20.8898118,8.07487059 L21.7281647,9.56381176 Z" id="Fill-9"></path>
                <path d="M22.1522824,10.3170118 L22.9387529,11.7128941 L23.7458118,11.2574824 C24.5314588,10.8144235 24.8205176,9.83524706 24.4235765,9.03724706 L22.1522824,10.3170118 Z" id="Fill-11"></path>
                <path d="M17.6190824,9.78583529 C17.8027294,9.12701176 18.2301412,8.58018824 18.8222588,8.24748235 L21.2730824,6.86724706 C21.6527294,6.65230588 22.0842588,6.54030588 22.5207294,6.54030588 C23.4455529,6.54030588 24.3003765,7.03689412 24.7516706,7.83818824 L25.1420235,8.53242353 C25.4755529,9.12454118 25.5579059,9.81301176 25.3742588,10.4718353 C25.1906118,11.1306588 24.7632,11.6774824 24.1710824,12.0101882 L21.7202588,13.3912471 C21.3406118,13.6053647 20.9099059,13.7181882 20.4734353,13.7181882 C19.5486118,13.7181882 18.6937882,13.2207765 18.2416706,12.4194824 L17.8513176,11.7252471 C17.5169647,11.1339529 17.4346118,10.4446588 17.6190824,9.78583529 L17.6190824,9.78583529 Z M14.6576706,3.86795294 C14.9244941,4.08371765 14.9673176,4.47818824 14.7523765,4.74583529 L14.6774353,4.83889412 C14.6634353,4.81912941 14.6560235,4.79689412 14.6379059,4.7796 C14.2450824,4.38595294 14.0227294,3.87371765 13.9832,3.32524706 L14.6576706,3.86795294 Z M11.5488471,2.46795294 L11.6954353,2.28595294 C11.9103765,2.01830588 12.3056706,1.97548235 12.5724941,2.19042353 L13.1530824,2.65736471 C13.1267294,2.82124706 13.1020235,2.98677647 13.1020235,3.15807059 C13.1020235,3.83665882 13.3235529,4.47736471 13.7172,5.01430588 L11.6435529,3.34583529 C11.3759059,3.13007059 11.3339059,2.7356 11.5488471,2.46795294 L11.5488471,2.46795294 Z M27.0657882,9.18465882 L23.0724941,2.09654118 C22.5775529,1.21701176 21.6379059,0.671011765 20.6224941,0.671011765 C20.1440235,0.671011765 19.6704941,0.794541176 19.2529647,1.03007059 L18.8000235,1.28536471 C18.2103765,0.484070588 17.2748471,-0.000164705882 16.2602588,-0.000164705882 C15.3535529,-0.000164705882 14.5415529,0.389364706 13.9650824,1.00289412 C13.7666118,1.21371765 13.6035529,1.45418824 13.4684941,1.71277647 C12.3913176,0.8736 11.4483765,0.199129412 10.6380235,0.199129412 C10.2880235,0.199129412 9.73955294,0.302894118 9.03378824,1.20465882 C7.60249412,3.03042353 6.02708235,7.35148235 6.93049412,8.83136471 C7.36037647,9.49018824 8.98931765,10.7576 9.81696471,10.9659529 C9.92896471,10.9939529 10.0549647,11.0079529 10.1933176,11.0079529 C11.9935529,11.0079529 15.3164941,8.63124706 16.5320235,7.08054118 C16.9734353,6.5156 17.1595529,6.00336471 17.1002588,5.51336471 C16.9701412,4.45101176 15.6747294,3.43807059 14.3019059,2.36501176 L14.1561412,2.25054118 C14.2722588,1.98124706 14.4386118,1.73830588 14.6436706,1.53407059 C15.0587294,1.12148235 15.6294353,0.865364706 16.2602588,0.865364706 C16.9594353,0.865364706 17.5952,1.19230588 18.0259059,1.72183529 L16.1688471,2.76854118 C16.7214353,3.24948235 17.1974353,3.74030588 17.5219059,4.2616 L18.6221412,3.64230588 C19.2439059,3.29065882 20.0946118,3.5336 20.4421412,4.15042353 L20.6084941,4.44607059 C20.9700235,5.0876 20.7419059,5.90371765 20.1012,6.26607059 L18.6995529,7.05501176 C18.5010824,7.16701176 18.2746118,7.22630588 18.0473176,7.22630588 C17.8710824,7.22630588 17.7047294,7.18101176 17.5474353,7.1176 C17.4502588,7.28148235 17.3432,7.44701176 17.2122588,7.61336471 C16.7782588,8.16842353 16.0181412,8.89395294 15.1180235,9.58818824 L17.8233176,14.3910118 C18.3190824,15.2705412 19.2570824,15.8165412 20.2733176,15.8165412 C20.7517882,15.8165412 21.2253176,15.6930118 21.6428471,15.4574824 L25.9984941,13.0033647 C27.3457882,12.2448941 27.8242588,10.5311294 27.0657882,9.18465882 L27.0657882,9.18465882 Z" id="Fill-13"></path>
            </g>
        </g>
    </g>
</svg>