<svg id="Layer_1" data-name="Layer 1" xmlns="http://www.w3.org/2000/svg" viewBox="0 0 346.25 46.61"><defs><style>.cls-1{fill:#00467f;}.cls-2{fill:#fff;}.cls-3{fill:#ff8400;}</style></defs><title>logoActionBar_blue</title><rect class="cls-1" width="346.25" height="46.61"/><g id="SP-RK"><path class="cls-2" d="M3.1,26.7c0.2,1.9,1.8,3.4,4.8,3.4s4.4-1.3,4.4-3.4S11.2,24.2,9,23.6l-3.5-.9C3,22.2.6,20.6,0.6,17.4s3.4-6,7.3-6,7.2,2,7.3,5.9h-3C12,15.5,10.6,14,7.9,14s-4.1,1.2-4.1,3.2S4.6,19.5,6.6,20L10,20.9c3.1,0.8,5.4,2.2,5.4,5.7s-3.3,6.2-7.8,6.2S0.1,29.5,0,26.7H3.1Z"/><path class="cls-2" d="M27.9,11.8a6.2,6.2,0,0,1,6.7,6.5c0,3.9-2.6,6.5-6.7,6.5H23.2v7.5H20.1V11.8h7.8ZM23.2,22.3h2.9c3.3,0,5.2-.7,5.2-3.9a3.5,3.5,0,0,0-3.9-3.9H23.2v7.8Z"/><path class="cls-2" d="M73.8,18A5.8,5.8,0,0,1,70,23.7l4.2,8.6H70.7l-3.7-8H62.4v8H59.3V11.8H67C71.7,11.8,73.8,14.7,73.8,18Zm-7.3,3.7c2.7,0,4.1-1.3,4.1-3.6a3.68,3.68,0,0,0-4-3.8H62.4v7.4h4.1Z"/><path class="cls-2" d="M87.2,20.6l7.9,11.8H91.2l-6.4-9.6-2.4,2.6v7h-3V11.8h3.1v9.7h0.1l8.5-9.7h3.5Z"/></g><path id="Fill-1" class="cls-3" d="M49.4,11.6a0.8,0.8,0,0,1-1.6,0V7.5l-1.4-.3v4.5a0.66,0.66,0,1,1-1.3,0V7.2l-1.5.3v4.2a0.8,0.8,0,0,1-1.6,0V8.3c-3.1,2-5.2,6.4-5.2,11.5s2.4,10.1,5.9,11.9c1,0.5,1,1.2,1.2,2.3L43.4,46.5H48L47.5,34c0.2-1.1.3-1.8,1.2-2.3,3.4-1.8,5.9-6.4,5.9-11.9s-2.1-9.5-5.2-11.5v3.3Z"/><path class="cls-2" d="M185.62,20a3.55,3.55,0,0,0-1.32-1.26,4.1,4.1,0,0,0-3.46-.11,3.51,3.51,0,0,0-1.22.92,4.07,4.07,0,0,0-.77,1.44,6.19,6.19,0,0,0-.26,1.85,6.08,6.08,0,0,0,.27,1.87,4.1,4.1,0,0,0,.78,1.44,3.49,3.49,0,0,0,1.23.92,4,4,0,0,0,1.63.32,3.57,3.57,0,0,0,1.82-.45,4,4,0,0,0,1.34-1.36l1.15,0.91A5.44,5.44,0,0,1,185,28.19a5.09,5.09,0,0,1-2.48.58,5.63,5.63,0,0,1-2.26-.44,5,5,0,0,1-1.74-1.22,5.48,5.48,0,0,1-1.11-1.86,7.41,7.41,0,0,1,0-4.76,5.62,5.62,0,0,1,1.1-1.88,5,5,0,0,1,1.71-1.23,5.43,5.43,0,0,1,2.21-.44,5.33,5.33,0,0,1,2.52.58,5.1,5.1,0,0,1,1.85,1.65Z"/><path class="cls-2" d="M196.23,24.42a5.06,5.06,0,0,1-.29,1.74,4,4,0,0,1-.82,1.37,3.73,3.73,0,0,1-1.29.9,4.59,4.59,0,0,1-3.41,0,3.72,3.72,0,0,1-1.29-.9,4,4,0,0,1-.81-1.37,5.18,5.18,0,0,1-.28-1.74,5.25,5.25,0,0,1,.28-1.74,4,4,0,0,1,.81-1.38,3.67,3.67,0,0,1,1.29-.91,4.59,4.59,0,0,1,3.41,0,3.68,3.68,0,0,1,1.29.91,4.12,4.12,0,0,1,.82,1.38A5.13,5.13,0,0,1,196.23,24.42Zm-1.49,0a4.14,4.14,0,0,0-.18-1.23,3,3,0,0,0-.5-1,2.34,2.34,0,0,0-.82-0.66,2.69,2.69,0,0,0-2.22,0,2.34,2.34,0,0,0-.82.66,3,3,0,0,0-.5,1,4.14,4.14,0,0,0-.18,1.23,4.06,4.06,0,0,0,.18,1.22,3,3,0,0,0,.5,1,2.34,2.34,0,0,0,.82.66,2.69,2.69,0,0,0,2.22,0,2.34,2.34,0,0,0,.82-0.66,3,3,0,0,0,.5-1A4.06,4.06,0,0,0,194.74,24.43Z"/><path class="cls-2" d="M198.23,28.56V20.24h1.39v1.38a3.58,3.58,0,0,1,1.22-1.17,3.25,3.25,0,0,1,1.62-.4,2.79,2.79,0,0,1,2.14.82,3.26,3.26,0,0,1,.78,2.33v5.36H204v-5a4.08,4.08,0,0,0-.07-0.75,1.93,1.93,0,0,0-.27-0.7,1.52,1.52,0,0,0-.57-0.51,2,2,0,0,0-.94-0.2,2.66,2.66,0,0,0-1,.18,2.28,2.28,0,0,0-.8.53,2.47,2.47,0,0,0-.53.82,2.82,2.82,0,0,0-.19,1.06v4.61h-1.39Z"/><path class="cls-2" d="M211.33,20.05a3.77,3.77,0,0,1,2,.49,4.06,4.06,0,0,1,1.3,1.19l-1,.78a2.71,2.71,0,0,0-.91-0.9,2.53,2.53,0,0,0-1.28-.3,2.47,2.47,0,0,0-1.09.23,2.4,2.4,0,0,0-.82.64,2.94,2.94,0,0,0-.52,1,4.26,4.26,0,0,0,0,2.48,3,3,0,0,0,.52,1,2.37,2.37,0,0,0,.82.64,2.53,2.53,0,0,0,1.1.23,2.45,2.45,0,0,0,1.38-.37,3.27,3.27,0,0,0,.91-0.88l1,0.78a4.68,4.68,0,0,1-1.38,1.24,3.81,3.81,0,0,1-2,.49,4.08,4.08,0,0,1-1.66-.33,3.7,3.7,0,0,1-1.27-.91,4,4,0,0,1-.81-1.38,5.19,5.19,0,0,1-.28-1.73,5.05,5.05,0,0,1,.29-1.73,4.2,4.2,0,0,1,.81-1.38,3.65,3.65,0,0,1,1.26-.91A4,4,0,0,1,211.33,20.05Z"/><path class="cls-2" d="M215.81,24.43a5.2,5.2,0,0,1,.28-1.73,4.18,4.18,0,0,1,.8-1.39,3.65,3.65,0,0,1,1.27-.93,4.5,4.5,0,0,1,3.35,0,3.65,3.65,0,0,1,1.24.86,3.72,3.72,0,0,1,.78,1.28,4.55,4.55,0,0,1,.27,1.58c0,0.14,0,.26,0,0.37s0,0.2,0,.29H217.3a3.21,3.21,0,0,0,.22,1.16,2.46,2.46,0,0,0,.58.86,2.38,2.38,0,0,0,.87.53,3.54,3.54,0,0,0,2.54-.13,2.71,2.71,0,0,0,1.07-.88l1,0.8a4.41,4.41,0,0,1-.6.64,4,4,0,0,1-.78.54,4.38,4.38,0,0,1-1,.37,5,5,0,0,1-1.22.14,4.62,4.62,0,0,1-1.79-.33,3.75,3.75,0,0,1-1.32-.9,3.87,3.87,0,0,1-.82-1.37A5.13,5.13,0,0,1,215.81,24.43Zm6.56-.77a2.78,2.78,0,0,0-.25-1.07,2.35,2.35,0,0,0-.56-0.75,2.22,2.22,0,0,0-.78-0.45,2.93,2.93,0,0,0-.92-0.14,2.69,2.69,0,0,0-1,.18,2.24,2.24,0,0,0-.78.5,2.47,2.47,0,0,0-.52.77,3.12,3.12,0,0,0-.24,1h5Z"/><path class="cls-2" d="M227.1,20.24V21.6a3.43,3.43,0,0,1,1.35-1.2,3.78,3.78,0,0,1,1.61-.35,3.68,3.68,0,0,1,1.59.34,3.64,3.64,0,0,1,1.22.92,4,4,0,0,1,.77,1.38,5.36,5.36,0,0,1,.26,1.7,5.49,5.49,0,0,1-.26,1.73,4,4,0,0,1-.77,1.38,3.65,3.65,0,0,1-1.22.92,3.87,3.87,0,0,1-3.21,0,3.51,3.51,0,0,1-1.34-1.21v4.16h-1.39V20.24h1.39Zm0,4.16a4,4,0,0,0,.18,1.2,2.85,2.85,0,0,0,.52,1,2.44,2.44,0,0,0,.85.66,2.67,2.67,0,0,0,1.16.24,2.56,2.56,0,0,0,1.14-.24,2.32,2.32,0,0,0,.82-0.66,2.89,2.89,0,0,0,.5-1,4.15,4.15,0,0,0,.17-1.2,4.3,4.3,0,0,0-.16-1.18,2.88,2.88,0,0,0-.49-1,2.29,2.29,0,0,0-.82-0.66,2.62,2.62,0,0,0-1.15-.24,2.67,2.67,0,0,0-1.16.24,2.46,2.46,0,0,0-.85.66,2.85,2.85,0,0,0-.52,1A4,4,0,0,0,227.1,24.4Z"/><path class="cls-2" d="M240.81,28.18a2.81,2.81,0,0,1-1.82.57,2.88,2.88,0,0,1-1.19-.24,2.09,2.09,0,0,1-.9-0.82,2,2,0,0,1-.27-0.68,4.76,4.76,0,0,1-.08-1V21.43H235v-1a4.51,4.51,0,0,0,.76-0.14,1.23,1.23,0,0,0,.56-0.34,1.62,1.62,0,0,0,.35-0.7,6,6,0,0,0,.15-1.21h1.1v2.24h2.62v1.18h-2.62v4.65a1.19,1.19,0,0,0,1.23,1.44,2,2,0,0,0,.66-0.1,1.8,1.8,0,0,0,.52-0.28Z"/><path class="cls-2" d="M249.45,20.24v8.32h-1.39V27.2a3.81,3.81,0,0,1-1.23,1.15,3.21,3.21,0,0,1-1.62.4,2.79,2.79,0,0,1-2.14-.82,3.24,3.24,0,0,1-.78-2.31V20.24h1.39V25.3a4.08,4.08,0,0,0,.07.75,1.93,1.93,0,0,0,.27.7,1.52,1.52,0,0,0,.56.51,1.91,1.91,0,0,0,.94.2,2.7,2.7,0,0,0,1-.18,2.26,2.26,0,0,0,.8-0.53,2.49,2.49,0,0,0,.53-0.82,2.82,2.82,0,0,0,.19-1.06V20.24h1.39Z"/><path class="cls-2" d="M254.38,28.77a3.94,3.94,0,0,1-1.22-.18,2.67,2.67,0,0,1-.93-0.5,2.3,2.3,0,0,1-.6-0.8,2.58,2.58,0,0,1-.22-1.08A2.18,2.18,0,0,1,251.7,25a2.29,2.29,0,0,1,.72-0.73,3.08,3.08,0,0,1,.94-0.39q0.5-.12.94-0.18l1-.11a4.21,4.21,0,0,0,.86-0.17,1.66,1.66,0,0,0,.62-0.34,0.81,0.81,0,0,0,.24-0.63,1,1,0,0,0-.53-0.9,2.73,2.73,0,0,0-1.34-.3,4.27,4.27,0,0,0-2.64.88l-0.64-1.06a6.17,6.17,0,0,1,1.54-.78,5.55,5.55,0,0,1,1.79-.27,5.22,5.22,0,0,1,1.3.15,2.69,2.69,0,0,1,1,.49,2.32,2.32,0,0,1,.66.85,2.88,2.88,0,0,1,.24,1.23v3.94q0,0.9.61,0.9a0.77,0.77,0,0,0,.46-0.13l0.18,1.06a1.37,1.37,0,0,1-.43.13,3.13,3.13,0,0,1-.51,0,1.68,1.68,0,0,1-1-.32,1.36,1.36,0,0,1-.54-0.94,3,3,0,0,1-1.09,1A3.45,3.45,0,0,1,254.38,28.77ZM257,24.08a1.5,1.5,0,0,1-.47.31,3.42,3.42,0,0,1-.6.19,6.11,6.11,0,0,1-.66.11l-0.66.09a5,5,0,0,0-.68.14,1.84,1.84,0,0,0-.54.25,1.19,1.19,0,0,0-.37.41,1.28,1.28,0,0,0-.14.62,1.19,1.19,0,0,0,.5,1.08,2.19,2.19,0,0,0,1.22.33,3.06,3.06,0,0,0,.88-0.13,2.21,2.21,0,0,0,.77-0.4,2,2,0,0,0,.54-0.7,2.28,2.28,0,0,0,.21-1V24.08Z"/><path class="cls-2" d="M261.08,28.56V17.14h1.39V28.56h-1.39Z"/><path class="cls-2" d="M271,24v4.59h-1.49V17.14h4.32a4.45,4.45,0,0,1,3.06.93,3.15,3.15,0,0,1,1,2.46,3.69,3.69,0,0,1-.26,1.4,2.85,2.85,0,0,1-.78,1.09,3.61,3.61,0,0,1-1.29.7,5.77,5.77,0,0,1-1.78.25H271Zm2.83-1.38a2.78,2.78,0,0,0,1.94-.56,2,2,0,0,0,.6-1.5,1.88,1.88,0,0,0-.6-1.48,2.86,2.86,0,0,0-1.94-.54H271v4.08h2.83Z"/><path class="cls-2" d="M284,21.6a2.15,2.15,0,0,0-.77-0.13,2,2,0,0,0-1.58.74,2.73,2.73,0,0,0-.47.89,3.88,3.88,0,0,0-.18,1.22v4.23h-1.39V20.24h1.39v1.44a3.17,3.17,0,0,1,1-1.15,2.42,2.42,0,0,1,1.4-.43,3.11,3.11,0,0,1,.49,0,1,1,0,0,1,.38.12Z"/><path class="cls-2" d="M293.18,24.42a5.06,5.06,0,0,1-.29,1.74,4,4,0,0,1-.82,1.37,3.73,3.73,0,0,1-1.29.9,4.59,4.59,0,0,1-3.41,0,3.72,3.72,0,0,1-1.29-.9,4,4,0,0,1-.81-1.37,5.18,5.18,0,0,1-.28-1.74,5.25,5.25,0,0,1,.28-1.74,4,4,0,0,1,.81-1.38,3.67,3.67,0,0,1,1.29-.91,4.59,4.59,0,0,1,3.41,0,3.68,3.68,0,0,1,1.29.91,4.12,4.12,0,0,1,.82,1.38A5.13,5.13,0,0,1,293.18,24.42Zm-1.49,0a4.14,4.14,0,0,0-.18-1.23,3,3,0,0,0-.5-1,2.34,2.34,0,0,0-.82-0.66,2.69,2.69,0,0,0-2.22,0,2.34,2.34,0,0,0-.82.66,3,3,0,0,0-.5,1,4.14,4.14,0,0,0-.18,1.23,4.06,4.06,0,0,0,.18,1.22,3,3,0,0,0,.5,1,2.34,2.34,0,0,0,.82.66,2.69,2.69,0,0,0,2.22,0,2.34,2.34,0,0,0,.82-0.66,3,3,0,0,0,.5-1A4.06,4.06,0,0,0,291.7,24.43Z"/><path class="cls-2" d="M300.09,28.18a2.81,2.81,0,0,1-1.82.57,2.88,2.88,0,0,1-1.19-.24,2.09,2.09,0,0,1-.9-0.82A2,2,0,0,1,295.9,27a4.76,4.76,0,0,1-.08-1V21.43h-1.54v-1a4.51,4.51,0,0,0,.76-0.14,1.23,1.23,0,0,0,.56-0.34,1.62,1.62,0,0,0,.35-0.7,6,6,0,0,0,.15-1.21h1.1v2.24h2.62v1.18h-2.62v4.65a1.19,1.19,0,0,0,1.23,1.44,2,2,0,0,0,.66-0.1,1.8,1.8,0,0,0,.52-0.28Z"/><path class="cls-2" d="M309.24,24.42a5.06,5.06,0,0,1-.29,1.74,4,4,0,0,1-.82,1.37,3.73,3.73,0,0,1-1.29.9,4.59,4.59,0,0,1-3.41,0,3.72,3.72,0,0,1-1.29-.9,4,4,0,0,1-.81-1.37,5.18,5.18,0,0,1-.28-1.74,5.25,5.25,0,0,1,.28-1.74,4,4,0,0,1,.81-1.38,3.67,3.67,0,0,1,1.29-.91,4.59,4.59,0,0,1,3.41,0,3.68,3.68,0,0,1,1.29.91,4.12,4.12,0,0,1,.82,1.38A5.13,5.13,0,0,1,309.24,24.42Zm-1.49,0a4.14,4.14,0,0,0-.18-1.23,3,3,0,0,0-.5-1,2.34,2.34,0,0,0-.82-0.66,2.69,2.69,0,0,0-2.22,0,2.34,2.34,0,0,0-.82.66,3,3,0,0,0-.5,1,4.14,4.14,0,0,0-.18,1.23,4.06,4.06,0,0,0,.18,1.22,3,3,0,0,0,.5,1,2.34,2.34,0,0,0,.82.66,2.69,2.69,0,0,0,2.22,0,2.34,2.34,0,0,0,.82-0.66,3,3,0,0,0,.5-1A4.06,4.06,0,0,0,307.76,24.43Z"/><path class="cls-2" d="M316.15,28.18a2.81,2.81,0,0,1-1.82.57,2.88,2.88,0,0,1-1.19-.24,2.09,2.09,0,0,1-.9-0.82A2,2,0,0,1,312,27a4.76,4.76,0,0,1-.08-1V21.43h-1.54v-1a4.51,4.51,0,0,0,.76-0.14,1.23,1.23,0,0,0,.56-0.34,1.62,1.62,0,0,0,.35-0.7,6,6,0,0,0,.15-1.21h1.1v2.24h2.62v1.18h-2.62v4.65a1.19,1.19,0,0,0,1.23,1.44,2,2,0,0,0,.66-0.1,1.8,1.8,0,0,0,.52-0.28Z"/><path class="cls-2" d="M321.4,28.94a10.78,10.78,0,0,1-.5,1.09,3.27,3.27,0,0,1-.59.81,2.24,2.24,0,0,1-.78.5,2.83,2.83,0,0,1-1,.17,3.48,3.48,0,0,1-.83-0.1,2.07,2.07,0,0,1-.7-0.31L317.47,30a1.27,1.27,0,0,0,.43.22,1.78,1.78,0,0,0,.53.08,1.17,1.17,0,0,0,.92-0.37,3.5,3.5,0,0,0,.57-0.89l0.22-.5-3.52-8.27h1.6l2.66,6.46,2.35-6.46h1.5Z"/><path class="cls-2" d="M327.64,20.24V21.6A3.43,3.43,0,0,1,329,20.4a3.78,3.78,0,0,1,1.61-.35,3.68,3.68,0,0,1,1.59.34,3.64,3.64,0,0,1,1.22.92,4,4,0,0,1,.77,1.38,5.36,5.36,0,0,1,.26,1.7,5.49,5.49,0,0,1-.26,1.73,4,4,0,0,1-.77,1.38,3.65,3.65,0,0,1-1.22.92,3.87,3.87,0,0,1-3.21,0,3.51,3.51,0,0,1-1.34-1.21v4.16h-1.39V20.24h1.39Zm0,4.16a4,4,0,0,0,.18,1.2,2.85,2.85,0,0,0,.52,1,2.44,2.44,0,0,0,.85.66,2.67,2.67,0,0,0,1.16.24,2.56,2.56,0,0,0,1.14-.24,2.32,2.32,0,0,0,.82-0.66,2.89,2.89,0,0,0,.5-1,4.15,4.15,0,0,0,.17-1.2,4.3,4.3,0,0,0-.16-1.18,2.88,2.88,0,0,0-.49-1,2.29,2.29,0,0,0-.82-0.66,2.62,2.62,0,0,0-1.15-.24,2.67,2.67,0,0,0-1.16.24,2.46,2.46,0,0,0-.85.66,2.85,2.85,0,0,0-.52,1A4,4,0,0,0,327.64,24.4Z"/><path class="cls-2" d="M335.88,24.43a5.2,5.2,0,0,1,.28-1.73,4.18,4.18,0,0,1,.8-1.39,3.65,3.65,0,0,1,1.27-.93,4.5,4.5,0,0,1,3.35,0,3.65,3.65,0,0,1,1.24.86,3.72,3.72,0,0,1,.78,1.28,4.55,4.55,0,0,1,.27,1.58c0,0.14,0,.26,0,0.37s0,0.2,0,.29h-6.46a3.21,3.21,0,0,0,.22,1.16,2.46,2.46,0,0,0,.58.86,2.38,2.38,0,0,0,.87.53,3.54,3.54,0,0,0,2.54-.13,2.71,2.71,0,0,0,1.07-.88l1,0.8a4.41,4.41,0,0,1-.6.64,4,4,0,0,1-.78.54,4.38,4.38,0,0,1-1,.37,5,5,0,0,1-1.22.14,4.62,4.62,0,0,1-1.79-.33,3.75,3.75,0,0,1-1.32-.9,3.87,3.87,0,0,1-.82-1.37A5.13,5.13,0,0,1,335.88,24.43Zm6.56-.77a2.78,2.78,0,0,0-.25-1.07,2.35,2.35,0,0,0-.56-0.75,2.22,2.22,0,0,0-.78-0.45,2.93,2.93,0,0,0-.92-0.14,2.69,2.69,0,0,0-1,.18,2.24,2.24,0,0,0-.78.5,2.47,2.47,0,0,0-.52.77,3.12,3.12,0,0,0-.24,1h5Z"/></svg>