<?xml version="1.0" encoding="utf-8"?>
<!-- Generator: Adobe Illustrator 19.2.1, SVG Export Plug-In . SVG Version: 6.00 Build 0)  -->
<svg version="1.1" id="Layer_1" xmlns="http://www.w3.org/2000/svg" xmlns:xlink="http://www.w3.org/1999/xlink" x="0px" y="0px"
	 viewBox="0 0 170 41" style="enable-background:new 0 0 170 41;" xml:space="preserve">
<style type="text/css">
	.st0{enable-background:new    ;}
	.st1{fill:#FFFFFF;}
	.st2{fill:#FF8400;}
	.st3{filter:url(#Adobe_OpacityMaskFilter);}
	.st4{mask:url(#mask-2);fill:#FFFFFF;}
</style>
<title>logoActionBar</title>
<desc>Created with Sketch.</desc>
<g class="st0">
	<path class="st1" d="M3,20.4c0.2,1.9,1.8,3.4,4.8,3.4c2.7,0,4.4-1.3,4.4-3.4c0-1.6-1.1-2.5-3.3-3.1l-3.5-0.9
		c-2.6-0.6-4.9-2.2-4.9-5.5c0-3.9,3.4-6,7.3-6c3.8,0,7.2,2,7.3,5.9h-3c-0.2-1.8-1.6-3.3-4.3-3.3c-2.4,0-4.1,1.2-4.1,3.2
		c0,1.4,0.9,2.4,2.9,2.9l3.4,0.9c3.1,0.8,5.4,2.2,5.4,5.7c0,4-3.3,6.2-7.8,6.2c-5.6,0-7.5-3.3-7.6-6.1H3z"/>
	<path class="st1" d="M27.7,5.5c4.1,0,6.7,2.7,6.7,6.5c0,3.9-2.6,6.5-6.7,6.5h-4.6V26H20V5.5H27.7z M23.1,15.9H26
		c3.3,0,5.2-0.7,5.2-3.9c0-2.5-1.4-3.9-3.9-3.9h-4.2V15.9z"/>
	<path class="st1" d="M73.7,11.7c0,3.4-2.1,5.1-3.8,5.7l4.2,8.6h-3.5l-3.7-8h-4.5v8h-3.1V5.5h7.7C71.6,5.5,73.7,8.4,73.7,11.7z
		 M66.4,15.5c2.7,0,4.1-1.3,4.1-3.6c0-2.5-1.6-3.8-4-3.8h-4.2v7.4H66.4z"/>
</g>
<g class="st0">
	<path class="st1" d="M87,14.2L95,26h-3.8l-6.4-9.6L82.4,19v7h-3.1V5.5h3.1v9.7h0.1L91,5.5h3.5L87,14.2z"/>
</g>
<path id="Fill-1" class="st2" d="M49.3,5.3c0,0.4-0.4,0.8-0.8,0.8c-0.4,0-0.8-0.4-0.8-0.8V1.1c-0.5-0.2-0.9-0.3-1.4-0.3v4.5
	c0,0.4-0.3,0.7-0.6,0.8C45.2,6,45,5.7,45,5.3V0.8c-0.5,0.1-1,0.2-1.4,0.3v4.2c0,0.4-0.4,0.8-0.8,0.8c-0.4,0-0.8-0.4-0.8-0.8V2
	c-3.1,2-5.2,6.4-5.2,11.5c0,5.5,2.4,10.1,5.9,11.9c1,0.5,1,1.2,1.2,2.3c0,0-0.5,12.6-0.5,12.6l4.6,0.1l-0.5-12.6
	c0.2-1.1,0.3-1.8,1.2-2.3c3.4-1.8,5.9-6.4,5.9-11.9c0-5.1-2.1-9.5-5.2-11.5V5.3z"/>
<g class="st0">
	<path class="st1" d="M129.4,8.6c0,0.2,0,0.4-0.1,0.5c-0.1,0.2-0.2,0.3-0.3,0.4s-0.3,0.2-0.5,0.3c-0.2,0.1-0.5,0.1-0.8,0.1h-2V5.1
		h1.9c0.5,0,0.9,0.1,1.2,0.3c0.3,0.2,0.4,0.5,0.4,0.9c0,0.3-0.1,0.5-0.2,0.7c-0.1,0.2-0.3,0.3-0.5,0.4c0.3,0.1,0.5,0.3,0.7,0.5
		C129.3,8.1,129.4,8.3,129.4,8.6z M128.5,6.4c0-0.1,0-0.3-0.1-0.3c-0.1-0.1-0.1-0.2-0.2-0.2c-0.1-0.1-0.2-0.1-0.3-0.1
		c-0.1,0-0.3,0-0.4,0h-1.2v1.5h1.2c0.1,0,0.3,0,0.4,0c0.1,0,0.2-0.1,0.3-0.1c0.1-0.1,0.2-0.1,0.2-0.2C128.5,6.6,128.5,6.5,128.5,6.4
		z M128.7,8.5c0-0.3-0.1-0.5-0.3-0.6s-0.5-0.2-0.8-0.2h-1.3v1.7h1.4c0.3,0,0.6-0.1,0.8-0.2C128.6,9,128.7,8.8,128.7,8.5z"/>
	<path class="st1" d="M131.5,10.1c-0.2,0-0.4,0-0.5-0.1s-0.3-0.1-0.4-0.2c-0.1-0.1-0.2-0.2-0.3-0.3s-0.1-0.3-0.1-0.5
		c0-0.2,0-0.4,0.1-0.5s0.2-0.2,0.3-0.3s0.3-0.1,0.4-0.2c0.1,0,0.3-0.1,0.4-0.1c0.1,0,0.3,0,0.4,0c0.1,0,0.3,0,0.4-0.1
		c0.1,0,0.2-0.1,0.3-0.1c0.1-0.1,0.1-0.2,0.1-0.3c0-0.2-0.1-0.3-0.2-0.4c-0.2-0.1-0.3-0.1-0.6-0.1c-0.4,0-0.8,0.1-1.1,0.4l-0.3-0.5
		c0.2-0.1,0.4-0.3,0.7-0.3c0.2-0.1,0.5-0.1,0.8-0.1c0.2,0,0.4,0,0.6,0.1c0.2,0,0.3,0.1,0.4,0.2s0.2,0.2,0.3,0.4
		c0.1,0.1,0.1,0.3,0.1,0.5v1.7c0,0.3,0.1,0.4,0.3,0.4c0.1,0,0.1,0,0.2-0.1l0.1,0.5c0,0-0.1,0-0.2,0.1c-0.1,0-0.2,0-0.2,0
		c-0.2,0-0.3,0-0.4-0.1s-0.2-0.2-0.2-0.4c-0.1,0.2-0.3,0.3-0.5,0.4S131.8,10.1,131.5,10.1z M132.6,8.1c-0.1,0.1-0.1,0.1-0.2,0.1
		c-0.1,0-0.2,0.1-0.3,0.1c-0.1,0-0.2,0-0.3,0c-0.1,0-0.2,0-0.3,0c-0.1,0-0.2,0-0.3,0.1s-0.2,0.1-0.2,0.1s-0.1,0.1-0.2,0.2
		s-0.1,0.2-0.1,0.3c0,0.2,0.1,0.4,0.2,0.5c0.1,0.1,0.3,0.1,0.5,0.1c0.1,0,0.3,0,0.4-0.1c0.1,0,0.2-0.1,0.3-0.2
		c0.1-0.1,0.2-0.2,0.2-0.3c0.1-0.1,0.1-0.3,0.1-0.4V8.1z"/>
	<path class="st1" d="M136.1,6.3c0.3,0,0.6,0.1,0.8,0.2c0.2,0.1,0.4,0.3,0.6,0.5l-0.4,0.3c-0.1-0.2-0.2-0.3-0.4-0.4
		c-0.2-0.1-0.3-0.1-0.6-0.1c-0.2,0-0.3,0-0.5,0.1c-0.1,0.1-0.3,0.2-0.4,0.3c-0.1,0.1-0.2,0.3-0.2,0.4c-0.1,0.2-0.1,0.3-0.1,0.5
		s0,0.4,0.1,0.5c0.1,0.2,0.1,0.3,0.2,0.4c0.1,0.1,0.2,0.2,0.4,0.3c0.1,0.1,0.3,0.1,0.5,0.1c0.2,0,0.4-0.1,0.6-0.2
		c0.2-0.1,0.3-0.2,0.4-0.4l0.4,0.3c-0.2,0.2-0.4,0.4-0.6,0.5c-0.2,0.1-0.5,0.2-0.9,0.2c-0.3,0-0.5,0-0.7-0.1
		c-0.2-0.1-0.4-0.2-0.5-0.4s-0.3-0.4-0.3-0.6c-0.1-0.2-0.1-0.5-0.1-0.7s0-0.5,0.1-0.7c0.1-0.2,0.2-0.4,0.3-0.6
		c0.2-0.2,0.3-0.3,0.5-0.4S135.9,6.3,136.1,6.3z"/>
	<path class="st1" d="M140.9,6.4h0.8l-1.4,1.5l1.6,2.1h-0.8l-1.2-1.7L139.2,9v1h-0.6V5.1h0.6v3.2L140.9,6.4z"/>
	<path class="st1" d="M142.3,8.2c0-0.3,0-0.5,0.1-0.7c0.1-0.2,0.2-0.4,0.3-0.6c0.1-0.2,0.3-0.3,0.5-0.4c0.2-0.1,0.5-0.1,0.7-0.1
		c0.3,0,0.5,0,0.7,0.1c0.2,0.1,0.4,0.2,0.5,0.4s0.3,0.3,0.3,0.6c0.1,0.2,0.1,0.4,0.1,0.7c0,0.1,0,0.1,0,0.2c0,0,0,0.1,0,0.1h-2.8
		c0,0.2,0,0.4,0.1,0.5c0.1,0.1,0.1,0.3,0.2,0.4c0.1,0.1,0.2,0.2,0.4,0.2s0.3,0.1,0.5,0.1c0.2,0,0.4,0,0.6-0.1
		c0.2-0.1,0.3-0.2,0.5-0.4l0.4,0.3c-0.1,0.1-0.2,0.2-0.3,0.3c-0.1,0.1-0.2,0.2-0.3,0.2c-0.1,0.1-0.3,0.1-0.4,0.2s-0.3,0.1-0.5,0.1
		c-0.3,0-0.5,0-0.8-0.1c-0.2-0.1-0.4-0.2-0.6-0.4c-0.2-0.2-0.3-0.4-0.4-0.6C142.3,8.7,142.3,8.5,142.3,8.2z M145.1,7.9
		c0-0.2,0-0.3-0.1-0.5c-0.1-0.1-0.1-0.2-0.2-0.3c-0.1-0.1-0.2-0.2-0.3-0.2c-0.1,0-0.3-0.1-0.4-0.1c-0.2,0-0.3,0-0.4,0.1
		s-0.2,0.1-0.3,0.2c-0.1,0.1-0.2,0.2-0.2,0.3C143,7.6,143,7.7,143,7.9H145.1z"/>
	<path class="st1" d="M149.5,10V9.4c-0.2,0.2-0.4,0.4-0.6,0.5c-0.2,0.1-0.4,0.2-0.7,0.2c-0.3,0-0.5,0-0.7-0.1s-0.4-0.2-0.5-0.4
		s-0.3-0.4-0.3-0.6c-0.1-0.2-0.1-0.5-0.1-0.7c0-0.3,0-0.5,0.1-0.7c0.1-0.2,0.2-0.4,0.3-0.6c0.1-0.2,0.3-0.3,0.5-0.4
		c0.2-0.1,0.4-0.1,0.7-0.1c0.2,0,0.5,0.1,0.7,0.2c0.2,0.1,0.4,0.3,0.6,0.5V5.1h0.6V10H149.5z M149.5,8.2c0-0.2,0-0.4-0.1-0.5
		s-0.1-0.3-0.2-0.4c-0.1-0.1-0.2-0.2-0.4-0.3c-0.1-0.1-0.3-0.1-0.5-0.1c-0.2,0-0.4,0-0.5,0.1c-0.1,0.1-0.3,0.2-0.4,0.3
		c-0.1,0.1-0.2,0.3-0.2,0.4s-0.1,0.3-0.1,0.5c0,0.2,0,0.3,0.1,0.5c0,0.2,0.1,0.3,0.2,0.4c0.1,0.1,0.2,0.2,0.4,0.3
		c0.1,0.1,0.3,0.1,0.5,0.1c0.2,0,0.4,0,0.5-0.1c0.1-0.1,0.3-0.2,0.4-0.3c0.1-0.1,0.2-0.3,0.2-0.4S149.5,8.4,149.5,8.2z"/>
	<path class="st1" d="M154.2,5.1V7c0.2-0.2,0.4-0.4,0.6-0.5c0.2-0.1,0.4-0.2,0.7-0.2c0.3,0,0.5,0,0.7,0.1c0.2,0.1,0.4,0.2,0.5,0.4
		s0.3,0.4,0.3,0.6c0.1,0.2,0.1,0.5,0.1,0.7c0,0.3,0,0.5-0.1,0.7c-0.1,0.2-0.2,0.4-0.3,0.6s-0.3,0.3-0.5,0.4s-0.4,0.1-0.7,0.1
		c-0.2,0-0.5-0.1-0.7-0.2c-0.2-0.1-0.4-0.3-0.6-0.5V10h-0.6V5.1H154.2z M154.2,8.2c0,0.2,0,0.4,0.1,0.5c0.1,0.2,0.1,0.3,0.2,0.4
		c0.1,0.1,0.2,0.2,0.4,0.3c0.1,0.1,0.3,0.1,0.5,0.1s0.4,0,0.5-0.1c0.1-0.1,0.3-0.2,0.4-0.3c0.1-0.1,0.2-0.3,0.2-0.4
		c0-0.2,0.1-0.3,0.1-0.5c0-0.2,0-0.3-0.1-0.5s-0.1-0.3-0.2-0.4c-0.1-0.1-0.2-0.2-0.4-0.3c-0.1-0.1-0.3-0.1-0.5-0.1s-0.4,0-0.5,0.1
		c-0.1,0.1-0.3,0.2-0.4,0.3c-0.1,0.1-0.2,0.3-0.2,0.4C154.2,7.8,154.2,8,154.2,8.2z"/>
	<path class="st1" d="M159.8,10.2c-0.1,0.2-0.1,0.3-0.2,0.5c-0.1,0.1-0.2,0.3-0.3,0.3c-0.1,0.1-0.2,0.2-0.3,0.2
		c-0.1,0-0.3,0.1-0.4,0.1c-0.1,0-0.2,0-0.4,0s-0.2-0.1-0.3-0.1l0.2-0.5c0,0,0.1,0.1,0.2,0.1c0.1,0,0.1,0,0.2,0
		c0.2,0,0.3-0.1,0.4-0.2s0.2-0.2,0.2-0.4l0.1-0.2l-1.5-3.6h0.7l1.1,2.8l1-2.8h0.6L159.8,10.2z"/>
</g>
<g id="Group-20" transform="translate(0.000000, 8.000000)">
	<g id="Group-3" transform="translate(61.686747, 9.554618)">
		<g id="Clip-2">
		</g>
		<defs>
			<filter id="Adobe_OpacityMaskFilter" filterUnits="userSpaceOnUse" x="106.4" y="3.3" width="1.5" height="1.5">
				<feColorMatrix  type="matrix" values="1 0 0 0 0  0 1 0 0 0  0 0 1 0 0  0 0 0 1 0"/>
			</filter>
		</defs>
		<mask maskUnits="userSpaceOnUse" x="106.4" y="3.3" width="1.5" height="1.5" id="mask-2">
			<g class="st3">
				<polygon id="path-1" class="st1" points="107.9,4.8 107.9,3.3 106.4,3.3 106.4,4.8 				"/>
			</g>
		</mask>
		<path id="Fill-1_1_" class="st4" d="M107.2,4.8c-0.4,0-0.7-0.3-0.7-0.7c0-0.4,0.3-0.7,0.7-0.7c0.4,0,0.7,0.3,0.7,0.7
			C107.9,4.5,107.6,4.8,107.2,4.8L107.2,4.8z M107.2,3.4c-0.3,0-0.6,0.2-0.6,0.6c0,0.4,0.3,0.6,0.6,0.6c0.3,0,0.6-0.2,0.6-0.6
			C107.8,3.6,107.5,3.4,107.2,3.4L107.2,3.4z M107.4,4.4l-0.2-0.3h-0.1v0.3h-0.1V3.6h0.2c0.2,0,0.3,0.1,0.3,0.2
			c0,0.1-0.1,0.2-0.2,0.2l0.2,0.3L107.4,4.4z M107.2,3.7h-0.1V4h0.1c0.1,0,0.2,0,0.2-0.1C107.3,3.8,107.3,3.7,107.2,3.7L107.2,3.7z"
			/>
	</g>
	<path id="Fill-4" class="st1" d="M130.4,5.4l-5.6,8.9h1.9c0,0,1.4-2.2,1.4-2.3h3.2l0,2.3h1.8V5.4H130.4L130.4,5.4z M131.4,10.5
		h-2.2c0.1-0.2,2.2-3.5,2.2-3.5V10.5z"/>
	<polygon id="Fill-6" class="st1" points="134.5,5.4 134.5,14.3 136.2,14.3 136.2,5.4 	"/>
	<polygon id="Fill-8" class="st1" points="137.5,14.3 139.2,14.3 139.2,5.4 137.5,5.4 	"/>
	<path id="Fill-10" class="st1" d="M143.1,10.1c-1-0.2-1.2-0.4-1.1-0.8c0-0.4,0.3-0.6,0.8-0.6c0.6,0,1.3,0.2,2,0.6l0.1,0.1l0.2-1.5
		l-0.1,0c-0.7-0.3-1.4-0.5-2.3-0.5c-0.8,0-1.5,0.2-1.9,0.7c-0.3,0.4-0.5,0.8-0.5,1.3c0,1.4,0.7,1.8,2.3,2.2c1,0.3,1.2,0.4,1.2,0.9
		c0,0.4-0.3,0.6-1,0.6c-0.7,0-1.6-0.3-2.3-0.7l-0.1-0.1l-0.2,1.5l0.1,0c0.6,0.3,1.5,0.6,2.5,0.6c1,0,1.7-0.2,2.2-0.7
		c0.3-0.3,0.5-0.8,0.5-1.4C145.5,10.9,144.7,10.5,143.1,10.1"/>
	<path id="Fill-11" class="st1" d="M149.7,12.8L149.7,12.8c-0.2,0.1-0.4,0.1-0.6,0.1c-0.5,0-0.8-0.2-0.8-0.7V9h1.3l0-1.4h-1.3V5.4
		h-1.7v2.1h-0.9V9h0.9v3.4c0,1.3,0.7,2,2.2,2c0.5,0,0.8-0.1,1-0.1l0.1,0L149.7,12.8"/>
	<path id="Fill-12" class="st1" d="M153.5,7.4c-1.1,0-1.9,0.3-2.6,0.5l-0.1,0l0.2,1.4l0.1,0c0.8-0.3,1.5-0.5,2.1-0.5
		c0.7,0,1,0.3,1,0.9v0.2c-2.6,0.3-3.9,1.1-3.9,2.7c0,1.1,0.7,1.9,1.9,1.9c0.8,0,1.5-0.3,2.1-0.9c0,0.2,0.1,0.7,0.1,0.7h1.5V9.7
		C156,8.2,155.2,7.4,153.5,7.4 M152.9,13.1c-0.4,0-0.7-0.3-0.7-0.7c0-0.7,0.7-1.2,2.1-1.4v1.5C153.9,12.9,153.4,13.1,152.9,13.1"/>
	<path id="Fill-13" class="st1" d="M160.5,12.8L160.5,12.8c-0.2,0.1-0.4,0.1-0.6,0.1c-0.5,0-0.8-0.2-0.8-0.7V9h1.3l0-1.4h-1.3V5.4
		h-1.7v2.1h-0.9V9h0.9v3.4c0,1.3,0.7,2,2.2,2c0.5,0,0.8-0.1,1-0.1l0.1,0L160.5,12.8"/>
	<path id="Fill-14" class="st1" d="M166.6,12.3c-0.8,0.5-1.4,0.8-2.2,0.8c-0.9,0-1.5-0.6-1.6-1.7h4.1l0-0.5c0-2.3-1-3.4-2.9-3.5
		c-0.8,0-1.5,0.3-2,0.8c-0.6,0.6-1,1.6-1,2.8c0,2.2,1.2,3.5,3.2,3.5c1,0,1.8-0.3,2.6-0.8l0,0l-0.2-1.4L166.6,12.3L166.6,12.3z
		 M162.8,10.2c0.1-1,0.5-1.5,1.2-1.5c0.9,0,1.1,0.8,1.2,1.5H162.8z"/>
	<path id="Fill-15" class="st1" d="M114.3,3c-4.6,0-8.3,2.8-8.3,6.2s3.7,6.4,8.3,6.4c4.6,0,8.3-3,8.3-6.4S118.8,3,114.3,3
		 M114.3,15.2c-4,0-7.2-2.8-7.2-6c0-3.2,3.2-5.8,7.2-5.8c4,0,7.2,2.6,7.2,5.8C121.4,12.4,118.2,15.2,114.3,15.2"/>
	<path id="Fill-16" class="st1" d="M112.7,11.9l0.1,0.1l0.3,0.2l0.3,0.1l0,0l0.2,0.1l0.3,0.2c0,0,0.1,0,0.1,0l0.4,0
		c0.2,0,0.5,0,0.7,0.1c0.2,0.1,0.1,0.3,0.1,0.3s0.2-0.2,0.2-0.3c0-0.2-0.2-0.4-0.8-0.4c-0.2,0-0.5,0-0.5,0h0c0,0-0.3-0.2-0.3-0.2
		l-0.1-0.1c0,0-0.4-0.2-0.4-0.2s-0.2-0.1-0.2-0.1c0,0-0.2-0.3-0.2-0.3l-0.1-0.1c0,0-0.2-0.3-0.2-0.3l-0.1-0.1c0,0-0.1-0.2-0.1-0.2
		c0,0,0.1-0.2,0.1-0.4c0,0,0,0-0.1,0.1c-0.1,0.1-0.4,0.2-0.5,0.2l-0.1,0L112.7,11.9L112.7,11.9z M113.7,11.4L113.7,11.4
		c0.1,0.1,0.3,0.2,0.3,0.2c0.2,0.1,0.4,0.2,0.5,0.3l0.3,0.2c0,0,0.3,0,0.5,0c0.3,0,0.5,0.1,0.6,0.3c0.1,0.2,0,0.4,0,0.4
		c0,0,0.3-0.2,0.3-0.5c0-0.3-0.3-0.5-1.2-0.5c0,0-0.2-0.1-0.2-0.1l-0.1,0l-0.4-0.2l-0.3-0.1c0,0-0.1-0.1-0.1-0.1
		c-0.1-0.2-0.3-0.4-0.4-0.5l0,0c0,0-0.2-0.3-0.2-0.3c0.1-0.1,0-0.4,0-0.4s0,0.1-0.1,0.1c-0.1,0.1-0.2,0.2-0.3,0.3l-0.1,0l0.8,1.1
		L113.7,11.4z M114.1,9.4c0.1-0.2,0-0.4,0-0.4L114,9.2c0,0.1-0.1,0.2-0.3,0.3l-0.1,0l0.7,0.9c0,0,0,0.1,0,0.1l0.1,0.2
		c0,0,0.3,0.2,0.3,0.2l0.1,0.1l0.3,0.2l0.3,0.2l0,0l0.4,0c0.2,0,0.4,0.1,0.5,0.2c0.3,0.2,0.1,0.5,0.1,0.5s0.3-0.3,0.1-0.7
		c-0.1-0.1-0.2-0.2-0.5-0.3l-0.4-0.1c0,0-0.2-0.2-0.2-0.2l-0.3-0.2l-0.1,0l-0.2-0.1L114.1,9.4z M111.4,3.9
		C111.4,3.9,111.4,4,111.4,3.9l0.4,0.4l0.2,0.2c0.1,0.1,0.2,0.2,0.2,0.2c0,0,0,0-0.1,0.1c0,0-0.1,0-0.1,0l0,0.1l0.1,0
		c0.4,0,0.9,0.3,1.1,0.5c0.5,0.4,0.8,1.1,0.9,1.8l0.4,1.9l0.1,0.3l0,0.1l0.1,0.1c0.1,0.1,0.1,0.2,0.1,0.2c0,0,0.2,0.2,0.2,0.2
		l0.3,0.3l0.1,0.1l0.1,0.1c0,0,0.4,0.1,0.4,0.1c0.6,0.1,0.6,0.5,0.6,0.5s0.4-0.6-0.5-0.8c0,0-0.3-0.1-0.3-0.1v0c0,0-0.1-0.1-0.1-0.1
		c0,0,0,0,0,0c0,0-0.3-0.3-0.3-0.3l-0.1-0.1c0,0-0.1-0.3-0.1-0.3l-0.2-0.4c0-0.1-0.1-0.3-0.1-0.6c0,0,0-0.2,0-0.2l-0.1-0.8
		c0,0,0-0.2,0-0.2c0.1-0.3,0.2-0.6,0.3-1c0.2-0.4,0.6-0.7,0.6-0.7c0.3-0.2,0.8-0.3,1-0.3c0.1,0,0.1-0.1,0.1-0.1l0,0l0,0
		c-0.1,0-0.3-0.1-0.3-0.1c0,0,0,0,0,0c0,0,0-0.1,0.1-0.1c0,0,0.2-0.2,0.2-0.2l0.1-0.1c0,0,0.5-0.5,0.5-0.5l-0.4-0.2
		c-0.1,0.1-0.5,0.5-0.5,0.5c-0.3,0.3-0.7,0.7-0.9,0.8c-0.4,0.2-0.8,0.6-1,1c0,0-0.1,0.2-0.1,0.3c-0.1-0.4-0.3-0.7-0.5-0.9
		c-0.2-0.3-0.5-0.5-0.9-0.6c-0.2-0.2-0.8-0.8-1.2-1L111.4,3.9z M113.1,13.3c-0.6,0.3-0.9,0-0.8-0.3
		C112.5,13.2,112.8,13.3,113.1,13.3L113.1,13.3z M112.1,12.9c-0.4,0.1-0.5-0.2-0.5-0.4C111.7,12.6,112,12.8,112.1,12.9L112.1,12.9z
		 M108.4,5.8c0,0,0.1,0.1,0.1,0.1c0,0,0.5,0.4,0.6,0.5c0,0-0.2,0.6-0.2,0.6c-0.2,0.5-0.4,0.9-0.4,1.3l0,0.1c0,0,0.2,0.8,0.2,0.8
		l0,0.1c0.1,0.4,0.2,0.9,0.2,1.3c0,0.1,0,0.2,0.1,0.2c0.2,0.3,0.6,0.8,1.1,1.7c0,0,0,0,0,0.1c0,0.1,0.1,0.2,0.2,0.3
		c0.1,0.1,0.3,0.1,0.4,0c0.2-0.2,0.4-0.4,0.5-0.7c0,0,0.1,0.2,0.2,0.2c-0.4,0.7,0.3,1,0.6,0.9c-0.2,0.4,0.4,0.8,0.9,0.5
		c0.1,0.3,0.3,0.4,0.5,0.4c0.2,0,0.5,0.1,1,0c0.7-0.1,1.4-0.3,1.6-0.4c0.6-0.3,0.9-0.6,1-0.9c0,0,0,0,0.1-0.1
		c0.1,0.1,0.1,0.2,0.2,0.3c0.2,0.2,0.3,0.2,0.5,0.2c0.1,0,0.2-0.1,0.2-0.2c0.2-0.6,0.8-1.3,1.2-1.8c0,0,0-0.1,0-0.1
		c0.1-0.3,0.4-1.2,0.6-1.6l0.1-0.3c0,0,0-0.1,0-0.1c0-0.1,0-0.3,0-0.4c0-0.6-0.1-1.1-0.2-1.6c-0.1-0.2-0.2-0.4-0.2-0.5l-0.1-0.2
		c0.1-0.2,0.5-0.4,0.7-0.6c0,0,0,0,0,0l-0.3-0.4c0,0-0.2,0.2-0.2,0.2c-0.2,0.2-0.5,0.2-0.7,0.2c0,0-0.2-0.1-0.2-0.1c0,0,0,0,0,0
		c0,0-0.1,0-0.1,0c0,0-0.1,0-0.1,0l0,0l0.1,0.1c0.1,0.2,0.2,0.3,0.3,0.5c0,0,0.1,0.1,0.1,0.1c0,0,0.1,0.1,0.1,0.1l0,0l0.1,0.2l0,0
		l0,0.1l0.2,0.6c0.1,0.6,0.2,1.1,0.2,1.5c0,0,0,0,0,0c0,0-0.2,0.5-0.2,0.5c-0.2,0.6-0.5,1.3-0.5,1.5l0,0c-0.5,0.5-0.9,1.2-1.1,1.6
		c0,0.1,0,0.1-0.1,0.1c0,0-0.1-0.1-0.1-0.1c-0.1-0.1-0.2-0.4-0.2-0.6c0-0.3,0.2-0.6,0.4-0.8c0,0,0-0.1,0-0.1c-0.1-0.4,0-0.9,0.3-1.1
		l0.1,0l-0.1,0c-0.7-0.5-1-1.4-1-2.1l0-0.1l-0.1,0c0,0,0,0.1,0,0.1c0,0.1,0,0.3,0,0.4c0,0.4,0.1,0.7,0.1,0.8
		c0.1,0.4,0.3,0.7,0.6,1.1c0,0,0,0,0,0c-0.1,0.2-0.2,0.5-0.2,0.8c0,0.1,0,0.2,0,0.2c-0.3,0.3-0.4,0.6-0.4,0.8c0,0,0,0.2,0,0.3
		c0,0-0.1,0.2-0.1,0.2l0,0c-0.3,0.4-0.5,0.7-1,0.9c-0.5,0.3-1.6,0.5-2.2,0.4c-0.2,0-0.2-0.2-0.2-0.3c0,0,0-0.1,0-0.1
		c0,0,0.1-0.1,0.1-0.1c0.6,0.1,1.2,0,1.5-0.1c0,0,0.1-0.1,0.1-0.1l0-0.1l-0.1,0c-0.5,0.1-1.6,0-2.2-0.3c-0.6-0.3-0.8-0.5-1.3-1.2
		l-0.1-0.2c0-0.2-0.1-0.4-0.1-0.5c-0.1-0.2-0.2-0.2-0.2-0.3c0-0.1,0.1-0.3,0.1-0.4c0-0.2,0-0.5-0.1-0.6c0.4-0.3,0.6-0.6,0.6-0.9
		c0-0.2-0.1-0.4-0.1-0.4l-0.1-0.1l0,0.1c0.1,0.6-0.5,1-0.9,1.2l-0.1,0.1l0.1,0c0.3,0.2,0.3,0.8,0.2,1.1l0,0l0,0l0,0
		c0,0,0.1,0.1,0.1,0.1c0.3,0.4,0.3,1-0.1,1.3c-0.1,0.1-0.1,0.1-0.1,0.1c0,0-0.1-0.1-0.1-0.2c0,0-0.1-0.2-0.1-0.2
		c-0.3-0.5-0.5-0.9-0.9-1.5c0,0,0,0,0,0c-0.1-0.8-0.2-1.3-0.3-1.8L109,8.3c0,0,0-0.1,0-0.1c0-0.6,0.2-1,0.4-1.5l0.1-0.3l0.1-0.2
		c0,0,0,0,0,0c0.1-0.2,0.3-0.3,0.5-0.5l0.1-0.1l-0.1,0c0,0-0.2,0-0.5,0.1l0,0c-0.2,0.1-0.4,0.1-0.5,0.1c0,0-0.4-0.2-0.4-0.2
		L108.4,5.8z"/>
</g>
</svg>
