<?xml version="1.0" encoding="UTF-8" standalone="no"?>
<svg width="30px" height="30px" viewBox="0 0 30 30" version="1.1" xmlns="http://www.w3.org/2000/svg" xmlns:xlink="http://www.w3.org/1999/xlink">
    <!-- Generator: Sketch 41.1 (35376) - http://www.bohemiancoding.com/sketch -->
    <title>sporkLogo</title>
    <desc>Created with Sketch.</desc>
    <defs></defs>
    <g id="Responsive" stroke="none" stroke-width="1" fill="none" fill-rule="evenodd">
        <g id="ad/browser" transform="translate(-33.000000, -71.000000)">
            <g id="Group-8">
                <g id="Group-7">
                    <g id="Group-6" transform="translate(12.000000, 69.000000)">
                        <g id="Group-4" transform="translate(21.000000, 0.000000)">
                            <g id="sporkLogo" transform="translate(0.000000, 2.000000)">
                                <rect id="Rectangle-5" fill="#FF8400" x="0" y="0" width="30" height="30" rx="6"></rect>
                                <path d="M19.0316416,8.30803043 C19.0316416,8.73305692 18.683989,9.08070952 18.2589625,9.08070952 C17.833936,9.08070952 17.4857535,8.73305692 17.4857535,8.30803043 L17.4857535,4.31320531 C17.0421784,4.15739759 16.5848245,4.05299582 16.1168714,4 L16.1168714,8.30803043 C16.1168714,8.67211173 15.8609016,8.97789762 15.5206684,9.05845128 C15.1385685,8.98637696 14.8825987,8.68059106 14.8825987,8.31650976 L14.8825987,4.00847933 C14.4151755,4.06147515 13.9572916,4.16587692 13.5137166,4.32115469 L13.5137166,8.31650976 C13.5137166,8.74153626 13.166064,9.08918885 12.7410375,9.08918885 C12.316011,9.08918885 11.9683584,8.74153626 11.9683584,8.31650976 L11.9683584,5.09436374 C9.03503959,7.02924122 7,11.2530083 7,16.1556518 C7,21.4080678 9.33499595,25.884625 12.6090779,27.5985099 C13.5312052,28.0813018 13.5582331,28.763888 13.7786957,29.8020762 C13.7797556,29.8073758 17.2107052,29.8079057 17.2107052,29.8079057 C17.4417669,28.7554087 17.4687948,28.0728225 18.3903922,27.5900306 C21.6644741,25.8761456 24,21.3995885 24,16.1471725 C24,11.244529 21.9644305,7.02076189 19.0316416,5.08588441 L19.0316416,8.30803043 Z" id="Fill-1" fill="#FFFFFF"></path>
                            </g>
                        </g>
                    </g>
                </g>
            </g>
        </g>
    </g>
</svg>