<?xml version="1.0" encoding="UTF-8" standalone="no"?>
<svg width="35px" height="19px" viewBox="0 0 35 19" version="1.1" xmlns="http://www.w3.org/2000/svg" xmlns:xlink="http://www.w3.org/1999/xlink">
    <!-- Generator: Sketch 41.1 (35376) - http://www.bohemiancoding.com/sketch -->
    <title>Tow</title>
    <desc>Created with Sketch.</desc>
    <defs></defs>
    <g id="Responsive" stroke="none" stroke-width="1" fill="none" fill-rule="evenodd">
        <g id="Main-Guest" transform="translate(-76.000000, -369.000000)" fill="#008ECD">
            <g id="Tow" transform="translate(76.000000, 369.000000)">
                <path d="M28.3456923,16.9310905 C27.5016923,16.9310905 26.7976923,16.3460905 26.6036923,15.5610905 C26.5696923,15.4230905 26.5456923,15.2800905 26.5456923,15.1310905 C26.5456923,14.1390905 27.3536923,13.3320905 28.3456923,13.3320905 C29.3376923,13.3320905 30.1456923,14.1390905 30.1456923,15.1310905 C30.1456923,15.2750905 30.1236923,15.4130905 30.0916923,15.5470905 C29.9036923,16.3390905 29.1946923,16.9310905 28.3456923,16.9310905 L28.3456923,16.9310905 Z M25.0456923,9.55309052 L20.1366923,9.55309052 C19.3576923,9.55309052 18.9386923,9.13409052 18.9386923,8.53509052 C18.9386923,7.93609052 19.0026923,7.87809052 19.0586923,7.33709052 C19.1136923,6.80109052 19.2386923,6.20009052 19.6576923,6.20009052 L23.7956923,6.20009052 C24.4536923,6.20009052 24.6556923,6.61309052 25.0026923,7.24609052 C25.0026923,7.24609052 25.4306923,8.00109052 25.7986923,8.65409052 C26.0876923,9.16809052 25.6446923,9.55309052 25.0456923,9.55309052 L25.0456923,9.55309052 Z M15.9946923,9.81809052 L11.8256923,9.81809052 L11.8256923,8.24109052 C11.8256923,8.08509052 11.7596923,7.93709052 11.6446923,7.83209052 L5.59769226,2.37209052 L15.9946923,6.84509052 L15.9946923,9.81809052 Z M10.4276923,16.9310905 C9.61869226,16.9310905 8.94169226,16.3920905 8.71569226,15.6560905 C8.66369226,15.4890905 8.62769226,15.3150905 8.62769226,15.1310905 C8.62769226,14.1390905 9.43569226,13.3320905 10.4276923,13.3320905 C11.4196923,13.3320905 12.2276923,14.1390905 12.2276923,15.1310905 C12.2276923,15.2870905 12.2006923,15.4360905 12.1636923,15.5800905 C11.9626923,16.3550905 11.2636923,16.9310905 10.4276923,16.9310905 L10.4276923,16.9310905 Z M2.70769226,1.23009052 L2.70769226,7.31809052 C2.43569226,7.50609052 2.24569226,7.80409052 2.24569226,8.15909052 C2.24569226,8.51509052 2.43569226,8.81309052 2.70769226,9.00009052 L2.70769226,9.62709052 C2.70769226,10.1060905 2.31769226,10.4960905 1.83869226,10.4960905 C1.50269226,10.4960905 1.19269226,10.2990905 1.04969226,9.99409052 C0.919692258,9.71809052 0.592692258,9.60109052 0.316692258,9.73009052 C0.0416922576,9.86009052 -0.0773077424,10.1880905 0.0526922576,10.4630905 C0.376692258,11.1520905 1.07769226,11.5970905 1.83869226,11.5970905 C2.92569226,11.5970905 3.80869226,10.7130905 3.80869226,9.62709052 L3.80869226,9.03609052 C4.11069226,8.85409052 4.32269226,8.53809052 4.32269226,8.15909052 C4.32269226,7.78109052 4.11069226,7.46509052 3.80869226,7.28309052 L3.80869226,2.24109052 L10.7246923,8.48609052 L10.7246923,9.81809052 L6.51869226,9.81809052 C5.69569226,9.81809052 5.32769226,10.3020905 5.32769226,10.7840905 C5.32769226,10.7840905 5.33269226,11.5050905 5.33269226,11.9240905 C5.33269226,12.0370905 5.25069226,12.1360905 5.11769226,12.2880905 C4.95269226,12.4750905 4.74769226,12.7080905 4.74769226,13.0660905 L4.74769226,14.1410905 C4.74769226,15.1670905 5.30869226,15.6660905 6.46269226,15.6660905 L7.58069226,15.6660905 C7.83269226,17.0100905 9.01069226,18.0330905 10.4276923,18.0330905 C11.8786923,18.0330905 13.0736923,16.9580905 13.2846923,15.5660905 C13.4126923,15.5650905 13.5336923,15.5640905 13.6376923,15.5640905 L25.1456923,15.5640905 L25.4886923,15.5640905 C25.6996923,16.9580905 26.8946923,18.0330905 28.3456923,18.0330905 C29.8036923,18.0330905 31.0026923,16.9470905 31.2046923,15.5440905 L31.5936923,15.5440905 L32.2786923,15.5440905 C33.1176923,15.5440905 34.0206923,15.0830905 34.0206923,14.0760905 L34.0366923,13.2630905 C34.0446923,12.8420905 33.9326923,12.2430905 33.7306923,11.9690905 C33.6166923,11.8150905 33.4826923,11.3500905 33.4726923,10.9290905 C33.4596923,10.4000905 33.0466923,9.88709052 32.5316923,9.75909052 L28.1056923,8.66609052 C27.7396923,8.57509052 27.2656923,8.22609052 27.0706923,7.90409052 L25.6286923,5.52409052 C25.3656923,5.09009052 24.7636923,4.75109052 24.2566923,4.75109052 L19.0556923,4.75109052 C18.5166923,4.75109052 18.0396923,5.18809052 17.9926923,5.72609052 L17.7176923,8.89509052 C17.6516923,9.24609052 17.4016923,9.51109052 17.0956923,9.63409052 L17.0956923,6.48209052 C17.0956923,6.26209052 16.9656923,6.06309052 16.7626923,5.97609052 L2.97769226,0.0450905202 C2.72769226,-0.0619094798 2.44169226,0.0270905202 2.29569226,0.25309052 C2.15069226,0.48109052 2.19069226,0.77909052 2.39069226,0.96009052 L2.70769226,1.23009052 Z" id="Fill-1"></path>
            </g>
        </g>
    </g>
</svg>