<?xml version="1.0" encoding="UTF-8" standalone="no"?>
<svg width="44px" height="29px" viewBox="0 0 44 29" version="1.1" xmlns="http://www.w3.org/2000/svg" xmlns:xlink="http://www.w3.org/1999/xlink">
    <!-- Generator: Sketch 41.1 (35376) - http://www.bohemiancoding.com/sketch -->
    <title>visa</title>
    <desc>Created with Sketch.</desc>
    <defs></defs>
    <g id="Responsive" stroke="none" stroke-width="1" fill="none" fill-rule="evenodd">
        <g id="Checkout-Guest" transform="translate(-12.000000, -626.000000)">
            <g id="visa" transform="translate(12.000000, 626.000000)">
                <g id="Group-2">
                    <rect id="Rectangle-4" fill="#F7F7F7" x="0" y="0" width="44" height="28.16" rx="4"></rect>
                    <rect id="Rectangle-5" fill="#575CC1" x="0" y="0" width="44" height="5.28" rx="2.64"></rect>
                    <rect id="Rectangle-6" fill="#ECAA3D" x="0" y="22.88" width="44" height="5.28" rx="2.64"></rect>
                    <g id="Group" transform="translate(10.560000, 10.560000)" fill="#5565AF">
                        <path d="M2.0364556,6.48853852 C2.33798768,5.66729493 2.54965429,5.1409849 2.67442619,4.90960845 L5.18100446,0 L7.01470573,0 L2.67442619,8.15673421 L0.736748341,8.15673421 L0,0 L1.71190013,0 L2.00749069,4.90960845 C2.02234449,5.07671367 2.03051408,5.32522912 2.03051408,5.65158418 C2.0216018,6.03506924 2.01046145,6.31429206 1.99560765,6.48853852 L2.0364556,6.48853852 L2.0364556,6.48853852 Z" id="Shape"></path>
                        <polygon id="Shape" points="6.68420874 8.15673421 8.49488662 0 10.2647166 0 8.45403867 8.15673421"></polygon>
                        <path d="M15.6484753,5.86439339 C15.6484753,6.6427895 15.3610544,7.25622275 14.7899259,7.70826379 C14.217312,8.16030483 13.4412011,8.38596829 12.4630785,8.38596829 C11.6074998,8.38596829 10.919769,8.21886307 10.397658,7.88393851 L10.397658,6.35499718 C11.1433187,6.75633535 11.836991,6.95771856 12.4749616,6.95771856 C12.9072071,6.95771856 13.2466163,6.87987895 13.4902186,6.72062911 C13.7338209,6.56280751 13.855622,6.3471418 13.855622,6.07077548 C13.855622,5.91152563 13.8296279,5.77084304 13.7776396,5.64944181 C13.7256513,5.52946883 13.6498969,5.4166371 13.5540899,5.31166075 C13.4567976,5.20739852 13.2176514,5.01886955 12.8344235,4.74250323 C12.3004295,4.37330067 11.9246284,4.01052524 11.7085056,3.64846394 C11.4908975,3.28783088 11.3832075,2.89934695 11.3832075,2.48229803 C11.3832075,2.00240612 11.5020379,1.57464533 11.7426694,1.19615915 C11.9818155,0.81910122 12.3227102,0.525595901 12.7668387,0.314929066 C13.2094818,0.104976355 13.7182244,0 14.2960371,0 C15.134534,0 15.903218,0.184244215 16.5998611,0.552018521 L15.9670893,1.85172578 C15.3640251,1.5767877 14.8070077,1.4389616 14.2960371,1.4389616 C13.9737097,1.4389616 13.7115402,1.52251421 13.5073005,1.69033356 C13.3015754,1.85743877 13.1998269,2.07953161 13.1998269,2.35446968 C13.1998269,2.58156139 13.2636982,2.7800881 13.3914409,2.94862157 C13.5191835,3.11786916 13.8051191,3.34210437 14.2499903,3.62061307 C14.7171423,3.91840314 15.0684346,4.24690057 15.3001538,4.60539126 C15.531873,4.96602431 15.6484753,5.38450148 15.6484753,5.86439339 L15.6484753,5.86439339 Z" id="Shape"></path>
                        <path d="M21.1956259,6.24859257 L18.4513869,6.24859257 L17.4532117,8.19029808 L15.5964871,8.19029808 L20.0407432,0 L22.2049414,0 L23.0575494,8.19029808 L21.3345089,8.19029808 L21.1956259,6.24859257 L21.1956259,6.24859257 Z M21.1079885,4.79820497 L20.9572225,2.84578759 C20.9178599,2.35875443 20.8992927,1.88814614 20.8992927,1.43396273 L20.8992927,1.23329364 C20.728474,1.67962168 20.5175501,2.15237234 20.2665209,2.65011737 L19.1755095,4.79820497 L21.1079885,4.79820497 L21.1079885,4.79820497 Z" id="Shape"></path>
                    </g>
                </g>
            </g>
        </g>
    </g>
</svg>