<?xml version="1.0" standalone="no"?>
<!DOCTYPE svg PUBLIC "-//W3C//DTD SVG 1.1//EN" "http://www.w3.org/Graphics/SVG/1.1/DTD/svg11.dtd" >
<svg xmlns="http://www.w3.org/2000/svg">
<metadata></metadata>
<defs>
<font id="allstate_sans_wmedium" horiz-adv-x="609" >
<font-face units-per-em="1000" ascent="800" descent="-200" />
<missing-glyph horiz-adv-x="270" />
<glyph unicode="ff" horiz-adv-x="671" d="M654 623q-11 3 -25 6.5t-32 3.5q-26 0 -42.5 -13.5t-16.5 -45.5v-50h113v-92h-113v-432h-116v432h-199v-432h-116v432h-84v92h84v50q0 72 43.5 112t121.5 40q23 0 43.5 -3.5t37.5 -8.5l-14 -91q-11 3 -24.5 6.5t-32.5 3.5q-26 0 -42.5 -13.5t-16.5 -45.5v-50h199v50 q0 72 43.5 112t121.5 40q23 0 43.5 -3.5t37.5 -8.5z" />
<glyph unicode="fi" horiz-adv-x="612" d="M339 623q-11 3 -24.5 6.5t-32.5 3.5q-27 0 -43 -13.5t-16 -45.5v-50h113v-92h-113v-432h-116v432h-84v92h84v50q0 72 43.5 112t121.5 40q23 0 43.5 -3.5t37.5 -8.5zM425 0v524h116v-524h-116zM415 664q0 29 19 48.5t48 19.5t48.5 -19.5t19.5 -48.5t-19.5 -48t-48.5 -19 t-48 19t-19 48z" />
<glyph unicode="fl" horiz-adv-x="618" d="M339 623q-11 3 -24.5 6.5t-32.5 3.5q-27 0 -43 -13.5t-16 -45.5v-50h113v-92h-113v-432h-116v432h-84v92h84v50q0 72 43.5 112t121.5 40q23 0 43.5 -3.5t37.5 -8.5zM428 0v714h116v-714h-116z" />
<glyph horiz-adv-x="0" />
<glyph horiz-adv-x="0" />
<glyph horiz-adv-x="270" />
<glyph unicode=" "  horiz-adv-x="270" />
<glyph unicode="&#x09;" horiz-adv-x="270" />
<glyph unicode="&#xa0;" horiz-adv-x="270" />
<glyph unicode="!" horiz-adv-x="284" d="M178 214h-72l-34 500h139zM65 67q0 32 22.5 54.5t54.5 22.5t54.5 -22.5t22.5 -54.5t-22.5 -54.5t-54.5 -22.5t-54.5 22.5t-22.5 54.5z" />
<glyph unicode="&#x22;" horiz-adv-x="412" d="M140 432h-76v282h123zM331 432h-76v282h123z" />
<glyph unicode="#" d="M468 456l-34 -197h120v-70h-132l-34 -189h-76l34 189h-147l-34 -189h-77l33 189h-73v70h86l34 197h-120v68h133l33 190h76l-32 -190h146l34 190h76l-34 -190h74v-68h-86zM245 456l-34 -197h147l34 197h-147z" />
<glyph unicode="$" d="M279 -66v56q-43 3 -80.5 15t-68.5 31t-56 43t-43 50l77 67q29 -48 73 -76t98 -34v224q-36 9 -74 23t-70 37.5t-52.5 58t-20.5 85.5q0 43 16.5 79.5t45.5 62.5t68.5 41.5t86.5 17.5v53h57v-56q61 -8 116.5 -38.5t93.5 -79.5l-73 -65q-28 35 -61.5 56.5t-75.5 29.5v-202 q43 -13 83 -29.5t70.5 -40.5t48.5 -58t18 -82q0 -44 -15.5 -81t-44 -65t-69.5 -45t-91 -21v-57h-57zM446 189q0 47 -31 69t-79 36v-209q56 5 83 33.5t27 70.5zM173 525q0 -22 7.5 -37t21.5 -26t33.5 -19t43.5 -15v189q-46 -2 -76 -24.5t-30 -67.5z" />
<glyph unicode="%" horiz-adv-x="817" d="M366 571q0 -32 -12.5 -60t-33.5 -49t-49 -33.5t-60 -12.5t-60.5 12.5t-49.5 33.5t-33 49t-12 60t12 60.5t33 49.5t49.5 33.5t60.5 12.5t60 -12.5t49 -33.5t33.5 -49.5t12.5 -60.5zM288 571q0 16 -6 30.5t-16.5 25t-24.5 16.5t-30 6q-32 0 -55 -23t-23 -55q0 -16 6 -30 t16.5 -24.5t25 -16.5t30.5 -6q32 0 54.5 22.5t22.5 54.5zM216 0h-91l479 714h91zM768 142q0 -32 -12.5 -60t-33.5 -49t-49 -33.5t-60 -12.5t-60.5 12.5t-49.5 33.5t-33 49t-12 60t12 60.5t33 49.5t49.5 33.5t60.5 12.5t60 -12.5t49 -33.5t33.5 -49.5t12.5 -60.5zM690 142 q0 16 -6 30.5t-16.5 25t-24.5 16.5t-30 6q-32 0 -55 -23t-23 -55q0 -16 6 -30t16.5 -24.5t25 -16.5t30.5 -6q32 0 54.5 22.5t22.5 54.5z" />
<glyph unicode="&#x26;" horiz-adv-x="678" d="M653 333q-2 -30 -10 -60.5t-20.5 -59t-28 -53.5t-33.5 -45l97 -115h-141l-39 48q-43 -29 -93.5 -45t-105.5 -16q-51 0 -96 13.5t-79 39.5t-53.5 64t-19.5 86q0 40 13 71.5t35.5 56.5t51.5 43.5t61 32.5q-17 21 -31 39.5t-24.5 38t-16 40t-5.5 45.5q0 40 15.5 71.5 t43 53.5t64.5 33.5t80 11.5q42 0 78 -11.5t62 -32.5t40.5 -51.5t14.5 -68.5q0 -68 -44.5 -115.5t-119.5 -82.5l147 -173q26 32 40.5 75.5t18.5 81.5zM292 85q28 0 62.5 8.5t61.5 29.5l-171 204q-41 -19 -69.5 -47.5t-28.5 -74.5q0 -27 11 -49t30.5 -38t46 -24.5t57.5 -8.5z M411 559q0 42 -27.5 61t-62.5 19q-38 0 -66.5 -20.5t-28.5 -61.5q0 -35 20 -63.5t48 -59.5q23 11 44 23t37.5 26.5t26 33t9.5 42.5z" />
<glyph unicode="'" horiz-adv-x="221" d="M140 432h-76v282h123z" />
<glyph unicode="(" horiz-adv-x="293" d="M205 -133q-94 116 -131.5 234.5t-37.5 231.5t37.5 231.5t131.5 234.5l71 -50q-78 -104 -108.5 -206.5t-30.5 -209.5t30.5 -209.5t108.5 -206.5z" />
<glyph unicode=")" horiz-adv-x="292" d="M88 799q46 -58 78 -117t52 -118t28.5 -117t8.5 -114q0 -113 -37 -232t-130 -234l-71 50q77 103 107.5 206t30.5 210q0 106 -30.5 209t-107.5 207z" />
<glyph unicode="*" horiz-adv-x="413" d="M223 519q7 -23 11.5 -40.5t7.5 -33.5t4 -31.5t1 -34.5h-81q0 19 1 34.5t4 31.5t7.5 33.5t11.5 40.5q-17 -18 -29.5 -31t-24.5 -23t-25 -19t-29 -18l-40 70q16 9 30 16t29 12t32.5 10t41.5 10q-24 6 -41.5 10.5t-32.5 10t-29 12.5t-30 16l40 70q16 -10 29 -18.5t25 -19 t24.5 -23.5t29.5 -31q-7 24 -11.5 41.5t-7.5 33t-4 31t-1 35.5h81q0 -20 -1 -35.5t-4 -31t-7.5 -33t-11.5 -41.5q16 18 29 31t25 23.5t25 19t29 18.5l40 -70q-17 -9 -30.5 -16t-28.5 -12.5t-32.5 -10t-41.5 -10.5q24 -5 41.5 -10t32.5 -10t28.5 -12t30.5 -16l-40 -70 q-16 9 -29 18t-25 19t-25 23t-29 31z" />
<glyph unicode="+" d="M353 255v-198h-99v198h-198v98h198v198h99v-198h198v-98h-198z" />
<glyph unicode="," horiz-adv-x="265" d="M129 -4q-29 0 -51.5 20.5t-22.5 52.5q0 28 19.5 51.5t55.5 23.5q33 0 56 -24.5t23 -75.5q0 -56 -33 -103.5t-84 -79.5l-33 48q29 16 49 40t21 47z" />
<glyph unicode="-" horiz-adv-x="395" d="M58 246v102h279v-102h-279z" />
<glyph unicode="." horiz-adv-x="266" d="M55 67q0 32 22.5 54.5t54.5 22.5t55 -22.5t23 -54.5t-23 -54.5t-55 -22.5t-54.5 22.5t-22.5 54.5z" />
<glyph unicode="/" horiz-adv-x="376" d="M127 0h-95l220 714h95z" />
<glyph unicode="0" horiz-adv-x="636" d="M587 357q0 -70 -13.5 -136.5t-44.5 -118.5t-83 -83.5t-128 -31.5q-77 0 -129 31.5t-83 83.5t-44 118.5t-13 136.5q0 69 13 135.5t44 118.5t83 84t129 32q76 0 128 -32t83 -84t44.5 -118.5t13.5 -135.5zM462 357q0 54 -7 102.5t-23.5 85t-44.5 58.5t-69 22 q-42 0 -69.5 -22t-44.5 -58.5t-24 -85t-7 -102.5t7 -102.5t24 -85.5t44.5 -58.5t69.5 -21.5q41 0 69 21.5t44.5 58.5t23.5 85.5t7 102.5z" />
<glyph unicode="1" horiz-adv-x="439" d="M331 0h-122v575q-12 -7 -30.5 -14.5t-40.5 -14t-45.5 -12t-45.5 -8.5l-18 93q74 15 125 38t83 57h94v-714z" />
<glyph unicode="2" horiz-adv-x="591" d="M52 0v91q98 77 165.5 136.5t109.5 107t60.5 86.5t18.5 77q0 30 -10 52.5t-27.5 37.5t-40 22.5t-47.5 7.5q-45 0 -82.5 -23t-60.5 -65l-97 57q42 66 104 103t147 37q52 0 97 -15t77.5 -43.5t51 -69.5t18.5 -92q0 -49 -17.5 -94.5t-55 -92.5t-95.5 -98.5t-138 -111.5h315 v-110h-493z" />
<glyph unicode="3" horiz-adv-x="598" d="M289 727q54 0 98.5 -14t76 -39t48.5 -60.5t17 -77.5q0 -54 -27.5 -92.5t-79.5 -62.5q64 -20 97.5 -66.5t33.5 -107.5q0 -45 -18 -85t-52.5 -70t-84 -47.5t-112.5 -17.5q-50 0 -91 11t-73.5 29t-57 41.5t-42.5 48.5l89 69q63 -91 177 -91q69 0 104 31.5t35 84.5 q0 51 -34 80.5t-106 29.5h-72v101h71q24 0 46 5.5t38.5 17.5t26.5 30.5t10 44.5t-9.5 45t-26.5 31t-40 18t-50 6q-48 0 -90 -19.5t-71 -54.5l-71 79q40 43 98.5 72.5t141.5 29.5z" />
<glyph unicode="4" horiz-adv-x="611" d="M477 160v-160h-120v160h-322v92q30 31 63 71.5t66 85.5t64 90.5t57 87t45 74.5t28 53h119v-451h100v-103h-100zM358 263l1 276q-13 -26 -36 -62t-50.5 -74.5t-56 -75t-52.5 -64.5h194z" />
<glyph unicode="5" horiz-adv-x="597" d="M556 236q0 -51 -19 -96.5t-54.5 -79t-86.5 -53.5t-115 -20q-49 0 -89.5 11t-73 29t-57 41.5t-40.5 47.5l89 70q30 -45 73 -67.5t97 -22.5q72 0 111 37.5t39 99.5q0 63 -39 99t-103 36q-46 0 -81.5 -18.5t-58.5 -47.5l-75 32l24 380h420v-110h-323l-14 -179q29 23 67 32 t73 9q49 0 92.5 -16.5t75 -46.5t50 -72.5t18.5 -94.5z" />
<glyph unicode="6" horiz-adv-x="594" d="M449 714q-36 -29 -72 -63.5t-68.5 -72t-59 -76t-41.5 -74.5q12 13 28.5 22.5t34.5 15.5t36.5 8.5t34.5 2.5q47 0 87.5 -16.5t70.5 -47.5t47 -75t17 -98q0 -56 -18.5 -102.5t-52.5 -80t-82 -52t-106 -18.5q-59 0 -106.5 17.5t-82 52t-53 85t-18.5 115.5q0 66 18 127.5 t50 118t74.5 109t92.5 102.5h169zM170 237q0 -64 35 -104t100 -40t98.5 40t33.5 104q0 65 -33.5 104t-98.5 39t-100 -39.5t-35 -103.5z" />
<glyph unicode="7" horiz-adv-x="546" d="M525 621q-39 -49 -85.5 -117t-87 -149t-68.5 -171.5t-30 -183.5h-133q3 88 30.5 176t67 167t84.5 146t84 115h-367v110h505v-93z" />
<glyph unicode="8" horiz-adv-x="621" d="M311 87q65 0 101 31.5t36 91.5q0 57 -34 88t-103 31t-103.5 -32.5t-34.5 -87.5q0 -60 37 -91t101 -31zM311 424q22 0 42.5 5t37 16.5t26.5 31t10 48.5q0 27 -9.5 46t-26 31.5t-37.5 18t-43 5.5q-23 0 -44 -5.5t-37 -18t-25.5 -31.5t-9.5 -46q0 -29 10 -48.5t26 -31 t37 -16.5t43 -5zM311 -13q-63 0 -112.5 16.5t-83 45.5t-51 68t-17.5 85q0 60 31 107.5t93 73.5q-45 20 -73 59.5t-28 96.5q0 45 19 80t52 59t76.5 36.5t93.5 12.5q49 0 92.5 -12.5t76.5 -36.5t52 -59t19 -80q0 -57 -27.5 -96.5t-72.5 -59.5q62 -26 93 -73.5t31 -107.5 q0 -46 -17.5 -85t-51.5 -68t-83 -45.5t-112 -16.5z" />
<glyph unicode="9" horiz-adv-x="594" d="M145 0q36 28 73 63t69.5 72t58.5 75.5t42 74.5q-26 -27 -64.5 -37.5t-71.5 -10.5q-47 0 -87.5 16.5t-70 47t-46.5 74.5t-17 98q0 57 18.5 103.5t52.5 80t82 52t107 18.5q58 0 106 -18t82 -52.5t52.5 -84.5t18.5 -115q0 -67 -18 -128t-49.5 -117.5t-74.5 -109.5t-92 -102 h-171zM424 476q0 64 -34 104t-100 40t-99 -40t-33 -104q0 -65 33 -103.5t99 -38.5t100 39.5t34 102.5z" />
<glyph unicode=":" horiz-adv-x="309" d="M78 457q0 32 22.5 54.5t54.5 22.5t54.5 -22.5t22.5 -54.5t-22.5 -54.5t-54.5 -22.5t-54.5 22.5t-22.5 54.5zM78 67q0 32 22.5 54.5t54.5 22.5t54.5 -22.5t22.5 -54.5t-22.5 -54.5t-54.5 -22.5t-54.5 22.5t-22.5 54.5z" />
<glyph unicode=";" horiz-adv-x="303" d="M78 457q0 32 22.5 54.5t54.5 22.5t54.5 -22.5t22.5 -54.5t-22.5 -54.5t-54.5 -22.5t-54.5 22.5t-22.5 54.5zM153 -4q-30 0 -52.5 20.5t-22.5 52.5q0 28 19.5 51.5t55.5 23.5q33 0 56 -24.5t23 -75.5q0 -56 -33 -103.5t-84 -79.5l-33 48q29 16 49 40t22 47z" />
<glyph unicode="&#x3c;" d="M402 15l-291 290l291 291l69 -69l-222 -222l222 -222z" />
<glyph unicode="=" d="M57 356v99h495v-99h-495zM57 153v99h495v-99h-495z" />
<glyph unicode="&#x3e;" d="M206 15l-68 68l223 222l-223 222l68 69l292 -291z" />
<glyph unicode="?" horiz-adv-x="532" d="M487 522q0 -44 -15 -76t-38 -56t-49 -42t-49 -34.5t-38 -34t-15 -40.5v-25h-114v28q0 38 14.5 64t35.5 46.5t46.5 37.5t46.5 35t35.5 39.5t14.5 52.5q0 42 -30 72t-90 30q-85 0 -152 -62l-61 83q47 40 101.5 62.5t120.5 22.5q51 0 94.5 -14.5t75 -41t49 -64t17.5 -83.5z M151 67q0 32 22.5 54.5t54.5 22.5t54.5 -22.5t22.5 -54.5t-22.5 -54.5t-54.5 -22.5t-54.5 22.5t-22.5 54.5z" />
<glyph unicode="@" horiz-adv-x="849" d="M531 215q-23 -35 -56.5 -51.5t-74.5 -16.5q-40 0 -71.5 15.5t-54 42.5t-34.5 63.5t-12 78.5t12 78.5t34.5 63.5t54.5 42.5t72 15.5q32 0 59.5 -13t50.5 -40v45h94v-268q0 -26 11 -44.5t43 -18.5q44 0 66 40t22 102q0 67 -22 125t-62.5 100.5t-98.5 66.5t-131 24 t-131.5 -25.5t-100 -68.5t-63.5 -101t-22 -122q0 -65 22.5 -122.5t63.5 -100.5t99.5 -68t130.5 -25q44 0 84.5 10.5t75.5 33.5l29 -55q-41 -23 -89.5 -36.5t-102.5 -13.5q-87 0 -158.5 29t-122 79.5t-78.5 119.5t-28 149q0 79 28 148t79 120t122.5 80.5t159.5 29.5 q87 0 157.5 -29.5t120.5 -80t77.5 -118t27.5 -144.5q0 -47 -11.5 -85t-33.5 -65t-52.5 -41.5t-68.5 -14.5q-32 0 -65.5 14t-51.5 52zM511 347q0 24 -6 46t-18 38.5t-29.5 26t-41.5 9.5q-23 0 -40 -9.5t-28.5 -26t-17.5 -38.5t-6 -46q0 -25 6 -46.5t17.5 -38t28.5 -26 t40 -9.5q24 0 42 9.5t29.5 26t17.5 38t6 46.5z" />
<glyph unicode="A" horiz-adv-x="691" d="M550 0l-64 184h-286l-65 -184h-129l271 714h138l270 -714h-135zM344 593l-110 -306h217z" />
<glyph unicode="B" horiz-adv-x="690" d="M647 204q0 -43 -16 -80.5t-48.5 -65t-80 -43t-110.5 -15.5h-310v714h290q118 0 182.5 -47.5t64.5 -129.5q0 -56 -28 -94t-75 -61q65 -23 98 -70t33 -108zM496 518q0 25 -10 42t-27 27t-40 14t-50 4h-165v-183h165q55 0 91 23t36 73zM521 214q0 51 -36 78.5t-102 27.5 h-179v-212h184q63 0 98 27.5t35 78.5z" />
<glyph unicode="C" horiz-adv-x="705" d="M579 513q-32 53 -80.5 78.5t-107.5 25.5q-52 0 -93 -19t-69.5 -53.5t-43.5 -82.5t-15 -105q0 -58 15 -105.5t44 -82t71 -53.5t95 -19q66 0 112 29t78 82l91 -69q-48 -72 -118 -112t-165 -40q-78 0 -143 27t-111 76t-71.5 117t-25.5 149q0 82 25.5 150t71.5 117 t109.5 76.5t140.5 27.5q94 0 164.5 -39.5t118.5 -108.5z" />
<glyph unicode="D" horiz-adv-x="751" d="M360 110q54 0 95.5 17.5t69 50t42 78t14.5 101.5t-14.5 101.5t-42 78t-69 50t-95.5 17.5h-156v-494h156zM82 0v714h278q83 0 148 -27t109.5 -75t67.5 -113.5t23 -141.5t-23 -141.5t-67.5 -113.5t-109.5 -75t-148 -27h-278z" />
<glyph unicode="E" horiz-adv-x="637" d="M82 0v714h500v-110h-378v-182h337v-102h-337v-210h388v-110h-510z" />
<glyph unicode="F" d="M204 604v-182h336v-102h-336v-320h-122v714h498v-110h-376z" />
<glyph unicode="G" horiz-adv-x="758" d="M395 617q-53 0 -95 -19t-71 -53.5t-44 -82t-15 -105.5q0 -59 15.5 -107.5t44 -82.5t70 -52.5t92.5 -18.5q41 0 77.5 12t64 35.5t45 57.5t20.5 79h-193v103h312q5 -25 5 -60q0 -69 -23 -130.5t-65.5 -107t-104 -72t-139.5 -26.5t-142.5 27.5t-110 77t-71 117.5t-25.5 149 q0 82 26 150t72.5 116.5t111 75.5t142.5 27q98 0 168 -40.5t116 -106.5l-95 -65q-31 52 -79.5 77t-108.5 25z" />
<glyph unicode="H" horiz-adv-x="755" d="M551 0v321h-347v-321h-122v714h122v-284h347v284h122v-714h-122z" />
<glyph unicode="I" horiz-adv-x="286" d="M82 0v714h122v-714h-122z" />
<glyph unicode="J" horiz-adv-x="534" d="M336 714h122v-469q0 -129 -63 -193.5t-170 -64.5q-75 0 -128.5 32.5t-82.5 88.5l96 57q20 -38 50 -54t64 -16q60 0 86 35.5t26 98.5v485z" />
<glyph unicode="K" horiz-adv-x="690" d="M542 0l-221 330l-117 -135v-195h-122v714h122v-359l309 359h150l-257 -293l285 -421h-149z" />
<glyph unicode="L" horiz-adv-x="592" d="M82 0v714h122v-604h371v-110h-493z" />
<glyph unicode="M" horiz-adv-x="906" d="M703 0v552l-206 -552h-90l-207 551v-551h-118v714h174l197 -533l200 533h171v-714h-121z" />
<glyph unicode="N" horiz-adv-x="755" d="M673 0h-120l-354 535v-535h-117v714h131l343 -520v520h117v-714z" />
<glyph unicode="O" horiz-adv-x="779" d="M738 357q0 -78 -24.5 -146t-70 -117.5t-110 -78t-143.5 -28.5q-80 0 -144 28.5t-110 78t-70.5 117.5t-24.5 146t24.5 146t70.5 117.5t110 78t144 28.5q79 0 143.5 -28.5t110 -78t70 -117.5t24.5 -146zM611 357q0 56 -15 103t-43.5 81.5t-69.5 54t-93 19.5q-53 0 -94 -19 t-69 -53.5t-43 -82t-15 -103.5t15 -103.5t43 -82t69 -53.5t94 -19q52 0 93 19t69.5 53.5t43.5 82t15 103.5z" />
<glyph unicode="P" horiz-adv-x="659" d="M365 376q72 0 107 31t35 85t-35 83t-107 29h-161v-228h161zM204 266v-266h-122v714h283q130 0 198.5 -59.5t68.5 -162.5q0 -51 -17.5 -92.5t-51 -71t-83.5 -46t-115 -16.5h-161z" />
<glyph unicode="Q" horiz-adv-x="779" d="M738 357q0 -85 -28 -156t-81 -122l55 -65l-80 -66l-61 73q-70 -34 -153 -34q-80 0 -144 28.5t-110 78t-70.5 117.5t-24.5 146t24.5 145.5t70.5 117.5t110 78.5t144 28.5q79 0 143.5 -28.5t110 -78.5t70 -117.5t24.5 -145.5zM611 357q0 56 -15 103t-43.5 81.5t-69.5 54 t-93 19.5q-53 0 -94 -19t-69 -53.5t-43 -82t-15 -103.5t15 -103.5t43 -82t69 -54t94 -19.5q41 0 78 16l-79 99l76 61l84 -103q30 34 46 81t16 105z" />
<glyph unicode="R" horiz-adv-x="681" d="M513 0l-160 275h-149v-275h-122v714h301q62 0 110 -15.5t80.5 -44t49.5 -67.5t17 -87q0 -79 -44.5 -131.5t-117.5 -75.5l171 -293h-136zM515 493q0 51 -35 81t-100 30h-176v-226h168q66 0 104.5 30.5t38.5 84.5z" />
<glyph unicode="S" horiz-adv-x="642" d="M313 727q87 0 158.5 -33.5t116.5 -93.5l-87 -70q-30 42 -80 66t-109 24q-26 0 -49.5 -5t-41 -16t-28 -28t-10.5 -42q0 -26 12 -42.5t32 -27.5t47.5 -18t58.5 -14q53 -12 101.5 -27.5t85.5 -39.5t59 -60t22 -90q0 -50 -19.5 -91.5t-56 -70.5t-88.5 -45t-116 -16 q-101 0 -176 38t-119 104l91 73q37 -57 93 -83t119 -26q69 0 108.5 28t39.5 79q0 30 -18 49t-47 32t-66.5 22t-77 19t-77 23.5t-66.5 36t-47 56t-18 82.5t19 87.5t52.5 65t80 40.5t101.5 14z" />
<glyph unicode="T" horiz-adv-x="636" d="M379 604v-604h-122v604h-231v110h584v-110h-231z" />
<glyph unicode="U" horiz-adv-x="724" d="M649 265q0 -65 -21 -116.5t-59.5 -87.5t-91.5 -55t-116 -19q-64 0 -116.5 19t-90 55t-58.5 87.5t-21 116.5v449h122v-449q0 -77 43 -121t121 -44t122 44t44 121v449h122v-449z" />
<glyph unicode="V" horiz-adv-x="651" d="M644 714l-253 -714h-131l-253 714h133l185 -570l188 570h131z" />
<glyph unicode="W" horiz-adv-x="966" d="M759 0h-128l-149 522l-149 -522h-128l-183 714h131l124 -531l153 531h106l154 -533l124 533h132z" />
<glyph unicode="X" horiz-adv-x="673" d="M521 0l-185 281l-186 -281h-147l255 373l-234 341h145l169 -256l167 256h143l-234 -341l256 -373h-149z" />
<glyph unicode="Y" horiz-adv-x="636" d="M381 298v-298h-124v297l-255 417h142l176 -302l176 302h139z" />
<glyph unicode="Z" horiz-adv-x="641" d="M39 0v100l387 504h-371v110h535v-96l-389 -508h398v-110h-560z" />
<glyph unicode="[" horiz-adv-x="323" d="M80 -118v902h219v-82h-118v-739h118v-81h-219z" />
<glyph unicode="\" horiz-adv-x="376" d="M249 0l-220 714h96l220 -714h-96z" />
<glyph unicode="]" horiz-adv-x="323" d="M24 -118v81h118v739h-118v82h219v-902h-219z" />
<glyph unicode="^" d="M511 414l-206 206l-205 -206l-69 70l231 230h87l230 -230z" />
<glyph unicode="_" horiz-adv-x="580" d="M0 -125v50h580v-50h-580z" />
<glyph unicode="`" horiz-adv-x="321" d="M152 585l-95 125l92 34l92 -159h-89z" />
<glyph unicode="a" horiz-adv-x="574" d="M375 270q-10 -11 -24 -17t-30.5 -10t-34 -6t-34.5 -5q-20 -3 -37.5 -7.5t-31 -13t-21.5 -22t-8 -35.5q0 -41 26.5 -59t66.5 -18q25 0 48 7t41 22t28.5 37.5t10.5 54.5v72zM223 -13q-41 0 -75 11t-59 32t-38.5 52t-13.5 70q0 40 14.5 67.5t40 45.5t60 27.5t75.5 14.5 q25 3 51.5 5.5t48 9.5t35 19t13.5 35q0 33 -29.5 48.5t-74.5 15.5q-42 0 -84 -13.5t-80 -40.5l-47 86q98 65 217 65q48 0 87 -10.5t67.5 -32t44 -55t15.5 -79.5v-236q0 -47 33 -47q16 0 27 8l13 -80q-11 -7 -31.5 -10.5t-37.5 -3.5q-35 0 -64.5 18t-38.5 56 q-26 -38 -69.5 -58t-99.5 -20z" />
<glyph unicode="b" horiz-adv-x="645" d="M189 714v-264q35 46 79.5 66t95.5 20q56 0 100.5 -21t76 -57.5t48.5 -86.5t17 -108q0 -59 -17 -109t-48.5 -87t-76 -58t-100.5 -21q-51 0 -95.5 20.5t-79.5 66.5v-75h-116v714h116zM189 262q0 -36 9.5 -67t28 -54.5t46.5 -36.5t65 -13q36 0 63.5 13t45.5 36.5t27 54.5 t9 67q0 35 -9 66.5t-27 55t-45 37t-64 13.5t-65 -13.5t-46.5 -37t-28 -54.5t-9.5 -67z" />
<glyph unicode="c" horiz-adv-x="545" d="M299 536q79 0 131.5 -33t83.5 -79l-82 -60q-23 35 -53 53t-73 18q-69 0 -107 -48.5t-38 -124.5q0 -38 10 -69.5t29 -54.5t46 -36t62 -13q48 0 81 21.5t56 54.5l76 -66q-17 -22 -39 -42t-49.5 -35.5t-60.5 -24.5t-73 -9q-59 0 -107 20.5t-82 57.5t-52.5 87t-18.5 109 t18.5 109.5t52.5 87t82 57t107 20.5z" />
<glyph unicode="d" horiz-adv-x="645" d="M457 0v74q-35 -45 -80 -65.5t-96 -20.5q-56 0 -100.5 21t-76 57.5t-48 86.5t-16.5 108q0 59 16.5 109.5t48 87t76 57.5t100.5 21q51 0 96 -20.5t80 -65.5v264h116v-714h-116zM457 262q0 36 -9.5 67t-28.5 54.5t-47 37t-65 13.5q-36 0 -63.5 -13.5t-45.5 -37t-27 -54.5 t-9 -67q0 -35 9 -66.5t27 -54.5t45 -36.5t64 -13.5t65 13.5t47 36.5t28.5 54t9.5 67z" />
<glyph unicode="e" horiz-adv-x="592" d="M440 315q-2 33 -13.5 57.5t-30 40.5t-42.5 24t-51 8q-60 0 -96.5 -35t-41.5 -95h275zM39 259q0 59 18 109.5t52 88t83 59t111 21.5q59 0 106 -19.5t80 -54t50.5 -82t17.5 -103.5q0 -13 -1 -24t-2 -19h-391q2 -70 45.5 -107.5t110.5 -37.5q97 0 151 69l77 -67 q-19 -22 -42.5 -41t-52.5 -33t-63.5 -22t-76.5 -8q-66 0 -117 20.5t-85.5 57t-52.5 86t-18 107.5z" />
<glyph unicode="f" horiz-adv-x="356" d="M339 623q-11 3 -24.5 6.5t-32.5 3.5q-27 0 -43 -13.5t-16 -45.5v-50h113v-92h-113v-432h-116v432h-84v92h84v50q0 72 43.5 112t121.5 40q23 0 43.5 -3.5t37.5 -8.5z" />
<glyph unicode="g" horiz-adv-x="645" d="M573 94q0 -61 -12.5 -109.5t-44.5 -85.5q-20 -24 -46.5 -39.5t-56 -25.5t-61.5 -14t-63 -4q-128 0 -220 60l48 92q33 -24 76.5 -38t93.5 -14q36 0 67 8.5t54 26.5t36 46.5t13 69.5v45q-29 -40 -73.5 -64.5t-104.5 -24.5q-54 0 -98 20t-75.5 55t-48.5 81t-17 99t17.5 100 t49 82.5t76 56t98.5 20.5q53 0 98.5 -20.5t77.5 -65.5v73h116v-430zM457 281q0 31 -9.5 59.5t-28.5 50t-47 34t-65 12.5q-36 0 -63.5 -12.5t-45.5 -34.5t-27 -50.5t-9 -59.5t9 -59.5t27 -50.5t45.5 -35t63.5 -13t64 13t47 34.5t29 50.5t10 61z" />
<glyph unicode="h" d="M73 0v714h116v-264q32 42 74.5 64t95.5 22q88 0 134.5 -53t46.5 -141v-342h-116v315q0 21 -4 41.5t-15.5 37t-31.5 27t-51 10.5q-28 0 -52.5 -9.5t-42.5 -27.5t-28 -43.5t-10 -57.5v-293h-116z" />
<glyph unicode="i" horiz-adv-x="261" d="M73 0v524h116v-524h-116zM63 664q0 29 19 48.5t48 19.5t48.5 -19.5t19.5 -48.5t-19.5 -48t-48.5 -19t-48 19t-19 48z" />
<glyph unicode="j" horiz-adv-x="270" d="M199 1q0 -47 -12.5 -81.5t-35 -57.5t-53.5 -34t-68 -11q-26 0 -49 5t-39 15l24 90q9 -6 21 -10.5t29 -4.5q35 0 51 22t16 62v528h116v-523zM73 664q0 29 19 48.5t48 19.5t48.5 -19.5t19.5 -48.5t-19.5 -48t-48.5 -19t-48 19t-19 48z" />
<glyph unicode="k" horiz-adv-x="583" d="M415 524h140l-199 -209l224 -315h-141l-163 238l-89 -95v-143h-116v714h116v-437z" />
<glyph unicode="l" horiz-adv-x="261" d="M73 0v714h116v-714h-116z" />
<glyph unicode="m" horiz-adv-x="929" d="M73 524h116v-73q32 42 71 63.5t90 21.5q58 0 96.5 -25.5t56.5 -72.5q69 98 181 98q86 0 131 -52.5t45 -138.5v-345h-116v317q0 21 -4 41.5t-14.5 36.5t-29 26t-48.5 10q-54 0 -89 -36.5t-35 -99.5v-295h-115v317q0 21 -4 41.5t-14.5 36.5t-29 26t-48.5 10 q-55 0 -89.5 -36.5t-34.5 -99.5v-295h-116v524z" />
<glyph unicode="n" d="M73 0v524h116v-74q32 42 74.5 64t95.5 22q88 0 134.5 -53t46.5 -141v-342h-116v315q0 21 -4 41.5t-15.5 37t-31.5 27t-51 10.5q-28 0 -52.5 -9.5t-42.5 -27.5t-28 -43.5t-10 -57.5v-293h-116z" />
<glyph unicode="o" horiz-adv-x="613" d="M574 261q0 -60 -19 -110t-53.5 -86.5t-84.5 -56.5t-111 -20q-62 0 -111 20t-84 56.5t-53.5 86.5t-18.5 110q0 61 18.5 111.5t53.5 87t84 56.5t111 20q61 0 111 -20t84.5 -56.5t53.5 -87t19 -111.5zM451 261q0 38 -9.5 70t-28 55.5t-45.5 36.5t-62 13t-62 -13t-45 -36.5 t-27.5 -55.5t-9.5 -70q0 -37 9.5 -68.5t27.5 -55t45 -36.5t62 -13t62 13t45.5 36.5t28 55t9.5 68.5z" />
<glyph unicode="p" horiz-adv-x="645" d="M189 524v-74q35 46 79.5 66t95.5 20q56 0 100.5 -21t76 -57.5t48.5 -86.5t17 -108q0 -59 -17 -109t-48.5 -87t-76 -58t-100.5 -21q-51 0 -95.5 20.5t-79.5 66.5v-249h-116v698h116zM189 262q0 -36 9.5 -67t28 -54t46.5 -36.5t65 -13.5q36 0 63.5 13.5t45.5 36.5t27 54 t9 67q0 35 -9 66.5t-27 55t-45 37t-64 13.5t-65 -13.5t-46.5 -37t-28 -54.5t-9.5 -67z" />
<glyph unicode="q" horiz-adv-x="645" d="M457 -174v248q-35 -45 -80 -65.5t-96 -20.5q-56 0 -100.5 21t-76 57.5t-48 86.5t-16.5 108q0 59 16.5 109.5t48 87t76 57.5t100.5 21q51 0 96 -20.5t80 -65.5v74h116v-698h-116zM457 262q0 36 -9.5 67t-28.5 54.5t-47 37t-65 13.5q-36 0 -63.5 -13.5t-45.5 -37t-27 -54.5 t-9 -67q0 -35 9 -66.5t27 -54.5t45 -36.5t64 -13.5t65 13.5t47 36.5t28.5 54t9.5 67z" />
<glyph unicode="r" horiz-adv-x="397" d="M367 408q-20 11 -51 11q-54 0 -90.5 -42t-36.5 -117v-260h-116v524h116v-86q24 45 62.5 70.5t83.5 25.5q17 0 33.5 -3t25.5 -8z" />
<glyph unicode="s" horiz-adv-x="524" d="M486 162q0 -39 -16.5 -71.5t-45.5 -55t-70.5 -35t-90.5 -12.5q-82 0 -142 30.5t-97 75.5l79 64q55 -78 163 -78q54 0 80.5 19t26.5 50q0 21 -11 33t-29.5 19t-43 11t-50.5 9q-35 6 -68.5 17t-59.5 29t-41.5 44.5t-15.5 65.5q0 37 15 66.5t41.5 50.5t63.5 32t82 11 q75 0 128.5 -28t88.5 -69l-73 -60q-20 26 -56 46t-90 20q-45 0 -67.5 -16t-22.5 -43q0 -17 8.5 -28t24.5 -18.5t37 -12.5t47 -9q40 -8 77 -18t65.5 -27t45.5 -44t17 -68z" />
<glyph unicode="t" horiz-adv-x="420" d="M406 26q-23 -18 -55 -28t-71 -10q-45 0 -80.5 15.5t-58.5 50.5q-14 21 -20.5 47t-6.5 64v267h-93v84q29 3 50.5 10t35.5 23t22 43.5t10 69.5h91v-138h158v-92h-158v-264q0 -42 18 -60t50 -18q45 0 74 24z" />
<glyph unicode="u" d="M536 524v-524h-116v74q-32 -42 -74.5 -64t-95.5 -22q-87 0 -134 53.5t-47 140.5v342h116v-296q0 -23 2.5 -47t12.5 -43.5t30.5 -32t55.5 -12.5q63 0 98.5 41.5t35.5 114.5v275h116z" />
<glyph unicode="v" horiz-adv-x="553" d="M336 0h-119l-208 524h130l139 -388l139 388h127z" />
<glyph unicode="w" horiz-adv-x="807" d="M637 0h-121l-112 378l-114 -378h-121l-146 524h126l90 -381l116 381h100l114 -381l92 381h122z" />
<glyph unicode="x" horiz-adv-x="561" d="M410 0l-130 196l-130 -196h-141l196 273l-178 251h138l117 -178l116 178h136l-178 -251l194 -273h-140z" />
<glyph unicode="y" horiz-adv-x="552" d="M334 -21q-15 -40 -32.5 -70.5t-39.5 -51t-51 -31t-67 -10.5q-31 0 -59.5 7t-50.5 22l36 89q24 -21 61 -21q32 0 50.5 19t32.5 48l12 28l-218 516h132l147 -371l131 371h124z" />
<glyph unicode="z" horiz-adv-x="522" d="M37 0v88l277 335h-264v101h423v-85l-280 -338h289v-101h-445z" />
<glyph unicode="{" horiz-adv-x="352" d="M17 292v80h29q24 0 38.5 8t23 21.5t11.5 31.5t3 38v143q0 86 46 127.5t120 41.5h41v-80h-26q-27 0 -43 -9t-24.5 -25t-11 -38t-2.5 -48v-109q0 -110 -89 -142q52 -18 70.5 -59.5t18.5 -107.5v-110q0 -42 18 -68t63 -26h26v-80h-41q-74 0 -120 41t-46 127v144q0 21 -3 39 t-11.5 31.5t-23 21t-38.5 7.5h-29z" />
<glyph unicode="|" horiz-adv-x="235" d="M73 -108v822h89v-822h-89z" />
<glyph unicode="}" horiz-adv-x="352" d="M306 292q-44 0 -60 -25t-16 -65v-153q0 -87 -46.5 -127.5t-120.5 -40.5h-40v80h26q45 0 63 25.5t18 68.5v109q0 67 18.5 108.5t70.5 59.5q-52 19 -70.5 60t-18.5 107v109q0 43 -18 68.5t-63 25.5h-26v81h40q74 0 120.5 -41.5t46.5 -127.5v-153q0 -38 16 -63.5t60 -25.5 h29v-80h-29z" />
<glyph unicode="~" d="M42 273q13 21 28 40.5t33 35t39.5 26t47.5 12.5q14 2 29 0q19 -3 46.5 -13.5t56 -22.5t53.5 -21.5t40 -9.5q29 0 54.5 14t48.5 40l50 -39q-12 -20 -27.5 -40t-33.5 -35.5t-39.5 -26t-46.5 -12.5q-16 -1 -30 0q-19 3 -46 14t-55 23t-53.5 21.5t-41.5 9.5q-29 0 -54.5 -15 t-47.5 -41z" />
<glyph unicode="&#xa1;" horiz-adv-x="282" d="M64 458q0 32 22.5 54.5t54.5 22.5t54.5 -22.5t22.5 -54.5t-22.5 -54.5t-54.5 -22.5t-54.5 22.5t-22.5 54.5zM105 308h72l34 -482h-140z" />
<glyph unicode="&#xa2;" d="M444 365q-18 28 -42 46t-56 23v-344q35 5 61 25t45 47l80 -65q-30 -42 -76 -71.5t-110 -35.5v-84h-57v84q-54 4 -97.5 26.5t-73.5 59t-46.5 84t-16.5 103.5q0 55 16.5 103t47 84.5t73.5 58.5t97 27v83h57v-84q66 -7 111.5 -39.5t73.5 -75.5zM173 263q0 -69 30.5 -114.5 t85.5 -56.5v341q-54 -10 -85 -55.5t-31 -114.5z" />
<glyph unicode="&#xa3;" d="M586 130q-18 -66 -60.5 -104t-100.5 -38q-29 0 -54.5 7.5t-50.5 16t-50.5 16t-52.5 7.5q-30 0 -68.5 -11.5t-80.5 -36.5l-43 90q62 34 86 71t24 75q0 35 -14 74h-97v80h68q-15 35 -24 68t-9 72q0 49 19.5 88t53.5 66.5t79.5 42t96.5 14.5q85 0 148 -38t106 -108l-102 -54 q-22 38 -57 62.5t-89 24.5q-27 0 -50 -7t-40.5 -21.5t-27.5 -36t-10 -50.5q0 -32 10 -61.5t24 -61.5h198v-80h-177q3 -17 3 -34q0 -35 -9 -73t-42 -72q23 11 47.5 13.5t33.5 2.5q22 0 41.5 -5t38 -11t35 -11t32.5 -5q45 0 69 60z" />
<glyph unicode="&#xa4;" horiz-adv-x="575" d="M171 304q0 -24 9 -45.5t24.5 -37.5t37 -25t45.5 -9t45.5 9t37 25t24.5 37.5t9 45.5t-9 45t-24.5 36.5t-37 24.5t-45.5 9t-45.5 -9t-37 -24.5t-24.5 -36.5t-9 -45zM94 304q0 54 28 101l-73 74l64 64l73 -75q44 29 101 29q58 0 100 -30l75 76l63 -64l-74 -75 q14 -22 21.5 -47.5t7.5 -52.5q0 -29 -7.5 -54t-21.5 -46l74 -74l-63 -65l-75 74q-21 -14 -46.5 -21.5t-53.5 -7.5t-53.5 7.5t-47.5 21.5l-73 -74l-64 65l73 72q-28 47 -28 102z" />
<glyph unicode="&#xa5;" d="M407 375h140v-60h-171l-14 -27v-60h185v-61h-185v-167h-122v167h-186v61h186v59l-14 28h-172v60h141l-167 339h140l135 -313l134 313h139z" />
<glyph unicode="&#xa6;" horiz-adv-x="282" d="M105 446v316h70v-316h-70zM105 -60v316h70v-316h-70z" />
<glyph unicode="&#xa7;" horiz-adv-x="566" d="M258 153q-42 25 -81 54.5t-69.5 66t-49 81.5t-18.5 101q0 57 19 106.5t54.5 86t86.5 57.5t114 21q59 0 110 -18.5t92 -53.5l-64 -82q-26 25 -60.5 39t-79.5 14q-81 0 -126 -59l125 -78q42 -26 80.5 -55.5t68 -65.5t46.5 -79.5t17 -98.5q0 -57 -19 -106.5t-54 -86 t-86 -57.5t-114 -21q-58 0 -109.5 18t-92.5 54l63 81q26 -24 59.5 -38t76.5 -14q44 0 76 14t55 45zM420 195q0 38 -12.5 68t-36 56t-57.5 52t-78 56l-88 61q-2 -8 -3 -17t-1 -18q0 -39 11.5 -69t34.5 -56t58 -52t80 -57l89 -61q2 14 2.5 22.5t0.5 14.5z" />
<glyph unicode="&#xa8;" horiz-adv-x="321" d="M6 642q0 23 16.5 40t39.5 17q24 0 40.5 -16.5t16.5 -40.5q0 -23 -16.5 -39.5t-40.5 -16.5q-23 0 -39.5 16.5t-16.5 39.5zM201 642q0 23 16.5 40t39.5 17q24 0 40.5 -16.5t16.5 -40.5q0 -23 -16.5 -39.5t-40.5 -16.5q-23 0 -39.5 16.5t-16.5 39.5z" />
<glyph unicode="&#xa9;" horiz-adv-x="814" d="M593 246q-32 -53 -80.5 -81t-104.5 -28q-44 0 -82.5 17t-67.5 46t-45.5 67.5t-16.5 82.5t16.5 83t45.5 68t67.5 45.5t82.5 16.5q55 0 103 -27t80 -81l-71 -47q-20 34 -49 51.5t-63 17.5q-26 0 -48.5 -10t-39 -27.5t-26.5 -40.5t-10 -49t10 -49t26.5 -40.5t39 -27.5 t48.5 -10q72 0 113 69zM38 350q0 76 29 143.5t79 117t117 78.5t144 29q76 0 143 -29t117 -78.5t79 -117t29 -143.5q0 -77 -29 -144t-79 -117t-117 -79t-143 -29q-77 0 -144 29t-117 79t-79 117t-29 144zM98 350q0 -64 24.5 -120.5t66.5 -98.5t98 -66.5t120 -24.5t120 24.5 t98 66.5t66.5 98.5t24.5 120.5t-24.5 120t-66.5 98t-98 66.5t-120 24.5t-120 -24.5t-98 -66.5t-66.5 -98t-24.5 -120z" />
<glyph unicode="&#xaa;" horiz-adv-x="443" d="M401 381q-10 -5 -26 -7t-25 -2q-26 0 -45.5 9.5t-27.5 32.5q-23 -26 -52.5 -35.5t-61.5 -9.5q-52 0 -86 27.5t-34 78.5q0 38 16 58.5t40.5 30.5t53 13t53 6t40.5 9.5t16 22.5q0 10 -6 17t-15.5 11.5t-21.5 6t-23 1.5q-26 0 -55 -8.5t-53 -25.5l-33 62q32 22 71.5 32.5 t77.5 10.5q72 0 108.5 -30.5t36.5 -99.5v-132q0 -24 20 -24q3 0 9 1.5t11 3.5zM263 546q-13 -11 -29 -15.5t-42 -7.5q-28 -5 -47 -12t-19 -33q0 -23 16.5 -33t38.5 -10q33 0 57.5 17t24.5 54v40z" />
<glyph unicode="&#xab;" horiz-adv-x="473" d="M27 302l156 206l62 -48l-123 -178l123 -180l-62 -47l-156 206v41zM213 302l156 206l62 -48l-122 -178l122 -180l-62 -47l-156 206v41z" />
<glyph unicode="&#xac;" horiz-adv-x="576" d="M439 60v199h-399v90h488v-289h-89z" />
<glyph unicode="&#xad;" horiz-adv-x="402" d="M58 229v104h286v-104h-286z" />
<glyph unicode="&#xae;" horiz-adv-x="415" d="M375 558q0 -35 -13 -65t-36 -53t-53.5 -36t-64.5 -13q-35 0 -65.5 13t-53.5 36t-36 53t-13 65t13 65.5t36 53.5t53.5 36t65.5 13q34 0 64.5 -13t53.5 -36t36 -53.5t13 -65.5zM351 558q0 30 -11.5 56t-31 45.5t-45.5 31t-55 11.5q-30 0 -56 -11.5t-45.5 -31t-30.5 -45.5 t-11 -56t11 -56t30.5 -45.5t45.5 -30.5t56 -11q29 0 55 11t45.5 30.5t31 45.5t11.5 56zM290 469h-46l-29 63h-36v-63h-42v180h85q29 0 46.5 -16t17.5 -42q0 -41 -34 -52zM243 590q0 16 -9.5 20.5t-21.5 4.5h-33v-50h41q9 0 16 6.5t7 18.5z" />
<glyph unicode="&#xaf;" horiz-adv-x="334" d="M9 605v68h314v-68h-314z" />
<glyph unicode="&#xb0;" horiz-adv-x="381" d="M346 571q0 -32 -12.5 -60t-33.5 -49t-49 -33.5t-60 -12.5t-60.5 12.5t-49.5 33.5t-33 49t-12 60t12 60.5t33 49.5t49.5 33.5t60.5 12.5t60 -12.5t49 -33.5t33.5 -49.5t12.5 -60.5zM268 571q0 16 -6 30.5t-16.5 25t-24.5 16.5t-30 6q-32 0 -55 -23t-23 -55q0 -16 6 -30 t16.5 -24.5t25 -16.5t30.5 -6q32 0 54.5 22.5t22.5 54.5z" />
<glyph unicode="&#xb1;" d="M56 0v98h495v-98h-495zM353 341v-183h-99v183h-198v97h198v184h99v-184h198v-97h-198z" />
<glyph unicode="&#xb2;" horiz-adv-x="398" d="M39 374v67q54 39 94.5 69.5t67.5 56.5t40.5 49.5t13.5 49.5q0 30 -19.5 45.5t-48.5 15.5q-31 0 -55.5 -15.5t-38.5 -41.5l-68 43q27 40 67 67.5t100 27.5q35 0 64 -10t50 -28t32.5 -44t11.5 -57q0 -53 -40.5 -102.5t-131.5 -112.5h187v-80h-326z" />
<glyph unicode="&#xb3;" horiz-adv-x="403" d="M367 498q0 -28 -12 -52t-33.5 -42t-53 -28t-70.5 -10q-60 0 -103 22t-70 54l62 53q17 -21 43.5 -35t64.5 -14q41 0 60.5 16t19.5 40t-17.5 36.5t-48.5 12.5h-55v77h52q20 0 39.5 11t19.5 37t-20.5 39t-50.5 13q-31 0 -57 -11.5t-44 -31.5l-56 55q33 33 71.5 50.5 t88.5 17.5q34 0 63 -8t50 -23.5t32.5 -38t11.5 -51.5q0 -59 -52 -90q35 -14 50 -42t15 -57z" />
<glyph unicode="&#xb4;" horiz-adv-x="321" d="M92 585l92 159l91 -34l-95 -125h-88z" />
<glyph unicode="&#xb6;" horiz-adv-x="565" d="M436 -91v733h-61v-733h-79v383h-50q-45 0 -84 15t-67.5 42.5t-44.5 66.5t-16 87t17 87t45.5 66.5t67 42.5t82.5 15h243v-805h-53z" />
<glyph unicode="&#xb7;" horiz-adv-x="265" d="M209 304q0 -32 -22 -54.5t-54 -22.5t-54.5 22.5t-22.5 54.5t22.5 54.5t54.5 22.5t54 -22.5t22 -54.5z" />
<glyph unicode="&#xb8;" horiz-adv-x="321" d="M113 -200q-24 0 -44.5 3.5t-32.5 8.5v55q14 -9 33 -12t30 -3q27 0 42.5 9.5t15.5 27.5q0 9 -4 13.5t-9 7.5h-57l16 57q9 5 21.5 8t27.5 3q40 0 67.5 -22t27.5 -61q0 -46 -38 -70.5t-96 -24.5z" />
<glyph unicode="&#xb9;" horiz-adv-x="382" d="M270 374h-89v327q-19 -8 -48 -14.5t-58 -10.5l-12 69q98 18 141 55h66v-426z" />
<glyph unicode="&#xba;" horiz-adv-x="433" d="M396 546q0 -39 -12.5 -71.5t-36 -56t-57 -36.5t-74.5 -13q-42 0 -75 13t-56.5 36.5t-36 56t-12.5 71.5t12.5 71t36 55.5t56.5 36.5t75 13q41 0 74.5 -13t57 -36.5t36 -55.5t12.5 -71zM306 546q0 44 -23 73t-67 29q-43 0 -66.5 -29t-23.5 -73t23.5 -72.5t66.5 -28.5 q44 0 67 28.5t23 72.5z" />
<glyph unicode="&#xbb;" horiz-adv-x="474" d="M446 261l-156 -206l-61 47l121 180l-121 178l61 48l156 -206v-41zM260 261l-155 -206l-63 47l123 180l-123 178l63 48l155 -206v-41z" />
<glyph unicode="&#xbc;" horiz-adv-x="1049" d="M270 288h-89v327q-19 -8 -48 -14.5t-58 -10.5l-12 69q98 18 141 55h66v-426zM324 0h-91l479 714h91zM932 92v-92h-86v92h-205v67q24 23 54 59t59 74.5t53 74.5t35 59h90v-258h65v-76h-65zM847 168l1 153q-23 -38 -53.5 -76.5t-63.5 -76.5h116z" />
<glyph unicode="&#xbd;" horiz-adv-x="1049" d="M270 288h-89v327q-19 -8 -48 -14.5t-58 -10.5l-12 69q98 18 141 55h66v-426zM324 0h-91l479 714h91zM657 0v67q54 39 94.5 69.5t67.5 56.5t40.5 49.5t13.5 49.5q0 30 -19.5 45.5t-48.5 15.5q-31 0 -55.5 -15.5t-38.5 -41.5l-68 43q27 40 67 67.5t100 27.5q35 0 64 -10 t50 -28t32.5 -44t11.5 -57q0 -53 -40.5 -102.5t-131.5 -112.5h187v-80h-326z" />
<glyph unicode="&#xbe;" horiz-adv-x="1049" d="M367 412q0 -28 -12 -52t-33.5 -42t-53 -28t-70.5 -10q-60 0 -103 22t-70 54l62 53q17 -21 43.5 -35t64.5 -14q41 0 60.5 16t19.5 40t-17.5 36.5t-48.5 12.5h-55v77h52q20 0 39.5 11t19.5 37t-20.5 39t-50.5 13q-31 0 -57 -11.5t-44 -31.5l-56 55q33 33 71.5 50.5 t88.5 17.5q34 0 63 -8t50 -23.5t32.5 -38t11.5 -51.5q0 -59 -52 -90q35 -14 50 -42t15 -57zM341 0h-91l479 714h91zM932 92v-92h-86v92h-205v67q24 23 54 59t59 74.5t53 74.5t35 59h90v-258h65v-76h-65zM847 168l1 153q-23 -38 -53.5 -76.5t-63.5 -76.5h116z" />
<glyph unicode="&#xbf;" horiz-adv-x="533" d="M54 18q0 44 15 75.5t38 54.5t49 40.5t49 33.5t38 33t15 39v17h114v-20q0 -37 -14.5 -63t-35.5 -45.5t-46.5 -36t-46.5 -34t-35.5 -38.5t-14.5 -51q0 -42 30 -71.5t91 -29.5q84 0 151 62l61 -83q-47 -40 -101.5 -62.5t-120.5 -22.5q-51 0 -94.5 14.5t-75 41t-49 64 t-17.5 82.5zM390 458q0 -32 -22.5 -54.5t-54.5 -22.5t-54.5 22.5t-22.5 54.5t22.5 54.5t54.5 22.5t54.5 -22.5t22.5 -54.5z" />
<glyph unicode="&#xc0;" horiz-adv-x="687" d="M550 0l-64 184h-286l-65 -184h-129l271 714h138l270 -714h-135zM344 593l-110 -306h217zM303 753l-95 125l92 34l92 -159h-89z" />
<glyph unicode="&#xc1;" horiz-adv-x="687" d="M550 0l-64 184h-286l-65 -184h-129l271 714h138l270 -714h-135zM344 593l-110 -306h217zM291 753l92 159l91 -34l-95 -125h-88z" />
<glyph unicode="&#xc2;" horiz-adv-x="687" d="M550 0l-64 184h-286l-65 -184h-129l271 714h138l270 -714h-135zM344 593l-110 -306h217zM389 904q26 -25 56 -50t65 -51l-37 -53l-126 70l-126 -70l-38 53q35 26 65.5 51t55.5 50h85z" />
<glyph unicode="&#xc3;" horiz-adv-x="687" d="M550 0l-64 184h-286l-65 -184h-129l271 714h138l270 -714h-135zM344 593l-110 -306h217zM522 852q-15 -38 -44.5 -65.5t-68.5 -27.5q-20 0 -37 7t-32.5 15t-30 15t-27.5 7q-19 0 -30.5 -12.5t-19.5 -31.5l-60 32q16 38 44.5 65.5t66.5 27.5q19 0 36 -7t32.5 -15.5 t30 -15.5t28.5 -7q35 0 52 45z" />
<glyph unicode="&#xc4;" horiz-adv-x="687" d="M550 0l-64 184h-286l-65 -184h-129l271 714h138l270 -714h-135zM344 593l-110 -306h217zM194 810q0 23 16.5 40t39.5 17q24 0 40.5 -16.5t16.5 -40.5q0 -23 -16.5 -39.5t-40.5 -16.5q-23 0 -39.5 16.5t-16.5 39.5zM389 810q0 23 16.5 40t39.5 17q24 0 40.5 -16.5 t16.5 -40.5q0 -23 -16.5 -39.5t-40.5 -16.5q-23 0 -39.5 16.5t-16.5 39.5z" />
<glyph unicode="&#xc5;" horiz-adv-x="691" d="M343 599l-111 -312h219zM296 763q0 -20 14.5 -34.5t35.5 -14.5q20 0 34.5 14.5t14.5 34.5q0 21 -14.5 35.5t-34.5 14.5q-21 0 -35.5 -14.5t-14.5 -35.5zM238 764q0 21 8 39t22.5 32t34.5 22t43 8q22 0 41.5 -8t34 -22t22.5 -32t8 -39q0 -42 -30 -69l262 -695h-133 l-65 185h-288l-66 -185h-126l262 695q-14 13 -22 30.5t-8 38.5z" />
<glyph unicode="&#xc6;" horiz-adv-x="954" d="M454 0v185h-235l-102 -185h-128l397 714h510v-108h-321v-183h281v-101h-281v-214h331v-108h-452zM454 609l-41 -60l-142 -263h183v323z" />
<glyph unicode="&#xc7;" horiz-adv-x="705" d="M579 513q-32 53 -80.5 78.5t-107.5 25.5q-52 0 -93 -19t-69.5 -53.5t-43.5 -82.5t-15 -105q0 -58 15 -105.5t44 -82t71 -53.5t95 -19q66 0 112 29t78 82l91 -69q-48 -72 -118 -112t-165 -40q-78 0 -143 27t-111 76t-71.5 117t-25.5 149q0 82 25.5 150t71.5 117 t109.5 76.5t140.5 27.5q94 0 164.5 -39.5t118.5 -108.5zM320 -200q-24 0 -44.5 3.5t-32.5 8.5v55q14 -9 33 -12t30 -3q27 0 42.5 9.5t15.5 27.5q0 9 -4 13.5t-9 7.5h-57l16 57q9 5 21.5 8t27.5 3q40 0 67.5 -22t27.5 -61q0 -46 -38 -70.5t-96 -24.5z" />
<glyph unicode="&#xc8;" horiz-adv-x="637" d="M82 0v714h500v-110h-378v-182h337v-102h-337v-210h388v-110h-510zM295 753l-95 125l92 34l92 -159h-89z" />
<glyph unicode="&#xc9;" horiz-adv-x="637" d="M82 0v714h500v-110h-378v-182h337v-102h-337v-210h388v-110h-510zM283 753l92 159l91 -34l-95 -125h-88z" />
<glyph unicode="&#xca;" horiz-adv-x="637" d="M82 0v714h500v-110h-378v-182h337v-102h-337v-210h388v-110h-510zM370 908q26 -25 56 -50t65 -51l-37 -53l-126 70l-126 -70l-38 53q35 26 65.5 51t55.5 50h85z" />
<glyph unicode="&#xcb;" horiz-adv-x="637" d="M82 0v714h500v-110h-378v-182h337v-102h-337v-210h388v-110h-510zM176 810q0 23 16.5 40t39.5 17q24 0 40.5 -16.5t16.5 -40.5q0 -23 -16.5 -39.5t-40.5 -16.5q-23 0 -39.5 16.5t-16.5 39.5zM371 810q0 23 16.5 40t39.5 17q24 0 40.5 -16.5t16.5 -40.5q0 -23 -16.5 -39.5 t-40.5 -16.5q-23 0 -39.5 16.5t-16.5 39.5z" />
<glyph unicode="&#xcc;" horiz-adv-x="286" d="M82 0v714h122v-714h-122zM112 753l-95 125l92 34l92 -159h-89z" />
<glyph unicode="&#xcd;" horiz-adv-x="286" d="M82 0v714h122v-714h-122zM88 753l92 159l91 -34l-95 -125h-88z" />
<glyph unicode="&#xce;" horiz-adv-x="286" d="M82 0v714h122v-714h-122zM185 899q26 -25 56 -50t65 -51l-37 -53l-126 70l-126 -70l-38 53q35 26 65.5 51t55.5 50h85z" />
<glyph unicode="&#xcf;" horiz-adv-x="286" d="M82 0v714h122v-714h-122zM-11 810q0 23 16.5 40t39.5 17q24 0 40.5 -16.5t16.5 -40.5q0 -23 -16.5 -39.5t-40.5 -16.5q-23 0 -39.5 16.5t-16.5 39.5zM184 810q0 23 16.5 40t39.5 17q24 0 40.5 -16.5t16.5 -40.5q0 -23 -16.5 -39.5t-40.5 -16.5q-23 0 -39.5 16.5 t-16.5 39.5z" />
<glyph unicode="&#xd0;" horiz-adv-x="760" d="M91 0v328h-67v69h67v317h278q83 0 148 -27t109.5 -75t67.5 -113.5t23 -141.5t-23 -141.5t-67.5 -113.5t-109.5 -75t-148 -27h-278zM369 110q54 0 95.5 17.5t69 50t42 78t14.5 101.5t-14.5 101.5t-42 78t-69 50t-95.5 17.5h-156v-207h167v-69h-167v-218h156z" />
<glyph unicode="&#xd1;" horiz-adv-x="749" d="M673 0h-120l-354 535v-535h-117v714h131l343 -520v520h117v-714zM541 852q-15 -38 -44.5 -65.5t-68.5 -27.5q-20 0 -37 7t-32.5 15t-30 15t-27.5 7q-19 0 -30.5 -12.5t-19.5 -31.5l-60 32q16 38 44.5 65.5t66.5 27.5q19 0 36 -7t32.5 -15.5t30 -15.5t28.5 -7q35 0 52 45z " />
<glyph unicode="&#xd2;" horiz-adv-x="779" d="M738 357q0 -78 -24.5 -146t-70 -117.5t-110 -78t-143.5 -28.5q-80 0 -144 28.5t-110 78t-70.5 117.5t-24.5 146t24.5 146t70.5 117.5t110 78t144 28.5q79 0 143.5 -28.5t110 -78t70 -117.5t24.5 -146zM611 357q0 56 -15 103t-43.5 81.5t-69.5 54t-93 19.5q-53 0 -94 -19 t-69 -53.5t-43 -82t-15 -103.5t15 -103.5t43 -82t69 -53.5t94 -19q52 0 93 19t69.5 53.5t43.5 82t15 103.5zM360 753l-95 125l92 34l92 -159h-89z" />
<glyph unicode="&#xd3;" horiz-adv-x="779" d="M738 357q0 -78 -24.5 -146t-70 -117.5t-110 -78t-143.5 -28.5q-80 0 -144 28.5t-110 78t-70.5 117.5t-24.5 146t24.5 146t70.5 117.5t110 78t144 28.5q79 0 143.5 -28.5t110 -78t70 -117.5t24.5 -146zM611 357q0 56 -15 103t-43.5 81.5t-69.5 54t-93 19.5q-53 0 -94 -19 t-69 -53.5t-43 -82t-15 -103.5t15 -103.5t43 -82t69 -53.5t94 -19q52 0 93 19t69.5 53.5t43.5 82t15 103.5zM326 753l92 159l91 -34l-95 -125h-88z" />
<glyph unicode="&#xd4;" horiz-adv-x="779" d="M738 357q0 -78 -24.5 -146t-70 -117.5t-110 -78t-143.5 -28.5q-80 0 -144 28.5t-110 78t-70.5 117.5t-24.5 146t24.5 146t70.5 117.5t110 78t144 28.5q79 0 143.5 -28.5t110 -78t70 -117.5t24.5 -146zM611 357q0 56 -15 103t-43.5 81.5t-69.5 54t-93 19.5q-53 0 -94 -19 t-69 -53.5t-43 -82t-15 -103.5t15 -103.5t43 -82t69 -53.5t94 -19q52 0 93 19t69.5 53.5t43.5 82t15 103.5zM432 908q26 -25 56 -50t65 -51l-37 -53l-126 70l-126 -70l-38 53q35 26 65.5 51t55.5 50h85z" />
<glyph unicode="&#xd5;" horiz-adv-x="779" d="M738 357q0 -78 -24.5 -146t-70 -117.5t-110 -78t-143.5 -28.5q-80 0 -144 28.5t-110 78t-70.5 117.5t-24.5 146t24.5 146t70.5 117.5t110 78t144 28.5q79 0 143.5 -28.5t110 -78t70 -117.5t24.5 -146zM611 357q0 56 -15 103t-43.5 81.5t-69.5 54t-93 19.5q-53 0 -94 -19 t-69 -53.5t-43 -82t-15 -103.5t15 -103.5t43 -82t69 -53.5t94 -19q52 0 93 19t69.5 53.5t43.5 82t15 103.5zM566 852q-15 -38 -44.5 -65.5t-68.5 -27.5q-20 0 -37 7t-32.5 15t-30 15t-27.5 7q-19 0 -30.5 -12.5t-19.5 -31.5l-60 32q16 38 44.5 65.5t66.5 27.5q19 0 36 -7 t32.5 -15.5t30 -15.5t28.5 -7q35 0 52 45z" />
<glyph unicode="&#xd6;" horiz-adv-x="779" d="M738 357q0 -78 -24.5 -146t-70 -117.5t-110 -78t-143.5 -28.5q-80 0 -144 28.5t-110 78t-70.5 117.5t-24.5 146t24.5 146t70.5 117.5t110 78t144 28.5q79 0 143.5 -28.5t110 -78t70 -117.5t24.5 -146zM611 357q0 56 -15 103t-43.5 81.5t-69.5 54t-93 19.5q-53 0 -94 -19 t-69 -53.5t-43 -82t-15 -103.5t15 -103.5t43 -82t69 -53.5t94 -19q52 0 93 19t69.5 53.5t43.5 82t15 103.5zM235 810q0 23 16.5 40t39.5 17q24 0 40.5 -16.5t16.5 -40.5q0 -23 -16.5 -39.5t-40.5 -16.5q-23 0 -39.5 16.5t-16.5 39.5zM430 810q0 23 16.5 40t39.5 17 q24 0 40.5 -16.5t16.5 -40.5q0 -23 -16.5 -39.5t-40.5 -16.5q-23 0 -39.5 16.5t-16.5 39.5z" />
<glyph unicode="&#xd7;" d="M478 60l-174 174l-174 -174l-69 70l174 174l-174 174l69 70l174 -174l174 174l70 -70l-174 -174l174 -174z" />
<glyph unicode="&#xd8;" horiz-adv-x="779" d="M625 639q54 -51 83.5 -123t29.5 -159q0 -78 -24.5 -146t-70 -117.5t-110 -78t-143.5 -28.5q-98 0 -175 43l-20 -30h-91l50 74q-54 51 -83.5 123.5t-29.5 159.5q0 78 24.5 146t70.5 117.5t110 78t144 28.5q50 0 93 -11.5t81 -31.5l20 30h91zM611 357q0 54 -14 100t-42 79 l-275 -409q23 -14 50.5 -21t59.5 -7q52 0 93 19t69.5 53.5t43.5 82t15 103.5zM169 357q0 -111 54 -180l276 410q-48 28 -109 28q-53 0 -94 -19t-69 -53.5t-43 -82t-15 -103.5z" />
<glyph unicode="&#xd9;" horiz-adv-x="724" d="M649 265q0 -65 -21 -116.5t-59.5 -87.5t-91.5 -55t-116 -19q-64 0 -116.5 19t-90 55t-58.5 87.5t-21 116.5v449h122v-449q0 -77 43 -121t121 -44t122 44t44 121v449h122v-449zM332 753l-95 125l92 34l92 -159h-89z" />
<glyph unicode="&#xda;" horiz-adv-x="724" d="M649 265q0 -65 -21 -116.5t-59.5 -87.5t-91.5 -55t-116 -19q-64 0 -116.5 19t-90 55t-58.5 87.5t-21 116.5v449h122v-449q0 -77 43 -121t121 -44t122 44t44 121v449h122v-449zM299 753l92 159l91 -34l-95 -125h-88z" />
<glyph unicode="&#xdb;" horiz-adv-x="724" d="M649 265q0 -65 -21 -116.5t-59.5 -87.5t-91.5 -55t-116 -19q-64 0 -116.5 19t-90 55t-58.5 87.5t-21 116.5v449h122v-449q0 -77 43 -121t121 -44t122 44t44 121v449h122v-449zM404 908q26 -25 56 -50t65 -51l-37 -53l-126 70l-126 -70l-38 53q35 26 65.5 51t55.5 50h85z " />
<glyph unicode="&#xdc;" horiz-adv-x="724" d="M649 265q0 -65 -21 -116.5t-59.5 -87.5t-91.5 -55t-116 -19q-64 0 -116.5 19t-90 55t-58.5 87.5t-21 116.5v449h122v-449q0 -77 43 -121t121 -44t122 44t44 121v449h122v-449zM207 810q0 23 16.5 40t39.5 17q24 0 40.5 -16.5t16.5 -40.5q0 -23 -16.5 -39.5t-40.5 -16.5 q-23 0 -39.5 16.5t-16.5 39.5zM402 810q0 23 16.5 40t39.5 17q24 0 40.5 -16.5t16.5 -40.5q0 -23 -16.5 -39.5t-40.5 -16.5q-23 0 -39.5 16.5t-16.5 39.5z" />
<glyph unicode="&#xdd;" horiz-adv-x="636" d="M381 298v-298h-124v297l-255 417h142l176 -302l176 302h139zM259 753l92 159l91 -34l-95 -125h-88z" />
<glyph unicode="&#xde;" horiz-adv-x="657" d="M202 178v-178h-120v714h120v-90h169q125 0 192 -60t67 -161q0 -50 -17.5 -91.5t-50.5 -71t-81 -46t-110 -16.5h-169zM371 287q67 0 101.5 30.5t34.5 85.5q0 54 -34.5 83.5t-101.5 29.5h-169v-229h169z" />
<glyph unicode="&#xdf;" horiz-adv-x="625" d="M587 205q0 -50 -17 -89.5t-48 -68t-74.5 -43.5t-95.5 -15q-33 0 -65 5t-54 16l26 100q14 -8 35.5 -13t45.5 -5q57 0 91 32.5t34 89.5q0 31 -10.5 53t-29.5 35.5t-46 20t-59 6.5h-54v98h52q50 0 84.5 24.5t34.5 75.5q0 27 -10.5 46t-27.5 31t-39 17.5t-46 5.5 q-57 0 -92 -30.5t-35 -90.5v-506h-116v508q0 50 17 90.5t48.5 69t77 43.5t102.5 15q50 0 93 -12t75 -36t50.5 -59t18.5 -80q0 -48 -23.5 -87.5t-71.5 -65.5q25 -8 48.5 -22.5t41.5 -36.5t28.5 -52t10.5 -70z" />
<glyph unicode="&#xe0;" horiz-adv-x="575" d="M380 270q-10 -11 -24 -17t-30.5 -10t-34 -6t-34.5 -5q-20 -3 -37.5 -7.5t-31 -13t-21.5 -22t-8 -35.5q0 -41 26.5 -59t66.5 -18q25 0 48 7t41 22t28.5 37.5t10.5 54.5v72zM228 -13q-41 0 -75 11t-59 32t-38.5 52t-13.5 70q0 40 14.5 67.5t40 45.5t60 27.5t75.5 14.5 q25 3 51.5 5.5t48 9.5t35 19t13.5 35q0 33 -29.5 48.5t-74.5 15.5q-42 0 -84 -13.5t-80 -40.5l-47 86q98 65 217 65q48 0 87 -10.5t67.5 -32t44 -55t15.5 -79.5v-236q0 -47 33 -47q16 0 27 8l13 -80q-11 -7 -31.5 -10.5t-37.5 -3.5q-35 0 -64.5 18t-38.5 56 q-26 -38 -69.5 -58t-99.5 -20zM248 585l-95 125l92 34l92 -159h-89z" />
<glyph unicode="&#xe1;" horiz-adv-x="575" d="M380 270q-10 -11 -24 -17t-30.5 -10t-34 -6t-34.5 -5q-20 -3 -37.5 -7.5t-31 -13t-21.5 -22t-8 -35.5q0 -41 26.5 -59t66.5 -18q25 0 48 7t41 22t28.5 37.5t10.5 54.5v72zM228 -13q-41 0 -75 11t-59 32t-38.5 52t-13.5 70q0 40 14.5 67.5t40 45.5t60 27.5t75.5 14.5 q25 3 51.5 5.5t48 9.5t35 19t13.5 35q0 33 -29.5 48.5t-74.5 15.5q-42 0 -84 -13.5t-80 -40.5l-47 86q98 65 217 65q48 0 87 -10.5t67.5 -32t44 -55t15.5 -79.5v-236q0 -47 33 -47q16 0 27 8l13 -80q-11 -7 -31.5 -10.5t-37.5 -3.5q-35 0 -64.5 18t-38.5 56 q-26 -38 -69.5 -58t-99.5 -20zM218 585l92 159l91 -34l-95 -125h-88z" />
<glyph unicode="&#xe2;" horiz-adv-x="575" d="M380 270q-10 -11 -24 -17t-30.5 -10t-34 -6t-34.5 -5q-20 -3 -37.5 -7.5t-31 -13t-21.5 -22t-8 -35.5q0 -41 26.5 -59t66.5 -18q25 0 48 7t41 22t28.5 37.5t10.5 54.5v72zM228 -13q-41 0 -75 11t-59 32t-38.5 52t-13.5 70q0 40 14.5 67.5t40 45.5t60 27.5t75.5 14.5 q25 3 51.5 5.5t48 9.5t35 19t13.5 35q0 33 -29.5 48.5t-74.5 15.5q-42 0 -84 -13.5t-80 -40.5l-47 86q98 65 217 65q48 0 87 -10.5t67.5 -32t44 -55t15.5 -79.5v-236q0 -47 33 -47q16 0 27 8l13 -80q-11 -7 -31.5 -10.5t-37.5 -3.5q-35 0 -64.5 18t-38.5 56 q-26 -38 -69.5 -58t-99.5 -20zM311 731q26 -25 56 -50t65 -51l-37 -53l-126 70l-126 -70l-38 53q35 26 65.5 51t55.5 50h85z" />
<glyph unicode="&#xe3;" horiz-adv-x="575" d="M380 270q-10 -11 -24 -17t-30.5 -10t-34 -6t-34.5 -5q-20 -3 -37.5 -7.5t-31 -13t-21.5 -22t-8 -35.5q0 -41 26.5 -59t66.5 -18q25 0 48 7t41 22t28.5 37.5t10.5 54.5v72zM228 -13q-41 0 -75 11t-59 32t-38.5 52t-13.5 70q0 40 14.5 67.5t40 45.5t60 27.5t75.5 14.5 q25 3 51.5 5.5t48 9.5t35 19t13.5 35q0 33 -29.5 48.5t-74.5 15.5q-42 0 -84 -13.5t-80 -40.5l-47 86q98 65 217 65q48 0 87 -10.5t67.5 -32t44 -55t15.5 -79.5v-236q0 -47 33 -47q16 0 27 8l13 -80q-11 -7 -31.5 -10.5t-37.5 -3.5q-35 0 -64.5 18t-38.5 56 q-26 -38 -69.5 -58t-99.5 -20zM450 684q-15 -38 -44.5 -65.5t-68.5 -27.5q-20 0 -37 7t-32.5 15t-30 15t-27.5 7q-19 0 -30.5 -12.5t-19.5 -31.5l-60 32q16 38 44.5 65.5t66.5 27.5q19 0 36 -7t32.5 -15.5t30 -15.5t28.5 -7q35 0 52 45z" />
<glyph unicode="&#xe4;" horiz-adv-x="575" d="M380 270q-10 -11 -24 -17t-30.5 -10t-34 -6t-34.5 -5q-20 -3 -37.5 -7.5t-31 -13t-21.5 -22t-8 -35.5q0 -41 26.5 -59t66.5 -18q25 0 48 7t41 22t28.5 37.5t10.5 54.5v72zM228 -13q-41 0 -75 11t-59 32t-38.5 52t-13.5 70q0 40 14.5 67.5t40 45.5t60 27.5t75.5 14.5 q25 3 51.5 5.5t48 9.5t35 19t13.5 35q0 33 -29.5 48.5t-74.5 15.5q-42 0 -84 -13.5t-80 -40.5l-47 86q98 65 217 65q48 0 87 -10.5t67.5 -32t44 -55t15.5 -79.5v-236q0 -47 33 -47q16 0 27 8l13 -80q-11 -7 -31.5 -10.5t-37.5 -3.5q-35 0 -64.5 18t-38.5 56 q-26 -38 -69.5 -58t-99.5 -20zM118 642q0 23 16.5 40t39.5 17q24 0 40.5 -16.5t16.5 -40.5q0 -23 -16.5 -39.5t-40.5 -16.5q-23 0 -39.5 16.5t-16.5 39.5zM313 642q0 23 16.5 40t39.5 17q24 0 40.5 -16.5t16.5 -40.5q0 -23 -16.5 -39.5t-40.5 -16.5q-23 0 -39.5 16.5 t-16.5 39.5z" />
<glyph unicode="&#xe5;" horiz-adv-x="575" d="M380 270q-10 -11 -24 -17t-30.5 -10t-34 -6t-34.5 -5q-20 -3 -37.5 -7.5t-31 -13t-21.5 -22t-8 -35.5q0 -41 26.5 -59t66.5 -18q25 0 48 7t41 22t28.5 37.5t10.5 54.5v72zM228 -13q-41 0 -75 11t-59 32t-38.5 52t-13.5 70q0 40 14.5 67.5t40 45.5t60 27.5t75.5 14.5 q25 3 51.5 5.5t48 9.5t35 19t13.5 35q0 33 -29.5 48.5t-74.5 15.5q-42 0 -84 -13.5t-80 -40.5l-47 86q98 65 217 65q48 0 87 -10.5t67.5 -32t44 -55t15.5 -79.5v-236q0 -47 33 -47q16 0 27 8l13 -80q-11 -7 -31.5 -10.5t-37.5 -3.5q-35 0 -64.5 18t-38.5 56 q-26 -38 -69.5 -58t-99.5 -20zM385 677q0 -22 -8.5 -41t-23.5 -33t-36 -22t-45 -8q-50 0 -82 30t-32 74q0 21 8.5 40.5t23.5 33.5t36 22.5t46 8.5q24 0 45 -8.5t36 -22.5t23.5 -33.5t8.5 -40.5zM325 677q0 22 -15.5 38t-37.5 16q-23 0 -39 -16t-16 -38q0 -23 16 -39t39 -16 q22 0 37.5 16t15.5 39z" />
<glyph unicode="&#xe6;" horiz-adv-x="916" d="M372 277q-14 -18 -36 -26t-46.5 -12.5t-49.5 -8t-44.5 -11t-32 -22.5t-12.5 -43q0 -41 26.5 -59t66.5 -18q25 0 48.5 7t41 22t28 37.5t10.5 54.5v79zM865 82q-44 -46 -100 -70t-126 -24q-141 0 -210 98q-30 -47 -79.5 -72.5t-118.5 -25.5q-89 0 -143 41.5t-54 120.5 q0 43 16 71t41 45.5t55 26t58 12.5q33 5 63 8t53 9t37 17.5t14 34.5q0 19 -9 31.5t-24 20t-33.5 11t-37.5 3.5q-41 0 -83 -13.5t-80 -40.5l-47 86q48 32 102 48.5t111 16.5q59 0 105 -19t72 -61q37 42 81.5 61t98.5 19q59 0 106 -20t80 -55t50.5 -83.5t17.5 -105.5 q0 -12 -0.5 -21.5t-1.5 -16.5h-394q4 -70 47 -108t112 -38q88 0 148 65zM765 315q-3 33 -14.5 57t-30 40.5t-43 24.5t-51.5 8q-60 0 -97 -35t-42 -95h278z" />
<glyph unicode="&#xe7;" horiz-adv-x="545" d="M299 536q79 0 131.5 -33t83.5 -79l-82 -60q-23 35 -53 53t-73 18q-69 0 -107 -48.5t-38 -124.5q0 -38 10 -69.5t29 -54.5t46 -36t62 -13q48 0 81 21.5t56 54.5l76 -66q-17 -22 -39 -42t-49.5 -35.5t-60.5 -24.5t-73 -9q-59 0 -107 20.5t-82 57.5t-52.5 87t-18.5 109 t18.5 109.5t52.5 87t82 57t107 20.5zM253 -200q-24 0 -44.5 3.5t-32.5 8.5v55q14 -9 33 -12t30 -3q27 0 42.5 9.5t15.5 27.5q0 9 -4 13.5t-9 7.5h-57l16 57q9 5 21.5 8t27.5 3q40 0 67.5 -22t27.5 -61q0 -46 -38 -70.5t-96 -24.5z" />
<glyph unicode="&#xe8;" horiz-adv-x="596" d="M439 315q-2 33 -13.5 57.5t-30 40.5t-42.5 24t-51 8q-60 0 -96.5 -35t-41.5 -95h275zM38 259q0 59 18 109.5t52 88t83 59t111 21.5q59 0 106 -19.5t80 -54t50.5 -82t17.5 -103.5q0 -13 -1 -24t-2 -19h-391q2 -70 45.5 -107.5t110.5 -37.5q97 0 151 69l77 -67 q-19 -22 -42.5 -41t-52.5 -33t-63.5 -22t-76.5 -8q-66 0 -117 20.5t-85.5 57t-52.5 86t-18 107.5zM271 585l-95 125l92 34l92 -159h-89z" />
<glyph unicode="&#xe9;" horiz-adv-x="596" d="M439 315q-2 33 -13.5 57.5t-30 40.5t-42.5 24t-51 8q-60 0 -96.5 -35t-41.5 -95h275zM38 259q0 59 18 109.5t52 88t83 59t111 21.5q59 0 106 -19.5t80 -54t50.5 -82t17.5 -103.5q0 -13 -1 -24t-2 -19h-391q2 -70 45.5 -107.5t110.5 -37.5q97 0 151 69l77 -67 q-19 -22 -42.5 -41t-52.5 -33t-63.5 -22t-76.5 -8q-66 0 -117 20.5t-85.5 57t-52.5 86t-18 107.5zM247 585l92 159l91 -34l-95 -125h-88z" />
<glyph unicode="&#xea;" horiz-adv-x="596" d="M439 315q-2 33 -13.5 57.5t-30 40.5t-42.5 24t-51 8q-60 0 -96.5 -35t-41.5 -95h275zM38 259q0 59 18 109.5t52 88t83 59t111 21.5q59 0 106 -19.5t80 -54t50.5 -82t17.5 -103.5q0 -13 -1 -24t-2 -19h-391q2 -70 45.5 -107.5t110.5 -37.5q97 0 151 69l77 -67 q-19 -22 -42.5 -41t-52.5 -33t-63.5 -22t-76.5 -8q-66 0 -117 20.5t-85.5 57t-52.5 86t-18 107.5zM344 731q26 -25 56 -50t65 -51l-37 -53l-126 70l-126 -70l-38 53q35 26 65.5 51t55.5 50h85z" />
<glyph unicode="&#xeb;" horiz-adv-x="596" d="M439 315q-2 33 -13.5 57.5t-30 40.5t-42.5 24t-51 8q-60 0 -96.5 -35t-41.5 -95h275zM38 259q0 59 18 109.5t52 88t83 59t111 21.5q59 0 106 -19.5t80 -54t50.5 -82t17.5 -103.5q0 -13 -1 -24t-2 -19h-391q2 -70 45.5 -107.5t110.5 -37.5q97 0 151 69l77 -67 q-19 -22 -42.5 -41t-52.5 -33t-63.5 -22t-76.5 -8q-66 0 -117 20.5t-85.5 57t-52.5 86t-18 107.5zM149 642q0 23 16.5 40t39.5 17q24 0 40.5 -16.5t16.5 -40.5q0 -23 -16.5 -39.5t-40.5 -16.5q-23 0 -39.5 16.5t-16.5 39.5zM344 642q0 23 16.5 40t39.5 17q24 0 40.5 -16.5 t16.5 -40.5q0 -23 -16.5 -39.5t-40.5 -16.5q-23 0 -39.5 16.5t-16.5 39.5z" />
<glyph unicode="&#xec;" horiz-adv-x="261" d="M73 0v524h116v-524h-116zM98 585l-95 125l92 34l92 -159h-89z" />
<glyph unicode="&#xed;" horiz-adv-x="261" d="M71 585l92 159l91 -34l-95 -125h-88zM73 0v524h116v-524h-116z" />
<glyph unicode="&#xee;" horiz-adv-x="261" d="M73 0v524h116v-524h-116zM172 731q26 -25 56 -50t65 -51l-37 -53l-126 70l-126 -70l-38 53q35 26 65.5 51t55.5 50h85z" />
<glyph unicode="&#xef;" horiz-adv-x="261" d="M73 0v524h116v-524h-116zM-23 642q0 23 16.5 40t39.5 17q24 0 40.5 -16.5t16.5 -40.5q0 -23 -16.5 -39.5t-40.5 -16.5q-23 0 -39.5 16.5t-16.5 39.5zM172 642q0 23 16.5 40t39.5 17q24 0 40.5 -16.5t16.5 -40.5q0 -23 -16.5 -39.5t-40.5 -16.5q-23 0 -39.5 16.5 t-16.5 39.5z" />
<glyph unicode="&#xf0;" horiz-adv-x="625" d="M279 497q40 0 77.5 -12.5t66.5 -39.5q-18 36 -44 68t-58 61l-124 -55l-20 49l93 42q-20 14 -40.5 26t-41.5 23l89 66q27 -15 54 -32t51 -37l122 52l20 -48l-97 -43q66 -66 107 -150t41 -187q0 -63 -17 -120t-59 -99q-35 -35 -84.5 -54t-108.5 -19q-60 0 -108.5 18.5 t-83.5 52.5t-54 81t-19 104q0 54 17 100.5t48.5 80t75 53t97.5 19.5zM458 242q0 33 -10 61.5t-29 49.5t-47.5 33.5t-64.5 12.5t-63 -12.5t-45 -34t-27 -50t-9 -60.5t9 -60t27 -49t45.5 -33t63.5 -12q37 0 65 12t47 33t28.5 49t9.5 60z" />
<glyph unicode="&#xf1;" horiz-adv-x="604" d="M73 0v524h116v-74q32 42 74.5 64t95.5 22q88 0 134.5 -53t46.5 -141v-342h-116v315q0 21 -4 41.5t-15.5 37t-31.5 27t-51 10.5q-28 0 -52.5 -9.5t-42.5 -27.5t-28 -43.5t-10 -57.5v-293h-116zM497 684q-15 -38 -44.5 -65.5t-68.5 -27.5q-20 0 -37 7t-32.5 15t-30 15 t-27.5 7q-19 0 -30.5 -12.5t-19.5 -31.5l-60 32q16 38 44.5 65.5t66.5 27.5q19 0 36 -7t32.5 -15.5t30 -15.5t28.5 -7q35 0 52 45z" />
<glyph unicode="&#xf2;" horiz-adv-x="642" d="M278 585l-95 125l92 34l92 -159h-89zM574 261q0 -60 -19 -110t-53.5 -86.5t-84.5 -56.5t-111 -20q-62 0 -111 20t-84 56.5t-53.5 86.5t-18.5 110q0 61 18.5 111.5t53.5 87t84 56.5t111 20q61 0 111 -20t84.5 -56.5t53.5 -87t19 -111.5zM451 261q0 38 -9.5 70t-28 55.5 t-45.5 36.5t-62 13t-62 -13t-45 -36.5t-27.5 -55.5t-9.5 -70q0 -37 9.5 -68.5t27.5 -55t45 -36.5t62 -13t62 13t45.5 36.5t28 55t9.5 68.5z" />
<glyph unicode="&#xf3;" horiz-adv-x="642" d="M268 585l92 159l91 -34l-95 -125h-88zM574 261q0 -60 -19 -110t-53.5 -86.5t-84.5 -56.5t-111 -20q-62 0 -111 20t-84 56.5t-53.5 86.5t-18.5 110q0 61 18.5 111.5t53.5 87t84 56.5t111 20q61 0 111 -20t84.5 -56.5t53.5 -87t19 -111.5zM451 261q0 38 -9.5 70t-28 55.5 t-45.5 36.5t-62 13t-62 -13t-45 -36.5t-27.5 -55.5t-9.5 -70q0 -37 9.5 -68.5t27.5 -55t45 -36.5t62 -13t62 13t45.5 36.5t28 55t9.5 68.5z" />
<glyph unicode="&#xf4;" horiz-adv-x="642" d="M358 731q26 -25 56 -50t65 -51l-37 -53l-126 70l-126 -70l-38 53q35 26 65.5 51t55.5 50h85zM574 261q0 -60 -19 -110t-53.5 -86.5t-84.5 -56.5t-111 -20q-62 0 -111 20t-84 56.5t-53.5 86.5t-18.5 110q0 61 18.5 111.5t53.5 87t84 56.5t111 20q61 0 111 -20t84.5 -56.5 t53.5 -87t19 -111.5zM451 261q0 38 -9.5 70t-28 55.5t-45.5 36.5t-62 13t-62 -13t-45 -36.5t-27.5 -55.5t-9.5 -70q0 -37 9.5 -68.5t27.5 -55t45 -36.5t62 -13t62 13t45.5 36.5t28 55t9.5 68.5z" />
<glyph unicode="&#xf5;" horiz-adv-x="642" d="M477 684q-15 -38 -44.5 -65.5t-68.5 -27.5q-20 0 -37 7t-32.5 15t-30 15t-27.5 7q-19 0 -30.5 -12.5t-19.5 -31.5l-60 32q16 38 44.5 65.5t66.5 27.5q19 0 36 -7t32.5 -15.5t30 -15.5t28.5 -7q35 0 52 45zM574 261q0 -60 -19 -110t-53.5 -86.5t-84.5 -56.5t-111 -20 q-62 0 -111 20t-84 56.5t-53.5 86.5t-18.5 110q0 61 18.5 111.5t53.5 87t84 56.5t111 20q61 0 111 -20t84.5 -56.5t53.5 -87t19 -111.5zM451 261q0 38 -9.5 70t-28 55.5t-45.5 36.5t-62 13t-62 -13t-45 -36.5t-27.5 -55.5t-9.5 -70q0 -37 9.5 -68.5t27.5 -55t45 -36.5 t62 -13t62 13t45.5 36.5t28 55t9.5 68.5z" />
<glyph unicode="&#xf6;" horiz-adv-x="642" d="M151 642q0 23 16.5 40t39.5 17q24 0 40.5 -16.5t16.5 -40.5q0 -23 -16.5 -39.5t-40.5 -16.5q-23 0 -39.5 16.5t-16.5 39.5zM346 642q0 23 16.5 40t39.5 17q24 0 40.5 -16.5t16.5 -40.5q0 -23 -16.5 -39.5t-40.5 -16.5q-23 0 -39.5 16.5t-16.5 39.5zM574 261 q0 -60 -19 -110t-53.5 -86.5t-84.5 -56.5t-111 -20q-62 0 -111 20t-84 56.5t-53.5 86.5t-18.5 110q0 61 18.5 111.5t53.5 87t84 56.5t111 20q61 0 111 -20t84.5 -56.5t53.5 -87t19 -111.5zM451 261q0 38 -9.5 70t-28 55.5t-45.5 36.5t-62 13t-62 -13t-45 -36.5t-27.5 -55.5 t-9.5 -70q0 -37 9.5 -68.5t27.5 -55t45 -36.5t62 -13t62 13t45.5 36.5t28 55t9.5 68.5z" />
<glyph unicode="&#xf7;" d="M377 497q0 -30 -21.5 -51.5t-51.5 -21.5t-51 21.5t-21 51.5t21 51.5t51 21.5t51.5 -21.5t21.5 -51.5zM57 255v98h495v-98h-495zM377 111q0 -30 -21.5 -51.5t-51.5 -21.5t-51 21.5t-21 51.5q0 29 21 51t51 22t51.5 -22t21.5 -51z" />
<glyph unicode="&#xf8;" horiz-adv-x="613" d="M498 463q37 -37 56.5 -88t19.5 -114q0 -60 -19 -110t-53.5 -86.5t-84.5 -56.5t-111 -20q-84 0 -144 36l-18 -24h-76l47 60q-37 37 -56.5 87.5t-19.5 113.5q0 61 18.5 111.5t53.5 87t84 56.5t111 20q82 0 144 -37l19 25h76zM162 261q0 -61 26 -104l196 256q-32 23 -78 23 q-35 0 -62 -13t-45 -36.5t-27.5 -55.5t-9.5 -70zM451 261q0 62 -26 106l-197 -257q32 -22 78 -22q35 0 62 13t45.5 36.5t28 55t9.5 68.5z" />
<glyph unicode="&#xf9;" d="M536 524v-524h-116v74q-32 -42 -74.5 -64t-95.5 -22q-87 0 -134 53.5t-47 140.5v342h116v-296q0 -23 2.5 -47t12.5 -43.5t30.5 -32t55.5 -12.5q63 0 98.5 41.5t35.5 114.5v275h116zM259 585l-95 125l92 34l92 -159h-89z" />
<glyph unicode="&#xfa;" d="M536 524v-524h-116v74q-32 -42 -74.5 -64t-95.5 -22q-87 0 -134 53.5t-47 140.5v342h116v-296q0 -23 2.5 -47t12.5 -43.5t30.5 -32t55.5 -12.5q63 0 98.5 41.5t35.5 114.5v275h116zM257 585l92 159l91 -34l-95 -125h-88z" />
<glyph unicode="&#xfb;" d="M536 524v-524h-116v74q-32 -42 -74.5 -64t-95.5 -22q-87 0 -134 53.5t-47 140.5v342h116v-296q0 -23 2.5 -47t12.5 -43.5t30.5 -32t55.5 -12.5q63 0 98.5 41.5t35.5 114.5v275h116zM342 731q26 -25 56 -50t65 -51l-37 -53l-126 70l-126 -70l-38 53q35 26 65.5 51t55.5 50 h85z" />
<glyph unicode="&#xfc;" d="M536 524v-524h-116v74q-32 -42 -74.5 -64t-95.5 -22q-87 0 -134 53.5t-47 140.5v342h116v-296q0 -23 2.5 -47t12.5 -43.5t30.5 -32t55.5 -12.5q63 0 98.5 41.5t35.5 114.5v275h116zM144 642q0 23 16.5 40t39.5 17q24 0 40.5 -16.5t16.5 -40.5q0 -23 -16.5 -39.5 t-40.5 -16.5q-23 0 -39.5 16.5t-16.5 39.5zM339 642q0 23 16.5 40t39.5 17q24 0 40.5 -16.5t16.5 -40.5q0 -23 -16.5 -39.5t-40.5 -16.5q-23 0 -39.5 16.5t-16.5 39.5z" />
<glyph unicode="&#xfd;" horiz-adv-x="552" d="M334 -21q-15 -40 -32.5 -70.5t-39.5 -51t-51 -31t-67 -10.5q-31 0 -59.5 7t-50.5 22l36 89q24 -21 61 -21q32 0 50.5 19t32.5 48l12 28l-218 516h132l147 -371l131 371h124zM235 585l92 159l91 -34l-95 -125h-88z" />
<glyph unicode="&#xfe;" horiz-adv-x="643" d="M187 714v-265q35 47 79.5 67t95.5 20q56 0 101 -21t76.5 -58t48 -87t16.5 -108q0 -59 -16.5 -109t-48 -86.5t-76.5 -57.5t-101 -21q-51 0 -95.5 20.5t-79.5 65.5v-248h-116v888h116zM187 262q0 -36 9.5 -67t28.5 -54t47 -36.5t65 -13.5q36 0 63 13.5t45 36.5t27 54t9 67 q0 35 -9 66t-27 54.5t-45 37t-63 13.5q-38 0 -66 -13.5t-46.5 -36.5t-28 -54t-9.5 -67z" />
<glyph unicode="&#xff;" horiz-adv-x="552" d="M334 -21q-15 -40 -32.5 -70.5t-39.5 -51t-51 -31t-67 -10.5q-31 0 -59.5 7t-50.5 22l36 89q24 -21 61 -21q32 0 50.5 19t32.5 48l12 28l-218 516h132l147 -371l131 371h124zM127 642q0 23 16.5 40t39.5 17q24 0 40.5 -16.5t16.5 -40.5q0 -23 -16.5 -39.5t-40.5 -16.5 q-23 0 -39.5 16.5t-16.5 39.5zM322 642q0 23 16.5 40t39.5 17q24 0 40.5 -16.5t16.5 -40.5q0 -23 -16.5 -39.5t-40.5 -16.5q-23 0 -39.5 16.5t-16.5 39.5z" />
<glyph unicode="&#x100;" horiz-adv-x="687" d="M550 0l-64 184h-286l-65 -184h-129l271 714h138l270 -714h-135zM344 593l-110 -306h217zM189 773v68h314v-68h-314z" />
<glyph unicode="&#x101;" horiz-adv-x="575" d="M380 270q-10 -11 -24 -17t-30.5 -10t-34 -6t-34.5 -5q-20 -3 -37.5 -7.5t-31 -13t-21.5 -22t-8 -35.5q0 -41 26.5 -59t66.5 -18q25 0 48 7t41 22t28.5 37.5t10.5 54.5v72zM228 -13q-41 0 -75 11t-59 32t-38.5 52t-13.5 70q0 40 14.5 67.5t40 45.5t60 27.5t75.5 14.5 q25 3 51.5 5.5t48 9.5t35 19t13.5 35q0 33 -29.5 48.5t-74.5 15.5q-42 0 -84 -13.5t-80 -40.5l-47 86q98 65 217 65q48 0 87 -10.5t67.5 -32t44 -55t15.5 -79.5v-236q0 -47 33 -47q16 0 27 8l13 -80q-11 -7 -31.5 -10.5t-37.5 -3.5q-35 0 -64.5 18t-38.5 56 q-26 -38 -69.5 -58t-99.5 -20zM118 605v68h314v-68h-314z" />
<glyph unicode="&#x102;" horiz-adv-x="687" d="M550 0l-64 184h-286l-65 -184h-129l271 714h138l270 -714h-135zM344 593l-110 -306h217zM347 754q-71 0 -112.5 36t-51.5 90l68 18q9 -29 33 -46.5t63 -17.5t63 17.5t33 46.5l66 -18q-8 -54 -50 -90t-112 -36z" />
<glyph unicode="&#x103;" horiz-adv-x="575" d="M380 270q-10 -11 -24 -17t-30.5 -10t-34 -6t-34.5 -5q-20 -3 -37.5 -7.5t-31 -13t-21.5 -22t-8 -35.5q0 -41 26.5 -59t66.5 -18q25 0 48 7t41 22t28.5 37.5t10.5 54.5v72zM228 -13q-41 0 -75 11t-59 32t-38.5 52t-13.5 70q0 40 14.5 67.5t40 45.5t60 27.5t75.5 14.5 q25 3 51.5 5.5t48 9.5t35 19t13.5 35q0 33 -29.5 48.5t-74.5 15.5q-42 0 -84 -13.5t-80 -40.5l-47 86q98 65 217 65q48 0 87 -10.5t67.5 -32t44 -55t15.5 -79.5v-236q0 -47 33 -47q16 0 27 8l13 -80q-11 -7 -31.5 -10.5t-37.5 -3.5q-35 0 -64.5 18t-38.5 56 q-26 -38 -69.5 -58t-99.5 -20zM274 586q-71 0 -112.5 36t-51.5 90l68 18q9 -29 33 -46.5t63 -17.5t63 17.5t33 46.5l66 -18q-8 -54 -50 -90t-112 -36z" />
<glyph unicode="&#x104;" horiz-adv-x="691" d="M614 0q-16 -14 -27.5 -30t-11.5 -35q0 -17 11 -27t31 -10q17 0 33.5 7t27.5 18v-80q-11 -11 -34 -19t-51 -8q-47 0 -76 23.5t-29 65.5q0 26 14 52t46 50l-62 177h-286l-65 -184h-129l271 714h138l270 -714h-71zM344 593l-110 -306h217z" />
<glyph unicode="&#x105;" horiz-adv-x="574" d="M223 -13q-41 0 -75 11t-59 32t-38.5 51.5t-13.5 69.5q0 46 18.5 75t46 45.5t60.5 24t62 11.5q24 3 47 5.5t42.5 6.5t33.5 11.5t21 21.5q7 15 4 30q-3 30 -30.5 44t-69.5 14q-43 0 -85 -13.5t-80 -40.5l-47 86q98 65 217 65q46 0 84 -9.5t66 -30t44.5 -51.5t18.5 -74 q0 -11 0.5 -20.5t0.5 -20.5v-207q0 -47 33 -47q16 0 27 8l13 -80q-11 -7 -31.5 -10.5t-37.5 -3.5q-10 0 -14 1q-14 -13 -22.5 -27t-8.5 -30q0 -17 11 -27t31 -10q17 0 33.5 7t27.5 18v-80q-11 -11 -34 -19t-51 -8q-47 0 -75.5 23.5t-28.5 65.5q0 28 15 54.5t48 51.5 q-27 18 -35 54q-26 -38 -69.5 -58t-99.5 -20zM375 270q-15 -15 -37 -22t-46.5 -11t-49 -7t-44 -11t-32 -23t-12.5 -42q0 -41 26.5 -59t66.5 -18q25 0 48 7t41 22t28.5 37.5t10.5 54.5v72z" />
<glyph unicode="&#x106;" horiz-adv-x="705" d="M579 513q-32 53 -80.5 78.5t-107.5 25.5q-52 0 -93 -19t-69.5 -53.5t-43.5 -82.5t-15 -105q0 -58 15 -105.5t44 -82t71 -53.5t95 -19q66 0 112 29t78 82l91 -69q-48 -72 -118 -112t-165 -40q-78 0 -143 27t-111 76t-71.5 117t-25.5 149q0 82 25.5 150t71.5 117 t109.5 76.5t140.5 27.5q94 0 164.5 -39.5t118.5 -108.5zM326 753l92 159l91 -34l-95 -125h-88z" />
<glyph unicode="&#x107;" horiz-adv-x="548" d="M298 536q79 0 131.5 -33t83.5 -79l-82 -60q-23 35 -53 53t-73 18q-69 0 -107 -48.5t-38 -124.5q0 -38 10 -69.5t29 -54.5t46 -36t62 -13q48 0 81 21.5t56 54.5l76 -66q-17 -22 -39 -42t-49.5 -35.5t-60.5 -24.5t-73 -9q-59 0 -107 20.5t-82 57.5t-52.5 87t-18.5 109 t18.5 109.5t52.5 87t82 57t107 20.5zM232 585l92 159l92 -34l-95 -125h-89z" />
<glyph unicode="&#x108;" horiz-adv-x="705" d="M579 513q-32 53 -80.5 78.5t-107.5 25.5q-52 0 -93 -19t-69.5 -53.5t-43.5 -82.5t-15 -105q0 -58 15 -105.5t44 -82t71 -53.5t95 -19q66 0 112 29t78 82l91 -69q-48 -72 -118 -112t-165 -40q-78 0 -143 27t-111 76t-71.5 117t-25.5 149q0 82 25.5 150t71.5 117 t109.5 76.5t140.5 27.5q94 0 164.5 -39.5t118.5 -108.5zM426 908q26 -25 56 -50t65 -51l-37 -53l-126 70l-126 -70l-38 53q35 26 65.5 51t55.5 50h85z" />
<glyph unicode="&#x109;" horiz-adv-x="548" d="M298 536q79 0 131.5 -33t83.5 -79l-82 -60q-23 35 -53 53t-73 18q-69 0 -107 -48.5t-38 -124.5q0 -38 10 -69.5t29 -54.5t46 -36t62 -13q48 0 81 21.5t56 54.5l76 -66q-17 -22 -39 -42t-49.5 -35.5t-60.5 -24.5t-73 -9q-59 0 -107 20.5t-82 57.5t-52.5 87t-18.5 109 t18.5 109.5t52.5 87t82 57t107 20.5zM334 731q26 -25 56 -50t65 -51l-37 -53l-126 70l-126 -70l-38 53q35 26 65.5 51t55.5 50h85z" />
<glyph unicode="&#x10a;" horiz-adv-x="705" d="M579 513q-32 53 -80.5 78.5t-107.5 25.5q-52 0 -93 -19t-69.5 -53.5t-43.5 -82.5t-15 -105q0 -58 15 -105.5t44 -82t71 -53.5t95 -19q66 0 112 29t78 82l91 -69q-48 -72 -118 -112t-165 -40q-78 0 -143 27t-111 76t-71.5 117t-25.5 149q0 82 25.5 150t71.5 117 t109.5 76.5t140.5 27.5q94 0 164.5 -39.5t118.5 -108.5zM327 812q0 23 17.5 40.5t40.5 17.5q24 0 41 -17t17 -41q0 -23 -17 -40.5t-41 -17.5q-23 0 -40.5 17t-17.5 41z" />
<glyph unicode="&#x10b;" horiz-adv-x="548" d="M298 536q79 0 131.5 -33t83.5 -79l-82 -60q-23 35 -53 53t-73 18q-69 0 -107 -48.5t-38 -124.5q0 -38 10 -69.5t29 -54.5t46 -36t62 -13q48 0 81 21.5t56 54.5l76 -66q-17 -22 -39 -42t-49.5 -35.5t-60.5 -24.5t-73 -9q-59 0 -107 20.5t-82 57.5t-52.5 87t-18.5 109 t18.5 109.5t52.5 87t82 57t107 20.5zM230 644q0 23 17.5 40.5t40.5 17.5q24 0 41 -17t17 -41q0 -23 -17 -40.5t-41 -17.5q-23 0 -40.5 17t-17.5 41z" />
<glyph unicode="&#x10c;" horiz-adv-x="705" d="M579 513q-32 53 -80.5 78.5t-107.5 25.5q-52 0 -93 -19t-69.5 -53.5t-43.5 -82.5t-15 -105q0 -58 15 -105.5t44 -82t71 -53.5t95 -19q66 0 112 29t78 82l91 -69q-48 -72 -118 -112t-165 -40q-78 0 -143 27t-111 76t-71.5 117t-25.5 149q0 82 25.5 150t71.5 117 t109.5 76.5t140.5 27.5q94 0 164.5 -39.5t118.5 -108.5zM342 749q-26 25 -56 50t-65 51l37 53l127 -70l126 70l37 -53q-35 -26 -65.5 -51t-55.5 -50h-85z" />
<glyph unicode="&#x10d;" horiz-adv-x="548" d="M298 536q79 0 131.5 -33t83.5 -79l-82 -60q-23 35 -53 53t-73 18q-69 0 -107 -48.5t-38 -124.5q0 -38 10 -69.5t29 -54.5t46 -36t62 -13q48 0 81 21.5t56 54.5l76 -66q-17 -22 -39 -42t-49.5 -35.5t-60.5 -24.5t-73 -9q-59 0 -107 20.5t-82 57.5t-52.5 87t-18.5 109 t18.5 109.5t52.5 87t82 57t107 20.5zM247 581q-26 25 -56 50t-65 51l37 53l127 -70l126 70l37 -53q-35 -26 -65.5 -51t-55.5 -50h-85z" />
<glyph unicode="&#x10e;" horiz-adv-x="751" d="M360 110q54 0 95.5 17.5t69 50t42 78t14.5 101.5t-14.5 101.5t-42 78t-69 50t-95.5 17.5h-156v-494h156zM82 0v714h278q83 0 148 -27t109.5 -75t67.5 -113.5t23 -141.5t-23 -141.5t-67.5 -113.5t-109.5 -75t-148 -27h-278zM311 749q-26 25 -56 50t-65 51l37 53l127 -70 l126 70l37 -53q-35 -26 -65.5 -51t-55.5 -50h-85z" />
<glyph unicode="&#x10f;" horiz-adv-x="712" d="M457 0v74q-35 -45 -80 -65.5t-96 -20.5q-56 0 -100.5 21t-76 57.5t-48 86.5t-16.5 108q0 59 16.5 109.5t48 87t76 57.5t100.5 21q51 0 96 -20.5t80 -65.5v264h116v-714h-116zM457 262q0 36 -9.5 67t-28.5 54.5t-47 37t-65 13.5q-36 0 -63.5 -13.5t-45.5 -37t-27 -54.5 t-9 -67q0 -35 9 -66.5t27 -54.5t45 -36.5t64 -13.5t65 13.5t47 36.5t28.5 54t9.5 67zM774 635q0 -57 -20 -101t-62 -85l-52 44q21 20 34 46t13 54q0 15 -4 26t-9 22t-9 23.5t-4 29.5v20h113v-79z" />
<glyph unicode="&#x110;" horiz-adv-x="771" d="M102 0v328h-67v69h67v317h278q83 0 148 -27t109.5 -75t67.5 -113.5t23 -141.5t-23 -141.5t-67.5 -113.5t-109.5 -75t-148 -27h-278zM380 110q54 0 95.5 17.5t69 50t42 78t14.5 101.5t-14.5 101.5t-42 78t-69 50t-95.5 17.5h-156v-207h167v-69h-167v-218h156z" />
<glyph unicode="&#x111;" horiz-adv-x="643" d="M456 0v74q-35 -45 -79.5 -65.5t-95.5 -20.5q-56 0 -101 21t-76 58t-47.5 87t-16.5 108q0 59 16.5 109t47.5 87t76 57.5t101 20.5q51 0 95.5 -20.5t79.5 -65.5v151h-131v65h131v48h116v-48h68v-65h-68v-601h-116zM456 262q0 36 -9.5 67t-28.5 54.5t-47 36.5t-65 13 q-36 0 -63 -13.5t-45 -36.5t-27 -54t-9 -67t9 -67t27 -54t45 -36.5t63 -13.5q37 0 65 13.5t47 36.5t28.5 54t9.5 67z" />
<glyph unicode="&#x112;" horiz-adv-x="637" d="M82 0v714h500v-110h-378v-182h337v-102h-337v-210h388v-110h-510zM171 773v68h314v-68h-314z" />
<glyph unicode="&#x113;" horiz-adv-x="596" d="M439 315q-2 33 -13.5 57.5t-30 40.5t-42.5 24t-51 8q-60 0 -96.5 -35t-41.5 -95h275zM38 259q0 59 18 109.5t52 88t83 59t111 21.5q59 0 106 -19.5t80 -54t50.5 -82t17.5 -103.5q0 -13 -1 -24t-2 -19h-391q2 -70 45.5 -107.5t110.5 -37.5q97 0 151 69l77 -67 q-19 -22 -42.5 -41t-52.5 -33t-63.5 -22t-76.5 -8q-66 0 -117 20.5t-85.5 57t-52.5 86t-18 107.5zM147 605v68h314v-68h-314z" />
<glyph unicode="&#x114;" horiz-adv-x="637" d="M82 0v714h500v-110h-378v-182h337v-102h-337v-210h388v-110h-510zM328 754q-71 0 -112.5 36t-51.5 90l68 18q9 -29 33 -46.5t63 -17.5t63 17.5t33 46.5l66 -18q-8 -54 -50 -90t-112 -36z" />
<glyph unicode="&#x115;" horiz-adv-x="596" d="M439 315q-2 33 -13.5 57.5t-30 40.5t-42.5 24t-51 8q-60 0 -96.5 -35t-41.5 -95h275zM38 259q0 59 18 109.5t52 88t83 59t111 21.5q59 0 106 -19.5t80 -54t50.5 -82t17.5 -103.5q0 -13 -1 -24t-2 -19h-391q2 -70 45.5 -107.5t110.5 -37.5q97 0 151 69l77 -67 q-19 -22 -42.5 -41t-52.5 -33t-63.5 -22t-76.5 -8q-66 0 -117 20.5t-85.5 57t-52.5 86t-18 107.5zM302 586q-71 0 -112.5 36t-51.5 90l68 18q9 -29 33 -46.5t63 -17.5t63 17.5t33 46.5l66 -18q-8 -54 -50 -90t-112 -36z" />
<glyph unicode="&#x116;" horiz-adv-x="637" d="M82 0v714h500v-110h-378v-182h337v-102h-337v-210h388v-110h-510zM272 812q0 23 17.5 40.5t40.5 17.5q24 0 41 -17t17 -41q0 -23 -17 -40.5t-41 -17.5q-23 0 -40.5 17t-17.5 41z" />
<glyph unicode="&#x117;" horiz-adv-x="596" d="M439 315q-2 33 -13.5 57.5t-30 40.5t-42.5 24t-51 8q-60 0 -96.5 -35t-41.5 -95h275zM38 259q0 59 18 109.5t52 88t83 59t111 21.5q59 0 106 -19.5t80 -54t50.5 -82t17.5 -103.5q0 -13 -1 -24t-2 -19h-391q2 -70 45.5 -107.5t110.5 -37.5q97 0 151 69l77 -67 q-19 -22 -42.5 -41t-52.5 -33t-63.5 -22t-76.5 -8q-66 0 -117 20.5t-85.5 57t-52.5 86t-18 107.5zM242 644q0 23 17.5 40.5t40.5 17.5q24 0 41 -17t17 -41q0 -23 -17 -40.5t-41 -17.5q-23 0 -40.5 17t-17.5 41z" />
<glyph unicode="&#x118;" horiz-adv-x="637" d="M528 0q-17 -14 -28 -30t-11 -35q0 -37 41 -37q17 0 34 7t28 18v-80q-11 -11 -34 -19t-52 -8q-46 0 -75 23.5t-29 65.5q0 25 12 48.5t38 46.5h-370v714h500v-110h-378v-182h337v-102h-337v-210h388v-110h-64z" />
<glyph unicode="&#x119;" horiz-adv-x="592" d="M39 259q0 59 18 109.5t51.5 88t82.5 59t112 21.5q59 0 106 -19.5t80 -54t50.5 -82t17.5 -102.5q0 -14 -1 -25t-2 -19h-391q2 -70 45 -107.5t112 -37.5q46 0 84.5 17t65.5 52l77 -67q-21 -25 -47 -44t-49 -36.5t-39 -35t-16 -40.5q0 -38 41 -38q17 0 34 7t28 18v-80 q-11 -11 -34 -19t-52 -8q-46 0 -75 23.5t-29 65.5q0 45 39 84q-8 -1 -17.5 -1h-20.5q-66 0 -116.5 20.5t-85 57t-52 86t-17.5 107.5zM440 315q-2 33 -13.5 57.5t-30 40.5t-42.5 24t-51 8q-60 0 -96.5 -35t-41.5 -95h275z" />
<glyph unicode="&#x11a;" horiz-adv-x="637" d="M82 0v714h500v-110h-378v-182h337v-102h-337v-210h388v-110h-510zM285 749q-26 25 -56 50t-65 51l37 53l127 -70l126 70l37 -53q-35 -26 -65.5 -51t-55.5 -50h-85z" />
<glyph unicode="&#x11b;" horiz-adv-x="596" d="M439 315q-2 33 -13.5 57.5t-30 40.5t-42.5 24t-51 8q-60 0 -96.5 -35t-41.5 -95h275zM38 259q0 59 18 109.5t52 88t83 59t111 21.5q59 0 106 -19.5t80 -54t50.5 -82t17.5 -103.5q0 -13 -1 -24t-2 -19h-391q2 -70 45.5 -107.5t110.5 -37.5q97 0 151 69l77 -67 q-19 -22 -42.5 -41t-52.5 -33t-63.5 -22t-76.5 -8q-66 0 -117 20.5t-85.5 57t-52.5 86t-18 107.5zM260 581q-26 25 -56 50t-65 51l37 53l127 -70l126 70l37 -53q-35 -26 -65.5 -51t-55.5 -50h-85z" />
<glyph unicode="&#x11c;" horiz-adv-x="749" d="M395 617q-53 0 -95 -19t-71 -53.5t-44 -82t-15 -105.5q0 -59 15.5 -107.5t44 -82.5t70 -52.5t92.5 -18.5q41 0 77.5 12t64 35.5t45 57.5t20.5 79h-193v103h312q5 -25 5 -60q0 -69 -23 -130.5t-65.5 -107t-104 -72t-139.5 -26.5t-142.5 27.5t-110 77t-71 117.5t-25.5 149 q0 82 26 150t72.5 116.5t111 75.5t142.5 27q98 0 168 -40.5t116 -106.5l-95 -65q-31 52 -79.5 77t-108.5 25zM434 899q26 -25 56 -50t65 -51l-37 -53l-126 70l-126 -70l-38 53q35 26 65.5 51t55.5 50h85z" />
<glyph unicode="&#x11d;" horiz-adv-x="645" d="M573 94q0 -61 -12.5 -109.5t-44.5 -85.5q-20 -24 -46.5 -39.5t-56 -25.5t-61.5 -14t-63 -4q-128 0 -220 60l48 92q33 -24 76.5 -38t93.5 -14q36 0 67 8.5t54 26.5t36 46.5t13 69.5v45q-29 -40 -73.5 -64.5t-104.5 -24.5q-54 0 -98 20t-75.5 55t-48.5 81t-17 99t17.5 100 t49 82.5t76 56t98.5 20.5q53 0 98.5 -20.5t77.5 -65.5v73h116v-430zM457 281q0 31 -9.5 59.5t-28.5 50t-47 34t-65 12.5q-36 0 -63.5 -12.5t-45.5 -34.5t-27 -50.5t-9 -59.5t9 -59.5t27 -50.5t45.5 -35t63.5 -13t64 13t47 34.5t29 50.5t10 61zM349 731q26 -25 56 -50t65 -51 l-37 -53l-126 70l-126 -70l-38 53q35 26 65.5 51t55.5 50h85z" />
<glyph unicode="&#x11e;" horiz-adv-x="749" d="M395 617q-53 0 -95 -19t-71 -53.5t-44 -82t-15 -105.5q0 -59 15.5 -107.5t44 -82.5t70 -52.5t92.5 -18.5q41 0 77.5 12t64 35.5t45 57.5t20.5 79h-193v103h312q5 -25 5 -60q0 -69 -23 -130.5t-65.5 -107t-104 -72t-139.5 -26.5t-142.5 27.5t-110 77t-71 117.5t-25.5 149 q0 82 26 150t72.5 116.5t111 75.5t142.5 27q98 0 168 -40.5t116 -106.5l-95 -65q-31 52 -79.5 77t-108.5 25zM392 754q-71 0 -112.5 36t-51.5 90l68 18q9 -29 33 -46.5t63 -17.5t63 17.5t33 46.5l66 -18q-8 -54 -50 -90t-112 -36z" />
<glyph unicode="&#x11f;" horiz-adv-x="645" d="M573 94q0 -61 -12.5 -109.5t-44.5 -85.5q-20 -24 -46.5 -39.5t-56 -25.5t-61.5 -14t-63 -4q-128 0 -220 60l48 92q33 -24 76.5 -38t93.5 -14q36 0 67 8.5t54 26.5t36 46.5t13 69.5v45q-29 -40 -73.5 -64.5t-104.5 -24.5q-54 0 -98 20t-75.5 55t-48.5 81t-17 99t17.5 100 t49 82.5t76 56t98.5 20.5q53 0 98.5 -20.5t77.5 -65.5v73h116v-430zM457 281q0 31 -9.5 59.5t-28.5 50t-47 34t-65 12.5q-36 0 -63.5 -12.5t-45.5 -34.5t-27 -50.5t-9 -59.5t9 -59.5t27 -50.5t45.5 -35t63.5 -13t64 13t47 34.5t29 50.5t10 61zM304 586q-71 0 -112.5 36 t-51.5 90l68 18q9 -29 33 -46.5t63 -17.5t63 17.5t33 46.5l66 -18q-8 -54 -50 -90t-112 -36z" />
<glyph unicode="&#x120;" horiz-adv-x="749" d="M395 617q-53 0 -95 -19t-71 -53.5t-44 -82t-15 -105.5q0 -59 15.5 -107.5t44 -82.5t70 -52.5t92.5 -18.5q41 0 77.5 12t64 35.5t45 57.5t20.5 79h-193v103h312q5 -25 5 -60q0 -69 -23 -130.5t-65.5 -107t-104 -72t-139.5 -26.5t-142.5 27.5t-110 77t-71 117.5t-25.5 149 q0 82 26 150t72.5 116.5t111 75.5t142.5 27q98 0 168 -40.5t116 -106.5l-95 -65q-31 52 -79.5 77t-108.5 25zM331 812q0 23 17.5 40.5t40.5 17.5q24 0 41 -17t17 -41q0 -23 -17 -40.5t-41 -17.5q-23 0 -40.5 17t-17.5 41z" />
<glyph unicode="&#x121;" horiz-adv-x="645" d="M573 94q0 -61 -12.5 -109.5t-44.5 -85.5q-20 -24 -46.5 -39.5t-56 -25.5t-61.5 -14t-63 -4q-128 0 -220 60l48 92q33 -24 76.5 -38t93.5 -14q36 0 67 8.5t54 26.5t36 46.5t13 69.5v45q-29 -40 -73.5 -64.5t-104.5 -24.5q-54 0 -98 20t-75.5 55t-48.5 81t-17 99t17.5 100 t49 82.5t76 56t98.5 20.5q53 0 98.5 -20.5t77.5 -65.5v73h116v-430zM457 281q0 31 -9.5 59.5t-28.5 50t-47 34t-65 12.5q-36 0 -63.5 -12.5t-45.5 -34.5t-27 -50.5t-9 -59.5t9 -59.5t27 -50.5t45.5 -35t63.5 -13t64 13t47 34.5t29 50.5t10 61zM244 644q0 23 17.5 40.5 t40.5 17.5q24 0 41 -17t17 -41q0 -23 -17 -40.5t-41 -17.5q-23 0 -40.5 17t-17.5 41z" />
<glyph unicode="&#x122;" horiz-adv-x="749" d="M395 617q-53 0 -95 -19t-71 -53.5t-44 -82t-15 -105.5q0 -59 15.5 -107.5t44 -82.5t70 -52.5t92.5 -18.5q41 0 77.5 12t64 35.5t45 57.5t20.5 79h-193v103h312q5 -25 5 -60q0 -69 -23 -130.5t-65.5 -107t-104 -72t-139.5 -26.5t-142.5 27.5t-110 77t-71 117.5t-25.5 149 q0 82 26 150t72.5 116.5t111 75.5t142.5 27q98 0 168 -40.5t116 -106.5l-95 -65q-31 52 -79.5 77t-108.5 25zM260 -169l67 119h114l-116 -150z" />
<glyph unicode="&#x123;" horiz-adv-x="665" d="M573 94q0 -61 -12.5 -109.5t-44.5 -85.5q-20 -24 -46.5 -39.5t-56 -25.5t-61.5 -14t-63 -4q-128 0 -220 60l48 92q33 -24 76.5 -38t93.5 -14q36 0 67 8.5t54 26.5t36 46.5t13 69.5v45q-29 -40 -73.5 -64.5t-104.5 -24.5q-54 0 -98 20t-75.5 55t-48.5 81t-17 99t17.5 100 t49 82.5t76 56t98.5 20.5q53 0 98.5 -20.5t77.5 -65.5v73h116v-430zM457 281q0 31 -9.5 59.5t-28.5 50t-47 34t-65 12.5q-36 0 -63.5 -12.5t-45.5 -34.5t-27 -50.5t-9 -59.5t9 -59.5t27 -50.5t45.5 -35t63.5 -13t64 13t47 34.5t29 50.5t10 61zM436 713.989 l-66.9951 -118.992h-113.993l115.993 149.991z" />
<glyph unicode="&#x124;" horiz-adv-x="739" d="M551 0v321h-347v-321h-122v714h122v-284h347v284h122v-714h-122zM420 899q26 -25 56 -50t65 -51l-37 -53l-126 70l-126 -70l-38 53q35 26 65.5 51t55.5 50h85z" />
<glyph unicode="&#x125;" d="M73 0v714h116v-264q32 42 74.5 64t95.5 22q88 0 134.5 -53t46.5 -141v-342h-116v315q0 21 -4 41.5t-15.5 37t-31.5 27t-51 10.5q-28 0 -52.5 -9.5t-42.5 -27.5t-28 -43.5t-10 -57.5v-293h-116zM173 875q26 -25 56 -50t65 -51l-37 -53l-126 70l-126 -70l-38 53 q35 26 65.5 51t55.5 50h85z" />
<glyph unicode="&#x126;" horiz-adv-x="755" d="M551 0v321h-347v-321h-122v578h-42v65h42v71h122v-71h347v71h122v-71h42v-65h-42v-578h-122zM551 430v148h-347v-148h347z" />
<glyph unicode="&#x127;" d="M71 0v600h-68v66h68v48h116v-48h130v-66h-130v-150q32 42 75 64t95 22q88 0 134.5 -53t46.5 -141v-342h-115v315q0 21 -4 41.5t-15.5 37t-31.5 27t-51 10.5q-28 0 -52.5 -9.5t-42.5 -27.5t-28.5 -43.5t-10.5 -57.5v-293h-116z" />
<glyph unicode="&#x128;" horiz-adv-x="286" d="M82 0v714h122v-714h-122zM319 852q-15 -38 -44.5 -65.5t-68.5 -27.5q-20 0 -37 7t-32.5 15t-30 15t-27.5 7q-19 0 -30.5 -12.5t-19.5 -31.5l-60 32q16 38 44.5 65.5t66.5 27.5q19 0 36 -7t32.5 -15.5t30 -15.5t28.5 -7q35 0 52 45z" />
<glyph unicode="&#x129;" horiz-adv-x="261" d="M307 684q-15 -38 -44.5 -65.5t-68.5 -27.5q-20 0 -37 7t-32.5 15t-30 15t-27.5 7q-19 0 -30.5 -12.5t-19.5 -31.5l-60 32q16 38 44.5 65.5t66.5 27.5q19 0 36 -7t32.5 -15.5t30 -15.5t28.5 -7q35 0 52 45zM73 0v524h116v-524h-116z" />
<glyph unicode="&#x12a;" horiz-adv-x="286" d="M82 0v714h122v-714h-122zM-14 773v68h314v-68h-314z" />
<glyph unicode="&#x12b;" horiz-adv-x="261" d="M-26 605v68h314v-68h-314zM73 0v524h116v-524h-116z" />
<glyph unicode="&#x12c;" horiz-adv-x="286" d="M82 0v714h122v-714h-122zM144 754q-71 0 -112.5 36t-51.5 90l68 18q9 -29 33 -46.5t63 -17.5t63 17.5t33 46.5l66 -18q-8 -54 -50 -90t-112 -36z" />
<glyph unicode="&#x12d;" horiz-adv-x="261" d="M73 0v524h116v-524h-116zM132 586q-71 0 -112.5 36t-51.5 90l68 18q9 -29 33 -46.5t63 -17.5t63 17.5t33 46.5l66 -18q-8 -54 -50 -90t-112 -36z" />
<glyph unicode="&#x12e;" horiz-adv-x="286" d="M156 0q-17 -14 -28 -30t-11 -35q0 -37 41 -37q17 0 34 7t28 18v-80q-11 -11 -34 -19t-52 -8q-46 0 -75 23.5t-29 65.5q0 26 12 50t40 47v712h122v-714h-48z" />
<glyph unicode="&#x12f;" horiz-adv-x="261" d="M149 0q-21 -14 -35.5 -30.5t-14.5 -36.5q0 -17 12.5 -27t33.5 -10q18 0 34.5 6.5t25.5 16.5v-77q-11 -10 -31 -17t-45 -7q-48 0 -78.5 24t-30.5 66q0 26 14 50.5t39 45.5v520h116v-524h-40zM63 664q0 29 19 48.5t48 19.5t48.5 -19.5t19.5 -48.5t-19.5 -48t-48.5 -19 t-48 19t-19 48z" />
<glyph unicode="&#x130;" horiz-adv-x="286" d="M82 0v714h122v-714h-122zM85 812q0 23 17.5 40.5t40.5 17.5q24 0 41 -17t17 -41q0 -23 -17 -40.5t-41 -17.5q-23 0 -40.5 17t-17.5 41z" />
<glyph unicode="&#x131;" horiz-adv-x="261" d="M73 0v524h116v-524h-116z" />
<glyph unicode="&#x134;" horiz-adv-x="534" d="M336 714h122v-469q0 -129 -63 -193.5t-170 -64.5q-75 0 -128.5 32.5t-82.5 88.5l96 57q20 -38 50 -54t64 -16q60 0 86 35.5t26 98.5v485zM438 899q26 -25 56 -50t65 -51l-37 -53l-126 70l-126 -70l-38 53q35 26 65.5 51t55.5 50h85z" />
<glyph unicode="&#x135;" horiz-adv-x="270" d="M178 731q26 -25 56 -50t65 -51l-37 -53l-126 70l-126 -70l-38 53q35 26 65.5 51t55.5 50h85zM199 2q0 -94 -47.5 -139.5t-124.5 -45.5q-24 0 -49.5 5.5t-42.5 16.5l26 90q11 -5 23.5 -10t30.5 -5q36 0 52 22t16 62v526h116v-522z" />
<glyph unicode="&#x136;" horiz-adv-x="690" d="M542 0l-221 330l-117 -135v-195h-122v714h122v-359l309 359h150l-257 -293l285 -421h-149zM246 -169l67 119h114l-116 -150z" />
<glyph unicode="&#x137;" horiz-adv-x="583" d="M415 524h140l-199 -209l224 -315h-141l-163 238l-89 -95v-143h-116v714h116v-437zM207 -169l67 119h114l-116 -150z" />
<glyph unicode="&#x138;" horiz-adv-x="591" d="M422 524h141l-204 -209l229 -315h-141l-168 238l-92 -95v-143h-116v524h116v-247z" />
<glyph unicode="&#x139;" horiz-adv-x="592" d="M82 0v714h122v-604h371v-110h-493zM98 753l92 159l91 -34l-95 -125h-88z" />
<glyph unicode="&#x13a;" horiz-adv-x="263" d="M73 0v714h116v-714h-116zM72 741l92 159l91 -34l-95 -125h-88z" />
<glyph unicode="&#x13b;" horiz-adv-x="592" d="M82 0v714h122v-604h371v-110h-493zM201 -169l67 119h114l-116 -150z" />
<glyph unicode="&#x13c;" horiz-adv-x="263" d="M73 0v714h116v-714h-116zM7 -169l67 119h114l-116 -150z" />
<glyph unicode="&#x13d;" horiz-adv-x="592" d="M82 0v714h122v-604h371v-110h-493zM436 635q0 -57 -20 -101t-62 -85l-52 44q21 20 34 46t13 54q0 15 -4 26t-9 22t-9 23.5t-4 29.5v20h113v-79z" />
<glyph unicode="&#x13e;" horiz-adv-x="337" d="M73 0v714h116v-714h-116zM398 635q0 -57 -20 -101t-62 -85l-52 44q21 20 34 46t13 54q0 15 -4 26t-9 22t-9 23.5t-4 29.5v20h113v-79z" />
<glyph unicode="&#x13f;" horiz-adv-x="592" d="M82 0v714h122v-604h371v-110h-493zM499 333q0 -32 -22 -54.5t-54 -22.5t-54.5 22.5t-22.5 54.5t22.5 54.5t54.5 22.5t54 -22.5t22 -54.5z" />
<glyph unicode="&#x140;" horiz-adv-x="496" d="M73 0v714h116v-714h-116zM455 304q0 -32 -22 -54.5t-54 -22.5t-54.5 22.5t-22.5 54.5t22.5 54.5t54.5 22.5t54 -22.5t22 -54.5z" />
<glyph unicode="&#x141;" horiz-adv-x="626" d="M117 0v296l-105 -46v99l105 46v319h122v-267l202 90v-99l-202 -90v-238h371v-110h-493z" />
<glyph unicode="&#x142;" horiz-adv-x="326" d="M224 386v-386h-116v342l-106 -45v95l106 45v277h116v-233l107 46v-95z" />
<glyph unicode="&#x143;" horiz-adv-x="749" d="M673 0h-120l-354 535v-535h-117v714h131l343 -520v520h117v-714zM336 753l92 159l91 -34l-95 -125h-88z" />
<glyph unicode="&#x144;" horiz-adv-x="604" d="M73 0v524h116v-74q32 42 74.5 64t95.5 22q88 0 134.5 -53t46.5 -141v-342h-116v315q0 21 -4 41.5t-15.5 37t-31.5 27t-51 10.5q-28 0 -52.5 -9.5t-42.5 -27.5t-28 -43.5t-10 -57.5v-293h-116zM259 585l92 159l92 -34l-95 -125h-89z" />
<glyph unicode="&#x145;" horiz-adv-x="749" d="M673 0h-120l-354 535v-535h-117v714h131l343 -520v520h117v-714zM259 -169l67 119h114l-116 -150z" />
<glyph unicode="&#x146;" horiz-adv-x="604" d="M73 0v524h116v-74q32 42 74.5 64t95.5 22q88 0 134.5 -53t46.5 -141v-342h-116v315q0 21 -4 41.5t-15.5 37t-31.5 27t-51 10.5q-28 0 -52.5 -9.5t-42.5 -27.5t-28 -43.5t-10 -57.5v-293h-116zM194 -169l67 119h114l-116 -150z" />
<glyph unicode="&#x147;" horiz-adv-x="749" d="M673 0h-120l-354 535v-535h-117v714h131l343 -520v520h117v-714zM336 749q-26 25 -56 50t-65 51l37 53l127 -70l126 70l37 -53q-35 -26 -65.5 -51t-55.5 -50h-85z" />
<glyph unicode="&#x148;" horiz-adv-x="604" d="M73 0v524h116v-74q32 42 74.5 64t95.5 22q88 0 134.5 -53t46.5 -141v-342h-116v315q0 21 -4 41.5t-15.5 37t-31.5 27t-51 10.5q-28 0 -52.5 -9.5t-42.5 -27.5t-28 -43.5t-10 -57.5v-293h-116zM264 581q-26 25 -56 50t-65 51l37 53l127 -70l126 70l37 -53 q-35 -26 -65.5 -51t-55.5 -50h-85z" />
<glyph unicode="&#x14a;" horiz-adv-x="755" d="M673 24q0 -52 -14.5 -91t-40.5 -64.5t-62.5 -38.5t-79.5 -13q-30 0 -59.5 6.5t-49.5 20.5l34 94q13 -8 31 -15t38 -7q36 0 56.5 22t25.5 63l-353 534v-535h-117v714h131l343 -520v520h117v-690z" />
<glyph unicode="&#x14b;" horiz-adv-x="604" d="M538 6q0 -89 -46 -138.5t-133 -49.5q-26 0 -52 5t-47 16l32 89q11 -5 24.5 -8.5t27.5 -3.5q43 0 61 22.5t18 60.5v316q0 21 -4 41.5t-15.5 37t-31.5 27t-51 10.5q-28 0 -52.5 -9.5t-42.5 -27.5t-28.5 -43.5t-10.5 -57.5v-293h-116v524h116v-74q32 42 75 64t95 22 q88 0 134.5 -53t46.5 -141v-336z" />
<glyph unicode="&#x14c;" horiz-adv-x="779" d="M738 357q0 -78 -24.5 -146t-70 -117.5t-110 -78t-143.5 -28.5q-80 0 -144 28.5t-110 78t-70.5 117.5t-24.5 146t24.5 146t70.5 117.5t110 78t144 28.5q79 0 143.5 -28.5t110 -78t70 -117.5t24.5 -146zM611 357q0 56 -15 103t-43.5 81.5t-69.5 54t-93 19.5q-53 0 -94 -19 t-69 -53.5t-43 -82t-15 -103.5t15 -103.5t43 -82t69 -53.5t94 -19q52 0 93 19t69.5 53.5t43.5 82t15 103.5zM234 773v68h314v-68h-314z" />
<glyph unicode="&#x14d;" horiz-adv-x="642" d="M574 261q0 -60 -19 -110t-53.5 -86.5t-84.5 -56.5t-111 -20q-62 0 -111 20t-84 56.5t-53.5 86.5t-18.5 110q0 61 18.5 111.5t53.5 87t84 56.5t111 20q61 0 111 -20t84.5 -56.5t53.5 -87t19 -111.5zM451 261q0 38 -9.5 70t-28 55.5t-45.5 36.5t-62 13t-62 -13t-45 -36.5 t-27.5 -55.5t-9.5 -70q0 -37 9.5 -68.5t27.5 -55t45 -36.5t62 -13t62 13t45.5 36.5t28 55t9.5 68.5zM156 605v68h314v-68h-314z" />
<glyph unicode="&#x14e;" horiz-adv-x="779" d="M738 357q0 -78 -24.5 -146t-70 -117.5t-110 -78t-143.5 -28.5q-80 0 -144 28.5t-110 78t-70.5 117.5t-24.5 146t24.5 146t70.5 117.5t110 78t144 28.5q79 0 143.5 -28.5t110 -78t70 -117.5t24.5 -146zM611 357q0 56 -15 103t-43.5 81.5t-69.5 54t-93 19.5q-53 0 -94 -19 t-69 -53.5t-43 -82t-15 -103.5t15 -103.5t43 -82t69 -53.5t94 -19q52 0 93 19t69.5 53.5t43.5 82t15 103.5zM390 754q-71 0 -112.5 36t-51.5 90l68 18q9 -29 33 -46.5t63 -17.5t63 17.5t33 46.5l66 -18q-8 -54 -50 -90t-112 -36z" />
<glyph unicode="&#x14f;" horiz-adv-x="642" d="M574 261q0 -60 -19 -110t-53.5 -86.5t-84.5 -56.5t-111 -20q-62 0 -111 20t-84 56.5t-53.5 86.5t-18.5 110q0 61 18.5 111.5t53.5 87t84 56.5t111 20q61 0 111 -20t84.5 -56.5t53.5 -87t19 -111.5zM451 261q0 38 -9.5 70t-28 55.5t-45.5 36.5t-62 13t-62 -13t-45 -36.5 t-27.5 -55.5t-9.5 -70q0 -37 9.5 -68.5t27.5 -55t45 -36.5t62 -13t62 13t45.5 36.5t28 55t9.5 68.5zM315 586q-71 0 -112.5 36t-51.5 90l68 18q9 -29 33 -46.5t63 -17.5t63 17.5t33 46.5l66 -18q-8 -54 -50 -90t-112 -36z" />
<glyph unicode="&#x150;" horiz-adv-x="779" d="M738 357q0 -78 -24.5 -146t-70 -117.5t-110 -78t-143.5 -28.5q-80 0 -144 28.5t-110 78t-70.5 117.5t-24.5 146t24.5 146t70.5 117.5t110 78t144 28.5q79 0 143.5 -28.5t110 -78t70 -117.5t24.5 -146zM611 357q0 56 -15 103t-43.5 81.5t-69.5 54t-93 19.5q-53 0 -94 -19 t-69 -53.5t-43 -82t-15 -103.5t15 -103.5t43 -82t69 -53.5t94 -19q52 0 93 19t69.5 53.5t43.5 82t15 103.5zM247 753l92 159l85 -34l-95 -125h-82zM415 753l92 159l85 -34l-95 -125h-82z" />
<glyph unicode="&#x151;" horiz-adv-x="642" d="M574 261q0 -60 -19 -110t-53.5 -86.5t-84.5 -56.5t-111 -20q-62 0 -111 20t-84 56.5t-53.5 86.5t-18.5 110q0 61 18.5 111.5t53.5 87t84 56.5t111 20q61 0 111 -20t84.5 -56.5t53.5 -87t19 -111.5zM451 261q0 38 -9.5 70t-28 55.5t-45.5 36.5t-62 13t-62 -13t-45 -36.5 t-27.5 -55.5t-9.5 -70q0 -37 9.5 -68.5t27.5 -55t45 -36.5t62 -13t62 13t45.5 36.5t28 55t9.5 68.5zM164 585l92 159l85 -34l-95 -125h-82zM332 585l92 159l85 -34l-95 -125h-82z" />
<glyph unicode="&#x152;" horiz-adv-x="1036" d="M380 0q-84 0 -149 27t-109.5 75t-67.5 113.5t-23 141.5t23 141.5t67.5 113.5t109.5 75t149 27h601v-110h-351v-182h310v-102h-310v-210h361v-110h-611zM508 110v494h-128q-54 0 -95.5 -17.5t-69.5 -50t-42 -78t-14 -101.5t14 -101.5t42 -78t69.5 -50t95.5 -17.5h128z" />
<glyph unicode="&#x153;" horiz-adv-x="995" d="M960 271q0 -11 -0.5 -20t-1.5 -16h-393q3 -69 45.5 -107.5t111.5 -38.5q89 0 148 64l74 -71q-43 -46 -99 -70t-129 -24q-75 0 -127.5 27.5t-84.5 75.5q-32 -48 -83.5 -75.5t-120.5 -27.5q-61 0 -109.5 20.5t-82.5 57.5t-52 86.5t-18 108.5t18 109.5t52 87.5t82.5 58 t109.5 21q69 0 121 -28t84 -76q31 48 81.5 76t118.5 28q60 0 107 -20t80 -55t50.5 -84t17.5 -107zM445 261q0 38 -9.5 70t-27.5 55.5t-44.5 36.5t-60.5 13t-60.5 -13t-44.5 -36.5t-27.5 -55.5t-9.5 -70q0 -37 9.5 -68.5t27.5 -55t44.5 -36.5t60.5 -13t60.5 13t44.5 36.5 t27.5 55t9.5 68.5zM844 315q-6 66 -44.5 98t-94.5 32q-60 0 -97 -35t-42 -95h278z" />
<glyph unicode="&#x154;" horiz-adv-x="681" d="M513 0l-160 275h-149v-275h-122v714h301q62 0 110 -15.5t80.5 -44t49.5 -67.5t17 -87q0 -79 -44.5 -131.5t-117.5 -75.5l171 -293h-136zM515 493q0 51 -35 81t-100 30h-176v-226h168q66 0 104.5 30.5t38.5 84.5zM290 753l92 159l91 -34l-95 -125h-88z" />
<glyph unicode="&#x155;" horiz-adv-x="397" d="M366 408q-20 11 -51 11q-54 0 -90.5 -42t-36.5 -117v-260h-116v524h116v-86q24 45 62.5 70.5t83.5 25.5q17 0 33.5 -3t25.5 -8zM149 580l92 159l91 -34l-95 -125h-88z" />
<glyph unicode="&#x156;" horiz-adv-x="681" d="M513 0l-160 275h-149v-275h-122v714h301q62 0 110 -15.5t80.5 -44t49.5 -67.5t17 -87q0 -79 -44.5 -131.5t-117.5 -75.5l171 -293h-136zM515 493q0 51 -35 81t-100 30h-176v-226h168q66 0 104.5 30.5t38.5 84.5zM222 -169l67 119h114l-116 -150z" />
<glyph unicode="&#x157;" horiz-adv-x="397" d="M366 408q-20 11 -51 11q-54 0 -90.5 -42t-36.5 -117v-260h-116v524h116v-86q24 45 62.5 70.5t83.5 25.5q17 0 33.5 -3t25.5 -8zM10 -169l67 119h114l-116 -150z" />
<glyph unicode="&#x158;" horiz-adv-x="681" d="M513 0l-160 275h-149v-275h-122v714h301q62 0 110 -15.5t80.5 -44t49.5 -67.5t17 -87q0 -79 -44.5 -131.5t-117.5 -75.5l171 -293h-136zM515 493q0 51 -35 81t-100 30h-176v-226h168q66 0 104.5 30.5t38.5 84.5zM301 749q-26 25 -56 50t-65 51l37 53l127 -70l126 70 l37 -53q-35 -26 -65.5 -51t-55.5 -50h-85z" />
<glyph unicode="&#x159;" horiz-adv-x="397" d="M366 408q-20 11 -51 11q-54 0 -90.5 -42t-36.5 -117v-260h-116v524h116v-86q24 45 62.5 70.5t83.5 25.5q17 0 33.5 -3t25.5 -8zM175 581q-26 25 -56 50t-65 51l37 53l127 -70l126 70l37 -53q-35 -26 -65.5 -51t-55.5 -50h-85z" />
<glyph unicode="&#x15a;" horiz-adv-x="642" d="M313 727q87 0 158.5 -33.5t116.5 -93.5l-87 -70q-30 42 -80 66t-109 24q-26 0 -49.5 -5t-41 -16t-28 -28t-10.5 -42q0 -26 12 -42.5t32 -27.5t47.5 -18t58.5 -14q53 -12 101.5 -27.5t85.5 -39.5t59 -60t22 -90q0 -50 -19.5 -91.5t-56 -70.5t-88.5 -45t-116 -16 q-101 0 -176 38t-119 104l91 73q37 -57 93 -83t119 -26q69 0 108.5 28t39.5 79q0 30 -18 49t-47 32t-66.5 22t-77 19t-77 23.5t-66.5 36t-47 56t-18 82.5t19 87.5t52.5 65t80 40.5t101.5 14zM251 753l92 159l91 -34l-95 -125h-88z" />
<glyph unicode="&#x15b;" horiz-adv-x="524" d="M486 162q0 -39 -16.5 -71.5t-45.5 -55t-70.5 -35t-90.5 -12.5q-82 0 -142 30.5t-97 75.5l79 64q55 -78 163 -78q54 0 80.5 19t26.5 50q0 21 -11 33t-29.5 19t-43 11t-50.5 9q-35 6 -68.5 17t-59.5 29t-41.5 44.5t-15.5 65.5q0 37 15 66.5t41.5 50.5t63.5 32t82 11 q75 0 128.5 -28t88.5 -69l-73 -60q-20 26 -56 46t-90 20q-45 0 -67.5 -16t-22.5 -43q0 -17 8.5 -28t24.5 -18.5t37 -12.5t47 -9q40 -8 77 -18t65.5 -27t45.5 -44t17 -68zM200 585l92 159l92 -34l-95 -125h-89z" />
<glyph unicode="&#x15c;" horiz-adv-x="642" d="M313 727q87 0 158.5 -33.5t116.5 -93.5l-87 -70q-30 42 -80 66t-109 24q-26 0 -49.5 -5t-41 -16t-28 -28t-10.5 -42q0 -26 12 -42.5t32 -27.5t47.5 -18t58.5 -14q53 -12 101.5 -27.5t85.5 -39.5t59 -60t22 -90q0 -50 -19.5 -91.5t-56 -70.5t-88.5 -45t-116 -16 q-101 0 -176 38t-119 104l91 73q37 -57 93 -83t119 -26q69 0 108.5 28t39.5 79q0 30 -18 49t-47 32t-66.5 22t-77 19t-77 23.5t-66.5 36t-47 56t-18 82.5t19 87.5t52.5 65t80 40.5t101.5 14zM360 908q26 -25 56 -50t65 -51l-37 -53l-126 70l-126 -70l-38 53q35 26 65.5 51 t55.5 50h85z" />
<glyph unicode="&#x15d;" horiz-adv-x="524" d="M486 162q0 -39 -16.5 -71.5t-45.5 -55t-70.5 -35t-90.5 -12.5q-82 0 -142 30.5t-97 75.5l79 64q55 -78 163 -78q54 0 80.5 19t26.5 50q0 21 -11 33t-29.5 19t-43 11t-50.5 9q-35 6 -68.5 17t-59.5 29t-41.5 44.5t-15.5 65.5q0 37 15 66.5t41.5 50.5t63.5 32t82 11 q75 0 128.5 -28t88.5 -69l-73 -60q-20 26 -56 46t-90 20q-45 0 -67.5 -16t-22.5 -43q0 -17 8.5 -28t24.5 -18.5t37 -12.5t47 -9q40 -8 77 -18t65.5 -27t45.5 -44t17 -68zM306 731q26 -25 56 -50t65 -51l-37 -53l-126 70l-126 -70l-38 53q35 26 65.5 51t55.5 50h85z" />
<glyph unicode="&#x15e;" horiz-adv-x="642" d="M313 727q87 0 158.5 -33.5t116.5 -93.5l-87 -70q-30 42 -80 66t-109 24q-26 0 -49.5 -5t-41 -16t-28 -28t-10.5 -42q0 -26 12 -42.5t32 -27.5t47.5 -18t58.5 -14q53 -12 101.5 -27.5t85.5 -39.5t59 -60t22 -90q0 -50 -19.5 -91.5t-56 -70.5t-88.5 -45t-116 -16 q-101 0 -176 38t-119 104l91 73q37 -57 93 -83t119 -26q69 0 108.5 28t39.5 79q0 30 -18 49t-47 32t-66.5 22t-77 19t-77 23.5t-66.5 36t-47 56t-18 82.5t19 87.5t52.5 65t80 40.5t101.5 14zM268 -200q-24 0 -44.5 3.5t-32.5 8.5v55q14 -9 33 -12t30 -3q27 0 42.5 9.5 t15.5 27.5q0 9 -4 13.5t-9 7.5h-57l16 57q9 5 21.5 8t27.5 3q40 0 67.5 -22t27.5 -61q0 -46 -38 -70.5t-96 -24.5z" />
<glyph unicode="&#x15f;" horiz-adv-x="524" d="M486 162q0 -39 -16.5 -71.5t-45.5 -55t-70.5 -35t-90.5 -12.5q-82 0 -142 30.5t-97 75.5l79 64q55 -78 163 -78q54 0 80.5 19t26.5 50q0 21 -11 33t-29.5 19t-43 11t-50.5 9q-35 6 -68.5 17t-59.5 29t-41.5 44.5t-15.5 65.5q0 37 15 66.5t41.5 50.5t63.5 32t82 11 q75 0 128.5 -28t88.5 -69l-73 -60q-20 26 -56 46t-90 20q-45 0 -67.5 -16t-22.5 -43q0 -17 8.5 -28t24.5 -18.5t37 -12.5t47 -9q40 -8 77 -18t65.5 -27t45.5 -44t17 -68zM214 -201q-24 0 -44.5 3.5t-32.5 8.5v55q14 -9 33 -12t30 -3q27 0 42.5 9.5t15.5 27.5q0 9 -4 13.5 t-9 7.5h-57l16 57q9 5 21.5 8t27.5 3q40 0 67.5 -22t27.5 -61q0 -46 -38 -70.5t-96 -24.5z" />
<glyph unicode="&#x160;" horiz-adv-x="642" d="M313 727q87 0 158.5 -33.5t116.5 -93.5l-87 -70q-30 42 -80 66t-109 24q-26 0 -49.5 -5t-41 -16t-28 -28t-10.5 -42q0 -26 12 -42.5t32 -27.5t47.5 -18t58.5 -14q53 -12 101.5 -27.5t85.5 -39.5t59 -60t22 -90q0 -50 -19.5 -91.5t-56 -70.5t-88.5 -45t-116 -16 q-101 0 -176 38t-119 104l91 73q37 -57 93 -83t119 -26q69 0 108.5 28t39.5 79q0 30 -18 49t-47 32t-66.5 22t-77 19t-77 23.5t-66.5 36t-47 56t-18 82.5t19 87.5t52.5 65t80 40.5t101.5 14zM269 749q-26 25 -56 50t-65 51l37 53l127 -70l126 70l37 -53q-35 -26 -65.5 -51 t-55.5 -50h-85z" />
<glyph unicode="&#x161;" horiz-adv-x="524" d="M223 581q-26 25 -56 50t-65 51l37 53l127 -70l126 70l37 -53q-35 -26 -65.5 -51t-55.5 -50h-85zM486 162q0 -39 -16.5 -71.5t-45.5 -55t-70.5 -35t-90.5 -12.5q-82 0 -142 30.5t-97 75.5l79 64q55 -78 163 -78q54 0 80.5 19t26.5 50q0 21 -11 33t-29.5 19t-43 11t-50.5 9 q-35 6 -68.5 17t-59.5 29t-41.5 44.5t-15.5 65.5q0 37 15 66.5t41.5 50.5t63.5 32t82 11q75 0 128.5 -28t88.5 -69l-73 -60q-20 26 -56 46t-90 20q-45 0 -67.5 -16t-22.5 -43q0 -17 8.5 -28t24.5 -18.5t37 -12.5t47 -9q40 -8 77 -18t65.5 -27t45.5 -44t17 -68z" />
<glyph unicode="&#x162;" horiz-adv-x="636" d="M379 604v-604h-122v604h-231v110h584v-110h-231zM196 -169l67 119h114l-116 -150z" />
<glyph unicode="&#x163;" horiz-adv-x="421" d="M400 26q-23 -18 -55 -28t-71 -10q-45 0 -80.5 15.5t-58.5 50.5q-14 21 -20.5 47t-6.5 64v267h-93v84q29 3 50.5 10t35.5 23t22 43.5t10 69.5h91v-138h158v-92h-158v-264q0 -42 18 -60t50 -18q45 0 74 24zM130 -169l67 119h114l-116 -150z" />
<glyph unicode="&#x164;" horiz-adv-x="636" d="M379 604v-604h-122v604h-231v110h584v-110h-231zM282 749q-26 25 -56 50t-65 51l37 53l127 -70l126 70l37 -53q-35 -26 -65.5 -51t-55.5 -50h-85z" />
<glyph unicode="&#x165;" horiz-adv-x="420" d="M406 26q-23 -18 -55 -28t-71 -10q-45 0 -80.5 15.5t-58.5 50.5q-14 21 -20.5 47t-6.5 64v267h-93v84q29 3 50.5 10t35.5 23t22 43.5t10 69.5h91v-138h158v-92h-158v-264q0 -42 18 -60t50 -18q45 0 74 24zM373.033 686.775q0 -44.8613 -17.4521 -79.4912 q-17.4521 -34.6309 -54.1025 -66.8994l-45.376 34.6299q18.3252 15.7412 29.6689 36.2041q11.3438 20.4639 11.3438 42.501q0 11.8057 -3.49023 20.4629q-3.49023 8.6582 -7.85352 17.3154t-7.85352 18.4951q-3.49023 9.83887 -3.49023 23.2188v15.7402h98.6055v-62.1768z " />
<glyph unicode="&#x166;" horiz-adv-x="635" d="M377 337v-337h-120v337h-112v66h112v203h-231v108h583v-108h-232v-203h114v-66h-114z" />
<glyph unicode="&#x167;" horiz-adv-x="420" d="M406 26q-23 -18 -55 -28t-71 -10q-45 0 -80.5 15.5t-58.5 50.5q-14 21 -20.5 47t-6.5 64v93h-78v65h78v109h-93v84q29 3 50.5 10t35.5 23t22 43.5t10 69.5h91v-138h158v-92h-158v-109h122v-65h-122v-90q0 -42 18 -60t50 -18q45 0 74 24z" />
<glyph unicode="&#x168;" horiz-adv-x="724" d="M649 265q0 -65 -21 -116.5t-59.5 -87.5t-91.5 -55t-116 -19q-64 0 -116.5 19t-90 55t-58.5 87.5t-21 116.5v449h122v-449q0 -77 43 -121t121 -44t122 44t44 121v449h122v-449zM536 852q-15 -38 -44.5 -65.5t-68.5 -27.5q-20 0 -37 7t-32.5 15t-30 15t-27.5 7 q-19 0 -30.5 -12.5t-19.5 -31.5l-60 32q16 38 44.5 65.5t66.5 27.5q19 0 36 -7t32.5 -15.5t30 -15.5t28.5 -7q35 0 52 45z" />
<glyph unicode="&#x169;" d="M536 524v-524h-116v74q-32 -42 -74.5 -64t-95.5 -22q-87 0 -134 53.5t-47 140.5v342h116v-296q0 -23 2.5 -47t12.5 -43.5t30.5 -32t55.5 -12.5q63 0 98.5 41.5t35.5 114.5v275h116zM478 684q-15 -38 -44.5 -65.5t-68.5 -27.5q-20 0 -37 7t-32.5 15t-30 15t-27.5 7 q-19 0 -30.5 -12.5t-19.5 -31.5l-60 32q16 38 44.5 65.5t66.5 27.5q19 0 36 -7t32.5 -15.5t30 -15.5t28.5 -7q35 0 52 45z" />
<glyph unicode="&#x16a;" horiz-adv-x="724" d="M649 265q0 -65 -21 -116.5t-59.5 -87.5t-91.5 -55t-116 -19q-64 0 -116.5 19t-90 55t-58.5 87.5t-21 116.5v449h122v-449q0 -77 43 -121t121 -44t122 44t44 121v449h122v-449zM207 773v68h314v-68h-314z" />
<glyph unicode="&#x16b;" d="M536 524v-524h-116v74q-32 -42 -74.5 -64t-95.5 -22q-87 0 -134 53.5t-47 140.5v342h116v-296q0 -23 2.5 -47t12.5 -43.5t30.5 -32t55.5 -12.5q63 0 98.5 41.5t35.5 114.5v275h116zM144 605v68h314v-68h-314z" />
<glyph unicode="&#x16c;" horiz-adv-x="724" d="M649 265q0 -65 -21 -116.5t-59.5 -87.5t-91.5 -55t-116 -19q-64 0 -116.5 19t-90 55t-58.5 87.5t-21 116.5v449h122v-449q0 -77 43 -121t121 -44t122 44t44 121v449h122v-449zM362 754q-71 0 -112.5 36t-51.5 90l68 18q9 -29 33 -46.5t63 -17.5t63 17.5t33 46.5l66 -18 q-8 -54 -50 -90t-112 -36z" />
<glyph unicode="&#x16d;" d="M536 524v-524h-116v74q-32 -42 -74.5 -64t-95.5 -22q-87 0 -134 53.5t-47 140.5v342h116v-296q0 -23 2.5 -47t12.5 -43.5t30.5 -32t55.5 -12.5q63 0 98.5 41.5t35.5 114.5v275h116zM300 586q-71 0 -112.5 36t-51.5 90l68 18q9 -29 33 -46.5t63 -17.5t63 17.5t33 46.5 l66 -18q-8 -54 -50 -90t-112 -36z" />
<glyph unicode="&#x16e;" horiz-adv-x="724" d="M649 265q0 -65 -21 -116.5t-59.5 -87.5t-91.5 -55t-116 -19q-64 0 -116.5 19t-90 55t-58.5 87.5t-21 116.5v449h122v-449q0 -77 43 -121t121 -44t122 44t44 121v449h122v-449zM475 845q0 -22 -8.5 -41t-23.5 -33t-36 -22t-45 -8q-50 0 -82 30t-32 74q0 21 8.5 40.5 t23.5 33.5t36 22.5t46 8.5q24 0 45 -8.5t36 -22.5t23.5 -33.5t8.5 -40.5zM415 845q0 22 -15.5 38t-37.5 16q-23 0 -39 -16t-16 -38q0 -23 16 -39t39 -16q22 0 37.5 16t15.5 39z" />
<glyph unicode="&#x16f;" d="M536 524v-524h-116v74q-32 -42 -74.5 -64t-95.5 -22q-87 0 -134 53.5t-47 140.5v342h116v-296q0 -23 2.5 -47t12.5 -43.5t30.5 -32t55.5 -12.5q63 0 98.5 41.5t35.5 114.5v275h116zM413 677q0 -22 -8.5 -41t-23.5 -33t-36 -22t-45 -8q-50 0 -82 30t-32 74q0 21 8.5 40.5 t23.5 33.5t36 22.5t46 8.5q24 0 45 -8.5t36 -22.5t23.5 -33.5t8.5 -40.5zM353 677q0 22 -15.5 38t-37.5 16q-23 0 -39 -16t-16 -38q0 -23 16 -39t39 -16q22 0 37.5 16t15.5 39z" />
<glyph unicode="&#x170;" horiz-adv-x="724" d="M649 265q0 -65 -21 -116.5t-59.5 -87.5t-91.5 -55t-116 -19q-64 0 -116.5 19t-90 55t-58.5 87.5t-21 116.5v449h122v-449q0 -77 43 -121t121 -44t122 44t44 121v449h122v-449zM220 753l92 159l85 -34l-95 -125h-82zM388 753l92 159l85 -34l-95 -125h-82z" />
<glyph unicode="&#x171;" d="M536 524v-524h-116v74q-32 -42 -74.5 -64t-95.5 -22q-87 0 -134 53.5t-47 140.5v342h116v-296q0 -23 2.5 -47t12.5 -43.5t30.5 -32t55.5 -12.5q63 0 98.5 41.5t35.5 114.5v275h116zM169 585l92 159l85 -34l-95 -125h-82zM337 585l92 159l85 -34l-95 -125h-82z" />
<glyph unicode="&#x172;" horiz-adv-x="724" d="M649 265q0 -85 -33.5 -142.5t-93.5 -95.5q-10 -6 -23 -15t-25 -20.5t-20 -25.5t-8 -30q0 -19 11.5 -28.5t30.5 -9.5q17 0 34 7t28 18v-80q-12 -11 -35 -19t-52 -8q-46 0 -75 23.5t-29 65.5q0 45 40 84q-10 -1 -19 -1.5t-21 -0.5q-63 0 -115 19t-89.5 55t-58.5 87.5 t-21 116.5v449h122v-449q0 -77 43 -121t121 -44t122 44t44 121v449h122v-449z" />
<glyph unicode="&#x173;" d="M536 524v-524h-47q-17 -14 -28 -30t-11 -35q0 -37 41 -37q17 0 34 7t28 18v-80q-11 -11 -34 -19t-52 -8q-46 0 -75 23.5t-29 65.5q0 26 13.5 51.5t43.5 49.5v68q-32 -42 -74.5 -64t-95.5 -22q-87 0 -134 53.5t-47 140.5v342h116v-302q0 -22 3 -45t13 -41.5t30 -30.5 t55 -12q63 0 98.5 40.5t35.5 112.5v278h116z" />
<glyph unicode="&#x174;" horiz-adv-x="992" d="M759 0h-128l-149 522l-149 -522h-128l-183 714h131l124 -531l153 531h106l154 -533l124 533h132zM531 908q26 -25 56 -50t65 -51l-37 -53l-126 70l-126 -70l-38 53q35 26 65.5 51t55.5 50h85z" />
<glyph unicode="&#x175;" horiz-adv-x="807" d="M637 0h-121l-112 378l-114 -378h-121l-146 524h126l90 -381l116 381h100l114 -381l92 381h122zM447 731q26 -25 56 -50t65 -51l-37 -53l-126 70l-126 -70l-38 53q35 26 65.5 51t55.5 50h85z" />
<glyph unicode="&#x176;" horiz-adv-x="636" d="M381 298v-298h-124v297l-255 417h142l176 -302l176 302h139zM361 908q26 -25 56 -50t65 -51l-37 -53l-126 70l-126 -70l-38 53q35 26 65.5 51t55.5 50h85z" />
<glyph unicode="&#x177;" horiz-adv-x="552" d="M334 -21q-15 -40 -32.5 -70.5t-39.5 -51t-51 -31t-67 -10.5q-31 0 -59.5 7t-50.5 22l36 89q24 -21 61 -21q32 0 50.5 19t32.5 48l12 28l-218 516h132l147 -371l131 371h124zM318 731q26 -25 56 -50t65 -51l-37 -53l-126 70l-126 -70l-38 53q35 26 65.5 51t55.5 50h85z " />
<glyph unicode="&#x178;" horiz-adv-x="636" d="M381 298v-298h-124v297l-255 417h142l176 -302l176 302h139zM164 810q0 23 16.5 40t39.5 17q24 0 40.5 -16.5t16.5 -40.5q0 -23 -16.5 -39.5t-40.5 -16.5q-23 0 -39.5 16.5t-16.5 39.5zM359 810q0 23 16.5 40t39.5 17q24 0 40.5 -16.5t16.5 -40.5q0 -23 -16.5 -39.5 t-40.5 -16.5q-23 0 -39.5 16.5t-16.5 39.5z" />
<glyph unicode="&#x179;" horiz-adv-x="641" d="M39 0v100l387 504h-371v110h535v-96l-389 -508h398v-110h-560zM258 753l92 159l91 -34l-95 -125h-88z" />
<glyph unicode="&#x17a;" horiz-adv-x="522" d="M37 0v88l277 335h-264v101h423v-85l-280 -338h289v-101h-445zM208 585l92 159l92 -34l-95 -125h-89z" />
<glyph unicode="&#x17b;" horiz-adv-x="641" d="M39 0v100l387 504h-371v110h535v-96l-389 -508h398v-110h-560zM272 812q0 23 17.5 40.5t40.5 17.5q24 0 41 -17t17 -41q0 -23 -17 -40.5t-41 -17.5q-23 0 -40.5 17t-17.5 41z" />
<glyph unicode="&#x17c;" horiz-adv-x="522" d="M37 0v88l277 335h-264v101h423v-85l-280 -338h289v-101h-445zM199 644q0 23 17.5 40.5t40.5 17.5q24 0 41 -17t17 -41q0 -23 -17 -40.5t-41 -17.5q-23 0 -40.5 17t-17.5 41z" />
<glyph unicode="&#x17d;" horiz-adv-x="641" d="M39 0v100l387 504h-371v110h535v-96l-389 -508h398v-110h-560zM273 749q-26 25 -56 50t-65 51l37 53l127 -70l126 70l37 -53q-35 -26 -65.5 -51t-55.5 -50h-85z" />
<glyph unicode="&#x17e;" horiz-adv-x="522" d="M37 0v88l277 335h-264v101h423v-85l-280 -338h289v-101h-445zM211 581q-26 25 -56 50t-65 51l37 53l127 -70l126 70l37 -53q-35 -26 -65.5 -51t-55.5 -50h-85z" />
<glyph unicode="&#x192;" d="M535 612q-14 8 -26.5 11.5t-30.5 3.5q-41 0 -61.5 -19.5t-26.5 -55.5l-13 -83h127l-17 -92h-127l-55 -318q-6 -38 -20.5 -70.5t-38 -55.5t-57 -36t-77.5 -13q-32 0 -57.5 6t-45.5 16l38 91q14 -7 28 -10.5t31 -3.5q38 0 58.5 20t27.5 55l55 319h-103l15 92h105l13 83 q13 78 59.5 126.5t134.5 48.5q32 0 57 -6.5t44 -15.5z" />
<glyph unicode="&#x1fa;" horiz-adv-x="691" d="M380 1000h102l-97 -113h-78zM344 599l-111 -312h219zM297 763q0 -20 14.5 -34.5t35.5 -14.5q20 0 34.5 14.5t14.5 34.5q0 21 -14.5 35.5t-34.5 14.5q-21 0 -35.5 -14.5t-14.5 -35.5zM239 764q0 21 8 39t22.5 32t34.5 22t43 8q22 0 41.5 -8t34 -22t22.5 -32t8 -39 q0 -42 -30 -69l262 -695h-133l-65 185h-288l-66 -185h-126l262 695q-14 13 -22 30.5t-8 38.5z" />
<glyph unicode="&#x1fb;" horiz-adv-x="575" d="M380 270q-10 -11 -24 -17t-30.5 -10t-34 -6t-34.5 -5q-20 -3 -37.5 -7.5t-31 -13t-21.5 -22t-8 -35.5q0 -41 26.5 -59t66.5 -18q25 0 48 7t41 22t28.5 37.5t10.5 54.5v72zM228 -13q-41 0 -75 11t-59 32t-38.5 52t-13.5 70q0 40 14.5 67.5t40 45.5t60 27.5t75.5 14.5 q25 3 51.5 5.5t48 9.5t35 19t13.5 35q0 33 -29.5 48.5t-74.5 15.5q-42 0 -84 -13.5t-80 -40.5l-47 86q98 65 217 65q48 0 87 -10.5t67.5 -32t44 -55t15.5 -79.5v-236q0 -47 33 -47q16 0 27 8l13 -80q-11 -7 -31.5 -10.5t-37.5 -3.5q-35 0 -64.5 18t-38.5 56 q-26 -38 -69.5 -58t-99.5 -20zM385 663q0 -22 -8.5 -41t-23.5 -33t-36 -22t-45 -8q-50 0 -82 30t-32 74q0 21 8.5 40.5t23.5 33.5t36 22.5t46 8.5q24 0 45 -8.5t36 -22.5t23.5 -33.5t8.5 -40.5zM325 663q0 22 -15.5 38t-37.5 16q-23 0 -39 -16t-16 -38q0 -23 16 -39t39 -16 q22 0 37.5 16t15.5 39zM211 790l92 159l91 -34l-95 -125h-88z" />
<glyph unicode="&#x1fc;" horiz-adv-x="924" d="M424 0v185h-235l-102 -185h-128l397 714h510v-108h-321v-183h281v-101h-281v-214h331v-108h-452zM424 609l-41 -60l-142 -263h183v323zM416 753l92 159l91 -34l-95 -125h-88z" />
<glyph unicode="&#x1fd;" horiz-adv-x="916" d="M372 277q-14 -18 -36 -26t-46.5 -12.5t-49.5 -8t-44.5 -11t-32 -22.5t-12.5 -43q0 -41 26.5 -59t66.5 -18q25 0 48.5 7t41 22t28 37.5t10.5 54.5v79zM865 82q-44 -46 -100 -70t-126 -24q-141 0 -210 98q-30 -47 -79.5 -72.5t-118.5 -25.5q-89 0 -143 41.5t-54 120.5 q0 43 16 71t41 45.5t55 26t58 12.5q33 5 63 8t53 9t37 17.5t14 34.5q0 19 -9 31.5t-24 20t-33.5 11t-37.5 3.5q-41 0 -83 -13.5t-80 -40.5l-47 86q48 32 102 48.5t111 16.5q59 0 105 -19t72 -61q37 42 81.5 61t98.5 19q59 0 106 -20t80 -55t50.5 -83.5t17.5 -105.5 q0 -12 -0.5 -21.5t-1.5 -16.5h-394q4 -70 47 -108t112 -38q88 0 148 65zM765 315q-3 33 -14.5 57t-30 40.5t-43 24.5t-51.5 8q-60 0 -97 -35t-42 -95h278zM386 585l92 159l91 -34l-95 -125h-88z" />
<glyph unicode="&#x1fe;" horiz-adv-x="779" d="M338 753l92 159l91 -34l-95 -125h-88zM625 639q54 -51 83.5 -123t29.5 -159q0 -78 -24.5 -146t-70 -117.5t-110 -78t-143.5 -28.5q-98 0 -175 43l-20 -30h-91l50 74q-54 51 -83.5 123.5t-29.5 159.5q0 78 24.5 146t70.5 117.5t110 78t144 28.5q50 0 93 -11.5t81 -31.5 l20 30h91zM611 357q0 54 -14 100t-42 79l-275 -409q23 -14 50.5 -21t59.5 -7q52 0 93 19t69.5 53.5t43.5 82t15 103.5zM169 357q0 -111 54 -180l276 410q-48 28 -109 28q-53 0 -94 -19t-69 -53.5t-43 -82t-15 -103.5z" />
<glyph unicode="&#x1ff;" horiz-adv-x="614" d="M247 585l92 159l91 -34l-95 -125h-88zM498 463q37 -37 56.5 -88t19.5 -114q0 -60 -19 -110t-53.5 -86.5t-84.5 -56.5t-111 -20q-84 0 -144 36l-18 -24h-76l47 60q-37 37 -56.5 87.5t-19.5 113.5q0 61 18.5 111.5t53.5 87t84 56.5t111 20q82 0 144 -37l19 25h76zM162 261 q0 -61 26 -104l196 256q-32 23 -78 23q-35 0 -62 -13t-45 -36.5t-27.5 -55.5t-9.5 -70zM451 261q0 62 -26 106l-197 -257q32 -22 78 -22q35 0 62 13t45.5 36.5t28 55t9.5 68.5z" />
<glyph unicode="&#x218;" horiz-adv-x="642" d="M313 727q87 0 158.5 -33.5t116.5 -93.5l-87 -70q-30 42 -80 66t-109 24q-26 0 -49.5 -5t-41 -16t-28 -28t-10.5 -42q0 -26 12 -42.5t32 -27.5t47.5 -18t58.5 -14q53 -12 101.5 -27.5t85.5 -39.5t59 -60t22 -90q0 -50 -19.5 -91.5t-56 -70.5t-88.5 -45t-116 -16 q-101 0 -176 38t-119 104l91 73q37 -57 93 -83t119 -26q69 0 108.5 28t39.5 79q0 30 -18 49t-47 32t-66.5 22t-77 19t-77 23.5t-66.5 36t-47 56t-18 82.5t19 87.5t52.5 65t80 40.5t101.5 14zM191 -169l67 119h114l-116 -150z" />
<glyph unicode="&#x219;" horiz-adv-x="524" d="M486 162q0 -39 -16.5 -71.5t-45.5 -55t-70.5 -35t-90.5 -12.5q-82 0 -142 30.5t-97 75.5l79 64q55 -78 163 -78q54 0 80.5 19t26.5 50q0 21 -11 33t-29.5 19t-43 11t-50.5 9q-35 6 -68.5 17t-59.5 29t-41.5 44.5t-15.5 65.5q0 37 15 66.5t41.5 50.5t63.5 32t82 11 q75 0 128.5 -28t88.5 -69l-73 -60q-20 26 -56 46t-90 20q-45 0 -67.5 -16t-22.5 -43q0 -17 8.5 -28t24.5 -18.5t37 -12.5t47 -9q40 -8 77 -18t65.5 -27t45.5 -44t17 -68zM156 -169l67 119h114l-116 -150z" />
<glyph unicode="&#x21a;" horiz-adv-x="636" d="M379 604v-604h-122v604h-231v110h584v-110h-231zM271 -200q-24 0 -44.5 3.5t-32.5 8.5v55q14 -9 33 -12t30 -3q27 0 42.5 9.5t15.5 27.5q0 9 -4 13.5t-9 7.5h-57l16 57q9 5 21.5 8t27.5 3q40 0 67.5 -22t27.5 -61q0 -46 -38 -70.5t-96 -24.5z" />
<glyph unicode="&#x21b;" horiz-adv-x="420" d="M406 26q-23 -18 -55 -28t-71 -10q-45 0 -80.5 15.5t-58.5 50.5q-14 21 -20.5 47t-6.5 64v267h-93v84q29 3 50.5 10t35.5 23t22 43.5t10 69.5h91v-138h158v-92h-158v-264q0 -42 18 -60t50 -18q45 0 74 24zM188 -200q-24 0 -44.5 3.5t-32.5 8.5v55q14 -9 33 -12t30 -3 q27 0 42.5 9.5t15.5 27.5q0 9 -4 13.5t-9 7.5h-57l16 57q9 5 21.5 8t27.5 3q40 0 67.5 -22t27.5 -61q0 -46 -38 -70.5t-96 -24.5z" />
<glyph unicode="&#x237;" horiz-adv-x="270" d="M199 2q0 -94 -47.5 -139.5t-124.5 -45.5q-24 0 -49.5 5.5t-42.5 16.5l26 90q11 -5 23.5 -10t30.5 -5q36 0 52 22t16 62v526h116v-522z" />
<glyph unicode="&#x259;" horiz-adv-x="592" d="M148 211q3 -33 15 -58t30.5 -41t43 -24t52.5 -8q60 0 98 35.5t43 95.5h-282zM555 263q0 -59 -18 -109.5t-52 -87t-83.5 -57.5t-111.5 -21q-60 0 -108 20t-81 54.5t-50.5 82t-17.5 102.5q0 12 1 23.5t3 20.5h395q-4 69 -46 105.5t-108 36.5q-43 0 -80.5 -17t-62.5 -53 l-88 57q34 50 92 83t144 33q63 0 113.5 -20t86 -56t54 -86.5t18.5 -110.5z" />
<glyph unicode="&#x2c6;" horiz-adv-x="331" d="M210 731q26 -25 56 -50t65 -51l-37 -53l-126 70l-126 -70l-38 53q35 26 65.5 51t55.5 50h85z" />
<glyph unicode="&#x2c7;" horiz-adv-x="331" d="M125 581q-26 25 -56 50t-65 51l37 53l127 -70l126 70l37 -53q-35 -26 -65.5 -51t-55.5 -50h-85z" />
<glyph unicode="&#x2d8;" horiz-adv-x="331" d="M168 586q-71 0 -112.5 36t-51.5 90l68 18q9 -29 33 -46.5t63 -17.5t63 17.5t33 46.5l66 -18q-8 -54 -50 -90t-112 -36z" />
<glyph unicode="&#x2d9;" horiz-adv-x="321" d="M102 644q0 23 17.5 40.5t40.5 17.5q24 0 41 -17t17 -41q0 -23 -17 -40.5t-41 -17.5q-23 0 -40.5 17t-17.5 41z" />
<glyph unicode="&#x2da;" horiz-adv-x="321" d="M277 677q0 -22 -8.5 -41t-23.5 -33t-36 -22t-45 -8q-50 0 -82 30t-32 74q0 21 8.5 40.5t23.5 33.5t36 22.5t46 8.5q24 0 45 -8.5t36 -22.5t23.5 -33.5t8.5 -40.5zM217 677q0 22 -15.5 38t-37.5 16q-23 0 -39 -16t-16 -38q0 -23 16 -39t39 -16q22 0 37.5 16t15.5 39z" />
<glyph unicode="&#x2db;" horiz-adv-x="321" d="M233 27q-29 -21 -52.5 -43t-23.5 -49q0 -17 11 -27t31 -10q17 0 34 7t28 18v-80q-12 -11 -35 -19t-51 -8q-47 0 -76 23.5t-29 65.5q0 67 89 122h74z" />
<glyph unicode="&#x2dc;" horiz-adv-x="348" d="M350 684q-15 -38 -44.5 -65.5t-68.5 -27.5q-20 0 -37 7t-32.5 15t-30 15t-27.5 7q-19 0 -30.5 -12.5t-19.5 -31.5l-60 32q16 38 44.5 65.5t66.5 27.5q19 0 36 -7t32.5 -15.5t30 -15.5t28.5 -7q35 0 52 45z" />
<glyph unicode="&#x2dd;" horiz-adv-x="377" d="M50 585l92 159l85 -34l-95 -125h-82zM218 585l92 159l85 -34l-95 -125h-82z" />
<glyph unicode="&#x3bc;" d="M70 -174v698h115v-314q0 -57 24 -89t77 -32q59 0 92.5 39.5t33.5 117.5v278h116v-524h-108v64q-26 -38 -63 -57t-75 -19q-32 0 -57.5 12.5t-39.5 30.5v-205h-115z" />
<glyph unicode="&#x3c0;" horiz-adv-x="594" d="M492 448v-448h-77v448h-236v-448h-78v448h-70v76h531v-76h-70z" />
<glyph unicode="&#x1e80;" horiz-adv-x="992" d="M759 0h-128l-149 522l-149 -522h-128l-183 714h131l124 -531l153 531h106l154 -533l124 533h132zM443 753l-95 125l92 34l92 -159h-89z" />
<glyph unicode="&#x1e81;" horiz-adv-x="807" d="M637 0h-121l-112 378l-114 -378h-121l-146 524h126l90 -381l116 381h100l114 -381l92 381h122zM367 585l-95 125l92 34l92 -159h-89z" />
<glyph unicode="&#x1e82;" horiz-adv-x="992" d="M759 0h-128l-149 522l-149 -522h-128l-183 714h131l124 -531l153 531h106l154 -533l124 533h132zM451 753l92 159l91 -34l-95 -125h-88z" />
<glyph unicode="&#x1e83;" horiz-adv-x="807" d="M637 0h-121l-112 378l-114 -378h-121l-146 524h126l90 -381l116 381h100l114 -381l92 381h122zM352 585l92 159l91 -34l-95 -125h-88z" />
<glyph unicode="&#x1e84;" horiz-adv-x="992" d="M759 0h-128l-149 522l-149 -522h-128l-183 714h131l124 -531l153 531h106l154 -533l124 533h132zM339 810q0 23 16.5 40t39.5 17q24 0 40.5 -16.5t16.5 -40.5q0 -23 -16.5 -39.5t-40.5 -16.5q-23 0 -39.5 16.5t-16.5 39.5zM534 810q0 23 16.5 40t39.5 17q24 0 40.5 -16.5 t16.5 -40.5q0 -23 -16.5 -39.5t-40.5 -16.5q-23 0 -39.5 16.5t-16.5 39.5z" />
<glyph unicode="&#x1e85;" horiz-adv-x="807" d="M637 0h-121l-112 378l-114 -378h-121l-146 524h126l90 -381l116 381h100l114 -381l92 381h122zM250 642q0 23 16.5 40t39.5 17q24 0 40.5 -16.5t16.5 -40.5q0 -23 -16.5 -39.5t-40.5 -16.5q-23 0 -39.5 16.5t-16.5 39.5zM445 642q0 23 16.5 40t39.5 17q24 0 40.5 -16.5 t16.5 -40.5q0 -23 -16.5 -39.5t-40.5 -16.5q-23 0 -39.5 16.5t-16.5 39.5z" />
<glyph unicode="&#x1ef2;" horiz-adv-x="636" d="M381 298v-298h-124v297l-255 417h142l176 -302l176 302h139zM290 753l-95 125l92 34l92 -159h-89z" />
<glyph unicode="&#x1ef3;" horiz-adv-x="552" d="M334 -21q-15 -40 -32.5 -70.5t-39.5 -51t-51 -31t-67 -10.5q-31 0 -59.5 7t-50.5 22l36 89q24 -21 61 -21q32 0 50.5 19t32.5 48l12 28l-218 516h132l147 -371l131 371h124zM247 585l-95 125l92 34l92 -159h-89z" />
<glyph unicode="&#x2000;" horiz-adv-x="500" />
<glyph unicode="&#x2001;" horiz-adv-x="1000" />
<glyph unicode="&#x2002;" horiz-adv-x="500" />
<glyph unicode="&#x2003;" horiz-adv-x="1000" />
<glyph unicode="&#x2004;" horiz-adv-x="333" />
<glyph unicode="&#x2005;" horiz-adv-x="250" />
<glyph unicode="&#x2006;" horiz-adv-x="166" />
<glyph unicode="&#x2007;" horiz-adv-x="166" />
<glyph unicode="&#x2008;" horiz-adv-x="125" />
<glyph unicode="&#x2009;" horiz-adv-x="200" />
<glyph unicode="&#x200a;" horiz-adv-x="55" />
<glyph unicode="&#x2010;" horiz-adv-x="395" d="M58 246v102h279v-102h-279z" />
<glyph unicode="&#x2011;" horiz-adv-x="395" d="M58 246v102h279v-102h-279z" />
<glyph unicode="&#x2012;" horiz-adv-x="395" d="M58 246v102h279v-102h-279z" />
<glyph unicode="&#x2013;" d="M57 255v98h495v-98h-495z" />
<glyph unicode="&#x2014;" horiz-adv-x="958" d="M58 255v98h842v-98h-842z" />
<glyph unicode="&#x2018;" horiz-adv-x="241" d="M123 601q29 -1 52 -21t23 -52q0 -28 -19.5 -52t-54.5 -24q-34 0 -57 25.5t-23 73.5q0 53 32.5 98t87.5 76l30 -51q-29 -14 -49 -35t-22 -38z" />
<glyph unicode="&#x2019;" horiz-adv-x="227" d="M116 575q-29 1 -52 21t-23 52q0 28 19.5 52t55.5 24q34 0 57 -25.5t23 -73.5q0 -53 -33 -98t-87 -76l-31 51q29 14 49.5 35t21.5 38z" />
<glyph unicode="&#x201a;" horiz-adv-x="261" d="M127 -8q-29 1 -51.5 21t-22.5 52q0 28 19.5 52t54.5 24q34 0 57 -25.5t23 -73.5q0 -53 -32.5 -98t-87.5 -76l-30 51q29 14 49 35t21 38z" />
<glyph unicode="&#x201c;" horiz-adv-x="444" d="M325 601q29 -1 52 -21t23 -52q0 -28 -19.5 -52t-55.5 -24q-34 0 -57 25.5t-23 73.5q0 53 33 98t87 76l31 -51q-29 -14 -49.5 -35t-21.5 -38zM123 601q29 -1 52 -21t23 -52q0 -28 -19.5 -52t-54.5 -24q-34 0 -57 25.5t-23 73.5q0 53 32.5 98t87.5 76l30 -51 q-29 -14 -49 -35t-22 -38z" />
<glyph unicode="&#x201d;" horiz-adv-x="428" d="M116 575q-29 1 -52 21t-23 52q0 28 19.5 52t55.5 24q34 0 57 -25.5t23 -73.5q0 -53 -33 -98t-87 -76l-31 51q29 14 49.5 35t21.5 38zM318 575q-30 1 -52.5 21t-22.5 52q0 28 19.5 52t54.5 24q34 0 57 -25.5t23 -73.5q0 -53 -32.5 -98t-87.5 -76l-30 51q29 14 49 35t22 38 z" />
<glyph unicode="&#x201e;" horiz-adv-x="455" d="M127 -8q-29 1 -51.5 21t-22.5 52q0 28 19.5 52t54.5 24q34 0 57 -25.5t23 -73.5q0 -53 -32.5 -98t-87.5 -76l-30 51q29 14 49 35t21 38zM322 -8q-29 1 -52 21t-23 52q0 28 19.5 52t55.5 24q33 0 56 -25.5t23 -73.5q0 -53 -32.5 -98t-86.5 -76l-31 51q29 14 49 35t22 38z " />
<glyph unicode="&#x2020;" horiz-adv-x="507" d="M309 430v-430h-110v430h-164v94h164v190h110v-190h163v-94h-163z" />
<glyph unicode="&#x2021;" horiz-adv-x="529" d="M319 188v-188h-110v188h-163v93h163v150h-163v93h163v190h110v-190h164v-93h-164v-150h164v-93h-164z" />
<glyph unicode="&#x2022;" horiz-adv-x="390" d="M343 333q0 -31 -12 -58t-32 -47t-47 -31.5t-58 -11.5q-30 0 -57 11.5t-47.5 31.5t-32 47t-11.5 58t11.5 58t32 47t47.5 31.5t57 11.5q31 0 58 -11.5t47 -31.5t32 -47t12 -58z" />
<glyph unicode="&#x2025;" horiz-adv-x="531" d="M55 67q0 32 22.5 54.5t54.5 22.5t55 -22.5t23 -54.5t-23 -54.5t-55 -22.5t-54.5 22.5t-22.5 54.5zM321 67q0 32 22.5 54.5t54.5 22.5t54.5 -22.5t22.5 -54.5t-22.5 -54.5t-54.5 -22.5t-54.5 22.5t-22.5 54.5z" />
<glyph unicode="&#x2026;" horiz-adv-x="797" d="M55 67q0 32 22.5 54.5t54.5 22.5t55 -22.5t23 -54.5t-23 -54.5t-55 -22.5t-54.5 22.5t-22.5 54.5zM321 67q0 32 22.5 54.5t54.5 22.5t54.5 -22.5t22.5 -54.5t-22.5 -54.5t-54.5 -22.5t-54.5 22.5t-22.5 54.5zM587 67q0 32 22.5 54.5t54.5 22.5t54.5 -22.5t22.5 -54.5 t-22.5 -54.5t-54.5 -22.5t-54.5 22.5t-22.5 54.5z" />
<glyph unicode="&#x202f;" horiz-adv-x="200" />
<glyph unicode="&#x2030;" horiz-adv-x="1190" d="M366 571q0 -32 -12.5 -60t-33.5 -49t-49 -33.5t-60 -12.5t-60.5 12.5t-49.5 33.5t-33 49t-12 60t12 60.5t33 49.5t49.5 33.5t60.5 12.5t60 -12.5t49 -33.5t33.5 -49.5t12.5 -60.5zM288 571q0 16 -6 30.5t-16.5 25t-24.5 16.5t-30 6q-32 0 -55 -23t-23 -55q0 -16 6 -30 t16.5 -24.5t25 -16.5t30.5 -6q32 0 54.5 22.5t22.5 54.5zM216 0h-91l479 714h91zM768 142q0 -32 -12.5 -60t-33.5 -49t-49 -33.5t-60 -12.5t-60.5 12.5t-49.5 33.5t-33 49t-12 60t12 60.5t33 49.5t49.5 33.5t60.5 12.5t60 -12.5t49 -33.5t33.5 -49.5t12.5 -60.5zM690 142 q0 16 -6 30.5t-16.5 25t-24.5 16.5t-30 6q-32 0 -55 -23t-23 -55q0 -16 6 -30t16.5 -24.5t25 -16.5t30.5 -6q32 0 54.5 22.5t22.5 54.5zM1140 142q0 -32 -12.5 -60t-33.5 -49t-49 -33.5t-60 -12.5t-60.5 12.5t-49.5 33.5t-33 49t-12 60t12 60.5t33 49.5t49.5 33.5t60.5 12.5 t60 -12.5t49 -33.5t33.5 -49.5t12.5 -60.5zM1062 142q0 16 -6 30.5t-16.5 25t-24.5 16.5t-30 6q-32 0 -55 -23t-23 -55q0 -16 6 -30t16.5 -24.5t25 -16.5t30.5 -6q32 0 54.5 22.5t22.5 54.5z" />
<glyph unicode="&#x2039;" horiz-adv-x="287" d="M27 302l156 206l62 -48l-123 -178l123 -180l-62 -47l-156 206v41z" />
<glyph unicode="&#x203a;" horiz-adv-x="287" d="M260 261l-155 -206l-63 47l123 180l-123 178l63 48l155 -206v-41z" />
<glyph unicode="&#x2044;" horiz-adv-x="200" d="M-94 0h-91l479 714h91z" />
<glyph unicode="&#x205f;" horiz-adv-x="250" />
<glyph unicode="&#x2070;" horiz-adv-x="414" d="M375 588q0 -47 -9.5 -87.5t-30 -70.5t-52.5 -47t-77 -17q-44 0 -76 17t-52 47t-29.5 70.5t-9.5 87.5q0 46 9.5 86t29.5 70t52 47t76 17q45 0 77 -17t52.5 -47t30 -70t9.5 -86zM284 588q0 64 -17 104.5t-61 40.5q-22 0 -36.5 -10.5t-23.5 -30t-13 -46t-4 -58.5t4 -58.5 t13 -46t23.5 -30.5t36.5 -11q44 0 61 41t17 105z" />
<glyph unicode="&#x2074;" horiz-adv-x="401" d="M314 466v-92h-86v92h-205v67q24 23 54 59t59 74.5t53 74.5t35 59h90v-258h65v-76h-65zM229 542l1 153q-23 -38 -53.5 -76.5t-63.5 -76.5h116z" />
<glyph unicode="&#x2075;" horiz-adv-x="395" d="M363 519q0 -29 -11 -56.5t-32.5 -49t-54.5 -34.5t-77 -13q-54 0 -94 20t-69 49l58 56q19 -26 45.5 -36.5t53.5 -10.5q17 0 33 4t28.5 13t20 22.5t7.5 31.5q0 34 -24 52t-59 18q-24 0 -46 -9.5t-39 -29.5l-52 22l14 232h274v-77h-200q-2 -21 -4.5 -45.5t-5.5 -47.5 q20 13 42.5 18t43.5 5q31 0 58.5 -9.5t47 -27.5t31 -42.5t11.5 -54.5z" />
<glyph unicode="&#x2076;" horiz-adv-x="398" d="M126 518q0 -34 20.5 -55t58.5 -21t58.5 21t20.5 56t-20.5 56.5t-58.5 21.5t-58.5 -22t-20.5 -57zM298 800q-52 -37 -90.5 -77.5t-58.5 -85.5q17 16 40.5 22t39.5 6q31 0 58 -10t46.5 -29t30.5 -46t11 -60q0 -34 -12.5 -62t-34.5 -48.5t-53.5 -32t-68.5 -11.5 q-78 0 -124.5 43t-46.5 124q0 41 10.5 78t29 70t43.5 62.5t54 56.5h126z" />
<glyph unicode="&#x2077;" horiz-adv-x="360" d="M352 735q-27 -32 -57 -74t-55.5 -89.5t-42.5 -98t-17 -99.5h-99q2 51 19.5 101t41.5 95t51 83.5t49 66.5h-226v80h336v-65z" />
<glyph unicode="&#x2078;" horiz-adv-x="413" d="M377 494q0 -62 -47 -95t-124 -33t-123.5 33t-46.5 95q0 33 16 61t51 45q-52 29 -52 90q0 57 42.5 87.5t112.5 30.5q72 0 113.5 -30.5t41.5 -87.5q0 -31 -15 -53.5t-38 -36.5q35 -17 52 -45.5t17 -60.5zM273 686q0 27 -20.5 39t-46.5 12t-46 -12t-20 -39q0 -29 19.5 -42 t45.5 -13t47 13t21 42zM287 499q0 35 -24.5 50t-56.5 15t-56.5 -15t-24.5 -49t24.5 -48.5t56.5 -14.5t56.5 14.5t24.5 47.5z" />
<glyph unicode="&#x2079;" horiz-adv-x="398" d="M273 655q0 34 -21.5 55.5t-59.5 21.5t-58 -21.5t-20 -56.5t20 -56t58 -21t59.5 21.5t21.5 56.5zM101 374q51 37 89.5 76.5t58.5 84.5q-17 -14 -40 -20t-39 -6q-32 0 -59 10t-46.5 29t-30.5 45.5t-11 59.5q0 34 12.5 62.5t34.5 49t53 32t69 11.5q78 0 124.5 -43t46.5 -124 q0 -41 -10.5 -78t-29 -70t-43.5 -62.5t-53 -56.5h-126z" />
<glyph unicode="&#x2080;" horiz-adv-x="414" d="M375 128q0 -46 -9.5 -86.5t-30 -70.5t-52.5 -47.5t-77 -17.5q-44 0 -76 17t-52 47t-29.5 70.5t-9.5 87.5q0 46 9.5 86.5t29.5 70t52 46.5t76 17q45 0 77 -17t52.5 -47t30 -70t9.5 -86zM284 128q0 63 -17 104t-61 41q-22 0 -36.5 -10.5t-23.5 -30t-13 -46t-4 -58.5t4 -59 t13 -46.5t23.5 -30t36.5 -10.5t37 11t24 30.5t13 46t4 58.5z" />
<glyph unicode="&#x2081;" horiz-adv-x="382" d="M270 -86h-89v327q-19 -8 -48 -14.5t-58 -10.5l-12 69q98 18 141 55h66v-426z" />
<glyph unicode="&#x2082;" horiz-adv-x="398" d="M39 -86v67q54 39 94.5 69.5t67.5 56.5t40.5 49.5t13.5 49.5q0 30 -19.5 45.5t-48.5 15.5q-31 0 -55.5 -15.5t-38.5 -41.5l-68 43q27 40 67 67.5t100 27.5q35 0 64 -10t50 -28t32.5 -44t11.5 -57q0 -53 -40.5 -102.5t-131.5 -112.5h187v-80h-326z" />
<glyph unicode="&#x2083;" horiz-adv-x="403" d="M367 38q0 -28 -12 -52t-33.5 -42t-53 -28t-70.5 -10q-60 0 -103 22t-70 54l62 53q17 -21 43.5 -35t64.5 -14q41 0 60.5 16t19.5 40t-17.5 36.5t-48.5 12.5h-55v77h52q20 0 39.5 11t19.5 37t-20.5 39t-50.5 13q-31 0 -57 -11.5t-44 -31.5l-56 55q33 33 71.5 50.5 t88.5 17.5q34 0 63 -8t50 -23.5t32.5 -38t11.5 -51.5q0 -59 -52 -90q35 -14 50 -42t15 -57z" />
<glyph unicode="&#x2084;" horiz-adv-x="401" d="M314 6v-92h-86v92h-205v67q24 23 54 59t59 74.5t53 74.5t35 59h90v-258h65v-76h-65zM229 82l1 153q-23 -38 -53.5 -76.5t-63.5 -76.5h116z" />
<glyph unicode="&#x2085;" horiz-adv-x="395" d="M363 59q0 -29 -11 -56.5t-32.5 -49t-54.5 -34.5t-77 -13q-54 0 -94 20t-69 49l58 56q19 -26 45.5 -36.5t53.5 -10.5q17 0 33 4t28.5 13t20 22.5t7.5 31.5q0 34 -24 52t-59 18q-24 0 -46 -9.5t-39 -29.5l-52 22l14 232h274v-77h-200q-2 -21 -4.5 -45.5t-5.5 -47.5 q20 13 42.5 18t43.5 5q31 0 58.5 -9.5t47 -27.5t31 -42.5t11.5 -54.5z" />
<glyph unicode="&#x2086;" horiz-adv-x="398" d="M126 58q0 -34 20.5 -55t58.5 -21t58.5 21t20.5 56t-20.5 56.5t-58.5 21.5t-58.5 -22t-20.5 -57zM298 340q-52 -37 -90.5 -77.5t-58.5 -85.5q17 16 40.5 22t39.5 6q31 0 58 -10t46.5 -29t30.5 -46t11 -60q0 -34 -12.5 -62t-34.5 -48.5t-53.5 -32t-68.5 -11.5 q-78 0 -124.5 43t-46.5 124q0 41 10.5 78t29 70t43.5 62.5t54 56.5h126z" />
<glyph unicode="&#x2087;" horiz-adv-x="360" d="M352 275q-27 -32 -57 -74t-55.5 -89.5t-42.5 -98t-17 -99.5h-99q2 51 19.5 101t41.5 95t51 83.5t49 66.5h-226v80h336v-65z" />
<glyph unicode="&#x2088;" horiz-adv-x="413" d="M377 34q0 -62 -47 -95t-124 -33t-123.5 33t-46.5 95q0 33 16 61t51 45q-52 29 -52 90q0 57 42.5 87.5t112.5 30.5q72 0 113.5 -30.5t41.5 -87.5q0 -31 -15 -53.5t-38 -36.5q35 -17 52 -45.5t17 -60.5zM273 226q0 27 -20.5 39t-46.5 12t-46 -12t-20 -39q0 -29 19.5 -42 t45.5 -13t47 13t21 42zM287 39q0 35 -24.5 50t-56.5 15t-56.5 -15t-24.5 -49t24.5 -48.5t56.5 -14.5t56.5 14.5t24.5 47.5z" />
<glyph unicode="&#x2089;" horiz-adv-x="398" d="M273 195q0 34 -21.5 55.5t-59.5 21.5t-58 -21.5t-20 -56.5t20 -56t58 -21t59.5 21.5t21.5 56.5zM101 -86q51 37 89.5 76.5t58.5 84.5q-17 -14 -40 -20t-39 -6q-32 0 -59 10t-46.5 29t-30.5 45.5t-11 59.5q0 34 12.5 62.5t34.5 49t53 32t69 11.5q78 0 124.5 -43t46.5 -124 q0 -41 -10.5 -78t-29 -70t-43.5 -62.5t-53 -56.5h-126z" />
<glyph unicode="&#x20ac;" d="M382 -12q-57 0 -107 18.5t-89 54t-66.5 86.5t-39.5 117h-71v59h64q-1 6 -1 15.5v17.5v18t2 17h-65v58h72q12 61 39.5 112t68 87.5t93 56.5t115.5 20t112 -18.5t81 -42.5l-49 -95q-29 24 -64 35.5t-73 11.5q-77 0 -126 -43.5t-70 -123.5h273l-29 -58h-254q-2 -8 -2 -16.5 v-17.5v-18t1 -16h220l-29 -59h-182q17 -83 65 -125.5t118 -42.5q48 0 85 17.5t62 43.5l56 -90q-35 -35 -89.5 -57t-120.5 -22z" />
<glyph unicode="&#x2113;" horiz-adv-x="514" d="M476 78q-11 -15 -26.5 -31t-37 -29t-49.5 -21.5t-64 -8.5q-80 0 -121.5 44t-41.5 128v57q-19 -11 -37 -19.5t-33 -14.5l-33 84q24 9 50 22t53 29v227q0 35 8.5 67.5t27.5 58t49.5 40.5t73.5 15q39 0 67 -12.5t46 -34t27 -50t9 -60.5q0 -82 -53.5 -158t-152.5 -140v-107 q0 -42 19.5 -62t51.5 -20q19 0 34.5 6t28 14.5t21 18.5t14.5 19zM238 383q48 42 78.5 90t30.5 96q0 31 -13 50t-40 19q-16 0 -27 -7t-17.5 -18.5t-9 -26.5t-2.5 -31v-172z" />
<glyph unicode="&#x2117;" horiz-adv-x="814" d="M357 288v-139h-89v401h179q71 0 108 -37t37 -94q0 -27 -9 -50.5t-27 -41.5t-45.5 -28.5t-64.5 -10.5h-89zM503 418q0 33 -20.5 48t-60.5 15h-65v-126h65q41 0 61 14.5t20 48.5zM38 350q0 76 29 143.5t79 117t117 78.5t144 29q76 0 143 -29t117 -78.5t79 -117t29 -143.5 q0 -77 -29 -144t-79 -117t-117 -79t-143 -29q-77 0 -144 29t-117 79t-79 117t-29 144zM98 350q0 -64 24.5 -120.5t66.5 -98.5t98 -66.5t120 -24.5t120 24.5t98 66.5t66.5 98.5t24.5 120.5t-24.5 120t-66.5 98t-98 66.5t-120 24.5t-120 -24.5t-98 -66.5t-66.5 -98t-24.5 -120 z" />
<glyph unicode="&#x2122;" horiz-adv-x="692" d="M573 433v208l-69 -208h-54l-69 208v-208h-60v281h88l69 -210l69 210h86v-281h-60zM197 654v-221h-63v221h-90v60h245v-60h-92z" />
<glyph unicode="&#x2126;" horiz-adv-x="612" d="M306 727q59 0 108 -22.5t84 -62.5t54 -96t19 -122q0 -61 -15 -111t-37 -92.5t-47.5 -78.5t-47.5 -68h136v-74h-209l-16 70q37 51 66.5 94.5t50 85.5t31.5 84.5t11 91.5q0 50 -13 92t-37.5 72.5t-59.5 47.5t-78 17t-78 -17t-59.5 -47.5t-37.5 -72.5t-13 -92 q0 -49 11 -91.5t31.5 -84.5t50 -85.5t66.5 -94.5l-17 -70h-208v74h136q-23 33 -49 69t-48 78.5t-36.5 92.5t-14.5 112q0 66 19.5 121t54.5 95t84 62.5t108 22.5z" />
<glyph unicode="&#x212e;" horiz-adv-x="618" d="M160 273v-187q31 -30 68 -45.5t82 -15.5q65 0 113 29t86 95l36 -22q-24 -37 -48.5 -63t-52.5 -43t-61 -25t-73 -8q-61 0 -110 22t-83.5 60.5t-53.5 90.5t-19 112t19 112t53.5 90.5t83.5 60.5t110 22q60 0 109 -21t84 -59t54.5 -90t19.5 -115h-417zM461 310v150 q-67 62 -152 62q-45 0 -81.5 -16t-67.5 -46v-150h301z" />
<glyph unicode="&#x2202;" horiz-adv-x="598" d="M97 680q28 20 70 33.5t92 13.5q60 0 112.5 -22t91.5 -66t62 -110t23 -155q0 -41 -5.5 -86t-18.5 -88t-34.5 -81.5t-52 -68t-71.5 -46.5t-94 -17q-52 0 -94.5 17.5t-72.5 48t-46 73t-16 93.5q0 55 19 101t51.5 79t76 51t92.5 18q65 0 114.5 -29t72.5 -71q0 59 -11.5 110.5 t-36.5 89.5t-65 60t-96 22q-32 0 -64.5 -8.5t-63.5 -30.5zM273 65q39 0 70 14t52.5 38.5t33.5 56.5t12 68q0 69 -40 108.5t-108 39.5q-42 0 -72.5 -15t-50.5 -39.5t-29.5 -56t-9.5 -64.5q0 -70 38.5 -110t103.5 -40z" />
<glyph unicode="&#x2206;" horiz-adv-x="611" d="M579 0h-548v14l269 748h12l267 -748v-14zM139 77h333l-166 487z" />
<glyph unicode="&#x220f;" horiz-adv-x="606" d="M498 636v-636h-77v636h-236v-636h-78v636h-70v78h531v-78h-70z" />
<glyph unicode="&#x2211;" horiz-adv-x="593" d="M533 0h-486v24l296 333l-296 333v24h486v-78h-331l246 -279l-246 -280h331v-77z" />
<glyph unicode="&#x2212;" d="M57 255v98h495v-98h-495z" />
<glyph unicode="&#x221a;" horiz-adv-x="593" d="M597 721l-381 -775h-12l-189 379l69 34l125 -253l319 649z" />
<glyph unicode="&#x221e;" horiz-adv-x="794" d="M746 275q0 -35 -13 -65t-35.5 -53t-53.5 -36t-67 -13q-29 0 -58 10.5t-55 36.5l-67 67l-67 -67q-26 -26 -54 -36.5t-60 -10.5q-36 0 -66.5 13t-53.5 36t-36 53t-13 65q0 34 13 64.5t36 53.5t53.5 36t66.5 13q32 0 60 -10.5t54 -36.5l67 -67l67 67q26 26 55 36.5t58 10.5 q36 0 67 -13t53.5 -36t35.5 -53.5t13 -64.5zM670 275q0 38 -26.5 64t-63.5 26q-21 0 -38 -8.5t-33 -22t-30 -29t-29 -30.5l64 -63q25 -27 63 -27q40 0 66.5 26t26.5 64zM280 338q-15 15 -30.5 21t-33.5 6q-40 0 -66 -26t-26 -64t26 -64t63 -26q21 0 38 8.5t33 22t30.5 29 t29.5 30.5z" />
<glyph unicode="&#x222b;" horiz-adv-x="314" d="M251 685q-18 20 -40 20q-40 0 -40 -57q0 -17 2.5 -49t6.5 -72.5t8.5 -86.5t9.5 -90q5 -50 9.5 -96.5t8 -86.5t5.5 -71t2 -49q0 -61 -28.5 -92.5t-79.5 -31.5q-34 0 -56.5 11.5t-39.5 27.5l44 49q18 -20 40 -20q40 0 40 57q0 16 -2.5 48t-6.5 72.5t-9 86.5t-9 91 q-5 49 -9.5 96t-8 87t-5.5 71t-2 49q0 61 29.5 92.5t80.5 31.5q32 0 55 -11.5t39 -27.5z" />
<glyph unicode="&#x2248;" horiz-adv-x="576" d="M32 191q10 15 24.5 31.5t32.5 30t39 22.5t46 9q28 0 53.5 -9t63.5 -25q36 -16 61.5 -25t49.5 -9q31 0 57.5 13.5t50.5 35.5l34 -37q-11 -15 -25 -31t-31.5 -29.5t-39 -22.5t-46.5 -9q-14 0 -27 2.5t-27 7t-29.5 10.5t-34.5 14q-35 16 -60.5 24t-49.5 8q-31 0 -58 -13.5 t-50 -35.5zM32 383q10 14 24.5 30t32.5 29.5t39 22t46 8.5q28 0 53.5 -9t63.5 -25q36 -14 61.5 -23t49.5 -9q31 0 57.5 13t50.5 35l34 -37q-11 -15 -25 -31.5t-31.5 -30t-39 -22.5t-46.5 -9q-14 0 -27 2.5t-27 7t-29.5 11t-34.5 14.5q-35 15 -60.5 24t-49.5 9q-31 0 -58 -14 t-50 -35z" />
<glyph unicode="&#x2260;" horiz-adv-x="576" d="M281 153l-54 -163h-69l54 163h-190v80h215l30 87h-245v81h272l55 163h69l-54 -163h189v-81h-216l-30 -87h246v-80h-272z" />
<glyph unicode="&#x2264;" d="M57 0v92h494v-92h-494zM485 649l46 -85l-295 -172l295 -171l-46 -85l-422 256z" />
<glyph unicode="&#x2265;" d="M57 0v92h494v-92h-494zM546 392l-423 -256l-46 85l295 171l-295 172l46 85z" />
<glyph unicode="&#x25ca;" horiz-adv-x="608" d="M306 -48h-12l-258 405l258 405h12l258 -405zM300 634l-171 -277l171 -278l171 278z" />
<glyph unicode="&#x25fc;" horiz-adv-x="525" d="M0 525h525v-525h-525v525z" />
<glyph unicode="&#xf6c3;" horiz-adv-x="241" d="M8 -169l67 119h114l-116 -150z" />
<glyph d="M565 357q0 -70 -13 -136.5t-44 -118.5t-81 -83.5t-123 -31.5q-74 0 -124 31.5t-80 83.5t-43 118.5t-13 136.5q0 69 13 135.5t43 118.5t80 84t124 32q73 0 123 -32t81 -84t44 -118.5t13 -135.5zM440 357q0 55 -7 104t-22.5 85.5t-41.5 57.5t-65 21t-65.5 -21t-42 -57.5 t-22 -85.5t-6.5 -104t6.5 -104t22 -85.5t42 -57.5t65.5 -21t65 21t41.5 57.5t22.5 85.5t7 104z" />
<glyph d="M425 0h-122v575q-14 -8 -34.5 -16.5t-45 -16t-51 -13.5t-51.5 -10l-18 93q81 16 137 40.5t91 61.5h94v-714z" />
<glyph d="M61 0v91q98 77 165.5 136.5t109.5 107t60.5 86.5t18.5 77q0 30 -10 52.5t-27.5 37.5t-40 22.5t-47.5 7.5q-45 0 -82.5 -23t-60.5 -65l-97 57q42 66 104 103t147 37q52 0 97 -15t77.5 -43.5t51 -69.5t18.5 -92q0 -49 -17.5 -94.5t-55 -92.5t-95.5 -98.5t-138 -111.5h315 v-110h-493z" />
<glyph d="M298 727q54 0 98.5 -14t76 -39t48.5 -60.5t17 -77.5q0 -54 -27.5 -92.5t-79.5 -62.5q64 -20 97.5 -66.5t33.5 -107.5q0 -45 -18 -85t-52.5 -70t-84 -47.5t-112.5 -17.5q-50 0 -91 11t-73.5 29t-57 41.5t-42.5 48.5l89 69q63 -91 177 -91q69 0 104 31.5t35 84.5 q0 51 -34 80.5t-106 29.5h-72v101h71q24 0 46 5.5t38.5 17.5t26.5 30.5t10 44.5t-9.5 45t-26.5 31t-40 18t-50 6q-48 0 -90 -19.5t-71 -54.5l-71 79q40 43 98.5 72.5t141.5 29.5z" />
<glyph d="M475 160v-160h-120v160h-322v92q30 31 63 71.5t66 85.5t64 90.5t57 87t45 74.5t28 53h119v-451h100v-103h-100zM356 263l1 276q-13 -26 -36 -62t-50.5 -74.5t-56 -75t-52.5 -64.5h194z" />
<glyph d="M564 236q0 -51 -19 -96.5t-54.5 -79t-86.5 -53.5t-115 -20q-49 0 -89.5 11t-73 29t-57 41.5t-40.5 47.5l89 70q30 -45 73 -67.5t97 -22.5q72 0 111 37.5t39 99.5q0 63 -39 99t-103 36q-46 0 -81.5 -18.5t-58.5 -47.5l-75 32l24 380h420v-110h-323l-14 -179q29 23 67 32 t73 9q49 0 92.5 -16.5t75 -46.5t50 -72.5t18.5 -94.5z" />
<glyph d="M455 714q-36 -29 -72 -63.5t-68.5 -72t-59 -76t-41.5 -74.5q12 13 28.5 22.5t34.5 15.5t36.5 8.5t34.5 2.5q47 0 87.5 -16.5t70.5 -47.5t47 -75t17 -98q0 -56 -18.5 -102.5t-52.5 -80t-82 -52t-106 -18.5q-59 0 -106.5 17.5t-82 52t-53 85t-18.5 115.5q0 66 18 127.5 t50 118t74.5 109t92.5 102.5h169zM176 237q0 -64 35 -104t100 -40t98.5 40t33.5 104q0 65 -33.5 104t-98.5 39t-100 -39.5t-35 -103.5z" />
<glyph d="M562 621q-39 -49 -85.5 -117t-87 -149t-68.5 -171.5t-30 -183.5h-133q3 88 30.5 176t67 167t84.5 146t84 115h-384v110h522v-93z" />
<glyph d="M304 87q65 0 101 31.5t36 91.5q0 57 -34 88t-103 31t-103.5 -32.5t-34.5 -87.5q0 -60 37 -91t101 -31zM304 424q22 0 42.5 5t37 16.5t26.5 31t10 48.5q0 27 -9.5 46t-26 31.5t-37.5 18t-43 5.5q-23 0 -44 -5.5t-37 -18t-25.5 -31.5t-9.5 -46q0 -29 10 -48.5t26 -31 t37 -16.5t43 -5zM304 -13q-63 0 -112.5 16.5t-83 45.5t-51 68t-17.5 85q0 60 31 107.5t93 73.5q-45 20 -73 59.5t-28 96.5q0 45 19 80t52 59t76.5 36.5t93.5 12.5q49 0 92.5 -12.5t76.5 -36.5t52 -59t19 -80q0 -57 -27.5 -96.5t-72.5 -59.5q62 -26 93 -73.5t31 -107.5 q0 -46 -17.5 -85t-51.5 -68t-83 -45.5t-112 -16.5z" />
<glyph d="M153 0q36 28 73 63t69.5 72t58.5 75.5t42 74.5q-26 -27 -64.5 -37.5t-71.5 -10.5q-47 0 -87.5 16.5t-70 47t-46.5 74.5t-17 98q0 57 18.5 103.5t52.5 80t82 52t107 18.5q58 0 106 -18t82 -52.5t52.5 -84.5t18.5 -115q0 -67 -18 -128t-49.5 -117.5t-74.5 -109.5t-92 -102 h-171zM432 476q0 64 -34 104t-100 40t-99 -40t-33 -104q0 -65 33 -103.5t99 -38.5t100 39.5t34 102.5z" />
<glyph horiz-adv-x="280" d="M211 0h-139l34 500h72zM65 647q0 32 22.5 54.5t54.5 22.5t54.5 -22.5t22.5 -54.5t-22.5 -54.5t-54.5 -22.5t-54.5 22.5t-22.5 54.5z" />
<glyph horiz-adv-x="532" d="M45 191q0 44 15 76t38 56t49 42t49 34.5t38 34t15 40.5v25h114v-28q0 -37 -14.5 -63.5t-35.5 -47t-46.5 -37.5t-46.5 -35t-35.5 -40t-14.5 -52q0 -42 30 -72t90 -30q85 0 152 62l61 -83q-47 -40 -101.5 -62.5t-120.5 -22.5q-51 0 -94.5 14.5t-75 41t-49 64t-17.5 83.5z M381 646q0 -32 -22.5 -54.5t-54.5 -22.5t-54.5 22.5t-22.5 54.5t22.5 54.5t54.5 22.5t54.5 -22.5t22.5 -54.5z" />
<glyph horiz-adv-x="400" d="M56 281v104h287v-104h-287z" />
<glyph d="M57 284v98h495v-98h-495z" />
<glyph horiz-adv-x="925" d="M57 284v98h810v-98h-810z" />
<glyph horiz-adv-x="357" d="M116 0h-94l220 714h94z" />
<glyph horiz-adv-x="237" d="M74 -48v762h89v-762h-89z" />
<glyph horiz-adv-x="357" d="M240 0l-220 714h95l220 -714h-95z" />
<glyph horiz-adv-x="290" d="M206 -72q-93 106 -130.5 215.5t-37.5 213.5t37.5 213t130.5 216l71 -50q-78 -95 -108 -188.5t-30 -190.5t30 -190.5t108 -188.5z" />
<glyph horiz-adv-x="288" d="M21 -22q78 95 108 188.5t30 190.5t-30 190.5t-108 188.5l71 50q93 -107 130.5 -216t37.5 -213t-37.5 -213.5t-130.5 -215.5z" />
<glyph horiz-adv-x="325" d="M80 -54v822h219v-82h-118v-659h118v-81h-219z" />
<glyph horiz-adv-x="325" d="M25 -54v81h118v659h-118v82h219v-822h-219z" />
<glyph horiz-adv-x="355" d="M18 317v80h29q44 0 60 25t16 64v113q0 82 43.5 125.5t112.5 43.5h50v-81h-25q-45 0 -63 -25.5t-18 -68.5v-94q0 -54 -21.5 -90t-66.5 -52q88 -33 88 -143v-94q0 -43 18 -68.5t63 -25.5h25v-80h-50q-69 0 -112.5 43t-43.5 125v113q0 40 -16 65t-60 25h-29z" />
<glyph horiz-adv-x="355" d="M308 317q-44 0 -60 -25t-16 -65v-113q0 -82 -43 -125t-113 -43h-50v80h26q45 0 62.5 25.5t17.5 68.5v94q0 110 89 143q-89 32 -89 142v94q0 43 -17.5 68.5t-62.5 25.5h-26v81h50q70 0 113 -43.5t43 -125.5v-113q0 -39 16 -64t60 -25h30v-80h-30z" />
<glyph horiz-adv-x="265" d="M209 333q0 -32 -22 -54.5t-54 -22.5t-54.5 22.5t-22.5 54.5t22.5 54.5t54.5 22.5t54 -22.5t22 -54.5z" />
<glyph d="M354 284v-198h-99v198h-198v98h198v198h99v-198h198v-98h-198z" />
<glyph d="M57 284v98h495v-98h-495z" />
<glyph d="M377 526q0 -30 -21.5 -51.5t-51.5 -21.5t-51 21.5t-21 51.5t21 51.5t51 21.5t51.5 -21.5t21.5 -51.5zM57 284v98h495v-98h-495zM377 140q0 -30 -21.5 -51.5t-51.5 -21.5t-51 21.5t-21 51.5q0 29 21 51t51 22t51.5 -22t21.5 -51z" />
<glyph d="M57 385v99h495v-99h-495zM57 182v99h495v-99h-495z" />
<glyph d="M478 89l-174 174l-174 -174l-70 70l175 174l-175 174l70 70l174 -174l174 174l69 -70l-173 -174l173 -174z" />
<glyph d="M404 43l-291 290l291 292l69 -69l-222 -223l222 -222z" />
<glyph d="M205 43l-68 68l222 222l-222 223l68 69l291 -292z" />
<glyph horiz-adv-x="414" d="M375 502q0 -47 -9.5 -87.5t-30 -70.5t-52.5 -47t-77 -17q-44 0 -76 17t-52 47t-29.5 70.5t-9.5 87.5q0 46 9.5 86t29.5 70t52 47t76 17q45 0 77 -17t52.5 -47t30 -70t9.5 -86zM284 502q0 64 -17 104.5t-61 40.5q-22 0 -36.5 -10.5t-23.5 -30t-13 -46t-4 -58.5t4 -58.5 t13 -46t23.5 -30.5t36.5 -11q44 0 61 41t17 105z" />
<glyph horiz-adv-x="382" d="M270 288h-89v327q-19 -8 -48 -14.5t-58 -10.5l-12 69q98 18 141 55h66v-426z" />
<glyph horiz-adv-x="398" d="M39 288v67q54 39 94.5 69.5t67.5 56.5t40.5 49.5t13.5 49.5q0 30 -19.5 45.5t-48.5 15.5q-31 0 -55.5 -15.5t-38.5 -41.5l-68 43q27 40 67 67.5t100 27.5q35 0 64 -10t50 -28t32.5 -44t11.5 -57q0 -53 -40.5 -102.5t-131.5 -112.5h187v-80h-326z" />
<glyph horiz-adv-x="403" d="M367 412q0 -28 -12 -52t-33.5 -42t-53 -28t-70.5 -10q-60 0 -103 22t-70 54l62 53q17 -21 43.5 -35t64.5 -14q41 0 60.5 16t19.5 40t-17.5 36.5t-48.5 12.5h-55v77h52q20 0 39.5 11t19.5 37t-20.5 39t-50.5 13q-31 0 -57 -11.5t-44 -31.5l-56 55q33 33 71.5 50.5 t88.5 17.5q34 0 63 -8t50 -23.5t32.5 -38t11.5 -51.5q0 -59 -52 -90q35 -14 50 -42t15 -57z" />
<glyph horiz-adv-x="401" d="M314 380v-92h-86v92h-205v67q24 23 54 59t59 74.5t53 74.5t35 59h90v-258h65v-76h-65zM229 456l1 153q-23 -38 -53.5 -76.5t-63.5 -76.5h116z" />
<glyph horiz-adv-x="395" d="M363 433q0 -29 -11 -56.5t-32.5 -49t-54.5 -34.5t-77 -13q-54 0 -94 20t-69 49l58 56q19 -26 45.5 -36.5t53.5 -10.5q17 0 33 4t28.5 13t20 22.5t7.5 31.5q0 34 -24 52t-59 18q-24 0 -46 -9.5t-39 -29.5l-52 22l14 232h274v-77h-200q-2 -21 -4.5 -45.5t-5.5 -47.5 q20 13 42.5 18t43.5 5q31 0 58.5 -9.5t47 -27.5t31 -42.5t11.5 -54.5z" />
<glyph horiz-adv-x="398" d="M126 432q0 -34 20.5 -55t58.5 -21t58.5 21t20.5 56t-20.5 56.5t-58.5 21.5t-58.5 -22t-20.5 -57zM298 714q-52 -37 -90.5 -77.5t-58.5 -85.5q17 16 40.5 22t39.5 6q31 0 58 -10t46.5 -29t30.5 -46t11 -60q0 -34 -12.5 -62t-34.5 -48.5t-53.5 -32t-68.5 -11.5 q-78 0 -124.5 43t-46.5 124q0 41 10.5 78t29 70t43.5 62.5t54 56.5h126z" />
<glyph horiz-adv-x="360" d="M352 649q-27 -32 -57 -74t-55.5 -89.5t-42.5 -98t-17 -99.5h-99q2 51 19.5 101t41.5 95t51 83.5t49 66.5h-226v80h336v-65z" />
<glyph horiz-adv-x="413" d="M377 408q0 -62 -47 -95t-124 -33t-123.5 33t-46.5 95q0 33 16 61t51 45q-52 29 -52 90q0 57 42.5 87.5t112.5 30.5q72 0 113.5 -30.5t41.5 -87.5q0 -31 -15 -53.5t-38 -36.5q35 -17 52 -45.5t17 -60.5zM273 600q0 27 -20.5 39t-46.5 12t-46 -12t-20 -39q0 -29 19.5 -42 t45.5 -13t47 13t21 42zM287 413q0 35 -24.5 50t-56.5 15t-56.5 -15t-24.5 -49t24.5 -48.5t56.5 -14.5t56.5 14.5t24.5 47.5z" />
<glyph horiz-adv-x="398" d="M273 569q0 34 -21.5 55.5t-59.5 21.5t-58 -21.5t-20 -56.5t20 -56t58 -21t59.5 21.5t21.5 56.5zM101 288q51 37 89.5 76.5t58.5 84.5q-17 -14 -40 -20t-39 -6q-32 0 -59 10t-46.5 29t-30.5 45.5t-11 59.5q0 34 12.5 62.5t34.5 49t53 32t69 11.5q78 0 124.5 -43t46.5 -124 q0 -41 -10.5 -78t-29 -70t-43.5 -62.5t-53 -56.5h-126z" />
<glyph horiz-adv-x="414" d="M375 214q0 -46 -9.5 -86.5t-30 -70.5t-52.5 -47.5t-77 -17.5q-44 0 -76 17t-52 47t-29.5 70.5t-9.5 87.5q0 46 9.5 86.5t29.5 70t52 46.5t76 17q45 0 77 -17t52.5 -47t30 -70t9.5 -86zM284 214q0 63 -17 104t-61 41q-22 0 -36.5 -10.5t-23.5 -30t-13 -46t-4 -58.5t4 -59 t13 -46.5t23.5 -30t36.5 -10.5t37 11t24 30.5t13 46t4 58.5z" />
<glyph horiz-adv-x="382" d="M270 0h-89v327q-19 -8 -48 -14.5t-58 -10.5l-12 69q98 18 141 55h66v-426z" />
<glyph horiz-adv-x="398" d="M39 0v67q54 39 94.5 69.5t67.5 56.5t40.5 49.5t13.5 49.5q0 30 -19.5 45.5t-48.5 15.5q-31 0 -55.5 -15.5t-38.5 -41.5l-68 43q27 40 67 67.5t100 27.5q35 0 64 -10t50 -28t32.5 -44t11.5 -57q0 -53 -40.5 -102.5t-131.5 -112.5h187v-80h-326z" />
<glyph horiz-adv-x="403" d="M367 124q0 -28 -12 -52t-33.5 -42t-53 -28t-70.5 -10q-60 0 -103 22t-70 54l62 53q17 -21 43.5 -35t64.5 -14q41 0 60.5 16t19.5 40t-17.5 36.5t-48.5 12.5h-55v77h52q20 0 39.5 11t19.5 37t-20.5 39t-50.5 13q-31 0 -57 -11.5t-44 -31.5l-56 55q33 33 71.5 50.5 t88.5 17.5q34 0 63 -8t50 -23.5t32.5 -38t11.5 -51.5q0 -59 -52 -90q35 -14 50 -42t15 -57z" />
<glyph horiz-adv-x="401" d="M314 92v-92h-86v92h-205v67q24 23 54 59t59 74.5t53 74.5t35 59h90v-258h65v-76h-65zM229 168l1 153q-23 -38 -53.5 -76.5t-63.5 -76.5h116z" />
<glyph horiz-adv-x="395" d="M363 145q0 -29 -11 -56.5t-32.5 -49t-54.5 -34.5t-77 -13q-54 0 -94 20t-69 49l58 56q19 -26 45.5 -36.5t53.5 -10.5q17 0 33 4t28.5 13t20 22.5t7.5 31.5q0 34 -24 52t-59 18q-24 0 -46 -9.5t-39 -29.5l-52 22l14 232h274v-77h-200q-2 -21 -4.5 -45.5t-5.5 -47.5 q20 13 42.5 18t43.5 5q31 0 58.5 -9.5t47 -27.5t31 -42.5t11.5 -54.5z" />
<glyph horiz-adv-x="398" d="M126 144q0 -34 20.5 -55t58.5 -21t58.5 21t20.5 56t-20.5 56.5t-58.5 21.5t-58.5 -22t-20.5 -57zM298 426q-52 -37 -90.5 -77.5t-58.5 -85.5q17 16 40.5 22t39.5 6q31 0 58 -10t46.5 -29t30.5 -46t11 -60q0 -34 -12.5 -62t-34.5 -48.5t-53.5 -32t-68.5 -11.5 q-78 0 -124.5 43t-46.5 124q0 41 10.5 78t29 70t43.5 62.5t54 56.5h126z" />
<glyph horiz-adv-x="360" d="M352 361q-27 -32 -57 -74t-55.5 -89.5t-42.5 -98t-17 -99.5h-99q2 51 19.5 101t41.5 95t51 83.5t49 66.5h-226v80h336v-65z" />
<glyph horiz-adv-x="413" d="M377 120q0 -62 -47 -95t-124 -33t-123.5 33t-46.5 95q0 33 16 61t51 45q-52 29 -52 90q0 57 42.5 87.5t112.5 30.5q72 0 113.5 -30.5t41.5 -87.5q0 -31 -15 -53.5t-38 -36.5q35 -17 52 -45.5t17 -60.5zM273 312q0 27 -20.5 39t-46.5 12t-46 -12t-20 -39q0 -29 19.5 -42 t45.5 -13t47 13t21 42zM287 125q0 35 -24.5 50t-56.5 15t-56.5 -15t-24.5 -49t24.5 -48.5t56.5 -14.5t56.5 14.5t24.5 47.5z" />
<glyph horiz-adv-x="398" d="M273 281q0 34 -21.5 55.5t-59.5 21.5t-58 -21.5t-20 -56.5t20 -56t58 -21t59.5 21.5t21.5 56.5zM101 0q51 37 89.5 76.5t58.5 84.5q-17 -14 -40 -20t-39 -6q-32 0 -59 10t-46.5 29t-30.5 45.5t-11 59.5q0 34 12.5 62.5t34.5 49t53 32t69 11.5q78 0 124.5 -43t46.5 -124 q0 -41 -10.5 -78t-29 -70t-43.5 -62.5t-53 -56.5h-126z" />
<glyph horiz-adv-x="613" d="M573 261q0 -60 -19 -110t-53.5 -86.5t-84.5 -56.5t-111 -20q-62 0 -111 20t-84 56.5t-53.5 86.5t-18.5 110q0 61 18.5 111.5t53.5 87t84 56.5t111 20q61 0 111 -20t84.5 -56.5t53.5 -87t19 -111.5zM450 261q0 38 -9.5 70t-28 55.5t-45.5 36.5t-62 13t-62 -13t-45 -36.5 t-27.5 -55.5t-9.5 -70q0 -37 9.5 -68.5t27.5 -55t45 -36.5t62 -13t62 13t45.5 36.5t28 55t9.5 68.5zM250 585l92 159l92 -34l-95 -125h-89z" />
<glyph horiz-adv-x="259" d="M73 0v524h116v-524h-116zM71 644q0 23 17.5 40.5t40.5 17.5q24 0 41 -17t17 -41q0 -23 -17 -40.5t-41 -17.5q-23 0 -40.5 17t-17.5 41z" />
<glyph horiz-adv-x="250" d="M196 635q0 -57 -20 -101t-62 -85l-52 44q21 20 34 46t13 54q0 15 -4 26t-9 22t-9 23.5t-4 29.5v20h113v-79z" />
<glyph horiz-adv-x="331" d="M110 585l92 159l92 -34l-95 -125h-89z" />
<glyph horiz-adv-x="1267" d="M317 727q87 0 158.5 -33.5t116.5 -93.5l-87 -70q-30 42 -80 66t-109 24q-26 0 -49.5 -5t-41 -16t-28 -28t-10.5 -42q0 -26 12 -42.5t32 -27.5t47.5 -18t58.5 -14q53 -12 101.5 -27.5t85.5 -39.5t59 -60t22 -90q0 -50 -19.5 -91.5t-56 -70.5t-88.5 -45t-116 -16 q-101 0 -176 38t-119 104l91 73q37 -57 93 -83t119 -26q69 0 108.5 28t39.5 79q0 30 -18 49t-47 32t-66.5 22t-77 19t-77 23.5t-66.5 36t-47 56t-18 82.5t19 87.5t52.5 65t80 40.5t101.5 14zM950 727q87 0 158.5 -33.5t116.5 -93.5l-87 -70q-30 42 -80 66t-109 24 q-26 0 -49.5 -5t-41 -16t-28 -28t-10.5 -42q0 -26 12 -42.5t32 -27.5t47.5 -18t58.5 -14q53 -12 101.5 -27.5t85.5 -39.5t59 -60t22 -90q0 -50 -19.5 -91.5t-56 -70.5t-88.5 -45t-116 -16q-101 0 -176 38t-119 104l91 73q37 -57 93 -83t119 -26q69 0 108.5 28t39.5 79 q0 30 -18 49t-47 32t-66.5 22t-77 19t-77 23.5t-66.5 36t-47 56t-18 82.5t19 87.5t52.5 65t80 40.5t101.5 14z" />
</font>
</defs>
</svg>
