<?xml version="1.0" standalone="no"?>
<!DOCTYPE svg PUBLIC "-//W3C//DTD SVG 1.1//EN" "http://www.w3.org/Graphics/SVG/1.1/DTD/svg11.dtd" >
<svg xmlns="http://www.w3.org/2000/svg">
<metadata></metadata>
<defs>
<font id="allstate_sans_wlight" horiz-adv-x="592" >
<font-face units-per-em="1000" ascent="800" descent="-200" />
<missing-glyph horiz-adv-x="270" />
<glyph unicode="ff" horiz-adv-x="608" d="M589 658q-12 3 -24.5 6t-32.5 3q-29 0 -49.5 -17t-20.5 -59v-75h123v-58h-123v-458h-62v458h-225v-458h-62v458h-86v58h86v71q0 37 10 63t28 42.5t42.5 24t52.5 7.5q20 0 37 -2.5t30 -7.5l-11 -56q-12 3 -24.5 6t-32.5 3q-29 0 -49.5 -17t-20.5 -59v-75h225v71 q0 37 10.5 63t28.5 42.5t42 24t52 7.5q20 0 37 -2.5t30 -7.5z" />
<glyph unicode="fi" horiz-adv-x="551" d="M302 658q-12 3 -24.5 6t-32.5 3q-31 0 -50.5 -17t-19.5 -59v-75h122v-58h-122v-458h-62v458h-86v58h86v71q0 37 10 63t28 42.5t42.5 24t52.5 7.5q20 0 37 -2.5t30 -7.5zM405 0v516h63v-516h-63zM395 682q0 17 12 29.5t29 12.5t29.5 -12.5t12.5 -29.5t-12.5 -29t-29.5 -12 t-29 12t-12 29z" />
<glyph unicode="fl" horiz-adv-x="561" d="M302 658q-12 3 -24.5 6t-32.5 3q-31 0 -50.5 -17t-19.5 -59v-75h122v-58h-122v-458h-62v458h-86v58h86v71q0 37 10 63t28 42.5t42.5 24t52.5 7.5q20 0 37 -2.5t30 -7.5zM410 0v714h63v-714h-63z" />
<glyph horiz-adv-x="0" />
<glyph horiz-adv-x="0" />
<glyph horiz-adv-x="270" />
<glyph unicode=" "  horiz-adv-x="270" />
<glyph unicode="&#x09;" horiz-adv-x="270" />
<glyph unicode="&#xa0;" horiz-adv-x="270" />
<glyph unicode="!" horiz-adv-x="255" d="M149 190h-43l-17 524h77zM76 41q0 21 15.5 36t35.5 15t35.5 -15t15.5 -36t-15.5 -36t-35.5 -15t-35.5 15t-15.5 36z" />
<glyph unicode="&#x22;" horiz-adv-x="343" d="M116 458h-41v256h71zM268 458h-41v256h71z" />
<glyph unicode="#" d="M453 473l-41 -232h125v-45h-131l-35 -196h-46l34 196h-184l-34 -196h-48l34 196h-79v45h86l40 232h-126v43h133l33 198h48l-34 -198h185l34 198h47l-35 -198h78v-43h-84zM221 473l-40 -232h185l40 232h-185z" />
<glyph unicode="$" d="M262 -73v63q-82 5 -140 40.5t-97 88.5l49 43q35 -51 82.5 -78t105.5 -33v286q-39 12 -75 26.5t-63 35.5t-43.5 51t-16.5 73q0 41 15 75t41.5 59t63 39.5t78.5 16.5v58h52v-61q61 -10 113.5 -40.5t90.5 -73.5l-47 -45q-29 38 -69 63.5t-88 33.5v-255q48 -16 86 -33 t65 -39.5t41.5 -53t14.5 -73.5q0 -45 -15.5 -81t-43.5 -62t-65.5 -41.5t-82.5 -18.5v-64h-52zM454 185q0 31 -10.5 52.5t-29.5 36.5t-44.5 26t-55.5 21v-270q69 6 104.5 42.5t35.5 91.5zM130 531q0 -29 10.5 -48.5t28.5 -33t42 -22.5t51 -18v241q-57 -3 -94.5 -32.5 t-37.5 -86.5z" />
<glyph unicode="%" horiz-adv-x="817" d="M359 580q0 -30 -11.5 -56.5t-31.5 -46.5t-46.5 -31.5t-56.5 -11.5t-57 11.5t-47 31.5t-31.5 46.5t-11.5 56.5t11.5 57t31.5 47t47 31.5t57 11.5t56.5 -11.5t46.5 -31.5t31.5 -47t11.5 -57zM303 580q0 38 -26.5 64.5t-63.5 26.5q-19 0 -35.5 -7t-29 -19.5t-19.5 -29 t-7 -35.5q0 -18 7 -34.5t19.5 -29t29 -19.5t35.5 -7q37 0 63.5 26.5t26.5 63.5zM202 0h-60l476 714h60zM755 133q0 -30 -11.5 -56.5t-31.5 -46.5t-46.5 -31.5t-56.5 -11.5t-57 11.5t-47 31.5t-31.5 46.5t-11.5 56.5t11.5 57t31.5 47t47 31.5t57 11.5t56.5 -11.5t46.5 -31.5 t31.5 -47t11.5 -57zM699 133q0 38 -26.5 64.5t-63.5 26.5q-19 0 -35.5 -7t-29 -19.5t-19.5 -29t-7 -35.5q0 -18 7 -34.5t19.5 -29t29 -19.5t35.5 -7q37 0 63.5 26.5t26.5 63.5z" />
<glyph unicode="&#x26;" horiz-adv-x="638" d="M616 320q-2 -27 -9.5 -56.5t-19.5 -57.5t-27 -53.5t-30 -44.5l94 -108h-87l-53 64q-41 -36 -94.5 -56.5t-116.5 -20.5q-50 0 -93 13.5t-74.5 39t-50 62t-18.5 82.5q0 40 13.5 72.5t36.5 57.5t53 44t63 34q-37 41 -61.5 81t-24.5 93q0 38 14 68t38 50.5t56.5 31.5t70.5 11 q42 0 74 -12.5t54 -34t33.5 -50t11.5 -61.5q0 -59 -39.5 -108t-127.5 -90l187 -216q15 19 26.5 41.5t19.5 46t13 45.5t7 41zM276 49q18 0 40.5 3t45 9.5t44 18t38.5 28.5l-205 239q-27 -11 -51 -25.5t-42.5 -33.5t-29 -42.5t-10.5 -53.5q0 -33 13 -59.5t36 -45t54 -28.5 t67 -10zM405 565q0 25 -9 44t-24 31.5t-34.5 18.5t-40.5 6q-23 0 -44 -6.5t-36.5 -19.5t-25 -31.5t-9.5 -43.5q0 -22 7 -41.5t18.5 -37.5t26.5 -35.5t32 -35.5q25 12 50 26t44.5 32t32 40.5t12.5 52.5z" />
<glyph unicode="'" horiz-adv-x="191" d="M116 458h-41v256h71z" />
<glyph unicode="(" horiz-adv-x="274" d="M209 -133q-84 98 -123 218.5t-39 247.5t39 247t123 217l43 -38q-75 -88 -109 -196.5t-34 -229.5t34 -230t109 -197z" />
<glyph unicode=")" horiz-adv-x="272" d="M64 797q83 -97 122 -217.5t39 -246.5t-39 -247.5t-122 -218.5l-43 39q75 88 109 197t34 230t-34 229.5t-109 196.5z" />
<glyph unicode="*" horiz-adv-x="320" d="M172 572q2 -18 3.5 -31t2 -24.5l1 -23t0.5 -25.5h-39q0 14 0.5 25.5t1.5 23t3 24.5t4 31q-14 -12 -25 -20t-20.5 -14t-18.5 -12t-21 -13l-18 33q12 7 21.5 12t19.5 10t22 10.5t29 11.5q-17 7 -29 12.5t-22 11t-19.5 10.5t-21.5 12l18 33q12 -7 21 -13t18.5 -12t20.5 -14 t25 -20q-2 18 -4 31t-3 24.5t-1.5 23t-0.5 25.5h39q0 -14 -0.5 -25.5l-1 -23t-2 -24.5t-3.5 -31q14 12 24.5 20t20 14l19 12t21.5 13l18 -33q-12 -7 -21.5 -12t-20 -10.5t-22.5 -11t-30 -12.5q18 -6 30 -11.5t22.5 -10.5t20 -10t21.5 -12l-18 -33q-12 7 -21.5 13l-19 12 t-20 14t-24.5 20z" />
<glyph unicode="+" d="M323 275v-201h-58v201h-200v58h200v201h58v-201h202v-58h-202z" />
<glyph unicode="," horiz-adv-x="239" d="M121 -7q-24 -1 -39.5 13.5t-15.5 35.5q0 17 12 33.5t37 16.5q23 0 38 -17.5t15 -58.5q0 -45 -24 -82.5t-54 -63.5l-27 26q26 19 42.5 45.5t15.5 51.5z" />
<glyph unicode="-" horiz-adv-x="371" d="M66 283v54h240v-54h-240z" />
<glyph unicode="." horiz-adv-x="239" d="M68 41q0 21 14.5 36t36.5 15q21 0 36 -15t15 -36t-15 -36t-36 -15q-22 0 -36.5 15t-14.5 36z" />
<glyph unicode="/" horiz-adv-x="333" d="M83 0h-51l220 714h51z" />
<glyph unicode="0" horiz-adv-x="623" d="M565 357q0 -69 -12 -135.5t-41.5 -118.5t-78 -84t-121.5 -32q-74 0 -123 32t-78 84t-41 118.5t-12 135.5t12 135t41 118.5t78 84.5t123 32q73 0 121.5 -32t78 -84.5t41.5 -118.5t12 -135zM492 357q0 63 -9.5 118.5t-30.5 97t-55.5 65.5t-84.5 24q-51 0 -85.5 -24 t-55.5 -65.5t-30 -97t-9 -118.5t9 -119t30 -97.5t55.5 -66t85.5 -24.5q50 0 84.5 24.5t55.5 66t30.5 97.5t9.5 119z" />
<glyph unicode="1" horiz-adv-x="398" d="M284 0h-71v627q-11 -7 -30 -15.5t-42.5 -17t-49.5 -16t-50 -11.5l-14 60q67 13 118.5 35.5t80.5 51.5h58v-714z" />
<glyph unicode="2" horiz-adv-x="575" d="M61 0v57q107 90 179.5 156.5t116 118.5t62 94t18.5 83q0 37 -13 64.5t-35 46t-50.5 28t-59.5 9.5q-57 0 -100.5 -26t-69.5 -66l-55 40q38 57 96 89.5t133 32.5q49 0 90.5 -14t72.5 -41.5t48.5 -67.5t17.5 -91t-19 -98t-60.5 -98.5t-106.5 -112t-157 -137.5h352v-67h-460z " />
<glyph unicode="3" horiz-adv-x="578" d="M274 727q55 0 96.5 -15.5t69 -41.5t41 -60.5t13.5 -71.5q0 -47 -24 -87.5t-87 -66.5q67 -21 102 -69.5t35 -111.5q0 -42 -16 -81t-47.5 -69t-77.5 -48t-106 -18q-48 0 -87 11t-69.5 28t-52 38.5t-34.5 41.5l52 45q69 -95 195 -95q86 0 127 41t41 106q0 63 -40 103 t-131 40h-70v65h69q28 0 54.5 6.5t47.5 21.5t33.5 38.5t12.5 57.5q0 33 -12 56t-32.5 37.5t-47 21.5t-56.5 7q-51 0 -95.5 -19t-76.5 -59l-48 52q18 19 40 36.5t49 30.5t60 21t72 8z" />
<glyph unicode="4" horiz-adv-x="591" d="M446 177v-177h-68v177h-335v58q31 31 65.5 73.5t69 89t67.5 95t60 91t46.5 77t28.5 53.5h66v-473h100v-64h-100zM376 241v350q-14 -29 -43.5 -75.5t-65 -97t-72.5 -98.5t-65 -79h246z" />
<glyph unicode="5" horiz-adv-x="573" d="M526 226q0 -48 -17 -91.5t-49.5 -76t-80 -52t-107.5 -19.5q-48 0 -86.5 11.5t-69 29t-52 38.5t-34.5 40l53 45q35 -47 84 -71.5t109 -24.5q88 0 132 46t44 121q0 79 -45 123t-123 44q-51 0 -91.5 -18.5t-68.5 -53.5l-43 23l22 374h385v-67h-326l-15 -240q34 26 74 37 t77 11q50 0 92 -17.5t72 -48.5t47 -72.5t17 -90.5z" />
<glyph unicode="6" horiz-adv-x="570" d="M399 714q-30 -27 -67 -64.5t-73 -81t-66 -90t-46 -89.5q15 19 35.5 32t43.5 21t45.5 11.5t42.5 3.5q46 0 86 -16.5t70 -47t47 -73.5t17 -95t-17.5 -96t-49 -75.5t-76 -49t-99.5 -17.5q-54 0 -98 17.5t-76 50.5t-49.5 81t-17.5 110q0 66 19.5 128t53.5 120t80 112.5 t98 107.5h97zM124 222q0 -38 11.5 -69t33.5 -53.5t53 -35t70 -12.5q81 0 124 47.5t43 122.5q0 76 -43 122.5t-124 46.5q-78 0 -123 -47t-45 -122z" />
<glyph unicode="7" horiz-adv-x="524" d="M501 648q-25 -30 -55.5 -71t-62 -91t-62 -107t-55 -119t-41.5 -128t-21 -132h-76q6 88 36 179t72.5 176.5t92.5 160.5t95 131h-404v67h481v-66z" />
<glyph unicode="8" horiz-adv-x="602" d="M302 55q86 0 128.5 41.5t42.5 109.5q0 31 -9.5 57.5t-30 45.5t-53 29.5t-78.5 10.5q-47 0 -79.5 -11.5t-53.5 -31t-30.5 -46t-9.5 -56.5q0 -69 44 -109t129 -40zM302 413q27 0 53.5 6t47.5 20t33.5 37t12.5 58q0 33 -12.5 56.5t-32.5 38t-47 21.5t-55 7q-29 0 -56 -7 t-47.5 -21.5t-33 -38t-12.5 -56.5q0 -35 13 -58t34 -37t47.5 -20t54.5 -6zM302 -13q-57 0 -103 16t-78 44t-49 66.5t-17 84.5q0 28 7 55t22.5 52t40 46t59.5 36q-50 22 -77.5 63.5t-27.5 94.5q0 42 17 75.5t47 57.5t70.5 36.5t88.5 12.5q47 0 87.5 -12.5t70 -36.5 t46.5 -57.5t17 -75.5q0 -53 -27 -94.5t-78 -63.5q35 -15 60 -36t40.5 -46t22.5 -52t7 -55q0 -46 -17 -84.5t-49 -66.5t-77.5 -44t-102.5 -16z" />
<glyph unicode="9" horiz-adv-x="568" d="M169 0q30 26 67 64t73 81.5t66 89.5t46 89q-15 -19 -35.5 -31.5t-43 -20.5t-45.5 -11.5t-43 -3.5q-46 0 -86 16.5t-69.5 46.5t-46.5 72.5t-17 95.5q0 52 17 96t48.5 76t76 49.5t99.5 17.5q54 0 98 -17.5t75.5 -50.5t49 -81.5t17.5 -110.5q0 -66 -19.5 -127.5 t-53.5 -119.5t-79.5 -113t-97.5 -107h-97zM444 491q0 75 -44.5 122t-124.5 47q-81 0 -124 -47t-43 -122q0 -76 43 -122t124 -46q40 0 71 12.5t53 34.5t33.5 53t11.5 68z" />
<glyph unicode=":" horiz-adv-x="283" d="M91 475q0 22 15 36.5t36 14.5q22 0 36.5 -14.5t14.5 -36.5q0 -21 -14.5 -36t-36.5 -15q-21 0 -36 15t-15 36zM91 41q0 21 15 36t36 15q22 0 36.5 -15t14.5 -36t-14.5 -36t-36.5 -15q-21 0 -36 15t-15 36z" />
<glyph unicode=";" horiz-adv-x="288" d="M91 475q0 22 15 36.5t36 14.5q22 0 36.5 -14.5t14.5 -36.5q0 -21 -14.5 -36t-36.5 -15q-21 0 -36 15t-15 36zM146 -7q-25 -1 -40 13.5t-15 35.5q0 17 12 33.5t37 16.5q23 0 38 -17.5t15 -58.5q0 -22 -6.5 -43t-17.5 -39.5t-25 -34.5t-29 -29l-27 26q26 19 42.5 45.5 t15.5 51.5z" />
<glyph unicode="&#x3c;" d="M398 36l-272 269l272 271l38 -40l-229 -231l229 -231z" />
<glyph unicode="=" d="M66 370v58h460v-58h-460zM66 180v59h460v-59h-460z" />
<glyph unicode="&#x3e;" d="M195 36l-39 38l231 231l-231 231l39 40l271 -271z" />
<glyph unicode="?" horiz-adv-x="493" d="M448 531q0 -46 -16 -78t-39.5 -56.5t-51 -43t-51 -36.5t-39.5 -38t-16 -47v-42h-59v43q0 39 15 65.5t37 47.5t48.5 38.5t48.5 38t37 46t15 63.5q0 26 -8.5 49t-26 40.5t-44 28t-63.5 10.5q-53 0 -90 -18t-70 -46l-44 46q44 38 94 60.5t111 22.5q44 0 82.5 -13.5 t67.5 -38.5t45.5 -61t16.5 -81zM157 41q0 21 15 36t36 15q20 0 35.5 -15t15.5 -36t-15.5 -36t-35.5 -15q-21 0 -36 15t-15 36z" />
<glyph unicode="@" horiz-adv-x="836" d="M536 228q-24 -36 -59.5 -54t-76.5 -18q-38 0 -69 15t-53 40.5t-34 60.5t-12 75t11.5 75t33.5 60.5t54 40.5t72 15q34 0 65.5 -13t57.5 -44v49h59v-259q0 -27 12 -45t47 -18q50 0 73.5 39.5t23.5 102.5q0 67 -23.5 125.5t-66 102t-101 69t-128.5 25.5t-128.5 -26 t-101 -70.5t-66 -103t-23.5 -123.5q0 -66 23.5 -124.5t66 -102.5t101 -69.5t127.5 -25.5q42 0 82 10t76 31l27 -48q-42 -22 -88 -35t-100 -13q-81 0 -149.5 29.5t-118.5 80.5t-78 120t-28 147t28 146.5t78.5 120t119.5 81.5t152 30t152.5 -30t119.5 -80.5t77.5 -117 t27.5 -139.5q0 -46 -11 -83t-31 -63t-48.5 -40t-62.5 -14q-32 0 -62.5 14.5t-47.5 53.5zM526 347q0 57 -30 96t-89 39q-57 0 -85 -39t-28 -96q0 -28 7 -52.5t21 -43t35.5 -29t50.5 -10.5t51 10.5t37 29t22.5 43t7.5 52.5z" />
<glyph unicode="A" horiz-adv-x="670" d="M575 0l-81 219h-320l-83 -219h-76l283 714h76l283 -714h-82zM336 639l-137 -354h269z" />
<glyph unicode="B" horiz-adv-x="677" d="M623 202q0 -40 -14 -76.5t-44 -64.5t-76 -44.5t-110 -16.5h-282v714h262q112 0 173 -44.5t61 -125.5q0 -58 -29 -95t-69 -59q61 -24 94.5 -74t33.5 -114zM522 536q0 34 -13 56t-35.5 34t-53 16.5t-64.5 4.5h-191v-236h191q36 0 66 7t52.5 22t35 38.5t12.5 57.5zM551 206 q0 67 -47 103.5t-137 36.5h-202v-281h212q85 0 129.5 37.5t44.5 103.5z" />
<glyph unicode="C" horiz-adv-x="692" d="M592 552q-32 50 -84 79t-122 29q-59 0 -107 -22t-81.5 -61.5t-51.5 -95.5t-18 -124q0 -69 18.5 -125t52.5 -95.5t82.5 -61t107.5 -21.5q67 0 116.5 27.5t88.5 87.5l56 -47q-49 -68 -111.5 -101.5t-147.5 -33.5q-78 0 -140.5 27.5t-106.5 77t-67.5 117t-23.5 147.5 q0 79 23.5 147t67 118t104.5 78t137 28q84 0 152 -35t113 -100z" />
<glyph unicode="D" horiz-adv-x="741" d="M358 67q62 0 109.5 20.5t80 58.5t49 91.5t16.5 119.5t-16.5 119.5t-49 91.5t-80 58.5t-109.5 20.5h-193v-580h193zM97 0v714h261q80 0 141.5 -27t103 -74.5t63 -113t21.5 -142.5t-21.5 -142.5t-63 -113t-103 -74.5t-141.5 -27h-261z" />
<glyph unicode="E" horiz-adv-x="628" d="M97 0v714h470v-67h-402v-236h358v-65h-358v-279h412v-67h-480z" />
<glyph unicode="F" horiz-adv-x="598" d="M165 647v-236h357v-65h-357v-346h-68v714h468v-67h-400z" />
<glyph unicode="G" horiz-adv-x="745" d="M389 660q-61 0 -109.5 -22t-82 -61.5t-51.5 -95.5t-18 -124t18 -123.5t51 -95t80.5 -61.5t106.5 -22q51 0 95.5 16.5t78 48.5t53 78t21.5 106h-220v66h286q2 -8 3 -20t1 -29q0 -65 -20.5 -125t-60 -106.5t-98.5 -74.5t-136 -28t-139 28.5t-105.5 78.5t-66.5 118t-23 146 q0 80 24 148t68 117t106 76.5t139 27.5q88 0 154.5 -35.5t109.5 -98.5l-62 -39q-30 49 -81 77.5t-122 28.5z" />
<glyph unicode="H" horiz-adv-x="746" d="M581 0v345h-416v-345h-68v714h68v-303h416v303h68v-714h-68z" />
<glyph unicode="I" horiz-adv-x="262" d="M97 0v714h68v-714h-68z" />
<glyph unicode="J" horiz-adv-x="490" d="M332 714h68v-477q0 -66 -14 -113.5t-40 -78t-63.5 -44.5t-83.5 -14q-51 0 -98 20.5t-76 68.5l55 41q25 -39 58.5 -52t63.5 -13q37 0 62 12t40 34t21.5 52.5t6.5 67.5v496z" />
<glyph unicode="K" horiz-adv-x="651" d="M562 0l-260 363l-137 -153v-210h-68v714h68v-413l366 413h89l-272 -301l300 -413h-86z" />
<glyph unicode="L" horiz-adv-x="585" d="M97 0v714h68v-647h406v-67h-474z" />
<glyph unicode="M" horiz-adv-x="887" d="M721 0v635l-245 -635h-66l-247 638v-638h-66v714h107l239 -629l244 629h104v-714h-70z" />
<glyph unicode="N" horiz-adv-x="745" d="M649 0h-65l-422 622v-622h-65v714h77l408 -598v598h67v-714z" />
<glyph unicode="O" horiz-adv-x="771" d="M719 357q0 -79 -23 -147t-66.5 -117.5t-105 -77.5t-138.5 -28t-138.5 28t-105 77.5t-67 117.5t-23.5 147q0 80 23.5 147.5t67 117t105 77.5t138.5 28t138.5 -28t105 -77.5t66.5 -117t23 -147.5zM646 357q0 67 -18 122.5t-52 95t-82 61t-108 21.5t-108 -21.5t-82 -61 t-52 -95t-18 -122.5q0 -68 18 -123t52 -94.5t82 -61t108 -21.5t108 21.5t82 61t52 94.5t18 123z" />
<glyph unicode="P" horiz-adv-x="633" d="M356 372q47 0 80 10t53.5 28.5t30 44t9.5 55.5q0 31 -9.5 56t-30.5 43t-54 28t-79 10h-191v-275h191zM165 305v-305h-68v714h258q63 0 109 -14.5t77 -41.5t46 -64.5t15 -83.5t-15 -83.5t-46 -64.5t-77 -42t-109 -15h-190z" />
<glyph unicode="Q" horiz-adv-x="771" d="M719 357q0 -91 -30 -165.5t-86 -125.5l53 -67l-48 -40l-58 69q-71 -41 -164 -41q-77 0 -138.5 28t-105 77.5t-67 117.5t-23.5 147t23.5 147t67 117.5t105 77.5t138.5 28t138.5 -28t105 -77.5t66.5 -117.5t23 -147zM646 357q0 67 -18 122.5t-52 95t-82 61t-108 21.5 t-108 -21.5t-82 -61t-52 -95t-18 -122.5q0 -68 18 -123.5t52 -95t82 -61.5t108 -22q34 0 63.5 7t55.5 20l-85 107l50 42l88 -112q42 41 65 101.5t23 136.5z" />
<glyph unicode="R" horiz-adv-x="668" d="M545 0l-183 305h-197v-305h-68v714h289q52 0 94.5 -14t72.5 -40t46.5 -63t16.5 -82q0 -78 -46 -131t-131 -73l186 -311h-80zM543 513q0 59 -39 96.5t-120 37.5h-219v-276h203q84 0 129.5 38.5t45.5 103.5z" />
<glyph unicode="S" horiz-adv-x="610" d="M300 727q72 0 141 -29.5t114 -89.5l-52 -44q-38 52 -93.5 74.5t-115.5 22.5q-31 0 -59.5 -6t-50 -20.5t-34 -37t-12.5 -55.5q0 -35 14 -57t37.5 -36.5t55 -23.5t66.5 -18q51 -13 96 -28.5t79 -38.5t54 -57.5t20 -85.5q0 -47 -17.5 -85.5t-50 -66.5t-79.5 -43t-105 -15 q-94 0 -162 36.5t-107 97.5l54 47q19 -32 44.5 -54t54.5 -35.5t60 -20t62 -6.5q80 0 128 36t48 104q0 39 -18 63.5t-47.5 40.5t-67.5 26t-77.5 20t-77.5 22.5t-67.5 33.5t-47.5 53.5t-18 81.5q0 46 17.5 82t48.5 61t73.5 38t91.5 13z" />
<glyph unicode="T" horiz-adv-x="616" d="M342 647v-647h-68v647h-248v67h564v-67h-248z" />
<glyph unicode="U" horiz-adv-x="711" d="M623 254q0 -60 -20.5 -109t-57 -84.5t-85.5 -54.5t-106 -19q-58 0 -106.5 19t-84 54.5t-55.5 84.5t-20 109v460h69v-460q0 -45 14 -81.5t39.5 -63t62 -41t81.5 -14.5t82 14.5t63 41t40 63t14 81.5v460h70v-460z" />
<glyph unicode="V" horiz-adv-x="623" d="M607 714l-259 -714h-72l-260 714h74l222 -631l227 631h68z" />
<glyph unicode="W" horiz-adv-x="946" d="M731 0h-74l-184 615l-184 -615h-74l-186 714h72l154 -610l184 610h71l183 -611l155 611h69z" />
<glyph unicode="X" horiz-adv-x="638" d="M543 0l-224 316l-226 -316h-82l265 371l-246 343h82l208 -291l207 291h82l-247 -343l266 -371h-85z" />
<glyph unicode="Y" horiz-adv-x="595" d="M335 300v-300h-72v299l-254 415h81l211 -349l210 349h77z" />
<glyph unicode="Z" horiz-adv-x="613" d="M43 0v65l431 582h-414v67h498v-65l-429 -582h438v-67h-524z" />
<glyph unicode="[" horiz-adv-x="312" d="M98 -80v826h179v-61h-116v-705h116v-60h-179z" />
<glyph unicode="\" horiz-adv-x="333" d="M251 0l-220 714h50l220 -714h-50z" />
<glyph unicode="]" horiz-adv-x="312" d="M35 -80v60h116v705h-116v61h178v-826h-178z" />
<glyph unicode="^" d="M515 445l-218 219l-219 -219l-40 41l228 228h61l228 -228z" />
<glyph unicode="_" horiz-adv-x="580" d="M0 -125v50h580v-50h-580z" />
<glyph unicode="`" horiz-adv-x="319" d="M155 594l-73 112l50 26l86 -138h-63z" />
<glyph unicode="a" horiz-adv-x="561" d="M403 291q-14 -13 -34.5 -21t-44 -13t-45 -7.5t-43.5 -5.5q-30 -4 -49 -9t-36 -17t-27 -29.5t-10 -44.5q0 -26 9.5 -45t26 -31t38 -17.5t46.5 -5.5q31 0 61.5 9t54.5 27.5t38.5 48t14.5 71.5v90zM229 -12q-83 0 -132 41t-49 115q0 44 17 72.5t42.5 45t55 24.5t59.5 12 q31 4 63.5 7.5t58.5 11.5t42.5 23t16.5 44q0 42 -36 63t-93 21q-96 0 -164 -56l-36 49q39 31 88 49t112 18q42 0 77 -9t60.5 -29t39.5 -51t14 -75v-255q0 -32 9.5 -48t32.5 -16q9 0 16.5 2.5t12.5 6.5l12 -51q-6 -5 -21 -8.5t-31 -3.5q-36 0 -62 21.5t-29 61.5 q-26 -39 -68.5 -62.5t-107.5 -23.5z" />
<glyph unicode="b" horiz-adv-x="630" d="M149 714v-292q38 59 88.5 82.5t104.5 23.5q55 0 99 -21t75 -57t47.5 -85t16.5 -106t-16.5 -106.5t-47.5 -86t-75 -57.5t-99 -21q-56 0 -105.5 24t-87.5 83v-95h-63v714h63zM149 258q0 -44 12 -82t35.5 -66t58 -44.5t79.5 -16.5t78.5 16.5t56 44.5t34 66t11.5 82 q0 43 -11.5 81t-34 66.5t-56 45t-78.5 16.5t-79.5 -16.5t-58 -44.5t-35.5 -66.5t-12 -81.5z" />
<glyph unicode="c" horiz-adv-x="528" d="M292 528q66 0 115.5 -28t79.5 -70l-46 -40q-26 39 -61 58.5t-85 19.5q-41 0 -74.5 -15.5t-56.5 -43.5t-35.5 -66.5t-12.5 -84.5q0 -45 12.5 -83.5t35.5 -66.5t56 -44t75 -16q54 0 91 24t57 56l50 -35q-35 -48 -84.5 -76.5t-115.5 -28.5q-56 0 -100.5 20.5t-76.5 57 t-49 86t-17 106.5q0 58 17.5 107.5t49 85.5t76.5 56.5t99 20.5z" />
<glyph unicode="d" horiz-adv-x="630" d="M481 0v94q-38 -59 -88.5 -82.5t-104.5 -23.5q-55 0 -99 20.5t-75 57t-47.5 85.5t-16.5 106t16.5 106.5t47.5 86t75 57.5t99 21q56 0 105.5 -24t87.5 -83v293h63v-714h-63zM481 258q0 44 -12 82t-35.5 66.5t-58 44.5t-79.5 16t-78.5 -16t-56 -44.5t-34 -66.5t-11.5 -82 q0 -43 11 -81t33.5 -66.5t56.5 -45t79 -16.5t79.5 16.5t58 45t35.5 66.5t12 81z" />
<glyph unicode="e" horiz-adv-x="577" d="M467 299q-2 43 -17 74.5t-38.5 52.5t-54 31t-63.5 10q-38 0 -69 -13t-53.5 -35.5t-36 -53t-16.5 -66.5h348zM50 257q0 57 17 106t48.5 86t77.5 58t103 21q55 0 99 -19.5t75 -53t48 -78.5t17 -95q0 -13 -1 -22.5t-2 -16.5h-415q0 -46 14.5 -82t39.5 -60.5t59.5 -37 t75.5 -12.5q48 0 91 20t69 58l53 -35q-14 -19 -33.5 -38t-46 -34t-60 -24.5t-75.5 -9.5q-60 0 -107 20.5t-79.5 56.5t-50 85.5t-17.5 106.5z" />
<glyph unicode="f" horiz-adv-x="321" d="M302 658q-12 3 -24.5 6t-32.5 3q-31 0 -50.5 -17t-19.5 -59v-75h122v-58h-122v-458h-62v458h-86v58h86v71q0 37 10 63t28 42.5t42.5 24t52.5 7.5q20 0 37 -2.5t30 -7.5z" />
<glyph unicode="g" horiz-adv-x="630" d="M543 76q0 -54 -11.5 -100t-39.5 -81q-36 -43 -91.5 -61t-115.5 -18q-117 0 -205 63l41 54q34 -26 75.5 -41t92.5 -15q41 0 76 10.5t61 33.5t40.5 58.5t14.5 85.5v62q-28 -48 -77.5 -79t-118.5 -31q-53 0 -96.5 20t-74.5 54.5t-48 80.5t-17 98q0 53 17.5 100t49.5 82 t76.5 55.5t97.5 20.5q54 0 106 -24.5t85 -78.5v91h62v-440zM481 273q0 37 -12 72t-35 61.5t-57.5 42.5t-80.5 16t-80 -16t-56 -43t-33 -62t-11 -72t11 -72t33.5 -62t56 -43.5t79.5 -16.5q45 0 79.5 16.5t58 43.5t35.5 62t12 73z" />
<glyph unicode="h" horiz-adv-x="599" d="M86 0v714h63v-293q32 52 77.5 79.5t106.5 27.5q82 0 132.5 -50.5t50.5 -148.5v-329h-62v315q0 25 -5 52t-19 49t-39 36t-65 14q-38 0 -70.5 -13.5t-56 -37.5t-37 -58t-13.5 -74v-283h-63z" />
<glyph unicode="i" horiz-adv-x="235" d="M86 0v516h63v-516h-63zM76 682q0 17 12 29.5t29 12.5t29.5 -12.5t12.5 -29.5t-12.5 -29t-29.5 -12t-29 12t-12 29z" />
<glyph unicode="j" horiz-adv-x="242" d="M158 -14q0 -43 -11.5 -74.5t-31.5 -52.5t-47.5 -31.5t-59.5 -10.5q-44 0 -70 16l15 55q8 -5 22.5 -9t33.5 -4q48 0 67.5 30t19.5 78v533h62v-530zM86 682q0 17 12 29.5t29 12.5t29.5 -12.5t12.5 -29.5t-12.5 -29t-29.5 -12t-29 12t-12 29z" />
<glyph unicode="k" horiz-adv-x="536" d="M417 516h82l-206 -216l235 -300h-83l-197 259l-102 -106v-153h-62v714h62v-485z" />
<glyph unicode="l" horiz-adv-x="235" d="M86 0v714h63v-714h-63z" />
<glyph unicode="m" horiz-adv-x="920" d="M86 516h62v-93q32 51 72.5 78t99.5 27q58 0 99.5 -28t59.5 -82q31 49 75 79.5t110 30.5q78 0 125 -49t47 -145v-334h-62v319q0 26 -4.5 52t-17.5 47t-36 34.5t-59 13.5t-66.5 -13t-52.5 -37t-34 -57t-12 -72v-287h-62v319q0 26 -4.5 52t-17.5 47t-36.5 34.5t-60.5 13.5 q-36 0 -66 -13t-51.5 -36.5t-33.5 -56.5t-12 -73v-287h-62v516z" />
<glyph unicode="n" horiz-adv-x="599" d="M86 0v516h63v-95q32 52 77.5 79.5t106.5 27.5q82 0 132.5 -50.5t50.5 -148.5v-329h-62v315q0 25 -5 52t-19 49t-39 36t-65 14q-38 0 -70.5 -13.5t-56 -37.5t-37 -58t-13.5 -74v-283h-63z" />
<glyph unicode="o" horiz-adv-x="591" d="M540 257q0 -57 -17 -106t-49 -85.5t-77 -57t-102 -20.5t-102.5 20.5t-77 57t-48.5 85.5t-17 106q0 58 17 107.5t48.5 86t77 57t102.5 20.5t102 -20.5t77 -57t49 -86t17 -107.5zM473 257q0 44 -12 82.5t-34.5 67t-56 44.5t-75.5 16q-43 0 -76 -16t-56 -44.5t-35 -67 t-12 -82.5q0 -43 12 -81.5t35 -67t56 -45t76 -16.5q42 0 75.5 16.5t56 45t34.5 67t12 81.5z" />
<glyph unicode="p" horiz-adv-x="630" d="M149 516v-94q38 59 88.5 82.5t104.5 23.5q55 0 99 -20.5t75 -57t47.5 -85.5t16.5 -106t-16.5 -106.5t-47.5 -86t-75 -57.5t-99 -21q-56 0 -105.5 24t-87.5 83v-269h-63v690h63zM149 258q0 -44 12 -82t35.5 -66.5t58 -44.5t79.5 -16t78.5 16t56 44.5t34 66.5t11.5 82 q0 43 -11.5 81t-34 66.5t-56 45t-78.5 16.5t-79.5 -16.5t-58 -45t-35.5 -66.5t-12 -81z" />
<glyph unicode="q" horiz-adv-x="630" d="M481 -174v268q-38 -59 -88.5 -82.5t-104.5 -23.5q-55 0 -99 20.5t-75 57t-47.5 85.5t-16.5 106t16.5 106.5t47.5 86t75 57.5t99 21q56 0 105.5 -24t87.5 -83v95h63v-690h-63zM481 258q0 44 -12 82t-35.5 66.5t-58 44.5t-79.5 16t-78.5 -16t-56 -44.5t-34 -66.5t-11.5 -82 q0 -43 11 -81t33.5 -66.5t56.5 -45t79 -16.5t79.5 16.5t58 45t35.5 66.5t12 81z" />
<glyph unicode="r" horiz-adv-x="362" d="M343 459q-20 6 -45 6q-30 0 -57.5 -12.5t-47.5 -37.5t-32 -61t-12 -84v-270h-63v516h63v-93q23 46 64 74t90 28q14 0 29 -2.5t22 -6.5z" />
<glyph unicode="s" horiz-adv-x="498" d="M449 153q0 -35 -14 -65.5t-40.5 -52.5t-63.5 -34.5t-83 -12.5q-72 0 -125.5 29.5t-85.5 74.5l50 40q29 -44 70 -63.5t96 -19.5q68 0 100.5 26t32.5 67q0 27 -12.5 42.5t-34 24.5t-50 14.5t-60.5 12.5q-33 7 -63 17.5t-53 27t-36.5 40.5t-13.5 58q0 32 12.5 59t35.5 47 t56 31.5t74 11.5q68 0 116.5 -28.5t81.5 -70.5l-50 -38q-8 13 -21 26.5t-32 24t-44 17.5t-57 7q-56 0 -83.5 -21t-27.5 -58q0 -21 8.5 -34.5t24.5 -23t38.5 -16t51.5 -12.5q39 -9 75.5 -18.5t64.5 -25t45 -40.5t17 -64z" />
<glyph unicode="t" horiz-adv-x="388" d="M370 22q-20 -18 -46.5 -26t-55.5 -8q-34 0 -68.5 13.5t-56.5 51.5q-10 17 -14 39t-4 58v308h-99v47q26 3 46 8t34 20t21.5 44.5t9.5 80.5h51v-142h168v-58h-168v-312q0 -49 20 -74.5t64 -25.5q23 0 41.5 6.5t32.5 17.5z" />
<glyph unicode="u" horiz-adv-x="600" d="M514 516v-516h-63v94q-34 -51 -78.5 -78.5t-106.5 -27.5q-81 0 -131.5 50.5t-50.5 147.5v330h62v-332q0 -25 6 -49.5t20 -43.5t38.5 -30.5t62.5 -11.5q36 0 68 12.5t56.5 35t39 53t14.5 66.5v300h63z" />
<glyph unicode="v" horiz-adv-x="520" d="M293 0h-66l-209 516h71l172 -440l173 440h68z" />
<glyph unicode="w" horiz-adv-x="772" d="M598 0h-73l-138 433l-139 -433h-73l-143 516h65l118 -444l142 444h63l141 -444l118 444h61z" />
<glyph unicode="x" horiz-adv-x="518" d="M421 0l-163 222l-163 -222h-77l205 269l-187 247h77l148 -202l146 202h75l-186 -247l202 -269h-77z" />
<glyph unicode="y" horiz-adv-x="520" d="M293 -27q-14 -37 -29.5 -66t-35 -49.5t-45.5 -31t-61 -10.5q-24 0 -46 5.5t-38 16.5l25 54q11 -9 26.5 -13.5t32.5 -4.5q41 0 63 26.5t39 63.5l15 33l-221 519h72l182 -431l161 431h68z" />
<glyph unicode="z" horiz-adv-x="496" d="M42 0v56l324 402h-310v58h387v-57l-324 -402h333v-57h-410z" />
<glyph unicode="{" horiz-adv-x="308" d="M245 -80q-57 0 -93.5 45t-36.5 126v115q0 45 -20 71.5t-63 26.5h-6v58h6q43 0 63 25.5t20 71.5v115q0 39 9.5 70.5t27 54t41 35t52.5 12.5h27v-59h-13q-46 0 -64.5 -28.5t-18.5 -76.5v-113q0 -56 -20.5 -89t-57.5 -47q37 -14 57.5 -47t20.5 -89v-114q0 -49 18.5 -77.5 t64.5 -28.5h13v-57h-27z" />
<glyph unicode="|" horiz-adv-x="220" d="M86 -108v822h48v-822h-48z" />
<glyph unicode="}" horiz-adv-x="311" d="M279 304q-46 0 -67.5 -26t-21.5 -72v-115q0 -37 -9.5 -68.5t-26.5 -54t-41 -35.5t-53 -13h-24v58h5q49 0 69 28.5t20 76.5v114q0 56 21 89t58 47q-37 14 -58 47.5t-21 87.5v114q0 48 -20 77t-69 29h-5v59h15q31 0 56.5 -12.5t44 -35t28.5 -54.5t10 -71v-115 q0 -45 21.5 -71t67.5 -26h6v-58h-6z" />
<glyph unicode="~" d="M49 297q9 10 22 23t30.5 24.5t39 18.5t47.5 6q5 -1 11 -1.5t11 -2.5q19 -5 46.5 -15.5t56.5 -21t55 -18.5t43 -8q33 0 60.5 12.5t50.5 29.5l20 -33q-9 -9 -21.5 -22t-30 -24.5t-39 -19.5t-48.5 -6q-6 1 -11 1.5t-10 2.5q-19 4 -45.5 14.5t-55 21.5t-55.5 19t-46 8 q-32 0 -60.5 -13t-50.5 -30z" />
<glyph unicode="&#xa1;" horiz-adv-x="253" d="M75 475q0 21 15.5 36t35.5 15t35.5 -15t15.5 -36q0 -22 -15.5 -36.5t-35.5 -14.5t-35.5 14.5t-15.5 36.5zM104 328h44l17 -502h-78z" />
<glyph unicode="&#xa2;" d="M450 391q-23 31 -52.5 49.5t-67.5 23.5v-414q41 5 70.5 26t49.5 51l52 -38q-30 -42 -73 -68.5t-99 -32.5v-82h-52v84q-50 4 -90 26.5t-68 58t-43 82.5t-15 101q0 53 15 99.5t43 82t68 58t90 27.5v83h52v-83q55 -5 98.5 -30t73.5 -67zM132 257q0 -82 38.5 -138t107.5 -68 v411q-34 -5 -61 -22.5t-46 -44.5t-29 -62.5t-10 -75.5z" />
<glyph unicode="&#xa3;" d="M555 91q-20 -46 -54.5 -74.5t-82.5 -28.5q-27 0 -52 6.5t-50 15t-50 15t-51 6.5q-27 0 -69 -9.5t-87 -34.5l-27 47q34 21 55.5 43t34 43.5t17.5 42.5t5 41q0 48 -21 102h-92v56h71q-14 30 -24.5 58t-16.5 57q-4 20 -4 44q0 46 18 84.5t49 65.5t73 42t91 15 q74 0 131.5 -32t96.5 -88l-58 -39q-27 42 -70.5 67t-103.5 25q-32 0 -61 -9t-50.5 -26t-34 -43.5t-12.5 -60.5q0 -42 14.5 -80t33.5 -80h223v-56h-206q13 -30 18 -63q2 -45 -11.5 -88t-51.5 -83q15 6 30.5 10t30 6t25 2.5t14.5 0.5q28 0 52.5 -6t46.5 -13.5t41.5 -13.5 t38.5 -6q27 0 44 15.5t32 48.5z" />
<glyph unicode="&#xa4;" horiz-adv-x="577" d="M160 304q0 -27 10 -50.5t27 -40.5t41 -27t51 -10t50 10t40 27t27 40.5t10 50.5t-10 50t-27 40.5t-40 27.5t-50 10t-51 -10t-41 -27.5t-27 -40.5t-10 -50zM104 304q0 29 9 56.5t24 50.5l-69 70l43 44l69 -72q46 35 109 35q60 0 105 -34l70 71l43 -44l-69 -70 q16 -23 25 -50t9 -57t-9 -57.5t-25 -49.5l69 -69l-43 -45l-70 71q-22 -17 -49 -26t-56 -9q-31 0 -58.5 9t-50.5 26l-69 -71l-43 45l69 68q-15 23 -24 50.5t-9 57.5z" />
<glyph unicode="&#xa5;" d="M373 369h152v-49h-177l-16 -27v-73h193v-50h-193v-170h-70v170h-193v50h193v73l-15 27h-178v49h153l-179 345h81l177 -361l173 361h80z" />
<glyph unicode="&#xa6;" horiz-adv-x="321" d="M134 450v312h50v-312h-50zM134 -60v312h50v-312h-50z" />
<glyph unicode="&#xa7;" horiz-adv-x="514" d="M242 167q-44 28 -81.5 57.5t-66 65t-44.5 77.5t-16 95q0 55 18.5 103t52 84t82 56.5t108.5 20.5q47 0 87 -12t71 -34l-40 -51q-23 20 -52.5 30.5t-69.5 10.5q-57 0 -99.5 -23.5t-68.5 -74.5l154 -99q44 -29 80.5 -58t62.5 -63t40.5 -74.5t14.5 -91.5q0 -57 -18 -106 t-51.5 -85t-82 -56.5t-108.5 -20.5q-45 0 -85 12t-71 35l37 50q23 -20 53.5 -30.5t69.5 -10.5q62 0 102.5 26t66.5 74zM411 178q-1 42 -13 75t-37.5 63.5t-64.5 61.5t-93 67l-98 66q-3 -8 -4 -18.5t-1 -21.5q0 -45 12 -79.5t37 -65t64.5 -60.5t94.5 -66l98 -65q4 18 4.5 27 t0.5 16z" />
<glyph unicode="&#xa8;" horiz-adv-x="319" d="M26 638q0 17 12 29t28 12q17 0 28.5 -12t11.5 -29q0 -15 -11.5 -27t-28.5 -12q-16 0 -28 11.5t-12 27.5zM212 638q0 17 12 29t27 12q17 0 29 -12t12 -29q0 -15 -12 -27t-29 -12q-15 0 -27 11.5t-12 27.5z" />
<glyph unicode="&#xa9;" horiz-adv-x="846" d="M597 252q-26 -45 -72 -72t-102 -27q-43 0 -81 16.5t-66 45t-44 67t-16 81.5t16 81.5t44 67t66 45t81 16.5q54 0 100 -26t72 -71l-38 -27q-21 35 -56.5 56.5t-77.5 21.5q-33 0 -62 -13t-51 -35.5t-34.5 -52.5t-12.5 -63t12.5 -62.5t34.5 -51.5t51 -35t62 -13q42 0 77.5 21 t57.5 55zM40 363q0 79 30 149t81.5 121.5t121 81.5t149.5 30q79 0 149 -30t122 -81.5t82 -121.5t30 -149q0 -80 -30 -149.5t-82 -121t-122 -81.5t-149 -30q-80 0 -149.5 30t-121 81.5t-81.5 121t-30 149.5zM83 363q0 -71 26.5 -132.5t72.5 -108t108 -73t132 -26.5t132 26.5 t108.5 73t73 108t26.5 132.5q0 70 -26.5 132t-73 108t-108.5 72.5t-132 26.5t-132 -26.5t-108 -72.5t-72.5 -108t-26.5 -132z" />
<glyph unicode="&#xaa;" horiz-adv-x="439" d="M386 390q-8 -4 -19 -4.5t-17 -0.5q-24 0 -42.5 11t-23.5 38q-25 -32 -55 -42t-64 -10q-48 0 -80 26.5t-32 72.5q0 39 17 59t42 29.5t55 12t55 6t42 12t17 30.5q0 13 -7 22t-18.5 14.5t-26 8t-29.5 2.5q-28 0 -54 -8.5t-49 -25.5l-29 34q29 22 62 34.5t68 12.5 q72 0 101.5 -32t29.5 -100v-130q0 -19 6 -27t21 -8q5 0 11 1.5t11 3.5zM283 575q-17 -16 -38 -23t-57 -12q-19 -3 -34.5 -6t-27 -9t-18 -16t-6.5 -26q0 -29 22 -42.5t51 -13.5q20 0 39.5 5.5t34.5 16.5t24.5 28.5t9.5 41.5v56z" />
<glyph unicode="&#xab;" horiz-adv-x="427" d="M37 300l144 206l46 -37l-135 -177l135 -179l-46 -34l-144 202v19zM185 300l145 206l44 -37l-133 -177l133 -179l-44 -34l-145 202v19z" />
<glyph unicode="&#xac;" horiz-adv-x="576" d="M456 73v201h-403v60h462v-261h-59z" />
<glyph unicode="&#xad;" horiz-adv-x="385" d="M66 253v56h254v-56h-254z" />
<glyph unicode="&#xae;" horiz-adv-x="368" d="M325 584q0 -29 -11 -54.5t-29.5 -45t-44 -30.5t-54.5 -11q-30 0 -56 11t-45.5 30.5t-30.5 45t-11 54.5t11 55t30.5 45.5t45.5 30.5t56 11q29 0 54.5 -11t44 -30.5t29.5 -45.5t11 -55zM306 584q0 26 -9.5 48t-26 38.5t-38.5 26t-46 9.5q-26 0 -48.5 -9.5t-39 -26 t-26 -38.5t-9.5 -48q0 -25 9.5 -47t26 -38.5t39 -26t48.5 -9.5q24 0 46 9.5t38.5 26t26 38.5t9.5 47zM254 506h-25l-38 61h-41v-61h-22v159h70q20 0 35.5 -13t15.5 -36q0 -16 -10 -28t-24 -17zM224 616q0 19 -12 23t-26 4h-36v-54h50q10 0 17 7.5t7 19.5z" />
<glyph unicode="&#xaf;" horiz-adv-x="323" d="M16 611v49h288v-49h-288z" />
<glyph unicode="&#xb0;" horiz-adv-x="384" d="M339 580q0 -30 -11.5 -56.5t-31.5 -46.5t-46.5 -31.5t-56.5 -11.5t-57 11.5t-47 31.5t-31.5 46.5t-11.5 56.5t11.5 57t31.5 47t47 31.5t57 11.5t56.5 -11.5t46.5 -31.5t31.5 -47t11.5 -57zM283 580q0 38 -26.5 64.5t-63.5 26.5q-19 0 -35.5 -7t-29 -19.5t-19.5 -29 t-7 -35.5q0 -18 7 -34.5t19.5 -29t29 -19.5t35.5 -7q37 0 63.5 26.5t26.5 63.5z" />
<glyph unicode="&#xb1;" d="M65 0v57h460v-57h-460zM323 334v-200h-58v200h-200v57h200v203h58v-203h202v-57h-202z" />
<glyph unicode="&#xb2;" horiz-adv-x="372" d="M41 380v43q50 39 91.5 71.5t71.5 62t47 58t17 60.5q0 42 -25.5 61.5t-63.5 19.5q-40 0 -69 -18t-45 -41l-36 33q13 16 27.5 30t32.5 24.5t40 17t50 6.5q33 0 59.5 -10t45 -28t29 -42.5t10.5 -52.5q0 -30 -11 -57t-35 -55t-61.5 -60t-91.5 -73h215v-50h-298z" />
<glyph unicode="&#xb3;" horiz-adv-x="379" d="M337 500q0 -30 -11.5 -53.5t-31.5 -40t-48 -25.5t-61 -9q-54 0 -94.5 21t-61.5 51l38 35q18 -24 47.5 -39.5t70.5 -15.5q51 0 74.5 22t23.5 54t-21 50t-61 18h-54v51h51q11 0 24 3.5t24 11.5t18.5 20.5t7.5 30.5q0 35 -26.5 53t-64.5 18q-35 0 -62 -14t-42 -35l-40 35 q58 66 145 66q66 0 104 -33t38 -84q0 -27 -11 -50.5t-39 -39.5q19 -7 31.5 -18.5t19.5 -25.5t9.5 -29t2.5 -28z" />
<glyph unicode="&#xb4;" horiz-adv-x="319" d="M111 594l86 138l50 -26l-73 -112h-63z" />
<glyph unicode="&#xb6;" horiz-adv-x="548" d="M417 -91v763h-66v-763h-49v407h-67q-42 0 -78.5 14t-63.5 40t-42 63t-15 83q0 45 16 82t43 62.5t63 39.5t77 14h232v-805h-50z" />
<glyph unicode="&#xb7;" horiz-adv-x="247" d="M174 304q0 -21 -15 -36t-35 -15q-21 0 -36 15t-15 36q0 20 15 36.5t36 16.5q20 0 35 -16.5t15 -36.5z" />
<glyph unicode="&#xb8;" horiz-adv-x="319" d="M122 -200q-21 0 -42.5 3.5t-32.5 6.5v47q15 -8 35.5 -10.5t31.5 -2.5q30 0 47.5 10t17.5 33q0 14 -5.5 19.5t-13.5 10.5h-57l13 50q8 2 16 5t22 3q32 0 55 -21.5t23 -61.5q0 -45 -31 -68.5t-79 -23.5z" />
<glyph unicode="&#xb9;" horiz-adv-x="354" d="M231 380h-52v354q-17 -8 -47 -17t-62 -14l-9 44q45 9 77.5 21t52.5 32h40v-420z" />
<glyph unicode="&#xba;" horiz-adv-x="418" d="M372 553q0 -36 -11.5 -67t-32.5 -54t-51.5 -36.5t-67.5 -13.5q-38 0 -68 13.5t-51 36.5t-32 54t-11 67q0 37 11 68t32 54t51 36t68 13q37 0 67.5 -13t51.5 -36t32.5 -54t11.5 -68zM321 553q0 52 -29 87.5t-83 35.5t-83.5 -35.5t-29.5 -87.5q0 -25 7.5 -47.5t22 -39 t35.5 -26.5t48 -10t48 10t35 26.5t21.5 39t7.5 47.5z" />
<glyph unicode="&#xbb;" horiz-adv-x="428" d="M390 281l-145 -202l-43 34l133 179l-133 177l43 37l145 -206v-19zM242 281l-144 -202l-45 34l134 179l-134 177l45 37l144 -206v-19z" />
<glyph unicode="&#xbc;" horiz-adv-x="1049" d="M231 294h-52v354q-17 -8 -47 -17t-62 -14l-9 44q45 9 77.5 21t52.5 32h40v-420zM310 0h-60l476 714h60zM906 102v-102h-51v102h-212v47q21 22 51.5 59t61 77t56.5 77t38 58h56v-269h67v-49h-67zM855 151v196q-29 -47 -68.5 -96.5t-81.5 -99.5h150z" />
<glyph unicode="&#xbd;" horiz-adv-x="1049" d="M231 294h-52v354q-17 -8 -47 -17t-62 -14l-9 44q45 9 77.5 21t52.5 32h40v-420zM310 0h-60l476 714h60zM659 0v43q50 40 91.5 72.5t71.5 62t47 58t17 60.5q0 41 -25.5 61t-63.5 20q-40 0 -69 -18t-45 -41l-36 32q13 16 27.5 30t32.5 24.5t40 17t50 6.5q66 0 105 -37.5 t39 -95.5q0 -30 -11 -56.5t-35 -54.5t-61.5 -60t-91.5 -73h215v-51h-298z" />
<glyph unicode="&#xbe;" horiz-adv-x="1049" d="M337 414q0 -30 -11.5 -53.5t-31.5 -40t-48 -25.5t-61 -9q-54 0 -94.5 21t-61.5 51l38 35q18 -24 47.5 -39.5t70.5 -15.5q51 0 74.5 22t23.5 54t-21 50t-61 18h-54v51h51q11 0 24 3.5t24 11.5t18.5 20.5t7.5 30.5q0 35 -26.5 53t-64.5 18q-35 0 -62 -14t-42 -35l-40 35 q58 66 145 66q66 0 104 -33t38 -84q0 -27 -11 -50.5t-39 -39.5q19 -7 31.5 -18.5t19.5 -25.5t9.5 -29t2.5 -28zM327 0h-60l476 714h60zM906 102v-102h-51v102h-212v47q21 22 51.5 59t61 77t56.5 77t38 58h56v-269h67v-49h-67zM855 151v196q-29 -47 -68.5 -96.5t-81.5 -99.5 h150z" />
<glyph unicode="&#xbf;" horiz-adv-x="494" d="M56 8q0 45 16 76.5t39.5 55t51 41t51 35t39.5 36.5t16 46v27h59v-28q0 -38 -15 -64t-37 -46t-48.5 -36.5t-48.5 -36t-37 -45t-15 -61.5q0 -26 8.5 -49t26 -40t44.5 -27.5t64 -10.5q51 0 88.5 18t70.5 46l44 -46q-45 -38 -95 -60.5t-109 -22.5q-44 0 -83 13.5t-68 38.5 t-45.5 60.5t-16.5 79.5zM347 475q0 -22 -14.5 -36.5t-36.5 -14.5q-21 0 -36 14.5t-15 36.5q0 21 15.5 36t35.5 15t35.5 -15t15.5 -36z" />
<glyph unicode="&#xc0;" horiz-adv-x="674" d="M575 0l-81 219h-320l-83 -219h-76l283 714h76l283 -714h-82zM336 639l-137 -354h269zM304 762l-73 112l50 26l86 -138h-63z" />
<glyph unicode="&#xc1;" horiz-adv-x="674" d="M575 0l-81 219h-320l-83 -219h-76l283 714h76l283 -714h-82zM336 639l-137 -354h269zM300 762l86 138l50 -26l-73 -112h-63z" />
<glyph unicode="&#xc2;" horiz-adv-x="674" d="M575 0l-81 219h-320l-83 -219h-76l283 714h76l283 -714h-82zM336 639l-137 -354h269zM363 897q57 -48 121 -90l-27 -44l-120 76l-119 -76l-29 44q34 22 64.5 44.5t56.5 45.5h53z" />
<glyph unicode="&#xc3;" horiz-adv-x="674" d="M575 0l-81 219h-320l-83 -219h-76l283 714h76l283 -714h-82zM336 639l-137 -354h269zM488 843q-14 -34 -38.5 -54.5t-54.5 -20.5q-19 0 -36.5 7t-33 15t-29.5 15t-26 7q-21 0 -30.5 -15t-16.5 -29l-41 18q14 35 37.5 54.5t52.5 19.5q18 0 34.5 -6.5t32 -15t30 -15 t27.5 -6.5q17 0 30.5 12.5t19.5 30.5z" />
<glyph unicode="&#xc4;" horiz-adv-x="674" d="M575 0l-81 219h-320l-83 -219h-76l283 714h76l283 -714h-82zM336 639l-137 -354h269zM207 806q0 17 12 29t28 12q17 0 28.5 -12t11.5 -29q0 -15 -11.5 -27t-28.5 -12q-16 0 -28 11.5t-12 27.5zM393 806q0 17 12 29t27 12q17 0 29 -12t12 -29q0 -15 -12 -27t-29 -12 q-15 0 -27 11.5t-12 27.5z" />
<glyph unicode="&#xc5;" horiz-adv-x="670" d="M436 773q0 -29 -14 -52t-37 -36l272 -685h-82l-81 219h-320l-83 -219h-76l272 686q-23 13 -36.5 36t-13.5 51q0 21 7.5 39t21 32t31.5 22t39 8t39 -8t31.5 -22t21.5 -32t8 -39zM336 639l-137 -354h269zM395 773q0 24 -17 41.5t-42 17.5q-24 0 -41.5 -17.5t-17.5 -41.5 q0 -25 17.5 -42t41.5 -17q25 0 42 17t17 42z" />
<glyph unicode="&#xc6;" horiz-adv-x="922" d="M456 0v222h-261l-133 -222h-71l437 714h427v-64h-332v-238h290v-62h-290v-286h342v-64h-409zM456 650h-4l-215 -364h219v364z" />
<glyph unicode="&#xc7;" horiz-adv-x="692" d="M592 552q-32 50 -84 79t-122 29q-59 0 -107 -22t-81.5 -61.5t-51.5 -95.5t-18 -124q0 -69 18.5 -125t52.5 -95.5t82.5 -61t107.5 -21.5q67 0 116.5 27.5t88.5 87.5l56 -47q-49 -68 -111.5 -101.5t-147.5 -33.5q-78 0 -140.5 27.5t-106.5 77t-67.5 117t-23.5 147.5 q0 79 23.5 147t67 118t104.5 78t137 28q84 0 152 -35t113 -100zM320 -200q-21 0 -42.5 3.5t-32.5 6.5v47q15 -8 35.5 -10.5t31.5 -2.5q30 0 47.5 10t17.5 33q0 14 -5.5 19.5t-13.5 10.5h-57l13 50q8 2 16 5t22 3q32 0 55 -21.5t23 -61.5q0 -45 -31 -68.5t-79 -23.5z" />
<glyph unicode="&#xc8;" horiz-adv-x="628" d="M97 0v714h470v-67h-402v-236h358v-65h-358v-279h412v-67h-480zM298 762l-73 112l50 26l86 -138h-63z" />
<glyph unicode="&#xc9;" horiz-adv-x="628" d="M97 0v714h470v-67h-402v-236h358v-65h-358v-279h412v-67h-480zM302 762l86 138l50 -26l-73 -112h-63z" />
<glyph unicode="&#xca;" horiz-adv-x="628" d="M97 0v714h470v-67h-402v-236h358v-65h-358v-279h412v-67h-480zM349 897q57 -48 121 -90l-27 -44l-120 76l-119 -76l-29 44q34 22 64.5 44.5t56.5 45.5h53z" />
<glyph unicode="&#xcb;" horiz-adv-x="628" d="M97 0v714h470v-67h-402v-236h358v-65h-358v-279h412v-67h-480zM196 806q0 17 12 29t28 12q17 0 28.5 -12t11.5 -29q0 -15 -11.5 -27t-28.5 -12q-16 0 -28 11.5t-12 27.5zM382 806q0 17 12 29t27 12q17 0 29 -12t12 -29q0 -15 -12 -27t-29 -12q-15 0 -27 11.5t-12 27.5z " />
<glyph unicode="&#xcc;" horiz-adv-x="262" d="M97 0v714h68v-714h-68zM106 762l-73 112l50 26l86 -138h-63z" />
<glyph unicode="&#xcd;" horiz-adv-x="262" d="M97 0v714h68v-714h-68zM98 762l86 138l50 -26l-73 -112h-63z" />
<glyph unicode="&#xce;" horiz-adv-x="262" d="M97 0v714h68v-714h-68zM157 888q57 -48 121 -90l-27 -44l-120 76l-119 -76l-29 44q34 22 64.5 44.5t56.5 45.5h53z" />
<glyph unicode="&#xcf;" horiz-adv-x="262" d="M97 0v714h68v-714h-68zM-2 806q0 17 12 29t28 12q17 0 28.5 -12t11.5 -29q0 -15 -11.5 -27t-28.5 -12q-16 0 -28 11.5t-12 27.5zM184 806q0 17 12 29t27 12q17 0 29 -12t12 -29q0 -15 -12 -27t-29 -12q-15 0 -27 11.5t-12 27.5z" />
<glyph unicode="&#xd0;" horiz-adv-x="741" d="M97 0v339h-80v49h80v326h261q80 0 141.5 -27t103 -74.5t63 -113t21.5 -142.5t-21.5 -142.5t-63 -113t-103 -74.5t-141.5 -27h-261zM358 67q62 0 109.5 20.5t80 58.5t49 91.5t16.5 119.5t-16.5 119.5t-49 91.5t-80 58.5t-109.5 20.5h-193v-259h215v-49h-215v-272h193z" />
<glyph unicode="&#xd1;" horiz-adv-x="751" d="M649 0h-65l-422 622v-622h-65v714h77l408 -598v598h67v-714zM501 843q-14 -34 -38.5 -54.5t-54.5 -20.5q-19 0 -36.5 7t-33 15t-29.5 15t-26 7q-21 0 -30.5 -15t-16.5 -29l-41 18q14 35 37.5 54.5t52.5 19.5q18 0 34.5 -6.5t32 -15t30 -15t27.5 -6.5q17 0 30.5 12.5 t19.5 30.5z" />
<glyph unicode="&#xd2;" horiz-adv-x="771" d="M719 357q0 -79 -23 -147t-66.5 -117.5t-105 -77.5t-138.5 -28t-138.5 28t-105 77.5t-67 117.5t-23.5 147q0 80 23.5 147.5t67 117t105 77.5t138.5 28t138.5 -28t105 -77.5t66.5 -117t23 -147.5zM646 357q0 67 -18 122.5t-52 95t-82 61t-108 21.5t-108 -21.5t-82 -61 t-52 -95t-18 -122.5q0 -68 18 -123t52 -94.5t82 -61t108 -21.5t108 21.5t82 61t52 94.5t18 123zM369 762l-73 112l50 26l86 -138h-63z" />
<glyph unicode="&#xd3;" horiz-adv-x="771" d="M719 357q0 -79 -23 -147t-66.5 -117.5t-105 -77.5t-138.5 -28t-138.5 28t-105 77.5t-67 117.5t-23.5 147q0 80 23.5 147.5t67 117t105 77.5t138.5 28t138.5 -28t105 -77.5t66.5 -117t23 -147.5zM646 357q0 67 -18 122.5t-52 95t-82 61t-108 21.5t-108 -21.5t-82 -61 t-52 -95t-18 -122.5q0 -68 18 -123t52 -94.5t82 -61t108 -21.5t108 21.5t82 61t52 94.5t18 123zM338 762l86 138l50 -26l-73 -112h-63z" />
<glyph unicode="&#xd4;" horiz-adv-x="771" d="M719 357q0 -79 -23 -147t-66.5 -117.5t-105 -77.5t-138.5 -28t-138.5 28t-105 77.5t-67 117.5t-23.5 147q0 80 23.5 147.5t67 117t105 77.5t138.5 28t138.5 -28t105 -77.5t66.5 -117t23 -147.5zM646 357q0 67 -18 122.5t-52 95t-82 61t-108 21.5t-108 -21.5t-82 -61 t-52 -95t-18 -122.5q0 -68 18 -123t52 -94.5t82 -61t108 -21.5t108 21.5t82 61t52 94.5t18 123zM413 897q57 -48 121 -90l-27 -44l-120 76l-119 -76l-29 44q34 22 64.5 44.5t56.5 45.5h53z" />
<glyph unicode="&#xd5;" horiz-adv-x="771" d="M719 357q0 -79 -23 -147t-66.5 -117.5t-105 -77.5t-138.5 -28t-138.5 28t-105 77.5t-67 117.5t-23.5 147q0 80 23.5 147.5t67 117t105 77.5t138.5 28t138.5 -28t105 -77.5t66.5 -117t23 -147.5zM646 357q0 67 -18 122.5t-52 95t-82 61t-108 21.5t-108 -21.5t-82 -61 t-52 -95t-18 -122.5q0 -68 18 -123t52 -94.5t82 -61t108 -21.5t108 21.5t82 61t52 94.5t18 123zM537 843q-14 -34 -38.5 -54.5t-54.5 -20.5q-19 0 -36.5 7t-33 15t-29.5 15t-26 7q-21 0 -30.5 -15t-16.5 -29l-41 18q14 35 37.5 54.5t52.5 19.5q18 0 34.5 -6.5t32 -15t30 -15 t27.5 -6.5q17 0 30.5 12.5t19.5 30.5z" />
<glyph unicode="&#xd6;" horiz-adv-x="771" d="M719 357q0 -79 -23 -147t-66.5 -117.5t-105 -77.5t-138.5 -28t-138.5 28t-105 77.5t-67 117.5t-23.5 147q0 80 23.5 147.5t67 117t105 77.5t138.5 28t138.5 -28t105 -77.5t66.5 -117t23 -147.5zM646 357q0 67 -18 122.5t-52 95t-82 61t-108 21.5t-108 -21.5t-82 -61 t-52 -95t-18 -122.5q0 -68 18 -123t52 -94.5t82 -61t108 -21.5t108 21.5t82 61t52 94.5t18 123zM253 806q0 17 12 29t28 12q17 0 28.5 -12t11.5 -29q0 -15 -11.5 -27t-28.5 -12q-16 0 -28 11.5t-12 27.5zM439 806q0 17 12 29t27 12q17 0 29 -12t12 -29q0 -15 -12 -27 t-29 -12q-15 0 -27 11.5t-12 27.5z" />
<glyph unicode="&#xd7;" d="M472 86l-176 177l-177 -177l-41 42l177 176l-177 176l41 42l177 -178l176 178l41 -42l-176 -176l176 -176z" />
<glyph unicode="&#xd8;" horiz-adv-x="771" d="M607 645q54 -51 83 -124.5t29 -163.5q0 -79 -23 -147t-66.5 -117.5t-105 -77.5t-138.5 -28q-104 0 -184 52l-26 -39h-59l46 70q-54 51 -82.5 124t-28.5 163q0 80 23.5 147.5t67 117t105 77.5t138.5 28q53 0 98.5 -13t83.5 -37l25 37h60zM646 357q0 72 -20 130.5t-58 98.5 l-327 -488q59 -41 145 -41q60 0 108 21.5t82 61t52 94.5t18 123zM126 357q0 -72 19.5 -129.5t56.5 -97.5l327 487q-59 40 -143 40q-60 0 -108 -21.5t-82 -61t-52 -95t-18 -122.5z" />
<glyph unicode="&#xd9;" horiz-adv-x="711" d="M623 254q0 -60 -20.5 -109t-57 -84.5t-85.5 -54.5t-106 -19q-58 0 -106.5 19t-84 54.5t-55.5 84.5t-20 109v460h69v-460q0 -45 14 -81.5t39.5 -63t62 -41t81.5 -14.5t82 14.5t63 41t40 63t14 81.5v460h70v-460zM335 762l-73 112l50 26l86 -138h-63z" />
<glyph unicode="&#xda;" horiz-adv-x="711" d="M623 254q0 -60 -20.5 -109t-57 -84.5t-85.5 -54.5t-106 -19q-58 0 -106.5 19t-84 54.5t-55.5 84.5t-20 109v460h69v-460q0 -45 14 -81.5t39.5 -63t62 -41t81.5 -14.5t82 14.5t63 41t40 63t14 81.5v460h70v-460zM305 762l86 138l50 -26l-73 -112h-63z" />
<glyph unicode="&#xdb;" horiz-adv-x="711" d="M623 254q0 -60 -20.5 -109t-57 -84.5t-85.5 -54.5t-106 -19q-58 0 -106.5 19t-84 54.5t-55.5 84.5t-20 109v460h69v-460q0 -45 14 -81.5t39.5 -63t62 -41t81.5 -14.5t82 14.5t63 41t40 63t14 81.5v460h70v-460zM381 897q57 -48 121 -90l-27 -44l-120 76l-119 -76l-29 44 q34 22 64.5 44.5t56.5 45.5h53z" />
<glyph unicode="&#xdc;" horiz-adv-x="711" d="M623 254q0 -60 -20.5 -109t-57 -84.5t-85.5 -54.5t-106 -19q-58 0 -106.5 19t-84 54.5t-55.5 84.5t-20 109v460h69v-460q0 -45 14 -81.5t39.5 -63t62 -41t81.5 -14.5t82 14.5t63 41t40 63t14 81.5v460h70v-460zM222 806q0 17 12 29t28 12q17 0 28.5 -12t11.5 -29 q0 -15 -11.5 -27t-28.5 -12q-16 0 -28 11.5t-12 27.5zM408 806q0 17 12 29t27 12q17 0 29 -12t12 -29q0 -15 -12 -27t-29 -12q-15 0 -27 11.5t-12 27.5z" />
<glyph unicode="&#xdd;" horiz-adv-x="595" d="M335 300v-300h-72v299l-254 415h81l211 -349l210 349h77zM250 762l86 138l50 -26l-73 -112h-63z" />
<glyph unicode="&#xde;" horiz-adv-x="630" d="M161 205v-205h-64v714h64v-103h204q58 0 101.5 -15t72.5 -42t44 -64.5t15 -82.5q0 -91 -58.5 -146.5t-174.5 -55.5h-204zM367 269q85 0 123.5 37.5t38.5 100.5q0 62 -38.5 101t-123.5 39h-206v-278h206z" />
<glyph unicode="&#xdf;" horiz-adv-x="579" d="M531 205q0 -48 -16 -87.5t-45 -67.5t-71 -43.5t-93 -15.5q-29 0 -57.5 5t-45.5 16l23 55q17 -10 39.5 -14.5t46.5 -4.5q73 0 114 44.5t41 113.5q0 78 -49 114t-130 36h-48v58h54q30 0 56.5 8t46.5 24t32 40.5t12 56.5q0 34 -13 58t-33.5 39t-46 21.5t-51.5 6.5 q-32 0 -59.5 -9.5t-48 -28.5t-32 -47.5t-11.5 -65.5v-517h-62v517q0 48 16.5 86.5t45 65t67.5 41t84 14.5q42 0 79.5 -11.5t66 -34t45.5 -55t17 -74.5q0 -45 -22.5 -86t-78.5 -73q23 -8 45.5 -22.5t40.5 -36.5t29.5 -53t11.5 -73z" />
<glyph unicode="&#xe0;" horiz-adv-x="560" d="M403 291q-14 -13 -34.5 -21t-44 -13t-45 -7.5t-43.5 -5.5q-30 -4 -49 -9t-36 -17t-27 -29.5t-10 -44.5q0 -26 9.5 -45t26 -31t38 -17.5t46.5 -5.5q31 0 61.5 9t54.5 27.5t38.5 48t14.5 71.5v90zM229 -12q-83 0 -132 41t-49 115q0 44 17 72.5t42.5 45t55 24.5t59.5 12 q31 4 63.5 7.5t58.5 11.5t42.5 23t16.5 44q0 42 -36 63t-93 21q-96 0 -164 -56l-36 49q39 31 88 49t112 18q42 0 77 -9t60.5 -29t39.5 -51t14 -75v-255q0 -32 9.5 -48t32.5 -16q9 0 16.5 2.5t12.5 6.5l12 -51q-6 -5 -21 -8.5t-31 -3.5q-36 0 -62 21.5t-29 61.5 q-26 -39 -68.5 -62.5t-107.5 -23.5zM240 594l-73 112l50 26l86 -138h-63z" />
<glyph unicode="&#xe1;" horiz-adv-x="560" d="M403 291q-14 -13 -34.5 -21t-44 -13t-45 -7.5t-43.5 -5.5q-30 -4 -49 -9t-36 -17t-27 -29.5t-10 -44.5q0 -26 9.5 -45t26 -31t38 -17.5t46.5 -5.5q31 0 61.5 9t54.5 27.5t38.5 48t14.5 71.5v90zM229 -12q-83 0 -132 41t-49 115q0 44 17 72.5t42.5 45t55 24.5t59.5 12 q31 4 63.5 7.5t58.5 11.5t42.5 23t16.5 44q0 42 -36 63t-93 21q-96 0 -164 -56l-36 49q39 31 88 49t112 18q42 0 77 -9t60.5 -29t39.5 -51t14 -75v-255q0 -32 9.5 -48t32.5 -16q9 0 16.5 2.5t12.5 6.5l12 -51q-6 -5 -21 -8.5t-31 -3.5q-36 0 -62 21.5t-29 61.5 q-26 -39 -68.5 -62.5t-107.5 -23.5zM231 594l86 138l50 -26l-73 -112h-63z" />
<glyph unicode="&#xe2;" horiz-adv-x="560" d="M403 291q-14 -13 -34.5 -21t-44 -13t-45 -7.5t-43.5 -5.5q-30 -4 -49 -9t-36 -17t-27 -29.5t-10 -44.5q0 -26 9.5 -45t26 -31t38 -17.5t46.5 -5.5q31 0 61.5 9t54.5 27.5t38.5 48t14.5 71.5v90zM229 -12q-83 0 -132 41t-49 115q0 44 17 72.5t42.5 45t55 24.5t59.5 12 q31 4 63.5 7.5t58.5 11.5t42.5 23t16.5 44q0 42 -36 63t-93 21q-96 0 -164 -56l-36 49q39 31 88 49t112 18q42 0 77 -9t60.5 -29t39.5 -51t14 -75v-255q0 -32 9.5 -48t32.5 -16q9 0 16.5 2.5t12.5 6.5l12 -51q-6 -5 -21 -8.5t-31 -3.5q-36 0 -62 21.5t-29 61.5 q-26 -39 -68.5 -62.5t-107.5 -23.5zM285 720q57 -48 121 -90l-27 -44l-120 76l-119 -76l-29 44q34 22 64.5 44.5t56.5 45.5h53z" />
<glyph unicode="&#xe3;" horiz-adv-x="560" d="M403 291q-14 -13 -34.5 -21t-44 -13t-45 -7.5t-43.5 -5.5q-30 -4 -49 -9t-36 -17t-27 -29.5t-10 -44.5q0 -26 9.5 -45t26 -31t38 -17.5t46.5 -5.5q31 0 61.5 9t54.5 27.5t38.5 48t14.5 71.5v90zM229 -12q-83 0 -132 41t-49 115q0 44 17 72.5t42.5 45t55 24.5t59.5 12 q31 4 63.5 7.5t58.5 11.5t42.5 23t16.5 44q0 42 -36 63t-93 21q-96 0 -164 -56l-36 49q39 31 88 49t112 18q42 0 77 -9t60.5 -29t39.5 -51t14 -75v-255q0 -32 9.5 -48t32.5 -16q9 0 16.5 2.5t12.5 6.5l12 -51q-6 -5 -21 -8.5t-31 -3.5q-36 0 -62 21.5t-29 61.5 q-26 -39 -68.5 -62.5t-107.5 -23.5zM414 675q-14 -34 -38.5 -54.5t-54.5 -20.5q-19 0 -36.5 7t-33 15t-29.5 15t-26 7q-21 0 -30.5 -15t-16.5 -29l-41 18q14 35 37.5 54.5t52.5 19.5q18 0 34.5 -6.5t32 -15t30 -15t27.5 -6.5q17 0 30.5 12.5t19.5 30.5z" />
<glyph unicode="&#xe4;" horiz-adv-x="560" d="M403 291q-14 -13 -34.5 -21t-44 -13t-45 -7.5t-43.5 -5.5q-30 -4 -49 -9t-36 -17t-27 -29.5t-10 -44.5q0 -26 9.5 -45t26 -31t38 -17.5t46.5 -5.5q31 0 61.5 9t54.5 27.5t38.5 48t14.5 71.5v90zM229 -12q-83 0 -132 41t-49 115q0 44 17 72.5t42.5 45t55 24.5t59.5 12 q31 4 63.5 7.5t58.5 11.5t42.5 23t16.5 44q0 42 -36 63t-93 21q-96 0 -164 -56l-36 49q39 31 88 49t112 18q42 0 77 -9t60.5 -29t39.5 -51t14 -75v-255q0 -32 9.5 -48t32.5 -16q9 0 16.5 2.5t12.5 6.5l12 -51q-6 -5 -21 -8.5t-31 -3.5q-36 0 -62 21.5t-29 61.5 q-26 -39 -68.5 -62.5t-107.5 -23.5zM130 638q0 17 12 29t28 12q17 0 28.5 -12t11.5 -29q0 -15 -11.5 -27t-28.5 -12q-16 0 -28 11.5t-12 27.5zM316 638q0 17 12 29t27 12q17 0 29 -12t12 -29q0 -15 -12 -27t-29 -12q-15 0 -27 11.5t-12 27.5z" />
<glyph unicode="&#xe5;" horiz-adv-x="560" d="M403 291q-14 -13 -34.5 -21t-44 -13t-45 -7.5t-43.5 -5.5q-30 -4 -49 -9t-36 -17t-27 -29.5t-10 -44.5q0 -26 9.5 -45t26 -31t38 -17.5t46.5 -5.5q31 0 61.5 9t54.5 27.5t38.5 48t14.5 71.5v90zM229 -12q-83 0 -132 41t-49 115q0 44 17 72.5t42.5 45t55 24.5t59.5 12 q31 4 63.5 7.5t58.5 11.5t42.5 23t16.5 44q0 42 -36 63t-93 21q-96 0 -164 -56l-36 49q39 31 88 49t112 18q42 0 77 -9t60.5 -29t39.5 -51t14 -75v-255q0 -32 9.5 -48t32.5 -16q9 0 16.5 2.5t12.5 6.5l12 -51q-6 -5 -21 -8.5t-31 -3.5q-36 0 -62 21.5t-29 61.5 q-26 -39 -68.5 -62.5t-107.5 -23.5zM363 681q0 -21 -8 -39t-21.5 -31.5t-31.5 -21.5t-39 -8q-42 0 -70.5 29t-28.5 71q0 21 7.5 39t21 32t31.5 22t39 8t39 -8t31.5 -22t21.5 -32t8 -39zM322 681q0 24 -17 41.5t-42 17.5q-24 0 -41.5 -17.5t-17.5 -41.5q0 -25 17.5 -42 t41.5 -17q25 0 42 17t17 42z" />
<glyph unicode="&#xe6;" horiz-adv-x="918" d="M396 301q-19 -25 -48 -37t-61.5 -17.5t-64.5 -9t-57.5 -13t-41.5 -28t-16 -53.5q0 -26 9.5 -44.5t26 -30.5t38 -17.5t46.5 -5.5q31 0 61.5 9t54.5 27.5t38.5 48t14.5 71.5v100zM848 76q-38 -40 -87 -64t-116 -24q-69 0 -124.5 28t-89.5 86q-30 -56 -80 -85t-120 -29 q-41 0 -76 10t-60.5 30t-39.5 49t-14 67q0 46 19 75t47 45.5t61 24t61 10.5q31 4 60.5 8t52.5 12t37 22.5t14 41.5q0 24 -12 40.5t-30.5 26.5t-41.5 14t-44 4q-45 0 -86.5 -14.5t-76.5 -41.5l-34 49q41 30 88.5 48.5t107.5 18.5q28 0 55.5 -5t51.5 -16t43.5 -29.5 t32.5 -46.5q38 52 85.5 74.5t101.5 22.5q55 0 100 -20.5t76 -55t48 -81t17 -98.5q0 -12 -0.5 -19t-1.5 -11h-420q2 -46 16.5 -82t39.5 -60.5t58.5 -37.5t74.5 -13q49 0 89 18.5t70 52.5zM809 299q-4 42 -19 73.5t-39 52.5t-54.5 31.5t-64.5 10.5q-38 0 -69.5 -13t-54 -35.5 t-36 -53t-16.5 -66.5h353z" />
<glyph unicode="&#xe7;" horiz-adv-x="528" d="M292 528q66 0 115.5 -28t79.5 -70l-46 -40q-26 39 -61 58.5t-85 19.5q-41 0 -74.5 -15.5t-56.5 -43.5t-35.5 -66.5t-12.5 -84.5q0 -45 12.5 -83.5t35.5 -66.5t56 -44t75 -16q54 0 91 24t57 56l50 -35q-35 -48 -84.5 -76.5t-115.5 -28.5q-56 0 -100.5 20.5t-76.5 57 t-49 86t-17 106.5q0 58 17.5 107.5t49 85.5t76.5 56.5t99 20.5zM252 -200q-21 0 -42.5 3.5t-32.5 6.5v47q15 -8 35.5 -10.5t31.5 -2.5q30 0 47.5 10t17.5 33q0 14 -5.5 19.5t-13.5 10.5h-57l13 50q8 2 16 5t22 3q32 0 55 -21.5t23 -61.5q0 -45 -31 -68.5t-79 -23.5z" />
<glyph unicode="&#xe8;" horiz-adv-x="574" d="M466 299q-2 43 -17 74.5t-38.5 52.5t-54 31t-63.5 10q-38 0 -69 -13t-53.5 -35.5t-36 -53t-16.5 -66.5h348zM49 257q0 57 17 106t48.5 86t77.5 58t103 21q55 0 99 -19.5t75 -53t48 -78.5t17 -95q0 -13 -1 -22.5t-2 -16.5h-415q0 -46 14.5 -82t39.5 -60.5t59.5 -37 t75.5 -12.5q48 0 91 20t69 58l53 -35q-14 -19 -33.5 -38t-46 -34t-60 -24.5t-75.5 -9.5q-60 0 -107 20.5t-79.5 56.5t-50 85.5t-17.5 106.5zM268 594l-73 112l50 26l86 -138h-63z" />
<glyph unicode="&#xe9;" horiz-adv-x="574" d="M466 299q-2 43 -17 74.5t-38.5 52.5t-54 31t-63.5 10q-38 0 -69 -13t-53.5 -35.5t-36 -53t-16.5 -66.5h348zM49 257q0 57 17 106t48.5 86t77.5 58t103 21q55 0 99 -19.5t75 -53t48 -78.5t17 -95q0 -13 -1 -22.5t-2 -16.5h-415q0 -46 14.5 -82t39.5 -60.5t59.5 -37 t75.5 -12.5q48 0 91 20t69 58l53 -35q-14 -19 -33.5 -38t-46 -34t-60 -24.5t-75.5 -9.5q-60 0 -107 20.5t-79.5 56.5t-50 85.5t-17.5 106.5zM253 594l86 138l50 -26l-73 -112h-63z" />
<glyph unicode="&#xea;" horiz-adv-x="574" d="M466 299q-2 43 -17 74.5t-38.5 52.5t-54 31t-63.5 10q-38 0 -69 -13t-53.5 -35.5t-36 -53t-16.5 -66.5h348zM49 257q0 57 17 106t48.5 86t77.5 58t103 21q55 0 99 -19.5t75 -53t48 -78.5t17 -95q0 -13 -1 -22.5t-2 -16.5h-415q0 -46 14.5 -82t39.5 -60.5t59.5 -37 t75.5 -12.5q48 0 91 20t69 58l53 -35q-14 -19 -33.5 -38t-46 -34t-60 -24.5t-75.5 -9.5q-60 0 -107 20.5t-79.5 56.5t-50 85.5t-17.5 106.5zM315 720q57 -48 121 -90l-27 -44l-120 76l-119 -76l-29 44q34 22 64.5 44.5t56.5 45.5h53z" />
<glyph unicode="&#xeb;" horiz-adv-x="574" d="M466 299q-2 43 -17 74.5t-38.5 52.5t-54 31t-63.5 10q-38 0 -69 -13t-53.5 -35.5t-36 -53t-16.5 -66.5h348zM49 257q0 57 17 106t48.5 86t77.5 58t103 21q55 0 99 -19.5t75 -53t48 -78.5t17 -95q0 -13 -1 -22.5t-2 -16.5h-415q0 -46 14.5 -82t39.5 -60.5t59.5 -37 t75.5 -12.5q48 0 91 20t69 58l53 -35q-14 -19 -33.5 -38t-46 -34t-60 -24.5t-75.5 -9.5q-60 0 -107 20.5t-79.5 56.5t-50 85.5t-17.5 106.5zM158 638q0 17 12 29t28 12q17 0 28.5 -12t11.5 -29q0 -15 -11.5 -27t-28.5 -12q-16 0 -28 11.5t-12 27.5zM344 638q0 17 12 29 t27 12q17 0 29 -12t12 -29q0 -15 -12 -27t-29 -12q-15 0 -27 11.5t-12 27.5z" />
<glyph unicode="&#xec;" horiz-adv-x="247" d="M86 0v516h63v-516h-63zM92 594l-73 112l50 26l86 -138h-63z" />
<glyph unicode="&#xed;" horiz-adv-x="247" d="M84 594l86 138l50 -26l-73 -112h-63zM86 0v516h63v-516h-63z" />
<glyph unicode="&#xee;" horiz-adv-x="247" d="M86 0v516h63v-516h-63zM145 720q57 -48 121 -90l-27 -44l-120 76l-119 -76l-29 44q34 22 64.5 44.5t56.5 45.5h53z" />
<glyph unicode="&#xef;" horiz-adv-x="247" d="M-11 630q0 20 14 34t33 14q20 0 34 -14t14 -34t-14 -33.5t-34 -13.5t-33.5 13.5t-13.5 33.5zM159 630q0 20 14 34t33 14q20 0 34 -14t14 -34t-14 -33.5t-34 -13.5q-19 0 -33 13.5t-14 33.5zM86 0v516h63v-516h-63z" />
<glyph unicode="&#xf0;" horiz-adv-x="608" d="M284 491q48 0 93 -16.5t78 -53.5q-20 45 -51.5 86.5t-71.5 79.5l-128 -65l-16 36l110 56q-21 17 -43.5 31.5t-46.5 26.5l34 53q29 -18 59 -37.5t57 -44.5l119 59l17 -35l-104 -52q34 -33 62.5 -71.5t49.5 -82t33 -92.5t12 -104q0 -53 -13 -106t-52 -95q-35 -38 -83 -57 t-101 -19q-57 0 -103 20t-78 54t-49 79.5t-17 96.5q0 56 17 102.5t48 80t74 52t94 18.5zM483 240q0 39 -12 74t-36 61t-59 41t-80 15t-78.5 -15.5t-56 -42t-33.5 -61t-11 -72.5q0 -39 11 -73.5t33.5 -60.5t56.5 -41.5t79 -15.5q46 0 81 15t58 41t35 61t12 74z" />
<glyph unicode="&#xf1;" horiz-adv-x="591" d="M86 0v516h63v-95q32 52 77.5 79.5t106.5 27.5q82 0 132.5 -50.5t50.5 -148.5v-329h-62v315q0 25 -5 52t-19 49t-39 36t-65 14q-38 0 -70.5 -13.5t-56 -37.5t-37 -58t-13.5 -74v-283h-63zM467 675q-14 -34 -38.5 -54.5t-54.5 -20.5q-19 0 -36.5 7t-33 15t-29.5 15t-26 7 q-21 0 -30.5 -15t-16.5 -29l-41 18q14 35 37.5 54.5t52.5 19.5q18 0 34.5 -6.5t32 -15t30 -15t27.5 -6.5q17 0 30.5 12.5t19.5 30.5z" />
<glyph unicode="&#xf2;" horiz-adv-x="591" d="M275 594l-73 112l50 26l86 -138h-63zM540 257q0 -57 -17 -106t-49 -85.5t-77 -57t-102 -20.5t-102.5 20.5t-77 57t-48.5 85.5t-17 106q0 58 17 107.5t48.5 86t77 57t102.5 20.5t102 -20.5t77 -57t49 -86t17 -107.5zM473 257q0 44 -12 82.5t-34.5 67t-56 44.5t-75.5 16 q-43 0 -76 -16t-56 -44.5t-35 -67t-12 -82.5q0 -43 12 -81.5t35 -67t56 -45t76 -16.5q42 0 75.5 16.5t56 45t34.5 67t12 81.5z" />
<glyph unicode="&#xf3;" horiz-adv-x="591" d="M259 594l86 138l50 -26l-73 -112h-63zM540 257q0 -57 -17 -106t-49 -85.5t-77 -57t-102 -20.5t-102.5 20.5t-77 57t-48.5 85.5t-17 106q0 58 17 107.5t48.5 86t77 57t102.5 20.5t102 -20.5t77 -57t49 -86t17 -107.5zM473 257q0 44 -12 82.5t-34.5 67t-56 44.5t-75.5 16 q-43 0 -76 -16t-56 -44.5t-35 -67t-12 -82.5q0 -43 12 -81.5t35 -67t56 -45t76 -16.5q42 0 75.5 16.5t56 45t34.5 67t12 81.5z" />
<glyph unicode="&#xf4;" horiz-adv-x="591" d="M322 720q57 -48 121 -90l-27 -44l-120 76l-119 -76l-29 44q34 22 64.5 44.5t56.5 45.5h53zM540 257q0 -57 -17 -106t-49 -85.5t-77 -57t-102 -20.5t-102.5 20.5t-77 57t-48.5 85.5t-17 106q0 58 17 107.5t48.5 86t77 57t102.5 20.5t102 -20.5t77 -57t49 -86t17 -107.5z M473 257q0 44 -12 82.5t-34.5 67t-56 44.5t-75.5 16q-43 0 -76 -16t-56 -44.5t-35 -67t-12 -82.5q0 -43 12 -81.5t35 -67t56 -45t76 -16.5q42 0 75.5 16.5t56 45t34.5 67t12 81.5z" />
<glyph unicode="&#xf5;" horiz-adv-x="591" d="M448 675q-14 -34 -38.5 -54.5t-54.5 -20.5q-19 0 -36.5 7t-33 15t-29.5 15t-26 7q-21 0 -30.5 -15t-16.5 -29l-41 18q14 35 37.5 54.5t52.5 19.5q18 0 34.5 -6.5t32 -15t30 -15t27.5 -6.5q17 0 30.5 12.5t19.5 30.5zM540 257q0 -57 -17 -106t-49 -85.5t-77 -57 t-102 -20.5t-102.5 20.5t-77 57t-48.5 85.5t-17 106q0 58 17 107.5t48.5 86t77 57t102.5 20.5t102 -20.5t77 -57t49 -86t17 -107.5zM473 257q0 44 -12 82.5t-34.5 67t-56 44.5t-75.5 16q-43 0 -76 -16t-56 -44.5t-35 -67t-12 -82.5q0 -43 12 -81.5t35 -67t56 -45t76 -16.5 q42 0 75.5 16.5t56 45t34.5 67t12 81.5z" />
<glyph unicode="&#xf6;" horiz-adv-x="591" d="M162 638q0 17 12 29t28 12q17 0 28.5 -12t11.5 -29q0 -15 -11.5 -27t-28.5 -12q-16 0 -28 11.5t-12 27.5zM348 638q0 17 12 29t27 12q17 0 29 -12t12 -29q0 -15 -12 -27t-29 -12q-15 0 -27 11.5t-12 27.5zM540 257q0 -57 -17 -106t-49 -85.5t-77 -57t-102 -20.5 t-102.5 20.5t-77 57t-48.5 85.5t-17 106q0 58 17 107.5t48.5 86t77 57t102.5 20.5t102 -20.5t77 -57t49 -86t17 -107.5zM473 257q0 44 -12 82.5t-34.5 67t-56 44.5t-75.5 16q-43 0 -76 -16t-56 -44.5t-35 -67t-12 -82.5q0 -43 12 -81.5t35 -67t56 -45t76 -16.5 q42 0 75.5 16.5t56 45t34.5 67t12 81.5z" />
<glyph unicode="&#xf7;" d="M349 486q0 -23 -15.5 -39t-37.5 -16q-23 0 -38 16t-15 39q0 20 15 36t38 16q22 0 37.5 -16t15.5 -36zM66 275v58h460v-58h-460zM349 122q0 -20 -15.5 -36.5t-37.5 -16.5q-23 0 -38 16.5t-15 36.5q0 21 15 38t38 17q22 0 37.5 -17t15.5 -38z" />
<glyph unicode="&#xf8;" horiz-adv-x="591" d="M470 456q34 -37 52 -88t18 -111q0 -57 -17 -106t-49 -85.5t-77 -57t-102 -20.5q-88 0 -146 44l-24 -32h-50l46 60q-35 37 -53 87t-18 110q0 58 17 107.5t48.5 86t77 57t102.5 20.5q86 0 146 -46l26 34h48zM116 257q0 -42 11 -79.5t31 -66.5l244 321q-21 17 -48 26t-59 9 q-43 0 -76 -16t-56 -44.5t-35 -67t-12 -82.5zM473 257q0 88 -42 147l-244 -322q43 -35 108 -35q42 0 75.5 16.5t56 45t34.5 67t12 81.5z" />
<glyph unicode="&#xf9;" horiz-adv-x="600" d="M514 516v-516h-63v94q-34 -51 -78.5 -78.5t-106.5 -27.5q-81 0 -131.5 50.5t-50.5 147.5v330h62v-332q0 -25 6 -49.5t20 -43.5t38.5 -30.5t62.5 -11.5q36 0 68 12.5t56.5 35t39 53t14.5 66.5v300h63zM258 594l-73 112l50 26l86 -138h-63z" />
<glyph unicode="&#xfa;" horiz-adv-x="600" d="M514 516v-516h-63v94q-34 -51 -78.5 -78.5t-106.5 -27.5q-81 0 -131.5 50.5t-50.5 147.5v330h62v-332q0 -25 6 -49.5t20 -43.5t38.5 -30.5t62.5 -11.5q36 0 68 12.5t56.5 35t39 53t14.5 66.5v300h63zM268 594l86 138l50 -26l-73 -112h-63z" />
<glyph unicode="&#xfb;" horiz-adv-x="600" d="M514 516v-516h-63v94q-34 -51 -78.5 -78.5t-106.5 -27.5q-81 0 -131.5 50.5t-50.5 147.5v330h62v-332q0 -25 6 -49.5t20 -43.5t38.5 -30.5t62.5 -11.5q36 0 68 12.5t56.5 35t39 53t14.5 66.5v300h63zM317 720q57 -48 121 -90l-27 -44l-120 76l-119 -76l-29 44 q34 22 64.5 44.5t56.5 45.5h53z" />
<glyph unicode="&#xfc;" horiz-adv-x="600" d="M514 516v-516h-63v94q-34 -51 -78.5 -78.5t-106.5 -27.5q-81 0 -131.5 50.5t-50.5 147.5v330h62v-332q0 -25 6 -49.5t20 -43.5t38.5 -30.5t62.5 -11.5q36 0 68 12.5t56.5 35t39 53t14.5 66.5v300h63zM158 638q0 17 12 29t28 12q17 0 28.5 -12t11.5 -29q0 -15 -11.5 -27 t-28.5 -12q-16 0 -28 11.5t-12 27.5zM344 638q0 17 12 29t27 12q17 0 29 -12t12 -29q0 -15 -12 -27t-29 -12q-15 0 -27 11.5t-12 27.5z" />
<glyph unicode="&#xfd;" horiz-adv-x="520" d="M293 -27q-14 -37 -29.5 -66t-35 -49.5t-45.5 -31t-61 -10.5q-24 0 -46 5.5t-38 16.5l25 54q11 -9 26.5 -13.5t32.5 -4.5q41 0 63 26.5t39 63.5l15 33l-221 519h72l182 -431l161 431h68zM228 594l86 138l50 -26l-73 -112h-63z" />
<glyph unicode="&#xfe;" horiz-adv-x="625" d="M146 714v-293q38 59 88 83t104 24q55 0 99.5 -21t75.5 -57t47.5 -85.5t16.5 -106.5t-16.5 -106.5t-47.5 -85.5t-75.5 -57t-99.5 -21q-54 0 -104 23.5t-88 82.5v-268h-62v888h62zM146 257q0 -44 12 -81.5t35.5 -66t58 -44.5t79.5 -16t78.5 16t55.5 44.5t33 66t11 81.5 q0 43 -11 81t-33 66.5t-55.5 45t-78.5 16.5q-46 0 -80.5 -16.5t-58 -45t-35 -66.5t-11.5 -81z" />
<glyph unicode="&#xff;" horiz-adv-x="520" d="M293 -27q-14 -37 -29.5 -66t-35 -49.5t-45.5 -31t-61 -10.5q-24 0 -46 5.5t-38 16.5l25 54q11 -9 26.5 -13.5t32.5 -4.5q41 0 63 26.5t39 63.5l15 33l-221 519h72l182 -431l161 431h68zM130 638q0 17 12 29t28 12q17 0 28.5 -12t11.5 -29q0 -15 -11.5 -27t-28.5 -12 q-16 0 -28 11.5t-12 27.5zM316 638q0 17 12 29t27 12q17 0 29 -12t12 -29q0 -15 -12 -27t-29 -12q-15 0 -27 11.5t-12 27.5z" />
<glyph unicode="&#x100;" horiz-adv-x="674" d="M575 0l-81 219h-320l-83 -219h-76l283 714h76l283 -714h-82zM336 639l-137 -354h269zM192 779v49h288v-49h-288z" />
<glyph unicode="&#x101;" horiz-adv-x="560" d="M403 291q-14 -13 -34.5 -21t-44 -13t-45 -7.5t-43.5 -5.5q-30 -4 -49 -9t-36 -17t-27 -29.5t-10 -44.5q0 -26 9.5 -45t26 -31t38 -17.5t46.5 -5.5q31 0 61.5 9t54.5 27.5t38.5 48t14.5 71.5v90zM229 -12q-83 0 -132 41t-49 115q0 44 17 72.5t42.5 45t55 24.5t59.5 12 q31 4 63.5 7.5t58.5 11.5t42.5 23t16.5 44q0 42 -36 63t-93 21q-96 0 -164 -56l-36 49q39 31 88 49t112 18q42 0 77 -9t60.5 -29t39.5 -51t14 -75v-255q0 -32 9.5 -48t32.5 -16q9 0 16.5 2.5t12.5 6.5l12 -51q-6 -5 -21 -8.5t-31 -3.5q-36 0 -62 21.5t-29 61.5 q-26 -39 -68.5 -62.5t-107.5 -23.5zM118 611v49h288v-49h-288z" />
<glyph unicode="&#x102;" horiz-adv-x="674" d="M575 0l-81 219h-320l-83 -219h-76l283 714h76l283 -714h-82zM336 639l-137 -354h269zM337 764q-64 0 -104 31t-48 78l53 12q6 -29 32 -48t67 -19q40 0 66 19t33 48l51 -12q-7 -47 -47 -78t-103 -31z" />
<glyph unicode="&#x103;" horiz-adv-x="560" d="M403 291q-14 -13 -34.5 -21t-44 -13t-45 -7.5t-43.5 -5.5q-30 -4 -49 -9t-36 -17t-27 -29.5t-10 -44.5q0 -26 9.5 -45t26 -31t38 -17.5t46.5 -5.5q31 0 61.5 9t54.5 27.5t38.5 48t14.5 71.5v90zM229 -12q-83 0 -132 41t-49 115q0 44 17 72.5t42.5 45t55 24.5t59.5 12 q31 4 63.5 7.5t58.5 11.5t42.5 23t16.5 44q0 42 -36 63t-93 21q-96 0 -164 -56l-36 49q39 31 88 49t112 18q42 0 77 -9t60.5 -29t39.5 -51t14 -75v-255q0 -32 9.5 -48t32.5 -16q9 0 16.5 2.5t12.5 6.5l12 -51q-6 -5 -21 -8.5t-31 -3.5q-36 0 -62 21.5t-29 61.5 q-26 -39 -68.5 -62.5t-107.5 -23.5zM262 596q-64 0 -104 31t-48 78l53 12q6 -29 32 -48t67 -19q40 0 66 19t33 48l51 -12q-7 -47 -47 -78t-103 -31z" />
<glyph unicode="&#x104;" horiz-adv-x="670" d="M612 0q-23 -20 -39.5 -41t-16.5 -44q0 -19 11.5 -29t31.5 -10q17 0 32.5 7.5t24.5 17.5v-56q-10 -12 -28.5 -20.5t-41.5 -8.5q-35 0 -60 21.5t-25 61.5q0 26 14.5 55t54.5 59l-76 206h-320l-83 -219h-76l283 714h76l283 -714h-45zM336 639l-137 -354h269z" />
<glyph unicode="&#x105;" horiz-adv-x="561" d="M232 -13q-85 0 -134.5 42t-49.5 115q0 44 17.5 72t43.5 45t56.5 25t56.5 12q24 3 49 5.5t47.5 7t41 12t30.5 20.5q6 6 10 14.5t5 20.5q2 46 -35 68t-96 22q-48 0 -89 -14.5t-76 -41.5l-34 49q44 31 90.5 49t109.5 18q43 0 79 -10t61.5 -31t39 -54t11.5 -79 q0 -11 -0.5 -21t-0.5 -20v-204q0 -32 9.5 -48t32.5 -16q9 0 17.5 2.5t13.5 6.5l10 -55q-8 -4 -24 -6t-27 -2q-7 0 -10 1q-20 -18 -33.5 -37t-13.5 -40q0 -19 11.5 -29t31.5 -10q17 0 32.5 7.5t24.5 17.5v-56q-10 -12 -28.5 -20.5t-41.5 -8.5q-35 0 -60.5 21.5t-25.5 61.5 q0 23 12.5 50.5t47.5 56.5q-16 11 -26.5 28t-12.5 40q-26 -39 -66.5 -63t-106.5 -24zM403 288q-21 -20 -50.5 -29t-61.5 -14t-63.5 -8.5t-57 -12.5t-41 -28t-15.5 -53q0 -26 9.5 -44.5t26 -30.5t38 -17.5t46.5 -5.5q31 0 61.5 9t54.5 27.5t38.5 48t14.5 71.5v87z" />
<glyph unicode="&#x106;" horiz-adv-x="692" d="M592 552q-32 50 -84 79t-122 29q-59 0 -107 -22t-81.5 -61.5t-51.5 -95.5t-18 -124q0 -69 18.5 -125t52.5 -95.5t82.5 -61t107.5 -21.5q67 0 116.5 27.5t88.5 87.5l56 -47q-49 -68 -111.5 -101.5t-147.5 -33.5q-78 0 -140.5 27.5t-106.5 77t-67.5 117t-23.5 147.5 q0 79 23.5 147t67 118t104.5 78t137 28q84 0 152 -35t113 -100zM343 762l86 138l50 -26l-73 -112h-63z" />
<glyph unicode="&#x107;" horiz-adv-x="526" d="M291 528q66 0 115.5 -28t79.5 -70l-46 -40q-26 39 -61 58.5t-85 19.5q-41 0 -74.5 -15.5t-56.5 -43.5t-35.5 -66.5t-12.5 -84.5q0 -45 12.5 -83.5t35.5 -66.5t56 -44t75 -16q54 0 91 24t57 56l50 -35q-35 -48 -84.5 -76.5t-115.5 -28.5q-56 0 -100.5 20.5t-76.5 57 t-49 86t-17 106.5q0 58 17.5 107.5t49 85.5t76.5 56.5t99 20.5zM226 594l93 142l43 -30l-73 -112h-63z" />
<glyph unicode="&#x108;" horiz-adv-x="692" d="M592 552q-32 50 -84 79t-122 29q-59 0 -107 -22t-81.5 -61.5t-51.5 -95.5t-18 -124q0 -69 18.5 -125t52.5 -95.5t82.5 -61t107.5 -21.5q67 0 116.5 27.5t88.5 87.5l56 -47q-49 -68 -111.5 -101.5t-147.5 -33.5q-78 0 -140.5 27.5t-106.5 77t-67.5 117t-23.5 147.5 q0 79 23.5 147t67 118t104.5 78t137 28q84 0 152 -35t113 -100zM403 897q57 -48 121 -90l-27 -44l-120 76l-119 -76l-29 44q34 22 64.5 44.5t56.5 45.5h53z" />
<glyph unicode="&#x109;" horiz-adv-x="526" d="M291 528q66 0 115.5 -28t79.5 -70l-46 -40q-26 39 -61 58.5t-85 19.5q-41 0 -74.5 -15.5t-56.5 -43.5t-35.5 -66.5t-12.5 -84.5q0 -45 12.5 -83.5t35.5 -66.5t56 -44t75 -16q54 0 91 24t57 56l50 -35q-35 -48 -84.5 -76.5t-115.5 -28.5q-56 0 -100.5 20.5t-76.5 57 t-49 86t-17 106.5q0 58 17.5 107.5t49 85.5t76.5 56.5t99 20.5zM303 720q57 -48 121 -90l-27 -44l-120 76l-119 -76l-29 44q34 22 64.5 44.5t56.5 45.5h53z" />
<glyph unicode="&#x10a;" horiz-adv-x="692" d="M592 552q-32 50 -84 79t-122 29q-59 0 -107 -22t-81.5 -61.5t-51.5 -95.5t-18 -124q0 -69 18.5 -125t52.5 -95.5t82.5 -61t107.5 -21.5q67 0 116.5 27.5t88.5 87.5l56 -47q-49 -68 -111.5 -101.5t-147.5 -33.5q-78 0 -140.5 27.5t-106.5 77t-67.5 117t-23.5 147.5 q0 79 23.5 147t67 118t104.5 78t137 28q84 0 152 -35t113 -100zM343 805q0 16 11.5 27.5t26.5 11.5q17 0 28.5 -11t11.5 -28q0 -15 -11.5 -26.5t-28.5 -11.5q-15 0 -26.5 11t-11.5 27z" />
<glyph unicode="&#x10b;" horiz-adv-x="526" d="M291 528q66 0 115.5 -28t79.5 -70l-46 -40q-26 39 -61 58.5t-85 19.5q-41 0 -74.5 -15.5t-56.5 -43.5t-35.5 -66.5t-12.5 -84.5q0 -45 12.5 -83.5t35.5 -66.5t56 -44t75 -16q54 0 91 24t57 56l50 -35q-35 -48 -84.5 -76.5t-115.5 -28.5q-56 0 -100.5 20.5t-76.5 57 t-49 86t-17 106.5q0 58 17.5 107.5t49 85.5t76.5 56.5t99 20.5zM235 637q0 16 11.5 27.5t26.5 11.5q17 0 28.5 -11t11.5 -28q0 -15 -11.5 -26.5t-28.5 -11.5q-15 0 -26.5 11t-11.5 27z" />
<glyph unicode="&#x10c;" horiz-adv-x="692" d="M592 552q-32 50 -84 79t-122 29q-59 0 -107 -22t-81.5 -61.5t-51.5 -95.5t-18 -124q0 -69 18.5 -125t52.5 -95.5t82.5 -61t107.5 -21.5q67 0 116.5 27.5t88.5 87.5l56 -47q-49 -68 -111.5 -101.5t-147.5 -33.5q-78 0 -140.5 27.5t-106.5 77t-67.5 117t-23.5 147.5 q0 79 23.5 147t67 118t104.5 78t137 28q84 0 152 -35t113 -100zM355 754q-27 24 -57 46t-64 44l28 44l120 -75l118 75l29 -44q-33 -22 -64 -44t-57 -46h-53z" />
<glyph unicode="&#x10d;" horiz-adv-x="526" d="M291 528q66 0 115.5 -28t79.5 -70l-46 -40q-26 39 -61 58.5t-85 19.5q-41 0 -74.5 -15.5t-56.5 -43.5t-35.5 -66.5t-12.5 -84.5q0 -45 12.5 -83.5t35.5 -66.5t56 -44t75 -16q54 0 91 24t57 56l50 -35q-35 -48 -84.5 -76.5t-115.5 -28.5q-56 0 -100.5 20.5t-76.5 57 t-49 86t-17 106.5q0 58 17.5 107.5t49 85.5t76.5 56.5t99 20.5zM247 586q-27 24 -57 46t-64 44l28 44l120 -75l118 75l29 -44q-33 -22 -64 -44t-57 -46h-53z" />
<glyph unicode="&#x10e;" horiz-adv-x="741" d="M358 67q62 0 109.5 20.5t80 58.5t49 91.5t16.5 119.5t-16.5 119.5t-49 91.5t-80 58.5t-109.5 20.5h-193v-580h193zM97 0v714h261q80 0 141.5 -27t103 -74.5t63 -113t21.5 -142.5t-21.5 -142.5t-63 -113t-103 -74.5t-141.5 -27h-261zM322 754q-27 24 -57 46t-64 44l28 44 l120 -75l118 75l29 -44q-33 -22 -64 -44t-57 -46h-53z" />
<glyph unicode="&#x10f;" horiz-adv-x="634" d="M481 0v94q-38 -59 -88.5 -82.5t-104.5 -23.5q-55 0 -99 20.5t-75 57t-47.5 85.5t-16.5 106t16.5 106.5t47.5 86t75 57.5t99 21q56 0 105.5 -24t87.5 -83v293h63v-714h-63zM481 258q0 44 -12 82t-35.5 66.5t-58 44.5t-79.5 16t-78.5 -16t-56 -44.5t-34 -66.5t-11.5 -82 q0 -43 11 -81t33.5 -66.5t56.5 -45t79 -16.5t79.5 16.5t58 45t35.5 66.5t12 81zM701 644q0 -42 -15 -75.5t-40 -62.5l-34 24q18 20 28.5 45t10.5 46q0 13 -3 22.5t-6 18.5t-6 17.5t-3 19.5v15h68v-70z" />
<glyph unicode="&#x110;" horiz-adv-x="761" d="M117 0v339h-80v49h80v326h261q80 0 141.5 -27t103 -74.5t63 -113t21.5 -142.5t-21.5 -142.5t-63 -113t-103 -74.5t-141.5 -27h-261zM378 67q62 0 109.5 20.5t80 58.5t49 91.5t16.5 119.5t-16.5 119.5t-49 91.5t-80 58.5t-109.5 20.5h-193v-259h215v-49h-215v-272h193z " />
<glyph unicode="&#x111;" horiz-adv-x="626" d="M480 0v94q-38 -59 -88.5 -82.5t-103.5 -23.5q-56 0 -100 20.5t-74.5 57t-47 85.5t-16.5 106t16.5 106.5t47 86t74.5 57.5t100 21q54 0 104 -24t88 -83v201h-146v44h146v48h62v-48h81v-44h-81v-622h-62zM480 258q0 44 -12 82t-35.5 66t-58.5 44t-81 16q-44 0 -77.5 -16 t-55.5 -44.5t-33 -66.5t-11 -81t11 -81t33 -66.5t55.5 -45t77.5 -16.5q46 0 81 16.5t58.5 45t35.5 66.5t12 81z" />
<glyph unicode="&#x112;" horiz-adv-x="628" d="M97 0v714h470v-67h-402v-236h358v-65h-358v-279h412v-67h-480zM178 779v49h288v-49h-288z" />
<glyph unicode="&#x113;" horiz-adv-x="574" d="M466 299q-2 43 -17 74.5t-38.5 52.5t-54 31t-63.5 10q-38 0 -69 -13t-53.5 -35.5t-36 -53t-16.5 -66.5h348zM49 257q0 57 17 106t48.5 86t77.5 58t103 21q55 0 99 -19.5t75 -53t48 -78.5t17 -95q0 -13 -1 -22.5t-2 -16.5h-415q0 -46 14.5 -82t39.5 -60.5t59.5 -37 t75.5 -12.5q48 0 91 20t69 58l53 -35q-14 -19 -33.5 -38t-46 -34t-60 -24.5t-75.5 -9.5q-60 0 -107 20.5t-79.5 56.5t-50 85.5t-17.5 106.5zM148 611v49h288v-49h-288z" />
<glyph unicode="&#x114;" horiz-adv-x="628" d="M97 0v714h470v-67h-402v-236h358v-65h-358v-279h412v-67h-480zM323 764q-64 0 -104 31t-48 78l53 12q6 -29 32 -48t67 -19q40 0 66 19t33 48l51 -12q-7 -47 -47 -78t-103 -31z" />
<glyph unicode="&#x115;" horiz-adv-x="574" d="M466 299q-2 43 -17 74.5t-38.5 52.5t-54 31t-63.5 10q-38 0 -69 -13t-53.5 -35.5t-36 -53t-16.5 -66.5h348zM49 257q0 57 17 106t48.5 86t77.5 58t103 21q55 0 99 -19.5t75 -53t48 -78.5t17 -95q0 -13 -1 -22.5t-2 -16.5h-415q0 -46 14.5 -82t39.5 -60.5t59.5 -37 t75.5 -12.5q48 0 91 20t69 58l53 -35q-14 -19 -33.5 -38t-46 -34t-60 -24.5t-75.5 -9.5q-60 0 -107 20.5t-79.5 56.5t-50 85.5t-17.5 106.5zM291 596q-64 0 -104 31t-48 78l53 12q6 -29 32 -48t67 -19q40 0 66 19t33 48l51 -12q-7 -47 -47 -78t-103 -31z" />
<glyph unicode="&#x116;" horiz-adv-x="628" d="M97 0v714h470v-67h-402v-236h358v-65h-358v-279h412v-67h-480zM290 805q0 16 11.5 27.5t26.5 11.5q17 0 28.5 -11t11.5 -28q0 -15 -11.5 -26.5t-28.5 -11.5q-15 0 -26.5 11t-11.5 27z" />
<glyph unicode="&#x117;" horiz-adv-x="574" d="M466 299q-2 43 -17 74.5t-38.5 52.5t-54 31t-63.5 10q-38 0 -69 -13t-53.5 -35.5t-36 -53t-16.5 -66.5h348zM49 257q0 57 17 106t48.5 86t77.5 58t103 21q55 0 99 -19.5t75 -53t48 -78.5t17 -95q0 -13 -1 -22.5t-2 -16.5h-415q0 -46 14.5 -82t39.5 -60.5t59.5 -37 t75.5 -12.5q48 0 91 20t69 58l53 -35q-14 -19 -33.5 -38t-46 -34t-60 -24.5t-75.5 -9.5q-60 0 -107 20.5t-79.5 56.5t-50 85.5t-17.5 106.5zM251 637q0 16 11.5 27.5t26.5 11.5q17 0 28.5 -11t11.5 -28q0 -15 -11.5 -26.5t-28.5 -11.5q-15 0 -26.5 11t-11.5 27z" />
<glyph unicode="&#x118;" horiz-adv-x="628" d="M533 0q-22 -20 -38.5 -41t-16.5 -44q0 -19 11 -29t31 -10q18 0 33.5 7.5t23.5 17.5v-56q-10 -12 -28 -20.5t-41 -8.5q-35 0 -60.5 21.5t-25.5 61.5q0 23 11 48.5t43 52.5h-379v714h470v-67h-402v-236h358v-65h-358v-279h412v-67h-44z" />
<glyph unicode="&#x119;" horiz-adv-x="577" d="M50 257q0 57 17 106t48.5 86t77.5 58t103 21q55 0 99.5 -19.5t75.5 -53t47.5 -78t16.5 -93.5q0 -15 -1 -24.5t-2 -16.5h-415q0 -46 14.5 -82t39 -60.5t58.5 -37t74 -12.5q51 0 94 20t69 58l53 -35q-21 -27 -48.5 -48.5t-52 -41.5t-42 -41t-17.5 -47q0 -20 11 -30t31 -10 q18 0 33.5 7.5t23.5 17.5v-56q-10 -12 -28 -20.5t-41 -8.5q-35 0 -60.5 21.5t-25.5 61.5q0 21 9.5 44t33.5 48q-10 -1 -21.5 -2t-24.5 -1q-58 0 -104 20.5t-78.5 56.5t-50 85.5t-17.5 106.5zM467 299q-2 43 -17 74.5t-38.5 52.5t-53.5 31t-63 10q-39 0 -70 -13t-53.5 -35.5 t-36 -53t-16.5 -66.5h348z" />
<glyph unicode="&#x11a;" horiz-adv-x="628" d="M97 0v714h470v-67h-402v-236h358v-65h-358v-279h412v-67h-480zM296 754q-27 24 -57 46t-64 44l28 44l120 -75l118 75l29 -44q-33 -22 -64 -44t-57 -46h-53z" />
<glyph unicode="&#x11b;" horiz-adv-x="574" d="M466 299q-2 43 -17 74.5t-38.5 52.5t-54 31t-63.5 10q-38 0 -69 -13t-53.5 -35.5t-36 -53t-16.5 -66.5h348zM49 257q0 57 17 106t48.5 86t77.5 58t103 21q55 0 99 -19.5t75 -53t48 -78.5t17 -95q0 -13 -1 -22.5t-2 -16.5h-415q0 -46 14.5 -82t39.5 -60.5t59.5 -37 t75.5 -12.5q48 0 91 20t69 58l53 -35q-14 -19 -33.5 -38t-46 -34t-60 -24.5t-75.5 -9.5q-60 0 -107 20.5t-79.5 56.5t-50 85.5t-17.5 106.5zM264 586q-27 24 -57 46t-64 44l28 44l120 -75l118 75l29 -44q-33 -22 -64 -44t-57 -46h-53z" />
<glyph unicode="&#x11c;" horiz-adv-x="753" d="M389 660q-61 0 -109.5 -22t-82 -61.5t-51.5 -95.5t-18 -124t18 -123.5t51 -95t80.5 -61.5t106.5 -22q51 0 95.5 16.5t78 48.5t53 78t21.5 106h-220v66h286q2 -8 3 -20t1 -29q0 -65 -20.5 -125t-60 -106.5t-98.5 -74.5t-136 -28t-139 28.5t-105.5 78.5t-66.5 118t-23 146 q0 80 24 148t68 117t106 76.5t139 27.5q88 0 154.5 -35.5t109.5 -98.5l-62 -39q-30 49 -81 77.5t-122 28.5zM413 888q57 -48 121 -90l-27 -44l-120 76l-119 -76l-29 44q34 22 64.5 44.5t56.5 45.5h53z" />
<glyph unicode="&#x11d;" horiz-adv-x="629" d="M543 76q0 -54 -11.5 -100t-39.5 -81q-36 -43 -91.5 -61t-115.5 -18q-117 0 -205 63l41 54q34 -26 75.5 -41t92.5 -15q41 0 76 10.5t61 33.5t40.5 58.5t14.5 85.5v62q-28 -48 -77.5 -79t-118.5 -31q-53 0 -96.5 20t-74.5 54.5t-48 80.5t-17 98q0 53 17.5 100t49.5 82 t76.5 55.5t97.5 20.5q54 0 106 -24.5t85 -78.5v91h62v-440zM481 273q0 37 -12 72t-35 61.5t-57.5 42.5t-80.5 16t-80 -16t-56 -43t-33 -62t-11 -72t11 -72t33.5 -62t56 -43.5t79.5 -16.5q45 0 79.5 16.5t58 43.5t35.5 62t12 73zM324 720q57 -48 121 -90l-27 -44l-120 76 l-119 -76l-29 44q34 22 64.5 44.5t56.5 45.5h53z" />
<glyph unicode="&#x11e;" horiz-adv-x="753" d="M389 660q-61 0 -109.5 -22t-82 -61.5t-51.5 -95.5t-18 -124t18 -123.5t51 -95t80.5 -61.5t106.5 -22q51 0 95.5 16.5t78 48.5t53 78t21.5 106h-220v66h286q2 -8 3 -20t1 -29q0 -65 -20.5 -125t-60 -106.5t-98.5 -74.5t-136 -28t-139 28.5t-105.5 78.5t-66.5 118t-23 146 q0 80 24 148t68 117t106 76.5t139 27.5q88 0 154.5 -35.5t109.5 -98.5l-62 -39q-30 49 -81 77.5t-122 28.5zM387 764q-64 0 -104 31t-48 78l53 12q6 -29 32 -48t67 -19q40 0 66 19t33 48l51 -12q-7 -47 -47 -78t-103 -31z" />
<glyph unicode="&#x11f;" horiz-adv-x="629" d="M543 76q0 -54 -11.5 -100t-39.5 -81q-36 -43 -91.5 -61t-115.5 -18q-117 0 -205 63l41 54q34 -26 75.5 -41t92.5 -15q41 0 76 10.5t61 33.5t40.5 58.5t14.5 85.5v62q-28 -48 -77.5 -79t-118.5 -31q-53 0 -96.5 20t-74.5 54.5t-48 80.5t-17 98q0 53 17.5 100t49.5 82 t76.5 55.5t97.5 20.5q54 0 106 -24.5t85 -78.5v91h62v-440zM481 273q0 37 -12 72t-35 61.5t-57.5 42.5t-80.5 16t-80 -16t-56 -43t-33 -62t-11 -72t11 -72t33.5 -62t56 -43.5t79.5 -16.5q45 0 79.5 16.5t58 43.5t35.5 62t12 73zM299 596q-64 0 -104 31t-48 78l53 12 q6 -29 32 -48t67 -19q40 0 66 19t33 48l51 -12q-7 -47 -47 -78t-103 -31z" />
<glyph unicode="&#x120;" horiz-adv-x="753" d="M389 660q-61 0 -109.5 -22t-82 -61.5t-51.5 -95.5t-18 -124t18 -123.5t51 -95t80.5 -61.5t106.5 -22q51 0 95.5 16.5t78 48.5t53 78t21.5 106h-220v66h286q2 -8 3 -20t1 -29q0 -65 -20.5 -125t-60 -106.5t-98.5 -74.5t-136 -28t-139 28.5t-105.5 78.5t-66.5 118t-23 146 q0 80 24 148t68 117t106 76.5t139 27.5q88 0 154.5 -35.5t109.5 -98.5l-62 -39q-30 49 -81 77.5t-122 28.5zM347 805q0 16 11.5 27.5t26.5 11.5q17 0 28.5 -11t11.5 -28q0 -15 -11.5 -26.5t-28.5 -11.5q-15 0 -26.5 11t-11.5 27z" />
<glyph unicode="&#x121;" horiz-adv-x="629" d="M543 76q0 -54 -11.5 -100t-39.5 -81q-36 -43 -91.5 -61t-115.5 -18q-117 0 -205 63l41 54q34 -26 75.5 -41t92.5 -15q41 0 76 10.5t61 33.5t40.5 58.5t14.5 85.5v62q-28 -48 -77.5 -79t-118.5 -31q-53 0 -96.5 20t-74.5 54.5t-48 80.5t-17 98q0 53 17.5 100t49.5 82 t76.5 55.5t97.5 20.5q54 0 106 -24.5t85 -78.5v91h62v-440zM481 273q0 37 -12 72t-35 61.5t-57.5 42.5t-80.5 16t-80 -16t-56 -43t-33 -62t-11 -72t11 -72t33.5 -62t56 -43.5t79.5 -16.5q45 0 79.5 16.5t58 43.5t35.5 62t12 73zM258 637q0 16 11.5 27.5t26.5 11.5 q17 0 28.5 -11t11.5 -28q0 -15 -11.5 -26.5t-28.5 -11.5q-15 0 -26.5 11t-11.5 27z" />
<glyph unicode="&#x122;" horiz-adv-x="753" d="M389 660q-61 0 -109.5 -22t-82 -61.5t-51.5 -95.5t-18 -124t18 -123.5t51 -95t80.5 -61.5t106.5 -22q51 0 95.5 16.5t78 48.5t53 78t21.5 106h-220v66h286q2 -8 3 -20t1 -29q0 -65 -20.5 -125t-60 -106.5t-98.5 -74.5t-136 -28t-139 28.5t-105.5 78.5t-66.5 118t-23 146 q0 80 24 148t68 117t106 76.5t139 27.5q88 0 154.5 -35.5t109.5 -98.5l-62 -39q-30 49 -81 77.5t-122 28.5zM287 -173l69 112h67l-95 -139z" />
<glyph unicode="&#x123;" horiz-adv-x="665" d="M543 76q0 -54 -11.5 -100t-39.5 -81q-36 -43 -91.5 -61t-115.5 -18q-117 0 -205 63l41 54q34 -26 75.5 -41t92.5 -15q41 0 76 10.5t61 33.5t40.5 58.5t14.5 85.5v62q-28 -48 -77.5 -79t-118.5 -31q-53 0 -96.5 20t-74.5 54.5t-48 80.5t-17 98q0 53 17.5 100t49.5 82 t76.5 55.5t97.5 20.5q54 0 106 -24.5t85 -78.5v91h62v-440zM481 273q0 37 -12 72t-35 61.5t-57.5 42.5t-80.5 16t-80 -16t-56 -43t-33 -62t-11 -72t11 -72t33.5 -62t56 -43.5t79.5 -16.5q45 0 79.5 16.5t58 43.5t35.5 62t12 73zM426.001 717.989l-68.9961 -111.993h-66.9951 l94.9941 138.992z" />
<glyph unicode="&#x124;" horiz-adv-x="759" d="M581 0v345h-416v-345h-68v714h68v-303h416v303h68v-714h-68zM399 888q57 -48 121 -90l-27 -44l-120 76l-119 -76l-29 44q34 22 64.5 44.5t56.5 45.5h53z" />
<glyph unicode="&#x125;" horiz-adv-x="599" d="M86 0v714h63v-293q32 52 77.5 79.5t106.5 27.5q82 0 132.5 -50.5t50.5 -148.5v-329h-62v315q0 25 -5 52t-19 49t-39 36t-65 14q-38 0 -70.5 -13.5t-56 -37.5t-37 -58t-13.5 -74v-283h-63zM143 860q57 -48 121 -90l-27 -44l-120 76l-119 -76l-29 44q34 22 64.5 44.5 t56.5 45.5h53z" />
<glyph unicode="&#x126;" horiz-adv-x="746" d="M581 0v345h-416v-345h-68v584h-48v51h48v79h68v-79h416v79h68v-79h48v-51h-48v-584h-68zM581 411v173h-416v-173h416z" />
<glyph unicode="&#x127;" horiz-adv-x="599" d="M84 0v620h-81v46h81v48h62v-48h145v-46h-145v-199q33 52 78 79.5t107 27.5q81 0 132 -50.5t51 -148.5v-329h-63v315q0 25 -5 52t-19 49t-39 36t-65 14q-38 0 -70.5 -13.5t-56 -37.5t-37 -58t-13.5 -74v-283h-62z" />
<glyph unicode="&#x128;" horiz-adv-x="262" d="M97 0v714h68v-714h-68zM283 843q-14 -34 -38.5 -54.5t-54.5 -20.5q-19 0 -36.5 7t-33 15t-29.5 15t-26 7q-21 0 -30.5 -15t-16.5 -29l-41 18q14 35 37.5 54.5t52.5 19.5q18 0 34.5 -6.5t32 -15t30 -15t27.5 -6.5q17 0 30.5 12.5t19.5 30.5z" />
<glyph unicode="&#x129;" horiz-adv-x="247" d="M267 675q-14 -34 -38.5 -54.5t-54.5 -20.5q-19 0 -36.5 7t-33 15t-29.5 15t-26 7q-21 0 -30.5 -15t-16.5 -29l-41 18q14 35 37.5 54.5t52.5 19.5q18 0 34.5 -6.5t32 -15t30 -15t27.5 -6.5q17 0 30.5 12.5t19.5 30.5zM86 0v516h63v-516h-63z" />
<glyph unicode="&#x12a;" horiz-adv-x="262" d="M97 0v714h68v-714h-68zM-14 779v49h288v-49h-288z" />
<glyph unicode="&#x12b;" horiz-adv-x="247" d="M-25 611v49h288v-49h-288zM86 0v516h63v-516h-63z" />
<glyph unicode="&#x12c;" horiz-adv-x="262" d="M97 0v714h68v-714h-68zM132 764q-64 0 -104 31t-48 78l53 12q6 -29 32 -48t67 -19q40 0 66 19t33 48l51 -12q-7 -47 -47 -78t-103 -31z" />
<glyph unicode="&#x12d;" horiz-adv-x="247" d="M86 0v516h63v-516h-63zM120 596q-64 0 -104 31t-48 78l53 12q6 -29 32 -48t67 -19q40 0 66 19t33 48l51 -12q-7 -47 -47 -78t-103 -31z" />
<glyph unicode="&#x12e;" horiz-adv-x="262" d="M150 0q-22 -20 -38.5 -41t-16.5 -44q0 -19 11 -29t31 -10q18 0 33.5 7.5t23.5 17.5v-56q-10 -12 -28.5 -20.5t-41.5 -8.5q-34 0 -59.5 21.5t-25.5 61.5q0 23 12 50t46 55v710h68v-714h-15z" />
<glyph unicode="&#x12f;" horiz-adv-x="235" d="M127 0q-18 -20 -31.5 -40.5t-13.5 -43.5q0 -18 10 -28.5t29 -10.5q17 0 32 8t26 19v-58q-11 -13 -31.5 -22t-46.5 -9q-33 0 -57 21t-24 61q0 23 13 51.5t53 59.5v508h63v-516h-22zM76 682q0 17 12 29.5t29 12.5t29.5 -12.5t12.5 -29.5t-12.5 -29t-29.5 -12t-29 12t-12 29 z" />
<glyph unicode="&#x130;" horiz-adv-x="262" d="M97 0v714h68v-714h-68zM92 805q0 16 11.5 27.5t26.5 11.5q17 0 28.5 -11t11.5 -28q0 -15 -11.5 -26.5t-28.5 -11.5q-15 0 -26.5 11t-11.5 27z" />
<glyph unicode="&#x131;" horiz-adv-x="235" d="M86 0v516h63v-516h-63z" />
<glyph unicode="&#x134;" horiz-adv-x="490" d="M332 714h68v-477q0 -66 -14 -113.5t-40 -78t-63.5 -44.5t-83.5 -14q-51 0 -98 20.5t-76 68.5l55 41q25 -39 58.5 -52t63.5 -13q37 0 62 12t40 34t21.5 52.5t6.5 67.5v496zM389 888q57 -48 121 -90l-27 -44l-120 76l-119 -76l-29 44q34 22 64.5 44.5t56.5 45.5h53z" />
<glyph unicode="&#x135;" horiz-adv-x="255" d="M157 720q57 -48 121 -90l-27 -44l-120 76l-119 -76l-29 44q34 22 64.5 44.5t56.5 45.5h53zM158 -14q0 -43 -11.5 -74.5t-31.5 -52.5t-47.5 -31.5t-59.5 -10.5q-44 0 -70 16l15 55q8 -5 22.5 -9t33.5 -4q48 0 67.5 30t19.5 78v533h62v-530z" />
<glyph unicode="&#x136;" horiz-adv-x="651" d="M562 0l-260 363l-137 -153v-210h-68v714h68v-413l366 413h89l-272 -301l300 -413h-86zM256 -173l69 112h67l-95 -139z" />
<glyph unicode="&#x137;" horiz-adv-x="536" d="M417 516h82l-206 -216l235 -300h-83l-197 259l-102 -106v-153h-62v714h62v-485zM208 -173l69 112h67l-95 -139z" />
<glyph unicode="&#x138;" horiz-adv-x="550" d="M429 516h84l-215 -216l244 -300h-84l-205 259l-107 -106v-153h-62v516h62v-287z" />
<glyph unicode="&#x139;" horiz-adv-x="585" d="M97 0v714h68v-647h406v-67h-474zM117 762l86 138l50 -26l-73 -112h-63z" />
<glyph unicode="&#x13a;" horiz-adv-x="237" d="M86 0v714h63v-714h-63zM86 746l86 138l50 -26l-73 -112h-63z" />
<glyph unicode="&#x13b;" horiz-adv-x="585" d="M97 0v714h68v-647h406v-67h-474zM211 -173l69 112h67l-95 -139z" />
<glyph unicode="&#x13c;" horiz-adv-x="237" d="M86 0v714h63v-714h-63zM15 -173l69 112h67l-95 -139z" />
<glyph unicode="&#x13d;" horiz-adv-x="585" d="M97 0v714h68v-647h406v-67h-474zM393 644q0 -42 -15 -75.5t-40 -62.5l-34 24q18 20 28.5 45t10.5 46q0 13 -3 22.5t-6 18.5t-6 17.5t-3 19.5v15h68v-70z" />
<glyph unicode="&#x13e;" horiz-adv-x="251" d="M86 0v714h63v-714h-63zM316 644q0 -42 -15 -75.5t-40 -62.5l-34 24q18 20 28.5 45t10.5 46q0 13 -3 22.5t-6 18.5t-6 17.5t-3 19.5v15h68v-70z" />
<glyph unicode="&#x13f;" horiz-adv-x="585" d="M97 0v714h68v-647h406v-67h-474zM464 333q0 -21 -15 -36t-35 -15q-21 0 -36 15t-15 36q0 20 15 36.5t36 16.5q20 0 35 -16.5t15 -36.5z" />
<glyph unicode="&#x140;" horiz-adv-x="427" d="M86 0v714h63v-714h-63zM383 304q0 -21 -15 -36t-35 -15q-21 0 -36 15t-15 36q0 20 15 36.5t36 16.5q20 0 35 -16.5t15 -36.5z" />
<glyph unicode="&#x141;" horiz-adv-x="611" d="M123 0v325l-119 -55v57l119 55v332h68v-296l231 110v-58l-231 -109v-294h406v-67h-474z" />
<glyph unicode="&#x142;" horiz-adv-x="291" d="M181 405v-405h-63v375l-118 -57v57l118 57v282h63v-251l120 58v-57z" />
<glyph unicode="&#x143;" horiz-adv-x="751" d="M649 0h-65l-422 622v-622h-65v714h77l408 -598v598h67v-714zM355 762l86 138l50 -26l-73 -112h-63z" />
<glyph unicode="&#x144;" horiz-adv-x="591" d="M86 0v516h63v-95q32 52 77.5 79.5t106.5 27.5q82 0 132.5 -50.5t50.5 -148.5v-329h-62v315q0 25 -5 52t-19 49t-39 36t-65 14q-38 0 -70.5 -13.5t-56 -37.5t-37 -58t-13.5 -74v-283h-63zM272 594l93 142l43 -30l-73 -112h-63z" />
<glyph unicode="&#x145;" horiz-adv-x="751" d="M649 0h-65l-422 622v-622h-65v714h77l408 -598v598h67v-714zM269 -173l69 112h67l-95 -139z" />
<glyph unicode="&#x146;" horiz-adv-x="591" d="M86 0v516h63v-95q32 52 77.5 79.5t106.5 27.5q82 0 132.5 -50.5t50.5 -148.5v-329h-62v315q0 25 -5 52t-19 49t-39 36t-65 14q-38 0 -70.5 -13.5t-56 -37.5t-37 -58t-13.5 -74v-283h-63zM208 -173l69 112h67l-95 -139z" />
<glyph unicode="&#x147;" horiz-adv-x="751" d="M649 0h-65l-422 622v-622h-65v714h77l408 -598v598h67v-714zM347 754q-27 24 -57 46t-64 44l28 44l120 -75l118 75l29 -44q-33 -22 -64 -44t-57 -46h-53z" />
<glyph unicode="&#x148;" horiz-adv-x="591" d="M86 0v516h63v-95q32 52 77.5 79.5t106.5 27.5q82 0 132.5 -50.5t50.5 -148.5v-329h-62v315q0 25 -5 52t-19 49t-39 36t-65 14q-38 0 -70.5 -13.5t-56 -37.5t-37 -58t-13.5 -74v-283h-63zM277 586q-27 24 -57 46t-64 44l28 44l120 -75l118 75l29 -44q-33 -22 -64 -44 t-57 -46h-53z" />
<glyph unicode="&#x14a;" horiz-adv-x="745" d="M649 -13q0 -43 -12 -75t-32.5 -53t-48.5 -31.5t-60 -10.5q-29 0 -57.5 5.5t-45.5 19.5l19 57q13 -9 33 -18.5t47 -9.5q57 0 77 35.5t16 92.5l-423 623v-622h-65v714h77l408 -598v598h67v-727z" />
<glyph unicode="&#x14b;" horiz-adv-x="591" d="M452 315q0 25 -5 52t-19.5 49t-39.5 36t-65 14q-38 0 -70.5 -13.5t-56 -37.5t-37 -58t-13.5 -74v-283h-62v516h62v-95q33 52 78 79.5t107 27.5q81 0 132 -50.5t51 -148.5v-343q0 -43 -11.5 -74.5t-31.5 -52.5t-47.5 -31.5t-59.5 -10.5q-44 0 -70 16l15 55q8 -5 22.5 -9 t33.5 -4q48 0 67.5 30t19.5 78v332z" />
<glyph unicode="&#x14c;" horiz-adv-x="771" d="M719 357q0 -79 -23 -147t-66.5 -117.5t-105 -77.5t-138.5 -28t-138.5 28t-105 77.5t-67 117.5t-23.5 147q0 80 23.5 147.5t67 117t105 77.5t138.5 28t138.5 -28t105 -77.5t66.5 -117t23 -147.5zM646 357q0 67 -18 122.5t-52 95t-82 61t-108 21.5t-108 -21.5t-82 -61 t-52 -95t-18 -122.5q0 -68 18 -123t52 -94.5t82 -61t108 -21.5t108 21.5t82 61t52 94.5t18 123zM243 779v49h288v-49h-288z" />
<glyph unicode="&#x14d;" horiz-adv-x="591" d="M540 257q0 -57 -17 -106t-49 -85.5t-77 -57t-102 -20.5t-102.5 20.5t-77 57t-48.5 85.5t-17 106q0 58 17 107.5t48.5 86t77 57t102.5 20.5t102 -20.5t77 -57t49 -86t17 -107.5zM473 257q0 44 -12 82.5t-34.5 67t-56 44.5t-75.5 16q-43 0 -76 -16t-56 -44.5t-35 -67 t-12 -82.5q0 -43 12 -81.5t35 -67t56 -45t76 -16.5q42 0 75.5 16.5t56 45t34.5 67t12 81.5zM151 611v49h288v-49h-288z" />
<glyph unicode="&#x14e;" horiz-adv-x="771" d="M719 357q0 -79 -23 -147t-66.5 -117.5t-105 -77.5t-138.5 -28t-138.5 28t-105 77.5t-67 117.5t-23.5 147q0 80 23.5 147.5t67 117t105 77.5t138.5 28t138.5 -28t105 -77.5t66.5 -117t23 -147.5zM646 357q0 67 -18 122.5t-52 95t-82 61t-108 21.5t-108 -21.5t-82 -61 t-52 -95t-18 -122.5q0 -68 18 -123t52 -94.5t82 -61t108 -21.5t108 21.5t82 61t52 94.5t18 123zM387 764q-64 0 -104 31t-48 78l53 12q6 -29 32 -48t67 -19q40 0 66 19t33 48l51 -12q-7 -47 -47 -78t-103 -31z" />
<glyph unicode="&#x14f;" horiz-adv-x="591" d="M540 257q0 -57 -17 -106t-49 -85.5t-77 -57t-102 -20.5t-102.5 20.5t-77 57t-48.5 85.5t-17 106q0 58 17 107.5t48.5 86t77 57t102.5 20.5t102 -20.5t77 -57t49 -86t17 -107.5zM473 257q0 44 -12 82.5t-34.5 67t-56 44.5t-75.5 16q-43 0 -76 -16t-56 -44.5t-35 -67 t-12 -82.5q0 -43 12 -81.5t35 -67t56 -45t76 -16.5q42 0 75.5 16.5t56 45t34.5 67t12 81.5zM296 596q-64 0 -104 31t-48 78l53 12q6 -29 32 -48t67 -19q40 0 66 19t33 48l51 -12q-7 -47 -47 -78t-103 -31z" />
<glyph unicode="&#x150;" horiz-adv-x="771" d="M719 357q0 -79 -23 -147t-66.5 -117.5t-105 -77.5t-138.5 -28t-138.5 28t-105 77.5t-67 117.5t-23.5 147q0 80 23.5 147.5t67 117t105 77.5t138.5 28t138.5 -28t105 -77.5t66.5 -117t23 -147.5zM646 357q0 67 -18 122.5t-52 95t-82 61t-108 21.5t-108 -21.5t-82 -61 t-52 -95t-18 -122.5q0 -68 18 -123t52 -94.5t82 -61t108 -21.5t108 21.5t82 61t52 94.5t18 123zM269 762l86 138l50 -26l-73 -112h-63zM415 762l86 138l50 -26l-73 -112h-63z" />
<glyph unicode="&#x151;" horiz-adv-x="591" d="M540 257q0 -57 -17 -106t-49 -85.5t-77 -57t-102 -20.5t-102.5 20.5t-77 57t-48.5 85.5t-17 106q0 58 17 107.5t48.5 86t77 57t102.5 20.5t102 -20.5t77 -57t49 -86t17 -107.5zM473 257q0 44 -12 82.5t-34.5 67t-56 44.5t-75.5 16q-43 0 -76 -16t-56 -44.5t-35 -67 t-12 -82.5q0 -43 12 -81.5t35 -67t56 -45t76 -16.5q42 0 75.5 16.5t56 45t34.5 67t12 81.5zM164 594l86 138l50 -26l-73 -112h-63zM310 594l86 138l50 -26l-73 -112h-63z" />
<glyph unicode="&#x152;" horiz-adv-x="1021" d="M362 0q-80 0 -141.5 27t-103 74.5t-63 113t-21.5 142.5t21.5 142.5t63 113t103 74.5t141.5 27h598v-67h-369v-236h325v-65h-325v-279h379v-67h-608zM522 67v580h-160q-62 0 -110 -20.5t-80 -58.5t-48.5 -91.5t-16.5 -119.5t16.5 -119.5t48.5 -91.5t80 -58.5t110 -20.5 h160z" />
<glyph unicode="&#x153;" horiz-adv-x="1006" d="M963 269q0 -10 -0.5 -16t-0.5 -10h-421q5 -92 56.5 -142.5t135.5 -50.5q45 0 85.5 18t68.5 50l49 -42q-38 -40 -87.5 -64t-115.5 -24q-82 0 -138 34.5t-87 94.5q-30 -59 -84 -94t-129 -35q-57 0 -103 20.5t-77.5 57t-48.5 85.5t-17 106q0 58 17 107.5t48.5 86t77.5 57 t103 20.5q75 0 129.5 -35t83.5 -95q30 59 84.5 94.5t130.5 35.5q55 0 99.5 -20t75.5 -55.5t48 -82.5t17 -101zM473 257q0 44 -12 82.5t-35 67t-56.5 44.5t-75.5 16q-43 0 -76 -16t-56 -44.5t-35 -67t-12 -82.5q0 -43 12 -81t35 -66.5t56 -45t76 -16.5q42 0 75.5 16.5 t56.5 45t35 66.5t12 81zM896 299q-4 42 -19 73.5t-38.5 52.5t-54 31.5t-64.5 10.5q-38 0 -69.5 -13t-54 -35.5t-36 -53t-16.5 -66.5h352z" />
<glyph unicode="&#x154;" horiz-adv-x="668" d="M545 0l-183 305h-197v-305h-68v714h289q52 0 94.5 -14t72.5 -40t46.5 -63t16.5 -82q0 -78 -46 -131t-131 -73l186 -311h-80zM543 513q0 59 -39 96.5t-120 37.5h-219v-276h203q84 0 129.5 38.5t45.5 103.5zM309 762l86 138l50 -26l-73 -112h-63z" />
<glyph unicode="&#x155;" horiz-adv-x="362" d="M340 459q-20 6 -45 6q-30 0 -57.5 -12.5t-47.5 -37.5t-32 -61t-12 -84v-270h-63v516h63v-93q23 46 64 74t90 28q14 0 29 -2.5t22 -6.5zM178 585l86 138l50 -26l-73 -112h-63z" />
<glyph unicode="&#x156;" horiz-adv-x="668" d="M545 0l-183 305h-197v-305h-68v714h289q52 0 94.5 -14t72.5 -40t46.5 -63t16.5 -82q0 -78 -46 -131t-131 -73l186 -311h-80zM543 513q0 59 -39 96.5t-120 37.5h-219v-276h203q84 0 129.5 38.5t45.5 103.5zM228 -173l69 112h67l-95 -139z" />
<glyph unicode="&#x157;" horiz-adv-x="362" d="M340 459q-20 6 -45 6q-30 0 -57.5 -12.5t-47.5 -37.5t-32 -61t-12 -84v-270h-63v516h63v-93q23 46 64 74t90 28q14 0 29 -2.5t22 -6.5zM18 -173l69 112h67l-95 -139z" />
<glyph unicode="&#x158;" horiz-adv-x="668" d="M545 0l-183 305h-197v-305h-68v714h289q52 0 94.5 -14t72.5 -40t46.5 -63t16.5 -82q0 -78 -46 -131t-131 -73l186 -311h-80zM543 513q0 59 -39 96.5t-120 37.5h-219v-276h203q84 0 129.5 38.5t45.5 103.5zM312 754q-27 24 -57 46t-64 44l28 44l120 -75l118 75l29 -44 q-33 -22 -64 -44t-57 -46h-53z" />
<glyph unicode="&#x159;" horiz-adv-x="362" d="M340 459q-20 6 -45 6q-30 0 -57.5 -12.5t-47.5 -37.5t-32 -61t-12 -84v-270h-63v516h63v-93q23 46 64 74t90 28q14 0 29 -2.5t22 -6.5zM175 586q-27 24 -57 46t-64 44l28 44l120 -75l118 75l29 -44q-33 -22 -64 -44t-57 -46h-53z" />
<glyph unicode="&#x15a;" horiz-adv-x="610" d="M300 727q72 0 141 -29.5t114 -89.5l-52 -44q-38 52 -93.5 74.5t-115.5 22.5q-31 0 -59.5 -6t-50 -20.5t-34 -37t-12.5 -55.5q0 -35 14 -57t37.5 -36.5t55 -23.5t66.5 -18q51 -13 96 -28.5t79 -38.5t54 -57.5t20 -85.5q0 -47 -17.5 -85.5t-50 -66.5t-79.5 -43t-105 -15 q-94 0 -162 36.5t-107 97.5l54 47q19 -32 44.5 -54t54.5 -35.5t60 -20t62 -6.5q80 0 128 36t48 104q0 39 -18 63.5t-47.5 40.5t-67.5 26t-77.5 20t-77.5 22.5t-67.5 33.5t-47.5 53.5t-18 81.5q0 46 17.5 82t48.5 61t73.5 38t91.5 13zM264 762l86 138l50 -26l-73 -112h-63z " />
<glyph unicode="&#x15b;" horiz-adv-x="498" d="M446 153q0 -35 -14 -65.5t-40.5 -52.5t-63.5 -34.5t-83 -12.5q-72 0 -125.5 29.5t-85.5 74.5l50 40q29 -44 70 -63.5t96 -19.5q68 0 100.5 26t32.5 67q0 27 -12.5 42.5t-34 24.5t-50 14.5t-60.5 12.5q-33 7 -63 17.5t-53 27t-36.5 40.5t-13.5 58q0 32 12.5 59t35.5 47 t56 31.5t74 11.5q68 0 116.5 -28.5t81.5 -70.5l-50 -38q-8 13 -21 26.5t-32 24t-44 17.5t-57 7q-56 0 -83.5 -21t-27.5 -58q0 -21 8.5 -34.5t24.5 -23t38.5 -16t51.5 -12.5q39 -9 75.5 -18.5t64.5 -25t45 -40.5t17 -64zM194 594l93 142l43 -30l-73 -112h-63z" />
<glyph unicode="&#x15c;" horiz-adv-x="610" d="M300 727q72 0 141 -29.5t114 -89.5l-52 -44q-38 52 -93.5 74.5t-115.5 22.5q-31 0 -59.5 -6t-50 -20.5t-34 -37t-12.5 -55.5q0 -35 14 -57t37.5 -36.5t55 -23.5t66.5 -18q51 -13 96 -28.5t79 -38.5t54 -57.5t20 -85.5q0 -47 -17.5 -85.5t-50 -66.5t-79.5 -43t-105 -15 q-94 0 -162 36.5t-107 97.5l54 47q19 -32 44.5 -54t54.5 -35.5t60 -20t62 -6.5q80 0 128 36t48 104q0 39 -18 63.5t-47.5 40.5t-67.5 26t-77.5 20t-77.5 22.5t-67.5 33.5t-47.5 53.5t-18 81.5q0 46 17.5 82t48.5 61t73.5 38t91.5 13zM333 897q57 -48 121 -90l-27 -44 l-120 76l-119 -76l-29 44q34 22 64.5 44.5t56.5 45.5h53z" />
<glyph unicode="&#x15d;" horiz-adv-x="498" d="M446 153q0 -35 -14 -65.5t-40.5 -52.5t-63.5 -34.5t-83 -12.5q-72 0 -125.5 29.5t-85.5 74.5l50 40q29 -44 70 -63.5t96 -19.5q68 0 100.5 26t32.5 67q0 27 -12.5 42.5t-34 24.5t-50 14.5t-60.5 12.5q-33 7 -63 17.5t-53 27t-36.5 40.5t-13.5 58q0 32 12.5 59t35.5 47 t56 31.5t74 11.5q68 0 116.5 -28.5t81.5 -70.5l-50 -38q-8 13 -21 26.5t-32 24t-44 17.5t-57 7q-56 0 -83.5 -21t-27.5 -58q0 -21 8.5 -34.5t24.5 -23t38.5 -16t51.5 -12.5q39 -9 75.5 -18.5t64.5 -25t45 -40.5t17 -64zM275 720q57 -48 121 -90l-27 -44l-120 76l-119 -76 l-29 44q34 22 64.5 44.5t56.5 45.5h53z" />
<glyph unicode="&#x15e;" horiz-adv-x="610" d="M300 727q72 0 141 -29.5t114 -89.5l-52 -44q-38 52 -93.5 74.5t-115.5 22.5q-31 0 -59.5 -6t-50 -20.5t-34 -37t-12.5 -55.5q0 -35 14 -57t37.5 -36.5t55 -23.5t66.5 -18q51 -13 96 -28.5t79 -38.5t54 -57.5t20 -85.5q0 -47 -17.5 -85.5t-50 -66.5t-79.5 -43t-105 -15 q-94 0 -162 36.5t-107 97.5l54 47q19 -32 44.5 -54t54.5 -35.5t60 -20t62 -6.5q80 0 128 36t48 104q0 39 -18 63.5t-47.5 40.5t-67.5 26t-77.5 20t-77.5 22.5t-67.5 33.5t-47.5 53.5t-18 81.5q0 46 17.5 82t48.5 61t73.5 38t91.5 13zM268 -200q-21 0 -42.5 3.5t-32.5 6.5v47 q15 -8 35.5 -10.5t31.5 -2.5q30 0 47.5 10t17.5 33q0 14 -5.5 19.5t-13.5 10.5h-57l13 50q8 2 16 5t22 3q32 0 55 -21.5t23 -61.5q0 -45 -31 -68.5t-79 -23.5z" />
<glyph unicode="&#x15f;" horiz-adv-x="498" d="M449 153q0 -35 -14 -65.5t-40.5 -52.5t-63.5 -34.5t-83 -12.5q-72 0 -125.5 29.5t-85.5 74.5l50 40q29 -44 70 -63.5t96 -19.5q68 0 100.5 26t32.5 67q0 27 -12.5 42.5t-34 24.5t-50 14.5t-60.5 12.5q-33 7 -63 17.5t-53 27t-36.5 40.5t-13.5 58q0 32 12.5 59t35.5 47 t56 31.5t74 11.5q68 0 116.5 -28.5t81.5 -70.5l-50 -38q-8 13 -21 26.5t-32 24t-44 17.5t-57 7q-56 0 -83.5 -21t-27.5 -58q0 -21 8.5 -34.5t24.5 -23t38.5 -16t51.5 -12.5q39 -9 75.5 -18.5t64.5 -25t45 -40.5t17 -64zM210 -199q-21 0 -42.5 3.5t-32.5 6.5v47 q15 -8 35.5 -10.5t31.5 -2.5q30 0 47.5 10t17.5 33q0 14 -5.5 19.5t-13.5 10.5h-57l13 50q8 2 16 5t22 3q32 0 55 -21.5t23 -61.5q0 -45 -31 -68.5t-79 -23.5z" />
<glyph unicode="&#x160;" horiz-adv-x="610" d="M300 727q72 0 141 -29.5t114 -89.5l-52 -44q-38 52 -93.5 74.5t-115.5 22.5q-31 0 -59.5 -6t-50 -20.5t-34 -37t-12.5 -55.5q0 -35 14 -57t37.5 -36.5t55 -23.5t66.5 -18q51 -13 96 -28.5t79 -38.5t54 -57.5t20 -85.5q0 -47 -17.5 -85.5t-50 -66.5t-79.5 -43t-105 -15 q-94 0 -162 36.5t-107 97.5l54 47q19 -32 44.5 -54t54.5 -35.5t60 -20t62 -6.5q80 0 128 36t48 104q0 39 -18 63.5t-47.5 40.5t-67.5 26t-77.5 20t-77.5 22.5t-67.5 33.5t-47.5 53.5t-18 81.5q0 46 17.5 82t48.5 61t73.5 38t91.5 13zM275 754q-27 24 -57 46t-64 44l28 44 l120 -75l118 75l29 -44q-33 -22 -64 -44t-57 -46h-53z" />
<glyph unicode="&#x161;" horiz-adv-x="498" d="M220 586q-27 24 -57 46t-64 44l28 44l120 -75l118 75l29 -44q-33 -22 -64 -44t-57 -46h-53zM449 153q0 -35 -14 -65.5t-40.5 -52.5t-63.5 -34.5t-83 -12.5q-72 0 -125.5 29.5t-85.5 74.5l50 40q29 -44 70 -63.5t96 -19.5q68 0 100.5 26t32.5 67q0 27 -12.5 42.5t-34 24.5 t-50 14.5t-60.5 12.5q-33 7 -63 17.5t-53 27t-36.5 40.5t-13.5 58q0 32 12.5 59t35.5 47t56 31.5t74 11.5q68 0 116.5 -28.5t81.5 -70.5l-50 -38q-8 13 -21 26.5t-32 24t-44 17.5t-57 7q-56 0 -83.5 -21t-27.5 -58q0 -21 8.5 -34.5t24.5 -23t38.5 -16t51.5 -12.5 q39 -9 75.5 -18.5t64.5 -25t45 -40.5t17 -64z" />
<glyph unicode="&#x162;" horiz-adv-x="616" d="M342 647v-647h-68v647h-248v67h564v-67h-248zM208 -173l69 112h67l-95 -139z" />
<glyph unicode="&#x163;" horiz-adv-x="388" d="M370 22q-20 -18 -46.5 -26t-55.5 -8q-34 0 -68.5 13.5t-56.5 51.5q-10 17 -14 39t-4 58v308h-99v47q26 3 46 8t34 20t21.5 44.5t9.5 80.5h51v-142h168v-58h-168v-312q0 -49 20 -74.5t64 -25.5q23 0 41.5 6.5t32.5 17.5zM136 -173l69 112h67l-95 -139z" />
<glyph unicode="&#x164;" horiz-adv-x="616" d="M342 647v-647h-68v647h-248v67h564v-67h-248zM293 754q-27 24 -57 46t-64 44l28 44l120 -75l118 75l29 -44q-33 -22 -64 -44t-57 -46h-53z" />
<glyph unicode="&#x165;" horiz-adv-x="388" d="M370 22q-20 -18 -46.5 -26t-55.5 -8q-34 0 -68.5 13.5t-56.5 51.5q-10 17 -14 39t-4 58v308h-99v47q26 3 46 8t34 20t21.5 44.5t9.5 80.5h51v-142h168v-58h-168v-312q0 -49 20 -74.5t64 -25.5q23 0 41.5 6.5t32.5 17.5zM330.316 719.864q0 -37.6221 -13.9521 -67.6289 q-13.9521 -30.0078 -37.207 -55.9854l-31.626 21.498q16.7432 17.916 26.5098 40.3096q9.76758 22.3936 9.76758 41.2041q0 11.6445 -2.79102 20.1543t-5.58105 16.5723q-2.79004 8.06152 -5.58105 15.6748q-2.79102 7.61426 -2.79102 17.4678v13.4355h63.252v-62.7021z" />
<glyph unicode="&#x166;" horiz-adv-x="614" d="M340 355v-355h-66v355h-112v44h112v251h-248v64h562v-64h-248v-251h112v-44h-112z" />
<glyph unicode="&#x167;" horiz-adv-x="388" d="M369 20q-21 -18 -50 -26.5t-61 -6.5q-8 1 -15 1.5t-14 2.5q-25 5 -46.5 20.5t-37.5 41.5q-7 12 -11 24.5t-5.5 29t-2 38t-0.5 50.5v78h-92v44h92v141h-100v46q24 3 45.5 8t38.5 20t27 44.5t11 81.5h40v-142h169v-58h-169v-141h134v-44h-134v-125q0 -102 86 -102 q23 0 42.5 6.5t33.5 16.5z" />
<glyph unicode="&#x168;" horiz-adv-x="711" d="M623 254q0 -60 -20.5 -109t-57 -84.5t-85.5 -54.5t-106 -19q-58 0 -106.5 19t-84 54.5t-55.5 84.5t-20 109v460h69v-460q0 -45 14 -81.5t39.5 -63t62 -41t81.5 -14.5t82 14.5t63 41t40 63t14 81.5v460h70v-460zM507 843q-14 -34 -38.5 -54.5t-54.5 -20.5q-19 0 -36.5 7 t-33 15t-29.5 15t-26 7q-21 0 -30.5 -15t-16.5 -29l-41 18q14 35 37.5 54.5t52.5 19.5q18 0 34.5 -6.5t32 -15t30 -15t27.5 -6.5q17 0 30.5 12.5t19.5 30.5z" />
<glyph unicode="&#x169;" horiz-adv-x="600" d="M514 516v-516h-63v94q-34 -51 -78.5 -78.5t-106.5 -27.5q-81 0 -131.5 50.5t-50.5 147.5v330h62v-332q0 -25 6 -49.5t20 -43.5t38.5 -30.5t62.5 -11.5q36 0 68 12.5t56.5 35t39 53t14.5 66.5v300h63zM445 675q-14 -34 -38.5 -54.5t-54.5 -20.5q-19 0 -36.5 7t-33 15 t-29.5 15t-26 7q-21 0 -30.5 -15t-16.5 -29l-41 18q14 35 37.5 54.5t52.5 19.5q18 0 34.5 -6.5t32 -15t30 -15t27.5 -6.5q17 0 30.5 12.5t19.5 30.5z" />
<glyph unicode="&#x16a;" horiz-adv-x="711" d="M623 254q0 -60 -20.5 -109t-57 -84.5t-85.5 -54.5t-106 -19q-58 0 -106.5 19t-84 54.5t-55.5 84.5t-20 109v460h69v-460q0 -45 14 -81.5t39.5 -63t62 -41t81.5 -14.5t82 14.5t63 41t40 63t14 81.5v460h70v-460zM214 779v49h288v-49h-288z" />
<glyph unicode="&#x16b;" horiz-adv-x="600" d="M514 516v-516h-63v94q-34 -51 -78.5 -78.5t-106.5 -27.5q-81 0 -131.5 50.5t-50.5 147.5v330h62v-332q0 -25 6 -49.5t20 -43.5t38.5 -30.5t62.5 -11.5q36 0 68 12.5t56.5 35t39 53t14.5 66.5v300h63zM147 611v49h288v-49h-288z" />
<glyph unicode="&#x16c;" horiz-adv-x="711" d="M623 254q0 -60 -20.5 -109t-57 -84.5t-85.5 -54.5t-106 -19q-58 0 -106.5 19t-84 54.5t-55.5 84.5t-20 109v460h69v-460q0 -45 14 -81.5t39.5 -63t62 -41t81.5 -14.5t82 14.5t63 41t40 63t14 81.5v460h70v-460zM357 764q-64 0 -104 31t-48 78l53 12q6 -29 32 -48t67 -19 q40 0 66 19t33 48l51 -12q-7 -47 -47 -78t-103 -31z" />
<glyph unicode="&#x16d;" horiz-adv-x="600" d="M514 516v-516h-63v94q-34 -51 -78.5 -78.5t-106.5 -27.5q-81 0 -131.5 50.5t-50.5 147.5v330h62v-332q0 -25 6 -49.5t20 -43.5t38.5 -30.5t62.5 -11.5q36 0 68 12.5t56.5 35t39 53t14.5 66.5v300h63zM293 596q-64 0 -104 31t-48 78l53 12q6 -29 32 -48t67 -19q40 0 66 19 t33 48l51 -12q-7 -47 -47 -78t-103 -31z" />
<glyph unicode="&#x16e;" horiz-adv-x="711" d="M623 254q0 -60 -20.5 -109t-57 -84.5t-85.5 -54.5t-106 -19q-58 0 -106.5 19t-84 54.5t-55.5 84.5t-20 109v460h69v-460q0 -45 14 -81.5t39.5 -63t62 -41t81.5 -14.5t82 14.5t63 41t40 63t14 81.5v460h70v-460zM454 849q0 -21 -8 -39t-21.5 -31.5t-31.5 -21.5t-39 -8 q-42 0 -70.5 29t-28.5 71q0 21 7.5 39t21 32t31.5 22t39 8t39 -8t31.5 -22t21.5 -32t8 -39zM413 849q0 24 -17 41.5t-42 17.5q-24 0 -41.5 -17.5t-17.5 -41.5q0 -25 17.5 -42t41.5 -17q25 0 42 17t17 42z" />
<glyph unicode="&#x16f;" horiz-adv-x="600" d="M514 516v-516h-63v94q-34 -51 -78.5 -78.5t-106.5 -27.5q-81 0 -131.5 50.5t-50.5 147.5v330h62v-332q0 -25 6 -49.5t20 -43.5t38.5 -30.5t62.5 -11.5q36 0 68 12.5t56.5 35t39 53t14.5 66.5v300h63zM391 681q0 -21 -8 -39t-21.5 -31.5t-31.5 -21.5t-39 -8 q-42 0 -70.5 29t-28.5 71q0 21 7.5 39t21 32t31.5 22t39 8t39 -8t31.5 -22t21.5 -32t8 -39zM350 681q0 24 -17 41.5t-42 17.5q-24 0 -41.5 -17.5t-17.5 -41.5q0 -25 17.5 -42t41.5 -17q25 0 42 17t17 42z" />
<glyph unicode="&#x170;" horiz-adv-x="711" d="M623 254q0 -60 -20.5 -109t-57 -84.5t-85.5 -54.5t-106 -19q-58 0 -106.5 19t-84 54.5t-55.5 84.5t-20 109v460h69v-460q0 -45 14 -81.5t39.5 -63t62 -41t81.5 -14.5t82 14.5t63 41t40 63t14 81.5v460h70v-460zM235 762l86 138l50 -26l-73 -112h-63zM381 762l86 138 l50 -26l-73 -112h-63z" />
<glyph unicode="&#x171;" horiz-adv-x="600" d="M514 516v-516h-63v94q-34 -51 -78.5 -78.5t-106.5 -27.5q-81 0 -131.5 50.5t-50.5 147.5v330h62v-332q0 -25 6 -49.5t20 -43.5t38.5 -30.5t62.5 -11.5q36 0 68 12.5t56.5 35t39 53t14.5 66.5v300h63zM194 594l86 138l50 -26l-73 -112h-63zM340 594l86 138l50 -26 l-73 -112h-63z" />
<glyph unicode="&#x172;" horiz-adv-x="711" d="M623 254q0 -60 -20.5 -109t-57 -84.5t-85.5 -54.5t-106 -19q-58 0 -106.5 19t-84 54.5t-55.5 84.5t-20 109v460h69v-460q0 -45 14 -81.5t39.5 -63t62 -41t81.5 -14.5t82 14.5t63 41t40 63t14 81.5v460h70v-460zM493 21q-14 -11 -28 -23.5t-25 -26t-18.5 -27.5t-7.5 -29 q0 -19 11 -29t31 -10q18 0 33 7.5t24 17.5v-56q-10 -12 -28.5 -20.5t-41.5 -8.5q-35 0 -60 21.5t-25 61.5q0 25 15.5 57t64.5 65h55z" />
<glyph unicode="&#x173;" horiz-adv-x="600" d="M514 516v-516h-14q-22 -20 -38.5 -41t-16.5 -44q0 -19 11 -29t31 -10q18 0 33 7.5t24 17.5v-56q-10 -12 -28.5 -20.5t-41.5 -8.5q-35 0 -60 21.5t-25 61.5q0 23 13.5 50.5t48.5 56.5v88q-34 -51 -78.5 -78.5t-106.5 -27.5q-81 0 -131.5 50.5t-50.5 147.5v330h62v-328 q0 -25 5.5 -49.5t20 -44.5t39 -32.5t62.5 -12.5q36 0 68.5 13t56.5 35.5t38.5 53.5t14.5 68v297h63z" />
<glyph unicode="&#x174;" horiz-adv-x="992" d="M731 0h-74l-184 615l-184 -615h-74l-186 714h72l154 -610l184 610h71l183 -611l155 611h69zM510 897q57 -48 121 -90l-27 -44l-120 76l-119 -76l-29 44q34 22 64.5 44.5t56.5 45.5h53z" />
<glyph unicode="&#x175;" horiz-adv-x="772" d="M598 0h-73l-138 433l-139 -433h-73l-143 516h65l118 -444l142 444h63l141 -444l118 444h61zM415 720q57 -48 121 -90l-27 -44l-120 76l-119 -76l-29 44q34 22 64.5 44.5t56.5 45.5h53z" />
<glyph unicode="&#x176;" horiz-adv-x="595" d="M335 300v-300h-72v299l-254 415h81l211 -349l210 349h77zM325 897q57 -48 121 -90l-27 -44l-120 76l-119 -76l-29 44q34 22 64.5 44.5t56.5 45.5h53z" />
<glyph unicode="&#x177;" horiz-adv-x="520" d="M293 -27q-14 -37 -29.5 -66t-35 -49.5t-45.5 -31t-61 -10.5q-24 0 -46 5.5t-38 16.5l25 54q11 -9 26.5 -13.5t32.5 -4.5q41 0 63 26.5t39 63.5l15 33l-221 519h72l182 -431l161 431h68zM287 720q57 -48 121 -90l-27 -44l-120 76l-119 -76l-29 44q34 22 64.5 44.5 t56.5 45.5h53z" />
<glyph unicode="&#x178;" horiz-adv-x="595" d="M335 300v-300h-72v299l-254 415h81l211 -349l210 349h77zM166 806q0 17 12 29t28 12q17 0 28.5 -12t11.5 -29q0 -15 -11.5 -27t-28.5 -12q-16 0 -28 11.5t-12 27.5zM352 806q0 17 12 29t27 12q17 0 29 -12t12 -29q0 -15 -12 -27t-29 -12q-15 0 -27 11.5t-12 27.5z" />
<glyph unicode="&#x179;" horiz-adv-x="613" d="M43 0v65l431 582h-414v67h498v-65l-429 -582h438v-67h-524zM267 762l86 138l50 -26l-73 -112h-63z" />
<glyph unicode="&#x17a;" horiz-adv-x="496" d="M42 0v56l324 402h-310v58h387v-57l-324 -402h333v-57h-410zM217 594l93 142l43 -30l-73 -112h-63z" />
<glyph unicode="&#x17b;" horiz-adv-x="613" d="M43 0v65l431 582h-414v67h498v-65l-429 -582h438v-67h-524zM290 805q0 16 11.5 27.5t26.5 11.5q17 0 28.5 -11t11.5 -28q0 -15 -11.5 -26.5t-28.5 -11.5q-15 0 -26.5 11t-11.5 27z" />
<glyph unicode="&#x17c;" horiz-adv-x="496" d="M42 0v56l324 402h-310v58h387v-57l-324 -402h333v-57h-410zM206 637q0 16 11.5 27.5t26.5 11.5q17 0 28.5 -11t11.5 -28q0 -15 -11.5 -26.5t-28.5 -11.5q-15 0 -26.5 11t-11.5 27z" />
<glyph unicode="&#x17d;" horiz-adv-x="613" d="M43 0v65l431 582h-414v67h498v-65l-429 -582h438v-67h-524zM284 754q-27 24 -57 46t-64 44l28 44l120 -75l118 75l29 -44q-33 -22 -64 -44t-57 -46h-53z" />
<glyph unicode="&#x17e;" horiz-adv-x="496" d="M42 0v56l324 402h-310v58h387v-57l-324 -402h333v-57h-410zM212 586q-27 24 -57 46t-64 44l28 44l120 -75l118 75l29 -44q-33 -22 -64 -44t-57 -46h-53z" />
<glyph unicode="&#x192;" d="M509 660q-13 5 -24.5 7.5t-27.5 2.5q-56 0 -81.5 -25t-33.5 -73l-18 -112h132l-10 -52h-132l-61 -362q-12 -72 -55.5 -117t-122.5 -45q-40 0 -72 13l20 53q11 -4 25.5 -7t31.5 -3q51 0 76.5 25.5t33.5 73.5l63 369h-99l8 52h100l18 105q12 75 56.5 118.5t121.5 43.5 q41 0 70 -13z" />
<glyph unicode="&#x1fa;" horiz-adv-x="670" d="M307 888l65 112h65l-69 -112h-61zM437 773q0 -29 -14 -52t-37 -36l272 -685h-82l-81 219h-320l-83 -219h-76l272 686q-23 13 -36.5 36t-13.5 51q0 21 7.5 39t21 32t31.5 22t39 8t39 -8t31.5 -22t21.5 -32t8 -39zM337 639l-137 -354h269zM396 773q0 24 -17 41.5t-42 17.5 q-24 0 -41.5 -17.5t-17.5 -41.5q0 -25 17.5 -42t41.5 -17q25 0 42 17t17 42z" />
<glyph unicode="&#x1fb;" horiz-adv-x="560" d="M403 291q-14 -13 -34.5 -21t-44 -13t-45 -7.5t-43.5 -5.5q-30 -4 -49 -9t-36 -17t-27 -29.5t-10 -44.5q0 -26 9.5 -45t26 -31t38 -17.5t46.5 -5.5q31 0 61.5 9t54.5 27.5t38.5 48t14.5 71.5v90zM229 -12q-83 0 -132 41t-49 115q0 44 17 72.5t42.5 45t55 24.5t59.5 12 q31 4 63.5 7.5t58.5 11.5t42.5 23t16.5 44q0 42 -36 63t-93 21q-96 0 -164 -56l-36 49q39 31 88 49t112 18q42 0 77 -9t60.5 -29t39.5 -51t14 -75v-255q0 -32 9.5 -48t32.5 -16q9 0 16.5 2.5t12.5 6.5l12 -51q-6 -5 -21 -8.5t-31 -3.5q-36 0 -62 21.5t-29 61.5 q-26 -39 -68.5 -62.5t-107.5 -23.5zM363 656q0 -21 -8 -39t-21.5 -31.5t-31.5 -21.5t-39 -8q-42 0 -70.5 29t-28.5 71q0 21 7.5 39t21 32t31.5 22t39 8t39 -8t31.5 -22t21.5 -32t8 -39zM322 656q0 24 -17 41.5t-42 17.5q-24 0 -41.5 -17.5t-17.5 -41.5q0 -25 17.5 -42 t41.5 -17q25 0 42 17t17 42zM226 780l86 138l50 -26l-73 -112h-63z" />
<glyph unicode="&#x1fc;" horiz-adv-x="868" d="M402 0v222h-261l-133 -222h-71l437 714h427v-64h-332v-238h290v-62h-290v-286h342v-64h-409zM402 650h-4l-215 -364h219v364zM374 762l86 138l50 -26l-73 -112h-63z" />
<glyph unicode="&#x1fd;" horiz-adv-x="918" d="M396 301q-19 -25 -48 -37t-61.5 -17.5t-64.5 -9t-57.5 -13t-41.5 -28t-16 -53.5q0 -26 9.5 -44.5t26 -30.5t38 -17.5t46.5 -5.5q31 0 61.5 9t54.5 27.5t38.5 48t14.5 71.5v100zM848 76q-38 -40 -87 -64t-116 -24q-69 0 -124.5 28t-89.5 86q-30 -56 -80 -85t-120 -29 q-41 0 -76 10t-60.5 30t-39.5 49t-14 67q0 46 19 75t47 45.5t61 24t61 10.5q31 4 60.5 8t52.5 12t37 22.5t14 41.5q0 24 -12 40.5t-30.5 26.5t-41.5 14t-44 4q-45 0 -86.5 -14.5t-76.5 -41.5l-34 49q41 30 88.5 48.5t107.5 18.5q28 0 55.5 -5t51.5 -16t43.5 -29.5 t32.5 -46.5q38 52 85.5 74.5t101.5 22.5q55 0 100 -20.5t76 -55t48 -81t17 -98.5q0 -12 -0.5 -19t-1.5 -11h-420q2 -46 16.5 -82t39.5 -60.5t58.5 -37.5t74.5 -13q49 0 89 18.5t70 52.5zM809 299q-4 42 -19 73.5t-39 52.5t-54.5 31.5t-64.5 10.5q-38 0 -69.5 -13t-54 -35.5 t-36 -53t-16.5 -66.5h353zM394 594l86 138l50 -26l-73 -112h-63z" />
<glyph unicode="&#x1fe;" horiz-adv-x="790" d="M337 762l86 138l50 -26l-73 -112h-63zM607 645q54 -51 83 -124.5t29 -163.5q0 -79 -23 -147t-66.5 -117.5t-105 -77.5t-138.5 -28q-104 0 -184 52l-26 -39h-59l46 70q-54 51 -82.5 124t-28.5 163q0 80 23.5 147.5t67 117t105 77.5t138.5 28q53 0 98.5 -13t83.5 -37l25 37 h60zM646 357q0 72 -20 130.5t-58 98.5l-327 -488q59 -41 145 -41q60 0 108 21.5t82 61t52 94.5t18 123zM126 357q0 -72 19.5 -129.5t56.5 -97.5l327 487q-59 40 -143 40q-60 0 -108 -21.5t-82 -61t-52 -95t-18 -122.5z" />
<glyph unicode="&#x1ff;" horiz-adv-x="591" d="M248 594l86 138l50 -26l-73 -112h-63zM470 456q34 -37 52 -88t18 -111q0 -57 -17 -106t-49 -85.5t-77 -57t-102 -20.5q-88 0 -146 44l-24 -32h-50l46 60q-35 37 -53 87t-18 110q0 58 17 107.5t48.5 86t77 57t102.5 20.5q86 0 146 -46l26 34h48zM116 257q0 -42 11 -79.5 t31 -66.5l244 321q-21 17 -48 26t-59 9q-43 0 -76 -16t-56 -44.5t-35 -67t-12 -82.5zM473 257q0 88 -42 147l-244 -322q43 -35 108 -35q42 0 75.5 16.5t56 45t34.5 67t12 81.5z" />
<glyph unicode="&#x218;" horiz-adv-x="610" d="M300 727q72 0 141 -29.5t114 -89.5l-52 -44q-38 52 -93.5 74.5t-115.5 22.5q-31 0 -59.5 -6t-50 -20.5t-34 -37t-12.5 -55.5q0 -35 14 -57t37.5 -36.5t55 -23.5t66.5 -18q51 -13 96 -28.5t79 -38.5t54 -57.5t20 -85.5q0 -47 -17.5 -85.5t-50 -66.5t-79.5 -43t-105 -15 q-94 0 -162 36.5t-107 97.5l54 47q19 -32 44.5 -54t54.5 -35.5t60 -20t62 -6.5q80 0 128 36t48 104q0 39 -18 63.5t-47.5 40.5t-67.5 26t-77.5 20t-77.5 22.5t-67.5 33.5t-47.5 53.5t-18 81.5q0 46 17.5 82t48.5 61t73.5 38t91.5 13zM201 -173l69 112h67l-95 -139z" />
<glyph unicode="&#x219;" horiz-adv-x="498" d="M446 153q0 -35 -14 -65.5t-40.5 -52.5t-63.5 -34.5t-83 -12.5q-72 0 -125.5 29.5t-85.5 74.5l50 40q29 -44 70 -63.5t96 -19.5q68 0 100.5 26t32.5 67q0 27 -12.5 42.5t-34 24.5t-50 14.5t-60.5 12.5q-33 7 -63 17.5t-53 27t-36.5 40.5t-13.5 58q0 32 12.5 59t35.5 47 t56 31.5t74 11.5q68 0 116.5 -28.5t81.5 -70.5l-50 -38q-8 13 -21 26.5t-32 24t-44 17.5t-57 7q-56 0 -83.5 -21t-27.5 -58q0 -21 8.5 -34.5t24.5 -23t38.5 -16t51.5 -12.5q39 -9 75.5 -18.5t64.5 -25t45 -40.5t17 -64zM143 -173l69 112h67l-95 -139z" />
<glyph unicode="&#x21a;" horiz-adv-x="616" d="M342 647v-647h-68v647h-248v67h564v-67h-248zM272 -200q-21 0 -42.5 3.5t-32.5 6.5v47q15 -8 35.5 -10.5t31.5 -2.5q30 0 47.5 10t17.5 33q0 14 -5.5 19.5t-13.5 10.5h-57l13 50q8 2 16 5t22 3q32 0 55 -21.5t23 -61.5q0 -45 -31 -68.5t-79 -23.5z" />
<glyph unicode="&#x21b;" horiz-adv-x="388" d="M370 22q-20 -18 -46.5 -26t-55.5 -8q-34 0 -68.5 13.5t-56.5 51.5q-10 17 -14 39t-4 58v308h-99v47q26 3 46 8t34 20t21.5 44.5t9.5 80.5h51v-142h168v-58h-168v-312q0 -49 20 -74.5t64 -25.5q23 0 41.5 6.5t32.5 17.5zM199 -200q-21 0 -42.5 3.5t-32.5 6.5v47 q15 -8 35.5 -10.5t31.5 -2.5q30 0 47.5 10t17.5 33q0 14 -5.5 19.5t-13.5 10.5h-57l13 50q8 2 16 5t22 3q32 0 55 -21.5t23 -61.5q0 -45 -31 -68.5t-79 -23.5z" />
<glyph unicode="&#x237;" horiz-adv-x="242" d="M158 -14q0 -43 -11.5 -74.5t-31.5 -52.5t-47.5 -31.5t-59.5 -10.5q-44 0 -70 16l15 55q8 -5 22.5 -9t33.5 -4q48 0 67.5 30t19.5 78v533h62v-530z" />
<glyph unicode="&#x259;" horiz-adv-x="571" d="M113 217q2 -44 16.5 -75.5t38 -52t53.5 -30.5t63 -10q37 0 67.5 12.5t53 35t35.5 53.5t15 67h-342zM525 261q0 -57 -16.5 -106.5t-48 -86.5t-77 -58.5t-102.5 -21.5q-54 0 -98 19.5t-75 52.5t-47.5 78t-16.5 96q0 14 1 23t1 16h412q0 46 -14 82t-39.5 60.5t-60.5 37.5 t-77 13q-51 0 -95 -20.5t-73 -57.5l-42 45q15 17 35 34t46 30.5t58.5 22t73.5 8.5q63 0 110.5 -21t79.5 -57t48.5 -85t16.5 -104z" />
<glyph unicode="&#x2c6;" horiz-adv-x="318" d="M189 720q57 -48 121 -90l-27 -44l-120 76l-119 -76l-29 44q34 22 64.5 44.5t56.5 45.5h53z" />
<glyph unicode="&#x2c7;" horiz-adv-x="318" d="M136 586q-27 24 -57 46t-64 44l28 44l120 -75l118 75l29 -44q-33 -22 -64 -44t-57 -46h-53z" />
<glyph unicode="&#x2d8;" horiz-adv-x="318" d="M163 596q-64 0 -104 31t-48 78l53 12q6 -29 32 -48t67 -19q40 0 66 19t33 48l51 -12q-7 -47 -47 -78t-103 -31z" />
<glyph unicode="&#x2d9;" horiz-adv-x="319" d="M120 637q0 16 11.5 27.5t26.5 11.5q17 0 28.5 -11t11.5 -28q0 -15 -11.5 -26.5t-28.5 -11.5q-15 0 -26.5 11t-11.5 27z" />
<glyph unicode="&#x2da;" horiz-adv-x="319" d="M262 681q0 -21 -8 -39t-21.5 -31.5t-31.5 -21.5t-39 -8q-42 0 -70.5 29t-28.5 71q0 21 7.5 39t21 32t31.5 22t39 8t39 -8t31.5 -22t21.5 -32t8 -39zM221 681q0 24 -17 41.5t-42 17.5q-24 0 -41.5 -17.5t-17.5 -41.5q0 -25 17.5 -42t41.5 -17q25 0 42 17t17 42z" />
<glyph unicode="&#x2db;" horiz-adv-x="319" d="M223 21q-14 -11 -28 -23.5t-25 -26t-18.5 -27.5t-7.5 -29q0 -19 11 -29t31 -10q18 0 33 7.5t24 17.5v-56q-10 -12 -28.5 -20.5t-41.5 -8.5q-35 0 -60 21.5t-25 61.5q0 25 15.5 57t64.5 65h55z" />
<glyph unicode="&#x2dc;" horiz-adv-x="318" d="M310 675q-14 -34 -38.5 -54.5t-54.5 -20.5q-19 0 -36.5 7t-33 15t-29.5 15t-26 7q-21 0 -30.5 -15t-16.5 -29l-41 18q14 35 37.5 54.5t52.5 19.5q18 0 34.5 -6.5t32 -15t30 -15t27.5 -6.5q17 0 30.5 12.5t19.5 30.5z" />
<glyph unicode="&#x2dd;" horiz-adv-x="331" d="M50 594l86 138l50 -26l-73 -112h-63zM196 594l86 138l50 -26l-73 -112h-63z" />
<glyph unicode="&#x3bc;" d="M81 -174v689h63v-307q0 -78 31.5 -119t95.5 -41q31 0 61 11t53 32.5t37 53t14 71.5v299h63v-515h-60v81q-35 -50 -79 -71.5t-89 -21.5q-46 0 -79.5 19t-47.5 46v-227h-63z" />
<glyph unicode="&#x3c0;" horiz-adv-x="600" d="M494 456v-456h-62v456h-264v-456h-62v456h-70v60h528v-60h-70z" />
<glyph unicode="&#x1e80;" horiz-adv-x="992" d="M731 0h-74l-184 615l-184 -615h-74l-186 714h72l154 -610l184 610h71l183 -611l155 611h69zM446 762l-73 112l50 26l86 -138h-63z" />
<glyph unicode="&#x1e81;" horiz-adv-x="772" d="M598 0h-73l-138 433l-139 -433h-73l-143 516h65l118 -444l142 444h63l141 -444l118 444h61zM362 594l-73 112l50 26l86 -138h-63z" />
<glyph unicode="&#x1e82;" horiz-adv-x="992" d="M731 0h-74l-184 615l-184 -615h-74l-186 714h72l154 -610l184 610h71l183 -611l155 611h69zM470 762l86 138l50 -26l-73 -112h-63z" />
<glyph unicode="&#x1e83;" horiz-adv-x="772" d="M598 0h-73l-138 433l-139 -433h-73l-143 516h65l118 -444l142 444h63l141 -444l118 444h61zM349 594l86 138l50 -26l-73 -112h-63z" />
<glyph unicode="&#x1e84;" horiz-adv-x="992" d="M731 0h-74l-184 615l-184 -615h-74l-186 714h72l154 -610l184 610h71l183 -611l155 611h69zM359 806q0 17 12 29t28 12q17 0 28.5 -12t11.5 -29q0 -15 -11.5 -27t-28.5 -12q-16 0 -28 11.5t-12 27.5zM545 806q0 17 12 29t27 12q17 0 29 -12t12 -29q0 -15 -12 -27t-29 -12 q-15 0 -27 11.5t-12 27.5z" />
<glyph unicode="&#x1e85;" horiz-adv-x="772" d="M598 0h-73l-138 433l-139 -433h-73l-143 516h65l118 -444l142 444h63l141 -444l118 444h61zM255 638q0 17 12 29t28 12q17 0 28.5 -12t11.5 -29q0 -15 -11.5 -27t-28.5 -12q-16 0 -28 11.5t-12 27.5zM441 638q0 17 12 29t27 12q17 0 29 -12t12 -29q0 -15 -12 -27t-29 -12 q-15 0 -27 11.5t-12 27.5z" />
<glyph unicode="&#x1ef2;" horiz-adv-x="595" d="M335 300v-300h-72v299l-254 415h81l211 -349l210 349h77zM289 762l-73 112l50 26l86 -138h-63z" />
<glyph unicode="&#x1ef3;" horiz-adv-x="520" d="M293 -27q-14 -37 -29.5 -66t-35 -49.5t-45.5 -31t-61 -10.5q-24 0 -46 5.5t-38 16.5l25 54q11 -9 26.5 -13.5t32.5 -4.5q41 0 63 26.5t39 63.5l15 33l-221 519h72l182 -431l161 431h68zM245 594l-73 112l50 26l86 -138h-63z" />
<glyph unicode="&#x2000;" horiz-adv-x="500" />
<glyph unicode="&#x2001;" horiz-adv-x="1000" />
<glyph unicode="&#x2002;" horiz-adv-x="500" />
<glyph unicode="&#x2003;" horiz-adv-x="1000" />
<glyph unicode="&#x2004;" horiz-adv-x="333" />
<glyph unicode="&#x2005;" horiz-adv-x="250" />
<glyph unicode="&#x2006;" horiz-adv-x="166" />
<glyph unicode="&#x2007;" horiz-adv-x="166" />
<glyph unicode="&#x2008;" horiz-adv-x="125" />
<glyph unicode="&#x2009;" horiz-adv-x="200" />
<glyph unicode="&#x200a;" horiz-adv-x="55" />
<glyph unicode="&#x2010;" horiz-adv-x="371" d="M66 283v54h240v-54h-240z" />
<glyph unicode="&#x2011;" horiz-adv-x="371" d="M66 283v54h240v-54h-240z" />
<glyph unicode="&#x2012;" horiz-adv-x="371" d="M66 283v54h240v-54h-240z" />
<glyph unicode="&#x2013;" d="M66 275v58h460v-58h-460z" />
<glyph unicode="&#x2014;" horiz-adv-x="1002" d="M66 275v58h871v-58h-871z" />
<glyph unicode="&#x2018;" horiz-adv-x="209" d="M101 619q23 1 38.5 -13.5t15.5 -34.5q0 -17 -11 -34t-36 -17t-40 19t-15 55q0 38 24 72.5t60 58.5l22 -34q-13 -7 -24 -16t-18.5 -19t-12 -20t-3.5 -17z" />
<glyph unicode="&#x2019;" horiz-adv-x="203" d="M110 623q-23 -1 -39 14t-16 35q0 17 11.5 33.5t36.5 16.5q24 0 39 -19t15 -54q0 -39 -23.5 -73.5t-59.5 -57.5l-22 34q26 14 42.5 35t15.5 36z" />
<glyph unicode="&#x201a;" horiz-adv-x="234" d="M119 -14q-24 0 -39.5 14.5t-15.5 34.5q0 17 11 34t37 17q24 0 39 -19t15 -55q0 -38 -23.5 -72.5t-59.5 -58.5l-22 34q13 7 23.5 16t18.5 19t12 19.5t4 16.5z" />
<glyph unicode="&#x201c;" horiz-adv-x="359" d="M249 619q24 1 39.5 -13.5t15.5 -34.5q0 -17 -11 -34t-37 -17q-24 0 -39 19t-15 55q0 38 24 72.5t59 58.5l22 -34q-26 -14 -42.5 -35.5t-15.5 -36.5zM101 619q23 1 38.5 -13.5t15.5 -34.5q0 -17 -11 -34t-36 -17t-40 19t-15 55q0 38 24 72.5t60 58.5l22 -34 q-13 -7 -24 -16t-18.5 -19t-12 -20t-3.5 -17z" />
<glyph unicode="&#x201d;" horiz-adv-x="350" d="M110 623q-23 -1 -39 14t-16 35q0 17 11.5 33.5t36.5 16.5q24 0 39 -19t15 -54q0 -39 -23.5 -73.5t-59.5 -57.5l-22 34q26 14 42.5 35t15.5 36zM259 623q-25 -1 -40 14t-15 35q0 17 11 33.5t37 16.5q24 0 39 -19t15 -54q0 -39 -23.5 -73.5t-59.5 -57.5l-22 34 q26 14 42.5 35t15.5 36z" />
<glyph unicode="&#x201e;" horiz-adv-x="370" d="M119 -14q-24 0 -39.5 14.5t-15.5 34.5q0 17 11 34t37 17q24 0 39 -19t15 -55q0 -38 -23.5 -72.5t-59.5 -58.5l-22 34q13 7 23.5 16t18.5 19t12 19.5t4 16.5zM255 -14q-23 0 -38.5 14.5t-15.5 34.5q0 17 11 34t36 17q24 0 39.5 -19t15.5 -55q0 -38 -24 -72.5t-60 -58.5 l-22 34q13 7 24 16t18.5 19t12 19.5t3.5 16.5z" />
<glyph unicode="&#x2020;" horiz-adv-x="472" d="M267 455v-455h-62v455h-170v61h170v198h62v-198h170v-61h-170z" />
<glyph unicode="&#x2021;" horiz-adv-x="496" d="M278 199v-199h-62v199h-168v60h168v198h-168v59h168v198h62v-198h170v-59h-170v-198h170v-60h-170z" />
<glyph unicode="&#x2022;" horiz-adv-x="350" d="M297 333q0 -26 -10 -48t-26.5 -38.5t-38.5 -26t-47 -9.5q-26 0 -48 9.5t-38.5 26t-26 38.5t-9.5 48q0 25 9.5 47.5t26 39t38.5 26t48 9.5q25 0 47 -9.5t38.5 -26t26.5 -39t10 -47.5z" />
<glyph unicode="&#x2025;" horiz-adv-x="477" d="M68 41q0 21 14.5 36t36.5 15q21 0 36 -15t15 -36t-15 -36t-36 -15q-22 0 -36.5 15t-14.5 36zM306 41q0 21 15 36t36 15t36 -15t15 -36t-15 -36t-36 -15t-36 15t-15 36z" />
<glyph unicode="&#x2026;" horiz-adv-x="716" d="M68 41q0 21 14.5 36t36.5 15q21 0 36 -15t15 -36t-15 -36t-36 -15q-22 0 -36.5 15t-14.5 36zM306 41q0 21 15 36t36 15t36 -15t15 -36t-15 -36t-36 -15t-36 15t-15 36zM545 41q0 21 14.5 36t36.5 15q21 0 36 -15t15 -36t-15 -36t-36 -15q-22 0 -36.5 15t-14.5 36z" />
<glyph unicode="&#x202f;" horiz-adv-x="200" />
<glyph unicode="&#x2030;" horiz-adv-x="1190" d="M359 580q0 -30 -11.5 -56.5t-31.5 -46.5t-46.5 -31.5t-56.5 -11.5t-57 11.5t-47 31.5t-31.5 46.5t-11.5 56.5t11.5 57t31.5 47t47 31.5t57 11.5t56.5 -11.5t46.5 -31.5t31.5 -47t11.5 -57zM303 580q0 38 -26.5 64.5t-63.5 26.5q-19 0 -35.5 -7t-29 -19.5t-19.5 -29 t-7 -35.5q0 -18 7 -34.5t19.5 -29t29 -19.5t35.5 -7q37 0 63.5 26.5t26.5 63.5zM202 0h-60l476 714h60zM755 133q0 -30 -11.5 -56.5t-31.5 -46.5t-46.5 -31.5t-56.5 -11.5t-57 11.5t-47 31.5t-31.5 46.5t-11.5 56.5t11.5 57t31.5 47t47 31.5t57 11.5t56.5 -11.5t46.5 -31.5 t31.5 -47t11.5 -57zM699 133q0 38 -26.5 64.5t-63.5 26.5q-19 0 -35.5 -7t-29 -19.5t-19.5 -29t-7 -35.5q0 -18 7 -34.5t19.5 -29t29 -19.5t35.5 -7q37 0 63.5 26.5t26.5 63.5zM1125 133q0 -30 -11.5 -56.5t-31.5 -46.5t-46.5 -31.5t-56.5 -11.5t-57 11.5t-47 31.5 t-31.5 46.5t-11.5 56.5t11.5 57t31.5 47t47 31.5t57 11.5t56.5 -11.5t46.5 -31.5t31.5 -47t11.5 -57zM1069 133q0 38 -26.5 64.5t-63.5 26.5q-19 0 -35.5 -7t-29 -19.5t-19.5 -29t-7 -35.5q0 -18 7 -34.5t19.5 -29t29 -19.5t35.5 -7q37 0 63.5 26.5t26.5 63.5z" />
<glyph unicode="&#x2039;" horiz-adv-x="279" d="M37 300l144 206l46 -37l-135 -177l135 -179l-46 -34l-144 202v19z" />
<glyph unicode="&#x203a;" horiz-adv-x="279" d="M242 281l-144 -202l-45 34l134 179l-134 177l45 37l144 -206v-19z" />
<glyph unicode="&#x2044;" horiz-adv-x="200" d="M-108 0h-60l476 714h60z" />
<glyph unicode="&#x205f;" horiz-adv-x="250" />
<glyph unicode="&#x2070;" horiz-adv-x="396" d="M351 590q0 -45 -8.5 -84.5t-26.5 -69.5t-47.5 -47t-71.5 -17q-41 0 -70 17t-47 47t-26.5 69.5t-8.5 84.5t8.5 85t26.5 69.5t47 46.5t70 17q42 0 71.5 -17t47.5 -46.5t26.5 -69.5t8.5 -85zM298 590q0 78 -22.5 123.5t-78.5 45.5q-54 0 -77 -45.5t-23 -123.5t23 -124 t77 -46q56 0 78.5 46t22.5 124z" />
<glyph unicode="&#x2074;" horiz-adv-x="377" d="M288 481v-101h-51v101h-212v48q21 22 51.5 59t61 77t56.5 77t38 58h56v-269h67v-50h-67zM237 531v198q-29 -48 -68.5 -98t-81.5 -100h150z" />
<glyph unicode="&#x2075;" horiz-adv-x="371" d="M337 519q0 -27 -10 -53.5t-29.5 -47t-49.5 -33.5t-70 -13q-51 0 -88 19.5t-62 45.5l38 39q20 -27 49.5 -39.5t58.5 -12.5q21 0 40.5 5.5t34.5 16.5t24 28.5t9 40.5q0 42 -29 64.5t-73 22.5q-28 0 -52.5 -9.5t-43.5 -32.5l-29 17l12 223h246v-53h-200q-2 -32 -4.5 -59.5 t-5.5 -59.5q23 14 47 19.5t45 5.5q31 0 57 -10.5t45 -28.5t29.5 -42.5t10.5 -52.5z" />
<glyph unicode="&#x2076;" horiz-adv-x="378" d="M93 512q0 -39 27 -63t76 -24q51 0 77 24t26 64t-26 65t-77 25q-49 0 -76 -25t-27 -66zM252 800q-47 -37 -88.5 -87t-60.5 -100q22 22 53 30.5t53 8.5q31 0 57 -10t45.5 -28t30.5 -43.5t11 -56.5t-11.5 -57t-32 -45t-49.5 -29.5t-63 -10.5q-72 0 -115 41.5t-43 117.5 q0 42 11 79.5t30 71t44 63t54 55.5h74z" />
<glyph unicode="&#x2077;" horiz-adv-x="338" d="M328 753q-21 -27 -51.5 -69.5t-60 -93t-51.5 -105t-25 -105.5h-55q4 51 24 103.5t47.5 101t56.5 91t51 73.5h-250v51h314v-47z" />
<glyph unicode="&#x2078;" horiz-adv-x="393" d="M353 494q0 -30 -12 -53t-33.5 -38t-50 -23t-61.5 -8t-61.5 8t-49.5 23t-33 38t-12 53q0 77 76 111q-32 15 -45.5 38.5t-13.5 55.5q0 26 10.5 46t29.5 34t44 21.5t55 7.5q61 0 101 -28.5t40 -80.5q0 -31 -16.5 -54.5t-45.5 -39.5q35 -17 56.5 -46t21.5 -65zM284 695 q0 32 -26.5 46.5t-61.5 14.5t-60.5 -14.5t-25.5 -46.5q0 -35 25.5 -51.5t59.5 -16.5q35 0 62 16.5t27 51.5zM298 499q0 21 -8 35.5t-22 24.5t-32.5 14.5t-39.5 4.5t-39.5 -4.5t-32.5 -14t-22.5 -24.5t-8.5 -35q0 -21 8.5 -35.5t22.5 -23.5t32.5 -13t39.5 -4t39.5 4t32.5 13 t22 23t8 35z" />
<glyph unicode="&#x2079;" horiz-adv-x="378" d="M286 666q0 39 -28 63.5t-77 24.5q-50 0 -76.5 -24.5t-26.5 -64.5t26.5 -64t76.5 -24q49 0 77 24.5t28 64.5zM127 380q22 18 45 40t43 46t35.5 49.5t24.5 49.5q-22 -21 -52.5 -29.5t-52.5 -8.5q-31 0 -57.5 9.5t-46 27.5t-30.5 43.5t-11 56.5t11.5 57.5t32 46t49 30 t63.5 10.5q72 0 115 -41.5t43 -118.5q0 -41 -11 -78.5t-29.5 -70.5t-44 -63t-53.5 -56h-74z" />
<glyph unicode="&#x2080;" horiz-adv-x="396" d="M351 124q0 -45 -8.5 -84.5t-26.5 -69t-47.5 -47t-71.5 -17.5q-41 0 -70 17t-47 46.5t-26.5 69.5t-8.5 85q0 46 8.5 86t26.5 69t47 46t70 17q42 0 71.5 -17t47.5 -47t26.5 -69.5t8.5 -84.5zM298 124q0 77 -23 123.5t-78 46.5q-54 0 -77 -45.5t-23 -124.5q0 -78 23 -123.5 t77 -45.5q55 0 78 46t23 123z" />
<glyph unicode="&#x2081;" horiz-adv-x="354" d="M231 -86h-52v354q-17 -8 -47 -17t-62 -14l-9 44q45 9 77.5 21t52.5 32h40v-420z" />
<glyph unicode="&#x2082;" horiz-adv-x="372" d="M41 -86v43q50 40 91.5 72.5t71.5 62t47 58t17 60.5q0 41 -25.5 61t-63.5 20q-40 0 -69 -18t-45 -41l-36 32q13 16 27.5 30t32.5 24.5t40 17t50 6.5q66 0 105 -37.5t39 -95.5q0 -30 -11 -56.5t-35 -54.5t-61.5 -60t-91.5 -73h215v-51h-298z" />
<glyph unicode="&#x2083;" horiz-adv-x="379" d="M337 34q0 -29 -11.5 -53t-31.5 -40.5t-48 -25.5t-61 -9q-54 0 -94.5 21t-61.5 51l38 35q18 -24 47.5 -39.5t70.5 -15.5q51 0 74.5 22t23.5 54t-21 50t-61 18h-54v51h51q11 0 24 3.5t24 11.5t18.5 21t7.5 31q0 35 -26.5 52.5t-64.5 17.5q-35 0 -62 -14t-42 -34l-40 34 q58 66 145 66q66 0 104 -33t38 -84q0 -26 -11 -50t-39 -40q19 -7 31.5 -18.5t19.5 -25.5t9.5 -29t2.5 -28z" />
<glyph unicode="&#x2084;" horiz-adv-x="377" d="M288 16v-102h-51v102h-212v47q21 22 51.5 59t61 77t56.5 77t38 58h56v-269h67v-49h-67zM237 65v196q-29 -47 -68.5 -96.5t-81.5 -99.5h150z" />
<glyph unicode="&#x2085;" horiz-adv-x="371" d="M337 54q0 -27 -10 -53.5t-29.5 -47.5t-49.5 -34t-70 -13q-51 0 -88 19.5t-62 45.5l38 40q20 -27 49.5 -40t58.5 -13q21 0 40.5 5.5t34.5 17t24 28.5t9 40q0 42 -29 64.5t-73 22.5q-28 0 -52.5 -9.5t-43.5 -31.5l-29 16l12 223h246v-53h-200q-2 -32 -4.5 -59t-5.5 -60 q23 14 47 19.5t45 5.5q31 0 57 -10t45 -28t29.5 -42.5t10.5 -52.5z" />
<glyph unicode="&#x2086;" horiz-adv-x="378" d="M93 47q0 -39 27 -63t76 -24q51 0 77 24t26 64q0 39 -26 64t-77 25q-49 0 -76 -25t-27 -65zM252 334q-47 -36 -88.5 -86.5t-60.5 -100.5q22 22 53 31t53 9q31 0 57 -10t45.5 -28t30.5 -43.5t11 -56.5t-11.5 -57.5t-32 -45.5t-49.5 -29.5t-63 -10.5q-72 0 -115 41.5 t-43 118.5q0 41 11 78.5t30 71t44 63t54 55.5h74z" />
<glyph unicode="&#x2087;" horiz-adv-x="338" d="M328 288q-21 -27 -51.5 -69.5t-60 -93t-51.5 -105.5t-25 -106h-55q4 51 24 104t47.5 101.5t56.5 91t51 73.5h-250v50h314v-46z" />
<glyph unicode="&#x2088;" horiz-adv-x="393" d="M353 28q0 -30 -12 -53t-33.5 -38t-50 -23t-61.5 -8t-61.5 8t-49.5 23t-33 38t-12 53q0 78 76 112q-32 14 -45.5 37.5t-13.5 55.5q0 26 10.5 46t29.5 34t44 21.5t55 7.5q61 0 101 -28.5t40 -80.5q0 -31 -16.5 -54t-45.5 -39q35 -17 56.5 -46t21.5 -66zM284 230 q0 32 -26.5 46t-61.5 14t-60.5 -14t-25.5 -46q0 -35 25.5 -51.5t59.5 -16.5q35 0 62 16.5t27 51.5zM298 33q0 21 -8 36t-22 25t-32.5 14.5t-39.5 4.5t-39.5 -4.5t-32.5 -14.5t-22.5 -24.5t-8.5 -35.5q0 -20 8.5 -34.5t22.5 -23.5t32.5 -13.5t39.5 -4.5t39.5 4t32.5 13 t22 23.5t8 34.5z" />
<glyph unicode="&#x2089;" horiz-adv-x="378" d="M286 201q0 39 -28 63.5t-77 24.5q-50 0 -76.5 -24.5t-26.5 -64.5t26.5 -64.5t76.5 -24.5q49 0 77 24.5t28 65.5zM127 -86q22 18 45 40t43 46t35.5 49.5t24.5 49.5q-22 -21 -52.5 -29t-52.5 -8q-31 0 -57.5 9.5t-46 27.5t-30.5 43.5t-11 56.5t11.5 57.5t32 45.5t49 29.5 t63.5 10.5q72 0 115 -41.5t43 -117.5q0 -42 -11 -79t-29.5 -70.5t-44 -63t-53.5 -56.5h-74z" />
<glyph unicode="&#x20ac;" d="M367 -12q-57 0 -106 20.5t-87.5 57.5t-64.5 89t-37 115h-73v46h67q-1 6 -1 17v21v24.5t2 21.5h-68v47h74q11 58 36.5 109t64.5 88.5t91.5 59t118.5 21.5q65 0 114 -18.5t79 -42.5l-30 -58q-67 52 -160 52q-97 0 -158 -56.5t-82 -154.5h318l-24 -47h-302q-2 -11 -2 -21.5 v-21.5v-23t1 -18h260l-23 -46h-230q18 -102 76.5 -159.5t150.5 -57.5q49 0 93 16.5t75 48.5l34 -53q-30 -32 -86 -54.5t-121 -22.5z" />
<glyph unicode="&#x2113;" horiz-adv-x="453" d="M413 67q-9 -14 -21 -28t-29.5 -25t-40.5 -18.5t-53 -7.5q-70 0 -106 42t-36 119v77q-20 -15 -37.5 -25t-28.5 -15l-28 59q17 8 41 23t53 35v266q0 27 7 54.5t22.5 50.5t41.5 37.5t64 14.5q34 0 58 -12t38.5 -31.5t21 -44.5t6.5 -52q0 -47 -17 -90.5t-45 -83t-63 -74.5 t-71 -65v-124q0 -49 20.5 -75.5t62.5 -26.5q38 0 60 18.5t33 37.5zM190 354q24 22 48 48.5t43.5 55.5t31.5 60.5t12 64.5q0 34 -15.5 58.5t-50.5 24.5q-20 0 -33.5 -8.5t-21.5 -22.5t-11 -31.5t-3 -35.5v-214z" />
<glyph unicode="&#x2117;" horiz-adv-x="846" d="M344 321v-163h-49v407h169q28 0 52 -8.5t42 -24t28 -38t10 -49.5q0 -25 -8.5 -47.5t-25.5 -39.5t-41.5 -27t-55.5 -10h-121zM546 444q0 44 -29.5 60t-81.5 16h-91v-154h91q54 0 82.5 16.5t28.5 61.5zM40 363q0 79 30 149t81.5 121.5t121 81.5t149.5 30q79 0 149 -30 t122 -81.5t82 -121.5t30 -149q0 -80 -30 -149.5t-82 -121t-122 -81.5t-149 -30q-80 0 -149.5 30t-121 81.5t-81.5 121t-30 149.5zM83 363q0 -71 26.5 -132.5t72.5 -108t108 -73t132 -26.5t132 26.5t108.5 73t73 108t26.5 132.5q0 70 -26.5 132t-73 108t-108.5 72.5 t-132 26.5t-132 -26.5t-108 -72.5t-72.5 -108t-26.5 -132z" />
<glyph unicode="&#x2122;" horiz-adv-x="629" d="M527 457v213l-74 -213h-51l-74 213v-213h-39v257h64l75 -221l77 221h61v-257h-39zM173 676v-219h-41v219h-88v38h219v-38h-90z" />
<glyph unicode="&#x2126;" horiz-adv-x="601" d="M300 727q59 0 107 -22t82.5 -62t53.5 -96t19 -123q0 -63 -16 -115.5t-39.5 -96.5t-50.5 -81t-50 -70h148v-61h-205l-18 57q39 53 70.5 98t53.5 88.5t34 87t12 93.5q0 54 -14 99t-40.5 77t-63.5 50t-83 18t-83 -18t-63 -50t-40 -77t-14 -99q0 -50 12 -93.5t33.5 -87 t53 -88.5t70.5 -98l-18 -57h-205v61h149q-24 34 -51.5 71.5t-51 82t-39 96.5t-15.5 117t19 120t53.5 94.5t82.5 62t107 22.5z" />
<glyph unicode="&#x212e;" horiz-adv-x="625" d="M162 273v-187q31 -30 68 -45.5t82 -15.5q65 0 113 29t86 95l36 -22q-24 -37 -48.5 -63t-52.5 -43t-61 -25t-73 -8q-61 0 -110 22t-83.5 60.5t-53.5 90.5t-19 112t19 112t53.5 90.5t83.5 60.5t110 22q60 0 109 -21t84 -59t54.5 -90t19.5 -115h-417zM463 310v150 q-67 62 -152 62q-45 0 -81.5 -16t-67.5 -46v-150h301z" />
<glyph unicode="&#x2202;" horiz-adv-x="587" d="M90 680q26 19 66.5 33t91.5 14q55 0 107 -20.5t92 -64.5t64 -112t24 -162q0 -40 -5 -84t-17.5 -86.5t-32 -80.5t-49 -67t-69.5 -46t-92 -17q-51 0 -92.5 16.5t-71 47t-45.5 73t-16 93.5q0 55 18.5 100.5t50 78.5t74 51.5t90.5 18.5q33 0 63 -8.5t55 -23.5t44.5 -35 t30.5 -42q0 62 -12 117.5t-38.5 97.5t-68 67t-101.5 25q-34 0 -66.5 -9t-63.5 -31zM267 52q42 0 75 15t56 40.5t35.5 59t12.5 71.5q0 75 -43.5 119t-117.5 44q-44 0 -76 -16t-53 -42.5t-31 -60.5t-10 -69q0 -78 41.5 -119.5t110.5 -41.5z" />
<glyph unicode="&#x2206;" horiz-adv-x="600" d="M568 0h-535v14l262 748h12l261 -748v-14zM115 61h370l-184 544z" />
<glyph unicode="&#x220f;" horiz-adv-x="601" d="M493 652v-652h-61v652h-263v-652h-62v652h-70v62h526v-62h-70z" />
<glyph unicode="&#x2211;" horiz-adv-x="600" d="M531 0h-473v24l309 333l-309 333v24h473v-62h-351l272 -295l-272 -296h351v-61z" />
<glyph unicode="&#x2212;" d="M66 275v58h460v-58h-460z" />
<glyph unicode="&#x221a;" horiz-adv-x="602" d="M603 727l-380 -781h-12l-189 386l54 27l140 -287l332 681z" />
<glyph unicode="&#x221e;" horiz-adv-x="794" d="M741 275q0 -33 -12 -62t-33.5 -51t-51.5 -34.5t-65 -12.5q-26 0 -53.5 9.5t-53.5 35.5l-75 75l-74 -75q-26 -25 -52.5 -35t-54.5 -10q-36 0 -66 12.5t-51.5 34.5t-34 51t-12.5 62t12.5 62t34 51t51.5 34.5t66 12.5q28 0 54.5 -10t52.5 -35l74 -75l75 75q26 26 53.5 35.5 t53.5 9.5q35 0 65 -12.5t51.5 -34.5t33.5 -51t12 -62zM683 275q0 21 -8 39.5t-21.5 32t-31.5 21.5t-38 8q-23 0 -42.5 -9.5t-37 -24t-34 -32.5t-33.5 -35l72 -71q14 -14 30.5 -22t39.5 -8q45 0 74.5 29.5t29.5 71.5zM285 345q-17 17 -34 24t-35 7q-46 0 -75.5 -29.5 t-29.5 -71.5q0 -21 8 -39.5t21.5 -32t31.5 -21.5t39 -8q22 0 41.5 9.5t37 24t34 32.5t33.5 35z" />
<glyph unicode="&#x222b;" horiz-adv-x="301" d="M238 695q-20 23 -43 23q-40 0 -40 -63q0 -17 2.5 -49.5t6.5 -74.5t8.5 -89t9.5 -92q4 -50 8.5 -96.5t8.5 -86.5t6 -70.5t2 -47.5q0 -63 -26.5 -94.5t-72.5 -31.5q-30 0 -50 11.5t-36 27.5l41 40q20 -24 43 -24q40 0 40 63q0 17 -2.5 49.5t-6.5 74.5t-9 89t-9 92 q-5 49 -9 96t-8 86.5t-6 70.5t-2 48q0 63 26 94.5t74 31.5q29 0 49.5 -11.5t35.5 -27.5z" />
<glyph unicode="&#x2248;" horiz-adv-x="576" d="M38 189q10 14 23.5 29.5t30.5 28.5t37 21.5t43 8.5q28 0 53.5 -9t63.5 -25q36 -17 62 -26t53 -9q33 0 58.5 15t45.5 36l30 -26q-10 -14 -23.5 -29.5t-30 -28.5t-36.5 -21t-44 -8q-27 0 -53 9t-64 24q-36 17 -62 25.5t-53 8.5q-32 0 -58 -15.5t-46 -35.5zM38 378 q10 13 23.5 28t30.5 28t37 21t43 8q28 0 53.5 -9t63.5 -25q36 -15 62 -24t53 -9q33 0 58.5 14.5t45.5 36.5l30 -27q-10 -15 -23.5 -30.5t-30 -28t-36.5 -21t-44 -8.5q-27 0 -53 9t-64 26q-36 15 -62 24.5t-53 9.5q-32 0 -58 -15.5t-46 -35.5z" />
<glyph unicode="&#x2260;" horiz-adv-x="576" d="M276 168l-60 -178h-48l59 178h-205v61h224l32 95h-256v62h277l60 178h48l-58 -178h204v-62h-225l-32 -95h257v-61h-277z" />
<glyph unicode="&#x2264;" d="M66 0v57h461v-57h-461zM468 617l31 -45l-324 -206l324 -206l-31 -46l-392 252z" />
<glyph unicode="&#x2265;" d="M65 0v57h460v-57h-460zM517 366l-394 -252l-31 46l324 206l-324 206l31 45z" />
<glyph unicode="&#x25ca;" horiz-adv-x="612" d="M306 -48h-12l-251 405l251 405h12l251 -405zM300 660l-186 -303l186 -304l186 304z" />
<glyph unicode="&#x25fc;" horiz-adv-x="515" d="M0 515h515v-515h-515v515z" />
<glyph unicode="&#xf6c3;" horiz-adv-x="217" d="M18 -173l69 112h67l-95 -139z" />
<glyph d="M537 357q0 -69 -11 -135.5t-39 -118.5t-74.5 -84t-116.5 -32q-71 0 -117.5 32t-74 84t-38.5 118.5t-11 135.5t11 135.5t38.5 118.5t74 84t117.5 32q70 0 116.5 -32t74 -84.5t39 -118.5t11.5 -135zM464 357q0 62 -9 117.5t-28.5 97t-51.5 66t-78 24.5q-47 0 -79.5 -24.5 t-52 -66t-28 -97t-8.5 -117.5t8.5 -118t28 -98t52 -66.5t79.5 -24.5q46 0 78 24.5t51.5 66.5t28.5 98t9 118z" />
<glyph d="M397 0h-72v625q-12 -9 -33 -19t-47 -20t-54.5 -19t-56.5 -14l-14 59q76 17 131.5 42t87.5 60h58v-714z" />
<glyph d="M66 0v57q107 90 179.5 156.5t116 118.5t62 94t18.5 83q0 37 -13 64.5t-35 46t-50.5 28t-59.5 9.5q-57 0 -100.5 -26t-69.5 -66l-55 40q38 57 96 89.5t133 32.5q49 0 90.5 -14t72.5 -41.5t48.5 -67.5t17.5 -91t-19 -98t-60.5 -98.5t-106.5 -112t-157 -137.5h352v-67h-460z " />
<glyph d="M285 727q55 0 96.5 -15.5t69 -41.5t41 -60.5t13.5 -71.5q0 -47 -24 -87.5t-87 -66.5q67 -21 102 -69.5t35 -111.5q0 -42 -16 -81t-47.5 -69t-77.5 -48t-106 -18q-48 0 -87 11t-69.5 28t-52 38.5t-34.5 41.5l52 45q69 -95 195 -95q86 0 127 41t41 106q0 63 -40 103 t-131 40h-70v65h69q28 0 54.5 6.5t47.5 21.5t33.5 38.5t12.5 57.5q0 33 -12 56t-32.5 37.5t-47 21.5t-56.5 7q-51 0 -95.5 -19t-76.5 -59l-48 52q18 19 40 36.5t49 30.5t60 21t72 8z" />
<glyph d="M448 177v-177h-68v177h-335v58q31 31 65.5 73.5t69 89t67.5 95t60 91t46.5 77t28.5 53.5h66v-473h100v-64h-100zM378 241v350q-14 -29 -43.5 -75.5t-65 -97t-72.5 -98.5t-65 -79h246z" />
<glyph d="M538 226q0 -48 -17 -91.5t-49.5 -76t-80 -52t-107.5 -19.5q-48 0 -86.5 11.5t-69 29t-52 38.5t-34.5 40l53 45q35 -47 84 -71.5t109 -24.5q88 0 132 46t44 121q0 79 -45 123t-123 44q-51 0 -91.5 -18.5t-68.5 -53.5l-43 23l22 374h385v-67h-326l-15 -240q34 26 74 37 t77 11q50 0 92 -17.5t72 -48.5t47 -72.5t17 -90.5z" />
<glyph d="M411 714q-30 -27 -67 -64.5t-73 -81t-66 -90t-46 -89.5q15 19 35.5 32t43.5 21t45.5 11.5t42.5 3.5q46 0 86 -16.5t70 -47t47 -73.5t17 -95t-17.5 -96t-49 -75.5t-76 -49t-99.5 -17.5q-54 0 -98 17.5t-76 50.5t-49.5 81t-17.5 110q0 66 19.5 128t53.5 120t80 112.5 t98 107.5h97zM136 222q0 -38 11.5 -69t33.5 -53.5t53 -35t70 -12.5q81 0 124 47.5t43 122.5q0 76 -43 122.5t-124 46.5q-78 0 -123 -47t-45 -122z" />
<glyph d="M553 648q-38 -45 -86.5 -114.5t-93 -155t-77.5 -182t-40 -196.5h-76q6 88 36 179t72.5 176.5t92.5 160.5t95 131h-427v67h504v-66z" />
<glyph d="M297 55q86 0 128.5 41.5t42.5 109.5q0 31 -9.5 57.5t-30 45.5t-53 29.5t-78.5 10.5q-47 0 -79.5 -11.5t-53.5 -31t-30.5 -46t-9.5 -56.5q0 -69 44 -109t129 -40zM297 413q27 0 53.5 6t47.5 20t33.5 37t12.5 58q0 33 -12.5 56.5t-32.5 38t-47 21.5t-55 7q-29 0 -56 -7 t-47.5 -21.5t-33 -38t-12.5 -56.5q0 -35 13 -58t34 -37t47.5 -20t54.5 -6zM297 -13q-57 0 -103 16t-78 44t-49 66.5t-17 84.5q0 28 7 55t22.5 52t40 46t59.5 36q-50 22 -77.5 63.5t-27.5 94.5q0 42 17 75.5t47 57.5t70.5 36.5t88.5 12.5q47 0 87.5 -12.5t70 -36.5 t46.5 -57.5t17 -75.5q0 -53 -27 -94.5t-78 -63.5q35 -15 60 -36t40.5 -46t22.5 -52t7 -55q0 -46 -17 -84.5t-49 -66.5t-77.5 -44t-102.5 -16z" />
<glyph d="M182 0q30 26 67 64t73 81.5t66 89.5t46 89q-15 -19 -35.5 -31.5t-43 -20.5t-45.5 -11.5t-43 -3.5q-46 0 -86 16.5t-69.5 46.5t-46.5 72.5t-17 95.5q0 52 17 96t48.5 76t76 49.5t99.5 17.5q54 0 98 -17.5t75.5 -50.5t49 -81.5t17.5 -110.5q0 -66 -19.5 -127.5 t-53.5 -119.5t-79.5 -113t-97.5 -107h-97zM457 491q0 75 -44.5 122t-124.5 47q-81 0 -124 -47t-43 -122q0 -76 43 -122t124 -46q40 0 71 12.5t53 34.5t33.5 53t11.5 68z" />
<glyph horiz-adv-x="254" d="M166 0h-77l17 524h43zM76 673q0 21 15.5 36t35.5 15t35.5 -15t15.5 -36t-15.5 -36t-35.5 -15t-35.5 15t-15.5 36z" />
<glyph horiz-adv-x="493" d="M45 180q0 46 16 78.5t39.5 56.5t51 42.5t51 36.5t39.5 38t16 48v41h59v-42q0 -39 -15 -66t-37 -48t-48.5 -38.5t-48.5 -37.5t-37 -46t-15 -63q0 -26 8.5 -49.5t26 -41t44 -27.5t63.5 -10q53 0 90 17.5t70 46.5l45 -47q-45 -38 -95 -60.5t-111 -22.5q-44 0 -82.5 13.5 t-67.5 38.5t-45.5 61t-16.5 81zM337 670q0 -21 -15.5 -36t-35.5 -15q-21 0 -36 15t-15 36q0 22 15 36.5t36 14.5q20 0 35.5 -14.5t15.5 -36.5z" />
<glyph horiz-adv-x="384" d="M65 305v56h254v-56h-254z" />
<glyph d="M66 304v58h460v-58h-460z" />
<glyph horiz-adv-x="944" d="M66 304v58h812v-58h-812z" />
<glyph horiz-adv-x="333" d="M83 0h-51l220 714h51z" />
<glyph horiz-adv-x="222" d="M87 -48v762h48v-762h-48z" />
<glyph horiz-adv-x="333" d="M251 0l-220 714h50l220 -714h-50z" />
<glyph horiz-adv-x="277" d="M208 -96q-84 88 -123 196.5t-39 226.5t39 226t123 196l43 -39q-75 -78 -109 -177t-34 -206t34 -206t109 -178z" />
<glyph horiz-adv-x="275" d="M60 749q84 -89 122.5 -196.5t38.5 -225.5t-38.5 -226.5t-122.5 -196.5l-43 39q75 79 109 178t34 206t-34 206t-109 177z" />
<glyph horiz-adv-x="310" d="M98 -54v822h179v-62h-117v-700h117v-60h-179z" />
<glyph horiz-adv-x="309" d="M32 -54v60h116v700h-116v62h178v-822h-178z" />
<glyph horiz-adv-x="276" d="M245 -46q-58 0 -94.5 46.5t-36.5 124.5v72q0 46 -19.5 73.5t-62.5 27.5h-6v58h6q43 0 62.5 27t19.5 72v72q0 79 36.5 126t94.5 47h26v-59h-12q-47 0 -65.5 -28.5t-18.5 -76.5v-73q0 -56 -20.5 -89t-56.5 -47q36 -15 56.5 -48t20.5 -88v-75q0 -47 18.5 -76t65.5 -29h12 v-57h-26z" />
<glyph horiz-adv-x="279" d="M248 298q-50 0 -69.5 -30t-19.5 -79v-64q0 -84 -41 -127.5t-107 -43.5h-7v57h5q50 0 69.5 29t19.5 76v75q0 55 21 88t59 48q-38 14 -59 47t-21 88v74q0 48 -19.5 76.5t-69.5 28.5h-5v59h7q66 0 107 -44.5t41 -128.5v-64q0 -47 19.5 -77t69.5 -30h6v-58h-6z" />
<glyph horiz-adv-x="247" d="M174 333q0 -21 -15 -36t-35 -15q-21 0 -36 15t-15 36q0 20 15 36.5t36 16.5q20 0 35 -16.5t15 -36.5z" />
<glyph d="M325 304v-201h-59v201h-200v58h200v201h59v-201h201v-58h-201z" />
<glyph d="M66 304v58h460v-58h-460z" />
<glyph d="M349 515q0 -23 -15.5 -39t-37.5 -16q-23 0 -38 16t-15 39q0 20 15 36t38 16q22 0 37.5 -16t15.5 -36zM66 304v58h460v-58h-460zM349 151q0 -20 -15.5 -36.5t-37.5 -16.5q-23 0 -38 16.5t-15 36.5q0 21 15 38t38 17q22 0 37.5 -17t15.5 -38z" />
<glyph d="M66 399v58h460v-58h-460zM66 209v59h460v-59h-460z" />
<glyph d="M472 115l-176 177l-177 -177l-41 42l178 176l-178 176l41 42l177 -178l176 178l41 -42l-176 -176l176 -176z" />
<glyph d="M400 64l-272 269l272 272l38 -40l-229 -232l229 -230z" />
<glyph d="M192 64l-38 39l231 230l-231 232l38 40l272 -272z" />
<glyph horiz-adv-x="396" d="M351 504q0 -45 -8.5 -84.5t-26.5 -69.5t-47.5 -47t-71.5 -17q-41 0 -70 17t-47 47t-26.5 69.5t-8.5 84.5t8.5 85t26.5 69.5t47 46.5t70 17q42 0 71.5 -17t47.5 -46.5t26.5 -69.5t8.5 -85zM298 504q0 78 -22.5 123.5t-78.5 45.5q-54 0 -77 -45.5t-23 -123.5t23 -124 t77 -46q56 0 78.5 46t22.5 124z" />
<glyph horiz-adv-x="354" d="M231 294h-52v354q-17 -8 -47 -17t-62 -14l-9 44q45 9 77.5 21t52.5 32h40v-420z" />
<glyph horiz-adv-x="372" d="M41 294v43q50 39 91.5 71.5t71.5 62t47 58t17 60.5q0 42 -25.5 61.5t-63.5 19.5q-40 0 -69 -18t-45 -41l-36 33q13 16 27.5 30t32.5 24.5t40 17t50 6.5q33 0 59.5 -10t45 -28t29 -42.5t10.5 -52.5q0 -30 -11 -57t-35 -55t-61.5 -60t-91.5 -73h215v-50h-298z" />
<glyph horiz-adv-x="379" d="M337 414q0 -30 -11.5 -53.5t-31.5 -40t-48 -25.5t-61 -9q-54 0 -94.5 21t-61.5 51l38 35q18 -24 47.5 -39.5t70.5 -15.5q51 0 74.5 22t23.5 54t-21 50t-61 18h-54v51h51q11 0 24 3.5t24 11.5t18.5 20.5t7.5 30.5q0 35 -26.5 53t-64.5 18q-35 0 -62 -14t-42 -35l-40 35 q58 66 145 66q66 0 104 -33t38 -84q0 -27 -11 -50.5t-39 -39.5q19 -7 31.5 -18.5t19.5 -25.5t9.5 -29t2.5 -28z" />
<glyph horiz-adv-x="377" d="M288 395v-101h-51v101h-212v48q21 22 51.5 59t61 77t56.5 77t38 58h56v-269h67v-50h-67zM237 445v198q-29 -48 -68.5 -98t-81.5 -100h150z" />
<glyph horiz-adv-x="371" d="M337 433q0 -27 -10 -53.5t-29.5 -47t-49.5 -33.5t-70 -13q-51 0 -88 19.5t-62 45.5l38 39q20 -27 49.5 -39.5t58.5 -12.5q21 0 40.5 5.5t34.5 16.5t24 28.5t9 40.5q0 42 -29 64.5t-73 22.5q-28 0 -52.5 -9.5t-43.5 -32.5l-29 17l12 223h246v-53h-200q-2 -32 -4.5 -59.5 t-5.5 -59.5q23 14 47 19.5t45 5.5q31 0 57 -10.5t45 -28.5t29.5 -42.5t10.5 -52.5z" />
<glyph horiz-adv-x="378" d="M93 426q0 -39 27 -63t76 -24q51 0 77 24t26 64t-26 65t-77 25q-49 0 -76 -25t-27 -66zM252 714q-47 -37 -88.5 -87t-60.5 -100q22 22 53 30.5t53 8.5q31 0 57 -10t45.5 -28t30.5 -43.5t11 -56.5t-11.5 -57t-32 -45t-49.5 -29.5t-63 -10.5q-72 0 -115 41.5t-43 117.5 q0 42 11 79.5t30 71t44 63t54 55.5h74z" />
<glyph horiz-adv-x="338" d="M328 667q-21 -27 -51.5 -69.5t-60 -93t-51.5 -105t-25 -105.5h-55q4 51 24 103.5t47.5 101t56.5 91t51 73.5h-250v51h314v-47z" />
<glyph horiz-adv-x="393" d="M353 408q0 -30 -12 -53t-33.5 -38t-50 -23t-61.5 -8t-61.5 8t-49.5 23t-33 38t-12 53q0 77 76 111q-32 15 -45.5 38.5t-13.5 55.5q0 26 10.5 46t29.5 34t44 21.5t55 7.5q61 0 101 -28.5t40 -80.5q0 -31 -16.5 -54.5t-45.5 -39.5q35 -17 56.5 -46t21.5 -65zM284 609 q0 32 -26.5 46.5t-61.5 14.5t-60.5 -14.5t-25.5 -46.5q0 -35 25.5 -51.5t59.5 -16.5q35 0 62 16.5t27 51.5zM298 413q0 21 -8 35.5t-22 24.5t-32.5 14.5t-39.5 4.5t-39.5 -4.5t-32.5 -14t-22.5 -24.5t-8.5 -35q0 -21 8.5 -35.5t22.5 -23.5t32.5 -13t39.5 -4t39.5 4t32.5 13 t22 23t8 35z" />
<glyph horiz-adv-x="378" d="M286 580q0 39 -28 63.5t-77 24.5q-50 0 -76.5 -24.5t-26.5 -64.5t26.5 -64t76.5 -24q49 0 77 24.5t28 64.5zM127 294q22 18 45 40t43 46t35.5 49.5t24.5 49.5q-22 -21 -52.5 -29.5t-52.5 -8.5q-31 0 -57.5 9.5t-46 27.5t-30.5 43.5t-11 56.5t11.5 57.5t32 46t49 30 t63.5 10.5q72 0 115 -41.5t43 -118.5q0 -41 -11 -78.5t-29.5 -70.5t-44 -63t-53.5 -56h-74z" />
<glyph horiz-adv-x="396" d="M351 210q0 -45 -8.5 -84.5t-26.5 -69t-47.5 -47t-71.5 -17.5q-41 0 -70 17t-47 46.5t-26.5 69.5t-8.5 85q0 46 8.5 86t26.5 69t47 46t70 17q42 0 71.5 -17t47.5 -47t26.5 -69.5t8.5 -84.5zM298 210q0 77 -23 123.5t-78 46.5q-54 0 -77 -45.5t-23 -124.5q0 -78 23 -123.5 t77 -45.5q55 0 78 46t23 123z" />
<glyph horiz-adv-x="354" d="M231 0h-52v354q-17 -8 -47 -17t-62 -14l-9 44q45 9 77.5 21t52.5 32h40v-420z" />
<glyph horiz-adv-x="372" d="M41 0v43q50 40 91.5 72.5t71.5 62t47 58t17 60.5q0 41 -25.5 61t-63.5 20q-40 0 -69 -18t-45 -41l-36 32q13 16 27.5 30t32.5 24.5t40 17t50 6.5q66 0 105 -37.5t39 -95.5q0 -30 -11 -56.5t-35 -54.5t-61.5 -60t-91.5 -73h215v-51h-298z" />
<glyph horiz-adv-x="379" d="M337 120q0 -29 -11.5 -53t-31.5 -40.5t-48 -25.5t-61 -9q-54 0 -94.5 21t-61.5 51l38 35q18 -24 47.5 -39.5t70.5 -15.5q51 0 74.5 22t23.5 54t-21 50t-61 18h-54v51h51q11 0 24 3.5t24 11.5t18.5 21t7.5 31q0 35 -26.5 52.5t-64.5 17.5q-35 0 -62 -14t-42 -34l-40 34 q58 66 145 66q66 0 104 -33t38 -84q0 -26 -11 -50t-39 -40q19 -7 31.5 -18.5t19.5 -25.5t9.5 -29t2.5 -28z" />
<glyph horiz-adv-x="377" d="M288 102v-102h-51v102h-212v47q21 22 51.5 59t61 77t56.5 77t38 58h56v-269h67v-49h-67zM237 151v196q-29 -47 -68.5 -96.5t-81.5 -99.5h150z" />
<glyph horiz-adv-x="371" d="M337 140q0 -27 -10 -53.5t-29.5 -47.5t-49.5 -34t-70 -13q-51 0 -88 19.5t-62 45.5l38 40q20 -27 49.5 -40t58.5 -13q21 0 40.5 5.5t34.5 17t24 28.5t9 40q0 42 -29 64.5t-73 22.5q-28 0 -52.5 -9.5t-43.5 -31.5l-29 16l12 223h246v-53h-200q-2 -32 -4.5 -59t-5.5 -60 q23 14 47 19.5t45 5.5q31 0 57 -10t45 -28t29.5 -42.5t10.5 -52.5z" />
<glyph horiz-adv-x="378" d="M93 133q0 -39 27 -63t76 -24q51 0 77 24t26 64q0 39 -26 64t-77 25q-49 0 -76 -25t-27 -65zM252 420q-47 -36 -88.5 -86.5t-60.5 -100.5q22 22 53 31t53 9q31 0 57 -10t45.5 -28t30.5 -43.5t11 -56.5t-11.5 -57.5t-32 -45.5t-49.5 -29.5t-63 -10.5q-72 0 -115 41.5 t-43 118.5q0 41 11 78.5t30 71t44 63t54 55.5h74z" />
<glyph horiz-adv-x="338" d="M328 374q-21 -27 -51.5 -69.5t-60 -93t-51.5 -105.5t-25 -106h-55q4 51 24 104t47.5 101.5t56.5 91t51 73.5h-250v50h314v-46z" />
<glyph horiz-adv-x="393" d="M353 114q0 -30 -12 -53t-33.5 -38t-50 -23t-61.5 -8t-61.5 8t-49.5 23t-33 38t-12 53q0 78 76 112q-32 14 -45.5 37.5t-13.5 55.5q0 26 10.5 46t29.5 34t44 21.5t55 7.5q61 0 101 -28.5t40 -80.5q0 -31 -16.5 -54t-45.5 -39q35 -17 56.5 -46t21.5 -66zM284 316 q0 32 -26.5 46t-61.5 14t-60.5 -14t-25.5 -46q0 -35 25.5 -51.5t59.5 -16.5q35 0 62 16.5t27 51.5zM298 119q0 21 -8 36t-22 25t-32.5 14.5t-39.5 4.5t-39.5 -4.5t-32.5 -14.5t-22.5 -24.5t-8.5 -35.5q0 -20 8.5 -34.5t22.5 -23.5t32.5 -13.5t39.5 -4.5t39.5 4t32.5 13 t22 23.5t8 34.5z" />
<glyph horiz-adv-x="378" d="M286 287q0 39 -28 63.5t-77 24.5q-50 0 -76.5 -24.5t-26.5 -64.5t26.5 -64.5t76.5 -24.5q49 0 77 24.5t28 65.5zM127 0q22 18 45 40t43 46t35.5 49.5t24.5 49.5q-22 -21 -52.5 -29t-52.5 -8q-31 0 -57.5 9.5t-46 27.5t-30.5 43.5t-11 56.5t11.5 57.5t32 45.5t49 29.5 t63.5 10.5q72 0 115 -41.5t43 -117.5q0 -42 -11 -79t-29.5 -70.5t-44 -63t-53.5 -56.5h-74z" />
<glyph horiz-adv-x="589" d="M539 257q0 -57 -17 -106t-49 -85.5t-77 -57t-102 -20.5t-102.5 20.5t-77 57t-48.5 85.5t-17 106q0 58 17 107.5t48.5 86t77 57t102.5 20.5t102 -20.5t77 -57t49 -86t17 -107.5zM472 257q0 44 -12 82.5t-34.5 67t-56 44.5t-75.5 16q-43 0 -76 -16t-56 -44.5t-35 -67 t-12 -82.5q0 -43 12 -81.5t35 -67t56 -45t76 -16.5q42 0 75.5 16.5t56 45t34.5 67t12 81.5zM252 594l93 142l43 -30l-73 -112h-63z" />
<glyph horiz-adv-x="235" d="M86 0v516h63v-516h-63zM78 637q0 16 11.5 27.5t26.5 11.5q17 0 28.5 -11t11.5 -28q0 -15 -11.5 -26.5t-28.5 -11.5q-15 0 -26.5 11t-11.5 27z" />
<glyph horiz-adv-x="216" d="M153 644q0 -42 -15 -75.5t-40 -62.5l-34 24q18 20 28.5 45t10.5 46q0 13 -3 22.5t-6 18.5t-6 17.5t-3 19.5v15h68v-70z" />
<glyph horiz-adv-x="318" d="M123 594l93 142l43 -30l-73 -112h-63z" />
<glyph horiz-adv-x="1235" d="M297 727q72 0 141 -29.5t114 -89.5l-52 -44q-38 52 -93.5 74.5t-115.5 22.5q-31 0 -59.5 -6t-50 -20.5t-34 -37t-12.5 -55.5q0 -35 14 -57t37.5 -36.5t55 -23.5t66.5 -18q51 -13 96 -28.5t79 -38.5t54 -57.5t20 -85.5q0 -47 -17.5 -85.5t-50 -66.5t-79.5 -43t-105 -15 q-94 0 -162 36.5t-107 97.5l54 47q19 -32 44.5 -54t54.5 -35.5t60 -20t62 -6.5q80 0 128 36t48 104q0 39 -18 63.5t-47.5 40.5t-67.5 26t-77.5 20t-77.5 22.5t-67.5 33.5t-47.5 53.5t-18 81.5q0 46 17.5 82t48.5 61t73.5 38t91.5 13zM915 727q72 0 141 -29.5t114 -89.5 l-52 -44q-38 52 -93.5 74.5t-115.5 22.5q-31 0 -59.5 -6t-50 -20.5t-34 -37t-12.5 -55.5q0 -35 14 -57t37.5 -36.5t55 -23.5t66.5 -18q51 -13 96 -28.5t79 -38.5t54 -57.5t20 -85.5q0 -47 -17.5 -85.5t-50 -66.5t-79.5 -43t-105 -15q-94 0 -162 36.5t-107 97.5l54 47 q19 -32 44.5 -54t54.5 -35.5t60 -20t62 -6.5q80 0 128 36t48 104q0 39 -18 63.5t-47.5 40.5t-67.5 26t-77.5 20t-77.5 22.5t-67.5 33.5t-47.5 53.5t-18 81.5q0 46 17.5 82t48.5 61t73.5 38t91.5 13z" />
</font>
</defs>
</svg>
